<?xml version="1.0" encoding="UTF-8" standalone="no"?>
<!-- Generator: Adobe Illustrator 15.1.0, SVG Export Plug-In . SVG Version: 6.00 Build 0)  -->

<svg
   xmlns:dc="http://purl.org/dc/elements/1.1/"
   xmlns:cc="http://creativecommons.org/ns#"
   xmlns:rdf="http://www.w3.org/1999/02/22-rdf-syntax-ns#"
   xmlns:svg="http://www.w3.org/2000/svg"
   xmlns="http://www.w3.org/2000/svg"
   xmlns:xlink="http://www.w3.org/1999/xlink"
   xmlns:sodipodi="http://sodipodi.sourceforge.net/DTD/sodipodi-0.dtd"
   xmlns:inkscape="http://www.inkscape.org/namespaces/inkscape"
   version="1.1"
   x="0px"
   y="0px"
   width="71.208344"
   height="66.876137"
   viewBox="0 0 71.208344 66.876137"
   xml:space="preserve"
   id="svg3848"
   inkscape:version="0.48.5 r10040"
   sodipodi:docname="common crudites.svg"><metadata
     id="metadata4033"><rdf:RDF><cc:Work
         rdf:about=""><dc:format>image/svg+xml</dc:format><dc:type
           rdf:resource="http://purl.org/dc/dcmitype/StillImage" /></cc:Work></rdf:RDF></metadata><defs
     id="defs4031"><linearGradient
       inkscape:collect="always"
       xlink:href="#SVGID_1_"
       id="linearGradient4898"
       gradientUnits="userSpaceOnUse"
       gradientTransform="matrix(0.9886,-0.1508,0.2043,0.9804,-2.435446e-4,3.534555e-5)"
       x1="34.286598"
       y1="79.569298"
       x2="37.270699"
       y2="79.569298" /><linearGradient
       inkscape:collect="always"
       xlink:href="#SVGID_2_"
       id="linearGradient4900"
       gradientUnits="userSpaceOnUse"
       gradientTransform="matrix(0.9886,-0.1508,0.2043,0.9804,-2.435446e-4,3.534555e-5)"
       x1="34.286598"
       y1="80.291"
       x2="37.270699"
       y2="80.291" /><linearGradient
       inkscape:collect="always"
       xlink:href="#SVGID_3_"
       id="linearGradient4902"
       gradientUnits="userSpaceOnUse"
       gradientTransform="matrix(0.6622,0.7493,-0.825,0.5765,-1.673698e-4,4.973412e-4)"
       x1="32.182098"
       y1="20.9375"
       x2="35.051399"
       y2="20.9375" /><linearGradient
       inkscape:collect="always"
       xlink:href="#SVGID_4_"
       id="linearGradient4904"
       gradientUnits="userSpaceOnUse"
       gradientTransform="matrix(0.6622,0.7493,-0.825,0.5765,-1.673698e-4,4.973412e-4)"
       x1="32.182098"
       y1="21.833"
       x2="35.051399"
       y2="21.833" /><linearGradient
       inkscape:collect="always"
       xlink:href="#SVGID_5_"
       id="linearGradient4906"
       gradientUnits="userSpaceOnUse"
       gradientTransform="matrix(-0.6622,0.7493,-0.825,-0.5765,3.418922e-4,-4.768372e-5)"
       x1="-9.8760004"
       y1="-75.620598"
       x2="-7.0067"
       y2="-75.620598" /><linearGradient
       inkscape:collect="always"
       xlink:href="#SVGID_6_"
       id="linearGradient4908"
       gradientUnits="userSpaceOnUse"
       gradientTransform="matrix(-0.6622,0.7493,-0.825,-0.5765,3.418922e-4,-4.768372e-5)"
       x1="-9.8760004"
       y1="-76.527298"
       x2="-7.0067"
       y2="-76.527298" /><linearGradient
       inkscape:collect="always"
       xlink:href="#SVGID_7_"
       id="linearGradient4910"
       gradientUnits="userSpaceOnUse"
       gradientTransform="matrix(0.9889,-0.1483,0.1105,0.9946,1.729727e-4,-1.45793e-4)"
       x1="9.3573999"
       y1="74.701202"
       x2="12.391"
       y2="74.701202" /><linearGradient
       inkscape:collect="always"
       xlink:href="#SVGID_8_"
       id="linearGradient4912"
       gradientUnits="userSpaceOnUse"
       gradientTransform="matrix(0.9889,-0.1483,0.1105,0.9946,1.729727e-4,-1.45793e-4)"
       x1="9.3573999"
       y1="75.341797"
       x2="12.391"
       y2="75.341797" /><linearGradient
       inkscape:collect="always"
       xlink:href="#SVGID_9_"
       id="linearGradient4914"
       gradientUnits="userSpaceOnUse"
       x1="36.847698"
       y1="20.237301"
       x2="36.860199"
       y2="1.3623" /><linearGradient
       inkscape:collect="always"
       xlink:href="#SVGID_10_"
       id="linearGradient4916"
       gradientUnits="userSpaceOnUse"
       gradientTransform="matrix(7.569492e-4,1,-1,7.569492e-4,-1.586697e-4,-1.393578e-4)"
       x1="8.4281998"
       y1="-35.792"
       x2="55.903198"
       y2="-35.792" /><linearGradient
       inkscape:collect="always"
       xlink:href="#SVGID_11_"
       id="linearGradient4918"
       gradientUnits="userSpaceOnUse"
       gradientTransform="matrix(0.3159,0.9488,-0.9547,0.2982,3.193617e-4,1.204014e-5)"
       x1="27.9604"
       y1="-20.7314"
       x2="94.518501"
       y2="-20.7314" /><linearGradient
       inkscape:collect="always"
       xlink:href="#SVGID_12_"
       id="linearGradient4920"
       gradientUnits="userSpaceOnUse"
       gradientTransform="matrix(0.3153,0.949,-0.9547,0.2982,3.882647e-4,3.217459e-4)"
       x1="16.0874"
       y1="-25.903799"
       x2="48.200298"
       y2="-25.903799" /><linearGradient
       inkscape:collect="always"
       xlink:href="#SVGID_13_"
       id="linearGradient4922"
       gradientUnits="userSpaceOnUse"
       gradientTransform="matrix(0.3145,0.9493,-0.9553,0.2962,-6.425381e-5,1.753569e-4)"
       x1="26.8892"
       y1="-20.794901"
       x2="70.844902"
       y2="-20.794901" /><linearGradient
       inkscape:collect="always"
       xlink:href="#SVGID_14_"
       id="linearGradient4924"
       gradientUnits="userSpaceOnUse"
       gradientTransform="matrix(4.269774e-4,-1,1,4.269774e-4,5.620648e-6,5.620648e-6)"
       x1="-45.8521"
       y1="36.7686"
       x2="-31.552099"
       y2="36.7686" /><linearGradient
       inkscape:collect="always"
       xlink:href="#SVGID_15_"
       id="linearGradient4926"
       gradientUnits="userSpaceOnUse"
       gradientTransform="matrix(0.943,0.3329,-0.3526,0.936,-1.43528e-4,2.268553e-4)"
       x1="-79.287102"
       y1="31.633801"
       x2="2.3440001"
       y2="31.633801" /><linearGradient
       inkscape:collect="always"
       xlink:href="#SVGID_16_"
       id="linearGradient4928"
       gradientUnits="userSpaceOnUse"
       x1="38.753899"
       y1="68.755898"
       x2="36.661999"
       y2="25.0518" /><linearGradient
       inkscape:collect="always"
       xlink:href="#SVGID_17_"
       id="linearGradient4930"
       gradientUnits="userSpaceOnUse"
       gradientTransform="matrix(0.3153,0.949,-0.9547,0.2982,3.882647e-4,3.217459e-4)"
       x1="16.0874"
       y1="-21.6201"
       x2="48.200298"
       y2="-21.6201" /><linearGradient
       inkscape:collect="always"
       xlink:href="#SVGID_18_"
       id="linearGradient4932"
       gradientUnits="userSpaceOnUse"
       gradientTransform="matrix(0.3153,0.949,-0.9547,0.2982,3.882647e-4,3.217459e-4)"
       x1="16.0874"
       y1="-19.931601"
       x2="48.200298"
       y2="-19.931601" /><linearGradient
       inkscape:collect="always"
       xlink:href="#SVGID_19_"
       id="linearGradient4934"
       gradientUnits="userSpaceOnUse"
       gradientTransform="matrix(-0.0859,0.9644,-1.0002,-0.0395,-70.6997,8.2002)"
       x1="6.8256998"
       y1="-124.2676"
       x2="11.1918"
       y2="-124.2676" /><linearGradient
       inkscape:collect="always"
       xlink:href="#SVGID_20_"
       id="linearGradient4936"
       gradientUnits="userSpaceOnUse"
       gradientTransform="matrix(0.1228,1.421,2.0694,-0.0843,6319.5508,-1289.2504)"
       x1="737.84277"
       y1="-3088.1997"
       x2="740.79797"
       y2="-3088.1997" /><linearGradient
       inkscape:collect="always"
       xlink:href="#SVGID_9_"
       id="linearGradient5034"
       gradientUnits="userSpaceOnUse"
       x1="36.847698"
       y1="20.237301"
       x2="36.860199"
       y2="1.3623" /><linearGradient
       inkscape:collect="always"
       xlink:href="#SVGID_10_"
       id="linearGradient5036"
       gradientUnits="userSpaceOnUse"
       gradientTransform="matrix(7.569492e-4,1,-1,7.569492e-4,-1.586697e-4,-1.393578e-4)"
       x1="8.4281998"
       y1="-35.792"
       x2="55.903198"
       y2="-35.792" /><linearGradient
       inkscape:collect="always"
       xlink:href="#SVGID_11_"
       id="linearGradient5038"
       gradientUnits="userSpaceOnUse"
       gradientTransform="matrix(0.3159,0.9488,-0.9547,0.2982,3.193617e-4,1.204014e-5)"
       x1="27.9604"
       y1="-20.7314"
       x2="94.518501"
       y2="-20.7314" /><linearGradient
       inkscape:collect="always"
       xlink:href="#SVGID_12_"
       id="linearGradient5040"
       gradientUnits="userSpaceOnUse"
       gradientTransform="matrix(0.3153,0.949,-0.9547,0.2982,3.882647e-4,3.217459e-4)"
       x1="16.0874"
       y1="-25.903799"
       x2="48.200298"
       y2="-25.903799" /><linearGradient
       inkscape:collect="always"
       xlink:href="#SVGID_13_"
       id="linearGradient5042"
       gradientUnits="userSpaceOnUse"
       gradientTransform="matrix(0.3145,0.9493,-0.9553,0.2962,-6.425381e-5,1.753569e-4)"
       x1="26.8892"
       y1="-20.794901"
       x2="70.844902"
       y2="-20.794901" /><linearGradient
       inkscape:collect="always"
       xlink:href="#SVGID_14_"
       id="linearGradient5044"
       gradientUnits="userSpaceOnUse"
       gradientTransform="matrix(4.269774e-4,-1,1,4.269774e-4,5.620648e-6,5.620648e-6)"
       x1="-45.8521"
       y1="36.7686"
       x2="-31.552099"
       y2="36.7686" /><linearGradient
       inkscape:collect="always"
       xlink:href="#SVGID_15_"
       id="linearGradient5046"
       gradientUnits="userSpaceOnUse"
       gradientTransform="matrix(0.943,0.3329,-0.3526,0.936,-1.43528e-4,2.268553e-4)"
       x1="-79.287102"
       y1="31.633801"
       x2="2.3440001"
       y2="31.633801" /><linearGradient
       inkscape:collect="always"
       xlink:href="#SVGID_16_"
       id="linearGradient5048"
       gradientUnits="userSpaceOnUse"
       x1="38.753899"
       y1="68.755898"
       x2="36.661999"
       y2="25.0518" /><linearGradient
       inkscape:collect="always"
       xlink:href="#SVGID_17_"
       id="linearGradient5050"
       gradientUnits="userSpaceOnUse"
       gradientTransform="matrix(0.3153,0.949,-0.9547,0.2982,3.882647e-4,3.217459e-4)"
       x1="16.0874"
       y1="-21.6201"
       x2="48.200298"
       y2="-21.6201" /><linearGradient
       inkscape:collect="always"
       xlink:href="#SVGID_18_"
       id="linearGradient5052"
       gradientUnits="userSpaceOnUse"
       gradientTransform="matrix(0.3153,0.949,-0.9547,0.2982,3.882647e-4,3.217459e-4)"
       x1="16.0874"
       y1="-19.931601"
       x2="48.200298"
       y2="-19.931601" /><linearGradient
       inkscape:collect="always"
       xlink:href="#SVGID_19_"
       id="linearGradient5054"
       gradientUnits="userSpaceOnUse"
       gradientTransform="matrix(-0.0859,0.9644,-1.0002,-0.0395,-70.6997,8.2002)"
       x1="6.8256998"
       y1="-124.2676"
       x2="11.1918"
       y2="-124.2676" /><linearGradient
       inkscape:collect="always"
       xlink:href="#SVGID_20_"
       id="linearGradient5056"
       gradientUnits="userSpaceOnUse"
       gradientTransform="matrix(0.1228,1.421,2.0694,-0.0843,6319.5508,-1289.2504)"
       x1="737.84277"
       y1="-3088.1997"
       x2="740.79797"
       y2="-3088.1997" /><linearGradient
       y2="1.3623"
       x2="36.860199"
       y1="20.237301"
       x1="36.847698"
       gradientUnits="userSpaceOnUse"
       id="SVGID_9_"><stop
         id="stop3936"
         style="stop-color:#FCD1CB"
         offset="0" /><stop
         id="stop3938"
         style="stop-color:#D3736C"
         offset="1" /></linearGradient><linearGradient
       gradientTransform="matrix(7.569492e-4,1,-1,7.569492e-4,-1.586697e-4,-1.393578e-4)"
       y2="-35.792"
       x2="55.903198"
       y1="-35.792"
       x1="8.4281998"
       gradientUnits="userSpaceOnUse"
       id="SVGID_10_"><stop
         id="stop3943"
         style="stop-color:#F0ACA1"
         offset="0" /><stop
         id="stop3945"
         style="stop-color:#B75F59"
         offset="1" /></linearGradient><linearGradient
       gradientTransform="matrix(0.3159,0.9488,-0.9547,0.2982,3.193617e-4,1.204014e-5)"
       y2="-20.7314"
       x2="94.518501"
       y1="-20.7314"
       x1="27.9604"
       gradientUnits="userSpaceOnUse"
       id="SVGID_11_"><stop
         id="stop3950"
         style="stop-color:#D78679"
         offset="0" /><stop
         id="stop3952"
         style="stop-color:#8D3B35"
         offset="1" /></linearGradient><linearGradient
       gradientTransform="matrix(0.3153,0.949,-0.9547,0.2982,3.882647e-4,3.217459e-4)"
       y2="-25.903799"
       x2="48.200298"
       y1="-25.903799"
       x1="16.0874"
       gradientUnits="userSpaceOnUse"
       id="SVGID_12_"><stop
         id="stop3957"
         style="stop-color:#FCE6E2"
         offset="0" /><stop
         id="stop3959"
         style="stop-color:#DD908B"
         offset="1" /></linearGradient><linearGradient
       gradientTransform="matrix(0.3145,0.9493,-0.9553,0.2962,-6.425381e-5,1.753569e-4)"
       y2="-20.794901"
       x2="70.844902"
       y1="-20.794901"
       x1="26.8892"
       gradientUnits="userSpaceOnUse"
       id="SVGID_13_"><stop
         id="stop3964"
         style="stop-color:#302614"
         offset="0" /><stop
         id="stop3966"
         style="stop-color:#271900"
         offset="1" /></linearGradient><linearGradient
       gradientTransform="matrix(4.269774e-4,-1,1,4.269774e-4,5.620648e-6,5.620648e-6)"
       y2="36.7686"
       x2="-31.552099"
       y1="36.7686"
       x1="-45.8521"
       gradientUnits="userSpaceOnUse"
       id="SVGID_14_"><stop
         id="stop3971"
         style="stop-color:#F0ACA1"
         offset="0" /><stop
         id="stop3973"
         style="stop-color:#B75F59"
         offset="1" /></linearGradient><linearGradient
       gradientTransform="matrix(0.943,0.3329,-0.3526,0.936,-1.43528e-4,2.268553e-4)"
       y2="31.633801"
       x2="2.3440001"
       y1="31.633801"
       x1="-79.287102"
       gradientUnits="userSpaceOnUse"
       id="SVGID_15_"><stop
         id="stop3978"
         style="stop-color:#FFF0EE"
         offset="0.0039" /><stop
         id="stop3980"
         style="stop-color:#DE908A"
         offset="1" /></linearGradient><linearGradient
       y2="25.0518"
       x2="36.661999"
       y1="68.755898"
       x1="38.753899"
       gradientUnits="userSpaceOnUse"
       id="SVGID_16_"><stop
         id="stop3985"
         style="stop-color:#4F473B"
         offset="0" /><stop
         id="stop3987"
         style="stop-color:#32250F"
         offset="1" /></linearGradient><linearGradient
       gradientTransform="matrix(0.3153,0.949,-0.9547,0.2982,3.882647e-4,3.217459e-4)"
       y2="-21.6201"
       x2="48.200298"
       y1="-21.6201"
       x1="16.0874"
       gradientUnits="userSpaceOnUse"
       id="SVGID_17_"><stop
         id="stop3992"
         style="stop-color:#E78575"
         offset="0" /><stop
         id="stop3994"
         style="stop-color:#953D37"
         offset="0.9843" /></linearGradient><linearGradient
       gradientTransform="matrix(0.3153,0.949,-0.9547,0.2982,3.882647e-4,3.217459e-4)"
       y2="-19.931601"
       x2="48.200298"
       y1="-19.931601"
       x1="16.0874"
       gradientUnits="userSpaceOnUse"
       id="SVGID_18_"><stop
         id="stop3999"
         style="stop-color:#FFEAE7"
         offset="0" /><stop
         id="stop4001"
         style="stop-color:#D27670"
         offset="1" /></linearGradient><linearGradient
       inkscape:collect="always"
       xlink:href="#SVGID_18_"
       id="linearGradient5101"
       gradientUnits="userSpaceOnUse"
       gradientTransform="matrix(0.3153,0.949,-0.9547,0.2982,15.644456,-12.334424)"
       x1="16.0874"
       y1="-19.931601"
       x2="48.200298"
       y2="-19.931601" /><linearGradient
       inkscape:collect="always"
       xlink:href="#SVGID_17_"
       id="linearGradient5104"
       gradientUnits="userSpaceOnUse"
       gradientTransform="matrix(0.3153,0.949,-0.9547,0.2982,15.644456,-12.334424)"
       x1="16.0874"
       y1="-21.6201"
       x2="48.200298"
       y2="-21.6201" /><linearGradient
       inkscape:collect="always"
       xlink:href="#SVGID_16_"
       id="linearGradient5107"
       gradientUnits="userSpaceOnUse"
       x1="38.753899"
       y1="68.755898"
       x2="36.661999"
       y2="25.0518"
       gradientTransform="translate(15.644068,-12.334746)" /><linearGradient
       inkscape:collect="always"
       xlink:href="#SVGID_15_"
       id="linearGradient5110"
       gradientUnits="userSpaceOnUse"
       gradientTransform="matrix(0.943,0.3329,-0.3526,0.936,15.643924,-12.334519)"
       x1="-79.287102"
       y1="31.633801"
       x2="2.3440001"
       y2="31.633801" /><linearGradient
       inkscape:collect="always"
       xlink:href="#SVGID_14_"
       id="linearGradient5113"
       gradientUnits="userSpaceOnUse"
       gradientTransform="matrix(4.269774e-4,-1,1,4.269774e-4,15.644074,-12.33474)"
       x1="-45.8521"
       y1="36.7686"
       x2="-31.552099"
       y2="36.7686" /><linearGradient
       inkscape:collect="always"
       xlink:href="#SVGID_13_"
       id="linearGradient5116"
       gradientUnits="userSpaceOnUse"
       gradientTransform="matrix(0.3145,0.9493,-0.9553,0.2962,15.644004,-12.334571)"
       x1="26.8892"
       y1="-20.794901"
       x2="70.844902"
       y2="-20.794901" /><linearGradient
       inkscape:collect="always"
       xlink:href="#SVGID_12_"
       id="linearGradient5119"
       gradientUnits="userSpaceOnUse"
       gradientTransform="matrix(0.3153,0.949,-0.9547,0.2982,15.644456,-12.334424)"
       x1="16.0874"
       y1="-25.903799"
       x2="48.200298"
       y2="-25.903799" /><linearGradient
       inkscape:collect="always"
       xlink:href="#SVGID_11_"
       id="linearGradient5122"
       gradientUnits="userSpaceOnUse"
       gradientTransform="matrix(0.3159,0.9488,-0.9547,0.2982,15.644387,-12.334734)"
       x1="27.9604"
       y1="-20.7314"
       x2="94.518501"
       y2="-20.7314" /><linearGradient
       inkscape:collect="always"
       xlink:href="#SVGID_10_"
       id="linearGradient5125"
       gradientUnits="userSpaceOnUse"
       gradientTransform="matrix(7.569492e-4,1,-1,7.569492e-4,15.643909,-12.334885)"
       x1="8.4281998"
       y1="-35.792"
       x2="55.903198"
       y2="-35.792" /><linearGradient
       inkscape:collect="always"
       xlink:href="#SVGID_9_"
       id="linearGradient5128"
       gradientUnits="userSpaceOnUse"
       x1="36.847698"
       y1="20.237301"
       x2="36.860199"
       y2="1.3623"
       gradientTransform="translate(15.644068,-12.334746)" /><linearGradient
       inkscape:collect="always"
       xlink:href="#SVGID_1_"
       id="linearGradient5130"
       gradientUnits="userSpaceOnUse"
       gradientTransform="matrix(0.9886,-0.1508,0.2043,0.9804,-2.435446e-4,3.534555e-5)"
       x1="34.286598"
       y1="79.569298"
       x2="37.270699"
       y2="79.569298" /><linearGradient
       inkscape:collect="always"
       xlink:href="#SVGID_2_"
       id="linearGradient5132"
       gradientUnits="userSpaceOnUse"
       gradientTransform="matrix(0.9886,-0.1508,0.2043,0.9804,-2.435446e-4,3.534555e-5)"
       x1="34.286598"
       y1="80.291"
       x2="37.270699"
       y2="80.291" /><linearGradient
       inkscape:collect="always"
       xlink:href="#SVGID_3_"
       id="linearGradient5134"
       gradientUnits="userSpaceOnUse"
       gradientTransform="matrix(0.6622,0.7493,-0.825,0.5765,-1.673698e-4,4.973412e-4)"
       x1="32.182098"
       y1="20.9375"
       x2="35.051399"
       y2="20.9375" /><linearGradient
       inkscape:collect="always"
       xlink:href="#SVGID_4_"
       id="linearGradient5136"
       gradientUnits="userSpaceOnUse"
       gradientTransform="matrix(0.6622,0.7493,-0.825,0.5765,-1.673698e-4,4.973412e-4)"
       x1="32.182098"
       y1="21.833"
       x2="35.051399"
       y2="21.833" /><linearGradient
       inkscape:collect="always"
       xlink:href="#SVGID_5_"
       id="linearGradient5138"
       gradientUnits="userSpaceOnUse"
       gradientTransform="matrix(-0.6622,0.7493,-0.825,-0.5765,3.418922e-4,-4.768372e-5)"
       x1="-9.8760004"
       y1="-75.620598"
       x2="-7.0067"
       y2="-75.620598" /><linearGradient
       inkscape:collect="always"
       xlink:href="#SVGID_6_"
       id="linearGradient5140"
       gradientUnits="userSpaceOnUse"
       gradientTransform="matrix(-0.6622,0.7493,-0.825,-0.5765,3.418922e-4,-4.768372e-5)"
       x1="-9.8760004"
       y1="-76.527298"
       x2="-7.0067"
       y2="-76.527298" /><linearGradient
       inkscape:collect="always"
       xlink:href="#SVGID_7_"
       id="linearGradient5142"
       gradientUnits="userSpaceOnUse"
       gradientTransform="matrix(0.9889,-0.1483,0.1105,0.9946,1.729727e-4,-1.45793e-4)"
       x1="9.3573999"
       y1="74.701202"
       x2="12.391"
       y2="74.701202" /><linearGradient
       inkscape:collect="always"
       xlink:href="#SVGID_8_"
       id="linearGradient5144"
       gradientUnits="userSpaceOnUse"
       gradientTransform="matrix(0.9889,-0.1483,0.1105,0.9946,1.729727e-4,-1.45793e-4)"
       x1="9.3573999"
       y1="75.341797"
       x2="12.391"
       y2="75.341797" /><linearGradient
       inkscape:collect="always"
       xlink:href="#SVGID_7_"
       id="linearGradient5185"
       gradientUnits="userSpaceOnUse"
       gradientTransform="matrix(0.9889,-0.1483,0.1105,0.9946,1.729727e-4,-1.45793e-4)"
       x1="9.3573999"
       y1="74.701202"
       x2="12.391"
       y2="74.701202" /><linearGradient
       inkscape:collect="always"
       xlink:href="#SVGID_8_"
       id="linearGradient5187"
       gradientUnits="userSpaceOnUse"
       gradientTransform="matrix(0.9889,-0.1483,0.1105,0.9946,1.729727e-4,-1.45793e-4)"
       x1="9.3573999"
       y1="75.341797"
       x2="12.391"
       y2="75.341797" /><linearGradient
       id="SVGID_7_"
       gradientUnits="userSpaceOnUse"
       x1="9.3573999"
       y1="74.701202"
       x2="12.391"
       y2="74.701202"
       gradientTransform="matrix(0.9889,-0.1483,0.1105,0.9946,1.729727e-4,-1.45793e-4)"><stop
         offset="0"
         style="stop-color:#D78679"
         id="stop3920" /><stop
         offset="1"
         style="stop-color:#8D3B35"
         id="stop3922" /></linearGradient><linearGradient
       id="SVGID_8_"
       gradientUnits="userSpaceOnUse"
       x1="9.3573999"
       y1="75.341797"
       x2="12.391"
       y2="75.341797"
       gradientTransform="matrix(0.9889,-0.1483,0.1105,0.9946,1.729727e-4,-1.45793e-4)"><stop
         offset="0"
         style="stop-color:#F0ACA1"
         id="stop3927" /><stop
         offset="1"
         style="stop-color:#B75F59"
         id="stop3929" /></linearGradient><linearGradient
       inkscape:collect="always"
       xlink:href="#SVGID_8_"
       id="linearGradient5196"
       gradientUnits="userSpaceOnUse"
       gradientTransform="matrix(0.9889,-0.1483,0.1105,0.9946,15.644241,-12.334892)"
       x1="9.3573999"
       y1="75.341797"
       x2="12.391"
       y2="75.341797" /><linearGradient
       inkscape:collect="always"
       xlink:href="#SVGID_7_"
       id="linearGradient5199"
       gradientUnits="userSpaceOnUse"
       gradientTransform="matrix(0.9889,-0.1483,0.1105,0.9946,15.644241,-12.334892)"
       x1="9.3573999"
       y1="74.701202"
       x2="12.391"
       y2="74.701202" /><linearGradient
       inkscape:collect="always"
       xlink:href="#SVGID_5_"
       id="linearGradient5201"
       gradientUnits="userSpaceOnUse"
       gradientTransform="matrix(-0.6622,0.7493,-0.825,-0.5765,3.418922e-4,-4.768372e-5)"
       x1="-9.8760004"
       y1="-75.620598"
       x2="-7.0067"
       y2="-75.620598" /><linearGradient
       inkscape:collect="always"
       xlink:href="#SVGID_6_"
       id="linearGradient5203"
       gradientUnits="userSpaceOnUse"
       gradientTransform="matrix(-0.6622,0.7493,-0.825,-0.5765,3.418922e-4,-4.768372e-5)"
       x1="-9.8760004"
       y1="-76.527298"
       x2="-7.0067"
       y2="-76.527298" /><linearGradient
       id="SVGID_5_"
       gradientUnits="userSpaceOnUse"
       x1="-9.8760004"
       y1="-75.620598"
       x2="-7.0067"
       y2="-75.620598"
       gradientTransform="matrix(-0.6622,0.7493,-0.825,-0.5765,3.418922e-4,-4.768372e-5)"><stop
         offset="0"
         style="stop-color:#D78679"
         id="stop3904" /><stop
         offset="1"
         style="stop-color:#8D3B35"
         id="stop3906" /></linearGradient><linearGradient
       id="SVGID_6_"
       gradientUnits="userSpaceOnUse"
       x1="-9.8760004"
       y1="-76.527298"
       x2="-7.0067"
       y2="-76.527298"
       gradientTransform="matrix(-0.6622,0.7493,-0.825,-0.5765,3.418922e-4,-4.768372e-5)"><stop
         offset="0"
         style="stop-color:#F0ACA1"
         id="stop3911" /><stop
         offset="1"
         style="stop-color:#B75F59"
         id="stop3913" /></linearGradient><linearGradient
       inkscape:collect="always"
       xlink:href="#SVGID_6_"
       id="linearGradient5212"
       gradientUnits="userSpaceOnUse"
       gradientTransform="matrix(-0.6622,0.7493,-0.825,-0.5765,15.64441,-12.334794)"
       x1="-9.8760004"
       y1="-76.527298"
       x2="-7.0067"
       y2="-76.527298" /><linearGradient
       inkscape:collect="always"
       xlink:href="#SVGID_5_"
       id="linearGradient5215"
       gradientUnits="userSpaceOnUse"
       gradientTransform="matrix(-0.6622,0.7493,-0.825,-0.5765,15.64441,-12.334794)"
       x1="-9.8760004"
       y1="-75.620598"
       x2="-7.0067"
       y2="-75.620598" /><linearGradient
       inkscape:collect="always"
       xlink:href="#SVGID_3_"
       id="linearGradient5217"
       gradientUnits="userSpaceOnUse"
       gradientTransform="matrix(0.6622,0.7493,-0.825,0.5765,-1.673698e-4,4.973412e-4)"
       x1="32.182098"
       y1="20.9375"
       x2="35.051399"
       y2="20.9375" /><linearGradient
       inkscape:collect="always"
       xlink:href="#SVGID_4_"
       id="linearGradient5219"
       gradientUnits="userSpaceOnUse"
       gradientTransform="matrix(0.6622,0.7493,-0.825,0.5765,-1.673698e-4,4.973412e-4)"
       x1="32.182098"
       y1="21.833"
       x2="35.051399"
       y2="21.833" /><linearGradient
       id="SVGID_3_"
       gradientUnits="userSpaceOnUse"
       x1="32.182098"
       y1="20.9375"
       x2="35.051399"
       y2="20.9375"
       gradientTransform="matrix(0.6622,0.7493,-0.825,0.5765,-1.673698e-4,4.973412e-4)"><stop
         offset="0"
         style="stop-color:#D78679"
         id="stop3888" /><stop
         offset="1"
         style="stop-color:#8D3B35"
         id="stop3890" /></linearGradient><linearGradient
       id="SVGID_4_"
       gradientUnits="userSpaceOnUse"
       x1="32.182098"
       y1="21.833"
       x2="35.051399"
       y2="21.833"
       gradientTransform="matrix(0.6622,0.7493,-0.825,0.5765,-1.673698e-4,4.973412e-4)"><stop
         offset="0"
         style="stop-color:#F0ACA1"
         id="stop3895" /><stop
         offset="1"
         style="stop-color:#B75F59"
         id="stop3897" /></linearGradient><linearGradient
       inkscape:collect="always"
       xlink:href="#SVGID_4_"
       id="linearGradient5228"
       gradientUnits="userSpaceOnUse"
       gradientTransform="matrix(0.6622,0.7493,-0.825,0.5765,15.643901,-12.334249)"
       x1="32.182098"
       y1="21.833"
       x2="35.051399"
       y2="21.833" /><linearGradient
       inkscape:collect="always"
       xlink:href="#SVGID_3_"
       id="linearGradient5231"
       gradientUnits="userSpaceOnUse"
       gradientTransform="matrix(0.6622,0.7493,-0.825,0.5765,15.643901,-12.334249)"
       x1="32.182098"
       y1="20.9375"
       x2="35.051399"
       y2="20.9375" /><linearGradient
       inkscape:collect="always"
       xlink:href="#SVGID_1_"
       id="linearGradient5233"
       gradientUnits="userSpaceOnUse"
       gradientTransform="matrix(0.9886,-0.1508,0.2043,0.9804,-2.435446e-4,3.534555e-5)"
       x1="34.286598"
       y1="79.569298"
       x2="37.270699"
       y2="79.569298" /><linearGradient
       inkscape:collect="always"
       xlink:href="#SVGID_2_"
       id="linearGradient5235"
       gradientUnits="userSpaceOnUse"
       gradientTransform="matrix(0.9886,-0.1508,0.2043,0.9804,-2.435446e-4,3.534555e-5)"
       x1="34.286598"
       y1="80.291"
       x2="37.270699"
       y2="80.291" /><linearGradient
       id="SVGID_1_"
       gradientUnits="userSpaceOnUse"
       x1="34.286598"
       y1="79.569298"
       x2="37.270699"
       y2="79.569298"
       gradientTransform="matrix(0.9886,-0.1508,0.2043,0.9804,-2.435446e-4,3.534555e-5)"><stop
         offset="0"
         style="stop-color:#D78679"
         id="stop3872" /><stop
         offset="1"
         style="stop-color:#8D3B35"
         id="stop3874" /></linearGradient><linearGradient
       id="SVGID_2_"
       gradientUnits="userSpaceOnUse"
       x1="34.286598"
       y1="80.291"
       x2="37.270699"
       y2="80.291"
       gradientTransform="matrix(0.9886,-0.1508,0.2043,0.9804,-2.435446e-4,3.534555e-5)"><stop
         offset="0"
         style="stop-color:#F0ACA1"
         id="stop3879" /><stop
         offset="1"
         style="stop-color:#B75F59"
         id="stop3881" /></linearGradient><linearGradient
       inkscape:collect="always"
       xlink:href="#SVGID_2_"
       id="linearGradient5244"
       gradientUnits="userSpaceOnUse"
       gradientTransform="matrix(0.9886,-0.1508,0.2043,0.9804,15.643824,-12.334711)"
       x1="34.286598"
       y1="80.291"
       x2="37.270699"
       y2="80.291" /><linearGradient
       inkscape:collect="always"
       xlink:href="#SVGID_1_"
       id="linearGradient5247"
       gradientUnits="userSpaceOnUse"
       gradientTransform="matrix(0.9886,-0.1508,0.2043,0.9804,15.643824,-12.334711)"
       x1="34.286598"
       y1="79.569298"
       x2="37.270699"
       y2="79.569298" /><linearGradient
       inkscape:collect="always"
       xlink:href="#SVGID_20_"
       id="linearGradient5249"
       gradientUnits="userSpaceOnUse"
       gradientTransform="matrix(0.1228,1.421,2.0694,-0.0843,6319.5508,-1289.2504)"
       x1="737.84277"
       y1="-3088.1997"
       x2="740.79797"
       y2="-3088.1997" /><linearGradient
       id="SVGID_20_"
       gradientUnits="userSpaceOnUse"
       x1="737.84277"
       y1="-3088.1997"
       x2="740.79797"
       y2="-3088.1997"
       gradientTransform="matrix(0.1228,1.421,2.0694,-0.0843,6319.5508,-1289.2504)"><stop
         offset="0"
         style="stop-color:#5F4E29"
         id="stop4021" /><stop
         offset="0.8588"
         style="stop-color:#271D09"
         id="stop4023" /></linearGradient><linearGradient
       inkscape:collect="always"
       xlink:href="#SVGID_20_"
       id="linearGradient5255"
       gradientUnits="userSpaceOnUse"
       gradientTransform="matrix(0.1228,1.421,2.0694,-0.0843,6335.1949,-1301.5851)"
       x1="737.84277"
       y1="-3088.1997"
       x2="740.79797"
       y2="-3088.1997" /><linearGradient
       inkscape:collect="always"
       xlink:href="#SVGID_19_"
       id="linearGradient5258"
       gradientUnits="userSpaceOnUse"
       gradientTransform="matrix(-0.0859,0.9644,-1.0002,-0.0395,-70.6997,8.2002)"
       x1="6.8256998"
       y1="-124.2676"
       x2="11.1918"
       y2="-124.2676" /><linearGradient
       id="SVGID_19_"
       gradientUnits="userSpaceOnUse"
       x1="6.8256998"
       y1="-124.2676"
       x2="11.1918"
       y2="-124.2676"
       gradientTransform="matrix(-0.0859,0.9644,-1.0002,-0.0395,-70.6997,8.2002)"><stop
         offset="0"
         style="stop-color:#5F4E29"
         id="stop4010" /><stop
         offset="0.8588"
         style="stop-color:#271D09"
         id="stop4012" /></linearGradient><linearGradient
       inkscape:collect="always"
       xlink:href="#SVGID_19_"
       id="linearGradient5264"
       gradientUnits="userSpaceOnUse"
       gradientTransform="matrix(-0.0859,0.9644,-1.0002,-0.0395,-55.055632,-4.134546)"
       x1="6.8256998"
       y1="-124.2676"
       x2="11.1918"
       y2="-124.2676" /><linearGradient
       inkscape:collect="always"
       xlink:href="#SVGID_1_"
       id="linearGradient5291"
       gradientUnits="userSpaceOnUse"
       gradientTransform="matrix(0.9886,-0.1508,0.2043,0.9804,15.643824,-12.334711)"
       x1="34.286598"
       y1="79.569298"
       x2="37.270699"
       y2="79.569298" /><linearGradient
       inkscape:collect="always"
       xlink:href="#SVGID_2_"
       id="linearGradient5293"
       gradientUnits="userSpaceOnUse"
       gradientTransform="matrix(0.9886,-0.1508,0.2043,0.9804,15.643824,-12.334711)"
       x1="34.286598"
       y1="80.291"
       x2="37.270699"
       y2="80.291" /><linearGradient
       inkscape:collect="always"
       xlink:href="#SVGID_3_"
       id="linearGradient5295"
       gradientUnits="userSpaceOnUse"
       gradientTransform="matrix(0.6622,0.7493,-0.825,0.5765,15.643901,-12.334249)"
       x1="32.182098"
       y1="20.9375"
       x2="35.051399"
       y2="20.9375" /><linearGradient
       inkscape:collect="always"
       xlink:href="#SVGID_4_"
       id="linearGradient5297"
       gradientUnits="userSpaceOnUse"
       gradientTransform="matrix(0.6622,0.7493,-0.825,0.5765,15.643901,-12.334249)"
       x1="32.182098"
       y1="21.833"
       x2="35.051399"
       y2="21.833" /><linearGradient
       inkscape:collect="always"
       xlink:href="#SVGID_5_"
       id="linearGradient5299"
       gradientUnits="userSpaceOnUse"
       gradientTransform="matrix(-0.6622,0.7493,-0.825,-0.5765,15.64441,-12.334794)"
       x1="-9.8760004"
       y1="-75.620598"
       x2="-7.0067"
       y2="-75.620598" /><linearGradient
       inkscape:collect="always"
       xlink:href="#SVGID_6_"
       id="linearGradient5301"
       gradientUnits="userSpaceOnUse"
       gradientTransform="matrix(-0.6622,0.7493,-0.825,-0.5765,15.64441,-12.334794)"
       x1="-9.8760004"
       y1="-76.527298"
       x2="-7.0067"
       y2="-76.527298" /><linearGradient
       inkscape:collect="always"
       xlink:href="#SVGID_7_"
       id="linearGradient5303"
       gradientUnits="userSpaceOnUse"
       gradientTransform="matrix(0.9889,-0.1483,0.1105,0.9946,15.644241,-12.334892)"
       x1="9.3573999"
       y1="74.701202"
       x2="12.391"
       y2="74.701202" /><linearGradient
       inkscape:collect="always"
       xlink:href="#SVGID_8_"
       id="linearGradient5305"
       gradientUnits="userSpaceOnUse"
       gradientTransform="matrix(0.9889,-0.1483,0.1105,0.9946,15.644241,-12.334892)"
       x1="9.3573999"
       y1="75.341797"
       x2="12.391"
       y2="75.341797" /><linearGradient
       inkscape:collect="always"
       xlink:href="#SVGID_9_"
       id="linearGradient5307"
       gradientUnits="userSpaceOnUse"
       gradientTransform="translate(15.644068,-12.334746)"
       x1="36.847698"
       y1="20.237301"
       x2="36.860199"
       y2="1.3623" /><linearGradient
       inkscape:collect="always"
       xlink:href="#SVGID_10_"
       id="linearGradient5309"
       gradientUnits="userSpaceOnUse"
       gradientTransform="matrix(7.569492e-4,1,-1,7.569492e-4,15.643909,-12.334885)"
       x1="8.4281998"
       y1="-35.792"
       x2="55.903198"
       y2="-35.792" /><linearGradient
       inkscape:collect="always"
       xlink:href="#SVGID_11_"
       id="linearGradient5311"
       gradientUnits="userSpaceOnUse"
       gradientTransform="matrix(0.3159,0.9488,-0.9547,0.2982,15.644387,-12.334734)"
       x1="27.9604"
       y1="-20.7314"
       x2="94.518501"
       y2="-20.7314" /><linearGradient
       inkscape:collect="always"
       xlink:href="#SVGID_12_"
       id="linearGradient5313"
       gradientUnits="userSpaceOnUse"
       gradientTransform="matrix(0.3153,0.949,-0.9547,0.2982,15.644456,-12.334424)"
       x1="16.0874"
       y1="-25.903799"
       x2="48.200298"
       y2="-25.903799" /><linearGradient
       inkscape:collect="always"
       xlink:href="#SVGID_13_"
       id="linearGradient5315"
       gradientUnits="userSpaceOnUse"
       gradientTransform="matrix(0.3145,0.9493,-0.9553,0.2962,15.644004,-12.334571)"
       x1="26.8892"
       y1="-20.794901"
       x2="70.844902"
       y2="-20.794901" /><linearGradient
       inkscape:collect="always"
       xlink:href="#SVGID_14_"
       id="linearGradient5317"
       gradientUnits="userSpaceOnUse"
       gradientTransform="matrix(4.269774e-4,-1,1,4.269774e-4,15.644074,-12.33474)"
       x1="-45.8521"
       y1="36.7686"
       x2="-31.552099"
       y2="36.7686" /><linearGradient
       inkscape:collect="always"
       xlink:href="#SVGID_15_"
       id="linearGradient5319"
       gradientUnits="userSpaceOnUse"
       gradientTransform="matrix(0.943,0.3329,-0.3526,0.936,15.643924,-12.334519)"
       x1="-79.287102"
       y1="31.633801"
       x2="2.3440001"
       y2="31.633801" /><linearGradient
       inkscape:collect="always"
       xlink:href="#SVGID_16_"
       id="linearGradient5321"
       gradientUnits="userSpaceOnUse"
       gradientTransform="translate(15.644068,-12.334746)"
       x1="38.753899"
       y1="68.755898"
       x2="36.661999"
       y2="25.0518" /><linearGradient
       inkscape:collect="always"
       xlink:href="#SVGID_17_"
       id="linearGradient5323"
       gradientUnits="userSpaceOnUse"
       gradientTransform="matrix(0.3153,0.949,-0.9547,0.2982,15.644456,-12.334424)"
       x1="16.0874"
       y1="-21.6201"
       x2="48.200298"
       y2="-21.6201" /><linearGradient
       inkscape:collect="always"
       xlink:href="#SVGID_18_"
       id="linearGradient5325"
       gradientUnits="userSpaceOnUse"
       gradientTransform="matrix(0.3153,0.949,-0.9547,0.2982,15.644456,-12.334424)"
       x1="16.0874"
       y1="-19.931601"
       x2="48.200298"
       y2="-19.931601" /><linearGradient
       inkscape:collect="always"
       xlink:href="#SVGID_19_"
       id="linearGradient5327"
       gradientUnits="userSpaceOnUse"
       gradientTransform="matrix(-0.0859,0.9644,-1.0002,-0.0395,-55.055632,-4.134546)"
       x1="6.8256998"
       y1="-124.2676"
       x2="11.1918"
       y2="-124.2676" /><linearGradient
       inkscape:collect="always"
       xlink:href="#SVGID_20_"
       id="linearGradient5329"
       gradientUnits="userSpaceOnUse"
       gradientTransform="matrix(0.1228,1.421,2.0694,-0.0843,6335.1949,-1301.5851)"
       x1="737.84277"
       y1="-3088.1997"
       x2="740.79797"
       y2="-3088.1997" /><linearGradient
       id="SVGID_1_-0"
       gradientUnits="userSpaceOnUse"
       x1="12.9502"
       y1="48.474602"
       x2="33.149399"
       y2="48.474602"
       gradientTransform="matrix(0.8,0,0,0.8,15.75,20.2999)"><stop
         offset="0"
         style="stop-color:#E8E2AC"
         id="stop4560" /><stop
         offset="0.149"
         style="stop-color:#E8E4B9"
         id="stop4562" /><stop
         offset="0.298"
         style="stop-color:#E8E5C1"
         id="stop4564" /><stop
         offset="1"
         style="stop-color:#CFC784"
         id="stop4566" /></linearGradient><linearGradient
       id="SVGID_2_-8"
       gradientUnits="userSpaceOnUse"
       x1="-16.571301"
       y1="-47.126499"
       x2="-6.2536998"
       y2="-47.126499"
       gradientTransform="matrix(-0.756,0.2617,-0.2617,-0.756,15.7516,20.2991)"><stop
         offset="0"
         style="stop-color:#E8E5C1"
         id="stop4597" /><stop
         offset="1"
         style="stop-color:#CFC784"
         id="stop4599" /></linearGradient><linearGradient
       id="SVGID_3_-1"
       gradientUnits="userSpaceOnUse"
       x1="30.253401"
       y1="-1.6538"
       x2="28.400801"
       y2="41.8909"
       gradientTransform="matrix(0.8,0,0,0.8,15.75,20.2999)"><stop
         offset="0"
         style="stop-color:#5C962F"
         id="stop4608" /><stop
         offset="0.5333"
         style="stop-color:#5F942C"
         id="stop4610" /><stop
         offset="0.8667"
         style="stop-color:#678E24"
         id="stop4612" /><stop
         offset="1"
         style="stop-color:#6D8A1E"
         id="stop4614" /></linearGradient><linearGradient
       id="SVGID_4_-6"
       gradientUnits="userSpaceOnUse"
       x1="-43.002899"
       y1="23.044901"
       x2="-5.1012001"
       y2="23.044901"
       gradientTransform="matrix(-0.0586,-0.7978,0.7978,-0.0586,15.7501,20.2986)"><stop
         offset="0"
         style="stop-color:#5C962F"
         id="stop4717" /><stop
         offset="0.5333"
         style="stop-color:#5F942C"
         id="stop4719" /><stop
         offset="0.8667"
         style="stop-color:#678E24"
         id="stop4721" /><stop
         offset="1"
         style="stop-color:#6D8A1E"
         id="stop4723" /></linearGradient><linearGradient
       id="SVGID_5_-3"
       gradientUnits="userSpaceOnUse"
       x1="29.6621"
       y1="11.9868"
       x2="29.783701"
       y2="42.5117"
       gradientTransform="matrix(0.8,0,0,0.8,15.75,20.2999)"><stop
         offset="0"
         style="stop-color:#5C962F"
         id="stop4732" /><stop
         offset="0.5333"
         style="stop-color:#5F942C"
         id="stop4734" /><stop
         offset="0.8667"
         style="stop-color:#678E24"
         id="stop4736" /><stop
         offset="1"
         style="stop-color:#6D8A1E"
         id="stop4738" /></linearGradient></defs><sodipodi:namedview
     pagecolor="#ffffff"
     bordercolor="#666666"
     borderopacity="1"
     objecttolerance="10"
     gridtolerance="10"
     guidetolerance="10"
     inkscape:pageopacity="0"
     inkscape:pageshadow="2"
     inkscape:window-width="880"
     inkscape:window-height="718"
     id="namedview4029"
     showgrid="false"
     fit-margin-top="0"
     fit-margin-left="0"
     fit-margin-right="0"
     fit-margin-bottom="0"
     inkscape:zoom="3.3239437"
     inkscape:cx="118.66345"
     inkscape:cy="0.41173043"
     inkscape:window-x="579"
     inkscape:window-y="233"
     inkscape:window-maximized="0"
     inkscape:current-layer="svg3848" /><symbol
     id="price_x5F_tag_x5F_pt_x5F_mc_1_"
     transform="translate(82.163452,30.964407)"><g
       id="Layer_1_4_" /></symbol><g
     id="g5267"
     transform="translate(-16.514514,2.684746)"><path
       inkscape:connector-curvature="0"
       id="path3876"
       d="m 71.194068,63.415254 c 0.167,-0.434 0.3,-1.15 0.4,-2.15 0.1,-1.3 -0.417,-1.933 -1.55,-1.899 -1.167,0.066 -2.284,-0.117 -3.351,-0.55 -1.1,-0.4 -1.816,-0.7 -2.149,-0.9 -0.101,-0.3 -0.217,-0.6 -0.351,-0.9 l 8.451,0.099 c -0.1,2.633 -0.45,4.517 -1.05,5.649 -0.167,0.234 -0.3,0.451 -0.4,0.651 z"
       style="fill:url(#linearGradient5291);fill-rule:evenodd" /><path
       inkscape:connector-curvature="0"
       id="path3883"
       d="m 71.194068,63.415254 c -0.033,0.033 -0.066,0.083 -0.1,0.15 h -0.15 l -0.05,0.05 c -0.6,0.467 -1.316,0.649 -2.15,0.55 -1.166,-0.167 -2.566,-2.25 -4.199,-6.25 0.333,0.2 1.05,0.5 2.149,0.9 1.066,0.433 2.184,0.616 3.351,0.55 1.133,-0.033 1.649,0.6 1.55,1.899 -0.101,1.001 -0.234,1.717 -0.401,2.151 z"
       style="fill:url(#linearGradient5293);fill-rule:evenodd" /><path
       inkscape:connector-curvature="0"
       id="path3892"
       d="m 18.194068,29.965254 c 0.767,-0.267 1.633,-0.767 2.6,-1.5 0.967,-0.733 1.434,-1.45 1.4,-2.149 -0.033,-0.767 -0.017,-1.967 0.05,-3.601 0.066,-0.667 0.15,-1.183 0.25,-1.55 0.3,-0.3 0.617,-0.583 0.95,-0.85 l 2.15,7.6 c -2.267,1.2 -4.25,1.9 -5.95,2.1 -0.6,0.034 -1.083,0.016 -1.45,-0.05 z"
       style="fill:url(#linearGradient5295);fill-rule:evenodd" /><path
       inkscape:connector-curvature="0"
       id="path3899"
       d="m 18.194068,29.965254 c -0.867,-0.133 -1.417,-0.6 -1.65,-1.4 -0.3,-1.067 1.684,-3.534 5.95,-7.4 -0.1,0.367 -0.184,0.883 -0.25,1.55 -0.067,1.634 -0.083,2.834 -0.05,3.601 0.034,0.699 -0.433,1.416 -1.4,2.149 -0.967,0.733 -1.833,1.233 -2.6,1.5 z"
       style="fill:url(#linearGradient5297);fill-rule:evenodd" /><path
       inkscape:connector-curvature="0"
       id="path3908"
       d="m 86.094068,29.965254 c -0.4,0.066 -0.884,0.084 -1.45,0.05 -1.733,-0.199 -3.733,-0.899 -6,-2.1 l 2.15,-7.6 c 0.333,0.267 0.666,0.55 1,0.85 0.1,0.367 0.166,0.883 0.199,1.55 0.067,1.634 0.084,2.834 0.051,3.601 -0.034,0.699 0.433,1.416 1.399,2.149 0.966,0.733 1.851,1.233 2.651,1.5 z"
       style="fill:url(#linearGradient5299);fill-rule:evenodd" /><path
       inkscape:connector-curvature="0"
       id="path3915"
       d="m 81.794068,21.165254 c 4.233,3.866 6.199,6.333 5.899,7.4 -0.2,0.8 -0.733,1.267 -1.6,1.399 -0.8,-0.267 -1.684,-0.767 -2.65,-1.5 -0.966,-0.733 -1.434,-1.45 -1.399,-2.149 0.033,-0.767 0.017,-1.967 -0.051,-3.601 -0.033,-0.666 -0.099,-1.182 -0.199,-1.549 z"
       style="fill:url(#linearGradient5301);fill-rule:evenodd" /><path
       inkscape:connector-curvature="0"
       id="path3924"
       d="m 32.144068,57.915254 c -0.067,-0.3 -0.167,-0.6 -0.3,-0.9 l 8.45,0.101 c -0.333,2.633 -0.85,4.517 -1.55,5.649 -0.3,0.367 -0.567,0.65 -0.8,0.851 0.167,-0.566 0.167,-1.283 0,-2.15 -0.133,-0.866 -0.55,-1.399 -1.25,-1.6 -0.7,-0.233 -1.767,-0.65 -3.2,-1.25 -0.6,-0.267 -1.05,-0.501 -1.35,-0.701 z"
       style="fill:url(#linearGradient5303);fill-rule:evenodd" /><path
       inkscape:connector-curvature="0"
       id="path3931"
       d="m 37.944068,63.615254 c -0.633,0.467 -1.35,0.649 -2.15,0.55 -1.167,-0.167 -2.383,-2.25 -3.65,-6.25 0.3,0.2 0.75,0.434 1.35,0.7 1.433,0.6 2.5,1.017 3.2,1.25 0.7,0.2 1.117,0.733 1.25,1.6 0.167,0.867 0.167,1.584 0,2.15 z"
       style="fill:url(#linearGradient5305);fill-rule:evenodd" /><path
       style="fill:url(#linearGradient5307);fill-rule:evenodd"
       d="m 77.544068,5.715254 c -0.534,-0.367 -1.101,-0.683 -1.7,-0.95 -1.967,-0.967 -4.367,-1.45 -7.2,-1.45 h -32.95 c -3.433,0 -6.183,0.667 -8.25,2 l 5.45,-6.75 c 0.467,-0.367 0.95,-0.65 1.45,-0.85 0.7,-0.233 1.45,-0.367 2.25,-0.4 h 32.8 c 0.733,0.033 1.4,0.184 2,0.45 0.566,0.233 1.017,0.617 1.35,1.15 0.767,0.933 1.617,2.05 2.551,3.35 0.1,0.2 0.216,0.367 0.35,0.5 0.366,0.6 0.833,1.35 1.4,2.25 0.132,0.2 0.299,0.433 0.499,0.7 z"
       id="path3940"
       inkscape:connector-curvature="0" /><path
       style="fill:url(#linearGradient5309);fill-rule:evenodd"
       d="m 75.844068,4.765254 c 0.6,0.267 1.166,0.583 1.7,0.95 0.233,0.467 0.55,0.983 0.949,1.55 0,0.033 0.017,0.05 0.051,0.05 0.033,0.1 0.083,0.217 0.149,0.35 0.101,0.167 0.2,0.367 0.3,0.6 0.034,0.066 0.084,0.15 0.15,0.25 0.033,0.033 0.066,0.083 0.1,0.15 0.434,0.933 0.767,1.933 1,3 0.233,1.2 0.351,2.533 0.351,4 v 28.6 c 0,2.634 -0.417,4.867 -1.25,6.7 -0.101,0.233 -0.217,0.483 -0.351,0.75 -2,3.566 -5.866,5.351 -11.6,5.351 h -32.8 c -5.1,0 -8.7,-1.4 -10.8,-4.2 -0.1,-0.2 -0.2,-0.417 -0.3,-0.65 -0.333,-0.767 -0.583,-1.566 -0.75,-2.399 -0.266,-1.235 -0.399,-2.552 -0.399,-3.952 v -28.7 c 0,-2.067 0.267,-3.9 0.8,-5.5 0.067,-0.233 0.167,-0.483 0.3,-0.75 0.2,-0.4 0.434,-0.767 0.7,-1.1 0.033,-0.1 0.083,-0.183 0.15,-0.25 0.2,-0.267 0.45,-0.55 0.75,-0.85 l 2.35,-2.65 c 2.233,-1.3 5.2,-1.95 8.9,-1.95 l 35.6,0.25 c 1.4,0 2.717,0.133 3.95,0.4 z m -4.2,9.9 c -1.667,-1.633 -4.2,-2.45 -7.6,-2.45 h -24.65 c -6.567,0 -9.85,3.083 -9.85,9.25 v 20.9 c 0,3.434 0.983,5.899 2.95,7.399 0.233,0.301 0.517,0.584 0.85,0.851 0.4,0.3 0.85,0.616 1.35,0.95 1.567,0.899 3.6,1.35 6.1,1.35 h 24.65 c 6.434,0 9.733,-2.983 9.9,-8.95 v -21.25 c 0,-3.367 -0.983,-5.8 -2.95,-7.3 -0.233,-0.3 -0.483,-0.55 -0.75,-0.75 z"
       id="path3947"
       inkscape:connector-curvature="0" /><path
       style="fill:url(#linearGradient5311);fill-rule:evenodd"
       d="m 23.794068,52.865254 c 2.1,2.8 5.7,4.2 10.8,4.2 h 32.8 c 5.733,0 9.6,-1.784 11.6,-5.351 0.134,-0.267 0.25,-0.517 0.351,-0.75 0.833,-1.833 1.25,-4.066 1.25,-6.7 v -28.599 c 0,-1.467 -0.117,-2.8 -0.351,-4 -0.233,-1.067 -0.566,-2.067 -1,-3 l 0.051,0.05 c 0.066,0.034 0.116,0.117 0.149,0.25 0.167,0.2 0.316,0.4 0.45,0.6 0.134,0.267 0.267,0.5 0.4,0.7 0.199,0.433 0.399,0.9 0.6,1.4 0.467,1.6 0.7,3.433 0.7,5.5 v 28.7 c 0,2.6 -0.4,4.833 -1.2,6.7 -0.1,0.199 -0.217,0.433 -0.35,0.699 -2.034,3.601 -5.9,5.401 -11.6,5.401 h -32.9 c -5.4,0 -9.15,-1.6 -11.25,-4.8 -0.167,-0.3 -0.333,-0.634 -0.5,-1 z"
       id="path3954"
       inkscape:connector-curvature="0" /><path
       style="fill:url(#linearGradient5313);fill-rule:evenodd"
       d="m 27.444068,5.315254 c 2.067,-1.333 4.817,-2 8.25,-2 h 32.95 c 2.833,0 5.233,0.483 7.2,1.45 -1.233,-0.267 -2.55,-0.4 -3.95,-0.4 l -35.6,-0.25 c -3.7,0 -6.667,0.65 -8.9,1.95 l -2.35,2.65 c -0.3,0.3 -0.55,0.583 -0.75,0.85 -0.066,0.067 -0.117,0.15 -0.15,0.25 -0.267,0.333 -0.5,0.7 -0.7,1.1 0.267,-0.633 0.583,-1.25 0.95,-1.85 0.033,-0.1 0.083,-0.2 0.15,-0.3 0.233,-0.233 0.467,-0.483 0.7,-0.75 l 2.2,-2.7 z"
       id="path3961"
       inkscape:connector-curvature="0" /><path
       style="fill:url(#linearGradient5315);fill-rule:evenodd"
       d="m 72.894068,19.115254 c 0.1,0.3 0.184,0.6 0.25,0.9 -0.566,-0.533 -1.217,-0.967 -1.95,-1.3 -1.399,-0.667 -3.149,-1 -5.25,-1 h -23.2 c -6.267,0 -9.4,2.934 -9.4,8.8 v 19.8 c 0,0.899 0.1,1.75 0.3,2.55 -1.467,-1.5 -2.2,-3.667 -2.2,-6.5 v -19.7 c 0,-5.9 3.117,-8.85 9.35,-8.85 h 23.25 c 3.433,0 5.916,0.883 7.449,2.65 0.267,0.3 0.5,0.65 0.7,1.05 0.267,0.433 0.501,0.967 0.701,1.6 z"
       id="path3968"
       inkscape:connector-curvature="0" /><path
       style="fill:url(#linearGradient5317);fill-rule:evenodd"
       d="m 72.394068,15.415254 c 1.467,1.533 2.2,3.75 2.2,6.65 v 20.95 c 0,6.233 -3.316,9.351 -9.95,9.351 h -24.65 c -2.233,0 -4.083,-0.367 -5.55,-1.101 -0.367,-0.233 -0.733,-0.449 -1.1,-0.649 -0.333,-0.267 -0.617,-0.55 -0.85,-0.851 -1.533,-1.5 -2.3,-3.75 -2.3,-6.75 v -20.95 c 0,-6.167 3.267,-9.25 9.8,-9.25 h 24.65 c 3.033,0 5.366,0.617 7,1.85 0.267,0.2 0.517,0.45 0.75,0.75 z m -38.75,33.45 c 0.233,0.3 0.5,0.533 0.8,0.7 0.2,0.1 0.4,0.216 0.6,0.35 0.767,0.667 1.75,1.15 2.95,1.45 1,0.3 2.233,0.45 3.7,0.45 h 23.25 c 6.2,0 9.3,-2.934 9.3,-8.801 v -19.749 c 0,-0.667 -0.449,-2.05 -1.35,-4.15 -0.2,-0.633 -0.434,-1.167 -0.7,-1.6 -0.2,-0.4 -0.434,-0.75 -0.7,-1.05 -1.533,-1.767 -4.017,-2.65 -7.449,-2.65 h -23.251 c -6.233,0 -9.35,2.95 -9.35,8.85 v 19.7 c 0,2.833 0.733,5 2.2,6.5 z"
       id="path3975"
       inkscape:connector-curvature="0" /><path
       style="fill:url(#linearGradient5319);fill-rule:evenodd"
       d="m 72.894068,19.115254 c 0.9,2.1 1.35,3.483 1.35,4.15 v 19.75 c 0,5.867 -3.1,8.801 -9.3,8.801 h -23.25 c -1.466,0 -2.7,-0.15 -3.7,-0.45 -1.2,-0.3 -2.184,-0.783 -2.95,-1.45 0.6,0.366 1.283,0.65 2.05,0.85 1,0.301 2.233,0.45 3.7,0.45 h 23.25 c 6.199,0 9.3,-2.95 9.3,-8.85 v -19.701 c 0,-0.933 -0.066,-1.817 -0.2,-2.65 -0.066,-0.3 -0.15,-0.6 -0.25,-0.9 z"
       id="path3982"
       inkscape:connector-curvature="0" /><path
       style="fill:url(#linearGradient5321);fill-rule:evenodd"
       d="m 35.044068,49.915254 c -0.2,-0.134 -0.4,-0.25 -0.6,-0.35 -0.3,-0.167 -0.566,-0.4 -0.8,-0.7 -0.2,-0.8 -0.3,-1.65 -0.3,-2.55 v -19.8 c 0,-5.866 3.133,-8.8 9.4,-8.8 h 23.2 c 2.101,0 3.851,0.333 5.25,1 0.733,0.333 1.384,0.767 1.95,1.3 0.134,0.833 0.2,1.717 0.2,2.65 v 19.7 c 0,5.899 -3.101,8.85 -9.3,8.85 h -23.25 c -1.467,0 -2.7,-0.149 -3.7,-0.45 -0.767,-0.2 -1.45,-0.484 -2.05,-0.85 z"
       id="path3989"
       inkscape:connector-curvature="0" /><path
       style="fill:url(#linearGradient5323);fill-rule:evenodd"
       d="m 72.394068,15.415254 c 1.967,1.5 2.95,3.933 2.95,7.3 v 21.25 c -0.167,5.967 -3.467,8.95 -9.9,8.95 h -24.65 c -2.5,0 -4.533,-0.45 -6.1,-1.35 -0.5,-0.334 -0.95,-0.65 -1.35,-0.95 0.367,0.2 0.733,0.416 1.1,0.649 1.467,0.733 3.317,1.101 5.55,1.101 h 24.65 c 6.634,0 9.95,-3.117 9.95,-9.351 v -20.949 c 0,-2.9 -0.733,-5.117 -2.2,-6.65 z"
       id="path3996"
       inkscape:connector-curvature="0" /><path
       style="fill:url(#linearGradient5325);fill-rule:evenodd"
       d="m 32.494068,49.765254 c -1.967,-1.5 -2.95,-3.966 -2.95,-7.399 v -20.901 c 0,-6.167 3.283,-9.25 9.85,-9.25 h 24.65 c 3.399,0 5.933,0.817 7.6,2.45 -1.634,-1.233 -3.967,-1.85 -7,-1.85 h -24.65 c -6.533,0 -9.8,3.083 -9.8,9.25 v 20.95 c 0,3 0.767,5.25 2.3,6.75 z"
       id="path4003"
       inkscape:connector-curvature="0" /><path
       inkscape:connector-curvature="0"
       id="path4007"
       d="m 71.293068,8.739254 c 0,0.743 -0.216,1.339 -0.649,1.791 -0.467,0.484 -1.017,0.726 -1.65,0.726 -0.633,0 -1.149,-0.242 -1.55,-0.726 -0.5,-0.452 -0.75,-1.048 -0.75,-1.791 0,-0.645 0.25,-1.21 0.75,-1.694 0.4,-0.484 0.917,-0.726 1.55,-0.726 0.634,0 1.184,0.242 1.65,0.726 0.434,0.484 0.649,1.049 0.649,1.694 z"
       style="fill:#380101;fill-opacity:0.6;fill-rule:evenodd" /><path
       inkscape:connector-curvature="0"
       id="path4014"
       d="m 70.444068,8.836254 c 0,0.484 -0.2,0.904 -0.6,1.259 -0.367,0.355 -0.817,0.532 -1.351,0.532 -0.5,0 -0.95,-0.177 -1.35,-0.532 -0.367,-0.323 -0.55,-0.743 -0.55,-1.259 0,-0.516 0.183,-0.968 0.55,-1.355 0.333,-0.323 0.783,-0.484 1.35,-0.484 0.533,0 0.983,0.161 1.351,0.484 0.4,0.387 0.6,0.839 0.6,1.355 z"
       style="fill:url(#linearGradient5327);fill-rule:evenodd" /><path
       inkscape:connector-curvature="0"
       id="path4018"
       d="m 32.394068,8.836254 c 0,-0.645 0.217,-1.21 0.65,-1.694 0.466,-0.484 1.017,-0.726 1.649,-0.726 0.634,0 1.15,0.242 1.55,0.726 0.5,0.484 0.75,1.049 0.75,1.694 0,0.742 -0.25,1.339 -0.75,1.791 -0.399,0.484 -0.916,0.726 -1.55,0.726 -0.633,0 -1.184,-0.242 -1.649,-0.726 -0.433,-0.452 -0.65,-1.048 -0.65,-1.791 z"
       style="fill:#380101;fill-opacity:0.6;fill-rule:evenodd" /><path
       inkscape:connector-curvature="0"
       id="path4025"
       d="m 33.244068,8.641254 c 0,0.474 0.208,0.901 0.622,1.28 0.346,0.333 0.796,0.499 1.349,0.499 0.484,0 0.933,-0.167 1.348,-0.499 0.344,-0.332 0.518,-0.759 0.518,-1.28 0,-0.522 -0.174,-0.973 -0.518,-1.353 -0.346,-0.332 -0.796,-0.498 -1.348,-0.498 -0.553,0 -1.002,0.166 -1.349,0.498 -0.414,0.38 -0.622,0.83 -0.622,1.353 z"
       style="fill:url(#linearGradient5329);fill-rule:evenodd" /></g><use
     style="overflow:visible"
     transform="matrix(1,0,0,-1,52.144068,132.39387)"
     y="16383"
     x="16383"
     id="price_x5F_tag_x5F_pt"
     height="-32766"
     width="-32766"
     xlink:href="#price_x5F_tag_x5F_pt_x5F_mc_1_" /><g
     id="g4553"
     transform="matrix(0.65723865,0,0,0.65723865,14.525307,8.3128273)"><use
       xlink:href="#flash0.ai_x5F_1_x2F_Layer_8_copy_x2F__x3C_Path_x3E__x5F_80"
       width="26.299999"
       height="32.799999"
       y="-32.799999"
       transform="matrix(0.8,0,0,-0.8,36.34891,24.359599)"
       style="opacity:0.44920002;overflow:visible;enable-background:new"
       id="use4555"
       x="0" /><path
       style="fill:#ccf6ff;fill-rule:evenodd"
       d="m 26.27,41.659 h 0.041 l 0.64,-0.199 0.08,-0.041 5.16,-0.76 c 0.134,-0.026 0.347,-0.04 0.641,-0.04 h 2.92 c 0.293,0 0.506,0.014 0.64,0.04 l 4.399,0.601 h 0.121 l 0.68,0.2 h 0.08 l 0.64,0.199 c 1.493,0.507 2.319,1.107 2.479,1.801 h -1.64 c 0,-0.614 -0.853,-1.134 -2.56,-1.561 -1.707,-0.427 -3.76,-0.64 -6.16,-0.64 -2.399,0 -4.453,0.213 -6.16,0.64 -1.707,0.427 -2.56,0.946 -2.56,1.561 h -1.88 c 0.132,-0.693 0.945,-1.294 2.439,-1.801 z"
       id="path4557"
       inkscape:connector-curvature="0" /><linearGradient
       id="linearGradient4528"
       gradientUnits="userSpaceOnUse"
       x1="12.9502"
       y1="48.474602"
       x2="33.149399"
       y2="48.474602"
       gradientTransform="matrix(0.8,0,0,0.8,15.75,20.2999)"><stop
         offset="0"
         style="stop-color:#E8E2AC"
         id="stop4530" /><stop
         offset="0.149"
         style="stop-color:#E8E4B9"
         id="stop4532" /><stop
         offset="0.298"
         style="stop-color:#E8E5C1"
         id="stop4534" /><stop
         offset="1"
         style="stop-color:#CFC784"
         id="stop4536" /></linearGradient><path
       style="fill:url(#SVGID_1_-0);fill-rule:evenodd"
       d="m 26.11,53.779 16.16,0.08 -1.92,8.561 v 0.079 c 0,0.534 -0.6,0.974 -1.8,1.32 -1.2,0.373 -2.653,0.56 -4.36,0.56 -1.706,0 -3.16,-0.187 -4.359,-0.56 -1.2,-0.347 -1.8,-0.786 -1.8,-1.32 V 62.42 L 26.11,53.779 z"
       id="path4568"
       inkscape:connector-curvature="0" /><path
       style="fill:#bab573;fill-rule:evenodd"
       d="m 40.789,57.179 c 0.027,0.16 -0.013,0.547 -0.119,1.16 -0.054,0.374 -0.214,0.44 -0.48,0.2 -0.267,-0.213 -0.32,-0.533 -0.16,-0.96 0.16,-0.4 0.307,-0.627 0.44,-0.68 0.16,-0.053 0.266,0.04 0.319,0.28 z"
       id="path4570"
       inkscape:connector-curvature="0" /><path
       style="fill:#bab573;fill-rule:evenodd"
       d="m 39.789,59.739 c 0.24,-0.16 0.428,-0.147 0.561,0.04 l 0.04,1.04 c -0.054,0.214 -0.227,0.267 -0.521,0.159 -0.293,-0.133 -0.439,-0.332 -0.439,-0.6 0,-0.266 0.12,-0.479 0.359,-0.639 z"
       id="path4572"
       inkscape:connector-curvature="0" /><path
       style="fill:#bab573;fill-rule:evenodd"
       d="m 38.91,58.819 c 0.106,0.347 0.053,0.68 -0.16,1 -0.188,0.293 -0.334,0.253 -0.44,-0.12 -0.08,-0.347 -0.026,-0.64 0.16,-0.88 0.213,-0.24 0.36,-0.24 0.44,0 z"
       id="path4574"
       inkscape:connector-curvature="0" /><path
       style="fill:#bab573;fill-rule:evenodd"
       d="m 39.59,60.499 c 0.267,0.427 0.307,0.787 0.12,1.08 -0.187,0.294 -0.4,0.307 -0.641,0.04 -0.213,-0.187 -0.2,-0.453 0.04,-0.8 0.241,-0.373 0.401,-0.48 0.481,-0.32 z"
       id="path4576"
       inkscape:connector-curvature="0" /><path
       style="fill:#bab573;fill-rule:evenodd"
       d="m 38.109,59.26 c 0.027,0.293 0,0.479 -0.08,0.56 -0.08,0.106 -0.199,0.054 -0.359,-0.16 -0.16,-0.213 -0.12,-0.387 0.119,-0.521 0.214,-0.133 0.32,-0.093 0.32,0.121 z"
       id="path4578"
       inkscape:connector-curvature="0" /><path
       style="fill:#bab573;fill-rule:evenodd"
       d="m 36.949,61.659 c 0.374,0.24 0.467,0.467 0.28,0.68 -0.16,0.214 -0.427,0.294 -0.8,0.24 -0.32,-0.054 -0.373,-0.253 -0.16,-0.601 0.241,-0.345 0.467,-0.453 0.68,-0.319 z"
       id="path4580"
       inkscape:connector-curvature="0" /><path
       style="fill:#bab573;fill-rule:evenodd"
       d="m 38.39,62.659 c 0.214,0 0.32,0.12 0.32,0.36 -0.027,0.213 -0.16,0.319 -0.4,0.319 -0.24,0 -0.333,-0.106 -0.28,-0.319 0.027,-0.24 0.146,-0.36 0.36,-0.36 z"
       id="path4582"
       inkscape:connector-curvature="0" /><path
       style="fill:#bab573;fill-rule:evenodd"
       d="m 39.989,58.459 c 0.08,0.533 0.04,0.827 -0.12,0.88 -0.187,0.081 -0.279,-0.013 -0.279,-0.279 0,-0.187 0.066,-0.36 0.199,-0.521 0.134,-0.16 0.2,-0.186 0.2,-0.08 z"
       id="path4584"
       inkscape:connector-curvature="0" /><path
       style="fill:#bab573;fill-rule:evenodd"
       d="m 39.189,58.339 c 0.293,0.268 0.347,0.453 0.16,0.561 -0.187,0.106 -0.373,0.093 -0.561,-0.04 -0.159,-0.107 -0.159,-0.24 0,-0.4 0.161,-0.188 0.295,-0.228 0.401,-0.121 z"
       id="path4586"
       inkscape:connector-curvature="0" /><path
       style="fill:#bab573;fill-rule:evenodd"
       d="m 35.869,60.379 c 0.4,0.08 0.48,0.268 0.24,0.561 -0.267,0.293 -0.506,0.373 -0.72,0.239 -0.187,-0.106 -0.2,-0.279 -0.04,-0.52 0.133,-0.239 0.307,-0.333 0.52,-0.28 z"
       id="path4588"
       inkscape:connector-curvature="0" /><path
       style="fill:#bab573;fill-rule:evenodd"
       d="m 30.71,58.499 c 0.187,0.187 0.2,0.413 0.04,0.68 -0.16,0.241 -0.347,0.294 -0.561,0.16 -0.213,-0.16 -0.227,-0.373 -0.04,-0.64 0.214,-0.293 0.401,-0.36 0.561,-0.2 z"
       id="path4590"
       inkscape:connector-curvature="0" /><path
       style="fill:#bab573;fill-rule:evenodd"
       d="m 31.03,62.42 c 0.56,0.079 0.773,0.332 0.64,0.759 -0.053,0.16 -0.16,0.228 -0.32,0.2 -0.187,-0.026 -0.387,-0.146 -0.6,-0.359 -0.213,-0.213 -0.267,-0.373 -0.16,-0.48 0.08,-0.134 0.226,-0.175 0.44,-0.12 z"
       id="path4592"
       inkscape:connector-curvature="0" /><path
       style="fill:#ffffff;fill-rule:evenodd"
       d="m 42.229,53.979 c 0,0.508 -0.787,0.934 -2.36,1.281 -1.573,0.347 -3.466,0.52 -5.68,0.52 -2.24,0 -4.146,-0.173 -5.72,-0.52 -1.573,-0.348 -2.36,-0.773 -2.36,-1.281 0,-0.506 0.787,-0.933 2.36,-1.279 1.573,-0.346 3.48,-0.521 5.72,-0.521 2.214,0 4.106,0.174 5.68,0.521 1.574,0.347 2.36,0.773 2.36,1.279 z"
       id="path4594"
       inkscape:connector-curvature="0" /><linearGradient
       id="linearGradient4552"
       gradientUnits="userSpaceOnUse"
       x1="-16.571301"
       y1="-47.126499"
       x2="-6.2536998"
       y2="-47.126499"
       gradientTransform="matrix(-0.756,0.2617,-0.2617,-0.756,15.7516,20.2991)"><stop
         offset="0"
         style="stop-color:#E8E5C1"
         id="stop4554" /><stop
         offset="1"
         style="stop-color:#CFC784"
         id="stop4556" /></linearGradient><path
       style="fill:url(#SVGID_2_-8);fill-rule:evenodd"
       d="m 42.229,53.819 c 0,0.453 -0.787,0.84 -2.36,1.159 -1.546,0.32 -3.439,0.48 -5.68,0.48 -2.24,0 -4.146,-0.16 -5.72,-0.48 -1.573,-0.319 -2.36,-0.706 -2.36,-1.159 0,-0.454 0.787,-0.841 2.36,-1.16 1.6,-0.32 3.506,-0.48 5.72,-0.48 2.214,0 4.106,0.16 5.68,0.48 1.573,0.32 2.36,0.706 2.36,1.16 z"
       id="path4601"
       inkscape:connector-curvature="0" /><path
       style="fill:#e7f77e;fill-rule:evenodd"
       d="m 38.51,20.34 2.2,-0.04 1.079,2.64 -5.76,28.6 -0.96,0.92 -0.88,-0.399 c 0.96,-9.467 1.733,-15.667 2.32,-18.6 0.587,-2.908 1.254,-7.281 2.001,-13.121 z"
       id="path4603"
       inkscape:connector-curvature="0" /><path
       style="fill:#94c908;fill-rule:evenodd"
       d="m 36.83,38.22 c 0.56,-3.094 1.72,-9.066 3.479,-17.92 h 0.4 l 0.52,1.28 -5.24,29.999 -0.92,0.88 -0.279,-0.12 c 0.986,-7.36 1.666,-12.067 2.04,-14.119 z"
       id="path4605"
       inkscape:connector-curvature="0" /><linearGradient
       id="linearGradient4561"
       gradientUnits="userSpaceOnUse"
       x1="30.253401"
       y1="-1.6538"
       x2="28.400801"
       y2="41.8909"
       gradientTransform="matrix(0.8,0,0,0.8,15.75,20.2999)"><stop
         offset="0"
         style="stop-color:#5C962F"
         id="stop4563" /><stop
         offset="0.5333"
         style="stop-color:#5F942C"
         id="stop4565" /><stop
         offset="0.8667"
         style="stop-color:#678E24"
         id="stop4567" /><stop
         offset="1"
         style="stop-color:#6D8A1E"
         id="stop4569" /></linearGradient><path
       style="fill:url(#SVGID_3_-1);fill-rule:evenodd"
       d="m 41.949,20.7 1.36,0.64 c -1.253,3.893 -2.333,7.827 -3.24,11.8 -1.626,7.12 -2.76,13.52 -3.399,19.199 -0.027,0.054 -0.28,0.081 -0.76,0.081 l -0.841,0.039 C 36.057,45.18 36.83,40.06 37.39,37.1 l 3.32,-16.8 0.239,0.04 c 0.24,0.053 0.574,0.173 1,0.36 z"
       id="path4616"
       inkscape:connector-curvature="0" /><path
       style="fill:#f7aa36;fill-rule:evenodd"
       d="m 30.51,23.3 c 0,5.546 0.08,9.72 0.24,12.52 0.16,2.773 0.12,8.653 -0.12,17.64 l -0.76,0.32 -0.64,-0.92 -1.56,-27.4 1.12,-2.4 1.72,0.24 z"
       id="path4618"
       inkscape:connector-curvature="0" /><path
       style="fill:#f09308;fill-rule:evenodd"
       d="m 29.99,40.22 c 0.187,4.213 0.227,8.706 0.12,13.479 l -0.24,0.08 -0.64,-0.92 -0.96,-28.64 0.52,-1.16 0.28,0.04 0.92,17.121 z"
       id="path4620"
       inkscape:connector-curvature="0" /><path
       style="fill:#d4850f;fill-rule:evenodd"
       d="M 28.63,53.539 C 28.736,48.152 28.51,42.032 27.95,35.18 27.657,31.367 27.217,27.58 26.63,23.82 l 1.16,-0.48 c 0.56,-0.213 0.894,-0.307 1,-0.28 l 0.88,16.08 c 0.133,2.826 0.2,7.706 0.2,14.64 l -1.24,-0.241 z"
       id="path4622"
       inkscape:connector-curvature="0" /><g
       id="g4624"><path
         style="fill:#bf7506;fill-rule:evenodd"
         d="m 28.55,45.26 c 0.454,0.159 0.88,0.253 1.28,0.279 l 0.04,3.721 -1.24,-0.36 -0.08,-3.64 z"
         id="path4626"
         inkscape:connector-curvature="0" /><path
         style="fill:#bf7506;fill-rule:evenodd"
         d="m 29.75,41.38 c -0.454,-0.08 -0.92,-0.214 -1.4,-0.4 l -0.2,-3 c 0.56,0.214 1.053,0.333 1.48,0.36 l 0.12,3.04 z"
         id="path4628"
         inkscape:connector-curvature="0" /><path
         style="fill:#bf7506;fill-rule:evenodd"
         d="m 28.91,24.98 0.16,3.16 -1.76,0.6 -0.4,-3.08 c 0.666,-0.293 1.333,-0.52 2,-0.68 z"
         id="path4630"
         inkscape:connector-curvature="0" /><path
         style="fill:#bf7506;fill-rule:evenodd"
         d="M 29.43,34.739 C 28.79,34.686 28.284,34.66 27.91,34.66 l -0.2,-2.28 1.6,-0.2 0.12,2.559 z"
         id="path4632"
         inkscape:connector-curvature="0" /></g><path
       style="fill:#4f6e34;fill-rule:evenodd"
       d="m 29.51,38.46 c -0.88,1.227 -1.533,1.826 -1.96,1.8 l -1.12,-0.04 c 0.053,0.533 -0.12,0.88 -0.52,1.04 -0.134,0.053 -0.32,0.187 -0.561,0.399 -0.133,0.107 -0.306,0.146 -0.52,0.12 -0.24,-0.026 -0.507,-0.293 -0.8,-0.8 -0.293,-0.48 -0.413,-0.76 -0.36,-0.84 0.133,-0.187 0.56,-0.667 1.28,-1.44 0.8,-0.88 1.28,-1.359 1.44,-1.439 0.16,-0.054 0.733,0.133 1.72,0.56 0.481,0.213 0.948,0.426 1.401,0.64 z"
       id="path4634"
       inkscape:connector-curvature="0" /><path
       style="fill:#658c42;fill-rule:evenodd"
       d="m 27.99,39.5 0.4,-0.521 0.4,0.36 c 0.267,0.293 0.427,0.6 0.48,0.92 0.08,0.533 0.2,1.8 0.36,3.8 0.053,0.373 -0.026,0.56 -0.24,0.56 -0.293,0 -0.493,0.08 -0.6,0.24 -0.186,0.214 -0.64,0.04 -1.36,-0.521 -1.227,-0.986 -1.88,-1.506 -1.96,-1.56 l -3.28,-2.16 0.16,-0.92 1.88,1.28 c 0.88,0.64 1.6,1.08 2.16,1.32 0.32,0.133 0.667,0.253 1.04,0.359 0.427,0.187 0.64,0.613 0.64,1.28 0.106,-0.187 0.173,-0.427 0.2,-0.72 0.027,-0.533 -0.2,-0.974 -0.68,-1.32 l -2.84,-1.72 0.28,-0.2 3.08,1.64 c 0.187,-0.239 0.28,-0.466 0.28,-0.68 L 27.99,39.5 z"
       id="path4636"
       inkscape:connector-curvature="0" /><path
       style="fill:#81b354;fill-rule:evenodd"
       d="m 25.59,39.659 -1.72,-1.159 1.32,-1.24 -0.12,0.359 c 0.026,0.348 0.32,0.787 0.88,1.32 l 2.88,2.56 -0.84,-5.8 1.8,0.16 0.16,0.24 c 0.08,0.293 0.067,0.854 -0.04,1.68 -0.214,1.707 -0.307,2.894 -0.28,3.56 0.053,1.067 0.374,2.214 0.96,3.44 0.747,1.573 1.227,2.44 1.44,2.601 l 0.119,0.479 c -0.026,0.4 -0.32,0.761 -0.88,1.08 -0.533,0.32 -1.066,0.427 -1.6,0.32 l -0.68,-0.24 c 0.187,-0.533 -0.027,-1.427 -0.64,-2.681 -0.48,-0.959 -0.854,-1.586 -1.12,-1.879 -0.32,-0.348 -1,-0.854 -2.04,-1.521 -0.907,-0.56 -1.64,-0.946 -2.2,-1.16 l -0.6,-0.16 0.32,-1.12 1.64,1.28 c 0.667,0.453 1.253,0.72 1.76,0.8 -0.16,-0.64 -0.48,-1.106 -0.96,-1.399 l -1.48,-1.04 0.2,-0.44 1.68,1.36 c 0.507,0.427 1.026,0.653 1.56,0.68 -0.266,-0.853 -0.773,-1.547 -1.519,-2.08 z"
       id="path4638"
       inkscape:connector-curvature="0" /><path
       style="fill:#66943b;fill-rule:evenodd"
       d="m 28.59,43.819 c 0.267,0.88 0.52,1.573 0.76,2.08 0.16,0.32 0.36,0.826 0.6,1.52 0.133,0.454 0.293,0.76 0.48,0.92 0.4,0.374 0.894,0.2 1.48,-0.52 h 0.24 c -0.053,0.427 -0.346,0.801 -0.88,1.12 -0.506,0.294 -0.986,0.413 -1.439,0.36 l -0.44,-0.2 -0.12,-0.68 -0.84,-2.601 0.68,1.36 c 0.107,0.319 0.36,0.894 0.76,1.72 0.16,0.134 0.24,0.066 0.24,-0.2 0,-0.106 -0.12,-0.399 -0.36,-0.88 -0.267,-0.587 -0.467,-1.133 -0.6,-1.64 l -0.88,-3.521 0.319,1.162 z"
       id="path4640"
       inkscape:connector-curvature="0" /><path
       style="fill:#66943b;fill-rule:evenodd"
       d="m 29.91,37.779 c -0.214,1.707 -0.307,2.894 -0.28,3.56 0.053,1.067 0.374,2.214 0.96,3.44 0.747,1.573 1.227,2.44 1.44,2.601 l 0.119,0.399 c 0,0.294 -0.16,0.587 -0.479,0.88 -0.027,-0.213 -0.066,-0.426 -0.12,-0.64 -0.106,-0.399 -0.28,-0.773 -0.52,-1.12 -0.827,-1.254 -1.387,-2.347 -1.68,-3.28 -0.267,-0.88 -0.24,-2.066 0.08,-3.56 0.133,-0.693 0.174,-2.093 0.12,-4.2 h 0.24 l 0.16,0.24 c 0.08,0.294 0.067,0.854 -0.04,1.68 z"
       id="path4642"
       inkscape:connector-curvature="0" /><path
       style="fill:#629642;fill-rule:evenodd"
       d="m 31.95,34.34 h 0.44 c 0.293,0.08 0.507,0.279 0.641,0.6 0.239,0.641 0.159,1.24 -0.24,1.8 -0.187,0.267 -0.414,0.467 -0.68,0.601 0.159,0.32 0.079,0.693 -0.241,1.12 -0.586,0.8 -1.253,1.173 -2,1.12 -0.053,0.133 -0.266,0.266 -0.64,0.399 -0.374,0.16 -0.68,0.066 -0.92,-0.28 l -0.32,0.2 c -0.213,0.106 -0.573,-0.094 -1.08,-0.6 l -0.16,0.68 c -0.133,0.213 -0.467,0.4 -1,0.56 l 0.04,0.32 c 0,0.24 -0.08,0.427 -0.24,0.56 -0.293,0.214 -0.626,0.147 -1,-0.199 0,0.373 -0.213,0.64 -0.64,0.8 -0.267,0.106 -0.454,0.134 -0.56,0.08 l -0.12,-0.12 -0.08,0.16 c -0.08,0.106 -0.213,0.227 -0.4,0.359 -0.32,0.188 -0.68,0.227 -1.08,0.12 l -0.24,0.32 c -0.134,0.134 -0.334,0.2 -0.6,0.2 -0.213,-0.027 -0.414,-0.094 -0.6,-0.2 -0.32,0.267 -0.626,0.28 -0.92,0.04 -0.187,-0.16 -0.307,-0.307 -0.36,-0.44 l -0.04,-0.159 c -0.56,0.159 -1.027,0 -1.4,-0.48 -0.214,-0.293 -0.293,-0.6 -0.24,-0.92 l 0.12,-0.4 c -0.506,-0.08 -0.866,-0.347 -1.08,-0.8 -0.16,-0.293 -0.12,-0.653 0.12,-1.08 l 0.36,-0.56 c -0.72,0.054 -1.066,-0.24 -1.04,-0.88 0.026,-0.373 0.16,-0.721 0.4,-1.04 l 0.4,-0.36 c -0.133,-0.08 -0.24,-0.213 -0.32,-0.399 -0.16,-0.374 -0.106,-0.787 0.16,-1.24 0.24,-0.453 0.574,-0.707 1,-0.76 0.214,0 0.4,0.026 0.561,0.08 -0.054,-0.267 0.04,-0.653 0.28,-1.16 0.16,-0.293 0.44,-0.561 0.84,-0.8 l 0.6,-0.28 c -0.187,-0.507 -0.027,-0.947 0.48,-1.32 0.507,-0.347 0.894,-0.347 1.16,0 -0.054,-0.293 0.187,-0.64 0.72,-1.04 0.56,-0.373 0.947,-0.36 1.16,0.041 0,-0.08 0.04,-0.174 0.12,-0.28 0.16,-0.213 0.413,-0.4 0.76,-0.56 0.534,-0.267 1.013,-0.093 1.44,0.52 l 0.2,-0.16 c 0.213,-0.106 0.533,-0.173 0.96,-0.2 0.667,-0.054 1.133,0.12 1.4,0.52 l 0.52,-0.16 c 0.427,-0.08 0.827,-0.014 1.2,0.2 0.773,0.427 1.08,0.986 0.92,1.68 l 0.28,0.08 c 0.213,0.08 0.4,0.267 0.56,0.56 0.374,0.747 0.32,1.36 -0.16,1.84 l 0.48,0.28 c 0.186,0.183 0.212,0.53 0.079,1.037 z"
       id="path4644"
       inkscape:connector-curvature="0" /><path
       style="fill:#a5db72;fill-rule:evenodd"
       d="m 26.03,42.939 c 0.187,0.16 -0.04,0.12 -0.68,-0.12 -0.613,-0.24 -0.893,-0.413 -0.839,-0.52 0.053,-0.08 0.293,-0.027 0.72,0.16 0.399,0.187 0.665,0.347 0.799,0.48 z"
       id="path4646"
       inkscape:connector-curvature="0" /><path
       style="fill:#a5db72;fill-rule:evenodd"
       d="m 26.83,42.539 c -0.267,-0.213 -0.467,-0.373 -0.6,-0.479 -0.24,-0.187 -0.28,-0.28 -0.12,-0.28 0.053,0 0.293,0.106 0.72,0.32 0.32,0.133 0.48,0.12 0.48,-0.04 0.053,-0.507 0.173,-0.627 0.36,-0.36 0.133,0.187 0.066,0.413 -0.2,0.681 -0.267,0.238 -0.48,0.292 -0.64,0.158 z"
       id="path4648"
       inkscape:connector-curvature="0" /><path
       style="fill:#a5db72;fill-rule:evenodd"
       d="m 27.27,40.779 c -0.213,-0.16 -0.4,-0.333 -0.56,-0.52 -0.16,-0.187 -0.147,-0.254 0.04,-0.2 0.213,0.053 0.467,0.213 0.76,0.479 0.32,0.267 0.494,0.48 0.52,0.641 0.027,0.133 0,0.159 -0.08,0.08 -0.4,-0.293 -0.627,-0.453 -0.68,-0.48 z"
       id="path4650"
       inkscape:connector-curvature="0" /><path
       style="fill:#a5db72;fill-rule:evenodd"
       d="m 28.43,45.819 c -0.16,-0.24 -0.333,-0.653 -0.52,-1.24 -0.214,-0.613 -0.334,-0.96 -0.36,-1.04 -0.106,-0.213 -0.187,-0.453 -0.24,-0.72 -0.027,-0.267 0.013,-0.32 0.12,-0.16 0.187,0.214 0.6,1.214 1.24,3 0.613,1.414 0.533,1.467 -0.24,0.16 z"
       id="path4652"
       inkscape:connector-curvature="0" /><path
       style="fill:#a5db72;fill-rule:evenodd"
       d="m 29.67,45.659 c -0.347,-0.533 -0.627,-1.199 -0.84,-2 -0.054,-0.213 0.026,-0.16 0.24,0.16 0.214,0.32 0.413,0.693 0.6,1.12 l 1,2.04 c -0.053,0.241 -0.387,-0.2 -1,-1.32 z"
       id="path4654"
       inkscape:connector-curvature="0" /><g
       id="g4656"><path
         style="fill:#507a36;fill-rule:evenodd"
         d="m 21.75,29.86 -0.16,0.4 V 30.22 C 21.43,30.14 21.27,30.1 21.11,30.1 l -0.28,-0.4 0.24,-0.2 c 0.534,-0.426 0.92,-0.453 1.16,-0.08 -0.213,0.133 -0.374,0.28 -0.48,0.44 z"
         id="path4658"
         inkscape:connector-curvature="0" /><path
         style="fill:#507a36;fill-rule:evenodd"
         d="m 32.03,38.539 c -0.294,0.48 -0.734,0.854 -1.32,1.12 l -0.28,-0.239 0.4,-0.4 0.08,-0.16 c 0.293,-0.08 0.52,-0.253 0.68,-0.52 0.267,-0.373 0.28,-0.76 0.04,-1.16 0.213,-0.08 0.4,-0.227 0.56,-0.44 0.134,-0.239 0.174,-0.493 0.12,-0.76 -0.053,-0.24 -0.187,-0.427 -0.4,-0.56 -0.32,-0.16 -0.64,-0.16 -0.96,0 0.16,-0.267 0.2,-0.547 0.12,-0.84 -0.053,-0.294 -0.213,-0.507 -0.48,-0.641 -0.107,-0.08 -0.267,-0.12 -0.48,-0.12 0.187,-0.266 0.24,-0.56 0.16,-0.88 -0.053,-0.32 -0.227,-0.546 -0.52,-0.68 -0.027,-0.027 -0.12,-0.067 -0.28,-0.12 0.106,-0.373 0.026,-0.72 -0.24,-1.04 0.133,-0.293 0.16,-0.573 0.08,-0.84 -0.08,-0.267 -0.24,-0.467 -0.48,-0.6 -0.587,-0.32 -1.107,-0.2 -1.561,0.36 l -0.24,-0.24 c -0.187,-0.106 -0.426,-0.093 -0.72,0.04 -0.08,-0.133 -0.187,-0.24 -0.32,-0.32 -0.24,-0.133 -0.494,-0.16 -0.76,-0.08 -0.293,0.08 -0.52,0.24 -0.68,0.48 l -0.08,0.2 -0.24,0.04 c -0.08,-0.213 -0.213,-0.36 -0.4,-0.44 -0.374,-0.213 -0.76,-0.213 -1.16,0 0.106,-0.32 0.374,-0.6 0.8,-0.84 0.534,-0.293 1.041,-0.16 1.52,0.4 l 0.2,-0.16 c 0.187,-0.133 0.493,-0.227 0.92,-0.28 0.667,-0.08 1.146,0.066 1.44,0.44 l 0.52,-0.2 c 0.4,-0.107 0.8,-0.067 1.2,0.12 0.8,0.347 1.16,0.866 1.08,1.56 l 0.28,0.08 c 0.213,0.08 0.4,0.254 0.56,0.52 0.427,0.693 0.427,1.293 0,1.8 l 0.521,0.28 c 0.186,0.16 0.24,0.507 0.16,1.041 l 0.4,-0.04 c 0.294,0.026 0.521,0.199 0.681,0.52 0.319,0.641 0.293,1.24 -0.08,1.8 -0.188,0.267 -0.414,0.48 -0.681,0.641 0.186,0.318 0.133,0.705 -0.16,1.158 z"
         id="path4660"
         inkscape:connector-curvature="0" /></g><path
       style="fill:#507a36;fill-rule:evenodd"
       d="m 22.79,31.819 c 0.134,-0.16 0.293,-0.307 0.48,-0.439 0.426,-0.267 0.854,-0.28 1.28,-0.041 0.72,0.374 0.987,0.72 0.8,1.041 l 0.44,-0.2 c 0.374,-0.106 0.747,-0.067 1.121,0.12 0.613,0.346 0.826,0.68 0.64,1 l 0.52,0.04 c 0.4,0.107 0.68,0.333 0.84,0.68 0.266,0.587 0.373,0.934 0.32,1.04 l 0.24,-0.24 c 0.24,-0.106 0.52,-0.053 0.84,0.16 0.56,0.32 0.693,0.76 0.4,1.32 l 0.24,0.2 c 0.133,0.239 0.146,0.546 0.04,0.92 -0.16,0.586 -0.373,0.934 -0.64,1.04 0.32,-0.773 0.293,-1.214 -0.08,-1.32 -0.24,-0.054 -0.426,-0.08 -0.56,-0.08 h -0.16 c 0.374,-0.613 0.413,-1.014 0.12,-1.2 -0.187,-0.106 -0.4,-0.173 -0.64,-0.199 l -0.28,0.039 c 0.08,-0.826 -0.2,-1.333 -0.84,-1.52 -0.427,-0.134 -0.707,-0.094 -0.84,0.12 -0.023,0.034 -0.043,0.075 -0.06,0.12 0.069,-0.707 -0.178,-1.134 -0.74,-1.28 l -0.92,-0.24 c -0.213,-0.453 -0.613,-0.787 -1.2,-1 -0.374,-0.106 -0.707,-0.16 -1,-0.16 l -0.361,0.079 z"
       id="path4662"
       inkscape:connector-curvature="0" /><path
       style="fill:#507a36;fill-rule:evenodd"
       d="m 21.83,35.46 0.28,-0.2 c 0.213,-0.134 0.467,-0.146 0.76,-0.04 0.454,0.16 0.693,0.399 0.72,0.72 0.106,-0.16 0.24,-0.307 0.4,-0.439 0.347,-0.24 0.733,-0.268 1.16,-0.08 0.667,0.293 0.946,0.547 0.84,0.76 l 0.44,-0.2 c 0.347,-0.106 0.64,-0.066 0.88,0.12 0.373,0.267 0.52,0.613 0.44,1.04 0.08,-0.106 0.173,-0.2 0.28,-0.28 0.24,-0.133 0.466,-0.093 0.68,0.12 0.347,0.347 0.44,0.681 0.28,1 l 0.56,-0.16 c 0.4,-0.08 0.626,0.014 0.68,0.28 0.106,0.293 0.013,0.613 -0.28,0.96 -0.267,0.32 -0.546,0.493 -0.84,0.521 l -0.48,0.079 c -0.32,0.4 -0.707,0.521 -1.16,0.36 -0.293,-0.106 -0.52,-0.28 -0.68,-0.52 l -0.2,-0.32 c 1.093,0.427 1.6,0.493 1.52,0.2 l -0.12,-0.44 c 0.614,0.373 0.96,0.4 1.04,0.08 0.027,-0.213 -0.053,-0.4 -0.24,-0.56 l -0.28,-0.2 c 0.053,-0.507 -0.027,-0.787 -0.24,-0.84 -0.133,-0.027 -0.32,-0.014 -0.56,0.04 l -0.32,0.12 c 0.134,-0.294 0.014,-0.547 -0.36,-0.761 -0.24,-0.133 -0.52,-0.187 -0.84,-0.159 l -0.4,0.079 c 0.187,-0.319 0.027,-0.546 -0.479,-0.68 -0.32,-0.08 -0.707,-0.026 -1.16,0.16 l -0.56,0.28 c -0.08,-0.347 -0.333,-0.587 -0.76,-0.721 L 21.83,35.46 z"
       id="path4664"
       inkscape:connector-curvature="0" /><path
       style="fill:#507a36;fill-rule:evenodd"
       d="m 19.35,39.5 0.439,-0.2 c 0.32,-0.106 0.587,-0.054 0.8,0.16 0.347,0.346 0.44,0.652 0.28,0.92 l 0.44,0.159 c 0.267,0.16 0.373,0.387 0.32,0.681 -0.08,0.453 -0.253,0.706 -0.52,0.76 l 0.28,0.2 c 0.16,0.159 0.214,0.319 0.16,0.479 -0.106,0.24 -0.307,0.387 -0.6,0.44 0.533,0.347 0.6,0.52 0.2,0.52 -0.24,0 -0.493,-0.04 -0.76,-0.12 l -0.28,-0.119 c 0.32,-0.08 0.414,-0.174 0.28,-0.28 l -0.32,-0.12 c 0.613,0.026 0.907,-0.08 0.88,-0.32 -0.026,-0.16 -0.093,-0.307 -0.2,-0.439 l -0.2,-0.2 c 0.427,-0.24 0.6,-0.507 0.52,-0.8 -0.053,-0.188 -0.173,-0.36 -0.36,-0.521 l -0.28,-0.16 c 0.16,-0.293 0.066,-0.533 -0.28,-0.72 L 19.35,39.5 z"
       id="path4666"
       inkscape:connector-curvature="0" /><path
       style="fill:#507a36;fill-rule:evenodd"
       d="m 22.55,35.58 c 0.374,0.08 0.72,0.199 1.04,0.359 0.534,0.267 0.76,0.667 0.68,1.2 l 0.32,-0.04 c 0.24,0.026 0.506,0.133 0.8,0.32 0.48,0.293 0.56,0.64 0.24,1.04 l 0.16,0.159 c 0.08,0.16 0.121,0.387 0.121,0.681 0.026,0.453 -0.174,0.786 -0.6,1 l 0.24,0.279 c 0.187,0.214 0.12,0.574 -0.2,1.08 -0.16,0.16 -0.453,0.094 -0.88,-0.199 0.187,0.079 0.387,0.053 0.6,-0.08 0.213,-0.16 0.067,-0.48 -0.44,-0.961 0.187,-0.239 0.307,-0.52 0.36,-0.839 0.027,-0.188 -0.08,-0.334 -0.32,-0.44 l -0.36,-0.08 c 0.32,-0.32 0.453,-0.68 0.4,-1.08 -0.027,-0.24 -0.253,-0.333 -0.68,-0.28 l -0.68,0.16 c 0.106,-0.479 -0.027,-0.88 -0.4,-1.199 -0.213,-0.188 -0.493,-0.268 -0.84,-0.24 l -0.44,0.119 -0.24,-0.52 c -0.107,-0.24 -0.347,-0.4 -0.72,-0.48 l -0.56,-0.079 0.8,-0.24 c 0.561,-0.16 0.934,-0.066 1.12,0.28 l 0.479,0.08 z"
       id="path4668"
       inkscape:connector-curvature="0" /><path
       style="fill:#76b34f;fill-rule:evenodd"
       d="m 17.23,40.819 c -0.213,-0.026 -0.36,-0.16 -0.44,-0.4 -0.107,-0.239 -0.094,-0.439 0.04,-0.6 0.213,-0.373 0.493,-0.319 0.84,0.16 0.134,0.24 0.16,0.439 0.08,0.6 -0.106,0.188 -0.28,0.267 -0.52,0.24 z"
       id="path4670"
       inkscape:connector-curvature="0" /><path
       style="fill:#76b34f;fill-rule:evenodd"
       d="m 17.67,37.14 c 0.4,-0.16 0.693,-0.134 0.88,0.08 l 0.48,0.479 0.32,0.24 c 0.213,0.16 0.307,0.28 0.28,0.36 -0.08,0.16 -0.187,0.293 -0.32,0.399 -0.106,-0.319 -0.28,-0.453 -0.52,-0.399 l -0.32,0.04 c -0.187,-0.187 -0.413,-0.267 -0.68,-0.24 l -0.4,0.08 -0.48,-0.079 -0.36,0.36 c -0.24,-0.027 -0.413,-0.16 -0.52,-0.4 -0.134,-0.267 -0.094,-0.507 0.12,-0.72 0.187,-0.214 0.414,-0.254 0.68,-0.12 0.133,0.054 0.24,0.134 0.32,0.24 0.16,-0.134 0.333,-0.24 0.52,-0.32 z"
       id="path4672"
       inkscape:connector-curvature="0" /><path
       style="fill:#76b34f;fill-rule:evenodd"
       d="m 19.83,42.659 c -0.16,0 -0.333,-0.053 -0.52,-0.16 l -0.24,-0.16 c -0.08,0.214 -0.266,0.254 -0.56,0.121 -0.214,-0.08 -0.4,-0.188 -0.56,-0.32 -0.16,-0.187 -0.174,-0.347 -0.04,-0.48 0.133,-0.106 0.28,-0.146 0.44,-0.12 0.08,0.027 0.146,0.054 0.2,0.08 -0.453,-0.666 -0.52,-1.066 -0.2,-1.2 0.213,-0.08 0.4,-0.066 0.56,0.041 0.08,0.053 0.146,0.119 0.2,0.199 0,-0.133 0.014,-0.24 0.04,-0.32 0.08,-0.213 0.213,-0.239 0.4,-0.079 0.32,0.239 0.387,0.546 0.2,0.92 l 0.2,-0.08 c 0.133,-0.026 0.213,0.054 0.24,0.239 0.053,0.348 -0.027,0.547 -0.24,0.601 0.16,0.452 0.12,0.692 -0.12,0.718 z"
       id="path4674"
       inkscape:connector-curvature="0" /><path
       style="fill:#76b34f;fill-rule:evenodd"
       d="m 21.51,36.979 c 0.24,-0.054 0.479,0.026 0.72,0.24 0.347,0.373 0.48,0.72 0.4,1.04 l 0.56,0.08 c 0.347,0.08 0.493,0.24 0.44,0.479 -0.08,0.24 -0.293,0.387 -0.64,0.44 -0.373,0.053 -0.586,0 -0.64,-0.16 l -0.16,-0.6 c 0.027,-0.347 -0.12,-0.601 -0.44,-0.761 L 20.91,37.3 c -0.027,-0.16 -0.2,-0.24 -0.521,-0.24 l -0.56,-0.04 c 0,-0.16 0.013,-0.32 0.04,-0.48 0.08,-0.293 0.254,-0.399 0.52,-0.319 0.4,0.134 0.68,0.427 0.84,0.88 l 0.281,-0.122 z"
       id="path4676"
       inkscape:connector-curvature="0" /><path
       style="fill:#76b34f;fill-rule:evenodd"
       d="m 21.67,40.339 c -0.187,-0.053 -0.32,-0.159 -0.4,-0.319 -0.107,-0.187 -0.107,-0.333 0,-0.439 0.133,-0.134 0.32,-0.16 0.56,-0.08 0.266,0.08 0.426,0.239 0.48,0.479 0.053,0.293 0.026,0.467 -0.08,0.52 -0.08,0.053 -0.267,-10e-4 -0.56,-0.161 z"
       id="path4678"
       inkscape:connector-curvature="0" /><path
       style="fill:#76b34f;fill-rule:evenodd"
       d="m 21.07,38.979 c -0.187,0 -0.307,-0.16 -0.36,-0.479 -0.053,-0.294 0.053,-0.414 0.32,-0.36 0.293,0.054 0.44,0.214 0.44,0.479 0.027,0.268 -0.107,0.387 -0.4,0.36 z"
       id="path4680"
       inkscape:connector-curvature="0" /><path
       style="fill:#76b34f;fill-rule:evenodd"
       d="m 24.23,40.38 c -0.267,0.159 -0.48,0.133 -0.64,-0.08 -0.16,-0.188 -0.187,-0.36 -0.08,-0.521 0.133,-0.134 0.373,-0.106 0.72,0.08 0.32,0.161 0.32,0.333 0,0.521 z"
       id="path4682"
       inkscape:connector-curvature="0" /><path
       style="fill:#76b34f;fill-rule:evenodd"
       d="m 22.35,42.02 c -0.24,-0.026 -0.32,-0.187 -0.24,-0.48 0.107,-0.267 0.253,-0.386 0.44,-0.359 0.64,0 1.054,-0.067 1.24,-0.2 l 0.16,-0.12 c 0.293,0.479 0.293,0.773 0,0.88 -0.187,0.08 -0.4,0.08 -0.64,0 l -0.28,-0.12 c -0.027,0.318 -0.254,0.452 -0.68,0.399 z"
       id="path4684"
       inkscape:connector-curvature="0" /><path
       style="fill:#76b34f;fill-rule:evenodd"
       d="m 18.91,34.859 c 0.293,0.08 0.426,0.294 0.4,0.641 l 0.24,0.119 c 0.16,0.08 0.187,0.188 0.08,0.32 -0.133,0.24 -0.32,0.214 -0.56,-0.08 -0.106,0.08 -0.266,0.107 -0.48,0.08 l -0.56,-0.24 c -0.107,0.374 -0.334,0.547 -0.68,0.521 -0.187,-0.026 -0.387,-0.134 -0.6,-0.32 -0.24,-0.239 -0.267,-0.453 -0.08,-0.64 0.16,-0.187 0.413,-0.24 0.76,-0.16 0.187,0.054 0.346,0.12 0.48,0.2 0.08,-0.08 0.187,-0.174 0.32,-0.28 0.267,-0.161 0.494,-0.213 0.68,-0.161 z"
       id="path4686"
       inkscape:connector-curvature="0" /><path
       style="fill:#76b34f;fill-rule:evenodd"
       d="m 21.63,33.939 0.36,-0.04 c 0.24,0 0.347,0.067 0.32,0.2 0,0.16 -0.106,0.32 -0.32,0.48 -0.213,0.159 -0.373,0.199 -0.479,0.119 l -0.521,-0.6 c -0.427,0.106 -0.707,0.146 -0.84,0.12 l -0.36,-0.32 c -0.426,0.374 -0.946,0.413 -1.56,0.12 -0.213,-0.08 -0.267,-0.293 -0.16,-0.64 0.107,-0.374 0.36,-0.574 0.76,-0.6 0.64,-0.027 0.973,0.227 1,0.76 l 0.6,-0.24 c 0.4,-0.133 0.68,-0.12 0.84,0.04 0.213,0.242 0.334,0.442 0.36,0.601 z"
       id="path4688"
       inkscape:connector-curvature="0" /><path
       style="fill:#76b34f;fill-rule:evenodd"
       d="m 22.99,32.22 c 0.374,-0.16 0.88,0.133 1.521,0.88 l 0.52,0.12 c 0.4,0.133 0.707,0.347 0.92,0.64 0.24,0.373 0.213,0.613 -0.08,0.72 -0.266,0.133 -0.573,0.026 -0.92,-0.32 l -0.8,-0.92 c -0.106,-0.08 -0.28,-0.146 -0.52,-0.2 -0.347,-0.053 -0.6,-0.187 -0.76,-0.4 -0.188,-0.24 -0.148,-0.414 0.119,-0.52 z"
       id="path4690"
       inkscape:connector-curvature="0" /><path
       style="fill:#76b34f;fill-rule:evenodd"
       d="m 23.55,34.619 c -0.213,-0.08 -0.374,-0.253 -0.48,-0.52 -0.106,-0.24 -0.066,-0.374 0.12,-0.4 0.187,0 0.373,0.093 0.56,0.28 0.16,0.16 0.267,0.307 0.32,0.44 l 0.08,0.279 c -0.054,0.055 -0.254,0.029 -0.6,-0.079 z"
       id="path4692"
       inkscape:connector-curvature="0" /><path
       style="fill:#76b34f;fill-rule:evenodd"
       d="m 26.39,38.1 c -0.24,-0.133 -0.44,-0.28 -0.6,-0.439 -0.186,-0.188 -0.133,-0.294 0.16,-0.32 0.48,-0.027 0.84,0.173 1.08,0.6 l 0.44,-0.04 c 0.267,0 0.36,0.094 0.28,0.28 -0.133,0.507 -0.333,0.68 -0.6,0.52 L 26.79,38.5 c -0.24,0.239 -0.44,0.279 -0.6,0.119 -0.106,-0.106 -0.106,-0.227 0,-0.359 l 0.2,-0.16 z"
       id="path4694"
       inkscape:connector-curvature="0" /><path
       style="fill:#76b34f;fill-rule:evenodd"
       d="m 27.55,35.739 c -0.187,-0.053 -0.347,-0.2 -0.48,-0.439 -0.133,-0.24 -0.066,-0.374 0.2,-0.4 0.32,-0.054 0.613,0.134 0.88,0.561 0.24,0.372 0.039,0.465 -0.6,0.278 z"
       id="path4696"
       inkscape:connector-curvature="0" /><path
       style="fill:#76b34f;fill-rule:evenodd"
       d="m 20.07,32.18 c -0.267,-0.08 -0.453,-0.24 -0.56,-0.48 -0.107,-0.293 0.013,-0.467 0.359,-0.52 0.48,-0.054 0.813,0.08 1,0.4 l 0.6,-0.08 c 0.4,0 0.587,0.146 0.56,0.44 -0.053,0.427 -0.52,0.467 -1.4,0.12 -0.079,0.133 -0.266,0.173 -0.559,0.12 z"
       id="path4698"
       inkscape:connector-curvature="0" /><path
       style="fill:#76b34f;fill-rule:evenodd"
       d="m 23.03,30.819 c -0.373,0 -0.626,-0.12 -0.76,-0.359 -0.133,-0.24 -0.053,-0.414 0.24,-0.521 0.346,-0.08 0.68,0.054 1,0.4 0.32,0.348 0.16,0.507 -0.48,0.48 z"
       id="path4700"
       inkscape:connector-curvature="0" /><path
       style="fill:#76b34f;fill-rule:evenodd"
       d="m 25.19,29.86 c 0.373,0.16 0.586,0.413 0.64,0.76 l 0.4,-0.24 c 0.293,-0.134 0.493,-0.12 0.6,0.04 l 0.24,0.44 0.6,-0.08 c 0.4,0.026 0.613,0.2 0.64,0.52 0.026,0.373 -0.041,0.653 -0.2,0.84 -0.16,0.16 -0.36,0.173 -0.6,0.04 -0.187,-0.106 -0.36,-0.267 -0.52,-0.48 l -0.16,-0.28 c 0,0.24 -0.2,0.293 -0.6,0.16 -0.24,-0.106 -0.414,-0.24 -0.52,-0.4 l -0.08,-0.2 c -0.134,0.053 -0.387,-0.053 -0.76,-0.32 -0.187,-0.133 -0.24,-0.333 -0.16,-0.6 0.053,-0.267 0.213,-0.334 0.48,-0.2 z"
       id="path4702"
       inkscape:connector-curvature="0" /><path
       style="fill:#76b34f;fill-rule:evenodd"
       d="m 28.99,33.339 c -0.24,-0.026 -0.414,-0.213 -0.52,-0.56 -0.106,-0.32 -0.04,-0.467 0.2,-0.44 0.32,0.054 0.586,0.253 0.8,0.6 0.214,0.347 0.053,0.48 -0.48,0.4 z"
       id="path4704"
       inkscape:connector-curvature="0" /><polygon
       style="fill:#eddd82;fill-rule:evenodd"
       points="41.91,26.78 44.109,26.339 45.43,27.82 44.109,29.1 43.51,30.339 41.91,29.54 "
       id="polygon4706" /><path
       style="fill:#bfb05a;fill-rule:evenodd"
       d="m 45.43,27.82 c -2.214,3.84 -3.667,6.933 -4.36,9.28 -0.453,1.52 -0.906,3.84 -1.359,6.96 -0.32,2.24 -0.547,4.133 -0.681,5.68 l -0.24,3.2 -0.8,0.76 -0.359,-0.721 c 0.187,-2.559 0.399,-5.146 0.64,-7.759 0.427,-5.2 0.707,-7.866 0.84,-8 0.214,-0.214 0.947,-1.88 2.2,-5 l 1.08,-3.12 3.039,-1.28 z"
       id="path4708"
       inkscape:connector-curvature="0" /><path
       style="fill:#e3d276;fill-rule:evenodd"
       d="m 40.789,29.62 c 0.454,-1.28 0.827,-2.227 1.121,-2.84 l 1.68,1.84 c -1.493,2.667 -2.561,5.333 -3.2,8 -0.827,3.44 -1.467,7.32 -1.92,11.641 -0.24,2.16 -0.4,3.973 -0.48,5.439 l -1.079,-0.16 c 0,-1.146 0.053,-2.626 0.159,-4.439 0.267,-3.653 0.72,-7.134 1.36,-10.439 0.693,-3.442 1.48,-6.456 2.359,-9.042 z"
       id="path4710"
       inkscape:connector-curvature="0" /><path
       style="fill:#e7f77e;fill-rule:evenodd"
       d="m 37.51,23.14 c 0.053,5.547 0.187,9.72 0.4,12.521 0.213,2.8 0.227,8.692 0.039,17.679 l -0.76,0.32 -0.72,-0.96 -2.079,-27.44 1.24,-2.4 1.88,0.28 z"
       id="path4712"
       inkscape:connector-curvature="0" /><path
       style="fill:#94c908;fill-rule:evenodd"
       d="m 37.149,40.1 c 0.187,3.387 0.28,7.866 0.28,13.439 l -0.24,0.12 -0.72,-0.96 -1.44,-28.68 0.601,-1.16 0.319,0.08 1.2,17.161 z"
       id="path4714"
       inkscape:connector-curvature="0" /><linearGradient
       id="linearGradient4621"
       gradientUnits="userSpaceOnUse"
       x1="-43.002899"
       y1="23.044901"
       x2="-5.1012001"
       y2="23.044901"
       gradientTransform="matrix(-0.0586,-0.7978,0.7978,-0.0586,15.7501,20.2986)"><stop
         offset="0"
         style="stop-color:#5C962F"
         id="stop4623" /><stop
         offset="0.5333"
         style="stop-color:#5F942C"
         id="stop4625" /><stop
         offset="0.8667"
         style="stop-color:#678E24"
         id="stop4627" /><stop
         offset="1"
         style="stop-color:#6D8A1E"
         id="stop4629" /></linearGradient><path
       style="fill:url(#SVGID_4_-6);fill-rule:evenodd"
       d="m 34.51,23.14 c 0.613,-0.213 0.986,-0.307 1.12,-0.28 0.56,7.6 0.933,12.973 1.12,16.12 0.187,2.826 0.333,7.72 0.439,14.68 -0.08,-0.053 -0.32,-0.106 -0.72,-0.16 -0.24,-0.026 -0.427,-0.053 -0.56,-0.079 l -0.08,-0.081 c 0.026,-5.387 -0.294,-11.506 -0.961,-18.359 -0.399,-3.84 -0.933,-7.64 -1.6,-11.4 L 34.51,23.14 z"
       id="path4725"
       inkscape:connector-curvature="0" /><path
       style="fill:#e7f77e;fill-rule:evenodd"
       d="m 38.55,29.46 1.56,-0.121 0.84,2.08 -3.199,22.8 -0.641,0.759 -0.64,-0.279 c 0.399,-7.52 0.76,-12.453 1.08,-14.8 0.319,-2.319 0.653,-5.799 1,-10.439 z"
       id="path4727"
       inkscape:connector-curvature="0" /><path
       style="fill:#94c908;fill-rule:evenodd"
       d="m 37.91,43.659 c 1.119,-8.267 1.76,-13.026 1.92,-14.279 l 0.279,-0.041 0.4,1 -2.76,23.88 -0.641,0.759 -0.199,-0.079 c 0.214,-3.653 0.547,-7.4 1.001,-11.24 z"
       id="path4729"
       inkscape:connector-curvature="0" /><linearGradient
       id="linearGradient4634"
       gradientUnits="userSpaceOnUse"
       x1="29.6621"
       y1="11.9868"
       x2="29.783701"
       y2="42.5117"
       gradientTransform="matrix(0.8,0,0,0.8,15.75,20.2999)"><stop
         offset="0"
         style="stop-color:#5C962F"
         id="stop4636" /><stop
         offset="0.5333"
         style="stop-color:#5F942C"
         id="stop4638" /><stop
         offset="0.8667"
         style="stop-color:#678E24"
         id="stop4640" /><stop
         offset="1"
         style="stop-color:#6D8A1E"
         id="stop4642" /></linearGradient><path
       style="fill:url(#SVGID_5_-3);fill-rule:evenodd"
       d="m 40.109,29.339 0.88,0.28 0.96,0.44 c -0.746,3.12 -1.387,6.267 -1.92,9.44 -0.934,5.706 -1.533,10.813 -1.8,15.319 -0.026,0.054 -0.213,0.08 -0.56,0.08 l -0.561,0.079 c 0.453,-5.786 0.84,-9.866 1.16,-12.239 l 1.841,-13.399 z"
       id="path4740"
       inkscape:connector-curvature="0" /><path
       style="fill:#f7aa36;fill-rule:evenodd"
       d="m 29.189,29.3 1.6,-0.36 1.321,1.88 0.92,23.4 -0.521,0.84 -0.72,-0.16 C 30.776,47.3 30.216,42.313 30.109,39.94 30.03,37.566 29.723,34.02 29.189,29.3 z"
       id="path4742"
       inkscape:connector-curvature="0" /><path
       style="fill:#f09308;fill-rule:evenodd"
       d="M 31.189,43.619 30.55,28.98 l 0.24,-0.041 0.64,0.92 1.601,24.36 -0.521,0.84 -0.24,-0.04 c -0.56,-4.933 -0.92,-8.733 -1.081,-11.4 z"
       id="path4744"
       inkscape:connector-curvature="0" /><path
       style="fill:#d4850f;fill-rule:evenodd"
       d="m 30.79,28.939 2.121,0.36 c -0.214,3.253 -0.294,6.52 -0.24,9.8 0.08,5.84 0.399,11.04 0.96,15.6 0,0.053 -0.174,0.12 -0.52,0.2 l -0.601,0.16 C 31.896,49.192 31.537,45.045 31.43,42.619 l -0.64,-13.68 z"
       id="path4746"
       inkscape:connector-curvature="0" /><g
       id="g4748"><path
         style="fill:#bf7506;fill-rule:evenodd"
         d="m 33.03,47.699 0.239,3.08 -1.159,0.44 -0.28,-3.119 c 0.613,-0.187 1.013,-0.321 1.2,-0.401 z"
         id="path4750"
         inkscape:connector-curvature="0" /><path
         style="fill:#bf7506;fill-rule:evenodd"
         d="m 31.55,44.539 -0.16,-2.56 c 0.48,-0.134 0.92,-0.307 1.32,-0.52 l 0.12,2.6 c -0.693,0.267 -1.12,0.427 -1.28,0.48 z"
         id="path4752"
         inkscape:connector-curvature="0" /><path
         style="fill:#bf7506;fill-rule:evenodd"
         d="m 30.87,30.54 c 0.827,0.106 1.48,0.227 1.96,0.36 l -0.12,2.64 -1.72,-0.28 -0.12,-2.72 z"
         id="path4754"
         inkscape:connector-curvature="0" /><polygon
         style="fill:#bf7506;fill-rule:evenodd"
         points="32.67,38.619 31.23,38.859 31.15,36.699 32.67,36.699 "
         id="polygon4756" /></g><path
       style="fill:#f7aa36;fill-rule:evenodd"
       d="m 33.79,26.339 1.999,-0.279 1.36,2.2 -2.04,25.96 -0.76,0.919 -0.88,-0.279 c -0.213,-8.479 -0.213,-14.04 0,-16.68 0.187,-2.641 0.294,-6.587 0.321,-11.841 z"
       id="path4758"
       inkscape:connector-curvature="0" /><path
       style="fill:#f09308;fill-rule:evenodd"
       d="m 34.31,42.339 c 0.107,-1.68 0.494,-7.093 1.16,-16.239 l 0.319,-0.04 0.681,1.04 -1.36,27.16 -0.76,0.879 -0.28,-0.079 c -10e-4,-5.734 0.079,-9.974 0.24,-12.721 z"
       id="path4760"
       inkscape:connector-curvature="0" /><path
       style="fill:#d4850f;fill-rule:evenodd"
       d="m 36.029,26.06 c 0.24,0.026 0.574,0.093 1,0.2 l 1.32,0.4 c -0.693,3.573 -1.24,7.173 -1.64,10.8 -0.693,6.506 -1,12.293 -0.921,17.359 -0.026,0.08 -0.253,0.146 -0.68,0.2 l -0.76,0.119 c 0.054,-6.56 0.174,-11.186 0.36,-13.879 l 1.079,-15.2 h 0.242 z"
       id="path4762"
       inkscape:connector-curvature="0" /><g
       id="g4764"><path
         style="fill:#bf7506;fill-rule:evenodd"
         d="m 35.989,47.02 -0.12,3.44 -1.479,0.399 0.08,-3.521 c 0.747,-0.132 1.253,-0.238 1.519,-0.318 z"
         id="path4766"
         inkscape:connector-curvature="0" /><path
         style="fill:#bf7506;fill-rule:evenodd"
         d="m 34.75,40.539 c 0.666,-0.106 1.239,-0.253 1.72,-0.439 l -0.24,2.88 c -0.587,0.187 -1.134,0.32 -1.64,0.4 0.054,-1.307 0.093,-2.014 0.12,-2.12 l 0.04,-0.721 z"
         id="path4768"
         inkscape:connector-curvature="0" /><path
         style="fill:#bf7506;fill-rule:evenodd"
         d="m 35.67,27.86 c 0.934,0.16 1.72,0.347 2.359,0.56 l -0.479,2.92 -2.12,-0.479 0.24,-3.001 z"
         id="path4770"
         inkscape:connector-curvature="0" /><polygon
         style="fill:#bf7506;fill-rule:evenodd"
         points="36.789,36.939 34.989,37.1 35.149,34.66 37.029,34.819 "
         id="polygon4772" /></g><polygon
       style="fill:#eddd82;fill-rule:evenodd"
       points="47.029,35.14 46.39,36.1 44.829,35.38 44.989,33.18 47.189,32.939 48.429,34.14 "
       id="polygon4774" /><path
       style="fill:#bfb05a;fill-rule:evenodd"
       d="m 45.31,35.06 3.119,-0.92 c -2.399,3.014 -4.013,5.453 -4.839,7.32 -0.533,1.199 -1.094,3.039 -1.68,5.52 -0.48,1.92 -0.814,3.44 -1,4.56 l -0.44,2.521 -0.8,0.6 -0.32,-0.6 c 0.32,-2.053 0.667,-4.12 1.04,-6.2 0.693,-4.16 1.106,-6.293 1.239,-6.399 0.214,-0.16 1.041,-1.48 2.48,-3.96 L 45.31,35.06 z"
       id="path4776"
       inkscape:connector-curvature="0" /><path
       style="fill:#e3d276;fill-rule:evenodd"
       d="m 44.989,33.18 1.561,1.56 c -1.627,2.08 -2.827,4.174 -3.601,6.28 -0.986,2.747 -1.826,5.84 -2.52,9.28 -0.347,1.733 -0.6,3.187 -0.76,4.359 l -1.08,-0.16 c 0.053,-0.934 0.187,-2.12 0.399,-3.56 0.454,-2.933 1.094,-5.72 1.921,-8.36 0.853,-2.72 1.786,-5.106 2.8,-7.159 0.507,-1.014 0.934,-1.76 1.28,-2.24 z"
       id="path4778"
       inkscape:connector-curvature="0" /><path
       style="fill:#ffffff;fill-rule:evenodd"
       d="m 38.869,54.659 0.721,0.12 c 0.24,-0.054 0.413,-0.12 0.52,-0.2 -0.08,0.213 -0.267,0.32 -0.56,0.32 -0.187,0 -0.36,-0.04 -0.521,-0.12 l -0.16,-0.12 z"
       id="path4780"
       inkscape:connector-curvature="0" /><path
       style="fill:#ffffff;fill-rule:evenodd"
       d="m 36.59,54.899 0.64,0.2 h 0.64 c -0.373,0.16 -0.64,0.199 -0.8,0.12 l -0.48,-0.32 z"
       id="path4782"
       inkscape:connector-curvature="0" /><path
       style="fill:#ffffff;fill-rule:evenodd"
       d="m 34.43,55.26 c -0.317,0.035 -0.57,0.022 -0.76,-0.04 l -0.36,-0.12 -0.76,0.199 c -0.106,0.027 -0.307,-0.026 -0.6,-0.16 l -0.36,-0.16 0.56,0.2 c 0.294,0 0.521,-0.026 0.681,-0.079 l 0.52,-0.121 0.8,0.241 c 0.094,0.027 0.188,0.04 0.279,0.04 z"
       id="path4784"
       inkscape:connector-curvature="0" /><path
       style="fill:#ffffff;fill-rule:evenodd"
       d="m 29.83,53.979 0.72,-0.239 c 0,0.16 -0.267,0.253 -0.8,0.28 l -1.24,-0.16 0.2,-0.12 1.12,0.239 z"
       id="path4786"
       inkscape:connector-curvature="0" /><path
       style="fill:#ffffff;fill-rule:evenodd"
       d="m 26.35,45.06 1.561,0.32 0.92,6.72 c 0.613,4.8 0.88,7.92 0.8,9.359 -0.135,2.507 -1.228,-2.96 -3.281,-16.399 z"
       id="path4788"
       inkscape:connector-curvature="0" /><use
       xlink:href="#flash0.ai_x5F_1_x2F_Layer_8_copy_x2F__x3C_Path_x3E__x5F_1"
       width="24.9"
       height="26.584999"
       y="-26.584999"
       transform="matrix(0.8,0,0,-0.8,36.59891,27.710199)"
       style="opacity:0.35940001;overflow:visible;enable-background:new"
       id="use4790"
       x="0" /><path
       style="fill:#ccf6ff;fill-rule:evenodd"
       d="m 28.51,46.14 c -1.707,-0.32 -2.973,-0.747 -3.8,-1.28 l 3.32,17.561 V 62.5 c 0,0.534 0.6,0.974 1.8,1.32 1.2,0.373 2.653,0.56 4.359,0.56 1.707,0 3.16,-0.187 4.36,-0.56 1.2,-0.347 1.8,-0.786 1.8,-1.32 v -0.08 l 3.279,-17.4 c -1.945,1.093 -5.053,1.64 -9.319,1.64 -2.106,-10e-4 -4.039,-0.174 -5.799,-0.52 z m -4.72,-2.521 v -0.08 h 0.041 V 43.46 h 1.88 c 0,0.586 0.853,1.093 2.56,1.52 1.707,0.427 3.761,0.64 6.16,0.64 2.4,0 4.453,-0.213 6.16,-0.64 1.707,-0.427 2.56,-0.934 2.56,-1.52 h 1.64 v 0.079 h 0.04 l -3.8,21.16 v 0.08 c 0,0.56 -0.653,1.04 -1.96,1.44 -1.307,0.399 -2.894,0.6 -4.76,0.6 -1.866,0 -3.453,-0.2 -4.76,-0.6 -1.307,-0.4 -1.96,-0.881 -1.96,-1.44 v -0.08 l -3.76,-20.92 -0.041,-0.16 z"
       id="path4792"
       inkscape:connector-curvature="0" /><path
       style="fill:#ffffff;fill-rule:evenodd"
       d="m 40.069,63.179 c 0.427,0.347 0.521,0.827 0.28,1.44 -0.267,0.613 -0.773,1.04 -1.52,1.28 -1.44,0.426 -3.4,0.613 -5.88,0.56 -1.974,-0.053 -3.333,-0.48 -4.081,-1.28 -0.4,-0.453 -0.573,-0.853 -0.52,-1.2 0.107,-0.426 0.68,-0.453 1.72,-0.079 1.093,0.32 2.466,0.479 4.12,0.479 1.307,0 2.48,-0.106 3.521,-0.319 1.013,-0.214 1.746,-0.507 2.2,-0.881 h 0.16 z"
       id="path4794"
       inkscape:connector-curvature="0" /></g></svg>