<?xml version="1.0" encoding="UTF-8" standalone="no"?>
<!-- Generator: Adobe Illustrator 15.1.0, SVG Export Plug-In . SVG Version: 6.00 Build 0)  -->

<svg
   xmlns:dc="http://purl.org/dc/elements/1.1/"
   xmlns:cc="http://creativecommons.org/ns#"
   xmlns:rdf="http://www.w3.org/1999/02/22-rdf-syntax-ns#"
   xmlns:svg="http://www.w3.org/2000/svg"
   xmlns="http://www.w3.org/2000/svg"
   xmlns:xlink="http://www.w3.org/1999/xlink"
   xmlns:sodipodi="http://sodipodi.sourceforge.net/DTD/sodipodi-0.dtd"
   xmlns:inkscape="http://www.inkscape.org/namespaces/inkscape"
   version="1.1"
   x="0px"
   y="0px"
   width="71.700996"
   height="67.192863"
   viewBox="0 0 71.700996 67.192863"
   xml:space="preserve"
   id="svg4035"
   inkscape:version="0.48.5 r10040"
   sodipodi:docname="grain.svg"><metadata
     id="metadata4236"><rdf:RDF><cc:Work
         rdf:about=""><dc:format>image/svg+xml</dc:format><dc:type
           rdf:resource="http://purl.org/dc/dcmitype/StillImage" /></cc:Work></rdf:RDF></metadata><defs
     id="defs4234"><linearGradient
       y2="14.2999"
       x2="39.996498"
       y1="29.2749"
       x1="39.916"
       gradientUnits="userSpaceOnUse"
       id="SVGID_11_"><stop
         id="stop4139"
         style="stop-color:#C9AFCB"
         offset="0" /><stop
         id="stop4141"
         style="stop-color:#877AAD"
         offset="1" /></linearGradient><linearGradient
       gradientTransform="matrix(4.269773e-4,-1,1,4.269773e-4,1.993097e-4,-5.889416e-5)"
       y2="39.826199"
       x2="-55.789902"
       y1="39.826199"
       x1="-90.314903"
       gradientUnits="userSpaceOnUse"
       id="SVGID_12_"><stop
         id="stop4146"
         style="stop-color:#95899B"
         offset="0" /><stop
         id="stop4148"
         style="stop-color:#6A657A"
         offset="0.9922" /></linearGradient><linearGradient
       gradientTransform="matrix(0.0272,0.9996,-0.9996,0.0272,-4.018862e-4,1.658965e-4)"
       y2="-37.297901"
       x2="92.683601"
       y1="-37.297901"
       x1="7.5005002"
       gradientUnits="userSpaceOnUse"
       id="SVGID_13_"><stop
         id="stop4153"
         style="stop-color:#B49AAE"
         offset="0" /><stop
         id="stop4155"
         style="stop-color:#6C608F"
         offset="1" /></linearGradient><linearGradient
       gradientTransform="matrix(0.3145,0.9493,-0.9553,0.2962,4.049242e-4,-2.265871e-4)"
       y2="-19.1763"
       x2="85.456703"
       y1="-19.1763"
       x1="41.500999"
       gradientUnits="userSpaceOnUse"
       id="SVGID_14_"><stop
         id="stop4160"
         style="stop-color:#302614"
         offset="0" /><stop
         id="stop4162"
         style="stop-color:#271900"
         offset="1" /></linearGradient><linearGradient
       y2="38.8349"
       x2="39.593498"
       y1="82.539101"
       x1="41.8652"
       gradientUnits="userSpaceOnUse"
       id="SVGID_15_"><stop
         id="stop4167"
         style="stop-color:#4F473B"
         offset="0" /><stop
         id="stop4169"
         style="stop-color:#32250F"
         offset="1" /></linearGradient><linearGradient
       gradientTransform="matrix(0.943,0.3329,-0.3526,0.936,0,2.54184e-4)"
       y2="44.149399"
       x2="10.2585"
       y1="44.149399"
       x1="-71.372597"
       gradientUnits="userSpaceOnUse"
       id="SVGID_16_"><stop
         id="stop4174"
         style="stop-color:#F6E5CB"
         offset="0.0196" /><stop
         id="stop4176"
         style="stop-color:#877AAD"
         offset="1" /></linearGradient><linearGradient
       gradientTransform="matrix(0.3153,0.949,-0.9547,0.2982,-1.695454e-4,2.525151e-4)"
       y2="-18.3022"
       x2="62.8092"
       y1="-18.3022"
       x1="30.696301"
       gradientUnits="userSpaceOnUse"
       id="SVGID_17_"><stop
         id="stop4181"
         style="stop-color:#FFE3B9"
         offset="0" /><stop
         id="stop4183"
         style="stop-color:#ACA0CF"
         offset="1" /></linearGradient><linearGradient
       gradientTransform="matrix(0.4566,0.8897,-0.9015,0.4336,3.085434e-4,5.483031e-4)"
       y2="-8.4951"
       x2="104.7073"
       y1="-8.4951"
       x1="31.002399"
       gradientUnits="userSpaceOnUse"
       id="SVGID_18_"><stop
         id="stop4188"
         style="stop-color:#C3B195"
         offset="0.0039" /><stop
         id="stop4190"
         style="stop-color:#463B68"
         offset="1" /></linearGradient><linearGradient
       gradientTransform="matrix(0.3153,0.949,-0.9547,0.2982,-1.695454e-4,2.525151e-4)"
       y2="-19.9907"
       x2="62.8092"
       y1="-19.9907"
       x1="30.696301"
       gradientUnits="userSpaceOnUse"
       id="SVGID_19_"><stop
         id="stop4195"
         style="stop-color:#C3B195"
         offset="0.0039" /><stop
         id="stop4197"
         style="stop-color:#463B68"
         offset="1" /></linearGradient><linearGradient
       gradientTransform="matrix(0.9993,0.0381,-0.0381,0.9993,1.431704e-4,-1.916885e-4)"
       y2="32.492199"
       x2="245.3979"
       y1="32.492199"
       x1="-54.5835"
       gradientUnits="userSpaceOnUse"
       id="SVGID_20_"><stop
         id="stop4202"
         style="stop-color:#E8D4E9"
         offset="0" /><stop
         id="stop4204"
         style="stop-color:#9B8EBF"
         offset="1" /></linearGradient><linearGradient
       inkscape:collect="always"
       xlink:href="#SVGID_20_"
       id="linearGradient4560"
       gradientUnits="userSpaceOnUse"
       gradientTransform="matrix(0.9993,0.0381,-0.0381,0.9993,1.431704e-4,-1.916885e-4)"
       x1="-54.5835"
       y1="32.492199"
       x2="245.3979"
       y2="32.492199" /><linearGradient
       inkscape:collect="always"
       xlink:href="#SVGID_19_"
       id="linearGradient4563"
       gradientUnits="userSpaceOnUse"
       gradientTransform="matrix(0.3153,0.949,-0.9547,0.2982,-1.695454e-4,2.525151e-4)"
       x1="30.696301"
       y1="-19.9907"
       x2="62.8092"
       y2="-19.9907" /><linearGradient
       inkscape:collect="always"
       xlink:href="#SVGID_18_"
       id="linearGradient4566"
       gradientUnits="userSpaceOnUse"
       gradientTransform="matrix(0.4566,0.8897,-0.9015,0.4336,3.085434e-4,5.483031e-4)"
       x1="31.002399"
       y1="-8.4951"
       x2="104.7073"
       y2="-8.4951" /><linearGradient
       inkscape:collect="always"
       xlink:href="#SVGID_17_"
       id="linearGradient4569"
       gradientUnits="userSpaceOnUse"
       gradientTransform="matrix(0.3153,0.949,-0.9547,0.2982,-1.695454e-4,2.525151e-4)"
       x1="30.696301"
       y1="-18.3022"
       x2="62.8092"
       y2="-18.3022" /><linearGradient
       inkscape:collect="always"
       xlink:href="#SVGID_16_"
       id="linearGradient4572"
       gradientUnits="userSpaceOnUse"
       gradientTransform="matrix(0.943,0.3329,-0.3526,0.936,0,2.54184e-4)"
       x1="-71.372597"
       y1="44.149399"
       x2="10.2585"
       y2="44.149399" /><linearGradient
       inkscape:collect="always"
       xlink:href="#SVGID_15_"
       id="linearGradient4575"
       gradientUnits="userSpaceOnUse"
       x1="41.8652"
       y1="82.539101"
       x2="39.593498"
       y2="38.8349" /><linearGradient
       inkscape:collect="always"
       xlink:href="#SVGID_14_"
       id="linearGradient4578"
       gradientUnits="userSpaceOnUse"
       gradientTransform="matrix(0.3145,0.9493,-0.9553,0.2962,4.049242e-4,-2.265871e-4)"
       x1="41.500999"
       y1="-19.1763"
       x2="85.456703"
       y2="-19.1763" /><linearGradient
       inkscape:collect="always"
       xlink:href="#SVGID_13_"
       id="linearGradient4581"
       gradientUnits="userSpaceOnUse"
       gradientTransform="matrix(0.0272,0.9996,-0.9996,0.0272,-4.018862e-4,1.658965e-4)"
       x1="7.5005002"
       y1="-37.297901"
       x2="92.683601"
       y2="-37.297901" /><linearGradient
       inkscape:collect="always"
       xlink:href="#SVGID_12_"
       id="linearGradient4584"
       gradientUnits="userSpaceOnUse"
       gradientTransform="matrix(4.269773e-4,-1,1,4.269773e-4,1.993097e-4,-5.889416e-5)"
       x1="-90.314903"
       y1="39.826199"
       x2="-55.789902"
       y2="39.826199" /><linearGradient
       inkscape:collect="always"
       xlink:href="#SVGID_11_"
       id="linearGradient4587"
       gradientUnits="userSpaceOnUse"
       x1="39.916"
       y1="29.2749"
       x2="39.996498"
       y2="14.2999" /><linearGradient
       id="SVGID_8_"
       gradientUnits="userSpaceOnUse"
       x1="-44.054199"
       y1="44.220699"
       x2="-28.9368"
       y2="44.220699"
       gradientTransform="matrix(0.6929,-0.721,0.7807,0.6309,-3.208518e-4,-2.452135e-4)"><stop
         offset="0.0039"
         style="stop-color:#A57939"
         id="stop4116" /><stop
         offset="1"
         style="stop-color:#1B1A5D"
         id="stop4118" /></linearGradient><linearGradient
       id="SVGID_9_"
       gradientUnits="userSpaceOnUse"
       x1="3.1747999"
       y1="51.825199"
       x2="10.4248"
       y2="51.825199"><stop
         offset="0.0078"
         style="stop-color:#F0CFA1"
         id="stop4123" /><stop
         offset="1"
         style="stop-color:#5F76AE"
         id="stop4125" /></linearGradient><linearGradient
       id="SVGID_10_"
       gradientUnits="userSpaceOnUse"
       x1="-44.054199"
       y1="43.056599"
       x2="-28.9368"
       y2="43.056599"
       gradientTransform="matrix(0.6929,-0.721,0.7807,0.6309,-3.208518e-4,-2.452135e-4)"><stop
         offset="0.0039"
         style="stop-color:#BA8B48"
         id="stop4130" /><stop
         offset="1"
         style="stop-color:#363578"
         id="stop4132" /></linearGradient><linearGradient
       inkscape:collect="always"
       xlink:href="#SVGID_10_"
       id="linearGradient4673"
       gradientUnits="userSpaceOnUse"
       gradientTransform="matrix(0.6929,-0.721,0.7807,0.6309,-3.208518e-4,-2.452135e-4)"
       x1="-44.054199"
       y1="43.056599"
       x2="-28.9368"
       y2="43.056599" /><linearGradient
       inkscape:collect="always"
       xlink:href="#SVGID_9_"
       id="linearGradient4676"
       gradientUnits="userSpaceOnUse"
       x1="3.1747999"
       y1="51.825199"
       x2="10.4248"
       y2="51.825199" /><linearGradient
       inkscape:collect="always"
       xlink:href="#SVGID_8_"
       id="linearGradient4679"
       gradientUnits="userSpaceOnUse"
       gradientTransform="matrix(0.6929,-0.721,0.7807,0.6309,-3.208518e-4,-2.452135e-4)"
       x1="-44.054199"
       y1="44.220699"
       x2="-28.9368"
       y2="44.220699" /><linearGradient
       id="SVGID_6_"
       gradientUnits="userSpaceOnUse"
       x1="6.0913"
       y1="88.929703"
       x2="15.9807"
       y2="88.929703"
       gradientTransform="matrix(0.9884,-0.1517,0.1105,0.9947,7.137656e-5,2.766252e-4)"><stop
         offset="0.0039"
         style="stop-color:#C3B195"
         id="stop4100" /><stop
         offset="1"
         style="stop-color:#463B68"
         id="stop4102" /></linearGradient><linearGradient
       id="SVGID_7_"
       gradientUnits="userSpaceOnUse"
       x1="8.5576"
       y1="89.568398"
       x2="16.1453"
       y2="89.568398"
       gradientTransform="matrix(0.9884,-0.1516,0.1105,0.9947,3.806055e-4,-2.24188e-4)"><stop
         offset="0.0078"
         style="stop-color:#EFD5AD"
         id="stop4107" /><stop
         offset="1"
         style="stop-color:#6C608F"
         id="stop4109" /></linearGradient><linearGradient
       inkscape:collect="always"
       xlink:href="#SVGID_7_"
       id="linearGradient4692"
       gradientUnits="userSpaceOnUse"
       gradientTransform="matrix(0.9884,-0.1516,0.1105,0.9947,3.806055e-4,-2.24188e-4)"
       x1="8.5576"
       y1="89.568398"
       x2="16.1453"
       y2="89.568398" /><linearGradient
       inkscape:collect="always"
       xlink:href="#SVGID_6_"
       id="linearGradient4695"
       gradientUnits="userSpaceOnUse"
       gradientTransform="matrix(0.9884,-0.1517,0.1105,0.9947,7.137656e-5,2.766252e-4)"
       x1="6.0913"
       y1="88.929703"
       x2="15.9807"
       y2="88.929703" /><linearGradient
       id="SVGID_1_"
       gradientUnits="userSpaceOnUse"
       x1="30.545401"
       y1="94.467796"
       x2="40.335999"
       y2="94.467796"
       gradientTransform="matrix(0.9882,-0.1532,0.1777,0.9844,-1.354814e-4,-4.558265e-5)"><stop
         offset="0.0039"
         style="stop-color:#C3B195"
         id="stop4059" /><stop
         offset="1"
         style="stop-color:#463B68"
         id="stop4061" /></linearGradient><linearGradient
       id="SVGID_2_"
       gradientUnits="userSpaceOnUse"
       x1="32.950199"
       y1="95.095703"
       x2="40.463699"
       y2="95.095703"
       gradientTransform="matrix(0.9882,-0.1531,0.1777,0.9844,-4.651994e-4,1.265407e-4)"><stop
         offset="0.0078"
         style="stop-color:#EFD5AD"
         id="stop4066" /><stop
         offset="1"
         style="stop-color:#6C608F"
         id="stop4068" /></linearGradient><linearGradient
       inkscape:collect="always"
       xlink:href="#SVGID_2_"
       id="linearGradient4727"
       gradientUnits="userSpaceOnUse"
       gradientTransform="matrix(0.9882,-0.1531,0.1777,0.9844,-4.651994e-4,1.265407e-4)"
       x1="32.950199"
       y1="95.095703"
       x2="40.463699"
       y2="95.095703" /><linearGradient
       inkscape:collect="always"
       xlink:href="#SVGID_1_"
       id="linearGradient4730"
       gradientUnits="userSpaceOnUse"
       gradientTransform="matrix(0.9882,-0.1532,0.1777,0.9844,-1.354814e-4,-4.558265e-5)"
       x1="30.545401"
       y1="94.467796"
       x2="40.335999"
       y2="94.467796" /><linearGradient
       id="SVGID_22_"
       gradientUnits="userSpaceOnUse"
       x1="737.84277"
       y1="-3088.1978"
       x2="740.79797"
       y2="-3088.1978"
       gradientTransform="matrix(0.1228,1.421,2.0694,-0.0843,6322.5981,-1274.9008)"><stop
         offset="0"
         style="stop-color:#5F4E29"
         id="stop4224" /><stop
         offset="0.8588"
         style="stop-color:#271D09"
         id="stop4226" /></linearGradient><linearGradient
       inkscape:collect="always"
       xlink:href="#SVGID_22_"
       id="linearGradient4738"
       gradientUnits="userSpaceOnUse"
       gradientTransform="matrix(0.1228,1.421,2.0694,-0.0843,6322.5981,-1274.9008)"
       x1="737.84277"
       y1="-3088.1978"
       x2="740.79797"
       y2="-3088.1978" /><linearGradient
       id="SVGID_21_"
       gradientUnits="userSpaceOnUse"
       x1="6.8256998"
       y1="-124.2681"
       x2="11.1918"
       y2="-124.2681"
       gradientTransform="matrix(-0.0859,0.9644,-1.0002,-0.0395,-67.6497,22.5499)"><stop
         offset="0"
         style="stop-color:#5F4E29"
         id="stop4213" /><stop
         offset="0.8588"
         style="stop-color:#271D09"
         id="stop4215" /></linearGradient><linearGradient
       inkscape:collect="always"
       xlink:href="#SVGID_21_"
       id="linearGradient4747"
       gradientUnits="userSpaceOnUse"
       gradientTransform="matrix(-0.0859,0.9644,-1.0002,-0.0395,-67.6497,22.5499)"
       x1="6.8256998"
       y1="-124.2681"
       x2="11.1918"
       y2="-124.2681" /><linearGradient
       gradientTransform="scale(-1,-1)"
       y2="-51.174801"
       x2="-68.674797"
       y1="-51.174801"
       x1="-75.924797"
       gradientUnits="userSpaceOnUse"
       id="SVGID_3_"><stop
         id="stop4077"
         style="stop-color:#F0CFA1"
         offset="0.0078" /><stop
         id="stop4079"
         style="stop-color:#5F76AE"
         offset="1" /></linearGradient><linearGradient
       gradientTransform="matrix(-0.6929,-0.721,0.7807,-0.6309,-1.820922e-4,8.38995e-4)"
       y2="14.4277"
       x2="-78.330803"
       y1="14.4277"
       x1="-93.448196"
       gradientUnits="userSpaceOnUse"
       id="SVGID_4_"><stop
         id="stop4084"
         style="stop-color:#BA8B48"
         offset="0.0039" /><stop
         id="stop4086"
         style="stop-color:#363578"
         offset="1" /></linearGradient><linearGradient
       gradientTransform="matrix(-0.6929,-0.721,0.7807,-0.6309,-1.820922e-4,8.38995e-4)"
       y2="13.2642"
       x2="-78.330803"
       y1="13.2642"
       x1="-93.448196"
       gradientUnits="userSpaceOnUse"
       id="SVGID_5_"><stop
         id="stop4091"
         style="stop-color:#A57939"
         offset="0.0039" /><stop
         id="stop4093"
         style="stop-color:#1B1A5D"
         offset="1" /></linearGradient><linearGradient
       inkscape:collect="always"
       xlink:href="#SVGID_5_"
       id="linearGradient4766"
       gradientUnits="userSpaceOnUse"
       gradientTransform="matrix(-0.6929,-0.721,0.7807,-0.6309,-1.820922e-4,8.38995e-4)"
       x1="-93.448196"
       y1="13.2642"
       x2="-78.330803"
       y2="13.2642" /><linearGradient
       inkscape:collect="always"
       xlink:href="#SVGID_4_"
       id="linearGradient4769"
       gradientUnits="userSpaceOnUse"
       gradientTransform="matrix(-0.6929,-0.721,0.7807,-0.6309,-1.820922e-4,8.38995e-4)"
       x1="-93.448196"
       y1="14.4277"
       x2="-78.330803"
       y2="14.4277" /><linearGradient
       inkscape:collect="always"
       xlink:href="#SVGID_3_"
       id="linearGradient4772"
       gradientUnits="userSpaceOnUse"
       gradientTransform="scale(-1,-1)"
       x1="-75.924797"
       y1="-51.174801"
       x2="-68.674797"
       y2="-51.174801" /></defs><sodipodi:namedview
     pagecolor="#ffffff"
     bordercolor="#666666"
     borderopacity="1"
     objecttolerance="10"
     gridtolerance="10"
     guidetolerance="10"
     inkscape:pageopacity="0"
     inkscape:pageshadow="2"
     inkscape:window-width="530"
     inkscape:window-height="422"
     id="namedview4232"
     showgrid="false"
     fit-margin-top="0"
     fit-margin-left="0"
     fit-margin-right="0"
     fit-margin-bottom="0"
     inkscape:zoom="3.8808651"
     inkscape:cx="27.603286"
     inkscape:cy="33.125492"
     inkscape:window-x="828"
     inkscape:window-y="177"
     inkscape:window-maximized="0"
     inkscape:current-layer="svg4035" /><symbol
     id="price_x5F_tag_x5F_pt_x5F_mc_1_"
     transform="translate(124.57119,-5.050847)"><g
       id="Layer_1_4_" /></symbol><g
     id="g4774"
     transform="translate(-3.7,-24)"><path
       inkscape:connector-curvature="0"
       id="path4063"
       d="m 56.65,90.6 c 0.1,-0.566 0.05,-1.267 -0.15,-2.1 -0.2,-0.866 -0.667,-1.4 -1.4,-1.6 -0.699,-0.267 -1.783,-0.684 -3.25,-1.25 -0.633,-0.301 -1.1,-0.551 -1.399,-0.75 -0.101,-0.301 -0.233,-0.584 -0.4,-0.851 l 8.5,0.101 c -0.166,2.6 -0.566,4.466 -1.2,5.6 -0.268,0.4 -0.501,0.684 -0.701,0.85 z"
       style="fill:url(#linearGradient4730);fill-rule:evenodd" /><path
       inkscape:connector-curvature="0"
       id="path4070"
       d="m 56.65,90.6 c -0.601,0.5 -1.317,0.684 -2.15,0.551 -1.167,-0.167 -2.517,-2.25 -4.05,-6.25 0.3,0.199 0.767,0.449 1.399,0.75 1.467,0.566 2.551,0.983 3.25,1.25 0.733,0.199 1.2,0.733 1.4,1.6 0.201,0.832 0.251,1.532 0.151,2.099 z"
       style="fill:url(#linearGradient4727);fill-rule:evenodd" /><path
       style="fill:url(#linearGradient4772);fill-rule:evenodd"
       d="m 70.25,50.15 c -0.566,-0.167 -1.15,-0.334 -1.75,-0.5 -0.134,0 -0.517,-0.084 -1.15,-0.25 l 1.4,-1.15 c 0.8,0.2 1.65,0.5 2.55,0.9 0.233,0.066 0.434,0.133 0.601,0.199 0.366,0.2 0.699,0.384 1,0.551 0.166,0.1 0.333,0.216 0.5,0.35 l 0.25,0.2 c 0.033,0.033 0.25,0.25 0.649,0.649 0.3,0.4 0.617,1.4 0.95,3 -0.033,-0.1 -0.083,-0.199 -0.15,-0.3 -0.1,-0.166 -0.216,-0.316 -0.35,-0.45 l -0.05,-0.1 c -0.467,-0.566 -0.917,-1.017 -1.351,-1.35 -0.033,-0.034 -0.05,-0.067 -0.05,-0.101 l -0.05,-0.05 c -0.533,-0.434 -1.167,-0.8 -1.9,-1.1 -0.3,-0.167 -0.616,-0.317 -0.949,-0.45 -0.067,-0.031 -0.117,-0.048 -0.15,-0.048 z"
       id="path4081"
       inkscape:connector-curvature="0" /><path
       style="fill:url(#linearGradient4769);fill-rule:evenodd"
       d="m 73.1,57.65 c -1,-0.167 -1.85,-0.617 -2.55,-1.351 -0.866,-0.967 -1.3,-2.2 -1.3,-3.7 0,-0.8 0.017,-1.283 0.05,-1.449 0.066,-0.233 0.384,-0.567 0.95,-1 0.033,0 0.083,0.017 0.15,0.05 0.333,0.133 0.649,0.283 0.949,0.45 0.733,0.3 1.367,0.666 1.9,1.1 l 0.05,0.05 c 0,0.033 0.017,0.066 0.05,0.101 0.434,0.333 0.884,0.783 1.351,1.35 l 0.05,0.1 c 0.134,0.134 0.25,0.284 0.35,0.45 0.067,0.101 0.117,0.2 0.15,0.3 0.033,0.067 0.05,0.134 0.05,0.2 0,0.033 0.017,0.084 0.05,0.15 0.034,0.1 0.051,0.2 0.051,0.3 0,0.167 0,0.316 0,0.45 0,0.033 -0.017,0.066 -0.051,0.1 0,0.066 -0.017,0.15 -0.05,0.25 -0.133,0.533 -0.5,1.033 -1.1,1.5 -0.367,0.265 -0.733,0.466 -1.1,0.599 z"
       id="path4088"
       inkscape:connector-curvature="0" /><path
       style="fill:url(#linearGradient4766);fill-rule:evenodd"
       d="m 67.35,49.4 c 0.634,0.166 1.017,0.25 1.15,0.25 0.6,0.166 1.184,0.333 1.75,0.5 -0.566,0.433 -0.884,0.767 -0.95,1 -0.033,0.166 -0.05,0.649 -0.05,1.449 0,1.5 0.434,2.733 1.3,3.7 0.7,0.733 1.55,1.184 2.55,1.351 -0.4,0.166 -0.8,0.25 -1.2,0.25 -0.801,0.033 -1.45,-0.134 -1.95,-0.5 H 69.9 C 69.5,57 68.616,56 67.25,54.4 l 0.1,-5 z"
       id="path4095"
       inkscape:connector-curvature="0" /><path
       inkscape:connector-curvature="0"
       id="path4104"
       d="m 25.35,89.85 c 0.167,-0.566 0.167,-1.283 0,-2.149 -0.133,-0.867 -0.55,-1.4 -1.25,-1.601 -0.7,-0.233 -1.767,-0.649 -3.2,-1.25 -0.6,-0.267 -1.05,-0.5 -1.35,-0.699 -0.066,-0.301 -0.167,-0.601 -0.3,-0.9 l 8.45,0.1 c -0.333,2.634 -0.85,4.517 -1.55,5.65 -0.3,0.365 -0.567,0.649 -0.8,0.849 z"
       style="fill:url(#linearGradient4695);fill-rule:evenodd" /><path
       inkscape:connector-curvature="0"
       id="path4111"
       d="M 25.35,89.85 C 24.717,90.316 24,90.5 23.2,90.4 c -1.167,-0.167 -2.383,-2.25 -3.65,-6.25 0.3,0.199 0.75,0.433 1.35,0.699 1.434,0.601 2.5,1.017 3.2,1.25 0.7,0.2 1.117,0.733 1.25,1.601 0.167,0.866 0.167,1.583 0,2.15 z"
       style="fill:url(#linearGradient4692);fill-rule:evenodd" /><path
       inkscape:connector-curvature="0"
       id="path4120"
       d="m 6,58.3 c 1,-0.166 1.85,-0.616 2.55,-1.35 0.867,-0.967 1.3,-2.2 1.3,-3.7 0,-0.8 -0.017,-1.283 -0.05,-1.45 -0.066,-0.233 -0.383,-0.566 -0.95,-1 0.566,-0.166 1.15,-0.333 1.75,-0.5 0.133,0 0.517,-0.083 1.15,-0.25 l 0.1,5 c -1.367,1.601 -2.25,2.601 -2.65,3 H 9.15 C 8.65,58.417 8,58.583 7.2,58.55 6.8,58.55 6.4,58.467 6,58.3 z"
       style="fill:url(#linearGradient4679);fill-rule:evenodd" /><path
       inkscape:connector-curvature="0"
       id="path4127"
       d="m 3.85,54.75 c 0.333,-1.6 0.65,-2.6 0.95,-3 0.4,-0.4 0.617,-0.616 0.65,-0.65 L 5.7,50.9 c 0.167,-0.134 0.333,-0.25 0.5,-0.351 0.3,-0.166 0.633,-0.35 1,-0.55 0.167,-0.066 0.367,-0.134 0.6,-0.2 0.9,-0.399 1.75,-0.7 2.55,-0.899 l 1.4,1.149 c -0.633,0.167 -1.017,0.25 -1.15,0.25 -0.6,0.167 -1.184,0.334 -1.75,0.5 -0.033,0 -0.083,0.017 -0.15,0.05 -0.333,0.134 -0.65,0.284 -0.95,0.45 -0.733,0.3 -1.367,0.667 -1.9,1.101 L 5.8,52.45 c 0,0.033 -0.017,0.066 -0.05,0.1 C 5.317,52.884 4.867,53.333 4.4,53.9 L 4.35,54 C 4.217,54.134 4.1,54.283 4,54.45 c -0.067,0.1 -0.117,0.2 -0.15,0.3 z"
       style="fill:url(#linearGradient4676);fill-rule:evenodd" /><path
       inkscape:connector-curvature="0"
       id="path4134"
       d="M 6,58.3 C 5.633,58.167 5.267,57.967 4.9,57.7 4.3,57.233 3.933,56.733 3.8,56.2 3.767,56.099 3.75,56.016 3.75,55.95 3.717,55.917 3.7,55.884 3.7,55.85 c 0,-0.133 0,-0.283 0,-0.449 0,-0.101 0.017,-0.2 0.05,-0.301 0.033,-0.066 0.05,-0.116 0.05,-0.149 0,-0.066 0.017,-0.134 0.05,-0.2 0.033,-0.1 0.083,-0.2 0.15,-0.3 0.1,-0.167 0.217,-0.316 0.35,-0.45 l 0.05,-0.1 C 4.867,53.334 5.317,52.884 5.75,52.55 5.783,52.517 5.8,52.484 5.8,52.45 L 5.85,52.4 c 0.533,-0.434 1.167,-0.801 1.9,-1.101 0.3,-0.166 0.617,-0.316 0.95,-0.45 0.066,-0.033 0.117,-0.05 0.15,-0.05 0.566,0.434 0.883,0.767 0.95,1 0.034,0.167 0.05,0.65 0.05,1.45 0,1.5 -0.434,2.733 -1.3,3.7 C 7.85,57.684 7,58.134 6,58.3 z"
       style="fill:url(#linearGradient4673);fill-rule:evenodd" /><path
       style="fill:url(#linearGradient4587);fill-rule:evenodd"
       d="M 63.25,31.45 C 61.283,30.483 58.884,30 56.05,30 H 23.1 c -3.434,0 -6.184,0.667 -8.25,2 L 20.3,25.25 C 20.767,24.883 21.25,24.6 21.75,24.4 22.45,24.167 23.2,24.033 24,24 h 32.8 c 0.733,0.033 1.4,0.183 2,0.45 0.566,0.233 1.017,0.617 1.351,1.15 0.767,0.933 1.616,2.05 2.55,3.35 0.1,0.2 0.217,0.367 0.35,0.5 0.367,0.6 0.834,1.35 1.4,2.25 0.133,0.2 0.3,0.433 0.5,0.7 -0.534,-0.367 -1.101,-0.683 -1.701,-0.95 z"
       id="path4143"
       inkscape:connector-curvature="0" /><path
       style="fill:url(#linearGradient4584);fill-rule:evenodd"
       d="m 59.8,42.1 c 1.467,1.534 2.2,3.75 2.2,6.65 V 69.7 c 0,6.233 -3.316,9.35 -9.95,9.35 H 27.4 c -2.233,0 -4.083,-0.366 -5.55,-1.1 C 21.483,77.717 21.117,77.5 20.75,77.3 20.417,77.033 20.133,76.75 19.9,76.45 18.367,74.95 17.6,72.7 17.6,69.7 V 48.75 c 0,-6.167 3.267,-9.25 9.8,-9.25 h 24.65 c 3.033,0 5.367,0.617 7,1.85 0.266,0.2 0.516,0.45 0.75,0.75 z M 21.05,75.55 c 0.233,0.3 0.5,0.533 0.8,0.7 0.2,0.1 0.4,0.217 0.6,0.35 0.767,0.667 1.75,1.15 2.95,1.45 1,0.3 2.233,0.45 3.7,0.45 h 23.25 c 6.2,0 9.301,-2.934 9.301,-8.8 V 49.95 c 0,-0.667 -0.45,-2.05 -1.351,-4.15 -0.2,-0.633 -0.434,-1.166 -0.7,-1.6 -0.199,-0.4 -0.433,-0.75 -0.699,-1.05 -1.534,-1.767 -4.017,-2.65 -7.45,-2.65 H 28.2 c -6.233,0 -9.35,2.95 -9.35,8.85 v 19.7 c 0,2.834 0.733,5 2.2,6.5 z"
       id="path4150"
       inkscape:connector-curvature="0" /><path
       style="fill:url(#linearGradient4581);fill-rule:evenodd"
       d="m 66.65,35.35 c 0.433,0.933 0.767,1.933 1,3 0.233,1.2 0.35,2.533 0.35,4 v 28.6 c 0,2.633 -0.417,4.866 -1.25,6.7 -0.1,0.233 -0.217,0.483 -0.35,0.75 -2,3.566 -5.867,5.35 -11.601,5.35 H 22 c -5.1,0 -8.7,-1.4 -10.8,-4.2 -0.1,-0.2 -0.2,-0.416 -0.3,-0.649 -0.333,-0.767 -0.583,-1.567 -0.75,-2.4 -0.267,-1.233 -0.4,-2.55 -0.4,-3.95 v -28.7 c 0,-2.066 0.267,-3.899 0.8,-5.5 0.067,-0.233 0.167,-0.483 0.3,-0.75 0.2,-0.4 0.433,-0.767 0.7,-1.1 0.034,-0.1 0.083,-0.183 0.15,-0.25 0.2,-0.267 0.45,-0.55 0.75,-0.85 l 2.35,-2.65 c 2.233,-1.3 5.2,-1.95 8.9,-1.95 l 35.6,0.25 c 1.4,0 2.717,0.133 3.95,0.4 0.6,0.267 1.167,0.583 1.7,0.95 0.233,0.467 0.55,0.983 0.95,1.55 0,0.033 0.017,0.05 0.05,0.05 0.033,0.1 0.083,0.217 0.149,0.35 0.101,0.167 0.2,0.367 0.301,0.6 0.033,0.066 0.083,0.15 0.149,0.25 0.034,0.032 0.067,0.082 0.101,0.149 z M 20.75,77.3 c 0.4,0.3 0.85,0.617 1.35,0.95 1.566,0.9 3.6,1.35 6.1,1.35 h 24.65 c 6.434,0 9.733,-2.983 9.9,-8.949 V 49.4 c 0,-3.367 -0.983,-5.801 -2.95,-7.3 -0.233,-0.3 -0.483,-0.55 -0.75,-0.75 -1.666,-1.633 -4.2,-2.45 -7.6,-2.45 H 26.8 c -6.566,0 -9.85,3.083 -9.85,9.25 v 20.9 c 0,3.434 0.983,5.9 2.95,7.4 0.233,0.3 0.517,0.583 0.85,0.85 z"
       id="path4157"
       inkscape:connector-curvature="0" /><path
       style="fill:url(#linearGradient4578);fill-rule:evenodd"
       d="m 21.05,75.55 c -1.466,-1.5 -2.2,-3.666 -2.2,-6.5 v -19.7 c 0,-5.899 3.117,-8.85 9.35,-8.85 h 23.25 c 3.434,0 5.916,0.883 7.45,2.65 0.267,0.3 0.5,0.649 0.699,1.05 0.267,0.434 0.5,0.967 0.7,1.6 0.101,0.3 0.184,0.601 0.25,0.9 -0.566,-0.533 -1.217,-0.967 -1.95,-1.3 -1.399,-0.667 -3.149,-1 -5.25,-1 h -23.2 c -6.267,0 -9.4,2.933 -9.4,8.8 V 73 c 0.001,0.9 0.101,1.75 0.301,2.55 z"
       id="path4164"
       inkscape:connector-curvature="0" /><path
       style="fill:url(#linearGradient4575);fill-rule:evenodd"
       d="m 22.45,76.6 c -0.2,-0.133 -0.4,-0.25 -0.6,-0.35 -0.3,-0.167 -0.567,-0.4 -0.8,-0.7 -0.2,-0.8 -0.3,-1.649 -0.3,-2.55 V 53.2 c 0,-5.867 3.133,-8.8 9.4,-8.8 h 23.2 c 2.101,0 3.851,0.333 5.25,1 0.733,0.333 1.384,0.767 1.95,1.3 0.134,0.833 0.2,1.717 0.2,2.649 v 19.7 c 0,5.9 -3.1,8.851 -9.3,8.851 H 28.2 c -1.467,0 -2.7,-0.15 -3.7,-0.45 -0.767,-0.2 -1.45,-0.483 -2.05,-0.85 z"
       id="path4171"
       inkscape:connector-curvature="0" /><path
       style="fill:url(#linearGradient4572);fill-rule:evenodd"
       d="m 60.3,45.8 c 0.9,2.101 1.351,3.483 1.351,4.15 V 69.7 c 0,5.866 -3.101,8.8 -9.301,8.8 H 29.1 c -1.467,0 -2.7,-0.15 -3.7,-0.45 -1.2,-0.3 -2.183,-0.783 -2.95,-1.45 0.6,0.367 1.283,0.65 2.05,0.851 1,0.3 2.233,0.45 3.7,0.45 h 23.25 c 6.2,0 9.3,-2.95 9.3,-8.851 v -19.7 c 0,-0.933 -0.066,-1.816 -0.2,-2.649 C 60.483,46.4 60.4,46.1 60.3,45.8 z"
       id="path4178"
       inkscape:connector-curvature="0" /><path
       style="fill:url(#linearGradient4569);fill-rule:evenodd"
       d="m 19.9,76.45 c -1.967,-1.5 -2.95,-3.967 -2.95,-7.4 v -20.9 c 0,-6.167 3.283,-9.25 9.85,-9.25 h 24.65 c 3.399,0 5.934,0.817 7.6,2.45 -1.633,-1.233 -3.967,-1.85 -7,-1.85 H 27.4 c -6.533,0 -9.8,3.083 -9.8,9.25 V 69.7 c 0,3 0.767,5.25 2.3,6.75 z"
       id="path4185"
       inkscape:connector-curvature="0" /><path
       style="fill:url(#linearGradient4566);fill-rule:evenodd"
       d="m 11.2,79.55 c 2.1,2.8 5.7,4.2 10.8,4.2 h 32.8 c 5.733,0 9.601,-1.783 11.601,-5.35 0.133,-0.267 0.25,-0.517 0.35,-0.75 0.833,-1.834 1.25,-4.067 1.25,-6.7 v -28.6 c 0,-1.467 -0.116,-2.8 -0.35,-4 -0.233,-1.067 -0.567,-2.067 -1,-3 l 0.05,0.05 c 0.066,0.033 0.116,0.117 0.149,0.25 0.167,0.2 0.317,0.4 0.45,0.6 0.134,0.267 0.267,0.5 0.4,0.7 0.2,0.433 0.399,0.9 0.6,1.4 0.467,1.6 0.7,3.433 0.7,5.5 v 28.7 c 0,2.601 -0.4,4.834 -1.2,6.7 -0.1,0.2 -0.217,0.434 -0.35,0.7 -2.033,3.6 -5.9,5.399 -11.601,5.399 H 22.95 c -5.4,0 -9.15,-1.6 -11.25,-4.8 -0.167,-0.299 -0.333,-0.632 -0.5,-0.999 z"
       id="path4192"
       inkscape:connector-curvature="0" /><path
       style="fill:url(#linearGradient4563);fill-rule:evenodd"
       d="m 59.8,42.1 c 1.967,1.5 2.95,3.933 2.95,7.3 v 21.25 c -0.167,5.966 -3.467,8.949 -9.9,8.949 H 28.2 c -2.5,0 -4.534,-0.449 -6.1,-1.35 -0.5,-0.333 -0.95,-0.65 -1.35,-0.95 0.367,0.2 0.733,0.417 1.1,0.65 1.467,0.733 3.316,1.1 5.55,1.1 h 24.65 c 6.634,0 9.95,-3.116 9.95,-9.35 V 48.75 c 0,-2.9 -0.733,-5.116 -2.2,-6.65 z"
       id="path4199"
       inkscape:connector-curvature="0" /><path
       style="fill:url(#linearGradient4560);fill-rule:evenodd"
       d="m 14.85,32 c 2.066,-1.333 4.816,-2 8.25,-2 h 32.95 c 2.834,0 5.233,0.483 7.2,1.45 -1.233,-0.267 -2.55,-0.4 -3.95,-0.4 L 23.7,30.8 c -3.7,0 -6.667,0.65 -8.9,1.95 l -2.35,2.65 c -0.3,0.3 -0.55,0.583 -0.75,0.85 -0.067,0.067 -0.117,0.15 -0.15,0.25 -0.267,0.333 -0.5,0.7 -0.7,1.1 0.267,-0.633 0.583,-1.25 0.95,-1.85 0.034,-0.1 0.083,-0.2 0.15,-0.3 0.233,-0.233 0.466,-0.483 0.7,-0.75 l 2.2,-2.7 z"
       id="path4206"
       inkscape:connector-curvature="0" /><path
       inkscape:connector-curvature="0"
       id="path4210"
       d="m 58.699,35.424 c 0,0.743 -0.215,1.339 -0.648,1.791 -0.467,0.484 -1.018,0.726 -1.65,0.726 -0.632,0 -1.15,-0.242 -1.551,-0.726 -0.5,-0.452 -0.75,-1.048 -0.75,-1.791 0,-0.645 0.25,-1.21 0.75,-1.694 0.4,-0.484 0.918,-0.726 1.551,-0.726 0.633,0 1.184,0.242 1.65,0.726 0.433,0.484 0.648,1.049 0.648,1.694 z"
       style="fill:#380101;fill-opacity:0.6;fill-rule:evenodd" /><path
       inkscape:connector-curvature="0"
       id="path4217"
       d="m 57.85,35.521 c 0,0.484 -0.199,0.904 -0.6,1.259 -0.367,0.355 -0.816,0.532 -1.35,0.532 -0.5,0 -0.951,-0.177 -1.35,-0.532 C 54.184,36.457 54,36.037 54,35.521 c 0,-0.516 0.184,-0.968 0.551,-1.355 0.332,-0.323 0.783,-0.484 1.35,-0.484 0.533,0 0.982,0.161 1.35,0.484 0.399,0.387 0.599,0.839 0.599,1.355 z"
       style="fill:url(#linearGradient4747);fill-rule:evenodd" /><path
       inkscape:connector-curvature="0"
       id="path4221"
       d="m 19.8,35.521 c 0,-0.645 0.217,-1.21 0.65,-1.694 0.466,-0.484 1.017,-0.726 1.649,-0.726 0.634,0 1.15,0.242 1.55,0.726 0.5,0.484 0.75,1.049 0.75,1.694 0,0.742 -0.25,1.339 -0.75,1.791 -0.399,0.484 -0.916,0.726 -1.55,0.726 -0.633,0 -1.184,-0.242 -1.649,-0.726 C 20.017,36.86 19.8,36.263 19.8,35.521 z"
       style="fill:#380101;fill-opacity:0.6;fill-rule:evenodd" /><path
       inkscape:connector-curvature="0"
       id="path4228"
       d="m 20.649,35.325 c 0,0.474 0.208,0.901 0.622,1.28 0.346,0.333 0.796,0.499 1.349,0.499 0.484,0 0.933,-0.167 1.348,-0.499 0.344,-0.332 0.518,-0.759 0.518,-1.28 0,-0.522 -0.174,-0.973 -0.518,-1.353 -0.346,-0.332 -0.796,-0.498 -1.348,-0.498 -0.553,0 -1.002,0.166 -1.349,0.498 -0.413,0.381 -0.622,0.831 -0.622,1.353 z"
       style="fill:url(#linearGradient4738);fill-rule:evenodd" /></g><g
     id="price_x5F_tag_x5F_pt_x5F_mc"
     transform="translate(124.57119,-5.050847)"><use
       xlink:href="#price_x5F_tag_x5F_pt_x5F_mc_1_"
       width="-32766"
       height="-32766"
       id="price_x5F_tag_x5F_pt"
       x="16383"
       y="16383"
       transform="matrix(1,0,0,-1,-85.07119,93.748953)"
       style="overflow:visible" /></g><g
     id="g11032"
     transform="matrix(0.76722002,0,0,0.76722002,21.70912,21.500412)"><path
       style="fill:#e7d06b;fill-rule:evenodd"
       d="M 40.3,24 40,24.25 h -0.05 l -0.25,0.2 -0.75,0.45 c -0.066,0.067 -0.15,0.117 -0.25,0.15 -0.023,0.003 -0.048,0.003 -0.075,0 -1.593,0.223 -2.718,-0.044 -3.375,-0.8 -0.033,-0.033 -0.05,-0.067 -0.05,-0.1 -0.066,-0.066 -0.117,-0.133 -0.15,-0.2 -0.1,-0.167 -0.166,-0.333 -0.2,-0.5 -0.033,-0.1 -0.066,-0.2 -0.1,-0.3 V 23.1 C 34.783,23.067 34.8,23.033 34.8,23 L 35,22.9 c 0.066,-0.033 0.15,-0.066 0.25,-0.1 -0.1,0.233 -0.033,0.5 0.2,0.8 0.2,0.233 0.533,0.417 1,0.55 0.467,0.133 0.983,0.184 1.55,0.15 0.6,-0.033 1.15,-0.15 1.65,-0.35 0.566,-0.2 1.033,-0.5 1.399,-0.9 h 0.05 l -0.25,0.35 c -0.1,0.1 -0.216,0.217 -0.35,0.35 C 40.434,23.817 40.366,23.9 40.3,24 z M 29.5,0 29.6,0.35 c 0,0.1 0.017,0.2 0.051,0.3 v 0.1 L 29.7,1.1 c 0,0.1 0,0.183 0,0.25 V 1.4 c 0.033,0.333 0.05,0.667 0.05,1 0,0.1 -0.017,0.2 -0.05,0.3 L 29.55,4.2 C 29.533,4.266 29.517,4.333 29.5,4.4 28.467,6.1 27.4,6.834 26.3,6.6 26.267,6.567 26.217,6.55 26.151,6.55 26.083,6.517 26,6.483 25.9,6.45 25.7,6.383 25.517,6.266 25.35,6.1 25.258,6.038 25.166,5.964 25.075,5.875 L 25.05,5.85 V 5.8 C 25.017,5.767 25,5.717 25,5.65 25,5.617 25,5.584 25,5.55 L 25.05,5.3 c 0.034,-0.1 0.067,-0.183 0.1,-0.25 0.1,0.367 0.367,0.6 0.8,0.7 0.333,0.067 0.733,-0.033 1.2,-0.3 0.433,-0.3 0.833,-0.7 1.199,-1.2 0.434,-0.567 0.75,-1.2 0.95,-1.9 0.233,-0.767 0.3,-1.533 0.2,-2.3 V 0 z m -4.25,7.85 c -0.033,0.066 -0.067,0.133 -0.1,0.2 L 25,8.4 c -0.1,0.033 -0.217,0.05 -0.35,0.05 -0.066,0 -0.117,0 -0.15,0 -0.1,0 -0.217,0 -0.35,0 -0.267,0 -0.517,-0.067 -0.75,-0.2 C 23.367,8.25 23.334,8.233 23.3,8.2 22.367,7.7 21.984,6.516 22.15,4.65 22.175,4.567 22.209,4.483 22.25,4.4 L 23.1,2.95 C 23.133,2.916 23.166,2.867 23.2,2.8 L 23.75,2.05 H 23.8 V 2 l 0.35,-0.4 c 0.1,-0.067 0.184,-0.133 0.25,-0.2 l 0.3,-0.3 h 0.025 L 24.7,1.15 c -0.5,0.567 -0.883,1.217 -1.15,1.95 -0.267,0.667 -0.4,1.35 -0.4,2.05 0,0.667 0.1,1.233 0.3,1.7 0.2,0.5 0.45,0.816 0.75,0.95 0.066,0.034 0.117,0.05 0.15,0.05 0.1,0.033 0.2,0.05 0.3,0.05 0.2,0.033 0.367,0 0.5,-0.1 0.033,-0.033 0.067,-0.066 0.1,-0.1 0,0.033 0,0.083 0,0.15 z m -1.9,1.55 -0.2,0.25 C 23.084,9.55 23.033,9.45 23,9.35 23.133,9.383 23.25,9.4 23.35,9.4 z m 3.9,0.85 c -1.833,0.733 -3.117,0.683 -3.85,-0.15 v -0.05 c 0.033,-0.066 0.067,-0.117 0.1,-0.15 0.133,-0.167 0.267,-0.333 0.4,-0.5 0.2,0.133 0.483,0.217 0.85,0.25 0.533,0.067 1.1,0 1.7,-0.2 0.7,-0.2 1.333,-0.5 1.899,-0.9 0.634,-0.466 1.15,-1.033 1.551,-1.7 L 29.95,6.8 29.8,7.1 C 29.734,7.233 29.651,7.383 29.55,7.55 L 29.3,7.95 V 8 l -0.05,0.05 -0.5,0.7 c -0.033,0.033 -0.066,0.067 -0.1,0.1 l -0.4,0.5 -0.9,0.8 c -0.034,0.033 -0.067,0.067 -0.1,0.1 z m -1.9,3.65 c -0.021,0.005 -0.037,0.014 -0.05,0.025 -0.033,0.009 -0.067,0.017 -0.1,0.025 -1.818,0.44 -3.035,0.207 -3.65,-0.7 -0.1,-0.133 -0.183,-0.3 -0.25,-0.5 l 0.45,-0.6 c 0.033,0.1 0.083,0.184 0.15,0.25 0.2,0.3 0.55,0.5 1.05,0.6 0.533,0.1 1.117,0.1 1.75,0 0.667,-0.133 1.316,-0.383 1.95,-0.75 0.699,-0.367 1.283,-0.867 1.75,-1.5 h 0.05 l -0.351,0.5 c -0.143,0.19 -0.292,0.391 -0.449,0.6 -0.067,0.081 -0.134,0.164 -0.2,0.25 l -0.4,0.35 c -0.033,0.066 -0.066,0.117 -0.1,0.15 l -1.45,1.2 c -0.053,0.035 -0.103,0.069 -0.15,0.1 z m -2.35,5 -0.4,0.35 c -0.133,0.133 -0.267,0.25 -0.4,0.35 l -1.1,0.75 c -0.032,0.021 -0.065,0.038 -0.1,0.05 -0.019,0.019 -0.035,0.035 -0.05,0.05 H 20.9 c -1.904,0.392 -3.138,0.109 -3.7,-0.85 -0.167,-0.3 -0.267,-0.633 -0.3,-1 l 0.55,-0.7 c -0.1,0.267 -0.05,0.55 0.15,0.85 0.167,0.3 0.5,0.517 1,0.65 0.5,0.133 1.083,0.167 1.75,0.1 0.667,-0.067 1.333,-0.267 2,-0.6 0.7,-0.333 1.3,-0.8 1.8,-1.4 H 24.2 L 23.85,18 c -0.167,0.167 -0.333,0.35 -0.5,0.55 C 23.217,18.683 23.1,18.8 23,18.9 z m 0.5,-1.75 c -0.1,0.067 -0.183,0.117 -0.25,0.15 -1.933,0.4 -3.183,0.117 -3.75,-0.85 -0.167,-0.233 -0.267,-0.517 -0.3,-0.85 l 0.5,-0.7 c -0.034,0.233 0.017,0.467 0.15,0.7 0.167,0.3 0.517,0.533 1.05,0.7 0.5,0.133 1.067,0.167 1.7,0.1 0.7,-0.1 1.367,-0.3 2,-0.6 0.733,-0.367 1.35,-0.833 1.85,-1.4 l 0.05,-0.05 -0.35,0.5 c -0.167,0.167 -0.333,0.35 -0.5,0.55 -0.1,0.1 -0.183,0.2 -0.25,0.3 L 25,16.05 c -0.067,0.034 -0.133,0.083 -0.2,0.15 l -1.3,0.95 z m 0.8,8 c 0.434,-0.1 0.867,-0.183 1.3,-0.25 0.133,0.033 0.283,0.067 0.45,0.1 0.367,0.033 0.7,-0.05 1,-0.25 -0.1,0 -0.2,-0.017 -0.3,-0.05 0,-0.034 -0.017,-0.05 -0.05,-0.05 H 26.65 V 24.6 c -0.334,-0.133 -0.601,-0.317 -0.8,-0.55 -0.623,-0.72 -0.506,-1.712 0.35,-2.975 0.018,-0.027 0.034,-0.053 0.05,-0.075 0.1,-0.067 0.217,-0.133 0.35,-0.2 l 0.301,-0.2 0.75,-0.35 c 0.066,-0.033 0.133,-0.067 0.199,-0.1 l 0.4,-0.1 c 0.101,-0.033 0.2,-0.066 0.3,-0.1 0.201,-0.056 0.4,-0.106 0.601,-0.15 l 0.5,-0.05 c -0.634,0.133 -1.2,0.4 -1.7,0.8 -0.467,0.333 -0.834,0.733 -1.101,1.2 -0.267,0.467 -0.416,0.917 -0.449,1.35 -0.034,0.4 0.05,0.717 0.25,0.95 0.267,0.267 0.55,0.383 0.85,0.35 -0.033,0.033 -0.066,0.067 -0.1,0.1 L 27.3,24.6 c 0.233,-0.033 0.467,-0.067 0.7,-0.1 0.1,-0.033 0.217,-0.05 0.35,-0.05 0.134,-0.034 0.267,-0.05 0.4,-0.05 0.134,0.067 0.3,0.117 0.5,0.15 -0.167,0.034 -0.384,0.067 -0.65,0.1 -0.3,0.067 -0.633,0.133 -1,0.2 -0.333,0.067 -0.7,0.15 -1.1,0.25 -0.134,0.033 -0.267,0.066 -0.4,0.1 -0.1,0.033 -0.2,0.05 -0.3,0.05 -0.367,0.1 -0.716,0.2 -1.05,0.3 -1.3,0.333 -2.567,0.717 -3.8,1.15 -1.867,0.666 -3.833,1.5 -5.9,2.5 -0.1,0.033 -0.2,0.083 -0.3,0.149 0.067,-0.066 0.117,-0.116 0.15,-0.149 -0.1,0 -0.217,0 -0.35,0 H 14.5 l -0.2,-0.05 c -0.033,0 -0.05,-0.017 -0.05,-0.051 L 14.05,29.049 14,29 c -0.033,0 -0.067,-0.017 -0.1,-0.05 L 13.85,28.9 13,29.3 12.85,29.35 c -0.025,0.018 -0.051,0.034 -0.075,0.051 H 12.75 c -1.433,0.066 -2.383,-0.217 -2.85,-0.851 0.167,-0.233 0.333,-0.483 0.5,-0.75 v 0.05 c 0.1,0.134 0.283,0.267 0.55,0.4 0.4,0.167 0.867,0.267 1.4,0.3 0.167,0 0.316,0 0.45,0 0.233,0 0.467,-0.033 0.7,-0.1 0.2,-0.033 0.417,-0.084 0.65,-0.15 0.033,0 0.067,0 0.1,0 0.4,-0.133 0.783,-0.333 1.15,-0.6 0.067,-0.033 0.133,-0.066 0.2,-0.101 0.1,-0.066 0.183,-0.133 0.25,-0.199 l 0.05,-0.051 -0.2,0.25 c -0.034,0.034 -0.067,0.051 -0.1,0.051 -0.061,0.061 -0.119,0.118 -0.175,0.175 L 15.4,27.85 c -0.1,0.101 -0.217,0.2 -0.35,0.301 -0.1,0.066 -0.2,0.133 -0.3,0.199 L 14.4,28.6 c 0.033,0.034 0.067,0.051 0.1,0.051 0.1,0.1 0.217,0.149 0.35,0.149 0.133,0.033 0.25,0.017 0.35,-0.05 0,-0.033 0.017,-0.083 0.05,-0.15 0.3,-0.133 0.6,-0.267 0.9,-0.399 0.267,0.1 0.55,0.116 0.85,0.05 0.333,-0.1 0.617,-0.267 0.85,-0.5 -0.1,0 -0.233,-0.017 -0.4,-0.05 -0.067,0 -0.133,-0.017 -0.2,-0.05 C 17.117,27.617 17,27.584 16.9,27.55 c -0.066,-0.033 -0.133,-0.083 -0.2,-0.149 -0.3,-0.2 -0.483,-0.5 -0.55,-0.9 l -0.5,0.2 c -0.069,0.033 -0.119,0.05 -0.15,0.05 -0.067,0 -0.117,0 -0.15,0 -0.4,0.033 -0.767,0.017 -1.1,-0.05 -0.267,-0.034 -0.5,-0.083 -0.7,-0.15 -0.033,0 -0.066,0 -0.1,0 -0.633,-0.233 -1.05,-0.617 -1.25,-1.15 0,-0.028 -0.008,-0.07 -0.025,-0.125 0.155,-0.256 0.313,-0.498 0.475,-0.725 0,0.034 0.017,0.067 0.05,0.1 0.1,0.333 0.367,0.6 0.8,0.8 0.167,0.066 0.35,0.133 0.55,0.2 0.167,0.033 0.333,0.067 0.5,0.1 0.167,0.033 0.35,0.05 0.55,0.05 0.066,0 0.15,0 0.25,0 0.133,0 0.283,0 0.45,0 0.1,0 0.217,0 0.35,0 0.267,-0.066 0.55,-0.133 0.85,-0.2 h 0.05 c 0.467,-0.133 0.9,-0.317 1.3,-0.55 0.2,-0.133 0.383,-0.267 0.55,-0.4 0.032,-0.032 0.066,-0.049 0.1,-0.05 -0.034,0 -0.068,0 -0.1,0 0.033,-0.367 0.167,-0.8 0.4,-1.3 l -0.35,0.2 -0.3,0.2 c -0.055,0.036 -0.113,0.069 -0.175,0.1 -0.02,0.013 -0.045,0.03 -0.075,0.05 h -0.05 c -0.3,0.033 -0.6,0.066 -0.9,0.1 -0.233,0.033 -0.467,0.033 -0.7,0 -0.233,0 -0.45,-0.034 -0.65,-0.1 -0.667,-0.133 -1.133,-0.45 -1.4,-0.95 -0.133,-0.267 -0.217,-0.55 -0.25,-0.85 -0.084,0.103 -0.168,0.211 -0.25,0.325 0.25,-0.363 0.5,-0.722 0.75,-1.075 -0.034,0.233 0.017,0.483 0.15,0.75 0.167,0.3 0.5,0.534 1,0.7 0.5,0.133 1.083,0.183 1.75,0.15 v -0.05 c 0.133,0 0.267,0 0.4,0 0.167,-0.033 0.333,-0.067 0.5,-0.1 0.367,-0.1 0.733,-0.233 1.1,-0.4 0.733,-0.333 1.35,-0.783 1.85,-1.35 l 0.05,-0.05 c 0,0.033 -0.017,0.066 -0.05,0.1 l -0.35,0.45 c -0.033,0 -0.05,0.017 -0.05,0.05 l 0.25,-0.15 c 0.068,-0.034 0.135,-0.067 0.2,-0.1 0.193,-0.083 0.376,-0.15 0.55,-0.2 l 0.5,-0.15 h 0.05 c -0.633,0.233 -1.184,0.583 -1.65,1.05 -0.434,0.433 -0.767,0.917 -1,1.45 -0.233,0.5 -0.367,0.966 -0.4,1.4 0,0.433 0.1,0.767 0.3,1 0.167,0.167 0.35,0.267 0.55,0.3 0.1,0 0.2,-0.017 0.3,-0.05 l -0.05,0.05 c 0.467,-0.167 0.934,-0.316 1.4,-0.45 0.167,0.066 0.35,0.1 0.55,0.1 0.367,0 0.7,-0.1 1,-0.3 -0.133,0 -0.267,-0.033 -0.4,-0.1 -0.034,0 -0.05,-0.017 -0.05,-0.05 -0.3,-0.133 -0.55,-0.3 -0.75,-0.5 -0.591,-0.723 -0.474,-1.756 0.35,-3.1 -0.135,0.12 -0.268,0.237 -0.4,0.35 0.133,-0.133 0.283,-0.267 0.45,-0.4 0.1,-0.067 0.2,-0.133 0.3,-0.2 l 0.25,-0.2 0.65,-0.35 c 0.133,-0.067 0.267,-0.133 0.4,-0.2 l 0.4,-0.15 h 0.025 c 0.086,-0.035 0.161,-0.068 0.225,-0.1 0.233,-0.067 0.434,-0.117 0.6,-0.15 l 0.45,-0.1 c -0.61,0.176 -1.16,0.476 -1.649,0.9 -0.434,0.367 -0.784,0.8 -1.05,1.3 -0.267,0.466 -0.417,0.917 -0.45,1.35 -0.034,0.434 0.05,0.767 0.25,1 0.266,0.266 0.549,0.382 0.849,0.349 z m 7.6,-5.2 c 0.1,0 0.183,0 0.25,0 0.199,-0.034 0.399,-0.067 0.6,-0.1 h 0.5 c -0.647,0.075 -1.247,0.275 -1.8,0.6 -0.467,0.267 -0.851,0.617 -1.15,1.05 -0.3,0.4 -0.483,0.817 -0.55,1.25 -0.066,0.4 0,0.717 0.2,0.95 0.133,0.2 0.3,0.333 0.5,0.4 0.1,0.033 0.2,0.05 0.3,0.05 -0.033,0.033 -0.083,0.067 -0.15,0.1 l -0.2,0.15 c -0.034,0 -0.084,0.017 -0.15,0.05 C 30.184,24.416 30.1,24.383 30,24.35 29.967,24.317 29.917,24.283 29.85,24.25 H 29.8 V 24.2 l -0.649,-0.5 c 0,-0.034 -0.017,-0.067 -0.051,-0.1 -0.033,-0.033 -0.066,-0.083 -0.1,-0.15 l 0.75,-2.725 V 20.7 c 0.1,-0.067 0.217,-0.117 0.35,-0.15 l 0.351,-0.2 0.649,-0.2 c 0.134,-0.033 0.267,-0.066 0.4,-0.1 l 0.4,-0.1 z m 2,4.3 c -0.032,0.032 -0.066,0.049 -0.101,0.05 -0.033,0.034 -0.066,0.05 -0.1,0.05 l -0.2,0.1 c -0.033,0 -0.083,0 -0.15,0 -0.033,0 -0.066,-0.017 -0.1,-0.05 -0.1,-0.033 -0.2,-0.1 -0.3,-0.2 -0.066,-0.034 -0.134,-0.083 -0.2,-0.15 -0.2,-0.167 -0.35,-0.35 -0.45,-0.55 -0.033,-0.033 -0.05,-0.067 -0.05,-0.1 -0.4,-0.8 -0.05,-1.65 1.05,-2.55 0.113,-0.04 0.23,-0.074 0.351,-0.1 l 0.35,-0.1 0.75,-0.1 c 0.134,-0.033 0.283,-0.05 0.45,-0.05 l 0.45,-0.05 c 0.067,0 0.134,0 0.199,0 0.228,0.007 0.443,0.024 0.65,0.05 l 0.55,0.05 h 0.05 l -0.05,0.05 c -0.7,-0.067 -1.35,0.017 -1.95,0.25 -0.5,0.2 -0.949,0.483 -1.35,0.85 -0.333,0.333 -0.566,0.683 -0.7,1.05 -0.1,0.367 -0.083,0.683 0.05,0.95 0.034,0.033 0.067,0.066 0.101,0.1 0.033,0.067 0.083,0.133 0.149,0.2 0.168,0.133 0.351,0.217 0.551,0.25 z M 21.35,3.75 21.4,3.65 V 3.7 c -0.014,0.018 -0.031,0.035 -0.05,0.05 z m -0.75,0.9 c -0.032,0.032 -0.049,0.066 -0.05,0.1 V 4.7 c 0,-0.033 0.017,-0.05 0.05,-0.05 z M 18.425,6.575 C 18.007,7.201 17.732,7.909 17.6,8.7 c -0.133,0.7 -0.133,1.4 0,2.1 0.1,0.633 0.283,1.167 0.55,1.6 0.267,0.467 0.567,0.733 0.9,0.8 0.434,0.1 0.784,0.017 1.05,-0.25 0,0.1 -0.017,0.2 -0.05,0.3 0.167,-0.2 0.333,-0.4 0.5,-0.6 0.1,-0.1 0.184,-0.2 0.25,-0.3 0.1,-0.133 0.2,-0.25 0.3,-0.35 0.2,-0.033 0.383,-0.117 0.55,-0.25 h 0.05 c -0.133,0.167 -0.3,0.367 -0.5,0.6 -0.2,0.267 -0.45,0.6 -0.75,1 -0.3,0.4 -0.65,0.867 -1.05,1.4 -0.066,0.1 -0.133,0.217 -0.2,0.35 -0.233,0.3 -0.483,0.633 -0.75,1 -0.434,0.533 -0.883,1.133 -1.35,1.8 -0.067,0.1 -0.133,0.2 -0.2,0.3 -0.233,0.333 -0.483,0.683 -0.75,1.05 -0.167,0.2 -0.316,0.4 -0.45,0.6 -1.8,2.467 -3.35,4.6 -4.65,6.4 L 11.1,26.1 v -0.05 c -0.1,0.1 -0.233,0.184 -0.4,0.25 -0.133,0.034 -0.25,0.067 -0.35,0.1 -0.067,0 -0.117,0 -0.15,0 -0.034,0.033 -0.067,0.05 -0.1,0.05 H 9.8 c -0.933,-0.1 -1.6,-0.95 -2,-2.55 0,-0.05 0,-0.1 0,-0.15 l 0.25,-1.5 c 0.034,-0.067 0.067,-0.133 0.1,-0.2 l 0.2,-0.6 c 0,-0.034 0.017,-0.067 0.05,-0.1 0,-0.067 0.017,-0.117 0.05,-0.15 0,-0.034 0,-0.067 0,-0.1 H 8.5 l 0.1,-0.25 c 0.033,-0.1 0.066,-0.2 0.1,-0.3 l 0.15,-0.3 v 0.05 c -0.233,0.6 -0.367,1.25 -0.4,1.95 0,0.6 0.1,1.183 0.3,1.75 0.167,0.533 0.4,0.967 0.7,1.3 0.267,0.333 0.55,0.517 0.85,0.55 0.2,0 0.367,-0.033 0.5,-0.1 0.133,-0.067 0.233,-0.167 0.3,-0.3 0,-0.034 0,-0.083 0,-0.15 0.233,-0.333 0.45,-0.633 0.65,-0.9 l 0.05,-0.05 c 0.333,-0.033 0.633,-0.184 0.9,-0.45 0.267,-0.3 0.45,-0.65 0.55,-1.05 -0.133,0.1 -0.283,0.183 -0.45,0.25 -0.066,0.033 -0.15,0.066 -0.25,0.1 -0.133,0.033 -0.283,0.066 -0.45,0.1 -0.1,0 -0.2,0 -0.3,0 -1.029,-0.1 -1.779,-1.024 -2.25,-2.775 V 20.5 C 9.562,20.405 9.579,20.305 9.6,20.2 L 9.85,18.65 C 9.883,18.617 9.9,18.584 9.9,18.55 l 0.25,-0.8 V 17.7 c 0.022,-0.051 0.047,-0.101 0.075,-0.15 0.031,-0.107 0.064,-0.207 0.1,-0.3 0.027,-0.054 0.052,-0.104 0.075,-0.15 v -0.05 c 0.033,-0.066 0.083,-0.15 0.15,-0.25 l 0.15,-0.3 v 0.05 c -0.3,0.667 -0.434,1.383 -0.4,2.15 0,0.667 0.1,1.316 0.3,1.95 0.2,0.567 0.467,1.033 0.8,1.4 0.333,0.367 0.65,0.55 0.95,0.55 0.1,0 0.2,0 0.3,0 0.233,-0.033 0.417,-0.15 0.55,-0.35 0.033,0 0.05,-0.017 0.05,-0.05 0.233,-0.333 0.467,-0.667 0.7,-1 0.133,-0.034 0.283,-0.1 0.45,-0.2 0.333,-0.267 0.567,-0.6 0.7,-1 -0.1,0.067 -0.25,0.117 -0.45,0.15 H 14.6 c -0.033,0.033 -0.067,0.05 -0.1,0.05 -0.367,0.066 -0.7,0.066 -1,0 -1.067,-0.267 -1.7,-1.367 -1.9,-3.3 0,-0.061 0,-0.11 0,-0.15 L 12.2,15 c 0,-0.033 0.017,-0.067 0.05,-0.1 L 12.65,14.05 12.7,14 v -0.05 l 0.2,-0.3 c 0.133,-0.2 0.25,-0.383 0.35,-0.55 l 0.15,-0.2 v 0.05 c -0.4,0.633 -0.65,1.35 -0.75,2.15 -0.133,0.7 -0.133,1.4 0,2.1 0.133,0.633 0.35,1.167 0.65,1.6 0.267,0.434 0.567,0.7 0.9,0.8 0.333,0.066 0.617,0.017 0.85,-0.15 0.067,-0.034 0.133,-0.083 0.2,-0.15 v 0.05 c 0.367,-0.5 0.7,-0.967 1,-1.4 0.2,-0.034 0.4,-0.117 0.6,-0.25 0.333,-0.267 0.583,-0.6 0.75,-1 -0.133,0.066 -0.3,0.133 -0.5,0.2 h -0.05 c -0.367,0.067 -0.716,0.067 -1.05,0 -1.1,-0.3 -1.717,-1.433 -1.85,-3.4 0.017,-0.05 0.033,-0.1 0.05,-0.15 l 0.35,-1.15 0.25,-0.55 c 0,-0.033 0.017,-0.066 0.05,-0.1 l 0.4,-0.8 0.05,-0.05 v -0.025 c 0.017,-0.017 0.034,-0.042 0.05,-0.075 l 0.25,-0.4 c 0.066,-0.1 0.133,-0.184 0.2,-0.25 l 0.25,-0.4 H 16.1 L 16.05,9.6 c -0.4,0.667 -0.667,1.383 -0.8,2.15 -0.133,0.7 -0.15,1.4 -0.05,2.1 0.133,0.633 0.333,1.183 0.6,1.65 0.267,0.433 0.567,0.7 0.9,0.8 0.433,0.1 0.783,0 1.05,-0.3 v 0.05 c 0.3,-0.4 0.617,-0.8 0.95,-1.2 0.167,-0.033 0.333,-0.117 0.5,-0.25 0.333,-0.233 0.583,-0.55 0.75,-0.95 -0.034,0 -0.05,0.017 -0.05,0.05 h -0.05 l -0.2,0.1 h -0.2 c -0.4,0.1 -0.767,0.1 -1.1,0 -1.067,-0.267 -1.684,-1.383 -1.85,-3.35 0.014,-0.083 0.031,-0.167 0.05,-0.25 L 17.1,8.65 c 0.066,-0.1 0.117,-0.2 0.15,-0.3 L 17.6,7.7 C 17.62,7.66 17.636,7.627 17.65,7.6 17.67,7.58 17.687,7.563 17.7,7.55 l 0.25,-0.4 c 0.066,-0.1 0.133,-0.183 0.2,-0.25 l 0.3,-0.4 V 6.55 L 18.425,6.575 z M 6.2,34.1 c 0.2,-0.133 0.433,-0.3 0.7,-0.5 1.767,-1.199 3.267,-2.149 4.5,-2.85 0.633,-0.4 1.267,-0.767 1.9,-1.1 0.034,0 0.067,0 0.1,0 0.167,0.1 0.35,0.133 0.55,0.1 -1.267,0.634 -2.333,1.233 -3.2,1.8 -0.767,0.467 -1.633,1.05 -2.6,1.75 -0.5,0.4 -1.2,0.934 -2.1,1.601 -0.267,0.199 -0.5,0.383 -0.7,0.55 C 5.617,34.983 5.9,34.533 6.2,34.1 z m 8,-7.15 c -0.067,0.233 -0.083,0.467 -0.05,0.7 -0.267,-0.034 -0.517,-0.084 -0.75,-0.15 0,-0.134 0.017,-0.283 0.05,-0.45 l 0.75,-0.1 z m 3.2,-2.8 c -0.1,0.233 -0.183,0.467 -0.25,0.7 -0.3,-0.033 -0.566,-0.067 -0.8,-0.1 0.033,-0.133 0.066,-0.25 0.1,-0.35 l 0.95,-0.25 z m 14,0 c 0,-0.1 0.017,-0.2 0.05,-0.3 0.066,0.1 0.149,0.183 0.25,0.25 l -0.3,0.05 z m 6.3,2.35 h 0.05 l -0.2,0.05 c -0.166,0.034 -0.35,0.067 -0.55,0.1 l -0.35,0.05 c -0.034,0 -0.051,0.017 -0.051,0.05 L 35.9,26.8 c -0.034,0.002 -0.067,0.002 -0.101,0 -0.202,0.01 -0.402,0.019 -0.6,0.025 L 34.6,26.8 C 34.394,26.788 34.194,26.772 34,26.75 32.434,26.183 31.566,25.5 31.4,24.7 l 0.75,-0.15 c 0.1,0.167 0.233,0.317 0.399,0.45 0.334,0.333 0.767,0.633 1.3,0.9 0.601,0.267 1.217,0.45 1.851,0.55 0.7,0.133 1.366,0.15 2,0.05 z M 1.65,37.7 C 1.75,37.533 1.867,37.316 2,37.05 2.1,36.917 2.2,36.767 2.3,36.6 2.467,36.2 2.633,35.733 2.8,35.2 2.867,34.9 2.95,34.616 3.05,34.349 3.35,33.316 3.55,32.4 3.65,31.599 3.85,30.366 3.933,29.066 3.9,27.7 3.867,26.233 3.717,25.35 3.45,25.05 3.217,24.817 2.9,24.617 2.5,24.45 2.367,24.383 2.233,24.333 2.1,24.3 c 0.167,-0.033 0.316,-0.033 0.45,0 0.5,0.034 0.867,0.133 1.1,0.3 0.167,0.167 0.35,0.467 0.55,0.9 0.233,0.6 0.383,1.333 0.45,2.2 0.133,1.833 -0.1,4.05 -0.7,6.649 L 4,34.3 c -0.333,0.4 -0.65,0.8 -0.95,1.2 -0.233,0.3 -0.466,0.634 -0.7,1 0.033,0.167 0.167,0.233 0.4,0.2 0.167,0 0.767,-0.7 1.8,-2.101 0.833,-1.1 2.034,-2.783 3.6,-5.05 0.533,-0.767 1.033,-1.483 1.5,-2.149 0.033,0 0.067,0 0.1,0 0.233,-0.034 0.45,-0.117 0.65,-0.25 -0.967,1.366 -1.8,2.533 -2.5,3.5 -0.5,0.733 -1.15,1.716 -1.95,2.949 0,0.034 -0.017,0.051 -0.05,0.051 C 5.667,34.05 5.45,34.4 5.25,34.7 4.883,35.266 4.6,35.7 4.4,36 4.334,36.1 4.267,36.184 4.2,36.25 4.1,36.384 4,36.533 3.9,36.7 3.667,37 3.45,37.266 3.25,37.5 3.083,37.667 2.933,37.816 2.8,37.95 2.734,38.016 2.65,38.083 2.55,38.15 2.263,38.34 2.005,38.391 1.775,38.299 1.752,38.254 1.727,38.204 1.7,38.15 1.667,38.05 1.65,37.934 1.65,37.8 v -0.1 z m 16.7,-12.5 c -0.1,0.066 -0.2,0.133 -0.3,0.2 -0.1,0.067 -0.183,0.133 -0.25,0.2 l -0.5,0.3 c -0.033,0.033 -0.083,0.067 -0.15,0.1 l -0.2,0.1 c 0,0.066 0.017,0.133 0.05,0.2 0.033,0.4 0.15,0.684 0.35,0.851 0.066,0.033 0.133,0.066 0.2,0.1 0.2,0.1 0.383,0.116 0.55,0.05 0.033,-0.033 0.066,-0.05 0.1,-0.05 0.3,-0.134 0.6,-0.267 0.9,-0.4 0.133,0.033 0.283,0.05 0.45,0.05 0.333,-0.033 0.65,-0.15 0.95,-0.35 -0.1,-0.033 -0.233,-0.066 -0.4,-0.1 -0.067,-0.034 -0.133,-0.067 -0.2,-0.1 -0.233,-0.1 -0.433,-0.233 -0.6,-0.4 -0.3,-0.333 -0.433,-0.75 -0.4,-1.25 L 18.6,25 c -0.1,0.067 -0.183,0.133 -0.25,0.2 z m 1.4,2.2 c -0.133,0.133 -0.217,0.333 -0.25,0.6 -0.033,0.3 0.083,0.616 0.35,0.95 0.3,0.333 0.683,0.633 1.15,0.899 0.5,0.267 1.05,0.45 1.65,0.551 0.667,0.133 1.317,0.133 1.95,0 h 0.05 c -0.233,0.066 -0.517,0.133 -0.85,0.199 l -1.05,0.15 c -0.633,0.066 -1.233,0.083 -1.8,0.05 -1.5,-0.633 -2.2,-1.434 -2.1,-2.399 0,-0.233 0.066,-0.467 0.2,-0.7 0.233,-0.1 0.467,-0.2 0.7,-0.3 z m 3.45,-1.2 c -0.2,0.133 -0.317,0.35 -0.35,0.65 -0.033,0.3 0.083,0.617 0.35,0.95 0.3,0.334 0.7,0.634 1.2,0.9 0.5,0.3 1.05,0.5 1.65,0.6 0.7,0.134 1.367,0.15 2,0.05 h 0.05 c -0.3,0.101 -0.683,0.184 -1.149,0.25 L 26.2,29.7 c -0.033,0.002 -0.066,0.002 -0.101,0 -0.057,0.003 -0.115,0.003 -0.175,0 h -0.6 c -0.329,0.002 -0.653,-0.015 -0.975,-0.05 -0.031,-0.014 -0.064,-0.03 -0.1,-0.051 -1.465,-0.651 -2.166,-1.436 -2.1,-2.35 0.033,-0.267 0.133,-0.533 0.3,-0.8 0.133,-0.034 0.267,-0.067 0.4,-0.1 0.101,-0.066 0.218,-0.116 0.351,-0.149 z m 3.05,-0.75 c -0.134,0.133 -0.217,0.3 -0.25,0.5 -0.033,0.3 0.1,0.617 0.4,0.95 0.267,0.333 0.649,0.65 1.149,0.95 0.533,0.301 1.101,0.534 1.7,0.7 0.7,0.134 1.366,0.167 2,0.101 h 0.1 c -0.267,0.066 -0.566,0.116 -0.899,0.149 l -0.3,0.05 -0.75,0.05 h -0.1 c -0.066,0 -0.116,0 -0.149,0 l -1.65,-0.15 c -1.533,-0.7 -2.267,-1.517 -2.2,-2.45 0.034,-0.267 0.133,-0.517 0.3,-0.75 h 0.05 l 0.599,-0.1 z m 7.2,2.4 c -0.934,0.067 -1.834,0.034 -2.7,-0.1 -1.6,-0.7 -2.384,-1.483 -2.35,-2.35 0,-0.1 0.017,-0.2 0.05,-0.3 L 29.1,25 v 0.05 c -0.033,0.267 0.101,0.567 0.4,0.9 0.333,0.333 0.75,0.65 1.25,0.95 0.566,0.3 1.15,0.517 1.75,0.65 0.7,0.167 1.384,0.2 2.05,0.101 l 0.05,0.05 c -0.233,0.033 -0.5,0.066 -0.8,0.1 l -0.3,0.05 H 33.45 z M 20.95,31.6 H 21 c -0.3,0.067 -0.65,0.117 -1.05,0.15 -0.034,0 -0.067,0 -0.1,0 l -0.7,0.05 -1.55,-0.15 h -0.05 c -1.267,-0.767 -1.8,-1.601 -1.6,-2.5 0.033,-0.034 0.05,-0.067 0.05,-0.1 h -0.05 c 0.233,-0.1 0.466,-0.217 0.7,-0.35 0,0.033 0,0.083 0,0.149 -0.066,0.267 0,0.567 0.2,0.9 0.2,0.366 0.5,0.7 0.9,1 0.4,0.3 0.867,0.533 1.4,0.7 0.6,0.167 1.2,0.218 1.8,0.151 z m -3.45,0.65 h 0.05 c -0.2,0.066 -0.433,0.134 -0.7,0.2 h -0.2 -0.05 c -0.377,0.065 -0.736,0.099 -1.075,0.1 C 15.163,32.568 14.821,32.551 14.5,32.5 14.474,32.485 14.448,32.469 14.425,32.45 13.475,31.898 13,31.281 13,30.6 c 0.2,-0.1 0.4,-0.216 0.6,-0.35 0.033,0.2 0.1,0.384 0.2,0.55 0.2,0.334 0.483,0.617 0.85,0.851 0.367,0.267 0.783,0.449 1.25,0.55 0.533,0.132 1.067,0.149 1.6,0.049 z m -0.95,7.6 c 0.167,-0.267 0.317,-0.6 0.45,-1 0.333,-0.8 0.467,-1.5 0.4,-2.1 -0.066,-0.833 -0.417,-1.517 -1.05,-2.05 -0.733,-0.634 -1.8,-0.934 -3.2,-0.9 -0.867,0 -2.033,0.217 -3.5,0.65 -0.896,0.256 -1.98,0.623 -3.25,1.1 2.03,-1.097 3.83,-1.746 5.4,-1.95 1,-0.133 1.917,-0.116 2.75,0.051 0.767,0.166 1.417,0.449 1.95,0.85 0.467,0.366 0.833,0.8 1.1,1.3 0.233,0.467 0.35,0.917 0.35,1.351 -0.034,0.699 -0.284,1.366 -0.75,2 -0.2,0.298 -0.417,0.532 -0.65,0.698 z"
       id="path5420"
       inkscape:connector-curvature="0" /><path
       style="fill:#f6e181;fill-rule:evenodd"
       d="m 40.85,23.4 c -0.166,0.2 -0.35,0.4 -0.55,0.6 0.066,-0.1 0.134,-0.183 0.2,-0.25 0.134,-0.133 0.25,-0.25 0.35,-0.35 z m -5.6,-0.6 c 0.333,-0.1 0.75,-0.117 1.25,-0.05 0.233,0.067 0.566,0.15 1,0.25 0.434,0.133 0.75,0.217 0.95,0.25 0.633,0.1 1.267,0.1 1.899,0 0.301,-0.067 0.534,-0.133 0.7,-0.2 -0.366,0.4 -0.833,0.7 -1.399,0.9 -0.5,0.2 -1.051,0.316 -1.65,0.35 -0.566,0.034 -1.083,-0.017 -1.55,-0.15 -0.467,-0.133 -0.8,-0.316 -1,-0.55 -0.233,-0.3 -0.3,-0.567 -0.2,-0.8 z m -0.5,0.3 c -0.033,0.133 -0.066,0.25 -0.1,0.35 -0.101,0.2 -0.217,0.367 -0.351,0.5 h -0.05 c -0.1,0.133 -0.217,0.233 -0.35,0.3 -0.2,-0.033 -0.384,-0.117 -0.551,-0.25 -0.066,-0.067 -0.116,-0.133 -0.149,-0.2 -0.033,-0.033 -0.066,-0.066 -0.101,-0.1 -0.133,-0.267 -0.149,-0.583 -0.05,-0.95 0.134,-0.367 0.367,-0.717 0.7,-1.05 0.4,-0.367 0.85,-0.65 1.35,-0.85 0.601,-0.233 1.25,-0.317 1.95,-0.25 -0.233,0.033 -0.467,0.117 -0.7,0.25 -0.533,0.3 -0.916,0.667 -1.149,1.1 -0.066,0.167 -0.167,0.417 -0.3,0.75 -0.034,0.1 -0.067,0.2 -0.101,0.3 0.002,0.033 -0.015,0.067 -0.048,0.1 z M 25.15,5.05 C 25.35,4.65 25.667,4.267 26.1,3.9 26.267,3.767 26.567,3.567 27,3.3 27.4,3.033 27.684,2.834 27.85,2.7 28.384,2.266 28.817,1.683 29.151,0.95 29.284,0.717 29.384,0.5 29.451,0.3 L 29.5,0 v 0.05 c 0.1,0.767 0.033,1.534 -0.2,2.3 -0.2,0.7 -0.517,1.333 -0.95,1.9 -0.366,0.5 -0.767,0.9 -1.199,1.2 -0.467,0.267 -0.867,0.367 -1.2,0.3 C 25.517,5.65 25.25,5.417 25.15,5.05 z M 25.3,7.1 v 0.05 c 0,0.167 0,0.333 0,0.5 L 25.25,7.7 c -0.033,0.033 -0.067,0.066 -0.1,0.1 -0.133,0.1 -0.3,0.133 -0.5,0.1 -0.1,0 -0.2,-0.017 -0.3,-0.05 -0.033,0 -0.083,-0.017 -0.15,-0.05 -0.3,-0.133 -0.55,-0.45 -0.75,-0.95 -0.2,-0.467 -0.3,-1.033 -0.3,-1.7 0,-0.7 0.133,-1.383 0.4,-2.05 C 23.817,2.367 24.2,1.717 24.7,1.15 L 24.725,1.1 24.75,1.05 V 1.1 l -0.1,0.25 c -0.1,0.233 -0.167,0.467 -0.2,0.7 -0.167,0.767 -0.15,1.5 0.05,2.2 0.033,0.2 0.133,0.533 0.3,1 0.067,0.133 0.133,0.267 0.2,0.4 0,0.067 0.017,0.117 0.05,0.15 v 0.05 l 0.025,0.025 c 0.054,0.163 0.096,0.288 0.125,0.375 0.067,0.3 0.1,0.583 0.1,0.85 z m 4.6,-0.25 c -0.4,0.667 -0.917,1.233 -1.551,1.7 -0.566,0.4 -1.199,0.7 -1.899,0.9 -0.6,0.2 -1.167,0.267 -1.7,0.2 C 24.383,9.617 24.1,9.533 23.9,9.4 23.933,9.334 23.967,9.283 24,9.25 24.033,9.25 24.067,9.233 24.1,9.2 24.467,9.033 24.767,8.766 25,8.4 l 0.15,-0.35 c 0.033,-0.066 0.067,-0.133 0.1,-0.2 0.2,0 0.433,0.017 0.7,0.05 0.467,0.033 0.816,0.05 1.05,0.05 0.7,-0.034 1.4,-0.233 2.1,-0.6 0.334,-0.167 0.6,-0.333 0.8,-0.5 z m -7.15,4.3 c 0.167,0 0.333,0.017 0.5,0.05 0.233,0 0.6,0.05 1.1,0.15 0.233,0.066 0.45,0.117 0.65,0.15 0.133,0 0.267,0.017 0.4,0.05 0.667,0.034 1.383,-0.083 2.15,-0.35 0.334,-0.133 0.617,-0.284 0.851,-0.45 -0.467,0.633 -1.051,1.133 -1.75,1.5 -0.634,0.367 -1.284,0.617 -1.95,0.75 -0.633,0.1 -1.217,0.1 -1.75,0 -0.5,-0.1 -0.85,-0.3 -1.05,-0.6 -0.066,-0.066 -0.117,-0.15 -0.15,-0.25 l 0.75,-1 c 0.099,0 0.182,0 0.249,0 z M 20,14.5 c 0.3,-0.067 0.633,-0.083 1,-0.05 0.1,0 0.2,0.017 0.3,0.05 0.233,0.033 0.583,0.117 1.05,0.25 0.167,0.033 0.333,0.067 0.5,0.1 0.233,0.066 0.417,0.1 0.55,0.1 0.667,0.133 1.383,0.066 2.15,-0.2 0.367,-0.1 0.667,-0.217 0.9,-0.35 -0.5,0.567 -1.117,1.033 -1.85,1.4 -0.633,0.3 -1.3,0.5 -2,0.6 -0.633,0.067 -1.2,0.033 -1.7,-0.1 -0.533,-0.167 -0.883,-0.4 -1.05,-0.7 -0.133,-0.233 -0.184,-0.467 -0.15,-0.7 L 20,14.5 z m 5.4,1.2 c 0.067,-0.1 0.15,-0.2 0.25,-0.3 0.167,-0.2 0.333,-0.383 0.5,-0.55 -0.233,0.267 -0.483,0.55 -0.75,0.85 z m -1.9,1.45 c -0.133,0.1 -0.283,0.184 -0.45,0.25 0.067,-0.033 0.133,-0.066 0.2,-0.1 0.067,-0.033 0.15,-0.083 0.25,-0.15 z M 23,18.9 c 0.1,-0.1 0.217,-0.217 0.35,-0.35 0.167,-0.2 0.333,-0.383 0.5,-0.55 -0.233,0.3 -0.517,0.6 -0.85,0.9 z m -5.4,-1.25 c 0.367,-0.1 0.767,-0.117 1.2,-0.05 0.067,0 0.133,0 0.2,0 0.233,0.033 0.6,0.117 1.1,0.25 0.333,0.1 0.6,0.167 0.8,0.2 0.067,0 0.133,0.017 0.2,0.05 0.7,0.1 1.433,0.017 2.2,-0.25 0.333,-0.1 0.617,-0.217 0.85,-0.35 -0.5,0.6 -1.1,1.067 -1.8,1.4 -0.667,0.333 -1.333,0.533 -2,0.6 -0.667,0.067 -1.25,0.033 -1.75,-0.1 -0.5,-0.133 -0.833,-0.35 -1,-0.65 -0.2,-0.3 -0.25,-0.583 -0.15,-0.85 l 0.15,-0.25 z m -1.75,6.9 c 0.066,0.034 0.133,0.067 0.2,0.1 0.067,0.033 0.133,0.05 0.2,0.05 0.033,0 0.067,0.017 0.1,0.05 0.233,0.033 0.5,0.067 0.8,0.1 0.067,-0.233 0.15,-0.467 0.25,-0.7 l 0.85,-0.25 c 0.033,0 0.067,-0.017 0.1,-0.05 -0.033,0.2 -0.05,0.383 -0.05,0.55 0,0.067 0,0.133 0,0.2 0,0.033 0,0.083 0,0.15 0.233,-0.033 0.434,-0.083 0.6,-0.15 0.032,0 0.066,0 0.1,0 -0.034,10e-4 -0.068,0.018 -0.1,0.05 -0.167,0.133 -0.35,0.267 -0.55,0.4 -0.4,0.233 -0.833,0.417 -1.3,0.55 H 17 c -0.3,0.066 -0.583,0.133 -0.85,0.2 -0.133,0 -0.25,0 -0.35,0 -0.167,0 -0.316,0 -0.45,0 -0.1,0 -0.184,0 -0.25,0 -0.2,0 -0.383,-0.017 -0.55,-0.05 -0.167,-0.033 -0.333,-0.067 -0.5,-0.1 -0.2,-0.066 -0.383,-0.133 -0.55,-0.2 -0.433,-0.2 -0.7,-0.467 -0.8,-0.8 -0.034,-0.033 -0.05,-0.066 -0.05,-0.1 l 0.6,-0.85 c 0.2,0 0.383,0.017 0.55,0.05 0.133,0.033 0.267,0.067 0.4,0.1 0.233,0.066 0.55,0.2 0.95,0.4 0.067,0.033 0.133,0.067 0.2,0.1 0.033,0.033 0.083,0.05 0.15,0.05 0.067,0.033 0.133,0.067 0.2,0.1 0.067,0.033 0.117,0.05 0.15,0.05 z m -0.65,-3.6 c 0.4,-0.1 0.85,-0.1 1.35,0 0.133,0.033 0.284,0.066 0.45,0.1 0.2,0.067 0.4,0.133 0.6,0.2 0.033,0 0.066,0 0.1,0 0.433,0.133 0.75,0.217 0.95,0.25 0.667,0.1 1.383,0.05 2.15,-0.15 0.367,-0.133 0.667,-0.25 0.9,-0.35 -0.5,0.567 -1.117,1.017 -1.85,1.35 -0.367,0.167 -0.733,0.3 -1.1,0.4 -0.167,0.033 -0.333,0.067 -0.5,0.1 -0.133,0 -0.267,0 -0.4,0 v 0.05 c -0.667,0.033 -1.25,-0.017 -1.75,-0.15 -0.5,-0.167 -0.833,-0.4 -1,-0.7 -0.133,-0.267 -0.184,-0.517 -0.15,-0.75 0.1,-0.1 0.183,-0.217 0.25,-0.35 z m 7.65,0 c -0.2,0.167 -0.383,0.367 -0.55,0.6 -0.4,0.534 -0.65,1.083 -0.75,1.65 -0.033,0.167 -0.066,0.433 -0.1,0.8 v 0.05 c 0,0.2 -0.017,0.367 -0.05,0.5 0,0.167 0,0.3 0,0.4 -0.066,0.433 -0.2,0.783 -0.4,1.05 l 1,-0.25 c 0.067,-0.033 0.15,-0.067 0.25,-0.1 l 0.05,0.05 c -0.466,0.133 -0.933,0.283 -1.4,0.45 l 0.05,-0.05 c -0.1,0.033 -0.2,0.05 -0.3,0.05 -0.2,-0.033 -0.383,-0.133 -0.55,-0.3 -0.2,-0.233 -0.3,-0.567 -0.3,-1 0.034,-0.434 0.167,-0.9 0.4,-1.4 0.233,-0.534 0.566,-1.017 1,-1.45 0.467,-0.467 1.017,-0.817 1.65,-1.05 z m -1.15,7.7 c 0.233,0.267 0.417,0.466 0.55,0.6 0.4,0.4 0.917,0.717 1.55,0.95 0.3,0.1 0.567,0.166 0.8,0.2 -0.633,0.133 -1.283,0.133 -1.95,0 -0.6,-0.1 -1.15,-0.284 -1.65,-0.55 -0.467,-0.267 -0.85,-0.566 -1.15,-0.899 -0.267,-0.334 -0.383,-0.65 -0.35,-0.95 0.033,-0.267 0.117,-0.467 0.25,-0.6 0.133,-0.034 0.25,-0.084 0.35,-0.15 0.333,0.134 0.65,0.35 0.95,0.65 0.067,0.066 0.15,0.166 0.25,0.3 0.1,0.1 0.217,0.233 0.35,0.399 l 0.05,0.05 z m 2.6,-3.5 c -0.3,0.033 -0.583,-0.083 -0.85,-0.35 -0.2,-0.233 -0.284,-0.566 -0.25,-1 0.033,-0.433 0.183,-0.883 0.45,-1.35 0.267,-0.5 0.617,-0.934 1.05,-1.3 0.489,-0.424 1.04,-0.724 1.649,-0.9 -0.177,0.146 -0.36,0.33 -0.55,0.55 -0.4,0.467 -0.667,0.967 -0.8,1.5 v 0.05 c -0.033,0.2 -0.067,0.467 -0.1,0.8 -0.033,0.4 -0.066,0.7 -0.1,0.9 -0.033,0.067 -0.05,0.117 -0.05,0.15 -0.099,0.367 -0.249,0.683 -0.449,0.95 z m 3.85,-3 c 0,0.1 0,0.233 0,0.4 -0.067,0.367 -0.117,0.65 -0.15,0.85 0,0.067 -0.017,0.133 -0.05,0.2 -0.101,0.333 -0.25,0.6 -0.45,0.8 -0.3,0.033 -0.583,-0.083 -0.85,-0.35 -0.2,-0.233 -0.284,-0.55 -0.25,-0.95 0.033,-0.434 0.183,-0.883 0.449,-1.35 0.266,-0.467 0.634,-0.867 1.101,-1.2 0.5,-0.4 1.066,-0.667 1.7,-0.8 -0.167,0.133 -0.351,0.3 -0.551,0.5 -0.433,0.433 -0.716,0.917 -0.85,1.45 -0.032,0.1 -0.065,0.25 -0.099,0.45 z m 4.6,-2.3 c -0.2,0.033 -0.4,0.066 -0.6,0.1 -0.067,0 -0.15,0 -0.25,0 0.3,-0.033 0.583,-0.067 0.85,-0.1 z M 31.6,21.9 c -0.033,0.133 -0.066,0.3 -0.1,0.5 -0.066,0.367 -0.116,0.633 -0.15,0.8 -0.033,0.1 -0.066,0.183 -0.1,0.25 0,0.033 -0.017,0.066 -0.05,0.1 -0.101,0.233 -0.25,0.434 -0.45,0.6 -0.1,0 -0.2,-0.017 -0.3,-0.05 -0.2,-0.067 -0.367,-0.2 -0.5,-0.4 -0.2,-0.233 -0.267,-0.55 -0.2,-0.95 0.066,-0.433 0.25,-0.85 0.55,-1.25 0.3,-0.433 0.684,-0.783 1.15,-1.05 0.553,-0.325 1.152,-0.525 1.8,-0.6 h 0.05 c -0.2,0.1 -0.416,0.25 -0.649,0.45 -0.467,0.367 -0.784,0.8 -0.95,1.3 -0.034,0.067 -0.067,0.167 -0.101,0.3 z M 23.8,2 V 2.05 H 23.75 C 23.782,2.049 23.799,2.033 23.8,2 z m -2.15,5.2 c 0.067,0.167 0.167,0.35 0.3,0.55 0.2,0.433 0.35,0.767 0.45,1 0.033,0.1 0.067,0.2 0.1,0.3 0.033,0.067 0.05,0.117 0.05,0.15 0.1,0.333 0.133,0.65 0.1,0.95 -0.1,0.1 -0.2,0.167 -0.3,0.2 -0.2,0.1 -0.45,0.1 -0.75,0 -0.333,-0.1 -0.617,-0.383 -0.85,-0.85 -0.267,-0.433 -0.433,-0.983 -0.5,-1.65 -0.067,-0.7 -0.017,-1.4 0.15,-2.1 0.194,-0.744 0.511,-1.41 0.95,-2 L 21.3,3.9 c -0.033,0.233 -0.066,0.467 -0.1,0.7 -0.067,0.8 0.033,1.533 0.3,2.2 0.033,0.1 0.083,0.233 0.15,0.4 z m -1.55,5.75 c -0.267,0.267 -0.617,0.35 -1.05,0.25 -0.333,-0.067 -0.633,-0.333 -0.9,-0.8 -0.267,-0.433 -0.45,-0.967 -0.55,-1.6 -0.133,-0.7 -0.133,-1.4 0,-2.1 0.132,-0.792 0.407,-1.5 0.825,-2.125 L 18.4,6.75 c -0.033,0.267 -0.066,0.517 -0.1,0.75 0,0.8 0.133,1.517 0.4,2.15 0.066,0.133 0.167,0.3 0.3,0.5 0.067,0.133 0.15,0.267 0.25,0.4 0.233,0.434 0.4,0.767 0.5,1 0.067,0.067 0.117,0.15 0.15,0.25 0.133,0.4 0.2,0.783 0.2,1.15 z m -6.8,16.7 c -0.633,0.333 -1.267,0.699 -1.9,1.1 -1.233,0.7 -2.733,1.65 -4.5,2.85 -0.267,0.2 -0.5,0.367 -0.7,0.5 0.267,-0.399 0.517,-0.783 0.75,-1.149 0.733,-0.5 1.5,-0.983 2.3,-1.45 0.1,-0.066 0.2,-0.116 0.3,-0.15 l 3.1,-1.75 h 0.05 v -0.05 l 0.1,-0.024 0.25,-0.125 c 0.067,0.098 0.15,0.181 0.25,0.248 z M 12.75,29.4 h 0.025 c -0.084,0.041 -0.176,0.075 -0.275,0.1 0.1,-0.033 0.183,-0.066 0.25,-0.1 z m -1.6,-2.7 c 0.133,0.033 0.267,0.066 0.4,0.1 0.2,0.067 0.483,0.184 0.85,0.351 0.3,0.133 0.533,0.216 0.7,0.25 0.033,0.033 0.083,0.05 0.15,0.05 0.033,0.033 0.083,0.05 0.15,0.05 0.233,0.066 0.483,0.116 0.75,0.15 -0.033,-0.233 -0.017,-0.467 0.05,-0.7 l 1.15,-0.15 c 0.035,-10e-4 0.085,-0.018 0.15,-0.05 0.031,0 0.081,-0.017 0.15,-0.05 -0.069,0.035 -0.119,0.068 -0.15,0.1 -0.064,0 -0.115,0 -0.15,0 v 0.05 c 0.033,0.266 0.05,0.483 0.05,0.65 0.067,0 0.117,0 0.15,0 0.1,-0.033 0.2,-0.066 0.3,-0.1 -0.067,0.066 -0.15,0.133 -0.25,0.199 -0.067,0.034 -0.133,0.067 -0.2,0.101 -0.367,0.267 -0.75,0.467 -1.15,0.6 -0.033,0 -0.067,0 -0.1,0 -0.233,0.066 -0.45,0.117 -0.65,0.15 -0.233,0.066 -0.467,0.1 -0.7,0.1 -0.133,0 -0.283,0 -0.45,0 -0.533,-0.033 -1,-0.133 -1.4,-0.3 -0.267,-0.134 -0.45,-0.267 -0.55,-0.4 V 27.8 l 0.75,-1.1 z m 5.15,-2.1 c 0.036,-0.071 0.069,-0.138 0.1,-0.2 h 0.05 c -0.062,0.062 -0.113,0.129 -0.15,0.2 z m 17.05,-0.15 c 0.067,0 0.117,0 0.15,0 l 0.2,-0.1 c 0.033,0 0.066,-0.017 0.1,-0.05 h 0.05 c 0.134,0.133 0.284,0.284 0.45,0.45 0.334,0.267 0.584,0.467 0.75,0.6 0.5,0.4 1.101,0.717 1.8,0.95 0.334,0.1 0.617,0.167 0.851,0.2 -0.634,0.1 -1.3,0.083 -2,-0.05 -0.634,-0.1 -1.25,-0.284 -1.851,-0.55 -0.533,-0.267 -0.966,-0.566 -1.3,-0.9 -0.166,-0.133 -0.3,-0.283 -0.399,-0.45 l 0.5,-0.05 c 0.233,0.033 0.465,0.017 0.699,-0.05 z m -2.65,3.3 h 0.05 c 0.866,0.134 1.767,0.167 2.7,0.1 -0.285,0.034 -0.585,0.051 -0.9,0.051 C 31.917,27.9 31.3,27.85 30.7,27.75 z m 1.05,-1.55 c 0.1,0.1 0.184,0.167 0.25,0.2 0.467,0.434 1.033,0.767 1.7,1 0.333,0.133 0.616,0.216 0.85,0.25 -0.666,0.1 -1.35,0.066 -2.05,-0.101 -0.6,-0.133 -1.184,-0.35 -1.75,-0.65 -0.5,-0.3 -0.917,-0.617 -1.25,-0.95 -0.3,-0.333 -0.434,-0.633 -0.4,-0.9 V 25 l 1.301,-0.15 c 0.1,0.066 0.183,0.133 0.25,0.2 0.166,0.133 0.399,0.367 0.699,0.7 0.167,0.167 0.3,0.317 0.4,0.45 z m 2.85,0.6 c -0.241,-0.008 -0.475,-0.025 -0.699,-0.05 0.033,0 0.066,0 0.1,0 0.192,0.021 0.393,0.038 0.599,0.05 z M 16.2,17.95 h 0.05 c -0.3,0.433 -0.633,0.9 -1,1.4 V 19.3 c -0.067,0.067 -0.133,0.117 -0.2,0.15 -0.233,0.167 -0.517,0.216 -0.85,0.15 -0.333,-0.1 -0.633,-0.367 -0.9,-0.8 -0.3,-0.433 -0.517,-0.966 -0.65,-1.6 -0.133,-0.7 -0.133,-1.4 0,-2.1 0.1,-0.8 0.35,-1.517 0.75,-2.15 v 0.2 c -0.033,0.233 -0.05,0.483 -0.05,0.75 -0.033,0.8 0.1,1.5 0.4,2.1 0.1,0.2 0.267,0.483 0.5,0.85 0.033,0.033 0.05,0.066 0.05,0.1 0.133,0.2 0.25,0.367 0.35,0.5 0.1,0.167 0.167,0.316 0.2,0.45 0.233,0.467 0.367,0.917 0.4,1.35 l 0.95,-1.3 z m -3.55,-3.9 c 0.033,-0.034 0.049,-0.068 0.05,-0.1 V 14 l -0.05,0.05 z m -1.05,2.7 c 0,0.04 0,0.089 0,0.15 l -0.05,0.05 c 0.032,-0.063 0.049,-0.13 0.05,-0.2 z m -0.9,-0.2 v 0.25 c 0,0.2 0.017,0.417 0.05,0.65 0.1,0.767 0.333,1.417 0.7,1.95 0.033,0.033 0.066,0.083 0.1,0.15 0.133,0.133 0.317,0.333 0.55,0.6 0.267,0.333 0.467,0.6 0.6,0.8 0.1,0.1 0.183,0.216 0.25,0.35 0.1,0.2 0.183,0.4 0.25,0.6 l 0.45,-0.6 c 0.1,-0.033 0.2,-0.066 0.3,-0.1 -0.233,0.333 -0.467,0.667 -0.7,1 0,0.033 -0.017,0.05 -0.05,0.05 -0.133,0.2 -0.317,0.317 -0.55,0.35 -0.1,0 -0.2,0 -0.3,0 -0.3,0 -0.617,-0.184 -0.95,-0.55 -0.333,-0.367 -0.6,-0.833 -0.8,-1.4 -0.2,-0.633 -0.3,-1.283 -0.3,-1.95 -0.033,-0.767 0.1,-1.483 0.4,-2.15 z m 1.05,7.85 c -0.2,0.267 -0.417,0.567 -0.65,0.9 0,0.067 0,0.117 0,0.15 -0.067,0.133 -0.167,0.233 -0.3,0.3 -0.133,0.067 -0.3,0.1 -0.5,0.1 C 10,25.817 9.717,25.633 9.45,25.3 9.15,24.967 8.916,24.533 8.75,24 8.55,23.433 8.45,22.85 8.45,22.25 8.483,21.55 8.617,20.9 8.85,20.3 v 0.2 c 0,0.2 0.017,0.417 0.05,0.65 0.1,0.667 0.317,1.25 0.65,1.75 0.1,0.133 0.284,0.367 0.55,0.7 0.267,0.3 0.45,0.533 0.55,0.7 0.133,0.2 0.233,0.4 0.3,0.6 0.133,-0.167 0.267,-0.333 0.4,-0.5 0.133,0 0.267,0 0.4,0 z m 4.6,-11.7 v 0.05 c 0.1,0.2 0.267,0.5 0.5,0.9 0.267,0.4 0.45,0.717 0.55,0.95 0.033,0.066 0.067,0.133 0.1,0.2 0.167,0.434 0.25,0.833 0.25,1.2 -0.267,0.3 -0.617,0.4 -1.05,0.3 -0.333,-0.1 -0.633,-0.367 -0.9,-0.8 -0.267,-0.467 -0.466,-1.017 -0.6,-1.65 -0.1,-0.7 -0.083,-1.4 0.05,-2.1 0.133,-0.767 0.4,-1.483 0.8,-2.15 L 16,9.85 c -0.033,0.233 -0.05,0.467 -0.05,0.7 -0.033,0.8 0.1,1.517 0.4,2.15 z m -1.1,-1.95 c 0.018,-0.019 0.035,-0.044 0.05,-0.075 V 10.7 l -0.05,0.05 z M 9.65,27.4 c -0.467,0.666 -0.967,1.383 -1.5,2.149 -1.566,2.267 -2.767,3.95 -3.6,5.05 C 3.517,36 2.917,36.7 2.75,36.7 2.517,36.733 2.383,36.667 2.35,36.5 2.583,36.134 2.817,35.8 3.05,35.5 3.35,35.1 3.667,34.7 4,34.3 L 6.15,31.45 C 7.084,30.217 8,28.983 8.9,27.75 8.993,27.626 9.085,27.501 9.175,27.375 9.323,27.42 9.481,27.428 9.65,27.4 z m 8.75,-0.95 c -0.033,0.167 -0.066,0.333 -0.1,0.5 l 0.5,-0.2 c 0.1,0.033 0.2,0.067 0.3,0.1 -0.3,0.133 -0.6,0.266 -0.9,0.4 -0.034,0 -0.067,0.017 -0.1,0.05 -0.167,0.066 -0.35,0.05 -0.55,-0.05 -0.066,-0.033 -0.133,-0.066 -0.2,-0.1 -0.2,-0.167 -0.317,-0.45 -0.35,-0.851 -0.033,-0.066 -0.05,-0.133 -0.05,-0.2 l 0.2,-0.1 c 0.067,-0.033 0.117,-0.067 0.15,-0.1 l 0.5,-0.3 c 0.067,-0.067 0.15,-0.133 0.25,-0.2 0.1,-0.066 0.2,-0.133 0.3,-0.2 v 0.05 c 0.033,0.367 0.05,0.65 0.05,0.85 0,0.134 0,0.251 0,0.351 z m 4.35,4.3 c -0.033,0.033 -0.067,0.05 -0.1,0.05 -0.667,0.066 -1.283,0.066 -1.85,0 0.067,0 0.117,0 0.15,0 0.567,0.033 1.167,0.016 1.8,-0.05 z m 0.65,-4.6 c 0.3,0.1 0.583,0.283 0.85,0.55 0.067,0.033 0.117,0.066 0.15,0.1 0.133,0.133 0.35,0.367 0.65,0.7 0.233,0.3 0.417,0.517 0.55,0.65 h 0.05 c 0.015,0.016 0.031,0.032 0.05,0.05 0.391,0.408 0.908,0.725 1.55,0.95 0.3,0.1 0.566,0.166 0.8,0.199 -0.633,0.101 -1.3,0.084 -2,-0.05 -0.6,-0.1 -1.15,-0.3 -1.65,-0.6 -0.5,-0.267 -0.9,-0.566 -1.2,-0.9 -0.267,-0.333 -0.383,-0.649 -0.35,-0.95 0.033,-0.301 0.15,-0.516 0.35,-0.649 0.067,0 0.133,-0.017 0.2,-0.05 z m 7.85,2.5 c -0.634,0.066 -1.3,0.033 -2,-0.101 -0.6,-0.166 -1.167,-0.399 -1.7,-0.7 -0.5,-0.3 -0.883,-0.616 -1.149,-0.95 -0.301,-0.333 -0.434,-0.65 -0.4,-0.95 0.033,-0.2 0.116,-0.367 0.25,-0.5 l 0.5,-0.1 c 0.2,0.133 0.417,0.283 0.65,0.45 0.066,0.067 0.133,0.133 0.199,0.2 0.134,0.133 0.334,0.367 0.601,0.7 0.1,0.1 0.184,0.2 0.25,0.3 0.166,0.167 0.283,0.3 0.35,0.4 0.434,0.399 0.983,0.733 1.65,1 0.299,0.134 0.566,0.217 0.799,0.251 z M 15.425,27.825 c 0.056,-0.057 0.115,-0.114 0.175,-0.175 0.033,0 0.066,-0.017 0.1,-0.051 l 0.2,-0.25 c -0.066,0.134 -0.167,0.25 -0.3,0.351 -0.06,0.03 -0.119,0.071 -0.175,0.125 z M 17.5,28.35 c 0.1,0.067 0.217,0.167 0.35,0.301 0.066,0.066 0.133,0.149 0.2,0.25 0.1,0.133 0.25,0.366 0.45,0.699 0.133,0.233 0.25,0.434 0.35,0.601 0.033,0.033 0.066,0.066 0.1,0.1 0.3,0.434 0.733,0.783 1.3,1.05 0.267,0.101 0.5,0.184 0.7,0.25 -0.6,0.067 -1.2,0.017 -1.8,-0.149 -0.533,-0.167 -1,-0.4 -1.4,-0.7 -0.4,-0.3 -0.7,-0.634 -0.9,-1 -0.2,-0.333 -0.267,-0.634 -0.2,-0.9 0,-0.066 0,-0.116 0,-0.149 0.3,-0.103 0.583,-0.22 0.85,-0.353 z M 15.85,28 c 0.066,0.066 0.167,0.134 0.3,0.2 -0.3,0.133 -0.6,0.267 -0.9,0.399 -0.033,0.067 -0.05,0.117 -0.05,0.15 -0.1,0.066 -0.217,0.083 -0.35,0.05 -0.133,0 -0.25,-0.05 -0.35,-0.149 -0.033,0 -0.067,-0.017 -0.1,-0.051 l 0.35,-0.25 c 0.1,-0.066 0.2,-0.133 0.3,-0.199 0.133,-0.101 0.25,-0.2 0.35,-0.301 0,0.134 -0.017,0.267 -0.05,0.4 0.167,-0.065 0.333,-0.149 0.5,-0.249 z m -2.25,2.25 c 0.367,-0.167 0.717,-0.35 1.05,-0.55 0.1,0.066 0.184,0.149 0.25,0.25 0.1,0.133 0.233,0.333 0.4,0.6 0.167,0.3 0.3,0.517 0.4,0.65 0.3,0.366 0.7,0.649 1.2,0.85 0.233,0.101 0.434,0.167 0.6,0.2 -0.533,0.1 -1.067,0.083 -1.6,-0.05 C 15.433,32.099 15.017,31.917 14.65,31.65 14.283,31.417 14,31.134 13.8,30.8 13.7,30.634 13.633,30.45 13.6,30.25 z m 3.05,2.2 c -0.233,0.066 -0.483,0.1 -0.75,0.1 -0.131,0.008 -0.256,0.008 -0.375,0 0.339,-10e-4 0.698,-0.034 1.075,-0.1 h 0.05 z"
       id="path5422"
       inkscape:connector-curvature="0" /><path
       style="fill:#aa9740;fill-rule:evenodd"
       d="m 38.7,25.05 c -0.066,0.034 -0.117,0.05 -0.15,0.05 l -1.15,0.35 c -0.267,0.066 -0.551,0.117 -0.851,0.15 -0.5,0.033 -0.934,-0.05 -1.3,-0.25 -0.366,-0.167 -0.634,-0.4 -0.8,-0.7 -0.066,-0.133 -0.117,-0.267 -0.15,-0.4 l -0.45,0.05 H 33.8 c 0.034,-0.001 0.068,-0.018 0.101,-0.05 0.133,-0.067 0.25,-0.167 0.35,-0.3 h 0.05 c 0.134,-0.133 0.25,-0.3 0.351,-0.5 0.033,-0.1 0.066,-0.217 0.1,-0.35 v 0.05 c 0.033,0.1 0.066,0.2 0.1,0.3 0.034,0.167 0.101,0.333 0.2,0.5 0.033,0.066 0.084,0.133 0.15,0.2 0,0.033 0.017,0.067 0.05,0.1 0.657,0.756 1.782,1.022 3.375,0.8 0.025,0.003 0.05,0.003 0.073,0 z M 25.3,7.65 c 0,-0.167 0,-0.333 0,-0.5 L 25.35,7.1 H 25.3 C 25.3,6.833 25.267,6.55 25.2,6.25 25.171,6.163 25.129,6.038 25.075,5.875 c 0.091,0.089 0.183,0.164 0.275,0.225 0.167,0.167 0.35,0.283 0.55,0.35 0.1,0.033 0.183,0.066 0.25,0.1 0.066,0 0.116,0.017 0.149,0.05 1.101,0.233 2.167,-0.5 3.2,-2.2 -0.017,0.067 -0.033,0.133 -0.05,0.2 L 28.3,6.9 c -0.333,0.467 -0.717,0.767 -1.149,0.9 -0.4,0.1 -0.784,0.067 -1.15,-0.1 -0.167,-0.1 -0.333,-0.217 -0.5,-0.35 -0.068,0.1 -0.134,0.2 -0.201,0.3 z m 1.95,2.6 c -0.1,0.092 -0.2,0.175 -0.3,0.25 l -1.95,1 c -0.2,-0.033 -0.417,-0.083 -0.65,-0.15 -0.5,-0.1 -0.867,-0.15 -1.1,-0.15 -0.167,-0.034 -0.333,-0.05 -0.5,-0.05 -0.033,-0.033 -0.067,-0.083 -0.1,-0.15 l -0.15,0.15 -0.75,1 -0.45,0.6 c 0.067,0.2 0.15,0.367 0.25,0.5 0.616,0.907 1.832,1.14 3.65,0.7 0.033,-0.008 0.066,-0.017 0.1,-0.025 0.013,-0.011 0.03,-0.02 0.05,-0.025 -0.033,0.033 -0.083,0.05 -0.15,0.05 l -2.25,0.9 c -0.034,0 -0.067,0 -0.1,0 -0.167,-0.033 -0.333,-0.067 -0.5,-0.1 C 21.883,14.617 21.533,14.533 21.3,14.5 21.2,14.467 21.1,14.45 21,14.45 20.8,14.283 20.667,14.083 20.6,13.85 20.567,13.817 20.55,13.783 20.55,13.75 L 20,14.5 l -0.3,0.4 -0.5,0.7 c 0.033,0.333 0.133,0.617 0.3,0.85 0.567,0.966 1.817,1.25 3.75,0.85 -0.067,0.034 -0.133,0.067 -0.2,0.1 l -2.15,0.65 c -0.2,-0.033 -0.467,-0.1 -0.8,-0.2 -0.5,-0.133 -0.867,-0.217 -1.1,-0.25 -0.067,0 -0.133,0 -0.2,0 C 18.633,17.433 18.517,17.233 18.45,17 18.416,16.867 18.4,16.75 18.4,16.65 l -0.8,1 -0.15,0.25 -0.55,0.7 c 0.033,0.367 0.133,0.7 0.3,1 0.562,0.959 1.795,1.242 3.7,0.85 h 0.05 c -0.067,0.033 -0.117,0.05 -0.15,0.05 l -2.45,0.75 H 18.3 c -0.2,0.033 -0.4,0.033 -0.6,0 -0.034,0 -0.067,0 -0.1,0 -0.2,-0.067 -0.4,-0.133 -0.6,-0.2 L 16.9,21 C 16.533,20.8 16.3,20.5 16.2,20.1 H 16.15 C 16.117,19.967 16.1,19.833 16.1,19.7 l -0.9,1.25 c -0.067,0.133 -0.15,0.25 -0.25,0.35 -0.25,0.354 -0.5,0.712 -0.75,1.075 0.082,-0.114 0.166,-0.222 0.25,-0.325 0.033,0.3 0.117,0.583 0.25,0.85 0.267,0.5 0.733,0.817 1.4,0.95 0.2,0.066 0.417,0.1 0.65,0.1 0.233,0.033 0.467,0.033 0.7,0 0.3,-0.034 0.6,-0.067 0.9,-0.1 -0.033,0.033 -0.067,0.05 -0.1,0.05 L 17.4,24.15 16.45,24.4 H 16.4 l -0.55,0.15 c -0.033,0 -0.083,-0.017 -0.15,-0.05 -0.067,-0.033 -0.133,-0.067 -0.2,-0.1 -0.067,0 -0.117,-0.017 -0.15,-0.05 -0.067,-0.033 -0.133,-0.067 -0.2,-0.1 -0.4,-0.2 -0.717,-0.333 -0.95,-0.4 -0.133,-0.033 -0.267,-0.067 -0.4,-0.1 -0.066,-0.1 -0.117,-0.217 -0.15,-0.35 0,-0.066 -0.017,-0.133 -0.05,-0.2 -0.116,0.167 -0.232,0.334 -0.35,0.5 l -0.6,0.85 c -0.162,0.227 -0.32,0.469 -0.475,0.725 0.017,0.055 0.025,0.097 0.025,0.125 0.2,0.533 0.617,0.917 1.25,1.15 0.033,0 0.066,0 0.1,0 0.2,0.067 0.434,0.117 0.7,0.15 0.333,0.066 0.7,0.083 1.1,0.05 0.033,0 0.083,0 0.15,0 -0.065,0.032 -0.115,0.049 -0.15,0.05 l -1.15,0.15 -0.75,0.1 c -0.034,0.167 -0.05,0.316 -0.05,0.45 -0.066,0 -0.117,-0.017 -0.15,-0.05 -0.067,0 -0.117,-0.017 -0.15,-0.05 l 0.15,-0.351 -0.3,0.05 c -0.534,-0.033 -0.967,-0.2 -1.3,-0.5 -0.1,-0.067 -0.183,-0.15 -0.25,-0.25 l -0.25,0.35 -0.75,1.1 c -0.167,0.267 -0.333,0.517 -0.5,0.75 0.467,0.634 1.417,0.917 2.85,0.851 -0.067,0.033 -0.15,0.066 -0.25,0.1 l -1.55,0.25 c -0.167,0 -0.333,0 -0.5,0 C 9.983,29.717 9.617,29.6 9.35,29.4 8.517,30.599 7.717,31.783 6.95,32.95 6.717,33.316 6.467,33.7 6.2,34.1 c -0.3,0.434 -0.583,0.884 -0.85,1.351 0.2,-0.167 0.433,-0.351 0.7,-0.55 0.9,-0.667 1.6,-1.2 2.1,-1.601 0.967,-0.7 1.833,-1.283 2.6,-1.75 0.867,-0.566 1.933,-1.166 3.2,-1.8 -0.2,0.033 -0.383,0 -0.55,-0.1 -0.033,0 -0.066,0 -0.1,0 C 13.2,29.583 13.117,29.5 13.05,29.4 L 12.8,29.525 V 29.5 c 0.067,-0.066 0.133,-0.116 0.2,-0.15 V 29.3 l 0.85,-0.399 0.05,0.05 C 13.933,28.983 13.967,29 14,29 l 0.05,0.05 0.2,0.05 c 0,0.034 0.017,0.051 0.05,0.051 l 0.2,0.05 h 0.05 c 0.133,0 0.25,0 0.35,0 -0.033,0.033 -0.083,0.083 -0.15,0.149 0.1,-0.066 0.2,-0.116 0.3,-0.149 2.067,-1 4.034,-1.834 5.9,-2.5 1.233,-0.434 2.5,-0.817 3.8,-1.15 0.333,-0.1 0.683,-0.2 1.05,-0.3 0.1,0 0.2,-0.017 0.3,-0.05 0.134,-0.034 0.267,-0.067 0.4,-0.1 0.4,-0.1 0.767,-0.184 1.1,-0.25 0.367,-0.067 0.7,-0.133 1,-0.2 0.267,-0.033 0.483,-0.066 0.65,-0.1 -0.2,-0.033 -0.366,-0.083 -0.5,-0.15 -0.134,0 -0.267,0.017 -0.4,0.05 -0.133,0 -0.25,0.017 -0.35,0.05 0.167,-0.1 0.35,-0.167 0.55,-0.2 -0.066,-0.066 -0.133,-0.133 -0.2,-0.2 -0.199,-0.133 -0.333,-0.3 -0.399,-0.5 0.033,-0.067 0.05,-0.133 0.05,-0.2 0.033,-0.2 0.083,-0.483 0.15,-0.85 0,-0.167 0,-0.3 0,-0.4 l 1.1,-1.15 c 0.055,-0.034 0.113,-0.067 0.175,-0.1 0.105,-0.066 0.214,-0.133 0.325,-0.2 v 0.025 L 29,23.45 c 0.033,0.066 0.066,0.117 0.1,0.15 0.034,0.033 0.051,0.066 0.051,0.1 l 0.649,0.5 v 0.05 h 0.05 c 0.067,0.033 0.117,0.067 0.15,0.1 0.1,0.033 0.184,0.066 0.25,0.1 0.066,-0.034 0.116,-0.05 0.15,-0.05 l 0.199,-0.15 c 0.067,-0.033 0.117,-0.067 0.15,-0.1 0.2,-0.167 0.35,-0.367 0.45,-0.6 0.033,-0.033 0.05,-0.066 0.05,-0.1 0.033,-0.067 0.066,-0.15 0.1,-0.25 0.034,-0.167 0.084,-0.434 0.15,-0.8 0.033,-0.2 0.066,-0.367 0.1,-0.5 l 1.2,-0.85 c 0.16,-0.08 0.327,-0.146 0.5,-0.2 -1.1,0.9 -1.45,1.75 -1.05,2.55 0,0.033 0.017,0.067 0.05,0.1 0.101,0.2 0.25,0.383 0.45,0.55 0.066,0.067 0.134,0.117 0.2,0.15 0.1,0.1 0.2,0.167 0.3,0.2 0.033,0.033 0.066,0.05 0.1,0.05 -0.233,0.066 -0.466,0.083 -0.699,0.05 l -0.5,0.05 -0.75,0.15 c 0.166,0.8 1.033,1.483 2.6,2.05 -0.033,0 -0.066,0 -0.1,0 L 33.4,26.7 c -0.567,-0.133 -1.117,-0.3 -1.65,-0.5 -0.1,-0.133 -0.233,-0.284 -0.4,-0.45 -0.3,-0.333 -0.533,-0.567 -0.699,-0.7 -0.067,-0.066 -0.15,-0.133 -0.25,-0.2 L 29.1,25 28.451,25.1 c -0.033,0.1 -0.05,0.2 -0.05,0.3 -0.034,0.867 0.75,1.65 2.35,2.35 H 30.7 l -0.45,-0.1 C 29.616,27.516 29.017,27.299 28.45,27 28.384,26.9 28.3,26.8 28.2,26.7 27.933,26.367 27.733,26.133 27.599,26 27.533,25.933 27.466,25.867 27.4,25.8 c -0.034,-0.167 -0.034,-0.35 0,-0.55 l -0.65,0.1 -0.5,0.1 -0.6,0.1 H 25.6 c -0.167,0.233 -0.267,0.483 -0.3,0.75 -0.066,0.934 0.667,1.75 2.2,2.45 L 27.25,28.7 25.8,28.25 C 25.765,28.232 25.732,28.216 25.7,28.2 25.681,28.182 25.664,28.166 25.65,28.15 H 25.6 C 25.467,28.016 25.283,27.799 25.05,27.5 24.75,27.167 24.533,26.933 24.4,26.8 24.367,26.767 24.317,26.734 24.25,26.7 V 26.65 L 24.3,26.2 v -0.05 h 0.05 c 0.033,-0.1 0.066,-0.2 0.1,-0.3 -0.333,0.1 -0.684,0.2 -1.05,0.3 -0.066,0.033 -0.133,0.05 -0.2,0.05 -0.133,0.033 -0.25,0.083 -0.35,0.15 -0.133,0.033 -0.267,0.066 -0.4,0.1 -0.167,0.267 -0.267,0.533 -0.3,0.8 -0.065,0.914 0.635,1.698 2.1,2.35 0.036,0.021 0.069,0.037 0.1,0.051 -0.067,0 -0.117,-0.017 -0.15,-0.051 h -0.15 c -0.7,-0.133 -1.35,-0.35 -1.95,-0.649 -0.167,-0.101 -0.3,-0.2 -0.4,-0.3 L 21.65,28.6 c -0.133,-0.166 -0.25,-0.3 -0.35,-0.399 0,-0.033 -0.017,-0.084 -0.05,-0.15 -0.133,-0.3 -0.15,-0.6 -0.05,-0.899 0.033,-0.134 0.083,-0.234 0.15,-0.3 -0.033,0 -0.067,0 -0.1,0 l -1.15,0.4 c -0.1,0.066 -0.217,0.116 -0.35,0.15 -0.233,0.1 -0.467,0.199 -0.7,0.3 -0.133,0.233 -0.2,0.467 -0.2,0.7 -0.1,0.966 0.6,1.767 2.1,2.399 -0.034,0 -0.083,0 -0.15,0 l -0.35,-0.1 c -0.6,-0.101 -1.133,-0.267 -1.6,-0.5 -0.1,-0.167 -0.217,-0.367 -0.35,-0.601 -0.2,-0.333 -0.35,-0.566 -0.45,-0.699 -0.066,-0.101 -0.133,-0.184 -0.2,-0.25 0,-0.101 0.017,-0.217 0.05,-0.351 0,-0.066 0.017,-0.116 0.05,-0.149 L 17.5,28.35 c -0.267,0.134 -0.55,0.25 -0.85,0.351 -0.233,0.133 -0.467,0.25 -0.7,0.35 H 16 c 0,0.033 -0.017,0.066 -0.05,0.101 -0.2,0.899 0.333,1.733 1.6,2.5 -0.733,-0.167 -1.367,-0.467 -1.9,-0.9 -0.333,-0.267 -0.533,-0.566 -0.6,-0.9 -0.033,-0.1 -0.05,-0.199 -0.05,-0.3 -0.1,0.033 -0.217,0.084 -0.35,0.15 -0.333,0.2 -0.683,0.383 -1.05,0.55 -0.2,0.134 -0.4,0.25 -0.6,0.35 0,0.682 0.475,1.299 1.425,1.851 0.023,0.019 0.049,0.035 0.075,0.05 -0.033,0 -0.067,-0.017 -0.1,-0.05 L 14,32.4 c -0.433,-0.134 -0.833,-0.334 -1.2,-0.601 -0.267,-0.2 -0.45,-0.45 -0.55,-0.75 -2,1.2 -3.867,2.5 -5.6,3.9 -0.473,0.379 -0.965,0.804 -1.475,1.274 l 0.1,-0.074 c 0.084,-0.034 0.159,-0.067 0.225,-0.101 0.307,-0.179 0.607,-0.346 0.9,-0.5 1.27,-0.477 2.354,-0.844 3.25,-1.1 1.467,-0.434 2.633,-0.65 3.5,-0.65 1.4,-0.033 2.467,0.267 3.2,0.9 0.633,0.533 0.983,1.217 1.05,2.05 0.067,0.6 -0.066,1.3 -0.4,2.1 -0.133,0.4 -0.283,0.733 -0.45,1 0.133,-0.267 0.25,-0.6 0.35,-1 0.2,-0.767 0.267,-1.416 0.2,-1.949 -0.267,-1.4 -1.1,-2.217 -2.5,-2.45 -1.133,-0.2 -2.633,0 -4.5,0.6 -0.9,0.3 -1.833,0.667 -2.8,1.101 0.1,0 0.2,-0.017 0.3,-0.051 2.066,-0.433 3.617,-0.366 4.65,0.2 1.033,0.533 1.733,1.017 2.1,1.45 0.2,0.233 0.283,0.4 0.25,0.5 -0.1,-0.167 -0.283,-0.35 -0.55,-0.55 -0.5,-0.4 -1.1,-0.717 -1.8,-0.95 -1.867,-0.634 -4.1,-0.55 -6.7,0.25 -0.767,0.4 -1.4,0.75 -1.9,1.05 C 3.55,38.282 3.433,38.483 3.3,38.65 3.2,38.716 3.084,38.766 2.95,38.799 2.65,38.9 2.367,38.883 2.1,38.749 l -0.3,-0.4 c -0.033,0 -0.05,-0.017 -0.05,-0.05 H 1.775 C 2.005,38.391 2.263,38.34 2.55,38.15 2.65,38.083 2.734,38.016 2.8,37.95 2.933,37.816 3.084,37.667 3.25,37.5 3.45,37.267 3.667,37 3.9,36.7 4,36.533 4.1,36.384 4.2,36.25 4.267,36.184 4.333,36.1 4.4,36 c 0.2,-0.3 0.483,-0.733 0.85,-1.3 0.2,-0.3 0.417,-0.65 0.65,-1.05 0.033,0 0.05,-0.017 0.05,-0.051 0.8,-1.233 1.45,-2.216 1.95,-2.949 0.7,-0.967 1.533,-2.134 2.5,-3.5 -0.2,0.133 -0.417,0.216 -0.65,0.25 -0.033,0 -0.067,0 -0.1,0 C 9.482,27.427 9.323,27.42 9.175,27.375 9.085,27.501 8.993,27.626 8.9,27.75 8.933,27.684 8.967,27.634 9,27.6 9.031,27.507 9.073,27.432 9.125,27.375 L 9.15,27.35 H 9.1 L 8.9,27.25 8.85,27.2 C 8.517,27 8.267,26.666 8.1,26.2 v -0.05 l -0.3,-2.1 c 0,-0.05 0,-0.1 0,-0.15 0.4,1.6 1.067,2.45 2,2.55 h 0.3 c 0.033,0 0.066,-0.017 0.1,-0.05 0.033,0 0.083,0 0.15,0 0.1,-0.033 0.217,-0.066 0.35,-0.1 0.167,-0.066 0.3,-0.15 0.4,-0.25 v 0.05 l -0.05,0.15 c 1.3,-1.8 2.85,-3.933 4.65,-6.4 0.133,-0.2 0.283,-0.4 0.45,-0.6 0.267,-0.367 0.517,-0.717 0.75,-1.05 0.067,-0.1 0.133,-0.2 0.2,-0.3 0.467,-0.667 0.917,-1.267 1.35,-1.8 0.267,-0.367 0.517,-0.7 0.75,-1 0.066,-0.133 0.133,-0.25 0.2,-0.35 0.4,-0.533 0.75,-1 1.05,-1.4 0.3,-0.4 0.55,-0.733 0.75,-1 0.2,-0.233 0.367,-0.434 0.5,-0.6 h -0.05 c -0.167,0.133 -0.35,0.217 -0.55,0.25 -0.1,0.1 -0.2,0.217 -0.3,0.35 -0.066,0.1 -0.15,0.2 -0.25,0.3 0.067,-0.233 0.184,-0.433 0.35,-0.6 -0.1,0 -0.217,0 -0.35,0 -0.233,-0.033 -0.45,-0.117 -0.65,-0.25 -0.033,-0.1 -0.083,-0.183 -0.15,-0.25 -0.1,-0.233 -0.267,-0.566 -0.5,-1 -0.1,-0.133 -0.183,-0.267 -0.25,-0.4 L 19.2,7.6 c 0.061,1.875 0.611,2.975 1.65,3.3 0.333,0.133 0.7,0.167 1.1,0.1 H 22 c 0.033,0 0.083,-0.017 0.15,-0.05 0.133,-0.034 0.233,-0.067 0.3,-0.1 0.033,-0.033 0.066,-0.083 0.1,-0.15 l 0.05,-0.25 c 0.033,-0.1 0.05,-0.2 0.05,-0.3 0.033,-0.3 0,-0.617 -0.1,-0.95 C 22.55,9.166 22.533,9.117 22.5,9.05 22.467,8.95 22.433,8.85 22.4,8.75 22.3,8.517 22.15,8.183 21.95,7.75 21.817,7.55 21.717,7.367 21.65,7.2 L 22.1,4.8 c 0.012,-0.05 0.029,-0.1 0.05,-0.15 -0.167,1.867 0.217,3.05 1.15,3.55 0.034,0.033 0.067,0.05 0.1,0.05 0.233,0.133 0.483,0.2 0.75,0.2 0.133,0 0.25,0 0.35,0 0.033,0 0.083,0 0.15,0 C 24.783,8.45 24.9,8.433 25,8.4 24.767,8.767 24.467,9.033 24.1,9.2 24.067,9.233 24.033,9.25 24,9.25 23.967,9.283 23.933,9.333 23.9,9.4 23.767,9.567 23.633,9.733 23.5,9.9 23.467,9.933 23.433,9.983 23.4,10.05 v 0.05 c 0.733,0.833 2.017,0.883 3.85,0.15 z M 22.6,22.1 c 0.132,-0.113 0.265,-0.23 0.4,-0.35 -0.824,1.344 -0.941,2.377 -0.35,3.1 0.2,0.2 0.45,0.367 0.75,0.5 0,0.033 0.017,0.05 0.05,0.05 0.133,0.067 0.267,0.1 0.4,0.1 -0.3,0.2 -0.633,0.3 -1,0.3 -0.2,0 -0.383,-0.033 -0.55,-0.1 l -0.05,-0.05 c -0.1,-0.033 -0.2,-0.083 -0.3,-0.15 -0.267,-0.2 -0.434,-0.467 -0.5,-0.8 0,-0.034 -0.017,-0.083 -0.05,-0.15 0.033,-0.133 0.05,-0.3 0.05,-0.5 V 24 c 0.033,-0.167 0.1,-0.333 0.2,-0.5 L 22.6,22.1 z M 26.25,21 c -0.016,0.022 -0.032,0.048 -0.05,0.075 -0.856,1.263 -0.973,2.254 -0.35,2.975 0.2,0.233 0.466,0.417 0.8,0.55 v 0.05 h 0.05 c 0.033,0 0.05,0.017 0.05,0.05 0.1,0.033 0.2,0.05 0.3,0.05 -0.3,0.2 -0.633,0.283 -1,0.25 -0.167,-0.033 -0.316,-0.067 -0.45,-0.1 -0.1,-0.033 -0.184,-0.066 -0.25,-0.1 H 25.3 c -0.033,-0.033 -0.066,-0.066 -0.1,-0.1 l -0.05,-0.05 c -0.167,-0.133 -0.3,-0.283 -0.4,-0.45 0,-0.034 0.017,-0.083 0.05,-0.15 0.034,-0.2 0.067,-0.5 0.1,-0.9 0.033,-0.333 0.067,-0.6 0.1,-0.8 l 0.375,-0.525 C 25.618,21.531 25.909,21.255 26.25,21 z M 23.35,9.4 c -0.1,0 -0.217,-0.017 -0.35,-0.05 0.033,0.1 0.083,0.2 0.15,0.3 L 23.35,9.4 z M 3.05,34.35 c -0.1,0.266 -0.183,0.55 -0.25,0.85 -0.167,0.533 -0.333,1 -0.5,1.399 -0.1,0.167 -0.2,0.317 -0.3,0.45 -0.133,0.267 -0.25,0.483 -0.35,0.65 0.1,-0.4 0.2,-0.867 0.3,-1.4 0.2,-1.1 0.3,-2.017 0.3,-2.75 C 2.217,32.615 2.067,31.683 1.8,30.749 1.5,29.783 1.2,29.2 0.9,29 0.633,28.833 0.4,28.783 0.2,28.85 c -0.067,0 -0.117,0.017 -0.15,0.051 L 0,28.95 C 0.067,28.849 0.15,28.766 0.25,28.7 0.483,28.533 0.733,28.516 1,28.65 c 0.233,0.066 0.467,0.25 0.7,0.55 0.333,0.366 0.617,0.85 0.85,1.45 0.367,1 0.533,2.234 0.5,3.7 z M 31.4,24.15 31.7,24.1 c -0.101,-0.067 -0.184,-0.15 -0.25,-0.25 -0.033,0.1 -0.05,0.2 -0.05,0.3 z m -16.75,-6.7 c -0.1,-0.133 -0.217,-0.3 -0.35,-0.5 0,-0.034 -0.017,-0.067 -0.05,-0.1 -0.067,-0.167 -0.117,-0.367 -0.15,-0.6 -0.033,-0.2 -0.067,-0.383 -0.1,-0.55 l 0.1,-2.05 c 0.017,-0.05 0.033,-0.1 0.05,-0.15 0.133,1.967 0.75,3.1 1.85,3.4 0.333,0.067 0.683,0.067 1.05,0 h 0.05 c 0.2,-0.066 0.367,-0.133 0.5,-0.2 -0.167,0.4 -0.417,0.733 -0.75,1 -0.2,0.133 -0.4,0.216 -0.6,0.25 H 16.2 C 16.067,17.983 15.933,18 15.8,18 c -0.4,0 -0.75,-0.133 -1.05,-0.4 -0.033,-0.067 -0.067,-0.117 -0.1,-0.15 z m -3.1,2.1 c 0,-0.066 0,-0.133 0,-0.2 v -2.4 L 11.6,16.9 c 0.2,1.934 0.833,3.033 1.9,3.3 0.3,0.066 0.633,0.066 1,0 0.033,0 0.067,-0.017 0.1,-0.05 h 0.05 C 14.85,20.117 15,20.067 15.1,20 c -0.133,0.4 -0.367,0.733 -0.7,1 -0.167,0.1 -0.316,0.167 -0.45,0.2 -0.1,0.033 -0.2,0.066 -0.3,0.1 -0.1,0.034 -0.217,0.05 -0.35,0.05 -0.133,0 -0.25,-0.017 -0.35,-0.05 -0.067,-0.133 -0.15,-0.25 -0.25,-0.35 -0.133,-0.2 -0.333,-0.467 -0.6,-0.8 -0.233,-0.267 -0.417,-0.467 -0.55,-0.6 z m -2,0.975 c 0.471,1.75 1.221,2.675 2.25,2.775 0.1,0 0.2,0 0.3,0 0.167,-0.033 0.316,-0.066 0.45,-0.1 0.1,-0.034 0.184,-0.067 0.25,-0.1 0.167,-0.067 0.317,-0.15 0.45,-0.25 -0.1,0.4 -0.283,0.75 -0.55,1.05 -0.267,0.267 -0.567,0.417 -0.9,0.45 l -0.05,0.05 c -0.133,0 -0.267,0 -0.4,0 -0.2,-0.033 -0.4,-0.117 -0.6,-0.25 -0.333,-0.233 -0.6,-0.6 -0.8,-1.1 V 23 L 9.9,22.95 9.55,20.65 c 0,-0.042 0,-0.084 0,-0.125 z M 18.7,14.85 c -0.167,0.066 -0.35,0.1 -0.55,0.1 -0.233,0 -0.45,-0.05 -0.65,-0.15 -0.033,-0.066 -0.067,-0.133 -0.1,-0.2 -0.1,-0.233 -0.283,-0.55 -0.55,-0.95 -0.233,-0.4 -0.4,-0.7 -0.5,-0.9 V 12.7 c -0.057,-0.737 -0.007,-1.487 0.15,-2.25 0.167,1.966 0.783,3.083 1.85,3.35 0.333,0.1 0.7,0.1 1.1,0 h 0.2 l 0.2,-0.1 h 0.05 c 0,-0.034 0.017,-0.05 0.05,-0.05 -0.167,0.4 -0.417,0.717 -0.75,0.95 -0.167,0.133 -0.333,0.217 -0.5,0.25 z m -2.25,9.55 c -0.034,0.1 -0.067,0.217 -0.1,0.35 -0.033,-0.033 -0.067,-0.05 -0.1,-0.05 l 0.05,-0.1 c 0.037,-0.071 0.088,-0.138 0.15,-0.2 z m 2.45,0.2 c -0.167,0.066 -0.367,0.117 -0.6,0.15 0,-0.067 0,-0.117 0,-0.15 l 0.65,-1.1 0.35,-0.2 c -0.233,0.5 -0.367,0.933 -0.4,1.3 z m -0.55,0.6 C 18.416,25.133 18.5,25.067 18.6,25 l 0.3,-0.3 c -0.033,0.5 0.1,0.917 0.4,1.25 0.167,0.167 0.367,0.3 0.6,0.4 0.067,0.033 0.133,0.066 0.2,0.1 0.167,0.033 0.3,0.066 0.4,0.1 -0.3,0.2 -0.617,0.317 -0.95,0.35 -0.167,0 -0.316,-0.017 -0.45,-0.05 -0.1,-0.033 -0.2,-0.067 -0.3,-0.1 -0.066,-0.033 -0.117,-0.067 -0.15,-0.1 -0.1,-0.066 -0.183,-0.133 -0.25,-0.2 0,-0.1 0,-0.217 0,-0.35 0,-0.2 -0.017,-0.483 -0.05,-0.85 V 25.2 z m -2.5,2.8 c -0.1,-0.1 -0.184,-0.2 -0.25,-0.3 0.133,-0.101 0.233,-0.217 0.3,-0.351 L 15.85,27.4 c -0.1,0.033 -0.2,0.066 -0.3,0.1 -0.066,-0.233 -0.083,-0.467 -0.05,-0.7 0.031,-0.031 0.081,-0.064 0.15,-0.1 l 0.5,-0.2 c 0.067,0.4 0.25,0.7 0.55,0.9 0.066,0.066 0.133,0.116 0.2,0.149 0.1,0.033 0.217,0.066 0.35,0.101 0.067,0.033 0.133,0.05 0.2,0.05 0.167,0.033 0.3,0.05 0.4,0.05 -0.233,0.233 -0.517,0.4 -0.85,0.5 -0.3,0.066 -0.583,0.05 -0.85,-0.05 -0.133,-0.066 -0.233,-0.134 -0.3,-0.2 z"
       id="path5424"
       inkscape:connector-curvature="0" /></g></svg>