<?xml version="1.0" encoding="UTF-8" standalone="no"?>
<!-- Generator: Adobe Illustrator 15.1.0, SVG Export Plug-In . SVG Version: 6.00 Build 0)  -->

<svg
   xmlns:dc="http://purl.org/dc/elements/1.1/"
   xmlns:cc="http://creativecommons.org/ns#"
   xmlns:rdf="http://www.w3.org/1999/02/22-rdf-syntax-ns#"
   xmlns:svg="http://www.w3.org/2000/svg"
   xmlns="http://www.w3.org/2000/svg"
   xmlns:xlink="http://www.w3.org/1999/xlink"
   xmlns:sodipodi="http://sodipodi.sourceforge.net/DTD/sodipodi-0.dtd"
   xmlns:inkscape="http://www.inkscape.org/namespaces/inkscape"
   version="1.1"
   x="0px"
   y="0px"
   width="71.700996"
   height="67.192863"
   viewBox="0 0 71.700996 67.192863"
   xml:space="preserve"
   id="svg4035"
   inkscape:version="0.48.5 r10040"
   sodipodi:docname="lazy salad.svg"><metadata
     id="metadata4236"><rdf:RDF><cc:Work
         rdf:about=""><dc:format>image/svg+xml</dc:format><dc:type
           rdf:resource="http://purl.org/dc/dcmitype/StillImage" /></cc:Work></rdf:RDF></metadata><defs
     id="defs4234"><linearGradient
       y2="14.2999"
       x2="39.996498"
       y1="29.2749"
       x1="39.916"
       gradientUnits="userSpaceOnUse"
       id="SVGID_11_"><stop
         id="stop4139"
         style="stop-color:#C9AFCB"
         offset="0" /><stop
         id="stop4141"
         style="stop-color:#877AAD"
         offset="1" /></linearGradient><linearGradient
       gradientTransform="matrix(4.269773e-4,-1,1,4.269773e-4,1.993097e-4,-5.889416e-5)"
       y2="39.826199"
       x2="-55.789902"
       y1="39.826199"
       x1="-90.314903"
       gradientUnits="userSpaceOnUse"
       id="SVGID_12_"><stop
         id="stop4146"
         style="stop-color:#95899B"
         offset="0" /><stop
         id="stop4148"
         style="stop-color:#6A657A"
         offset="0.9922" /></linearGradient><linearGradient
       gradientTransform="matrix(0.0272,0.9996,-0.9996,0.0272,-4.018862e-4,1.658965e-4)"
       y2="-37.297901"
       x2="92.683601"
       y1="-37.297901"
       x1="7.5005002"
       gradientUnits="userSpaceOnUse"
       id="SVGID_13_"><stop
         id="stop4153"
         style="stop-color:#B49AAE"
         offset="0" /><stop
         id="stop4155"
         style="stop-color:#6C608F"
         offset="1" /></linearGradient><linearGradient
       gradientTransform="matrix(0.3145,0.9493,-0.9553,0.2962,4.049242e-4,-2.265871e-4)"
       y2="-19.1763"
       x2="85.456703"
       y1="-19.1763"
       x1="41.500999"
       gradientUnits="userSpaceOnUse"
       id="SVGID_14_"><stop
         id="stop4160"
         style="stop-color:#302614"
         offset="0" /><stop
         id="stop4162"
         style="stop-color:#271900"
         offset="1" /></linearGradient><linearGradient
       y2="38.8349"
       x2="39.593498"
       y1="82.539101"
       x1="41.8652"
       gradientUnits="userSpaceOnUse"
       id="SVGID_15_"><stop
         id="stop4167"
         style="stop-color:#4F473B"
         offset="0" /><stop
         id="stop4169"
         style="stop-color:#32250F"
         offset="1" /></linearGradient><linearGradient
       gradientTransform="matrix(0.943,0.3329,-0.3526,0.936,0,2.54184e-4)"
       y2="44.149399"
       x2="10.2585"
       y1="44.149399"
       x1="-71.372597"
       gradientUnits="userSpaceOnUse"
       id="SVGID_16_"><stop
         id="stop4174"
         style="stop-color:#F6E5CB"
         offset="0.0196" /><stop
         id="stop4176"
         style="stop-color:#877AAD"
         offset="1" /></linearGradient><linearGradient
       gradientTransform="matrix(0.3153,0.949,-0.9547,0.2982,-1.695454e-4,2.525151e-4)"
       y2="-18.3022"
       x2="62.8092"
       y1="-18.3022"
       x1="30.696301"
       gradientUnits="userSpaceOnUse"
       id="SVGID_17_"><stop
         id="stop4181"
         style="stop-color:#FFE3B9"
         offset="0" /><stop
         id="stop4183"
         style="stop-color:#ACA0CF"
         offset="1" /></linearGradient><linearGradient
       gradientTransform="matrix(0.4566,0.8897,-0.9015,0.4336,3.085434e-4,5.483031e-4)"
       y2="-8.4951"
       x2="104.7073"
       y1="-8.4951"
       x1="31.002399"
       gradientUnits="userSpaceOnUse"
       id="SVGID_18_"><stop
         id="stop4188"
         style="stop-color:#C3B195"
         offset="0.0039" /><stop
         id="stop4190"
         style="stop-color:#463B68"
         offset="1" /></linearGradient><linearGradient
       gradientTransform="matrix(0.3153,0.949,-0.9547,0.2982,-1.695454e-4,2.525151e-4)"
       y2="-19.9907"
       x2="62.8092"
       y1="-19.9907"
       x1="30.696301"
       gradientUnits="userSpaceOnUse"
       id="SVGID_19_"><stop
         id="stop4195"
         style="stop-color:#C3B195"
         offset="0.0039" /><stop
         id="stop4197"
         style="stop-color:#463B68"
         offset="1" /></linearGradient><linearGradient
       gradientTransform="matrix(0.9993,0.0381,-0.0381,0.9993,1.431704e-4,-1.916885e-4)"
       y2="32.492199"
       x2="245.3979"
       y1="32.492199"
       x1="-54.5835"
       gradientUnits="userSpaceOnUse"
       id="SVGID_20_"><stop
         id="stop4202"
         style="stop-color:#E8D4E9"
         offset="0" /><stop
         id="stop4204"
         style="stop-color:#9B8EBF"
         offset="1" /></linearGradient><linearGradient
       inkscape:collect="always"
       xlink:href="#SVGID_20_"
       id="linearGradient4560"
       gradientUnits="userSpaceOnUse"
       gradientTransform="matrix(0.9993,0.0381,-0.0381,0.9993,1.431704e-4,-1.916885e-4)"
       x1="-54.5835"
       y1="32.492199"
       x2="245.3979"
       y2="32.492199" /><linearGradient
       inkscape:collect="always"
       xlink:href="#SVGID_19_"
       id="linearGradient4563"
       gradientUnits="userSpaceOnUse"
       gradientTransform="matrix(0.3153,0.949,-0.9547,0.2982,-1.695454e-4,2.525151e-4)"
       x1="30.696301"
       y1="-19.9907"
       x2="62.8092"
       y2="-19.9907" /><linearGradient
       inkscape:collect="always"
       xlink:href="#SVGID_18_"
       id="linearGradient4566"
       gradientUnits="userSpaceOnUse"
       gradientTransform="matrix(0.4566,0.8897,-0.9015,0.4336,3.085434e-4,5.483031e-4)"
       x1="31.002399"
       y1="-8.4951"
       x2="104.7073"
       y2="-8.4951" /><linearGradient
       inkscape:collect="always"
       xlink:href="#SVGID_17_"
       id="linearGradient4569"
       gradientUnits="userSpaceOnUse"
       gradientTransform="matrix(0.3153,0.949,-0.9547,0.2982,-1.695454e-4,2.525151e-4)"
       x1="30.696301"
       y1="-18.3022"
       x2="62.8092"
       y2="-18.3022" /><linearGradient
       inkscape:collect="always"
       xlink:href="#SVGID_16_"
       id="linearGradient4572"
       gradientUnits="userSpaceOnUse"
       gradientTransform="matrix(0.943,0.3329,-0.3526,0.936,0,2.54184e-4)"
       x1="-71.372597"
       y1="44.149399"
       x2="10.2585"
       y2="44.149399" /><linearGradient
       inkscape:collect="always"
       xlink:href="#SVGID_15_"
       id="linearGradient4575"
       gradientUnits="userSpaceOnUse"
       x1="41.8652"
       y1="82.539101"
       x2="39.593498"
       y2="38.8349" /><linearGradient
       inkscape:collect="always"
       xlink:href="#SVGID_14_"
       id="linearGradient4578"
       gradientUnits="userSpaceOnUse"
       gradientTransform="matrix(0.3145,0.9493,-0.9553,0.2962,4.049242e-4,-2.265871e-4)"
       x1="41.500999"
       y1="-19.1763"
       x2="85.456703"
       y2="-19.1763" /><linearGradient
       inkscape:collect="always"
       xlink:href="#SVGID_13_"
       id="linearGradient4581"
       gradientUnits="userSpaceOnUse"
       gradientTransform="matrix(0.0272,0.9996,-0.9996,0.0272,-4.018862e-4,1.658965e-4)"
       x1="7.5005002"
       y1="-37.297901"
       x2="92.683601"
       y2="-37.297901" /><linearGradient
       inkscape:collect="always"
       xlink:href="#SVGID_12_"
       id="linearGradient4584"
       gradientUnits="userSpaceOnUse"
       gradientTransform="matrix(4.269773e-4,-1,1,4.269773e-4,1.993097e-4,-5.889416e-5)"
       x1="-90.314903"
       y1="39.826199"
       x2="-55.789902"
       y2="39.826199" /><linearGradient
       inkscape:collect="always"
       xlink:href="#SVGID_11_"
       id="linearGradient4587"
       gradientUnits="userSpaceOnUse"
       x1="39.916"
       y1="29.2749"
       x2="39.996498"
       y2="14.2999" /><linearGradient
       id="SVGID_8_"
       gradientUnits="userSpaceOnUse"
       x1="-44.054199"
       y1="44.220699"
       x2="-28.9368"
       y2="44.220699"
       gradientTransform="matrix(0.6929,-0.721,0.7807,0.6309,-3.208518e-4,-2.452135e-4)"><stop
         offset="0.0039"
         style="stop-color:#A57939"
         id="stop4116" /><stop
         offset="1"
         style="stop-color:#1B1A5D"
         id="stop4118" /></linearGradient><linearGradient
       id="SVGID_9_"
       gradientUnits="userSpaceOnUse"
       x1="3.1747999"
       y1="51.825199"
       x2="10.4248"
       y2="51.825199"><stop
         offset="0.0078"
         style="stop-color:#F0CFA1"
         id="stop4123" /><stop
         offset="1"
         style="stop-color:#5F76AE"
         id="stop4125" /></linearGradient><linearGradient
       id="SVGID_10_"
       gradientUnits="userSpaceOnUse"
       x1="-44.054199"
       y1="43.056599"
       x2="-28.9368"
       y2="43.056599"
       gradientTransform="matrix(0.6929,-0.721,0.7807,0.6309,-3.208518e-4,-2.452135e-4)"><stop
         offset="0.0039"
         style="stop-color:#BA8B48"
         id="stop4130" /><stop
         offset="1"
         style="stop-color:#363578"
         id="stop4132" /></linearGradient><linearGradient
       inkscape:collect="always"
       xlink:href="#SVGID_10_"
       id="linearGradient4673"
       gradientUnits="userSpaceOnUse"
       gradientTransform="matrix(0.6929,-0.721,0.7807,0.6309,-3.208518e-4,-2.452135e-4)"
       x1="-44.054199"
       y1="43.056599"
       x2="-28.9368"
       y2="43.056599" /><linearGradient
       inkscape:collect="always"
       xlink:href="#SVGID_9_"
       id="linearGradient4676"
       gradientUnits="userSpaceOnUse"
       x1="3.1747999"
       y1="51.825199"
       x2="10.4248"
       y2="51.825199" /><linearGradient
       inkscape:collect="always"
       xlink:href="#SVGID_8_"
       id="linearGradient4679"
       gradientUnits="userSpaceOnUse"
       gradientTransform="matrix(0.6929,-0.721,0.7807,0.6309,-3.208518e-4,-2.452135e-4)"
       x1="-44.054199"
       y1="44.220699"
       x2="-28.9368"
       y2="44.220699" /><linearGradient
       id="SVGID_6_"
       gradientUnits="userSpaceOnUse"
       x1="6.0913"
       y1="88.929703"
       x2="15.9807"
       y2="88.929703"
       gradientTransform="matrix(0.9884,-0.1517,0.1105,0.9947,7.137656e-5,2.766252e-4)"><stop
         offset="0.0039"
         style="stop-color:#C3B195"
         id="stop4100" /><stop
         offset="1"
         style="stop-color:#463B68"
         id="stop4102" /></linearGradient><linearGradient
       id="SVGID_7_"
       gradientUnits="userSpaceOnUse"
       x1="8.5576"
       y1="89.568398"
       x2="16.1453"
       y2="89.568398"
       gradientTransform="matrix(0.9884,-0.1516,0.1105,0.9947,3.806055e-4,-2.24188e-4)"><stop
         offset="0.0078"
         style="stop-color:#EFD5AD"
         id="stop4107" /><stop
         offset="1"
         style="stop-color:#6C608F"
         id="stop4109" /></linearGradient><linearGradient
       inkscape:collect="always"
       xlink:href="#SVGID_7_"
       id="linearGradient4692"
       gradientUnits="userSpaceOnUse"
       gradientTransform="matrix(0.9884,-0.1516,0.1105,0.9947,3.806055e-4,-2.24188e-4)"
       x1="8.5576"
       y1="89.568398"
       x2="16.1453"
       y2="89.568398" /><linearGradient
       inkscape:collect="always"
       xlink:href="#SVGID_6_"
       id="linearGradient4695"
       gradientUnits="userSpaceOnUse"
       gradientTransform="matrix(0.9884,-0.1517,0.1105,0.9947,7.137656e-5,2.766252e-4)"
       x1="6.0913"
       y1="88.929703"
       x2="15.9807"
       y2="88.929703" /><linearGradient
       id="SVGID_1_"
       gradientUnits="userSpaceOnUse"
       x1="30.545401"
       y1="94.467796"
       x2="40.335999"
       y2="94.467796"
       gradientTransform="matrix(0.9882,-0.1532,0.1777,0.9844,-1.354814e-4,-4.558265e-5)"><stop
         offset="0.0039"
         style="stop-color:#C3B195"
         id="stop4059" /><stop
         offset="1"
         style="stop-color:#463B68"
         id="stop4061" /></linearGradient><linearGradient
       id="SVGID_2_"
       gradientUnits="userSpaceOnUse"
       x1="32.950199"
       y1="95.095703"
       x2="40.463699"
       y2="95.095703"
       gradientTransform="matrix(0.9882,-0.1531,0.1777,0.9844,-4.651994e-4,1.265407e-4)"><stop
         offset="0.0078"
         style="stop-color:#EFD5AD"
         id="stop4066" /><stop
         offset="1"
         style="stop-color:#6C608F"
         id="stop4068" /></linearGradient><linearGradient
       inkscape:collect="always"
       xlink:href="#SVGID_2_"
       id="linearGradient4727"
       gradientUnits="userSpaceOnUse"
       gradientTransform="matrix(0.9882,-0.1531,0.1777,0.9844,-4.651994e-4,1.265407e-4)"
       x1="32.950199"
       y1="95.095703"
       x2="40.463699"
       y2="95.095703" /><linearGradient
       inkscape:collect="always"
       xlink:href="#SVGID_1_"
       id="linearGradient4730"
       gradientUnits="userSpaceOnUse"
       gradientTransform="matrix(0.9882,-0.1532,0.1777,0.9844,-1.354814e-4,-4.558265e-5)"
       x1="30.545401"
       y1="94.467796"
       x2="40.335999"
       y2="94.467796" /><linearGradient
       id="SVGID_22_"
       gradientUnits="userSpaceOnUse"
       x1="737.84277"
       y1="-3088.1978"
       x2="740.79797"
       y2="-3088.1978"
       gradientTransform="matrix(0.1228,1.421,2.0694,-0.0843,6322.5981,-1274.9008)"><stop
         offset="0"
         style="stop-color:#5F4E29"
         id="stop4224" /><stop
         offset="0.8588"
         style="stop-color:#271D09"
         id="stop4226" /></linearGradient><linearGradient
       inkscape:collect="always"
       xlink:href="#SVGID_22_"
       id="linearGradient4738"
       gradientUnits="userSpaceOnUse"
       gradientTransform="matrix(0.1228,1.421,2.0694,-0.0843,6322.5981,-1274.9008)"
       x1="737.84277"
       y1="-3088.1978"
       x2="740.79797"
       y2="-3088.1978" /><linearGradient
       id="SVGID_21_"
       gradientUnits="userSpaceOnUse"
       x1="6.8256998"
       y1="-124.2681"
       x2="11.1918"
       y2="-124.2681"
       gradientTransform="matrix(-0.0859,0.9644,-1.0002,-0.0395,-67.6497,22.5499)"><stop
         offset="0"
         style="stop-color:#5F4E29"
         id="stop4213" /><stop
         offset="0.8588"
         style="stop-color:#271D09"
         id="stop4215" /></linearGradient><linearGradient
       inkscape:collect="always"
       xlink:href="#SVGID_21_"
       id="linearGradient4747"
       gradientUnits="userSpaceOnUse"
       gradientTransform="matrix(-0.0859,0.9644,-1.0002,-0.0395,-67.6497,22.5499)"
       x1="6.8256998"
       y1="-124.2681"
       x2="11.1918"
       y2="-124.2681" /><linearGradient
       gradientTransform="scale(-1,-1)"
       y2="-51.174801"
       x2="-68.674797"
       y1="-51.174801"
       x1="-75.924797"
       gradientUnits="userSpaceOnUse"
       id="SVGID_3_"><stop
         id="stop4077"
         style="stop-color:#F0CFA1"
         offset="0.0078" /><stop
         id="stop4079"
         style="stop-color:#5F76AE"
         offset="1" /></linearGradient><linearGradient
       gradientTransform="matrix(-0.6929,-0.721,0.7807,-0.6309,-1.820922e-4,8.38995e-4)"
       y2="14.4277"
       x2="-78.330803"
       y1="14.4277"
       x1="-93.448196"
       gradientUnits="userSpaceOnUse"
       id="SVGID_4_"><stop
         id="stop4084"
         style="stop-color:#BA8B48"
         offset="0.0039" /><stop
         id="stop4086"
         style="stop-color:#363578"
         offset="1" /></linearGradient><linearGradient
       gradientTransform="matrix(-0.6929,-0.721,0.7807,-0.6309,-1.820922e-4,8.38995e-4)"
       y2="13.2642"
       x2="-78.330803"
       y1="13.2642"
       x1="-93.448196"
       gradientUnits="userSpaceOnUse"
       id="SVGID_5_"><stop
         id="stop4091"
         style="stop-color:#A57939"
         offset="0.0039" /><stop
         id="stop4093"
         style="stop-color:#1B1A5D"
         offset="1" /></linearGradient><linearGradient
       inkscape:collect="always"
       xlink:href="#SVGID_5_"
       id="linearGradient4766"
       gradientUnits="userSpaceOnUse"
       gradientTransform="matrix(-0.6929,-0.721,0.7807,-0.6309,-1.820922e-4,8.38995e-4)"
       x1="-93.448196"
       y1="13.2642"
       x2="-78.330803"
       y2="13.2642" /><linearGradient
       inkscape:collect="always"
       xlink:href="#SVGID_4_"
       id="linearGradient4769"
       gradientUnits="userSpaceOnUse"
       gradientTransform="matrix(-0.6929,-0.721,0.7807,-0.6309,-1.820922e-4,8.38995e-4)"
       x1="-93.448196"
       y1="14.4277"
       x2="-78.330803"
       y2="14.4277" /><linearGradient
       inkscape:collect="always"
       xlink:href="#SVGID_3_"
       id="linearGradient4772"
       gradientUnits="userSpaceOnUse"
       gradientTransform="scale(-1,-1)"
       x1="-75.924797"
       y1="-51.174801"
       x2="-68.674797"
       y2="-51.174801" /><linearGradient
       inkscape:collect="always"
       xlink:href="#SVGID_7_-9"
       id="linearGradient10763"
       gradientUnits="userSpaceOnUse"
       gradientTransform="matrix(-0.75,0,0,-0.75,12253.5,-12265.5)"
       x1="16281.125"
       y1="-16341.676"
       x2="16339.675"
       y2="-16341.676" /><linearGradient
       id="SVGID_7_-9"
       gradientUnits="userSpaceOnUse"
       x1="16281.125"
       y1="-16341.676"
       x2="16339.675"
       y2="-16341.676"
       gradientTransform="matrix(-0.75,0,0,-0.75,12253.5,-12265.5)"><stop
         offset="0"
         style="stop-color:#FFFFFF"
         id="stop6082" /><stop
         offset="1"
         style="stop-color:#A9CAD1"
         id="stop6084" /></linearGradient><linearGradient
       inkscape:collect="always"
       xlink:href="#SVGID_8_-9"
       id="linearGradient10765"
       gradientUnits="userSpaceOnUse"
       gradientTransform="scale(0.75,0.75)"
       x1="0.1001"
       y1="-18.300301"
       x2="48.350101"
       y2="-18.300301" /><linearGradient
       id="SVGID_8_-9"
       gradientUnits="userSpaceOnUse"
       x1="0.1001"
       y1="-18.300301"
       x2="48.350101"
       y2="-18.300301"
       gradientTransform="scale(0.75,0.75)"><stop
         offset="0"
         style="stop-color:#FFFFFF"
         id="stop6287" /><stop
         offset="1"
         style="stop-color:#A9CAD1"
         id="stop6289" /></linearGradient></defs><sodipodi:namedview
     pagecolor="#ffffff"
     bordercolor="#666666"
     borderopacity="1"
     objecttolerance="10"
     gridtolerance="10"
     guidetolerance="10"
     inkscape:pageopacity="0"
     inkscape:pageshadow="2"
     inkscape:window-width="1366"
     inkscape:window-height="722"
     id="namedview4232"
     showgrid="false"
     fit-margin-top="0"
     fit-margin-left="0"
     fit-margin-right="0"
     fit-margin-bottom="0"
     inkscape:zoom="3.8808651"
     inkscape:cx="62.313559"
     inkscape:cy="63.253712"
     inkscape:window-x="0"
     inkscape:window-y="27"
     inkscape:window-maximized="1"
     inkscape:current-layer="svg4035" /><symbol
     id="price_x5F_tag_x5F_pt_x5F_mc_1_"
     transform="translate(124.57119,-5.050847)"><g
       id="Layer_1_4_" /></symbol><g
     id="g4774"
     transform="translate(-3.7,-24)"><path
       inkscape:connector-curvature="0"
       id="path4063"
       d="m 56.65,90.6 c 0.1,-0.566 0.05,-1.267 -0.15,-2.1 -0.2,-0.866 -0.667,-1.4 -1.4,-1.6 -0.699,-0.267 -1.783,-0.684 -3.25,-1.25 -0.633,-0.301 -1.1,-0.551 -1.399,-0.75 -0.101,-0.301 -0.233,-0.584 -0.4,-0.851 l 8.5,0.101 c -0.166,2.6 -0.566,4.466 -1.2,5.6 -0.268,0.4 -0.501,0.684 -0.701,0.85 z"
       style="fill:url(#linearGradient4730);fill-rule:evenodd" /><path
       inkscape:connector-curvature="0"
       id="path4070"
       d="m 56.65,90.6 c -0.601,0.5 -1.317,0.684 -2.15,0.551 -1.167,-0.167 -2.517,-2.25 -4.05,-6.25 0.3,0.199 0.767,0.449 1.399,0.75 1.467,0.566 2.551,0.983 3.25,1.25 0.733,0.199 1.2,0.733 1.4,1.6 0.201,0.832 0.251,1.532 0.151,2.099 z"
       style="fill:url(#linearGradient4727);fill-rule:evenodd" /><path
       style="fill:url(#linearGradient4772);fill-rule:evenodd"
       d="m 70.25,50.15 c -0.566,-0.167 -1.15,-0.334 -1.75,-0.5 -0.134,0 -0.517,-0.084 -1.15,-0.25 l 1.4,-1.15 c 0.8,0.2 1.65,0.5 2.55,0.9 0.233,0.066 0.434,0.133 0.601,0.199 0.366,0.2 0.699,0.384 1,0.551 0.166,0.1 0.333,0.216 0.5,0.35 l 0.25,0.2 c 0.033,0.033 0.25,0.25 0.649,0.649 0.3,0.4 0.617,1.4 0.95,3 -0.033,-0.1 -0.083,-0.199 -0.15,-0.3 -0.1,-0.166 -0.216,-0.316 -0.35,-0.45 l -0.05,-0.1 c -0.467,-0.566 -0.917,-1.017 -1.351,-1.35 -0.033,-0.034 -0.05,-0.067 -0.05,-0.101 l -0.05,-0.05 c -0.533,-0.434 -1.167,-0.8 -1.9,-1.1 -0.3,-0.167 -0.616,-0.317 -0.949,-0.45 -0.067,-0.031 -0.117,-0.048 -0.15,-0.048 z"
       id="path4081"
       inkscape:connector-curvature="0" /><path
       style="fill:url(#linearGradient4769);fill-rule:evenodd"
       d="m 73.1,57.65 c -1,-0.167 -1.85,-0.617 -2.55,-1.351 -0.866,-0.967 -1.3,-2.2 -1.3,-3.7 0,-0.8 0.017,-1.283 0.05,-1.449 0.066,-0.233 0.384,-0.567 0.95,-1 0.033,0 0.083,0.017 0.15,0.05 0.333,0.133 0.649,0.283 0.949,0.45 0.733,0.3 1.367,0.666 1.9,1.1 l 0.05,0.05 c 0,0.033 0.017,0.066 0.05,0.101 0.434,0.333 0.884,0.783 1.351,1.35 l 0.05,0.1 c 0.134,0.134 0.25,0.284 0.35,0.45 0.067,0.101 0.117,0.2 0.15,0.3 0.033,0.067 0.05,0.134 0.05,0.2 0,0.033 0.017,0.084 0.05,0.15 0.034,0.1 0.051,0.2 0.051,0.3 0,0.167 0,0.316 0,0.45 0,0.033 -0.017,0.066 -0.051,0.1 0,0.066 -0.017,0.15 -0.05,0.25 -0.133,0.533 -0.5,1.033 -1.1,1.5 -0.367,0.265 -0.733,0.466 -1.1,0.599 z"
       id="path4088"
       inkscape:connector-curvature="0" /><path
       style="fill:url(#linearGradient4766);fill-rule:evenodd"
       d="m 67.35,49.4 c 0.634,0.166 1.017,0.25 1.15,0.25 0.6,0.166 1.184,0.333 1.75,0.5 -0.566,0.433 -0.884,0.767 -0.95,1 -0.033,0.166 -0.05,0.649 -0.05,1.449 0,1.5 0.434,2.733 1.3,3.7 0.7,0.733 1.55,1.184 2.55,1.351 -0.4,0.166 -0.8,0.25 -1.2,0.25 -0.801,0.033 -1.45,-0.134 -1.95,-0.5 H 69.9 C 69.5,57 68.616,56 67.25,54.4 l 0.1,-5 z"
       id="path4095"
       inkscape:connector-curvature="0" /><path
       inkscape:connector-curvature="0"
       id="path4104"
       d="m 25.35,89.85 c 0.167,-0.566 0.167,-1.283 0,-2.149 -0.133,-0.867 -0.55,-1.4 -1.25,-1.601 -0.7,-0.233 -1.767,-0.649 -3.2,-1.25 -0.6,-0.267 -1.05,-0.5 -1.35,-0.699 -0.066,-0.301 -0.167,-0.601 -0.3,-0.9 l 8.45,0.1 c -0.333,2.634 -0.85,4.517 -1.55,5.65 -0.3,0.365 -0.567,0.649 -0.8,0.849 z"
       style="fill:url(#linearGradient4695);fill-rule:evenodd" /><path
       inkscape:connector-curvature="0"
       id="path4111"
       d="M 25.35,89.85 C 24.717,90.316 24,90.5 23.2,90.4 c -1.167,-0.167 -2.383,-2.25 -3.65,-6.25 0.3,0.199 0.75,0.433 1.35,0.699 1.434,0.601 2.5,1.017 3.2,1.25 0.7,0.2 1.117,0.733 1.25,1.601 0.167,0.866 0.167,1.583 0,2.15 z"
       style="fill:url(#linearGradient4692);fill-rule:evenodd" /><path
       inkscape:connector-curvature="0"
       id="path4120"
       d="m 6,58.3 c 1,-0.166 1.85,-0.616 2.55,-1.35 0.867,-0.967 1.3,-2.2 1.3,-3.7 0,-0.8 -0.017,-1.283 -0.05,-1.45 -0.066,-0.233 -0.383,-0.566 -0.95,-1 0.566,-0.166 1.15,-0.333 1.75,-0.5 0.133,0 0.517,-0.083 1.15,-0.25 l 0.1,5 c -1.367,1.601 -2.25,2.601 -2.65,3 H 9.15 C 8.65,58.417 8,58.583 7.2,58.55 6.8,58.55 6.4,58.467 6,58.3 z"
       style="fill:url(#linearGradient4679);fill-rule:evenodd" /><path
       inkscape:connector-curvature="0"
       id="path4127"
       d="m 3.85,54.75 c 0.333,-1.6 0.65,-2.6 0.95,-3 0.4,-0.4 0.617,-0.616 0.65,-0.65 L 5.7,50.9 c 0.167,-0.134 0.333,-0.25 0.5,-0.351 0.3,-0.166 0.633,-0.35 1,-0.55 0.167,-0.066 0.367,-0.134 0.6,-0.2 0.9,-0.399 1.75,-0.7 2.55,-0.899 l 1.4,1.149 c -0.633,0.167 -1.017,0.25 -1.15,0.25 -0.6,0.167 -1.184,0.334 -1.75,0.5 -0.033,0 -0.083,0.017 -0.15,0.05 -0.333,0.134 -0.65,0.284 -0.95,0.45 -0.733,0.3 -1.367,0.667 -1.9,1.101 L 5.8,52.45 c 0,0.033 -0.017,0.066 -0.05,0.1 C 5.317,52.884 4.867,53.333 4.4,53.9 L 4.35,54 C 4.217,54.134 4.1,54.283 4,54.45 c -0.067,0.1 -0.117,0.2 -0.15,0.3 z"
       style="fill:url(#linearGradient4676);fill-rule:evenodd" /><path
       inkscape:connector-curvature="0"
       id="path4134"
       d="M 6,58.3 C 5.633,58.167 5.267,57.967 4.9,57.7 4.3,57.233 3.933,56.733 3.8,56.2 3.767,56.099 3.75,56.016 3.75,55.95 3.717,55.917 3.7,55.884 3.7,55.85 c 0,-0.133 0,-0.283 0,-0.449 0,-0.101 0.017,-0.2 0.05,-0.301 0.033,-0.066 0.05,-0.116 0.05,-0.149 0,-0.066 0.017,-0.134 0.05,-0.2 0.033,-0.1 0.083,-0.2 0.15,-0.3 0.1,-0.167 0.217,-0.316 0.35,-0.45 l 0.05,-0.1 C 4.867,53.334 5.317,52.884 5.75,52.55 5.783,52.517 5.8,52.484 5.8,52.45 L 5.85,52.4 c 0.533,-0.434 1.167,-0.801 1.9,-1.101 0.3,-0.166 0.617,-0.316 0.95,-0.45 0.066,-0.033 0.117,-0.05 0.15,-0.05 0.566,0.434 0.883,0.767 0.95,1 0.034,0.167 0.05,0.65 0.05,1.45 0,1.5 -0.434,2.733 -1.3,3.7 C 7.85,57.684 7,58.134 6,58.3 z"
       style="fill:url(#linearGradient4673);fill-rule:evenodd" /><path
       style="fill:url(#linearGradient4587);fill-rule:evenodd"
       d="M 63.25,31.45 C 61.283,30.483 58.884,30 56.05,30 H 23.1 c -3.434,0 -6.184,0.667 -8.25,2 L 20.3,25.25 C 20.767,24.883 21.25,24.6 21.75,24.4 22.45,24.167 23.2,24.033 24,24 h 32.8 c 0.733,0.033 1.4,0.183 2,0.45 0.566,0.233 1.017,0.617 1.351,1.15 0.767,0.933 1.616,2.05 2.55,3.35 0.1,0.2 0.217,0.367 0.35,0.5 0.367,0.6 0.834,1.35 1.4,2.25 0.133,0.2 0.3,0.433 0.5,0.7 -0.534,-0.367 -1.101,-0.683 -1.701,-0.95 z"
       id="path4143"
       inkscape:connector-curvature="0" /><path
       style="fill:url(#linearGradient4584);fill-rule:evenodd"
       d="m 59.8,42.1 c 1.467,1.534 2.2,3.75 2.2,6.65 V 69.7 c 0,6.233 -3.316,9.35 -9.95,9.35 H 27.4 c -2.233,0 -4.083,-0.366 -5.55,-1.1 C 21.483,77.717 21.117,77.5 20.75,77.3 20.417,77.033 20.133,76.75 19.9,76.45 18.367,74.95 17.6,72.7 17.6,69.7 V 48.75 c 0,-6.167 3.267,-9.25 9.8,-9.25 h 24.65 c 3.033,0 5.367,0.617 7,1.85 0.266,0.2 0.516,0.45 0.75,0.75 z M 21.05,75.55 c 0.233,0.3 0.5,0.533 0.8,0.7 0.2,0.1 0.4,0.217 0.6,0.35 0.767,0.667 1.75,1.15 2.95,1.45 1,0.3 2.233,0.45 3.7,0.45 h 23.25 c 6.2,0 9.301,-2.934 9.301,-8.8 V 49.95 c 0,-0.667 -0.45,-2.05 -1.351,-4.15 -0.2,-0.633 -0.434,-1.166 -0.7,-1.6 -0.199,-0.4 -0.433,-0.75 -0.699,-1.05 -1.534,-1.767 -4.017,-2.65 -7.45,-2.65 H 28.2 c -6.233,0 -9.35,2.95 -9.35,8.85 v 19.7 c 0,2.834 0.733,5 2.2,6.5 z"
       id="path4150"
       inkscape:connector-curvature="0" /><path
       style="fill:url(#linearGradient4581);fill-rule:evenodd"
       d="m 66.65,35.35 c 0.433,0.933 0.767,1.933 1,3 0.233,1.2 0.35,2.533 0.35,4 v 28.6 c 0,2.633 -0.417,4.866 -1.25,6.7 -0.1,0.233 -0.217,0.483 -0.35,0.75 -2,3.566 -5.867,5.35 -11.601,5.35 H 22 c -5.1,0 -8.7,-1.4 -10.8,-4.2 -0.1,-0.2 -0.2,-0.416 -0.3,-0.649 -0.333,-0.767 -0.583,-1.567 -0.75,-2.4 -0.267,-1.233 -0.4,-2.55 -0.4,-3.95 v -28.7 c 0,-2.066 0.267,-3.899 0.8,-5.5 0.067,-0.233 0.167,-0.483 0.3,-0.75 0.2,-0.4 0.433,-0.767 0.7,-1.1 0.034,-0.1 0.083,-0.183 0.15,-0.25 0.2,-0.267 0.45,-0.55 0.75,-0.85 l 2.35,-2.65 c 2.233,-1.3 5.2,-1.95 8.9,-1.95 l 35.6,0.25 c 1.4,0 2.717,0.133 3.95,0.4 0.6,0.267 1.167,0.583 1.7,0.95 0.233,0.467 0.55,0.983 0.95,1.55 0,0.033 0.017,0.05 0.05,0.05 0.033,0.1 0.083,0.217 0.149,0.35 0.101,0.167 0.2,0.367 0.301,0.6 0.033,0.066 0.083,0.15 0.149,0.25 0.034,0.032 0.067,0.082 0.101,0.149 z M 20.75,77.3 c 0.4,0.3 0.85,0.617 1.35,0.95 1.566,0.9 3.6,1.35 6.1,1.35 h 24.65 c 6.434,0 9.733,-2.983 9.9,-8.949 V 49.4 c 0,-3.367 -0.983,-5.801 -2.95,-7.3 -0.233,-0.3 -0.483,-0.55 -0.75,-0.75 -1.666,-1.633 -4.2,-2.45 -7.6,-2.45 H 26.8 c -6.566,0 -9.85,3.083 -9.85,9.25 v 20.9 c 0,3.434 0.983,5.9 2.95,7.4 0.233,0.3 0.517,0.583 0.85,0.85 z"
       id="path4157"
       inkscape:connector-curvature="0" /><path
       style="fill:url(#linearGradient4578);fill-rule:evenodd"
       d="m 21.05,75.55 c -1.466,-1.5 -2.2,-3.666 -2.2,-6.5 v -19.7 c 0,-5.899 3.117,-8.85 9.35,-8.85 h 23.25 c 3.434,0 5.916,0.883 7.45,2.65 0.267,0.3 0.5,0.649 0.699,1.05 0.267,0.434 0.5,0.967 0.7,1.6 0.101,0.3 0.184,0.601 0.25,0.9 -0.566,-0.533 -1.217,-0.967 -1.95,-1.3 -1.399,-0.667 -3.149,-1 -5.25,-1 h -23.2 c -6.267,0 -9.4,2.933 -9.4,8.8 V 73 c 0.001,0.9 0.101,1.75 0.301,2.55 z"
       id="path4164"
       inkscape:connector-curvature="0" /><path
       style="fill:url(#linearGradient4575);fill-rule:evenodd"
       d="m 22.45,76.6 c -0.2,-0.133 -0.4,-0.25 -0.6,-0.35 -0.3,-0.167 -0.567,-0.4 -0.8,-0.7 -0.2,-0.8 -0.3,-1.649 -0.3,-2.55 V 53.2 c 0,-5.867 3.133,-8.8 9.4,-8.8 h 23.2 c 2.101,0 3.851,0.333 5.25,1 0.733,0.333 1.384,0.767 1.95,1.3 0.134,0.833 0.2,1.717 0.2,2.649 v 19.7 c 0,5.9 -3.1,8.851 -9.3,8.851 H 28.2 c -1.467,0 -2.7,-0.15 -3.7,-0.45 -0.767,-0.2 -1.45,-0.483 -2.05,-0.85 z"
       id="path4171"
       inkscape:connector-curvature="0" /><path
       style="fill:url(#linearGradient4572);fill-rule:evenodd"
       d="m 60.3,45.8 c 0.9,2.101 1.351,3.483 1.351,4.15 V 69.7 c 0,5.866 -3.101,8.8 -9.301,8.8 H 29.1 c -1.467,0 -2.7,-0.15 -3.7,-0.45 -1.2,-0.3 -2.183,-0.783 -2.95,-1.45 0.6,0.367 1.283,0.65 2.05,0.851 1,0.3 2.233,0.45 3.7,0.45 h 23.25 c 6.2,0 9.3,-2.95 9.3,-8.851 v -19.7 c 0,-0.933 -0.066,-1.816 -0.2,-2.649 C 60.483,46.4 60.4,46.1 60.3,45.8 z"
       id="path4178"
       inkscape:connector-curvature="0" /><path
       style="fill:url(#linearGradient4569);fill-rule:evenodd"
       d="m 19.9,76.45 c -1.967,-1.5 -2.95,-3.967 -2.95,-7.4 v -20.9 c 0,-6.167 3.283,-9.25 9.85,-9.25 h 24.65 c 3.399,0 5.934,0.817 7.6,2.45 -1.633,-1.233 -3.967,-1.85 -7,-1.85 H 27.4 c -6.533,0 -9.8,3.083 -9.8,9.25 V 69.7 c 0,3 0.767,5.25 2.3,6.75 z"
       id="path4185"
       inkscape:connector-curvature="0" /><path
       style="fill:url(#linearGradient4566);fill-rule:evenodd"
       d="m 11.2,79.55 c 2.1,2.8 5.7,4.2 10.8,4.2 h 32.8 c 5.733,0 9.601,-1.783 11.601,-5.35 0.133,-0.267 0.25,-0.517 0.35,-0.75 0.833,-1.834 1.25,-4.067 1.25,-6.7 v -28.6 c 0,-1.467 -0.116,-2.8 -0.35,-4 -0.233,-1.067 -0.567,-2.067 -1,-3 l 0.05,0.05 c 0.066,0.033 0.116,0.117 0.149,0.25 0.167,0.2 0.317,0.4 0.45,0.6 0.134,0.267 0.267,0.5 0.4,0.7 0.2,0.433 0.399,0.9 0.6,1.4 0.467,1.6 0.7,3.433 0.7,5.5 v 28.7 c 0,2.601 -0.4,4.834 -1.2,6.7 -0.1,0.2 -0.217,0.434 -0.35,0.7 -2.033,3.6 -5.9,5.399 -11.601,5.399 H 22.95 c -5.4,0 -9.15,-1.6 -11.25,-4.8 -0.167,-0.299 -0.333,-0.632 -0.5,-0.999 z"
       id="path4192"
       inkscape:connector-curvature="0" /><path
       style="fill:url(#linearGradient4563);fill-rule:evenodd"
       d="m 59.8,42.1 c 1.967,1.5 2.95,3.933 2.95,7.3 v 21.25 c -0.167,5.966 -3.467,8.949 -9.9,8.949 H 28.2 c -2.5,0 -4.534,-0.449 -6.1,-1.35 -0.5,-0.333 -0.95,-0.65 -1.35,-0.95 0.367,0.2 0.733,0.417 1.1,0.65 1.467,0.733 3.316,1.1 5.55,1.1 h 24.65 c 6.634,0 9.95,-3.116 9.95,-9.35 V 48.75 c 0,-2.9 -0.733,-5.116 -2.2,-6.65 z"
       id="path4199"
       inkscape:connector-curvature="0" /><path
       style="fill:url(#linearGradient4560);fill-rule:evenodd"
       d="m 14.85,32 c 2.066,-1.333 4.816,-2 8.25,-2 h 32.95 c 2.834,0 5.233,0.483 7.2,1.45 -1.233,-0.267 -2.55,-0.4 -3.95,-0.4 L 23.7,30.8 c -3.7,0 -6.667,0.65 -8.9,1.95 l -2.35,2.65 c -0.3,0.3 -0.55,0.583 -0.75,0.85 -0.067,0.067 -0.117,0.15 -0.15,0.25 -0.267,0.333 -0.5,0.7 -0.7,1.1 0.267,-0.633 0.583,-1.25 0.95,-1.85 0.034,-0.1 0.083,-0.2 0.15,-0.3 0.233,-0.233 0.466,-0.483 0.7,-0.75 l 2.2,-2.7 z"
       id="path4206"
       inkscape:connector-curvature="0" /><path
       inkscape:connector-curvature="0"
       id="path4210"
       d="m 58.699,35.424 c 0,0.743 -0.215,1.339 -0.648,1.791 -0.467,0.484 -1.018,0.726 -1.65,0.726 -0.632,0 -1.15,-0.242 -1.551,-0.726 -0.5,-0.452 -0.75,-1.048 -0.75,-1.791 0,-0.645 0.25,-1.21 0.75,-1.694 0.4,-0.484 0.918,-0.726 1.551,-0.726 0.633,0 1.184,0.242 1.65,0.726 0.433,0.484 0.648,1.049 0.648,1.694 z"
       style="fill:#380101;fill-opacity:0.6;fill-rule:evenodd" /><path
       inkscape:connector-curvature="0"
       id="path4217"
       d="m 57.85,35.521 c 0,0.484 -0.199,0.904 -0.6,1.259 -0.367,0.355 -0.816,0.532 -1.35,0.532 -0.5,0 -0.951,-0.177 -1.35,-0.532 C 54.184,36.457 54,36.037 54,35.521 c 0,-0.516 0.184,-0.968 0.551,-1.355 0.332,-0.323 0.783,-0.484 1.35,-0.484 0.533,0 0.982,0.161 1.35,0.484 0.399,0.387 0.599,0.839 0.599,1.355 z"
       style="fill:url(#linearGradient4747);fill-rule:evenodd" /><path
       inkscape:connector-curvature="0"
       id="path4221"
       d="m 19.8,35.521 c 0,-0.645 0.217,-1.21 0.65,-1.694 0.466,-0.484 1.017,-0.726 1.649,-0.726 0.634,0 1.15,0.242 1.55,0.726 0.5,0.484 0.75,1.049 0.75,1.694 0,0.742 -0.25,1.339 -0.75,1.791 -0.399,0.484 -0.916,0.726 -1.55,0.726 -0.633,0 -1.184,-0.242 -1.649,-0.726 C 20.017,36.86 19.8,36.263 19.8,35.521 z"
       style="fill:#380101;fill-opacity:0.6;fill-rule:evenodd" /><path
       inkscape:connector-curvature="0"
       id="path4228"
       d="m 20.649,35.325 c 0,0.474 0.208,0.901 0.622,1.28 0.346,0.333 0.796,0.499 1.349,0.499 0.484,0 0.933,-0.167 1.348,-0.499 0.344,-0.332 0.518,-0.759 0.518,-1.28 0,-0.522 -0.174,-0.973 -0.518,-1.353 -0.346,-0.332 -0.796,-0.498 -1.348,-0.498 -0.553,0 -1.002,0.166 -1.349,0.498 -0.413,0.381 -0.622,0.831 -0.622,1.353 z"
       style="fill:url(#linearGradient4738);fill-rule:evenodd" /></g><g
     id="price_x5F_tag_x5F_pt_x5F_mc"
     transform="translate(124.57119,-5.050847)"><use
       xlink:href="#price_x5F_tag_x5F_pt_x5F_mc_1_"
       width="-32766"
       height="-32766"
       id="price_x5F_tag_x5F_pt"
       x="16383"
       y="16383"
       transform="matrix(1,0,0,-1,-85.07119,93.748953)"
       style="overflow:visible" /></g><g
     id="g10767"
     transform="translate(18.18211,28.246621)"><g
       transform="scale(1,-1)"
       id="g8413"><linearGradient
         gradientTransform="matrix(-0.75,0,0,-0.75,12253.5,-12265.5)"
         y2="-16341.676"
         x2="16339.675"
         y1="-16341.676"
         x1="16281.125"
         gradientUnits="userSpaceOnUse"
         id="linearGradient8415"><stop
           id="stop8417"
           style="stop-color:#FFFFFF"
           offset="0" /><stop
           id="stop8419"
           style="stop-color:#A9CAD1"
           offset="1" /></linearGradient><path
         id="path8421"
         d="m 36.3,-9.263 c 0,-1.025 -1.775,-1.887 -5.325,-2.587 -3.549,-0.726 -7.825,-1.088 -12.824,-1.088 -5,0 -9.275,0.362 -12.825,1.088 C 1.775,-11.15 0,-10.288 0,-9.263 c 0,1.025 1.775,1.9 5.325,2.625 3.55,0.725 7.825,1.088 12.825,1.088 5,0 9.275,-0.363 12.824,-1.088 3.551,-0.725 5.326,-1.599 5.326,-2.625 z"
         style="fill:url(#linearGradient10763);fill-rule:evenodd"
         inkscape:connector-curvature="0" /><path
         id="path8423"
         d="M 36.225,-8.963 H 35.063 L 35.1,-8.85 c 0,0.8 -1.649,1.5 -4.949,2.1 -3.325,0.575 -7.3,0.862 -11.926,0.862 -4.625,0 -8.587,-0.287 -11.887,-0.862 -3.301,-0.6 -4.95,-1.3 -4.95,-2.1 V -8.963 H 0.075 c 0.375,0.951 2.287,1.763 5.738,2.438 3.475,0.65 7.587,0.975 12.337,0.975 4.75,0 8.862,-0.325 12.337,-0.976 3.451,-0.674 5.363,-1.486 5.738,-2.437 z"
         style="fill:#ffffff;fill-rule:evenodd"
         inkscape:connector-curvature="0" /><path
         id="path8425"
         d="m 31.987,-12.037 c -0.275,-0.125 -2.05,-0.438 -5.325,-0.938 -3.225,-0.525 -5.225,-0.8 -6,-0.825 -1,-0.075 -6.938,0.7 -17.813,2.325 L 3.487,-9.3 5.1,-8.287 6,-7.838 c 0.675,0.325 1.125,0.488 1.35,0.488 0.15,0 0.588,0.087 1.313,0.262 0.7,0.201 1.225,0.301 1.575,0.301 0.625,0 2.8,0.137 6.525,0.412 0.025,0 0.862,0.1 2.513,0.3 1.375,0.15 2.212,0.138 2.512,-0.037 0.301,-0.2 0.85,-0.4 1.65,-0.601 0.85,-0.2 1.3,-0.312 1.35,-0.337 0.25,-0.125 1.213,-0.038 2.888,0.263 l 0.638,-0.075 c 0.425,-0.075 0.663,-0.188 0.713,-0.338 0.1,-0.225 0.899,-0.712 2.399,-1.462 0.175,-0.1 0.45,-0.351 0.825,-0.75 0.425,-0.425 0.65,-0.7 0.675,-0.825 0.075,-0.175 0,-0.475 -0.225,-0.9 -0.201,-0.451 -0.438,-0.751 -0.714,-0.9 z"
         style="fill:#bf5d00;fill-rule:evenodd"
         inkscape:connector-curvature="0" /><path
         id="path8427"
         d="m 15.3,-10.688 -1.013,-1.088 c -0.225,0.475 -0.375,0.875 -0.449,1.2 L 13.612,-9.3 c 0,0.149 0,0.313 0,0.487 0,0.325 0.025,0.475 0.075,0.45 l 1.35,-0.788 0.263,-1.537 z"
         style="fill:#ffcf1c;fill-rule:evenodd"
         inkscape:connector-curvature="0" /><path
         id="path8429"
         d="m 15.525,-9.638 c 1.45,-0.05 2.212,-0.149 2.287,-0.3 0.075,-0.151 -0.025,-0.65 -0.3,-1.5 h -0.938 l -2.288,-0.338 -0.037,0.413 v 0.899 l 1.276,0.826 z"
         style="fill:#db9d00;fill-rule:evenodd"
         inkscape:connector-curvature="0" /><path
         id="path8431"
         d="M 16.463,-7.875 17.4,-9 c 0.149,-0.225 0.287,-0.538 0.412,-0.938 -1.35,-0.275 -2.213,-0.425 -2.588,-0.45 l -0.975,-0.075 c -0.325,0.775 -0.5,1.326 -0.525,1.65 l -0.037,0.45 2.776,0.488 z"
         style="fill:#ffdc57;fill-rule:evenodd"
         inkscape:connector-curvature="0" /><path
         id="path8433"
         d="m 18,-6.188 -1.05,-1.088 c -0.226,0.45 -0.363,0.85 -0.413,1.2 l -0.262,1.237 c 0,0.15 0,0.313 0,0.488 0,0.325 0.024,0.487 0.074,0.487 l 1.351,-0.824 0.3,-1.5 z"
         style="fill:#ffcf1c;fill-rule:evenodd"
         inkscape:connector-curvature="0" /><path
         id="path8435"
         d="m 18.188,-5.175 c 1.45,-0.025 2.213,-0.112 2.287,-0.263 0.075,-0.15 -0.024,-0.65 -0.3,-1.5 l -0.938,-0.037 c -0.375,0 -0.862,-0.05 -1.462,-0.15 L 16.95,-7.275 16.912,-6.9 v 0.938 l 1.276,0.787 z"
         style="fill:#db9d00;fill-rule:evenodd"
         inkscape:connector-curvature="0" /><path
         id="path8437"
         d="m 19.125,-3.375 0.938,-1.162 c 0.15,-0.226 0.288,-0.525 0.412,-0.9 -1.35,-0.275 -2.2,-0.425 -2.55,-0.45 l -1.013,-0.075 c -0.325,0.75 -0.5,1.288 -0.524,1.613 l -0.038,0.487 2.775,0.487 z"
         style="fill:#ffdc57;fill-rule:evenodd"
         inkscape:connector-curvature="0" /><path
         id="path8439"
         d="m 3.9,-9.412 -1.013,-1.051 c -0.25,0.45 -0.4,0.85 -0.45,1.2 l -0.224,1.238 c -0.025,0.15 -0.038,0.313 -0.038,0.488 0,0.325 0.025,0.487 0.075,0.487 L 3.638,-7.875 3.9,-9.412 z"
         style="fill:#ffcf1c;fill-rule:evenodd"
         inkscape:connector-curvature="0" /><path
         id="path8441"
         d="M 2.888,-10.463 2.813,-9.15 4.126,-8.362 5.213,-8.4 C 5.963,-8.45 6.362,-8.525 6.412,-8.625 6.487,-8.8 6.375,-9.3 6.075,-10.125 l -0.9,-0.037 c -0.625,0 -1.388,-0.1 -2.287,-0.301 z"
         style="fill:#db9d00;fill-rule:evenodd"
         inkscape:connector-curvature="0" /><path
         id="path8443"
         d="M 5.025,-6.563 6,-7.725 C 6.15,-7.951 6.288,-8.25 6.412,-8.625 5.038,-8.9 4.175,-9.05 3.825,-9.075 L 2.813,-9.15 c -0.325,0.75 -0.5,1.288 -0.525,1.613 L 2.25,-7.05 5.025,-6.563 z"
         style="fill:#ffdc57;fill-rule:evenodd"
         inkscape:connector-curvature="0" /><path
         id="path8445"
         d="M 9.563,-6.938 7.688,-5.4 7.425,-4.35 8.363,-4.388 c 0.75,0 1.425,0.038 2.025,0.112 0.675,0.075 1.438,0.1 2.287,0.075 1,-2.35 1.351,-3.625 1.05,-3.825 -0.3,-0.199 -1.688,0.164 -4.162,1.088 z"
         style="fill:#e8512e;fill-rule:evenodd"
         inkscape:connector-curvature="0" /><path
         id="path8447"
         d="m 7.425,-4.35 0.3,-0.601 C 8.1,-5.45 8.737,-5.963 9.638,-6.487 c 1.4,-0.775 2.513,-1.237 3.337,-1.388 0.425,-0.075 0.713,-0.075 0.863,0 l -0.9,-2.063 c -1.1,-0.1 -2.45,0.288 -4.05,1.162 -1.45,0.8 -2.275,1.513 -2.476,2.138 l 1.013,2.288 z"
         style="fill:#ba2400;fill-rule:evenodd"
         inkscape:connector-curvature="0" /><path
         id="path8449"
         d="m 11.963,-4.575 c -0.425,-1.025 -1,-1.512 -1.726,-1.462 -0.5,0.024 -0.887,0.212 -1.162,0.563 -0.25,0.35 -0.25,0.587 0,0.712 0.125,0.075 0.65,0.125 1.575,0.15 0.45,0.025 0.888,0.037 1.313,0.037 z"
         style="fill:#cc2700;fill-rule:evenodd"
         inkscape:connector-curvature="0" /><path
         id="path8451"
         d="M 12.525,-4.838 12.9,-5.662 c 0.225,-0.625 0.325,-1.075 0.3,-1.351 -0.025,-0.324 -0.325,-0.387 -0.9,-0.187 -0.6,0.2 -0.875,0.487 -0.825,0.862 0.025,0.175 0.2,0.475 0.525,0.9 0.175,0.225 0.35,0.426 0.525,0.6 z"
         style="fill:#cc2700;fill-rule:evenodd"
         inkscape:connector-curvature="0" /><path
         id="path8453"
         d="m 10.425,-5.063 c 0.075,-0.225 0.013,-0.362 -0.188,-0.412 -0.149,-0.05 -0.287,-0.038 -0.412,0.037 -0.1,0.075 -0.138,0.163 -0.112,0.263 0.024,0.075 0.149,0.112 0.375,0.112 0.124,0 0.237,0 0.337,0 z"
         style="fill:#d69635;fill-rule:evenodd"
         inkscape:connector-curvature="0" /><path
         id="path8455"
         d="m 12.3,-5.888 c 0.175,-0.2 0.238,-0.35 0.188,-0.45 -0.025,-0.1 -0.062,-0.174 -0.112,-0.225 -0.075,-0.05 -0.188,-0.025 -0.338,0.075 -0.149,0.1 -0.149,0.237 0,0.412 0.074,0.076 0.162,0.138 0.262,0.188 z"
         style="fill:#d69635;fill-rule:evenodd"
         inkscape:connector-curvature="0" /><path
         id="path8457"
         d="m 12.15,-6.075 c 0.074,0.05 0.125,0.013 0.149,-0.112 0,-0.1 -0.025,-0.163 -0.075,-0.188 -0.05,0 -0.087,0.037 -0.112,0.112 -0.025,0.075 -0.012,0.138 0.038,0.188 z"
         style="fill:#ffffff;fill-rule:evenodd"
         inkscape:connector-curvature="0" /><path
         id="path8459"
         d="M 10.05,-5.175 C 10.175,-5.3 10.113,-5.325 9.862,-5.25 9.813,-5.2 9.825,-5.163 9.9,-5.138 c 0.075,0.025 0.125,0.013 0.15,-0.037 z"
         style="fill:#ffffff;fill-rule:evenodd"
         inkscape:connector-curvature="0" /><path
         id="path8461"
         d="m 22.275,-5.213 -2.25,0.75 -0.638,0.788 0.862,0.263 c 0.7,0.25 1.313,0.5 1.838,0.75 0.625,0.275 1.337,0.524 2.137,0.75 1.75,-1.701 2.525,-2.688 2.325,-2.963 -0.199,-0.25 -1.624,-0.362 -4.274,-0.338 z"
         style="fill:#e8512e;fill-rule:evenodd"
         inkscape:connector-curvature="0" /><path
         id="path8463"
         d="m 25.838,-4.987 c 0.425,0.05 0.687,0.137 0.787,0.263 L 26.513,-6.75 c -0.976,-0.425 -2.375,-0.512 -4.2,-0.263 -1.025,0.15 -1.838,0.375 -2.438,0.675 l -0.638,0.413 0.15,2.25 0.487,-0.413 c 0.525,-0.3 1.3,-0.537 2.325,-0.712 1.576,-0.25 2.789,-0.313 3.639,-0.187 z"
         style="fill:#ba2400;fill-rule:evenodd"
         inkscape:connector-curvature="0" /><path
         id="path8465"
         d="m 23.662,-2.438 c 0,-0.25 -0.037,-0.512 -0.112,-0.787 -0.175,-0.576 -0.487,-0.913 -0.938,-1.013 -0.5,-0.125 -0.925,-0.075 -1.274,0.149 -0.375,0.201 -0.475,0.4 -0.301,0.601 0.1,0.1 0.576,0.3 1.426,0.6 0.399,0.151 0.8,0.3 1.199,0.45 z"
         style="fill:#cc2700;fill-rule:evenodd"
         inkscape:connector-curvature="0" /><path
         id="path8467"
         d="m 24.3,-2.475 0.638,-0.601 c 0.45,-0.475 0.713,-0.825 0.787,-1.05 0.1,-0.325 -0.162,-0.487 -0.787,-0.487 -0.625,-0.025 -0.988,0.149 -1.088,0.524 -0.024,0.15 0.038,0.463 0.188,0.938 l 0.262,0.676 z"
         style="fill:#cc2700;fill-rule:evenodd"
         inkscape:connector-curvature="0" /><path
         id="path8469"
         d="m 22.425,-3.338 c 0.15,-0.174 0.15,-0.312 0,-0.412 -0.125,-0.075 -0.263,-0.1 -0.412,-0.075 -0.125,0 -0.188,0.05 -0.188,0.15 -0.025,0.075 0.075,0.15 0.3,0.225 0.1,0.05 0.2,0.088 0.3,0.112 z"
         style="fill:#d69635;fill-rule:evenodd"
         inkscape:connector-curvature="0" /><path
         id="path8471"
         d="m 24.487,-3.45 0.188,-0.112 c 0.1,-0.1 0.15,-0.175 0.15,-0.225 0,-0.1 -0.013,-0.175 -0.038,-0.226 C 24.737,-4.088 24.625,-4.1 24.45,-4.05 24.275,-4 24.225,-3.887 24.3,-3.713 l 0.187,0.263 z"
         style="fill:#d69635;fill-rule:evenodd"
         inkscape:connector-curvature="0" /><path
         id="path8473"
         d="m 24.412,-3.675 c 0.05,0.075 0.1,0.062 0.15,-0.038 0.05,-0.1 0.05,-0.162 0,-0.188 -0.05,-0.024 -0.087,-0.012 -0.112,0.038 -0.05,0.076 -0.062,0.138 -0.038,0.188 z"
         style="fill:#ffffff;fill-rule:evenodd"
         inkscape:connector-curvature="0" /><path
         id="path8475"
         d="m 22.125,-3.525 c 0.2,-0.1 0.137,-0.149 -0.188,-0.149 -0.025,0.025 -0.013,0.062 0.037,0.112 0.051,0.05 0.101,0.062 0.151,0.037 z"
         style="fill:#ffffff;fill-rule:evenodd"
         inkscape:connector-curvature="0" /><path
         id="path8477"
         d="m 30.6,-9.15 -0.75,-0.787 c -0.475,0.9 -1.012,1.725 -1.612,2.475 L 27,-5.513 l 1.162,1.5 c 0.825,1 1.338,1.45 1.538,1.351 0.325,-0.15 0.737,-1.513 1.237,-4.088 L 30.6,-9.15 z"
         style="fill:#e8512e;fill-rule:evenodd"
         inkscape:connector-curvature="0" /><path
         id="path8479"
         d="M 31.763,-2.325 C 32.413,-3.2 32.776,-4.55 32.85,-6.375 32.95,-8.025 32.776,-9.1 32.326,-9.6 L 29.85,-9.938 c 0.475,0.35 0.688,1.35 0.638,3 -0.05,1.6 -0.225,2.8 -0.524,3.6 l -0.45,0.713 2.249,0.3 z"
         style="fill:#ba2400;fill-rule:evenodd"
         inkscape:connector-curvature="0" /><path
         id="path8481"
         d="m 27.675,-5.963 0.9,0.038 C 29.2,-6 29.612,-6.238 29.813,-6.638 c 0.25,-0.45 0.288,-0.887 0.112,-1.313 -0.149,-0.4 -0.337,-0.524 -0.563,-0.375 -0.149,0.075 -0.475,0.487 -0.975,1.237 l -0.712,1.126 z"
         style="fill:#cc2700;fill-rule:evenodd"
         inkscape:connector-curvature="0" /><path
         id="path8483"
         d="m 27.6,-5.325 0.525,0.75 c 0.4,0.5 0.725,0.825 0.975,0.976 0.301,0.149 0.513,-0.075 0.638,-0.676 0.15,-0.625 0.05,-1.012 -0.3,-1.162 -0.15,-0.075 -0.5,-0.075 -1.05,0 L 27.6,-5.325 z"
         style="fill:#cc2700;fill-rule:evenodd"
         inkscape:connector-curvature="0" /><path
         id="path8485"
         d="m 28.875,-7.013 0.15,0.112 c 0.125,0.075 0.225,0.063 0.3,-0.037 0.125,-0.125 0.188,-0.25 0.188,-0.375 0,-0.125 -0.05,-0.2 -0.15,-0.225 -0.075,-0.025 -0.175,0.05 -0.3,0.225 l -0.188,0.3 z"
         style="fill:#d69635;fill-rule:evenodd"
         inkscape:connector-curvature="0" /><path
         id="path8487"
         d="m 28.612,-4.95 0.263,0.375 c 0.05,0 0.137,0 0.263,0 0.1,-0.025 0.137,-0.125 0.112,-0.3 -0.025,-0.275 -0.238,-0.3 -0.638,-0.075 z"
         style="fill:#d69635;fill-rule:evenodd"
         inkscape:connector-curvature="0" /><path
         id="path8489"
         d="m 28.875,-4.987 c -0.1,0.025 -0.1,0.075 0,0.149 0.075,0.075 0.137,0.088 0.188,0.038 0.025,-0.025 0.013,-0.075 -0.037,-0.15 C 28.975,-5 28.925,-5.012 28.875,-4.987 z"
         style="fill:#ffffff;fill-rule:evenodd"
         inkscape:connector-curvature="0" /><path
         id="path8491"
         d="m 29.175,-7.275 c 0.025,0.1 0.063,0.113 0.112,0.038 0.05,-0.05 0.075,-0.1 0.075,-0.15 -0.025,-0.05 -0.075,-0.05 -0.149,0 -0.05,0.024 -0.063,0.062 -0.038,0.112 z"
         style="fill:#ffffff;fill-rule:evenodd"
         inkscape:connector-curvature="0" /><polygon
         id="polygon8493"
         points="26.325,-13.013 23.813,-10.388 23.513,-9.037 28.313,-9.225 27.862,-11.662 "
         style="fill:#ff6945;fill-rule:evenodd" /><path
         id="path8495"
         d="m 30.9,-8.362 -0.187,-1.088 -1.65,-1.274 c -1.525,-0.525 -2.4,-0.676 -2.625,-0.45 -0.125,0.149 -0.65,0.55 -1.575,1.2 l -1.35,0.938 3.187,0.374 c 0.9,0.099 2.3,0.2 4.2,0.3 z"
         style="fill:#e8512e;fill-rule:evenodd"
         inkscape:connector-curvature="0" /><path
         id="path8497"
         d="m 31.237,-10.537 c -0.575,-0.625 -1.562,-1.213 -2.962,-1.763 l -1.95,-0.713 -0.3,2.175 2.55,1.013 c 1.375,0.625 2.15,1.113 2.325,1.463 l 0.337,-2.175 z"
         style="fill:#ba2400;fill-rule:evenodd"
         inkscape:connector-curvature="0" /><path
         id="path8499"
         d="m 24.862,-9 4.425,0.45 c 0.301,0.025 0.438,-0.038 0.413,-0.188 -0.05,-0.15 -0.263,-0.313 -0.638,-0.487 -0.325,-0.125 -0.787,-0.163 -1.388,-0.113 -0.65,0.075 -1.087,0.125 -1.313,0.15 L 24.862,-9 z"
         style="fill:#cc2700;fill-rule:evenodd"
         inkscape:connector-curvature="0" /><path
         id="path8501"
         d="m 24.3,-9.15 2.063,-0.225 c 0.425,-0.05 0.75,-0.137 0.976,-0.263 0.225,-0.125 0.25,-0.237 0.074,-0.337 -0.625,-0.475 -1.187,-0.576 -1.688,-0.301 -0.399,0.201 -0.762,0.45 -1.087,0.75 L 24.3,-9.15 z"
         style="fill:#cc2700;fill-rule:evenodd"
         inkscape:connector-curvature="0" /><path
         id="path8503"
         d="m 27.9,-8.888 0.449,0.075 c 0.325,0.05 0.513,0.05 0.563,0 C 29.038,-8.987 28.9,-9.075 28.5,-9.075 l -0.6,0.187 z"
         style="fill:#d69635;fill-rule:evenodd"
         inkscape:connector-curvature="0" /><path
         id="path8505"
         d="m 25.875,-9.713 0.45,-0.037 c 0.275,-0.025 0.425,-0.087 0.45,-0.188 0,-0.1 -0.063,-0.175 -0.188,-0.225 -0.15,-0.05 -0.263,-0.038 -0.338,0.037 l -0.374,0.413 z"
         style="fill:#d69635;fill-rule:evenodd"
         inkscape:connector-curvature="0" /><path
         id="path8507"
         d="m 26.438,-9.825 c 0.05,0.025 0.1,0.025 0.15,0 0.05,-0.05 0.062,-0.087 0.037,-0.112 -0.025,-0.075 -0.087,-0.087 -0.188,-0.037 -0.1,0.049 -0.1,0.099 10e-4,0.149 z"
         style="fill:#ffffff;fill-rule:evenodd"
         inkscape:connector-curvature="0" /><path
         id="path8509"
         d="m 28.612,-8.813 c 0.1,0.025 0.175,0.013 0.226,-0.037 0.024,-0.05 -0.013,-0.088 -0.113,-0.113 -0.1,-0.024 -0.174,-0.012 -0.225,0.038 -0.05,0.05 -0.013,0.088 0.112,0.112 z"
         style="fill:#ffffff;fill-rule:evenodd"
         inkscape:connector-curvature="0" /><polygon
         id="polygon8511"
         points="13.463,-9.9 10.838,-13.162 9.15,-11.85 8.438,-9.3 13.537,-8.662 "
         style="fill:#d6340d;fill-rule:evenodd" /><path
         id="path8513"
         d="m 13.537,-8.662 -2.962,-2.513 c -0.2,-0.275 -1.138,-0.2 -2.813,0.225 l -1.8,1.2 -0.3,1.125 7.875,-0.037 z"
         style="fill:#e8512e;fill-rule:evenodd"
         inkscape:connector-curvature="0" /><path
         id="path8515"
         d="m 5.662,-8.625 c 0.226,-0.35 1.088,-0.787 2.588,-1.313 1.5,-0.526 2.413,-0.813 2.737,-0.862 l -0.149,-2.362 c 0.1,-0.05 -0.601,0.149 -2.101,0.6 -1.525,0.475 -2.612,1.013 -3.263,1.612 l 0.188,2.325 z"
         style="fill:#ba2400;fill-rule:evenodd"
         inkscape:connector-curvature="0" /><path
         id="path8517"
         d="M 12.112,-8.775 C 11.662,-8.9 11.137,-9.012 10.537,-9.112 9.962,-9.238 9.5,-9.325 9.15,-9.375 8.5,-9.475 8,-9.475 7.65,-9.375 7.225,-9.25 7,-9.1 6.975,-8.925 c -0.05,0.175 0.088,0.263 0.413,0.263 l 4.724,-0.113 z"
         style="fill:#cc2700;fill-rule:evenodd"
         inkscape:connector-curvature="0" /><path
         id="path8519"
         d="m 12.713,-8.888 c -0.275,-0.45 -0.75,-0.887 -1.426,-1.313 -0.524,-0.325 -1.125,-0.263 -1.8,0.188 -0.175,0.1 -0.149,0.226 0.075,0.375 0.225,0.15 0.563,0.263 1.013,0.338 l 2.138,0.412 z"
         style="fill:#cc2700;fill-rule:evenodd"
         inkscape:connector-curvature="0" /><path
         id="path8521"
         d="M 8.888,-8.925 C 8.762,-9.05 8.55,-9.125 8.25,-9.15 7.8,-9.2 7.65,-9.125 7.8,-8.925 c 0.075,0.05 0.275,0.062 0.6,0.037 0.175,0 0.337,-0.012 0.488,-0.037 z"
         style="fill:#d69635;fill-rule:evenodd"
         inkscape:connector-curvature="0" /><path
         id="path8523"
         d="m 11.1,-9.6 -0.375,-0.488 c -0.074,-0.074 -0.188,-0.1 -0.337,-0.074 -0.15,0.05 -0.226,0.125 -0.226,0.225 0,0.1 0.163,0.188 0.488,0.263 0.15,0.024 0.3,0.049 0.45,0.074 z"
         style="fill:#d69635;fill-rule:evenodd"
         inkscape:connector-curvature="0" /><path
         id="path8525"
         d="m 10.5,-9.787 c 0.175,-0.05 0.112,-0.1 -0.188,-0.15 -0.025,0.05 -0.013,0.1 0.037,0.15 0.051,0.024 0.101,0.024 0.151,0 z"
         style="fill:#ffffff;fill-rule:evenodd"
         inkscape:connector-curvature="0" /><path
         id="path8527"
         d="m 8.138,-8.888 c 0.125,0 0.163,-0.025 0.112,-0.075 -0.05,-0.074 -0.125,-0.1 -0.225,-0.074 -0.125,0.024 -0.163,0.062 -0.113,0.112 0.026,0.05 0.1,0.062 0.226,0.037 z"
         style="fill:#ffffff;fill-rule:evenodd"
         inkscape:connector-curvature="0" /><polygon
         id="polygon8529"
         points="17.662,-6.45 12.862,-7.763 13.237,-5.888 15.525,-3.525 18.975,-5.513 "
         style="fill:#d6340d;fill-rule:evenodd" /><path
         id="path8531"
         d="m 18.975,-5.513 c -2.424,-0.275 -3.837,-0.462 -4.237,-0.563 -0.25,-0.075 -0.538,0.163 -0.862,0.713 l -0.45,0.825 0.263,1.875 1.013,1.05 4.273,-3.9 z"
         style="fill:#e8512e;fill-rule:evenodd"
         inkscape:connector-curvature="0" /><path
         id="path8533"
         d="m 14.7,-1.612 c -0.25,-0.4 -0.238,-1.175 0.037,-2.325 0.275,-1.15 0.487,-1.825 0.638,-2.025 l -2.513,-1.8 c -0.025,-0.1 -0.212,0.4 -0.563,1.5 -0.224,0.674 -0.312,1.362 -0.262,2.062 l 0.15,0.825 2.513,1.763 z"
         style="fill:#ba2400;fill-rule:evenodd"
         inkscape:connector-curvature="0" /><path
         id="path8535"
         d="m 18.075,-4.912 c -0.4,0.125 -0.8,0.3 -1.2,0.524 -0.45,0.2 -0.8,0.363 -1.05,0.487 -0.45,0.226 -0.713,0.463 -0.788,0.713 -0.1,0.3 -0.087,0.525 0.038,0.675 0.149,0.15 0.313,0.15 0.487,0 l 2.513,-2.399 z"
         style="fill:#cc2700;fill-rule:evenodd"
         inkscape:connector-curvature="0" /><path
         id="path8537"
         d="m 18.263,-5.287 c -0.625,-0.226 -1.337,-0.338 -2.138,-0.338 -0.6,0 -0.862,0.35 -0.787,1.05 0.024,0.175 0.174,0.263 0.449,0.263 0.25,0 0.538,-0.087 0.863,-0.263 l 1.613,-0.712 z"
         style="fill:#cc2700;fill-rule:evenodd"
         inkscape:connector-curvature="0" /><path
         id="path8539"
         d="m 16.162,-3.45 c -0.2,-0.025 -0.399,0.025 -0.6,0.15 -0.3,0.175 -0.3,0.3 0,0.375 0.151,0.05 0.351,-0.125 0.6,-0.525 z"
         style="fill:#d69635;fill-rule:evenodd"
         inkscape:connector-curvature="0" /><path
         id="path8541"
         d="M 16.65,-5.063 15.938,-5.25 c -0.125,-0.05 -0.2,-0.013 -0.225,0.112 -0.05,0.1 -0.025,0.188 0.074,0.263 0.175,0.125 0.463,0.062 0.863,-0.188 z"
         style="fill:#d69635;fill-rule:evenodd"
         inkscape:connector-curvature="0" /><path
         id="path8543"
         d="m 16.162,-4.912 c 0.025,-0.1 -0.024,-0.15 -0.149,-0.15 -0.125,0 -0.163,0.037 -0.112,0.112 0.024,0.05 0.074,0.088 0.149,0.112 0.05,0 0.088,-0.024 0.112,-0.074 z"
         style="fill:#ffffff;fill-rule:evenodd"
         inkscape:connector-curvature="0" /><path
         id="path8545"
         d="m 15.787,-3.037 c 0.05,-0.075 0.038,-0.125 -0.037,-0.15 -0.1,0 -0.175,0.025 -0.225,0.075 -0.025,0.049 0,0.087 0.075,0.112 0.075,0.025 0.137,0.013 0.187,-0.037 z"
         style="fill:#ffffff;fill-rule:evenodd"
         inkscape:connector-curvature="0" /><path
         id="path8547"
         d="m 18.675,-11.963 -2.362,0.601 -0.675,0.825 0.862,0.375 c 0.65,0.325 1.237,0.65 1.763,0.975 0.575,0.375 1.262,0.725 2.063,1.05 1.9,-1.7 2.75,-2.712 2.55,-3.037 -0.176,-0.301 -1.576,-0.563 -4.201,-0.789 z"
         style="fill:#e8512e;fill-rule:evenodd"
         inkscape:connector-curvature="0" /><path
         id="path8549"
         d="m 15.638,-10.537 0.524,-0.413 c 0.55,-0.275 1.351,-0.45 2.4,-0.524 1.6,-0.125 2.813,-0.088 3.638,0.112 0.4,0.125 0.65,0.25 0.75,0.375 l 0.075,-2.25 c -0.226,-0.15 -0.576,-0.288 -1.051,-0.413 -0.95,-0.25 -2,-0.337 -3.149,-0.262 -1.025,0.05 -1.863,0.212 -2.513,0.487 l -0.638,0.412 -0.036,2.476 z"
         style="fill:#ba2400;fill-rule:evenodd"
         inkscape:connector-curvature="0" /><path
         id="path8551"
         d="m 19.8,-8.813 c 0.075,-1.1 -0.225,-1.775 -0.899,-2.025 -0.475,-0.2 -0.913,-0.188 -1.313,0.038 -0.375,0.2 -0.475,0.4 -0.301,0.6 0.1,0.125 0.55,0.388 1.351,0.788 0.4,0.224 0.787,0.425 1.162,0.599 z"
         style="fill:#cc2700;fill-rule:evenodd"
         inkscape:connector-curvature="0" /><path
         id="path8553"
         d="m 20.438,-8.775 0.675,-0.6 c 0.5,-0.45 0.8,-0.8 0.9,-1.05 0.125,-0.325 -0.125,-0.525 -0.75,-0.601 -0.625,-0.074 -1,0.075 -1.125,0.45 -0.05,0.15 -0.013,0.5 0.112,1.05 l 0.188,0.751 z"
         style="fill:#cc2700;fill-rule:evenodd"
         inkscape:connector-curvature="0" /><path
         id="path8555"
         d="m 18.638,-9.862 c 0.175,-0.175 0.188,-0.338 0.037,-0.487 -0.125,-0.1 -0.263,-0.138 -0.412,-0.113 -0.125,0 -0.188,0.05 -0.188,0.15 -0.025,0.1 0.062,0.2 0.263,0.3 0.1,0.05 0.2,0.099 0.3,0.15 z"
         style="fill:#d69635;fill-rule:evenodd"
         inkscape:connector-curvature="0" /><path
         id="path8557"
         d="m 20.7,-9.825 c 0.25,-0.125 0.362,-0.225 0.337,-0.3 0,-0.05 0,-0.137 0,-0.263 -0.024,-0.1 -0.125,-0.125 -0.3,-0.075 -0.175,0.025 -0.237,0.138 -0.188,0.338 l 0.151,0.3 z"
         style="fill:#d69635;fill-rule:evenodd"
         inkscape:connector-curvature="0" /><path
         id="path8559"
         d="m 20.662,-10.05 c 0.025,0.1 0.075,0.1 0.15,0 0.05,-0.1 0.05,-0.175 0,-0.226 -0.025,-0.05 -0.063,-0.037 -0.112,0.038 -0.05,0.076 -0.062,0.138 -0.038,0.188 z"
         style="fill:#ffffff;fill-rule:evenodd"
         inkscape:connector-curvature="0" /><path
         id="path8561"
         d="m 18.375,-10.125 c 0.15,-0.075 0.087,-0.125 -0.188,-0.15 -0.05,0 -0.05,0.038 0,0.113 0.051,0.05 0.113,0.062 0.188,0.037 z"
         style="fill:#ffffff;fill-rule:evenodd"
         inkscape:connector-curvature="0" /><path
         id="path8563"
         d="m 11.737,-3.6 0.188,-1.838 c 0.125,-0.275 0.075,-0.775 -0.149,-1.5 -0.201,-0.7 -0.301,-1.35 -0.301,-1.95 L 10.013,-8.25 H 9.9 C 9.55,-7 9.575,-6.137 9.975,-5.662 l 1.762,2.062 z"
         style="fill:#db9d00;fill-rule:evenodd"
         inkscape:connector-curvature="0" /><path
         id="path8565"
         d="m 11.475,-8.888 c -1,0.15 -1.837,0.325 -2.512,0.525 L 7.725,-7.987 C 7.3,-7.063 7.075,-6.525 7.05,-6.375 V -6.15 L 10.388,-6 c 0.175,-0.4 0.425,-0.837 0.75,-1.313 l 0.337,-1.575 z"
         style="fill:#ffcf1c;fill-rule:evenodd"
         inkscape:connector-curvature="0" /><path
         id="path8567"
         d="m 11.7,-3.6 c -0.025,-0.351 -0.112,-0.938 -0.263,-1.763 -0.15,-0.725 -0.25,-1.363 -0.3,-1.913 -0.15,-0.05 -0.9,0.113 -2.25,0.488 L 6.975,-6.15 c 1.051,0.676 2,1.238 2.851,1.688 0.874,0.449 1.499,0.737 1.874,0.862 z"
         style="fill:#ffdc57;fill-rule:evenodd"
         inkscape:connector-curvature="0" /><path
         id="path8569"
         d="m 24.3,-7.463 -2.513,-0.225 -0.937,0.563 0.713,0.638 c 0.55,0.55 1.025,1.063 1.425,1.537 0.475,0.525 1.05,1.075 1.726,1.65 2.424,-0.95 3.6,-1.6 3.524,-1.95 -0.1,-0.375 -1.413,-1.112 -3.938,-2.213 z"
         style="fill:#e8512e;fill-rule:evenodd"
         inkscape:connector-curvature="0" /><path
         id="path8571"
         d="m 24.037,-7.05 c 1.625,0.425 2.813,0.887 3.563,1.388 0.375,0.25 0.588,0.449 0.638,0.6 L 29.025,-7.2 c -0.75,-0.825 -2.05,-1.5 -3.9,-2.024 -1.05,-0.301 -1.938,-0.438 -2.662,-0.413 l -0.75,0.15 -0.863,2.362 0.638,-0.225 c 0.65,-0.075 1.499,0.025 2.549,0.3 z"
         style="fill:#ba2400;fill-rule:evenodd"
         inkscape:connector-curvature="0" /><path
         id="path8573"
         d="m 24.412,-4.05 0.226,-0.862 c 0.075,-0.65 -0.075,-1.125 -0.45,-1.426 -0.4,-0.325 -0.837,-0.462 -1.313,-0.412 -0.425,0.075 -0.6,0.238 -0.525,0.487 0.075,0.15 0.438,0.563 1.088,1.237 0.324,0.351 0.649,0.676 0.974,0.976 z"
         style="fill:#cc2700;fill-rule:evenodd"
         inkscape:connector-curvature="0" /><path
         id="path8575"
         d="m 25.05,-3.825 0.862,-0.337 c 0.625,-0.275 1.025,-0.513 1.2,-0.713 0.226,-0.25 0.05,-0.525 -0.524,-0.825 -0.601,-0.275 -1.025,-0.263 -1.275,0.038 -0.1,0.149 -0.175,0.5 -0.225,1.05 l -0.038,0.787 z"
         style="fill:#cc2700;fill-rule:evenodd"
         inkscape:connector-curvature="0" /><path
         id="path8577"
         d="m 23.625,-5.475 c 0.2,-0.125 0.25,-0.275 0.15,-0.45 -0.1,-0.125 -0.213,-0.212 -0.338,-0.263 -0.125,-0.025 -0.212,0 -0.263,0.075 -0.05,0.075 0.013,0.2 0.188,0.375 0.076,0.1 0.163,0.188 0.263,0.263 z"
         style="fill:#d69635;fill-rule:evenodd"
         inkscape:connector-curvature="0" /><path
         id="path8579"
         d="m 25.65,-4.725 0.188,-0.038 c 0.125,-0.05 0.2,-0.1 0.225,-0.149 0.075,-0.15 0.112,-0.238 0.112,-0.263 0,-0.1 -0.1,-0.163 -0.3,-0.188 -0.175,-0.025 -0.263,0.075 -0.263,0.3 l 0.038,0.338 z"
         style="fill:#d69635;fill-rule:evenodd"
         inkscape:connector-curvature="0" /><path
         id="path8581"
         d="m 25.65,-4.987 c 0.025,0.075 0.075,0.087 0.15,0.037 0.1,-0.075 0.138,-0.137 0.112,-0.188 -0.024,-0.05 -0.074,-0.05 -0.149,0 -0.075,0.051 -0.113,0.1 -0.113,0.151 z"
         style="fill:#ffffff;fill-rule:evenodd"
         inkscape:connector-curvature="0" /><path
         id="path8583"
         d="m 23.4,-5.813 c 0.174,-0.025 0.137,-0.1 -0.113,-0.225 -0.05,0 -0.062,0.037 -0.037,0.112 0.025,0.075 0.075,0.113 0.15,0.113 z"
         style="fill:#ffffff;fill-rule:evenodd"
         inkscape:connector-curvature="0" /><polygon
         id="polygon8585"
         points="20.063,-6.75 17.737,-10.688 15.713,-9.563 14.55,-6.9 19.95,-5.438 "
         style="fill:#d6340d;fill-rule:evenodd" /><path
         id="path8587"
         d="M 19.95,-5.438 17.137,-8.626 C 16.962,-8.95 15.95,-9.013 14.1,-8.813 l -2.175,1.013 -0.487,1.2 8.512,1.162 z"
         style="fill:#e8512e;fill-rule:evenodd"
         inkscape:connector-curvature="0" /><path
         id="path8589"
         d="M 11.438,-6.6 12,-6.938 c 0.575,-0.275 1.388,-0.512 2.438,-0.713 1.7,-0.325 2.737,-0.487 3.112,-0.487 l 0.188,-2.55 c 0.125,-0.075 -0.675,0.025 -2.399,0.3 -1.051,0.15 -1.988,0.4 -2.813,0.75 l -0.938,0.488 -0.15,2.55 z"
         style="fill:#ba2400;fill-rule:evenodd"
         inkscape:connector-curvature="0" /><path
         id="path8591"
         d="m 18.412,-5.775 c -0.449,-0.225 -1,-0.425 -1.649,-0.6 -0.601,-0.225 -1.075,-0.388 -1.425,-0.487 -0.676,-0.226 -1.213,-0.3 -1.613,-0.226 -0.475,0.075 -0.75,0.188 -0.825,0.338 -0.075,0.175 0.062,0.288 0.412,0.338 l 5.1,0.637 z"
         style="fill:#cc2700;fill-rule:evenodd"
         inkscape:connector-curvature="0" /><path
         id="path8593"
         d="m 19.088,-5.813 c -0.226,-0.525 -0.676,-1.075 -1.351,-1.65 -0.4,-0.35 -1.063,-0.375 -1.987,-0.074 -0.2,0.1 -0.188,0.237 0.037,0.412 0.226,0.2 0.576,0.375 1.051,0.525 l 2.25,0.787 z"
         style="fill:#cc2700;fill-rule:evenodd"
         inkscape:connector-curvature="0" /><path
         id="path8595"
         d="M 14.963,-6.45 C 14.838,-6.599 14.625,-6.713 14.325,-6.787 13.85,-6.913 13.675,-6.85 13.8,-6.6 c 0.05,0.074 0.263,0.125 0.638,0.149 0.174,10e-4 0.35,10e-4 0.525,10e-4 z"
         style="fill:#d69635;fill-rule:evenodd"
         inkscape:connector-curvature="0" /><path
         id="path8597"
         d="m 17.438,-6.825 c -0.1,-0.25 -0.2,-0.437 -0.3,-0.563 -0.075,-0.125 -0.2,-0.175 -0.375,-0.149 -0.175,0.024 -0.263,0.1 -0.263,0.225 -0.025,0.1 0.125,0.212 0.45,0.338 0.175,0.049 0.337,0.099 0.488,0.149 z"
         style="fill:#d69635;fill-rule:evenodd"
         inkscape:connector-curvature="0" /><path
         id="path8599"
         d="M 16.838,-7.125 C 16.987,-7.15 17,-7.2 16.875,-7.275 16.775,-7.349 16.7,-7.362 16.65,-7.312 c -0.025,0.05 -0.025,0.1 0,0.15 0.05,0.05 0.113,0.062 0.188,0.037 z"
         style="fill:#ffffff;fill-rule:evenodd"
         inkscape:connector-curvature="0" /><path
         id="path8601"
         d="m 14.138,-6.525 c 0.149,0.025 0.2,0 0.149,-0.074 -0.024,-0.075 -0.1,-0.113 -0.225,-0.113 -0.125,0 -0.175,0.025 -0.15,0.075 0.026,0.074 0.1,0.112 0.226,0.112 z"
         style="fill:#ffffff;fill-rule:evenodd"
         inkscape:connector-curvature="0" /><path
         id="path8603"
         d="m 19.725,-9.112 c 0.7,0.249 1.225,0.287 1.575,0.112 l 2.438,-1.162 -1.725,-0.676 c -0.25,-0.174 -0.75,-0.25 -1.5,-0.225 -0.45,0.025 -0.913,0 -1.388,-0.075 l -0.563,-0.112 0.225,1.575 v 0.112 l 0.938,0.451 z"
         style="fill:#db9d00;fill-rule:evenodd"
         inkscape:connector-curvature="0" /><path
         id="path8605"
         d="m 21.075,-9.45 -1.088,-1.087 c -0.175,-0.025 -0.462,-0.138 -0.862,-0.338 l -0.563,-0.375 c -0.1,1 -0.15,1.862 -0.15,2.588 l 0.075,1.274 1.388,1.013 0.225,0.112 0.975,-3.187 z"
         style="fill:#ffdc57;fill-rule:evenodd"
         inkscape:connector-curvature="0" /><path
         id="path8607"
         d="m 23.737,-10.162 c -0.35,-0.075 -0.95,-0.138 -1.8,-0.188 l -1.912,-0.188 c -0.1,0.125 -0.138,0.899 -0.113,2.324 0.025,0.976 0.075,1.638 0.15,1.988 l 2.362,-2.325 c 0.651,-0.749 1.089,-1.286 1.313,-1.611 z"
         style="fill:#ffcf1c;fill-rule:evenodd"
         inkscape:connector-curvature="0" /><path
         id="path8609"
         d="m 18.938,-3.75 2.325,1.463 3.712,1.162 c 1.15,0.35 2.137,0.725 2.963,1.125 L 27.826,-1.575 V -1.65 C 26.25,-2.8 25.013,-3.388 24.112,-3.412 L 18.938,-3.75 z"
         style="fill:#ffdc57;fill-rule:evenodd"
         inkscape:connector-curvature="0" /><path
         id="path8611"
         d="m 27.938,0 c 0.325,-0.875 0.525,-1.637 0.6,-2.287 0.1,-0.65 0.138,-1.063 0.113,-1.238 C 27.55,-4.5 26.888,-5.038 26.662,-5.138 l -0.337,-0.188 -1.95,2.476 c 0.475,0.399 0.975,0.899 1.5,1.5 L 27.938,0 z"
         style="fill:#db9d00;fill-rule:evenodd"
         inkscape:connector-curvature="0" /><path
         id="path8613"
         d="m 18.75,-3.713 1.388,0.338 c 1.075,0.3 2,0.587 2.774,0.862 l 2.888,1.125 c 0.175,-0.05 0.35,-0.737 0.525,-2.063 0.1,-0.925 0.112,-1.575 0.037,-1.95 -1.475,0.351 -2.774,0.7 -3.899,1.051 -0.676,0.225 -1.5,0.399 -2.476,0.524 l -1.237,0.113 z"
         style="fill:#ffcf1c;fill-rule:evenodd"
         inkscape:connector-curvature="0" /><path
         id="path8615"
         d="m 33.525,-7.35 c 0.75,0 1.112,-0.05 1.087,-0.15 -0.025,-0.075 -0.375,-0.475 -1.05,-1.2 l -1.762,-0.15 -1.125,1.05 2.85,0.45 z"
         style="fill:#ffdc57;fill-rule:evenodd"
         inkscape:connector-curvature="0" /><path
         id="path8617"
         d="m 30.675,-7.8 1.5,-0.038 0.788,-1.274 c -0.175,-1.375 -0.351,-2.087 -0.525,-2.138 -0.1,-0.05 -0.412,0 -0.938,0.15 l -0.75,0.262 0.075,0.863 c 0.025,0.35 0,0.824 -0.075,1.425 l -0.075,0.75 z"
         style="fill:#ffcf1c;fill-rule:evenodd"
         inkscape:connector-curvature="0" /><path
         id="path8619"
         d="m 34.612,-7.5 0.3,-2.625 c -0.65,-0.425 -1.112,-0.7 -1.387,-0.825 l -1.088,-0.3 c -0.175,1.3 -0.263,2.113 -0.263,2.438 v 0.975 l 0.75,0.15 c 0.526,0.124 0.901,0.187 1.126,0.187 h 0.562 z"
         style="fill:#db9d00;fill-rule:evenodd"
         inkscape:connector-curvature="0" /><linearGradient
         gradientTransform="scale(0.75,0.75)"
         y2="-18.300301"
         x2="48.350101"
         y1="-18.300301"
         x1="0.1001"
         gradientUnits="userSpaceOnUse"
         id="linearGradient8621"><stop
           id="stop8623"
           style="stop-color:#FFFFFF"
           offset="0" /><stop
           id="stop8625"
           style="stop-color:#A9CAD1"
           offset="1" /></linearGradient><path
         id="path8627"
         d="m 18.037,-12.787 c 4.275,0 8.101,0.325 11.476,0.975 3.3,0.625 5.55,1.45 6.75,2.475 -0.725,-2.5 -2.788,-4.587 -6.188,-6.262 -3.425,-1.675 -7.4,-2.513 -11.925,-2.513 -4.476,0 -8.425,0.825 -11.851,2.475 -3.35,1.6 -5.425,3.625 -6.225,6.075 1.325,-0.95 3.6,-1.725 6.825,-2.325 3.326,-0.6 7.039,-0.9 11.138,-0.9 z"
         style="fill:url(#linearGradient10765);fill-rule:evenodd"
         inkscape:connector-curvature="0" /><path
         id="path8629"
         d="m 35.063,-8.963 h 1.162 l 0.075,-0.3 c 0,-1.025 -1.775,-1.887 -5.325,-2.587 -3.549,-0.726 -7.825,-1.088 -12.824,-1.088 -5,0 -9.275,0.362 -12.825,1.088 C 1.775,-11.15 0,-10.288 0,-9.263 c 0,0.15 0.025,0.25 0.075,0.3 h 1.313 c 0.125,-0.8 1.825,-1.475 5.1,-2.024 3.275,-0.575 7.188,-0.862 11.737,-0.862 4.55,0 8.476,0.287 11.775,0.862 3.275,0.549 4.962,1.224 5.063,2.024 z"
         style="fill:#ffffff;fill-rule:evenodd"
         inkscape:connector-curvature="0" /></g></g></svg>