<?xml version="1.0" encoding="UTF-8" standalone="no"?>
<!-- Generator: Adobe Illustrator 15.1.0, SVG Export Plug-In . SVG Version: 6.00 Build 0)  -->

<svg
   xmlns:dc="http://purl.org/dc/elements/1.1/"
   xmlns:cc="http://creativecommons.org/ns#"
   xmlns:rdf="http://www.w3.org/1999/02/22-rdf-syntax-ns#"
   xmlns:svg="http://www.w3.org/2000/svg"
   xmlns="http://www.w3.org/2000/svg"
   xmlns:xlink="http://www.w3.org/1999/xlink"
   xmlns:sodipodi="http://sodipodi.sourceforge.net/DTD/sodipodi-0.dtd"
   xmlns:inkscape="http://www.inkscape.org/namespaces/inkscape"
   version="1.1"
   x="0px"
   y="0px"
   width="70.650917"
   height="61.401001"
   viewBox="0 0 70.650917 61.401001"
   xml:space="preserve"
   id="svg3180"
   inkscape:version="0.48.5 r10040"
   sodipodi:docname="stinky cheese 1.svg"><metadata
     id="metadata3335"><rdf:RDF><cc:Work
         rdf:about=""><dc:format>image/svg+xml</dc:format><dc:type
           rdf:resource="http://purl.org/dc/dcmitype/StillImage" /></cc:Work></rdf:RDF></metadata><defs
     id="defs3333"><linearGradient
       inkscape:collect="always"
       xlink:href="#SVGID_1_"
       id="linearGradient7122"
       gradientUnits="userSpaceOnUse"
       gradientTransform="matrix(-0.5725,0.8199,-0.8606,-0.5142,-3.858805e-4,-1.546741e-4)"
       x1="-8.2144003"
       y1="-75.506302"
       x2="-3.0613999"
       y2="-75.506302" /><linearGradient
       inkscape:collect="always"
       xlink:href="#SVGID_2_"
       id="linearGradient7124"
       gradientUnits="userSpaceOnUse"
       gradientTransform="matrix(-0.5744,0.8186,-0.8608,-0.5142,-6.777048e-5,7.706881e-5)"
       x1="-7.8706002"
       y1="-76.295898"
       x2="-2.648"
       y2="-76.295898" /><linearGradient
       inkscape:collect="always"
       xlink:href="#SVGID_3_"
       id="linearGradient7126"
       gradientUnits="userSpaceOnUse"
       gradientTransform="matrix(0.5725,0.8199,-0.8606,0.5142,4.142523e-4,-3.796816e-5)"
       x1="29.3188"
       y1="15.6514"
       x2="34.471802"
       y2="15.6514" /><linearGradient
       inkscape:collect="always"
       xlink:href="#SVGID_4_"
       id="linearGradient7128"
       gradientUnits="userSpaceOnUse"
       gradientTransform="matrix(0.5744,0.8186,-0.8608,0.5142,-3.195405e-4,-1.218915e-4)"
       x1="29.6689"
       y1="16.542"
       x2="34.891602"
       y2="16.542" /><linearGradient
       inkscape:collect="always"
       xlink:href="#SVGID_5_"
       id="linearGradient7130"
       gradientUnits="userSpaceOnUse"
       x1="36.8965"
       y1="14.9258"
       x2="36.8368"
       y2="-0.54930001" /><linearGradient
       inkscape:collect="always"
       xlink:href="#SVGID_6_"
       id="linearGradient7132"
       gradientUnits="userSpaceOnUse"
       gradientTransform="matrix(-0.0031,1,-1,-0.0031,2.598222e-4,-3.660354e-5)"
       x1="-0.82029998"
       y1="-36.049801"
       x2="55.605"
       y2="-36.049801" /><linearGradient
       inkscape:collect="always"
       xlink:href="#SVGID_7_"
       id="linearGradient7134"
       gradientUnits="userSpaceOnUse"
       gradientTransform="matrix(0.7172,0.6968,-0.7205,0.6943,-1.429319e-4,-2.419949e-5)"
       x1="19.063999"
       y1="4.6483998"
       x2="104.8096"
       y2="4.6483998" /><linearGradient
       inkscape:collect="always"
       xlink:href="#SVGID_8_"
       id="linearGradient7136"
       gradientUnits="userSpaceOnUse"
       gradientTransform="matrix(0.3156,0.9489,-0.9549,0.2976,-1.427531e-4,4.920959e-4)"
       x1="6.9380002"
       y1="-25.2715"
       x2="98.7547"
       y2="-25.2715" /><linearGradient
       inkscape:collect="always"
       xlink:href="#SVGID_9_"
       id="linearGradient7138"
       gradientUnits="userSpaceOnUse"
       gradientTransform="matrix(0.3145,0.9493,-0.9553,0.2962,-2.99871e-4,4.982054e-4)"
       x1="26.062"
       y1="-21.008801"
       x2="70.0177"
       y2="-21.008801" /><linearGradient
       inkscape:collect="always"
       xlink:href="#SVGID_10_"
       id="linearGradient7140"
       gradientUnits="userSpaceOnUse"
       gradientTransform="matrix(4.269774e-4,-1,1,4.269774e-4,5.620648e-6,4.32598e-4)"
       x1="-45.002399"
       y1="36.7188"
       x2="-30.7024"
       y2="36.7188" /><linearGradient
       inkscape:collect="always"
       xlink:href="#SVGID_11_"
       id="linearGradient7142"
       gradientUnits="userSpaceOnUse"
       x1="37.973598"
       y1="65.907204"
       x2="37.2644"
       y2="22.132" /><linearGradient
       inkscape:collect="always"
       xlink:href="#SVGID_12_"
       id="linearGradient7144"
       gradientUnits="userSpaceOnUse"
       gradientTransform="matrix(0.9431,0.3325,-0.3524,0.9361,-2.455711e-5,5.873442e-4)"
       x1="-75.669899"
       y1="30.882799"
       x2="136.02859"
       y2="30.882799" /><linearGradient
       inkscape:collect="always"
       xlink:href="#SVGID_13_"
       id="linearGradient7146"
       gradientUnits="userSpaceOnUse"
       gradientTransform="matrix(0.3153,0.949,-0.9547,0.2982,-1.711845e-4,-2.696812e-4)"
       x1="15.3086"
       y1="-21.8379"
       x2="47.421501"
       y2="-21.8379" /><linearGradient
       inkscape:collect="always"
       xlink:href="#SVGID_14_"
       id="linearGradient7148"
       gradientUnits="userSpaceOnUse"
       gradientTransform="matrix(0.7229,0.691,-0.7143,0.7006,-4.130602e-5,-8.916855e-5)"
       x1="-12.3623"
       y1="6.5072999"
       x2="76.278397"
       y2="6.5072999" /><linearGradient
       inkscape:collect="always"
       xlink:href="#SVGID_15_"
       id="linearGradient7150"
       gradientUnits="userSpaceOnUse"
       gradientTransform="matrix(0.0859,0.9644,-1.0002,0.0395,-79.9002,4.8001)"
       x1="17.499001"
       y1="-97.023399"
       x2="21.8652"
       y2="-97.023399" /><linearGradient
       inkscape:collect="always"
       xlink:href="#SVGID_16_"
       id="linearGradient7152"
       gradientUnits="userSpaceOnUse"
       gradientTransform="matrix(-0.0859,0.9644,1.0002,0.0395,152.5506,4.8001)"
       x1="17.499001"
       y1="-97.023399"
       x2="21.8652"
       y2="-97.023399" /><linearGradient
       inkscape:collect="always"
       xlink:href="#SVGID_5_"
       id="linearGradient7233"
       gradientUnits="userSpaceOnUse"
       x1="36.8965"
       y1="14.9258"
       x2="36.8368"
       y2="-0.54930001" /><linearGradient
       inkscape:collect="always"
       xlink:href="#SVGID_6_"
       id="linearGradient7235"
       gradientUnits="userSpaceOnUse"
       gradientTransform="matrix(-0.0031,1,-1,-0.0031,2.598222e-4,-3.660354e-5)"
       x1="-0.82029998"
       y1="-36.049801"
       x2="55.605"
       y2="-36.049801" /><linearGradient
       inkscape:collect="always"
       xlink:href="#SVGID_7_"
       id="linearGradient7237"
       gradientUnits="userSpaceOnUse"
       gradientTransform="matrix(0.7172,0.6968,-0.7205,0.6943,-1.429319e-4,-2.419949e-5)"
       x1="19.063999"
       y1="4.6483998"
       x2="104.8096"
       y2="4.6483998" /><linearGradient
       inkscape:collect="always"
       xlink:href="#SVGID_8_"
       id="linearGradient7239"
       gradientUnits="userSpaceOnUse"
       gradientTransform="matrix(0.3156,0.9489,-0.9549,0.2976,-1.427531e-4,4.920959e-4)"
       x1="6.9380002"
       y1="-25.2715"
       x2="98.7547"
       y2="-25.2715" /><linearGradient
       inkscape:collect="always"
       xlink:href="#SVGID_9_"
       id="linearGradient7241"
       gradientUnits="userSpaceOnUse"
       gradientTransform="matrix(0.3145,0.9493,-0.9553,0.2962,-2.99871e-4,4.982054e-4)"
       x1="26.062"
       y1="-21.008801"
       x2="70.0177"
       y2="-21.008801" /><linearGradient
       inkscape:collect="always"
       xlink:href="#SVGID_10_"
       id="linearGradient7243"
       gradientUnits="userSpaceOnUse"
       gradientTransform="matrix(4.269774e-4,-1,1,4.269774e-4,5.620648e-6,4.32598e-4)"
       x1="-45.002399"
       y1="36.7188"
       x2="-30.7024"
       y2="36.7188" /><linearGradient
       inkscape:collect="always"
       xlink:href="#SVGID_11_"
       id="linearGradient7245"
       gradientUnits="userSpaceOnUse"
       x1="37.973598"
       y1="65.907204"
       x2="37.2644"
       y2="22.132" /><linearGradient
       inkscape:collect="always"
       xlink:href="#SVGID_12_"
       id="linearGradient7247"
       gradientUnits="userSpaceOnUse"
       gradientTransform="matrix(0.9431,0.3325,-0.3524,0.9361,-2.455711e-5,5.873442e-4)"
       x1="-75.669899"
       y1="30.882799"
       x2="136.02859"
       y2="30.882799" /><linearGradient
       inkscape:collect="always"
       xlink:href="#SVGID_13_"
       id="linearGradient7249"
       gradientUnits="userSpaceOnUse"
       gradientTransform="matrix(0.3153,0.949,-0.9547,0.2982,-1.711845e-4,-2.696812e-4)"
       x1="15.3086"
       y1="-21.8379"
       x2="47.421501"
       y2="-21.8379" /><linearGradient
       inkscape:collect="always"
       xlink:href="#SVGID_14_"
       id="linearGradient7251"
       gradientUnits="userSpaceOnUse"
       gradientTransform="matrix(0.7229,0.691,-0.7143,0.7006,-4.130602e-5,-8.916855e-5)"
       x1="-12.3623"
       y1="6.5072999"
       x2="76.278397"
       y2="6.5072999" /><linearGradient
       inkscape:collect="always"
       xlink:href="#SVGID_15_"
       id="linearGradient7253"
       gradientUnits="userSpaceOnUse"
       gradientTransform="matrix(0.0859,0.9644,-1.0002,0.0395,-79.9002,4.8001)"
       x1="17.499001"
       y1="-97.023399"
       x2="21.8652"
       y2="-97.023399" /><linearGradient
       inkscape:collect="always"
       xlink:href="#SVGID_16_"
       id="linearGradient7255"
       gradientUnits="userSpaceOnUse"
       gradientTransform="matrix(-0.0859,0.9644,1.0002,0.0395,152.5506,4.8001)"
       x1="17.499001"
       y1="-97.023399"
       x2="21.8652"
       y2="-97.023399" /><linearGradient
       inkscape:collect="always"
       xlink:href="#SVGID_1_"
       id="linearGradient7314"
       gradientUnits="userSpaceOnUse"
       gradientTransform="matrix(-0.5725,0.8199,-0.8606,-0.5142,-3.858805e-4,-1.546741e-4)"
       x1="-8.2144003"
       y1="-75.506302"
       x2="-3.0613999"
       y2="-75.506302" /><linearGradient
       inkscape:collect="always"
       xlink:href="#SVGID_2_"
       id="linearGradient7316"
       gradientUnits="userSpaceOnUse"
       gradientTransform="matrix(-0.5744,0.8186,-0.8608,-0.5142,-6.777048e-5,7.706881e-5)"
       x1="-7.8706002"
       y1="-76.295898"
       x2="-2.648"
       y2="-76.295898" /><linearGradient
       inkscape:collect="always"
       xlink:href="#SVGID_3_"
       id="linearGradient7318"
       gradientUnits="userSpaceOnUse"
       gradientTransform="matrix(0.5725,0.8199,-0.8606,0.5142,4.142523e-4,-3.796816e-5)"
       x1="29.3188"
       y1="15.6514"
       x2="34.471802"
       y2="15.6514" /><linearGradient
       inkscape:collect="always"
       xlink:href="#SVGID_4_"
       id="linearGradient7320"
       gradientUnits="userSpaceOnUse"
       gradientTransform="matrix(0.5744,0.8186,-0.8608,0.5142,-3.195405e-4,-1.218915e-4)"
       x1="29.6689"
       y1="16.542"
       x2="34.891602"
       y2="16.542" /><linearGradient
       gradientTransform="matrix(-0.5725,0.8199,-0.8606,-0.5142,-3.858805e-4,-1.546741e-4)"
       y2="-75.506302"
       x2="-3.0613999"
       y1="-75.506302"
       x1="-8.2144003"
       gradientUnits="userSpaceOnUse"
       id="SVGID_1_"><stop
         id="stop3194"
         style="stop-color:#463932"
         offset="0" /><stop
         id="stop3196"
         style="stop-color:#25170B"
         offset="1" /></linearGradient><linearGradient
       gradientTransform="matrix(-0.5744,0.8186,-0.8608,-0.5142,-6.777048e-5,7.706881e-5)"
       y2="-76.295898"
       x2="-2.648"
       y1="-76.295898"
       x1="-7.8706002"
       gradientUnits="userSpaceOnUse"
       id="SVGID_2_"><stop
         id="stop3201"
         style="stop-color:#63554E"
         offset="0" /><stop
         id="stop3203"
         style="stop-color:#392412"
         offset="1" /></linearGradient><linearGradient
       gradientTransform="matrix(0.5725,0.8199,-0.8606,0.5142,4.142523e-4,-3.796816e-5)"
       y2="15.6514"
       x2="34.471802"
       y1="15.6514"
       x1="29.3188"
       gradientUnits="userSpaceOnUse"
       id="SVGID_3_"><stop
         id="stop3208"
         style="stop-color:#463932"
         offset="0" /><stop
         id="stop3210"
         style="stop-color:#25170B"
         offset="1" /></linearGradient><linearGradient
       gradientTransform="matrix(0.5744,0.8186,-0.8608,0.5142,-3.195405e-4,-1.218915e-4)"
       y2="16.542"
       x2="34.891602"
       y1="16.542"
       x1="29.6689"
       gradientUnits="userSpaceOnUse"
       id="SVGID_4_"><stop
         id="stop3215"
         style="stop-color:#63554E"
         offset="0" /><stop
         id="stop3217"
         style="stop-color:#392412"
         offset="1" /></linearGradient><linearGradient
       inkscape:collect="always"
       xlink:href="#SVGID_4_"
       id="linearGradient7335"
       gradientUnits="userSpaceOnUse"
       gradientTransform="matrix(0.5744,0.8186,-0.8608,0.5142,-3.195405e-4,-1.218915e-4)"
       x1="29.6689"
       y1="16.542"
       x2="34.891602"
       y2="16.542" /><linearGradient
       inkscape:collect="always"
       xlink:href="#SVGID_3_"
       id="linearGradient7338"
       gradientUnits="userSpaceOnUse"
       gradientTransform="matrix(0.5725,0.8199,-0.8606,0.5142,4.142523e-4,-3.796816e-5)"
       x1="29.3188"
       y1="15.6514"
       x2="34.471802"
       y2="15.6514" /><linearGradient
       inkscape:collect="always"
       xlink:href="#SVGID_2_"
       id="linearGradient7341"
       gradientUnits="userSpaceOnUse"
       gradientTransform="matrix(-0.5744,0.8186,-0.8608,-0.5142,-6.777048e-5,7.706881e-5)"
       x1="-7.8706002"
       y1="-76.295898"
       x2="-2.648"
       y2="-76.295898" /><linearGradient
       inkscape:collect="always"
       xlink:href="#SVGID_1_"
       id="linearGradient7344"
       gradientUnits="userSpaceOnUse"
       gradientTransform="matrix(-0.5725,0.8199,-0.8606,-0.5142,-3.858805e-4,-1.546741e-4)"
       x1="-8.2144003"
       y1="-75.506302"
       x2="-3.0613999"
       y2="-75.506302" /><linearGradient
       inkscape:collect="always"
       xlink:href="#SVGID_5_"
       id="linearGradient7347"
       gradientUnits="userSpaceOnUse"
       x1="36.8965"
       y1="14.9258"
       x2="36.8368"
       y2="-0.54930001" /><linearGradient
       inkscape:collect="always"
       xlink:href="#SVGID_6_"
       id="linearGradient7349"
       gradientUnits="userSpaceOnUse"
       gradientTransform="matrix(-0.0031,1,-1,-0.0031,2.598222e-4,-3.660354e-5)"
       x1="-0.82029998"
       y1="-36.049801"
       x2="55.605"
       y2="-36.049801" /><linearGradient
       inkscape:collect="always"
       xlink:href="#SVGID_7_"
       id="linearGradient7351"
       gradientUnits="userSpaceOnUse"
       gradientTransform="matrix(0.7172,0.6968,-0.7205,0.6943,-1.429319e-4,-2.419949e-5)"
       x1="19.063999"
       y1="4.6483998"
       x2="104.8096"
       y2="4.6483998" /><linearGradient
       inkscape:collect="always"
       xlink:href="#SVGID_8_"
       id="linearGradient7353"
       gradientUnits="userSpaceOnUse"
       gradientTransform="matrix(0.3156,0.9489,-0.9549,0.2976,-1.427531e-4,4.920959e-4)"
       x1="6.9380002"
       y1="-25.2715"
       x2="98.7547"
       y2="-25.2715" /><linearGradient
       inkscape:collect="always"
       xlink:href="#SVGID_9_"
       id="linearGradient7355"
       gradientUnits="userSpaceOnUse"
       gradientTransform="matrix(0.3145,0.9493,-0.9553,0.2962,-2.99871e-4,4.982054e-4)"
       x1="26.062"
       y1="-21.008801"
       x2="70.0177"
       y2="-21.008801" /><linearGradient
       inkscape:collect="always"
       xlink:href="#SVGID_10_"
       id="linearGradient7357"
       gradientUnits="userSpaceOnUse"
       gradientTransform="matrix(4.269774e-4,-1,1,4.269774e-4,5.620648e-6,4.32598e-4)"
       x1="-45.002399"
       y1="36.7188"
       x2="-30.7024"
       y2="36.7188" /><linearGradient
       inkscape:collect="always"
       xlink:href="#SVGID_11_"
       id="linearGradient7359"
       gradientUnits="userSpaceOnUse"
       x1="37.973598"
       y1="65.907204"
       x2="37.2644"
       y2="22.132" /><linearGradient
       inkscape:collect="always"
       xlink:href="#SVGID_12_"
       id="linearGradient7361"
       gradientUnits="userSpaceOnUse"
       gradientTransform="matrix(0.9431,0.3325,-0.3524,0.9361,-2.455711e-5,5.873442e-4)"
       x1="-75.669899"
       y1="30.882799"
       x2="136.02859"
       y2="30.882799" /><linearGradient
       inkscape:collect="always"
       xlink:href="#SVGID_13_"
       id="linearGradient7363"
       gradientUnits="userSpaceOnUse"
       gradientTransform="matrix(0.3153,0.949,-0.9547,0.2982,-1.711845e-4,-2.696812e-4)"
       x1="15.3086"
       y1="-21.8379"
       x2="47.421501"
       y2="-21.8379" /><linearGradient
       inkscape:collect="always"
       xlink:href="#SVGID_14_"
       id="linearGradient7365"
       gradientUnits="userSpaceOnUse"
       gradientTransform="matrix(0.7229,0.691,-0.7143,0.7006,-4.130602e-5,-8.916855e-5)"
       x1="-12.3623"
       y1="6.5072999"
       x2="76.278397"
       y2="6.5072999" /><linearGradient
       inkscape:collect="always"
       xlink:href="#SVGID_15_"
       id="linearGradient7367"
       gradientUnits="userSpaceOnUse"
       gradientTransform="matrix(0.0859,0.9644,-1.0002,0.0395,-79.9002,4.8001)"
       x1="17.499001"
       y1="-97.023399"
       x2="21.8652"
       y2="-97.023399" /><linearGradient
       inkscape:collect="always"
       xlink:href="#SVGID_16_"
       id="linearGradient7369"
       gradientUnits="userSpaceOnUse"
       gradientTransform="matrix(-0.0859,0.9644,1.0002,0.0395,152.5506,4.8001)"
       x1="17.499001"
       y1="-97.023399"
       x2="21.8652"
       y2="-97.023399" /><linearGradient
       id="SVGID_5_"
       gradientUnits="userSpaceOnUse"
       x1="36.8965"
       y1="14.9258"
       x2="36.8368"
       y2="-0.54930001"><stop
         offset="0"
         style="stop-color:#7E716A"
         id="stop3234" /><stop
         offset="1"
         style="stop-color:#4D3017"
         id="stop3236" /></linearGradient><linearGradient
       id="SVGID_6_"
       gradientUnits="userSpaceOnUse"
       x1="-0.82029998"
       y1="-36.049801"
       x2="55.605"
       y2="-36.049801"
       gradientTransform="matrix(-0.0031,1,-1,-0.0031,2.598222e-4,-3.660354e-5)"><stop
         offset="0"
         style="stop-color:#63554E"
         id="stop3241" /><stop
         offset="1"
         style="stop-color:#392412"
         id="stop3243" /></linearGradient><linearGradient
       id="SVGID_7_"
       gradientUnits="userSpaceOnUse"
       x1="19.063999"
       y1="4.6483998"
       x2="104.8096"
       y2="4.6483998"
       gradientTransform="matrix(0.7172,0.6968,-0.7205,0.6943,-1.429319e-4,-2.419949e-5)"><stop
         offset="0"
         style="stop-color:#463932"
         id="stop3248" /><stop
         offset="1"
         style="stop-color:#25170B"
         id="stop3250" /></linearGradient><linearGradient
       id="SVGID_8_"
       gradientUnits="userSpaceOnUse"
       x1="6.9380002"
       y1="-25.2715"
       x2="98.7547"
       y2="-25.2715"
       gradientTransform="matrix(0.3156,0.9489,-0.9549,0.2976,-1.427531e-4,4.920959e-4)"><stop
         offset="0.0039"
         style="stop-color:#98877E"
         id="stop3255" /><stop
         offset="1"
         style="stop-color:#5D3C20"
         id="stop3257" /></linearGradient><linearGradient
       inkscape:collect="always"
       xlink:href="#SVGID_8_"
       id="linearGradient7422"
       gradientUnits="userSpaceOnUse"
       gradientTransform="matrix(0.3156,0.9489,-0.9549,0.2976,-1.427531e-4,4.920959e-4)"
       x1="6.9380002"
       y1="-25.2715"
       x2="98.7547"
       y2="-25.2715" /><linearGradient
       inkscape:collect="always"
       xlink:href="#SVGID_7_"
       id="linearGradient7425"
       gradientUnits="userSpaceOnUse"
       gradientTransform="matrix(0.7172,0.6968,-0.7205,0.6943,-1.429319e-4,-2.419949e-5)"
       x1="19.063999"
       y1="4.6483998"
       x2="104.8096"
       y2="4.6483998" /><linearGradient
       inkscape:collect="always"
       xlink:href="#SVGID_6_"
       id="linearGradient7428"
       gradientUnits="userSpaceOnUse"
       gradientTransform="matrix(-0.0031,1,-1,-0.0031,2.598222e-4,-3.660354e-5)"
       x1="-0.82029998"
       y1="-36.049801"
       x2="55.605"
       y2="-36.049801" /><linearGradient
       inkscape:collect="always"
       xlink:href="#SVGID_5_"
       id="linearGradient7431"
       gradientUnits="userSpaceOnUse"
       x1="36.8965"
       y1="14.9258"
       x2="36.8368"
       y2="-0.54930001" /><linearGradient
       inkscape:collect="always"
       xlink:href="#SVGID_16_"
       id="linearGradient7433"
       gradientUnits="userSpaceOnUse"
       gradientTransform="matrix(-0.0859,0.9644,1.0002,0.0395,152.5506,4.8001)"
       x1="17.499001"
       y1="-97.023399"
       x2="21.8652"
       y2="-97.023399" /><linearGradient
       gradientTransform="matrix(-0.0859,0.9644,1.0002,0.0395,152.5506,4.8001)"
       y2="-97.023399"
       x2="21.8652"
       y1="-97.023399"
       x1="17.499001"
       gradientUnits="userSpaceOnUse"
       id="SVGID_16_"><stop
         id="stop3323"
         style="stop-color:#4F4736"
         offset="0.0078" /><stop
         id="stop3325"
         style="stop-color:#1B170C"
         offset="0.7216" /></linearGradient><linearGradient
       inkscape:collect="always"
       xlink:href="#SVGID_16_"
       id="linearGradient7439"
       gradientUnits="userSpaceOnUse"
       gradientTransform="matrix(-0.0859,0.9644,1.0002,0.0395,152.5506,4.8001)"
       x1="17.499001"
       y1="-97.023399"
       x2="21.8652"
       y2="-97.023399" /><linearGradient
       inkscape:collect="always"
       xlink:href="#SVGID_15_"
       id="linearGradient7442"
       gradientUnits="userSpaceOnUse"
       gradientTransform="matrix(0.0859,0.9644,-1.0002,0.0395,-79.9002,4.8001)"
       x1="17.499001"
       y1="-97.023399"
       x2="21.8652"
       y2="-97.023399" /><linearGradient
       gradientTransform="matrix(0.0859,0.9644,-1.0002,0.0395,-79.9002,4.8001)"
       y2="-97.023399"
       x2="21.8652"
       y1="-97.023399"
       x1="17.499001"
       gradientUnits="userSpaceOnUse"
       id="SVGID_15_"><stop
         id="stop3312"
         style="stop-color:#4F4736"
         offset="0.0078" /><stop
         id="stop3314"
         style="stop-color:#1B170C"
         offset="0.7216" /></linearGradient><linearGradient
       inkscape:collect="always"
       xlink:href="#SVGID_15_"
       id="linearGradient7448"
       gradientUnits="userSpaceOnUse"
       gradientTransform="matrix(0.0859,0.9644,-1.0002,0.0395,-79.9002,4.8001)"
       x1="17.499001"
       y1="-97.023399"
       x2="21.8652"
       y2="-97.023399" /><linearGradient
       inkscape:collect="always"
       xlink:href="#SVGID_9_"
       id="linearGradient7451"
       gradientUnits="userSpaceOnUse"
       gradientTransform="matrix(0.3145,0.9493,-0.9553,0.2962,-2.99871e-4,4.982054e-4)"
       x1="26.062"
       y1="-21.008801"
       x2="70.0177"
       y2="-21.008801" /><linearGradient
       inkscape:collect="always"
       xlink:href="#SVGID_10_"
       id="linearGradient7453"
       gradientUnits="userSpaceOnUse"
       gradientTransform="matrix(4.269774e-4,-1,1,4.269774e-4,5.620648e-6,4.32598e-4)"
       x1="-45.002399"
       y1="36.7188"
       x2="-30.7024"
       y2="36.7188" /><linearGradient
       inkscape:collect="always"
       xlink:href="#SVGID_11_"
       id="linearGradient7455"
       gradientUnits="userSpaceOnUse"
       x1="37.973598"
       y1="65.907204"
       x2="37.2644"
       y2="22.132" /><linearGradient
       inkscape:collect="always"
       xlink:href="#SVGID_12_"
       id="linearGradient7457"
       gradientUnits="userSpaceOnUse"
       gradientTransform="matrix(0.9431,0.3325,-0.3524,0.9361,-2.455711e-5,5.873442e-4)"
       x1="-75.669899"
       y1="30.882799"
       x2="136.02859"
       y2="30.882799" /><linearGradient
       inkscape:collect="always"
       xlink:href="#SVGID_13_"
       id="linearGradient7459"
       gradientUnits="userSpaceOnUse"
       gradientTransform="matrix(0.3153,0.949,-0.9547,0.2982,-1.711845e-4,-2.696812e-4)"
       x1="15.3086"
       y1="-21.8379"
       x2="47.421501"
       y2="-21.8379" /><linearGradient
       inkscape:collect="always"
       xlink:href="#SVGID_14_"
       id="linearGradient7461"
       gradientUnits="userSpaceOnUse"
       gradientTransform="matrix(0.7229,0.691,-0.7143,0.7006,-4.130602e-5,-8.916855e-5)"
       x1="-12.3623"
       y1="6.5072999"
       x2="76.278397"
       y2="6.5072999" /><linearGradient
       gradientTransform="matrix(0.3145,0.9493,-0.9553,0.2962,-2.99871e-4,4.982054e-4)"
       y2="-21.008801"
       x2="70.0177"
       y1="-21.008801"
       x1="26.062"
       gradientUnits="userSpaceOnUse"
       id="SVGID_9_"><stop
         id="stop3264"
         style="stop-color:#302614"
         offset="0" /><stop
         id="stop3266"
         style="stop-color:#271900"
         offset="1" /></linearGradient><linearGradient
       gradientTransform="matrix(4.269774e-4,-1,1,4.269774e-4,5.620648e-6,4.32598e-4)"
       y2="36.7188"
       x2="-30.7024"
       y1="36.7188"
       x1="-45.002399"
       gradientUnits="userSpaceOnUse"
       id="SVGID_10_"><stop
         id="stop3271"
         style="stop-color:#5C433A"
         offset="0" /><stop
         id="stop3273"
         style="stop-color:#170B00"
         offset="1" /></linearGradient><linearGradient
       y2="22.132"
       x2="37.2644"
       y1="65.907204"
       x1="37.973598"
       gradientUnits="userSpaceOnUse"
       id="SVGID_11_"><stop
         id="stop3278"
         style="stop-color:#4F473B"
         offset="0" /><stop
         id="stop3280"
         style="stop-color:#32250F"
         offset="1" /></linearGradient><linearGradient
       gradientTransform="matrix(0.9431,0.3325,-0.3524,0.9361,-2.455711e-5,5.873442e-4)"
       y2="30.882799"
       x2="136.02859"
       y1="30.882799"
       x1="-75.669899"
       gradientUnits="userSpaceOnUse"
       id="SVGID_12_"><stop
         id="stop3285"
         style="stop-color:#AFA09D"
         offset="0.2039" /><stop
         id="stop3287"
         style="stop-color:#624124"
         offset="0.9686" /></linearGradient><linearGradient
       gradientTransform="matrix(0.3153,0.949,-0.9547,0.2982,-1.711845e-4,-2.696812e-4)"
       y2="-21.8379"
       x2="47.421501"
       y1="-21.8379"
       x1="15.3086"
       gradientUnits="userSpaceOnUse"
       id="SVGID_13_"><stop
         id="stop3292"
         style="stop-color:#5F5755"
         offset="0" /><stop
         id="stop3294"
         style="stop-color:#6F6462"
         offset="0.302" /><stop
         id="stop3296"
         style="stop-color:#271607"
         offset="1" /></linearGradient><linearGradient
       gradientTransform="matrix(0.7229,0.691,-0.7143,0.7006,-4.130602e-5,-8.916855e-5)"
       y2="6.5072999"
       x2="76.278397"
       y1="6.5072999"
       x1="-12.3623"
       gradientUnits="userSpaceOnUse"
       id="SVGID_14_"><stop
         id="stop3301"
         style="stop-color:#AFA09D"
         offset="0.2039" /><stop
         id="stop3303"
         style="stop-color:#624124"
         offset="0.9686" /></linearGradient><linearGradient
       inkscape:collect="always"
       xlink:href="#SVGID_14_"
       id="linearGradient7483"
       gradientUnits="userSpaceOnUse"
       gradientTransform="matrix(0.7229,0.691,-0.7143,0.7006,-4.130602e-5,-8.916855e-5)"
       x1="-12.3623"
       y1="6.5072999"
       x2="76.278397"
       y2="6.5072999" /><linearGradient
       inkscape:collect="always"
       xlink:href="#SVGID_13_"
       id="linearGradient7486"
       gradientUnits="userSpaceOnUse"
       gradientTransform="matrix(0.3153,0.949,-0.9547,0.2982,-1.711845e-4,-2.696812e-4)"
       x1="15.3086"
       y1="-21.8379"
       x2="47.421501"
       y2="-21.8379" /><linearGradient
       inkscape:collect="always"
       xlink:href="#SVGID_12_"
       id="linearGradient7489"
       gradientUnits="userSpaceOnUse"
       gradientTransform="matrix(0.9431,0.3325,-0.3524,0.9361,-2.455711e-5,5.873442e-4)"
       x1="-75.669899"
       y1="30.882799"
       x2="136.02859"
       y2="30.882799" /><linearGradient
       inkscape:collect="always"
       xlink:href="#SVGID_11_"
       id="linearGradient7492"
       gradientUnits="userSpaceOnUse"
       x1="37.973598"
       y1="65.907204"
       x2="37.2644"
       y2="22.132" /><linearGradient
       inkscape:collect="always"
       xlink:href="#SVGID_10_"
       id="linearGradient7495"
       gradientUnits="userSpaceOnUse"
       gradientTransform="matrix(4.269774e-4,-1,1,4.269774e-4,5.620648e-6,4.32598e-4)"
       x1="-45.002399"
       y1="36.7188"
       x2="-30.7024"
       y2="36.7188" /><linearGradient
       inkscape:collect="always"
       xlink:href="#SVGID_9_"
       id="linearGradient7498"
       gradientUnits="userSpaceOnUse"
       gradientTransform="matrix(0.3145,0.9493,-0.9553,0.2962,-2.99871e-4,4.982054e-4)"
       x1="26.062"
       y1="-21.008801"
       x2="70.0177"
       y2="-21.008801" /><linearGradient
       inkscape:collect="always"
       xlink:href="#SVGID_1_"
       id="linearGradient7520"
       gradientUnits="userSpaceOnUse"
       gradientTransform="matrix(-0.5725,0.8199,-0.8606,-0.5142,-3.858805e-4,-1.546741e-4)"
       x1="-8.2144003"
       y1="-75.506302"
       x2="-3.0613999"
       y2="-75.506302" /><linearGradient
       inkscape:collect="always"
       xlink:href="#SVGID_2_"
       id="linearGradient7522"
       gradientUnits="userSpaceOnUse"
       gradientTransform="matrix(-0.5744,0.8186,-0.8608,-0.5142,-6.777048e-5,7.706881e-5)"
       x1="-7.8706002"
       y1="-76.295898"
       x2="-2.648"
       y2="-76.295898" /><linearGradient
       inkscape:collect="always"
       xlink:href="#SVGID_3_"
       id="linearGradient7524"
       gradientUnits="userSpaceOnUse"
       gradientTransform="matrix(0.5725,0.8199,-0.8606,0.5142,4.142523e-4,-3.796816e-5)"
       x1="29.3188"
       y1="15.6514"
       x2="34.471802"
       y2="15.6514" /><linearGradient
       inkscape:collect="always"
       xlink:href="#SVGID_4_"
       id="linearGradient7526"
       gradientUnits="userSpaceOnUse"
       gradientTransform="matrix(0.5744,0.8186,-0.8608,0.5142,-3.195405e-4,-1.218915e-4)"
       x1="29.6689"
       y1="16.542"
       x2="34.891602"
       y2="16.542" /><linearGradient
       inkscape:collect="always"
       xlink:href="#SVGID_5_"
       id="linearGradient7528"
       gradientUnits="userSpaceOnUse"
       x1="36.8965"
       y1="14.9258"
       x2="36.8368"
       y2="-0.54930001" /><linearGradient
       inkscape:collect="always"
       xlink:href="#SVGID_6_"
       id="linearGradient7530"
       gradientUnits="userSpaceOnUse"
       gradientTransform="matrix(-0.0031,1,-1,-0.0031,2.598222e-4,-3.660354e-5)"
       x1="-0.82029998"
       y1="-36.049801"
       x2="55.605"
       y2="-36.049801" /><linearGradient
       inkscape:collect="always"
       xlink:href="#SVGID_7_"
       id="linearGradient7532"
       gradientUnits="userSpaceOnUse"
       gradientTransform="matrix(0.7172,0.6968,-0.7205,0.6943,-1.429319e-4,-2.419949e-5)"
       x1="19.063999"
       y1="4.6483998"
       x2="104.8096"
       y2="4.6483998" /><linearGradient
       inkscape:collect="always"
       xlink:href="#SVGID_8_"
       id="linearGradient7534"
       gradientUnits="userSpaceOnUse"
       gradientTransform="matrix(0.3156,0.9489,-0.9549,0.2976,-1.427531e-4,4.920959e-4)"
       x1="6.9380002"
       y1="-25.2715"
       x2="98.7547"
       y2="-25.2715" /><linearGradient
       inkscape:collect="always"
       xlink:href="#SVGID_9_"
       id="linearGradient7536"
       gradientUnits="userSpaceOnUse"
       gradientTransform="matrix(0.3145,0.9493,-0.9553,0.2962,-2.99871e-4,4.982054e-4)"
       x1="26.062"
       y1="-21.008801"
       x2="70.0177"
       y2="-21.008801" /><linearGradient
       inkscape:collect="always"
       xlink:href="#SVGID_10_"
       id="linearGradient7538"
       gradientUnits="userSpaceOnUse"
       gradientTransform="matrix(4.269774e-4,-1,1,4.269774e-4,5.620648e-6,4.32598e-4)"
       x1="-45.002399"
       y1="36.7188"
       x2="-30.7024"
       y2="36.7188" /><linearGradient
       inkscape:collect="always"
       xlink:href="#SVGID_11_"
       id="linearGradient7540"
       gradientUnits="userSpaceOnUse"
       x1="37.973598"
       y1="65.907204"
       x2="37.2644"
       y2="22.132" /><linearGradient
       inkscape:collect="always"
       xlink:href="#SVGID_12_"
       id="linearGradient7542"
       gradientUnits="userSpaceOnUse"
       gradientTransform="matrix(0.9431,0.3325,-0.3524,0.9361,-2.455711e-5,5.873442e-4)"
       x1="-75.669899"
       y1="30.882799"
       x2="136.02859"
       y2="30.882799" /><linearGradient
       inkscape:collect="always"
       xlink:href="#SVGID_13_"
       id="linearGradient7544"
       gradientUnits="userSpaceOnUse"
       gradientTransform="matrix(0.3153,0.949,-0.9547,0.2982,-1.711845e-4,-2.696812e-4)"
       x1="15.3086"
       y1="-21.8379"
       x2="47.421501"
       y2="-21.8379" /><linearGradient
       inkscape:collect="always"
       xlink:href="#SVGID_14_"
       id="linearGradient7546"
       gradientUnits="userSpaceOnUse"
       gradientTransform="matrix(0.7229,0.691,-0.7143,0.7006,-4.130602e-5,-8.916855e-5)"
       x1="-12.3623"
       y1="6.5072999"
       x2="76.278397"
       y2="6.5072999" /><linearGradient
       inkscape:collect="always"
       xlink:href="#SVGID_15_"
       id="linearGradient7548"
       gradientUnits="userSpaceOnUse"
       gradientTransform="matrix(0.0859,0.9644,-1.0002,0.0395,-79.9002,4.8001)"
       x1="17.499001"
       y1="-97.023399"
       x2="21.8652"
       y2="-97.023399" /><linearGradient
       inkscape:collect="always"
       xlink:href="#SVGID_16_"
       id="linearGradient7550"
       gradientUnits="userSpaceOnUse"
       gradientTransform="matrix(-0.0859,0.9644,1.0002,0.0395,152.5506,4.8001)"
       x1="17.499001"
       y1="-97.023399"
       x2="21.8652"
       y2="-97.023399" /></defs><sodipodi:namedview
     pagecolor="#ffffff"
     bordercolor="#666666"
     borderopacity="1"
     objecttolerance="10"
     gridtolerance="10"
     guidetolerance="10"
     inkscape:pageopacity="0"
     inkscape:pageshadow="2"
     inkscape:window-width="1366"
     inkscape:window-height="722"
     id="namedview3331"
     showgrid="false"
     fit-margin-top="0"
     fit-margin-left="0"
     fit-margin-right="0"
     fit-margin-bottom="0"
     inkscape:zoom="6.8405798"
     inkscape:cx="51.458323"
     inkscape:cy="29.258038"
     inkscape:window-x="0"
     inkscape:window-y="27"
     inkscape:window-maximized="1"
     inkscape:current-layer="svg3180" /><symbol
     id="price_x5F_tag_x5F_pt_x5F_mc_1_"
     transform="translate(122.79156,15.889831)"><g
       id="Layer_1_4_" /></symbol><g
     id="g7500"
     transform="translate(-1.1745399,-7.5)"><path
       style="fill:url(#linearGradient7520);fill-rule:evenodd"
       d="m 70.25,39.35 c -0.366,0.134 -0.816,0.233 -1.35,0.301 -1.567,0.033 -3.417,-0.367 -5.551,-1.2 l 2.051,-8.3 c 0.3,0.267 0.6,0.517 0.899,0.75 0.066,0.4 0.134,0.934 0.2,1.6 0.066,1.667 0.083,2.884 0.05,3.65 -0.033,0.8 0.4,1.5 1.3,2.1 0.901,0.599 1.701,0.966 2.401,1.099 z"
       id="path3198"
       inkscape:connector-curvature="0" /><path
       style="fill:url(#linearGradient7522);fill-rule:evenodd"
       d="m 66.3,30.9 c 3.934,3.333 5.767,5.583 5.5,6.75 -0.233,0.866 -0.75,1.433 -1.55,1.699 -0.7,-0.133 -1.5,-0.5 -2.4,-1.1 -0.899,-0.6 -1.333,-1.3 -1.3,-2.1 0.033,-0.767 0.017,-1.984 -0.05,-3.65 C 66.434,31.833 66.366,31.3 66.3,30.9 z"
       id="path3205"
       inkscape:connector-curvature="0" /><path
       style="fill:url(#linearGradient7524);fill-rule:evenodd"
       d="M 6.7,30.9 C 7,30.667 7.3,30.417 7.6,30.15 l 2.05,8.3 C 7.517,39.283 5.667,39.683 4.1,39.65 3.567,39.583 3.117,39.483 2.75,39.349 c 0.7,-0.133 1.5,-0.5 2.4,-1.1 0.9,-0.6 1.333,-1.3 1.3,-2.1 C 6.416,35.382 6.433,34.165 6.5,32.499 6.567,31.833 6.633,31.3 6.7,30.9 z"
       id="path3212"
       inkscape:connector-curvature="0" /><path
       style="fill:url(#linearGradient7526);fill-rule:evenodd"
       d="M 2.75,39.35 C 1.95,39.083 1.433,38.517 1.2,37.651 c -0.267,-1.167 1.566,-3.417 5.5,-6.75 -0.067,0.4 -0.133,0.934 -0.2,1.6 -0.067,1.667 -0.083,2.884 -0.05,3.65 0.033,0.8 -0.4,1.5 -1.3,2.1 -0.9,0.6 -1.7,0.966 -2.4,1.099 z"
       id="path3219"
       inkscape:connector-curvature="0" /><path
       inkscape:connector-curvature="0"
       id="path3238"
       d="m 61.95,15.95 c -0.434,-0.3 -0.884,-0.583 -1.351,-0.85 -2.033,-1.033 -4.55,-1.55 -7.55,-1.55 H 20.1 c -2.967,0 -5.434,0.5 -7.4,1.5 -0.3,0.167 -0.583,0.333 -0.85,0.5 L 17.3,8.8 C 17.767,8.433 18.267,8.15 18.8,7.95 19.5,7.683 20.25,7.533 21.05,7.5 H 53.8 c 0.733,0.033 1.4,0.2 2,0.5 0.566,0.267 1.033,0.65 1.4,1.15 0.767,0.934 1.6,2.05 2.5,3.35 0.467,0.7 1.133,1.717 2,3.05 0.067,0.133 0.15,0.267 0.25,0.4 z"
       style="fill:url(#linearGradient7528);fill-rule:evenodd" /><path
       inkscape:connector-curvature="0"
       id="path3245"
       d="m 60.6,15.1 c 0.467,0.267 0.917,0.55 1.351,0.85 0.233,0.466 0.55,1 0.95,1.6 0,0.034 0.017,0.05 0.05,0.05 0.033,0.1 0.083,0.217 0.149,0.35 0.101,0.1 0.2,0.267 0.301,0.5 0.033,0.1 0.083,0.2 0.149,0.3 0.033,0.067 0.084,0.15 0.15,0.25 l -0.05,-0.05 c 0.933,1.833 1.399,4.133 1.399,6.9 v 28.6 c 0,2.666 -0.416,4.899 -1.25,6.7 -0.133,0.267 -0.267,0.517 -0.399,0.75 -0.334,0.633 -0.717,1.183 -1.15,1.649 -1.8,2.033 -4.467,3.25 -8,3.65 -0.767,0.066 -1.566,0.1 -2.4,0.1 H 19 c -5.1,0 -8.7,-1.399 -10.8,-4.2 C 8.1,62.9 8.017,62.684 7.95,62.45 7.583,61.717 7.317,60.917 7.15,60.05 6.917,58.85 6.8,57.533 6.8,56.1 V 27.4 C 6.867,25.233 7.267,23.35 8,21.75 8.267,21.15 8.583,20.567 8.95,20 8.983,19.9 9.033,19.817 9.1,19.75 9.3,19.483 9.517,19.217 9.75,18.95 l 2.3,-2.7 c 0.2,-0.133 0.417,-0.267 0.65,-0.4 2.033,-1.067 4.633,-1.6 7.8,-1.6 h 34.05 c 2.266,0 4.283,0.283 6.05,0.85 z"
       style="fill:url(#linearGradient7530);fill-rule:evenodd" /><path
       inkscape:connector-curvature="0"
       id="path3252"
       d="m 8.2,63.1 c 2.1,2.801 5.7,4.2 10.8,4.2 h 32.85 c 0.834,0 1.634,-0.033 2.4,-0.1 3.533,-0.4 6.2,-1.617 8,-3.65 0.434,-0.467 0.816,-1.017 1.15,-1.649 0.133,-0.233 0.267,-0.483 0.399,-0.75 0.834,-1.801 1.25,-4.034 1.25,-6.7 v -28.6 c 0,-2.767 -0.467,-5.067 -1.399,-6.9 L 63.7,19 c 0.1,0.033 0.166,0.1 0.2,0.2 0.133,0.2 0.267,0.4 0.399,0.6 0.134,0.233 0.267,0.467 0.4,0.7 0.899,1.867 1.35,4.167 1.35,6.9 v 28.7 c 0,2.601 -0.416,4.834 -1.25,6.7 -0.1,0.2 -0.217,0.434 -0.35,0.7 v 0.05 c -1.9,3.267 -5.3,5.05 -10.2,5.351 -0.434,0 -0.884,0 -1.35,0 H 20 C 14.567,68.901 10.817,67.284 8.75,64.05 8.55,63.75 8.367,63.434 8.2,63.1 z"
       style="fill:url(#linearGradient7532);fill-rule:evenodd" /><path
       inkscape:connector-curvature="0"
       id="path3259"
       d="m 11.85,15.55 c 0.267,-0.167 0.55,-0.333 0.85,-0.5 1.966,-1 4.433,-1.5 7.4,-1.5 h 32.95 c 3,0 5.517,0.517 7.55,1.55 -1.767,-0.567 -3.783,-0.85 -6.05,-0.85 H 20.5 c -3.167,0 -5.767,0.533 -7.8,1.6 -0.233,0.133 -0.45,0.267 -0.65,0.4 l -2.3,2.7 C 9.517,19.217 9.3,19.483 9.1,19.75 9.033,19.817 8.983,19.9 8.95,20 8.583,20.567 8.267,21.15 8,21.75 c -0.733,1.6 -1.133,3.483 -1.2,5.65 0,-2.167 0.284,-4.05 0.85,-5.65 0.3,-0.9 0.7,-1.717 1.2,-2.45 C 8.883,19.2 8.933,19.117 9,19.05 9.2,18.783 9.417,18.5 9.65,18.2 l 2.2,-2.65 z"
       style="fill:url(#linearGradient7534);fill-rule:evenodd" /><path
       style="fill:url(#linearGradient7536);fill-rule:evenodd"
       d="m 57.2,30.6 c 0.1,0.333 0.184,0.65 0.25,0.95 -0.566,-0.566 -1.217,-1.017 -1.95,-1.35 -1.4,-0.667 -3.15,-1 -5.25,-1 h -23.2 c -6.267,0 -9.4,2.933 -9.4,8.8 v 19.8 c 0,0.9 0.1,1.75 0.3,2.55 -1.467,-1.466 -2.2,-3.616 -2.2,-6.449 V 34.2 c 0,-5.9 3.117,-8.85 9.35,-8.85 h 23.25 c 3.434,0 5.917,0.883 7.45,2.65 0.267,0.3 0.5,0.633 0.7,1 0.267,0.467 0.5,1 0.7,1.6 z"
       id="path3268"
       inkscape:connector-curvature="0" /><path
       style="fill:url(#linearGradient7538);fill-rule:evenodd"
       d="m 17.95,60.35 c 0.233,0.301 0.5,0.551 0.8,0.75 0.2,0.101 0.4,0.217 0.6,0.351 0.767,0.633 1.75,1.116 2.95,1.45 1,0.3 2.233,0.449 3.7,0.449 h 23.25 c 6.2,0 9.3,-2.949 9.3,-8.85 V 34.75 C 58.55,34.117 58.1,32.733 57.2,30.6 57,30 56.767,29.467 56.5,29 56.3,28.633 56.066,28.3 55.8,28 54.267,26.233 51.783,25.35 48.35,25.35 H 25.1 c -6.233,0 -9.35,2.95 -9.35,8.85 v 19.7 c 0,2.833 0.733,4.984 2.2,6.45 z M 56.7,26.95 c 1.467,1.5 2.2,3.7 2.2,6.6 V 54.5 c 0,6.233 -3.317,9.35 -9.95,9.35 H 24.3 c -2.233,0 -4.083,-0.35 -5.55,-1.05 -0.367,-0.267 -0.733,-0.5 -1.1,-0.7 -0.333,-0.233 -0.617,-0.5 -0.85,-0.8 -1.533,-1.533 -2.3,-3.8 -2.3,-6.8 V 33.55 c 0,-6.167 3.267,-9.25 9.8,-9.25 h 24.65 c 3.033,0 5.366,0.633 7,1.9 0.267,0.2 0.517,0.45 0.75,0.75 z"
       id="path3275"
       inkscape:connector-curvature="0" /><path
       style="fill:url(#linearGradient7540);fill-rule:evenodd"
       d="m 19.35,61.45 c -0.2,-0.134 -0.4,-0.25 -0.6,-0.351 -0.3,-0.199 -0.567,-0.449 -0.8,-0.75 -0.2,-0.8 -0.3,-1.649 -0.3,-2.55 V 38 c 0,-5.867 3.133,-8.8 9.4,-8.8 h 23.2 c 2.1,0 3.85,0.333 5.25,1 0.733,0.333 1.384,0.783 1.95,1.35 0.133,0.833 0.2,1.717 0.2,2.65 v 19.7 c 0,5.899 -3.101,8.85 -9.301,8.85 H 25.1 c -1.467,0 -2.7,-0.167 -3.7,-0.5 -0.767,-0.2 -1.45,-0.467 -2.05,-0.8 z"
       id="path3282"
       inkscape:connector-curvature="0" /><path
       style="fill:url(#linearGradient7542);fill-rule:evenodd"
       d="m 57.2,30.6 c 0.899,2.133 1.35,3.517 1.35,4.15 V 54.5 c 0,5.9 -3.1,8.85 -9.3,8.85 H 26 c -1.467,0 -2.7,-0.149 -3.7,-0.449 -1.2,-0.334 -2.183,-0.817 -2.95,-1.45 0.6,0.333 1.283,0.6 2.05,0.8 1,0.333 2.233,0.5 3.7,0.5 h 23.25 c 6.2,0 9.301,-2.95 9.301,-8.85 V 34.2 c 0,-0.934 -0.067,-1.817 -0.2,-2.65 C 57.384,31.25 57.3,30.933 57.2,30.6 z"
       id="path3289"
       inkscape:connector-curvature="0" /><path
       style="fill:url(#linearGradient7544);fill-rule:evenodd"
       d="m 56.7,26.95 c 1.967,1.466 2.95,3.9 2.95,7.3 V 55.5 c -0.167,5.967 -3.467,8.95 -9.9,8.95 H 25.1 c -2.5,0 -4.533,-0.45 -6.1,-1.351 -0.5,-0.333 -0.95,-0.666 -1.35,-1 0.367,0.2 0.733,0.434 1.1,0.7 1.467,0.7 3.317,1.05 5.55,1.05 h 24.65 c 6.633,0 9.95,-3.116 9.95,-9.35 V 33.55 c 0,-2.9 -0.733,-5.1 -2.2,-6.6 z"
       id="path3298"
       inkscape:connector-curvature="0" /><path
       style="fill:url(#linearGradient7546);fill-rule:evenodd"
       d="m 16.8,61.3 c -1.966,-1.533 -2.95,-4 -2.95,-7.399 V 33 c 0,-6.167 3.283,-9.25 9.85,-9.25 h 24.65 c 3.4,0 5.934,0.817 7.601,2.45 -1.634,-1.267 -3.967,-1.9 -7,-1.9 H 24.3 c -6.533,0 -9.8,3.083 -9.8,9.25 V 54.5 c 0,3 0.767,5.267 2.3,6.8 z"
       id="path3305"
       inkscape:connector-curvature="0" /><path
       style="fill-opacity:0.43529998;fill-rule:evenodd"
       d="m 16,19.223 c 0,-0.646 0.216,-1.21 0.649,-1.694 0.467,-0.484 1.017,-0.726 1.65,-0.726 0.633,0 1.149,0.242 1.55,0.726 0.5,0.484 0.75,1.049 0.75,1.694 0,0.742 -0.25,1.339 -0.75,1.791 -0.4,0.484 -0.917,0.726 -1.55,0.726 -0.634,0 -1.184,-0.242 -1.65,-0.726 C 16.216,20.562 16,19.965 16,19.223 z"
       id="path3309"
       inkscape:connector-curvature="0" /><path
       style="fill:url(#linearGradient7548);fill-rule:evenodd"
       d="m 17.45,17.965 c 0.367,-0.323 0.817,-0.484 1.351,-0.484 0.566,0 1.017,0.161 1.35,0.484 0.367,0.387 0.55,0.839 0.55,1.355 0,0.516 -0.183,0.936 -0.55,1.258 -0.399,0.355 -0.85,0.533 -1.35,0.533 -0.533,0 -0.983,-0.178 -1.351,-0.533 -0.399,-0.355 -0.6,-0.774 -0.6,-1.258 0,-0.516 0.2,-0.968 0.6,-1.355 z"
       id="path3316"
       inkscape:connector-curvature="0" /><path
       style="fill-opacity:0.43529998;fill-rule:evenodd"
       d="m 56.649,19.223 c 0,-0.646 -0.216,-1.21 -0.649,-1.694 -0.467,-0.484 -1.017,-0.726 -1.65,-0.726 -0.633,0 -1.149,0.242 -1.55,0.726 -0.5,0.484 -0.75,1.049 -0.75,1.694 0,0.742 0.25,1.339 0.75,1.791 0.4,0.484 0.917,0.726 1.55,0.726 0.634,0 1.184,-0.242 1.65,-0.726 0.434,-0.452 0.649,-1.049 0.649,-1.791 z"
       id="path3320"
       inkscape:connector-curvature="0" /><path
       style="fill:url(#linearGradient7550);fill-rule:evenodd"
       d="m 55.2,17.965 c -0.367,-0.323 -0.817,-0.484 -1.351,-0.484 -0.566,0 -1.017,0.161 -1.35,0.484 -0.367,0.387 -0.55,0.839 -0.55,1.355 0,0.516 0.183,0.936 0.55,1.258 0.399,0.355 0.85,0.533 1.35,0.533 0.533,0 0.983,-0.178 1.351,-0.533 0.399,-0.355 0.6,-0.774 0.6,-1.258 0,-0.516 -0.2,-0.968 -0.6,-1.355 z"
       id="path3327"
       inkscape:connector-curvature="0" /></g><g
     id="price_x5F_tag_x5F_pt_x5F_mc"
     transform="translate(122.79156,15.889831)"><use
       xlink:href="#price_x5F_tag_x5F_pt_x5F_mc_1_"
       width="-32766"
       height="-32766"
       id="price_x5F_tag_x5F_pt"
       x="16383"
       y="16383"
       transform="matrix(1,0,0,-1,-86.29156,97.689631)"
       style="overflow:visible" /></g><g
     id="g7885"
     transform="matrix(0.71532008,0,0,0.71532008,19.585963,24.530709)"><symbol
       transform="translate(-11.289911,-5.2442013)"
       viewBox="0 -432.375 519.925 432.375"
       id="cheese1"><g
         id="Layer_1_2_"><path
           inkscape:connector-curvature="0"
           id="path4249"
           d="m 318.3,-404.55 c -7.643,0.4 -27.293,13.434 -58.95,39.1 -40.704,32.995 -89.037,74.495 -145,124.5 -51.077,45.646 -78.944,74.047 -83.6,85.2 -0.445,1.066 -0.679,1.974 -0.7,2.725 -0.249,8.604 10.667,21.638 32.75,39.1 22.088,17.458 37.697,30.575 46.825,39.35 9.123,8.781 16.515,15.015 22.175,18.7 5.668,3.679 20.118,11.729 43.35,24.15 23.232,12.419 41.315,20.928 54.25,25.525 11.7,4.134 17.9,6.2 18.6,6.2 30.8,0 83.2,-39.167 157.2,-117.5 18.433,-19.5 43.433,-47.267 75,-83.3 20.135,-22.999 32.826,-36.866 38.075,-41.6 0.618,-1.344 1.168,-2.569 1.65,-3.675 -0.104,-1 -0.229,-2.034 -0.375,-3.1 -1.02,-0.55 -2.12,-0.825 -3.3,-0.825 -0.765,0 -1.474,0.05 -2.125,0.15 -0.562,0.735 -1.128,1.469 -1.7,2.2 -16.926,21.511 -33.668,41.911 -50.225,61.2 -24.8,28.9 -48.567,54.95 -71.3,78.15 C 329.367,-45.433 286.066,-14 261,-14 c -13.2,0 -32.167,-5.283 -56.9,-15.85 -23.367,-9.967 -47.383,-22.65 -72.05,-38.05 -25.4,-15.867 -46,-31.233 -61.8,-46.1 -17.501,-16.47 -26.268,-28.262 -26.3,-35.375 -0.031,-7.106 11.636,-23.806 35,-50.1 23.362,-26.294 52.712,-51.703 88.05,-76.225 35.337,-24.527 65.729,-49.344 91.175,-74.45 23.76,-23.44 43.852,-40.006 60.275,-49.7 -0.028,-1.487 -0.078,-3.054 -0.15,-4.7 z"
           style="fill:#ddbf79;fill-rule:evenodd" /><path
           inkscape:connector-curvature="0"
           id="path4251"
           d="m 321.9,-401.8 c -1.129,0.618 -2.279,1.268 -3.45,1.95 -16.424,9.694 -36.516,26.26 -60.275,49.7 -25.446,25.105 -55.838,49.922 -91.175,74.45 -35.337,24.522 -64.688,49.931 -88.05,76.225 -23.364,26.294 -35.031,42.994 -35,50.1 0.032,7.113 8.799,18.905 26.3,35.375 15.8,14.867 36.4,30.233 61.8,46.1 24.667,15.4 48.684,28.083 72.05,38.05 24.733,10.567 43.7,15.85 56.9,15.85 25.066,0 68.367,-31.433 129.9,-94.3 22.733,-23.2 46.5,-49.25 71.3,-78.15 16.557,-19.289 33.298,-39.688 50.225,-61.2 0.572,-0.731 1.139,-1.465 1.7,-2.2 0.043,-0.048 0.085,-0.098 0.125,-0.15 -0.833,-0.833 -2.417,-1.417 -4.75,-1.75 l -2.175,-0.1 c -5.009,-4.251 -10.934,-9.618 -17.775,-16.1 -15,-14.233 -27.433,-26.917 -37.3,-38.05 -2.667,-3.067 -9.434,-8.25 -20.3,-15.55 -14.534,-9.5 -25.917,-16.967 -34.15,-22.4 -24.453,-16.07 -49.053,-34.753 -73.8,-56.05 -0.702,-0.596 -1.402,-1.196 -2.1,-1.8 z m -113.825,278.05 c 3.33,-8.813 10.655,-16.196 21.975,-22.15 6.267,-3.3 13.267,-5.867 21,-7.7 6.833,-1.6 13.15,-2.4 18.95,-2.4 15.6,0 26.917,2.65 33.95,7.95 2.192,1.655 4.083,3.63 5.675,5.925 4.25,6.109 6.375,14.484 6.375,25.125 0,15.733 -5.95,28.167 -17.85,37.3 -3.801,2.929 -8.051,5.388 -12.75,7.375 -3.314,0.217 -8.78,0.325 -16.4,0.325 -5.333,0 -11.434,-0.833 -18.3,-2.5 -7.5,-1.8 -14.4,-4.283 -20.7,-7.45 -16,-8.066 -24,-18.083 -24,-30.05 0,-4.165 0.691,-8.082 2.075,-11.75 z M 355.15,-170.925 C 354.383,-174.031 354,-177.39 354,-181 c 0,-7.2 3.35,-13.517 10.05,-18.95 5.86,-4.741 12.51,-7.382 19.95,-7.925 0.623,-0.05 1.248,-0.083 1.875,-0.1 0.373,-0.017 0.748,-0.025 1.125,-0.025 3.467,0 7.15,2 11.05,6 3.967,4.1 5.95,8.1 5.95,12 0,10.8 -2.633,20.167 -7.9,28.1 -0.893,1.339 -1.843,2.597 -2.85,3.775 -4.584,1.417 -9.334,2.125 -14.25,2.125 -1.566,0 -6.6,-1.6 -15.1,-4.8 -2.1,-0.782 -4,-1.515 -5.7,-2.2 -1.341,-2.428 -2.358,-5.07 -3.05,-7.925 z m -32.5,-61.675 c 3.154,-1.525 5.621,-2.475 7.4,-2.85 1.634,-0.367 6.617,-0.55 14.95,-0.55 3.5,0 6.133,0.083 7.9,0.25 2.967,0.267 5.333,0.85 7.1,1.75 0,1 -0.083,1.966 -0.25,2.9 -1.026,5.469 -5.06,9.686 -12.1,12.65 -5.901,2.426 -13.626,3.901 -23.175,4.425 -5.815,-3 -9.307,-7.658 -10.475,-13.975 3.3,-1.884 6.184,-3.417 8.65,-4.6 z m -90.575,-12.95 c 1.188,-0.89 2.513,-1.69 3.975,-2.4 5.5,-2.7 12.817,-4.05 21.95,-4.05 11.633,0 21.667,3.35 30.1,10.05 7.933,6.333 11.9,13.317 11.9,20.95 0,2.767 -0.316,5.316 -0.95,7.65 -1.621,5.865 -5.271,10.349 -10.95,13.45 -6.422,3.508 -15.897,5.45 -28.425,5.825 -13.087,-2.88 -21.979,-6.239 -26.675,-10.075 -6,-4.9 -9,-12.85 -9,-23.85 0,-7.689 2.691,-13.539 8.075,-17.55 z m 50.525,-93 c 2.714,-1.925 5.865,-3.726 9.45,-5.4 5.534,-2.6 11.617,-4.65 18.25,-6.15 5.7,-1.267 10.6,-1.9 14.7,-1.9 5.277,0 10.152,0.467 14.625,1.4 1.763,0.369 3.463,0.811 5.1,1.325 4.177,1.306 7.952,3.081 11.325,5.325 9.3,6.167 13.95,15.15 13.95,26.95 0,3.667 -1.283,7.767 -3.85,12.3 -2.5,4.5 -5.867,8.75 -10.1,12.75 -6.151,5.779 -12.477,9.762 -18.975,11.95 H 308.65 c -0.289,-0.037 -0.581,-0.071 -0.875,-0.1 -17.831,-9.247 -28.489,-15.53 -31.975,-18.85 -2.4,-2.3 -4,-4.85 -4.8,-7.65 -0.667,-2.3 -1,-5.767 -1,-10.4 0,-7.551 3.4,-14.126 10.2,-19.725 0.758,-0.617 1.557,-1.226 2.4,-1.825 z m -100.95,183.6 c -1.107,4.913 -4.974,9.213 -11.6,12.9 -7.233,4.033 -14.917,6.05 -23.05,6.05 -1.566,0.133 -3.083,0.183 -4.55,0.15 -1.353,-0.031 -2.669,-0.156 -3.95,-0.375 -1.942,-1.679 -3.742,-3.471 -5.4,-5.375 -3.4,-3.867 -5.1,-7 -5.1,-9.4 0,-6.331 1.333,-11.447 4,-15.35 1.561,-2.282 3.578,-4.148 6.05,-5.6 4.6,-2.7 11.25,-4.05 19.95,-4.05 6.3,0 11.65,1.35 16.05,4.05 5.3,3.233 7.95,7.883 7.95,13.95 0,1.043 -0.117,2.06 -0.35,3.05 z m 13.875,-47.025 c -0.593,2.347 -1.751,4.339 -3.475,5.975 -2.077,1.956 -4.794,3.197 -8.15,3.725 -3.735,-0.639 -7.885,-1.981 -12.45,-4.025 -6.534,-3.3 -11.684,-5.867 -15.45,-7.7 3.621,-3.621 8.313,-7.129 14.075,-10.525 0.076,-0.04 0.151,-0.082 0.225,-0.125 6.1,-3.567 10.667,-5.35 13.7,-5.35 2.9,0 5.583,1.333 8.05,4 2.634,2.833 3.95,6.167 3.95,10 0,1.44 -0.158,2.782 -0.475,4.025 z m 245,-28.825 c 0.691,-2.25 2.649,-4.633 5.875,-7.15 3.467,-2.7 5.75,-4.05 6.85,-4.05 2,0 4.066,2.5 6.2,7.5 0.402,0.956 0.761,1.864 1.075,2.725 1.15,3.17 1.725,5.761 1.725,7.775 -0.4,0 -1.684,0.333 -3.85,1 -2.166,0.667 -4.216,1 -6.15,1 -1.63,0 -3.055,-0.025 -4.275,-0.075 -3.967,-1.002 -6.325,-1.927 -7.075,-2.775 -0.433,-0.467 -0.65,-1.85 -0.65,-4.15 0,-0.59 0.092,-1.19 0.275,-1.8 z"
           style="fill:#f5e1a3;fill-rule:evenodd" /><path
           inkscape:connector-curvature="0"
           id="path4253"
           d="m 309.625,-142.125 c 0.25,1.07 0.375,2.112 0.375,3.125 0,9.967 -4.65,18.967 -13.95,27 -9.3,8 -19.65,12 -31.05,12 -14.566,0 -26.867,-2.017 -36.9,-6.05 -10.215,-4.114 -16.89,-10.014 -20.025,-17.7 -1.384,3.668 -2.075,7.585 -2.075,11.75 0,11.967 8,21.983 24,30.05 6.3,3.167 13.2,5.65 20.7,7.45 6.866,1.667 12.966,2.5 18.3,2.5 7.62,0 13.086,-0.108 16.4,-0.325 4.699,-1.987 8.949,-4.446 12.75,-7.375 11.9,-9.133 17.85,-21.567 17.85,-37.3 0,-10.641 -2.125,-19.016 -6.375,-25.125 z m 45.525,-28.8 c 0.692,2.854 1.709,5.497 3.05,7.925 1.7,0.685 3.6,1.418 5.7,2.2 8.5,3.2 13.534,4.8 15.1,4.8 4.916,0 9.666,-0.708 14.25,-2.125 1.007,-1.178 1.958,-2.436 2.85,-3.775 5.267,-7.934 7.9,-17.3 7.9,-28.1 0,-3.9 -1.983,-7.9 -5.95,-12 -3.9,-4 -7.583,-6 -11.05,-6 -0.377,0 -0.752,0.008 -1.125,0.025 4.239,0.27 7.714,2.211 10.425,5.825 2.467,3.267 3.7,6.65 3.7,10.15 0,5.8 -2.684,11.15 -8.05,16.05 -5.8,5.3 -12.784,7.95 -20.95,7.95 -3.066,0.133 -5.35,0.183 -6.85,0.15 -2.533,-0.066 -4.65,-0.5 -6.35,-1.3 -0.94,-0.435 -1.823,-1.027 -2.65,-1.775 z m 4.6,-60.175 c -8.051,4.733 -13.968,7.1 -17.75,7.1 -9.551,-3.107 -16,-5.974 -19.35,-8.6 -2.466,1.183 -5.35,2.716 -8.65,4.6 1.168,6.317 4.66,10.976 10.475,13.975 9.548,-0.524 17.273,-1.999 23.175,-4.425 7.04,-2.964 11.074,-7.181 12.1,-12.65 z m -60.7,17.75 c -0.439,0.265 -0.889,0.532 -1.35,0.8 -5.2,3.033 -9.434,4.55 -12.7,4.55 -2.9,0 -7.35,-1.383 -13.35,-4.15 -5.6,-2.6 -11.483,-5.9 -17.65,-9.9 -14.667,-9.467 -22,-16.45 -22,-20.95 0,-1.065 0.025,-1.915 0.075,-2.55 -5.384,4.011 -8.075,9.861 -8.075,17.55 0,11 3,18.95 9,23.85 4.696,3.836 13.587,7.194 26.675,10.075 12.528,-0.375 22.003,-2.316 28.425,-5.825 5.678,-3.101 9.329,-7.585 10.95,-13.45 z m 40.575,-137.25 c 3.223,1.834 5.798,3.951 7.725,6.35 0.015,0.019 0.031,0.035 0.05,0.05 1.733,3.937 2.6,7.67 2.6,11.2 0,5.233 -5.983,10.9 -17.95,17 -4.366,2.233 -8.866,4.167 -13.5,5.8 -4.2,1.467 -7.05,2.2 -8.55,2.2 -6.833,0 -13.483,-3.3 -19.95,-9.9 -4.851,-4.947 -7.942,-10.172 -9.275,-15.675 0.424,-1.491 1.032,-3.149 1.825,-4.975 -0.843,0.599 -1.643,1.208 -2.4,1.825 -6.8,5.599 -10.2,12.174 -10.2,19.725 0,4.633 0.333,8.1 1,10.4 0.8,2.8 2.4,5.35 4.8,7.65 3.486,3.32 14.145,9.604 31.975,18.85 0.294,0.029 0.586,0.063 0.875,0.1 h 28.425 c 6.498,-2.188 12.823,-6.171 18.975,-11.95 4.233,-4 7.6,-8.25 10.1,-12.75 2.567,-4.533 3.85,-8.633 3.85,-12.3 0,-11.8 -4.65,-20.783 -13.95,-26.95 -3.373,-2.244 -7.147,-4.019 -11.325,-5.325 -1.637,-0.515 -3.337,-0.956 -5.1,-1.325 z M 132,-166.35 c -2.667,3.903 -4,9.02 -4,15.35 0,2.4 1.7,5.533 5.1,9.4 1.658,1.904 3.458,3.696 5.4,5.375 1.281,0.219 2.598,0.344 3.95,0.375 1.466,0.033 2.983,-0.017 4.55,-0.15 8.133,0 15.816,-2.017 23.05,-6.05 6.626,-3.688 10.493,-7.987 11.6,-12.9 -0.013,0.019 -0.029,0.036 -0.05,0.05 -4.5,3.267 -11.034,4.9 -19.6,4.9 -5.434,0 -11.4,-1.317 -17.9,-3.95 -8.067,-3.3 -12.1,-7.316 -12.1,-12.05 0,-0.118 0,-0.234 0,-0.35 z m 38.075,-48.175 c -5.763,3.396 -10.455,6.904 -14.075,10.525 3.767,1.833 8.917,4.4 15.45,7.7 4.564,2.044 8.714,3.386 12.45,4.025 3.356,-0.528 6.073,-1.77 8.15,-3.725 1.724,-1.636 2.882,-3.628 3.475,-5.975 -2.248,1.317 -4.756,1.975 -7.525,1.975 -6.6,0 -11.25,-1.3 -13.95,-3.9 -2.322,-2.208 -3.648,-5.749 -3.975,-10.625 z m 290.45,-17.25 c -0.589,0.956 -1.331,1.581 -2.225,1.875 -1,0.367 -2.566,0.467 -4.7,0.3 -3.434,-0.267 -5.55,-0.4 -6.35,-0.4 -2.661,0 -4.902,-0.267 -6.725,-0.8 -0.183,0.61 -0.275,1.209 -0.275,1.8 0,2.3 0.217,3.683 0.65,4.15 0.75,0.848 3.108,1.773 7.075,2.775 1.22,0.05 2.645,0.075 4.275,0.075 1.934,0 3.983,-0.333 6.15,-1 2.167,-0.667 3.45,-1 3.85,-1 0,-2.014 -0.575,-4.605 -1.725,-7.775 z"
           style="fill:#ddaf64;fill-rule:evenodd" /><path
           inkscape:connector-curvature="0"
           id="path4255"
           d="m 208.075,-123.75 c 3.135,7.687 9.81,13.586 20.025,17.7 10.033,4.033 22.333,6.05 36.9,6.05 11.4,0 21.75,-4 31.05,-12 9.3,-8.033 13.95,-17.033 13.95,-27 0,-1.013 -0.125,-2.055 -0.375,-3.125 -1.591,-2.294 -3.483,-4.27 -5.675,-5.925 -7.034,-5.3 -18.35,-7.95 -33.95,-7.95 -5.8,0 -12.117,0.8 -18.95,2.4 -7.733,1.833 -14.733,4.4 -21,7.7 -11.32,5.954 -18.645,13.337 -21.975,22.15 z m 177.8,-84.225 c -0.627,0.017 -1.252,0.05 -1.875,0.1 -7.44,0.542 -14.09,3.184 -19.95,7.925 -6.7,5.433 -10.05,11.75 -10.05,18.95 0,3.61 0.383,6.969 1.15,10.075 0.827,0.748 1.71,1.34 2.65,1.775 1.7,0.8 3.817,1.233 6.35,1.3 1.5,0.033 3.784,-0.017 6.85,-0.15 8.167,0 15.15,-2.65 20.95,-7.95 5.366,-4.9 8.05,-10.25 8.05,-16.05 0,-3.5 -1.233,-6.883 -3.7,-10.15 -2.711,-3.614 -6.186,-5.556 -10.425,-5.825 z M 322.65,-232.6 c 3.35,2.626 9.799,5.493 19.35,8.6 3.782,0 9.699,-2.367 17.75,-7.1 0.167,-0.934 0.25,-1.9 0.25,-2.9 -1.767,-0.9 -4.133,-1.483 -7.1,-1.75 -1.767,-0.167 -4.4,-0.25 -7.9,-0.25 -8.333,0 -13.316,0.183 -14.95,0.55 -1.779,0.375 -4.246,1.325 -7.4,2.85 z m -90.575,-12.95 c -0.05,0.635 -0.075,1.485 -0.075,2.55 0,4.5 7.333,11.483 22,20.95 6.167,4 12.05,7.3 17.65,9.9 6,2.767 10.45,4.15 13.35,4.15 3.267,0 7.5,-1.517 12.7,-4.55 0.46,-0.269 0.911,-0.535 1.35,-0.8 0.634,-2.333 0.95,-4.883 0.95,-7.65 0,-7.633 -3.967,-14.617 -11.9,-20.95 -8.434,-6.7 -18.467,-10.05 -30.1,-10.05 -9.133,0 -16.45,1.35 -21.95,4.05 -1.462,0.71 -2.787,1.51 -3.975,2.4 z m 50.525,-93 c -0.793,1.825 -1.401,3.484 -1.825,4.975 1.333,5.503 4.424,10.728 9.275,15.675 6.467,6.6 13.117,9.9 19.95,9.9 1.5,0 4.35,-0.733 8.55,-2.2 4.634,-1.633 9.134,-3.566 13.5,-5.8 11.967,-6.1 17.95,-11.767 17.95,-17 0,-3.53 -0.867,-7.264 -2.6,-11.2 -0.019,-0.015 -0.035,-0.031 -0.05,-0.05 -1.927,-2.399 -4.502,-4.516 -7.725,-6.35 -4.473,-0.933 -9.348,-1.4 -14.625,-1.4 -4.1,0 -9,0.633 -14.7,1.9 -6.633,1.5 -12.716,3.55 -18.25,6.15 -3.585,1.675 -6.736,3.475 -9.45,5.4 z M 132,-166.35 c 0,0.116 0,0.232 0,0.35 0,4.733 4.033,8.75 12.1,12.05 6.5,2.633 12.466,3.95 17.9,3.95 8.566,0 15.1,-1.633 19.6,-4.9 0.021,-0.015 0.037,-0.031 0.05,-0.05 0.233,-0.99 0.35,-2.006 0.35,-3.05 0,-6.067 -2.65,-10.717 -7.95,-13.95 -4.4,-2.7 -9.75,-4.05 -16.05,-4.05 -8.7,0 -15.35,1.35 -19.95,4.05 -2.472,1.451 -4.489,3.318 -6.05,5.6 z m 38.075,-48.175 c 0.327,4.875 1.652,8.417 3.975,10.625 2.7,2.6 7.35,3.9 13.95,3.9 2.769,0 5.277,-0.658 7.525,-1.975 0.317,-1.243 0.475,-2.585 0.475,-4.025 0,-3.833 -1.316,-7.167 -3.95,-10 -2.466,-2.667 -5.15,-4 -8.05,-4 -3.033,0 -7.6,1.783 -13.7,5.35 -0.074,0.043 -0.149,0.085 -0.225,0.125 z m 270.45,-16.275 c 1.823,0.533 4.064,0.8 6.725,0.8 0.8,0 2.917,0.133 6.35,0.4 2.133,0.167 3.7,0.067 4.7,-0.3 0.895,-0.294 1.636,-0.919 2.225,-1.875 -0.314,-0.861 -0.672,-1.77 -1.075,-2.725 -2.134,-5 -4.2,-7.5 -6.2,-7.5 -1.1,0 -3.383,1.35 -6.85,4.05 -3.226,2.517 -5.184,4.901 -5.875,7.15 z"
           style="fill:#bd8437;fill-rule:evenodd" /><path
           inkscape:connector-curvature="0"
           id="path4257"
           d="m 30.75,-155.75 c 4.656,-11.153 32.523,-39.554 83.6,-85.2 55.963,-50.005 104.296,-91.505 145,-124.5 31.657,-25.666 51.307,-38.699 58.95,-39.1 -0.081,-1.732 -0.181,-3.548 -0.3,-5.45 -0.525,-8.41 -0.634,-15.16 -0.325,-20.25 -1.433,-0.729 -2.858,-1.438 -4.275,-2.125 -54.43,19.267 -107.046,39.858 -157.85,61.775 -91.65,39.506 -142.8,69.248 -153.45,89.225 -1.4,2.627 -2.1,5.086 -2.1,7.375 0,4.702 0.7,11.118 2.1,19.25 0.694,4.026 1.561,8.476 2.6,13.35 2.933,13.767 6.667,28.25 11.2,43.45 4.6,15.534 9,28.333 13.2,38.4 0.565,1.344 1.115,2.611 1.65,3.8 z"
           style="fill:#edb348;fill-rule:evenodd" /><path
           inkscape:connector-curvature="0"
           id="path4259"
           d="m 519.55,-249.175 c -0.507,-3.607 -1.274,-7.615 -2.3,-12.025 -0.988,-3.804 -1.729,-6.771 -2.225,-8.9 -10.723,-9.188 -24.164,-21.338 -40.325,-36.45 -25.9,-24.267 -42.833,-39.95 -50.8,-47.05 -39.256,-35.066 -74.665,-60.616 -106.225,-76.65 -0.309,5.09 -0.2,11.84 0.325,20.25 0.119,1.902 0.219,3.718 0.3,5.45 2.178,-0.114 3.378,0.803 3.6,2.75 0.698,0.604 1.398,1.204 2.1,1.8 24.747,21.296 49.347,39.98 73.8,56.05 8.233,5.434 19.617,12.9 34.15,22.4 10.866,7.3 17.633,12.483 20.3,15.55 9.867,11.133 22.3,23.817 37.3,38.05 6.841,6.482 12.767,11.849 17.775,16.1 l 2.175,0.1 c 2.333,0.333 3.917,0.917 4.75,1.75 -0.04,0.052 -0.082,0.102 -0.125,0.15 0.651,-0.1 1.36,-0.15 2.125,-0.15 1.18,0 2.28,0.275 3.3,0.825 z"
           style="fill:#f1e3be;fill-rule:evenodd" /></g></symbol><symbol
       transform="translate(-11.289911,-5.2442013)"
       viewBox="0 -34.274 41.214 34.274"
       id="wsize_x5F_cheese1"><g
         id="Layer_1_3_"><use
           x="0"
           id="use4263"
           style="overflow:visible"
           transform="matrix(0.0793,0,0,0.0793,0.89528992,0.41586516)"
           y="-432.375"
           height="432.375"
           width="519.92499"
           xlink:href="#cheese1" /></g></symbol><g
       transform="scale(1.0922,-1.0933)"
       id="use4265"><g
         id="g11039"><use
           x="0"
           xlink:href="#cheese1"
           width="519.92499"
           height="432.375"
           y="-432.375"
           transform="matrix(0.0793,0,0,0.0793,0.89528992,0.41586516)"
           style="overflow:visible"
           id="use11041" /></g></g></g></svg>