<?xml version="1.0" encoding="UTF-8" standalone="no"?>
<!-- Created with Inkscape (http://www.inkscape.org/) -->

<svg
   xmlns:dc="http://purl.org/dc/elements/1.1/"
   xmlns:cc="http://creativecommons.org/ns#"
   xmlns:rdf="http://www.w3.org/1999/02/22-rdf-syntax-ns#"
   xmlns:svg="http://www.w3.org/2000/svg"
   xmlns="http://www.w3.org/2000/svg"
   xmlns:sodipodi="http://sodipodi.sourceforge.net/DTD/sodipodi-0.dtd"
   xmlns:inkscape="http://www.inkscape.org/namespaces/inkscape"
   id="svg2"
   version="1.1"
   inkscape:version="0.48.5 r10040"
   width="100"
   height="100"
   xml:space="preserve"
   sodipodi:docname="giant eye.svg"><metadata
     id="metadata8"><rdf:RDF><cc:Work
         rdf:about=""><dc:format>image/svg+xml</dc:format><dc:type
           rdf:resource="http://purl.org/dc/dcmitype/StillImage" /><dc:title /></cc:Work></rdf:RDF></metadata><defs
     id="defs6"><clipPath
       clipPathUnits="userSpaceOnUse"
       id="clipPath18"><path
         d="M 0,500 400,500 400,0 0,0 0,500 z"
         id="path20"
         inkscape:connector-curvature="0" /></clipPath><clipPath
       clipPathUnits="userSpaceOnUse"
       id="clipPath26"><path
         d="m 272.342,370.821 82.484,0 0,-56.641 -82.484,0 0,56.641 z"
         id="path28"
         inkscape:connector-curvature="0" /></clipPath><clipPath
       clipPathUnits="userSpaceOnUse"
       id="clipPath30"><path
         d="m 272.342,370.821 82.484,0 0,-56.641 -82.484,0 0,56.641 z"
         id="path32"
         inkscape:connector-curvature="0" /></clipPath><clipPath
       clipPathUnits="userSpaceOnUse"
       id="clipPath34"><path
         d="m 274.991,370.17 79.112,0 0,-54.168 -79.112,0 0,54.168 z"
         id="path36"
         inkscape:connector-curvature="0" /></clipPath><clipPath
       clipPathUnits="userSpaceOnUse"
       id="clipPath38"><path
         d="m 277.639,369.518 75.74,0 0,-51.694 -75.74,0 0,51.694 z"
         id="path40"
         inkscape:connector-curvature="0" /></clipPath><clipPath
       clipPathUnits="userSpaceOnUse"
       id="clipPath42"><path
         d="m 280.288,368.867 72.367,0 0,-49.221 -72.367,0 0,49.221 z"
         id="path44"
         inkscape:connector-curvature="0" /></clipPath><clipPath
       clipPathUnits="userSpaceOnUse"
       id="clipPath46"><path
         d="m 282.937,368.215 68.995,0 0,-46.748 -68.995,0 0,46.748 z"
         id="path48"
         inkscape:connector-curvature="0" /></clipPath><clipPath
       clipPathUnits="userSpaceOnUse"
       id="clipPath50"><path
         d="m 285.586,367.564 65.622,0 0,-44.275 -65.622,0 0,44.275 z"
         id="path52"
         inkscape:connector-curvature="0" /></clipPath><clipPath
       clipPathUnits="userSpaceOnUse"
       id="clipPath54"><path
         d="m 288.234,366.913 62.251,0 0,-41.802 -62.251,0 0,41.802 z"
         id="path56"
         inkscape:connector-curvature="0" /></clipPath><clipPath
       clipPathUnits="userSpaceOnUse"
       id="clipPath58"><path
         d="m 290.883,366.262 58.878,0 0,-39.329 -58.878,0 0,39.329 z"
         id="path60"
         inkscape:connector-curvature="0" /></clipPath><clipPath
       clipPathUnits="userSpaceOnUse"
       id="clipPath62"><path
         d="m 293.531,365.61 55.507,0 0,-36.855 -55.507,0 0,36.855 z"
         id="path64"
         inkscape:connector-curvature="0" /></clipPath><clipPath
       clipPathUnits="userSpaceOnUse"
       id="clipPath66"><path
         d="m 296.181,364.959 52.133,0 0,-34.382 -52.133,0 0,34.382 z"
         id="path68"
         inkscape:connector-curvature="0" /></clipPath><clipPath
       clipPathUnits="userSpaceOnUse"
       id="clipPath70"><path
         d="m 298.829,364.308 48.762,0 0,-31.91 -48.762,0 0,31.91 z"
         id="path72"
         inkscape:connector-curvature="0" /></clipPath><clipPath
       clipPathUnits="userSpaceOnUse"
       id="clipPath74"><path
         d="m 301.478,363.656 45.389,0 0,-29.436 -45.389,0 0,29.436 z"
         id="path76"
         inkscape:connector-curvature="0" /></clipPath><clipPath
       clipPathUnits="userSpaceOnUse"
       id="clipPath230"><path
         d="m 299.824,374.381 c -1.072,0.346 -2.202,0.569 -3.377,0.648 l 0,0 c -7.721,0.518 -14.397,-5.321 -14.914,-13.039 l 0,0 c -0.367,-5.461 2.45,-10.398 6.862,-13.004 l 0,0 c -0.552,-1.354 -0.904,-2.815 -1.006,-4.353 l 0,0 c -0.518,-7.72 5.321,-14.397 13.04,-14.914 l 0,0 c 5.161,-0.346 9.857,2.153 12.555,6.155 l 0,0 c 2.153,-2.029 4.959,-3.387 8.102,-3.724 l 0,0 c 1.355,-5.854 6.403,-10.387 12.709,-10.81 l 0,0 c 6.426,-0.432 12.123,3.54 14.154,9.333 l 0,0 c 0.36,-0.052 0.721,-0.094 1.09,-0.119 l 0,0 c 7.719,-0.518 14.395,5.321 14.913,13.04 l 0,0 c 0.3,4.473 -1.537,8.593 -4.634,11.371 l 0,0 c 0.949,1.731 1.55,3.69 1.691,5.79 l 0,0 c 0.517,7.72 -5.322,14.396 -13.04,14.914 l 0,0 c -5.399,0.363 -10.286,-2.387 -12.914,-6.712 l 0,0 c -2.108,1.602 -4.691,2.628 -7.53,2.819 l 0,0 c -2.172,0.145 -4.262,-0.213 -6.157,-0.975 l 0,0 c -2.24,3.979 -6.377,6.788 -11.272,7.115 l 0,0 c -0.319,0.022 -0.636,0.032 -0.951,0.032 l 0,0 c -3.552,0 -6.831,-1.341 -9.321,-3.567"
         id="path232"
         inkscape:connector-curvature="0" /></clipPath><radialGradient
       fx="0"
       fy="0"
       cx="0"
       cy="0"
       r="1"
       gradientUnits="userSpaceOnUse"
       gradientTransform="matrix(-85.691879,5.7454376,5.7454376,85.691895,357.87988,345.41748)"
       spreadMethod="pad"
       id="radialGradient238"><stop
         style="stop-opacity:1;stop-color:#f2f2f2"
         offset="0"
         id="stop240" /><stop
         style="stop-opacity:1;stop-color:#bab89c"
         offset="1"
         id="stop242" /></radialGradient><clipPath
       clipPathUnits="userSpaceOnUse"
       id="clipPath250"><path
         d="M 0,500 400,500 400,0 0,0 0,500 z"
         id="path252"
         inkscape:connector-curvature="0" /></clipPath><clipPath
       clipPathUnits="userSpaceOnUse"
       id="clipPath262"><path
         d="m 290.227,194.818 83.152,0 0,-55.496 -83.152,0 0,55.496 z"
         id="path264"
         inkscape:connector-curvature="0" /></clipPath><clipPath
       clipPathUnits="userSpaceOnUse"
       id="clipPath266"><path
         d="m 290.227,194.818 83.152,0 0,-55.496 -83.152,0 0,55.496 z"
         id="path268"
         inkscape:connector-curvature="0" /></clipPath><clipPath
       clipPathUnits="userSpaceOnUse"
       id="clipPath270"><path
         d="m 292.869,194.233 79.752,0 0,-53.069 -79.752,0 0,53.069 z"
         id="path272"
         inkscape:connector-curvature="0" /></clipPath><clipPath
       clipPathUnits="userSpaceOnUse"
       id="clipPath274"><path
         d="m 295.512,193.648 76.35,0 0,-50.643 -76.35,0 0,50.643 z"
         id="path276"
         inkscape:connector-curvature="0" /></clipPath><clipPath
       clipPathUnits="userSpaceOnUse"
       id="clipPath278"><path
         d="m 298.154,193.063 72.95,0 0,-48.216 -72.95,0 0,48.216 z"
         id="path280"
         inkscape:connector-curvature="0" /></clipPath><clipPath
       clipPathUnits="userSpaceOnUse"
       id="clipPath282"><path
         d="m 300.797,192.478 69.549,0 0,-45.789 -69.549,0 0,45.789 z"
         id="path284"
         inkscape:connector-curvature="0" /></clipPath><clipPath
       clipPathUnits="userSpaceOnUse"
       id="clipPath286"><path
         d="m 303.439,191.893 66.149,0 0,-43.362 -66.149,0 0,43.362 z"
         id="path288"
         inkscape:connector-curvature="0" /></clipPath><clipPath
       clipPathUnits="userSpaceOnUse"
       id="clipPath290"><path
         d="m 306.082,191.307 62.747,0 0,-40.935 -62.747,0 0,40.935 z"
         id="path292"
         inkscape:connector-curvature="0" /></clipPath><clipPath
       clipPathUnits="userSpaceOnUse"
       id="clipPath294"><path
         d="m 308.725,190.722 59.346,0 0,-38.508 -59.346,0 0,38.508 z"
         id="path296"
         inkscape:connector-curvature="0" /></clipPath><clipPath
       clipPathUnits="userSpaceOnUse"
       id="clipPath298"><path
         d="m 311.367,190.137 55.946,0 0,-36.081 -55.946,0 0,36.081 z"
         id="path300"
         inkscape:connector-curvature="0" /></clipPath><clipPath
       clipPathUnits="userSpaceOnUse"
       id="clipPath302"><path
         d="m 314.01,189.552 52.545,0 0,-33.655 -52.545,0 0,33.655 z"
         id="path304"
         inkscape:connector-curvature="0" /></clipPath><clipPath
       clipPathUnits="userSpaceOnUse"
       id="clipPath306"><path
         d="m 316.652,188.967 49.144,0 0,-31.228 -49.144,0 0,31.228 z"
         id="path308"
         inkscape:connector-curvature="0" /></clipPath><clipPath
       clipPathUnits="userSpaceOnUse"
       id="clipPath310"><path
         d="m 319.295,188.381 45.743,0 0,-28.8 -45.743,0 0,28.8 z"
         id="path312"
         inkscape:connector-curvature="0" /></clipPath><clipPath
       clipPathUnits="userSpaceOnUse"
       id="clipPath466"><path
         d="m 316.802,198.355 c -1.087,0.299 -2.225,0.472 -3.404,0.501 l 0,0 c -7.734,0.179 -14.15,-5.946 -14.33,-13.68 l 0,0 c -0.127,-5.472 2.904,-10.281 7.425,-12.692 l 0,0 c -0.492,-1.376 -0.78,-2.851 -0.816,-4.393 l 0,0 c -0.18,-7.734 5.945,-14.15 13.678,-14.33 l 0,0 c 5.173,-0.12 9.755,2.582 12.276,6.698 l 0,0 c 2.239,-1.934 5.102,-3.167 8.257,-3.368 l 0,0 c 1.609,-5.788 6.85,-10.097 13.168,-10.244 l 0,0 c 6.438,-0.15 11.957,4.066 13.733,9.944 l 0,0 c 0.361,-0.036 0.725,-0.063 1.095,-0.073 l 0,0 c 7.733,-0.18 14.149,5.944 14.329,13.678 l 0,0 c 0.104,4.483 -1.912,8.518 -5.127,11.157 l 0,0 c 0.874,1.773 1.388,3.757 1.438,5.86 l 0,0 c 0.179,7.737 -5.946,14.15 -13.679,14.33 l 0,0 c -5.41,0.128 -10.173,-2.833 -12.609,-7.269 l 0,0 c -2.176,1.509 -4.802,2.421 -7.645,2.486 l 0,0 c -2.178,0.052 -4.251,-0.396 -6.11,-1.241 l 0,0 c -2.411,3.878 -6.666,6.503 -11.572,6.617 l 0,0 c -0.111,0.003 -0.221,0.004 -0.331,0.004 l 0,0 c -3.792,0 -7.247,-1.517 -9.776,-3.985"
         id="path468"
         inkscape:connector-curvature="0" /></clipPath><radialGradient
       fx="0"
       fy="0"
       cx="0"
       cy="0"
       r="1"
       gradientUnits="userSpaceOnUse"
       gradientTransform="matrix(-85.861298,2.0009766,2.0009766,85.861313,376.06543,171.95117)"
       spreadMethod="pad"
       id="radialGradient474"><stop
         style="stop-opacity:1;stop-color:#f2f2f2"
         offset="0"
         id="stop476" /><stop
         style="stop-opacity:1;stop-color:#bab89c"
         offset="1"
         id="stop478" /></radialGradient><clipPath
       clipPathUnits="userSpaceOnUse"
       id="clipPath486"><path
         d="M 0,500 400,500 400,0 0,0 0,500 z"
         id="path488"
         inkscape:connector-curvature="0" /></clipPath><clipPath
       clipPathUnits="userSpaceOnUse"
       id="clipPath498"><path
         d="m 184.526,458.879 128.449,0 0,-75.025 -128.449,0 0,75.025 z"
         id="path500"
         inkscape:connector-curvature="0" /></clipPath><clipPath
       clipPathUnits="userSpaceOnUse"
       id="clipPath502"><path
         d="m 184.526,458.879 128.449,0 0,-75.025 -128.449,0 0,75.025 z"
         id="path504"
         inkscape:connector-curvature="0" /></clipPath><clipPath
       clipPathUnits="userSpaceOnUse"
       id="clipPath506"><path
         d="m 186.799,458.717 125.866,0 0,-73.517 -125.866,0 0,73.517 z"
         id="path508"
         inkscape:connector-curvature="0" /></clipPath><clipPath
       clipPathUnits="userSpaceOnUse"
       id="clipPath510"><path
         d="m 189.073,458.555 123.281,0 0,-72.008 -123.281,0 0,72.008 z"
         id="path512"
         inkscape:connector-curvature="0" /></clipPath><clipPath
       clipPathUnits="userSpaceOnUse"
       id="clipPath514"><path
         d="m 191.347,458.393 120.698,0 0,-70.499 -120.698,0 0,70.499 z"
         id="path516"
         inkscape:connector-curvature="0" /></clipPath><clipPath
       clipPathUnits="userSpaceOnUse"
       id="clipPath518"><path
         d="m 193.621,458.23 118.113,0 0,-68.989 -118.113,0 0,68.989 z"
         id="path520"
         inkscape:connector-curvature="0" /></clipPath><clipPath
       clipPathUnits="userSpaceOnUse"
       id="clipPath522"><path
         d="m 195.894,458.068 115.531,0 0,-67.481 -115.531,0 0,67.481 z"
         id="path524"
         inkscape:connector-curvature="0" /></clipPath><clipPath
       clipPathUnits="userSpaceOnUse"
       id="clipPath526"><path
         d="m 198.168,457.906 112.946,0 0,-65.972 -112.946,0 0,65.972 z"
         id="path528"
         inkscape:connector-curvature="0" /></clipPath><clipPath
       clipPathUnits="userSpaceOnUse"
       id="clipPath530"><path
         d="m 200.442,457.743 110.363,0 0,-64.462 -110.363,0 0,64.462 z"
         id="path532"
         inkscape:connector-curvature="0" /></clipPath><clipPath
       clipPathUnits="userSpaceOnUse"
       id="clipPath534"><path
         d="m 202.716,457.581 107.778,0 0,-62.953 -107.778,0 0,62.953 z"
         id="path536"
         inkscape:connector-curvature="0" /></clipPath><clipPath
       clipPathUnits="userSpaceOnUse"
       id="clipPath538"><path
         d="m 204.989,457.418 105.196,0 0,-61.443 -105.196,0 0,61.443 z"
         id="path540"
         inkscape:connector-curvature="0" /></clipPath><clipPath
       clipPathUnits="userSpaceOnUse"
       id="clipPath542"><path
         d="m 207.263,457.256 102.611,0 0,-59.935 -102.611,0 0,59.935 z"
         id="path544"
         inkscape:connector-curvature="0" /></clipPath><clipPath
       clipPathUnits="userSpaceOnUse"
       id="clipPath546"><path
         d="m 209.536,457.094 100.028,0 0,-58.426 -100.028,0 0,58.426 z"
         id="path548"
         inkscape:connector-curvature="0" /></clipPath><clipPath
       clipPathUnits="userSpaceOnUse"
       id="clipPath550"><path
         d="m 211.81,456.932 97.444,0 0,-56.917 -97.444,0 0,56.917 z"
         id="path552"
         inkscape:connector-curvature="0" /></clipPath><clipPath
       clipPathUnits="userSpaceOnUse"
       id="clipPath554"><path
         d="m 214.084,456.77 94.86,0 0,-55.409 -94.86,0 0,55.409 z"
         id="path556"
         inkscape:connector-curvature="0" /></clipPath><clipPath
       clipPathUnits="userSpaceOnUse"
       id="clipPath558"><path
         d="m 216.357,456.607 92.278,0 0,-53.899 -92.278,0 0,53.899 z"
         id="path560"
         inkscape:connector-curvature="0" /></clipPath><clipPath
       clipPathUnits="userSpaceOnUse"
       id="clipPath562"><path
         d="m 218.631,456.445 89.693,0 0,-52.39 -89.693,0 0,52.39 z"
         id="path564"
         inkscape:connector-curvature="0" /></clipPath><clipPath
       clipPathUnits="userSpaceOnUse"
       id="clipPath566"><path
         d="m 220.905,456.283 87.11,0 0,-50.881 -87.11,0 0,50.881 z"
         id="path568"
         inkscape:connector-curvature="0" /></clipPath><clipPath
       clipPathUnits="userSpaceOnUse"
       id="clipPath570"><path
         d="m 223.178,456.12 84.526,0 0,-49.371 -84.526,0 0,49.371 z"
         id="path572"
         inkscape:connector-curvature="0" /></clipPath><clipPath
       clipPathUnits="userSpaceOnUse"
       id="clipPath574"><path
         d="m 225.452,455.958 81.943,0 0,-47.863 -81.943,0 0,47.863 z"
         id="path576"
         inkscape:connector-curvature="0" /></clipPath><clipPath
       clipPathUnits="userSpaceOnUse"
       id="clipPath578"><path
         d="m 227.726,455.795 79.358,0 0,-46.353 -79.358,0 0,46.353 z"
         id="path580"
         inkscape:connector-curvature="0" /></clipPath><clipPath
       clipPathUnits="userSpaceOnUse"
       id="clipPath582"><path
         d="m 230,455.633 76.774,0 0,-44.844 -76.774,0 0,44.844 z"
         id="path584"
         inkscape:connector-curvature="0" /></clipPath><clipPath
       clipPathUnits="userSpaceOnUse"
       id="clipPath586"><path
         d="m 232.273,455.471 74.191,0 0,-43.335 -74.191,0 0,43.335 z"
         id="path588"
         inkscape:connector-curvature="0" /></clipPath><clipPath
       clipPathUnits="userSpaceOnUse"
       id="clipPath590"><path
         d="m 234.547,455.309 71.607,0 0,-41.827 -71.607,0 0,41.827 z"
         id="path592"
         inkscape:connector-curvature="0" /></clipPath><clipPath
       clipPathUnits="userSpaceOnUse"
       id="clipPath594"><path
         d="m 236.82,455.146 69.024,0 0,-40.317 -69.024,0 0,40.317 z"
         id="path596"
         inkscape:connector-curvature="0" /></clipPath><clipPath
       clipPathUnits="userSpaceOnUse"
       id="clipPath598"><path
         d="m 239.094,454.983 66.44,0 0,-38.807 -66.44,0 0,38.807 z"
         id="path600"
         inkscape:connector-curvature="0" /></clipPath><clipPath
       clipPathUnits="userSpaceOnUse"
       id="clipPath602"><path
         d="m 241.368,454.821 63.856,0 0,-37.299 -63.856,0 0,37.299 z"
         id="path604"
         inkscape:connector-curvature="0" /></clipPath><clipPath
       clipPathUnits="userSpaceOnUse"
       id="clipPath606"><path
         d="m 243.642,454.659 61.272,0 0,-35.79 -61.272,0 0,35.79 z"
         id="path608"
         inkscape:connector-curvature="0" /></clipPath><clipPath
       clipPathUnits="userSpaceOnUse"
       id="clipPath942"><path
         d="m 272.719,463.448 -0.814,-1.487 -1.678,0.628 c -2.838,1.063 -5.811,1.799 -8.834,2.189 l 0,0 c -8.74,1.125 -17.596,-0.703 -24.932,-5.149 l 0,0 -1.809,-1.097 -1.046,1.799 c -2.829,4.859 -7.982,8.205 -13.79,8.953 l 0,0 c -9.97,1.285 -19.059,-5.249 -20.258,-14.563 l 0,0 c -0.591,-4.588 0.796,-9.132 3.905,-12.793 l 0,0 1.102,-1.299 -1.215,-1.168 c -2.605,-2.503 -4.222,-5.68 -4.673,-9.185 l 0,0 c -1.141,-8.854 5.644,-17.051 15.122,-18.271 l 0,0 c 3.165,-0.408 6.364,0.004 9.247,1.19 l 0,0 1.589,0.656 0.934,-1.403 c 5.988,-9.014 15.817,-15.007 26.968,-16.444 l 0,0 c 8.431,-1.085 16.702,0.493 23.921,4.561 l 0,0 2.04,1.148 0.873,-2.106 c 1.907,-4.598 6.319,-7.869 11.513,-8.538 l 0,0 c 4.317,-0.556 8.568,0.742 11.664,3.561 l 0,0 1.143,1.041 1.35,-0.839 c 1.817,-1.131 3.836,-1.847 5.998,-2.126 l 0,0 c 7.76,-0.999 14.83,4.084 15.764,11.332 l 0,0 c 0.147,1.151 0.134,2.319 -0.045,3.47 l 0,0 -0.188,1.247 1.158,0.615 c 3.858,2.058 6.377,5.61 6.911,9.748 l 0,0 c 0.932,7.248 -4.62,13.957 -12.379,14.956 l 0,0 c -1.201,0.155 -2.407,0.167 -3.585,0.037 l 0,0 -2.47,-0.272 0.213,2.324 c 0.732,7.941 -5.331,15.017 -13.799,16.108 l 0,0 c -0.445,0.056 -0.912,0.096 -1.425,0.119 l 0,0 -2.326,0.106 0.424,2.134 c 0.05,0.257 0.095,0.518 0.129,0.781 l 0,0 c 0.932,7.248 -4.619,13.956 -12.377,14.955 l 0,0 c -0.644,0.083 -1.286,0.124 -1.923,0.124 l 0,0 c -5.181,-0.001 -10.008,-2.684 -12.402,-7.042"
         id="path944"
         inkscape:connector-curvature="0" /></clipPath><radialGradient
       fx="0"
       fy="0"
       cx="0"
       cy="0"
       r="1"
       gradientUnits="userSpaceOnUse"
       gradientTransform="matrix(-156.2066,20.112488,20.112488,156.2066,327.89941,411.8667)"
       spreadMethod="pad"
       id="radialGradient950"><stop
         style="stop-opacity:1;stop-color:#f2f2f2"
         offset="0"
         id="stop952" /><stop
         style="stop-opacity:1;stop-color:#bab89c"
         offset="1"
         id="stop954" /></radialGradient><clipPath
       clipPathUnits="userSpaceOnUse"
       id="clipPath962"><path
         d="M 0,500 400,500 400,0 0,0 0,500 z"
         id="path964"
         inkscape:connector-curvature="0" /></clipPath><clipPath
       clipPathUnits="userSpaceOnUse"
       id="clipPath974"><path
         d="m 11.1353,408.181 145.9267,0 0,-87.835 -145.9267,0 0,87.835 z"
         id="path976"
         inkscape:connector-curvature="0" /></clipPath><clipPath
       clipPathUnits="userSpaceOnUse"
       id="clipPath978"><path
         d="m 11.1353,408.181 145.9267,0 0,-87.835 -145.9267,0 0,87.835 z"
         id="path980"
         inkscape:connector-curvature="0" /></clipPath><clipPath
       clipPathUnits="userSpaceOnUse"
       id="clipPath982"><path
         d="m 13.1416,407.686 142.8914,0 0,-86.008 -142.8914,0 0,86.008 z"
         id="path984"
         inkscape:connector-curvature="0" /></clipPath><clipPath
       clipPathUnits="userSpaceOnUse"
       id="clipPath986"><path
         d="m 15.1484,407.189 139.8546,0 0,-84.18 -139.8546,0 0,84.18 z"
         id="path988"
         inkscape:connector-curvature="0" /></clipPath><clipPath
       clipPathUnits="userSpaceOnUse"
       id="clipPath990"><path
         d="m 17.1543,406.694 136.8197,0 0,-82.353 -136.8197,0 0,82.353 z"
         id="path992"
         inkscape:connector-curvature="0" /></clipPath><clipPath
       clipPathUnits="userSpaceOnUse"
       id="clipPath994"><path
         d="m 19.1611,406.198 133.7829,0 0,-80.525 -133.7829,0 0,80.525 z"
         id="path996"
         inkscape:connector-curvature="0" /></clipPath><clipPath
       clipPathUnits="userSpaceOnUse"
       id="clipPath998"><path
         d="m 21.1675,405.703 130.7475,0 0,-78.698 -130.7475,0 0,78.698 z"
         id="path1000"
         inkscape:connector-curvature="0" /></clipPath><clipPath
       clipPathUnits="userSpaceOnUse"
       id="clipPath1002"><path
         d="m 23.1743,405.207 127.7107,0 0,-76.871 -127.7107,0 0,76.871 z"
         id="path1004"
         inkscape:connector-curvature="0" /></clipPath><clipPath
       clipPathUnits="userSpaceOnUse"
       id="clipPath1006"><path
         d="m 25.1807,404.711 124.6743,0 0,-75.043 -124.6743,0 0,75.043 z"
         id="path1008"
         inkscape:connector-curvature="0" /></clipPath><clipPath
       clipPathUnits="userSpaceOnUse"
       id="clipPath1010"><path
         d="m 27.187,404.215 121.639,0 0,-73.215 -121.639,0 0,73.215 z"
         id="path1012"
         inkscape:connector-curvature="0" /></clipPath><clipPath
       clipPathUnits="userSpaceOnUse"
       id="clipPath1014"><path
         d="m 29.1938,403.72 118.6022,0 0,-71.388 -118.6022,0 0,71.388 z"
         id="path1016"
         inkscape:connector-curvature="0" /></clipPath><clipPath
       clipPathUnits="userSpaceOnUse"
       id="clipPath1018"><path
         d="m 31.2002,403.224 115.5668,0 0,-69.56 -115.5668,0 0,69.56 z"
         id="path1020"
         inkscape:connector-curvature="0" /></clipPath><clipPath
       clipPathUnits="userSpaceOnUse"
       id="clipPath1022"><path
         d="m 33.2065,402.729 112.5305,0 0,-67.733 -112.5305,0 0,67.733 z"
         id="path1024"
         inkscape:connector-curvature="0" /></clipPath><clipPath
       clipPathUnits="userSpaceOnUse"
       id="clipPath1026"><path
         d="m 35.2129,402.232 109.4941,0 0,-65.905 -109.4941,0 0,65.905 z"
         id="path1028"
         inkscape:connector-curvature="0" /></clipPath><clipPath
       clipPathUnits="userSpaceOnUse"
       id="clipPath1030"><path
         d="m 37.2197,401.737 106.4573,0 0,-64.078 -106.4573,0 0,64.078 z"
         id="path1032"
         inkscape:connector-curvature="0" /></clipPath><clipPath
       clipPathUnits="userSpaceOnUse"
       id="clipPath1034"><path
         d="m 39.2261,401.241 103.4209,0 0,-62.25 -103.4209,0 0,62.25 z"
         id="path1036"
         inkscape:connector-curvature="0" /></clipPath><clipPath
       clipPathUnits="userSpaceOnUse"
       id="clipPath1038"><path
         d="m 41.2324,400.746 100.3856,0 0,-60.423 -100.3856,0 0,60.423 z"
         id="path1040"
         inkscape:connector-curvature="0" /></clipPath><clipPath
       clipPathUnits="userSpaceOnUse"
       id="clipPath1042"><path
         d="m 43.2393,400.25 97.3497,0 0,-58.595 -97.3497,0 0,58.595 z"
         id="path1044"
         inkscape:connector-curvature="0" /></clipPath><clipPath
       clipPathUnits="userSpaceOnUse"
       id="clipPath1046"><path
         d="m 45.2456,399.754 94.3134,0 0,-56.768 -94.3134,0 0,56.768 z"
         id="path1048"
         inkscape:connector-curvature="0" /></clipPath><clipPath
       clipPathUnits="userSpaceOnUse"
       id="clipPath1050"><path
         d="m 47.2524,399.259 91.2766,0 0,-54.941 -91.2766,0 0,54.941 z"
         id="path1052"
         inkscape:connector-curvature="0" /></clipPath><clipPath
       clipPathUnits="userSpaceOnUse"
       id="clipPath1054"><path
         d="m 49.2588,398.763 88.2412,0 0,-53.113 -88.2412,0 0,53.113 z"
         id="path1056"
         inkscape:connector-curvature="0" /></clipPath><clipPath
       clipPathUnits="userSpaceOnUse"
       id="clipPath1058"><path
         d="m 51.2651,398.268 85.2049,0 0,-51.286 -85.2049,0 0,51.286 z"
         id="path1060"
         inkscape:connector-curvature="0" /></clipPath><clipPath
       clipPathUnits="userSpaceOnUse"
       id="clipPath1062"><path
         d="m 53.2715,397.771 82.1685,0 0,-49.458 -82.1685,0 0,49.458 z"
         id="path1064"
         inkscape:connector-curvature="0" /></clipPath><clipPath
       clipPathUnits="userSpaceOnUse"
       id="clipPath1066"><path
         d="m 55.2783,397.276 79.1327,0 0,-47.63 -79.1327,0 0,47.63 z"
         id="path1068"
         inkscape:connector-curvature="0" /></clipPath><clipPath
       clipPathUnits="userSpaceOnUse"
       id="clipPath1070"><path
         d="m 57.2847,396.78 76.0963,0 0,-45.803 -76.0963,0 0,45.803 z"
         id="path1072"
         inkscape:connector-curvature="0" /></clipPath><clipPath
       clipPathUnits="userSpaceOnUse"
       id="clipPath1074"><path
         d="m 59.291,396.285 73.061,0 0,-43.976 -73.061,0 0,43.976 z"
         id="path1076"
         inkscape:connector-curvature="0" /></clipPath><clipPath
       clipPathUnits="userSpaceOnUse"
       id="clipPath1078"><path
         d="m 61.2979,395.789 70.0241,0 0,-42.148 -70.0241,0 0,42.148 z"
         id="path1080"
         inkscape:connector-curvature="0" /></clipPath><clipPath
       clipPathUnits="userSpaceOnUse"
       id="clipPath1082"><path
         d="m 63.3042,395.293 66.9878,0 0,-40.321 -66.9878,0 0,40.321 z"
         id="path1084"
         inkscape:connector-curvature="0" /></clipPath><clipPath
       clipPathUnits="userSpaceOnUse"
       id="clipPath1086"><path
         d="m 65.3105,394.797 63.9525,0 0,-38.493 -63.9525,0 0,38.493 z"
         id="path1088"
         inkscape:connector-curvature="0" /></clipPath><clipPath
       clipPathUnits="userSpaceOnUse"
       id="clipPath1090"><path
         d="m 67.3169,394.302 60.9161,0 0,-36.666 -60.9161,0 0,36.666 z"
         id="path1092"
         inkscape:connector-curvature="0" /></clipPath><clipPath
       clipPathUnits="userSpaceOnUse"
       id="clipPath1450"><path
         d="m 106.303,427.111 c -6.346,-1.745 -11.048,-7.06 -11.702,-13.224 l 0,0 -0.197,-1.871 -1.988,-0.078 c -3.361,-0.128 -6.72,-0.648 -9.983,-1.545 l 0,0 C 73.001,407.799 64.717,402.13 59.11,394.433 l 0,0 -1.383,-1.899 -1.842,1.393 c -4.979,3.763 -11.692,4.981 -17.96,3.257 l 0,0 C 27.165,394.225 20.66,383.639 23.423,373.587 l 0,0 c 1.362,-4.952 4.732,-9.01 9.485,-11.427 l 0,0 1.684,-0.858 -0.742,-1.716 c -1.596,-3.68 -1.889,-7.627 -0.849,-11.408 l 0,0 c 2.628,-9.557 13.089,-15.042 23.318,-12.229 l 0,0 c 3.417,0.94 6.515,2.733 8.958,5.185 l 0,0 1.348,1.351 1.555,-1.035 c 9.997,-6.665 22.633,-8.588 34.667,-5.278 l 0,0 c 9.098,2.502 16.89,7.663 22.54,14.924 l 0,0 1.598,2.05 1.796,-1.781 c 3.924,-3.892 9.844,-5.35 15.449,-3.809 l 0,0 c 4.659,1.282 8.454,4.434 10.418,8.647 l 0,0 0.723,1.555 1.742,-0.28 c 2.346,-0.38 4.72,-0.247 7.054,0.395 l 0,0 c 8.374,2.303 13.435,10.539 11.284,18.362 l 0,0 c -0.342,1.241 -0.857,2.433 -1.531,3.535 l 0,0 -0.729,1.195 0.922,1.126 c 3.069,3.762 4.126,8.48 2.897,12.946 l 0,0 c -2.152,7.821 -10.712,12.311 -19.086,10.008 l 0,0 c -1.298,-0.356 -2.538,-0.861 -3.686,-1.499 l 0,0 -2.414,-1.338 -0.779,2.471 c -2.654,8.446 -11.894,13.093 -21.035,10.579 l 0,0 c -0.481,-0.132 -0.974,-0.292 -1.51,-0.488 l 0,0 -2.427,-0.889 -0.482,2.367 c -0.058,0.285 -0.124,0.572 -0.202,0.855 l 0,0 c -1.769,6.433 -7.874,10.612 -14.644,10.612 l 0,0 c -1.462,0 -2.955,-0.195 -4.442,-0.604"
         id="path1452"
         inkscape:connector-curvature="0" /></clipPath><radialGradient
       fx="0"
       fy="0"
       cx="0"
       cy="0"
       r="1"
       gradientUnits="userSpaceOnUse"
       gradientTransform="matrix(-139.0256,-37.852386,-37.852386,139.0256,175.25684,398.44873)"
       spreadMethod="pad"
       id="radialGradient1458"><stop
         style="stop-opacity:1;stop-color:#f2f2f2"
         offset="0"
         id="stop1460" /><stop
         style="stop-opacity:1;stop-color:#bab89c"
         offset="1"
         id="stop1462" /></radialGradient><clipPath
       clipPathUnits="userSpaceOnUse"
       id="clipPath1470"><path
         d="M 0,500 400,500 400,0 0,0 0,500 z"
         id="path1472"
         inkscape:connector-curvature="0" /></clipPath><clipPath
       clipPathUnits="userSpaceOnUse"
       id="clipPath1482"><path
         d="m 203.887,362.627 c -0.479,-0.376 -1.172,-0.949 -1.993,-1.78 l 0,0 c -0.82,-0.829 -1.761,-1.918 -2.712,-3.319 l 0,0 c -0.952,-1.397 -1.898,-3.094 -2.752,-5.039 l 0,0 c -0.854,-1.944 -1.613,-4.131 -2.259,-6.468 l 0,0 c -0.649,-2.336 -1.186,-4.822 -1.648,-7.373 l 0,0 c -0.925,-5.1 -1.541,-10.468 -2.282,-15.487 l 0,0 c -0.373,-2.506 -0.777,-4.924 -1.265,-7.139 l 0,0 c -0.487,-2.214 -1.064,-4.223 -1.739,-5.862 l 0,0 c -0.572,-1.392 -2.322,-3.404 -3.042,-4.024 l 0,0 c -0.187,0.226 -0.381,0.475 -0.574,0.741 l 0,0 c -0.355,0.482 -0.78,-1.624 -0.253,-3.748 l 0,0 c 1.073,-4.245 2.402,-10.134 4.347,-16.495 l 0,0 c 1.943,-6.355 4.284,-11.952 6.963,-15.631 l 0,0 c 1.329,-1.843 2.73,-3.207 4.1,-3.966 l 0,0 c 1.367,-0.759 2.707,-0.911 3.827,-0.367 l 0,0 c 0.282,0.139 1.032,0.598 2.19,1.438 l 0,0 c 1.156,0.844 2.734,2.069 4.588,3.841 l 0,0 c 1.842,1.768 3.975,4.113 5.953,7.112 l 0,0 c 1.978,2.98 3.738,6.626 4.81,10.439 l 0,0 c 1.092,3.817 1.506,7.716 1.412,11.304 l 0,0 c -0.085,3.604 -0.64,6.922 -1.4,9.981 l 0,0 c -0.768,3.061 -1.744,5.879 -2.796,8.536 l 0,0 c -1.055,2.656 -2.19,5.153 -3.325,7.546 l 0,0 c -2.271,4.778 -4.533,9.155 -6.344,13.251 l 0,0 c -1.82,4.087 -3.175,7.89 -3.816,11.287 l 0,0 c -0.324,1.695 -0.474,3.283 -0.479,4.716 l 0,0 c -0.007,1.43 0.135,2.713 0.329,3.766 l 0,0 c 0.398,2.114 0.923,3.298 0.904,3.298 l 0,0 c 0.002,-0.002 -0.264,-0.183 -0.744,-0.558"
         id="path1484"
         inkscape:connector-curvature="0" /></clipPath><radialGradient
       fx="0"
       fy="0"
       cx="0"
       cy="0"
       r="1"
       gradientUnits="userSpaceOnUse"
       gradientTransform="matrix(95.041061,-0.8261719,-0.8261719,-95.041046,199.62793,265.36182)"
       spreadMethod="pad"
       id="radialGradient1490"><stop
         style="stop-opacity:1;stop-color:#ff7300"
         offset="0"
         id="stop1492" /><stop
         style="stop-opacity:1;stop-color:#ffbd00"
         offset="0.606064"
         id="stop1494" /><stop
         style="stop-opacity:1;stop-color:#ffbd00"
         offset="0.606064"
         id="stop1496" /><stop
         style="stop-opacity:1;stop-color:#f5ea14"
         offset="1"
         id="stop1498" /></radialGradient><clipPath
       clipPathUnits="userSpaceOnUse"
       id="clipPath1506"><path
         d="m 155.729,352.027 c 0.002,-10e-4 -0.138,-0.29 -0.366,-0.854 l 0,0 c -0.226,-0.566 -0.541,-1.41 -0.836,-2.539 l 0,0 c -0.294,-1.127 -0.566,-2.543 -0.688,-4.231 l 0,0 c -0.126,-1.685 -0.099,-3.629 0.136,-5.739 l 0,0 c 0.232,-2.111 0.668,-4.383 1.277,-6.73 l 0,0 c 0.607,-2.348 1.384,-4.77 2.26,-7.21 l 0,0 c 1.748,-4.879 3.899,-9.837 5.766,-14.553 l 0,0 c 0.932,-2.357 1.791,-4.653 2.475,-6.815 l 0,0 c 0.685,-2.161 1.191,-4.19 1.425,-5.947 l 0,0 c 0.201,-1.49 -0.309,-4.108 -0.623,-5.005 l 0,0 c -0.274,0.103 -0.567,0.221 -0.867,0.354 l 0,0 c -0.549,0.241 0.137,-1.795 1.654,-3.372 l 0,0 c 3.053,-3.14 7.148,-7.576 12.013,-12.111 l 0,0 c 4.861,-4.534 9.685,-8.209 13.845,-10.056 l 0,0 c 2.073,-0.931 3.968,-1.412 5.534,-1.384 l 0,0 c 1.565,0.026 2.799,0.563 3.499,1.595 l 0,0 c 0.173,0.261 0.593,1.034 1.177,2.34 l 0,0 c 0.579,1.311 1.332,3.16 2.051,5.621 l 0,0 c 0.711,2.452 1.387,5.549 1.599,9.136 l 0,0 c 0.227,3.569 -0.074,7.607 -1.052,11.445 l 0,0 c -0.961,3.851 -2.555,7.435 -4.428,10.496 l 0,0 c -1.877,3.077 -4.016,5.674 -6.205,7.943 l 0,0 c -2.194,2.267 -4.45,4.219 -6.69,5.993 l 0,0 c -2.242,1.773 -4.473,3.369 -6.651,4.874 l 0,0 c -4.356,3.002 -8.503,5.663 -12.12,8.304 l 0,0 c -3.618,2.629 -6.695,5.245 -8.948,7.866 l 0,0 c -1.128,1.306 -2.053,2.608 -2.773,3.845 l 0,0 c -0.721,1.236 -1.239,2.417 -1.598,3.426 l 0,0 c -0.709,2.022 -0.849,3.308 -0.866,3.308 l 0,0 c 0,0 0,0 0,0"
         id="path1508"
         inkscape:connector-curvature="0" /></clipPath><radialGradient
       fx="0"
       fy="0"
       cx="0"
       cy="0"
       r="1"
       gradientUnits="userSpaceOnUse"
       gradientTransform="matrix(95.035004,-0.8261261,-0.8261261,-95.034988,199.62842,265.3623)"
       spreadMethod="pad"
       id="radialGradient1514"><stop
         style="stop-opacity:1;stop-color:#ff7300"
         offset="0"
         id="stop1516" /><stop
         style="stop-opacity:1;stop-color:#ffbd00"
         offset="0.606064"
         id="stop1518" /><stop
         style="stop-opacity:1;stop-color:#ffbd00"
         offset="0.606064"
         id="stop1520" /><stop
         style="stop-opacity:1;stop-color:#f5ea14"
         offset="1"
         id="stop1522" /></radialGradient><clipPath
       clipPathUnits="userSpaceOnUse"
       id="clipPath1530"><path
         d="m 118.957,317.913 c 0.002,10e-4 0.027,-0.319 0.111,-0.923 l 0,0 c 0.087,-0.603 0.237,-1.491 0.546,-2.616 l 0,0 c 0.308,-1.124 0.78,-2.484 1.518,-4.008 l 0,0 c 0.733,-1.523 1.73,-3.192 2.989,-4.902 l 0,0 c 1.255,-1.712 2.77,-3.463 4.47,-5.191 l 0,0 c 1.7,-1.73 3.584,-3.438 5.562,-5.114 l 0,0 c 3.955,-3.351 8.295,-6.569 12.271,-9.72 l 0,0 c 1.985,-1.574 3.876,-3.133 5.55,-4.664 l 0,0 c 1.673,-1.529 3.126,-3.033 4.208,-4.437 l 0,0 c 0.918,-1.19 1.786,-3.713 1.962,-4.647 l 0,0 c -0.288,-0.048 -0.601,-0.092 -0.927,-0.126 l 0,0 c -0.596,-0.066 1.016,-1.488 3.119,-2.093 l 0,0 c 4.214,-1.194 9.978,-2.987 16.458,-4.484 l 0,0 c 6.476,-1.494 12.492,-2.265 17.019,-1.785 l 0,0 c 2.261,0.231 4.142,0.761 5.486,1.569 l 0,0 c 1.34,0.804 2.141,1.886 2.23,3.13 l 0,0 c 0.02,0.312 -0.004,1.192 -0.15,2.615 l 0,0 c -0.154,1.424 -0.426,3.402 -1.034,5.894 l 0,0 c -0.611,2.478 -1.574,5.499 -3.181,8.712 l 0,0 c -1.591,3.204 -3.869,6.55 -6.636,9.385 l 0,0 c -2.759,2.855 -5.929,5.161 -9.083,6.876 l 0,0 c -3.165,1.726 -6.315,2.906 -9.345,3.776 l 0,0 c -3.033,0.867 -5.963,1.429 -8.791,1.846 l 0,0 c -2.827,0.414 -5.558,0.681 -8.196,0.896 l 0,0 c -5.274,0.421 -10.195,0.65 -14.648,1.13 l 0,0 c -4.448,0.468 -8.421,1.195 -11.682,2.339 l 0,0 c -1.63,0.566 -3.083,1.231 -4.325,1.943 l 0,0 c -1.242,0.709 -2.281,1.474 -3.097,2.168 l 0,0 c -1.618,1.39 -2.382,2.432 -2.404,2.431 l 0,0 c 0,0 0,0 0,0"
         id="path1532"
         inkscape:connector-curvature="0" /></clipPath><radialGradient
       fx="0"
       fy="0"
       cx="0"
       cy="0"
       r="1"
       gradientUnits="userSpaceOnUse"
       gradientTransform="matrix(95.038925,-0.8261566,-0.8261566,-95.038925,199.62744,265.3623)"
       spreadMethod="pad"
       id="radialGradient1538"><stop
         style="stop-opacity:1;stop-color:#ff7300"
         offset="0"
         id="stop1540" /><stop
         style="stop-opacity:1;stop-color:#ffbd00"
         offset="0.606064"
         id="stop1542" /><stop
         style="stop-opacity:1;stop-color:#ffbd00"
         offset="0.606064"
         id="stop1544" /><stop
         style="stop-opacity:1;stop-color:#f5ea14"
         offset="1"
         id="stop1546" /></radialGradient><clipPath
       clipPathUnits="userSpaceOnUse"
       id="clipPath1554"><path
         d="m 166.549,286.913 c -3.603,-0.087 -6.921,-0.64 -9.981,-1.401 l 0,0 c -3.06,-0.767 -5.878,-1.745 -8.535,-2.798 l 0,0 c -2.656,-1.055 -5.153,-2.189 -7.546,-3.323 l 0,0 c -4.778,-2.271 -9.155,-4.533 -13.251,-6.345 l 0,0 c -4.086,-1.818 -7.891,-3.175 -11.286,-3.815 l 0,0 c -1.695,-0.325 -3.284,-0.475 -4.716,-0.479 l 0,0 c -1.431,-0.007 -2.714,0.136 -3.768,0.328 l 0,0 c -2.113,0.399 -3.297,0.924 -3.297,0.905 l 0,0 c 0.002,10e-4 0.182,-0.264 0.558,-0.745 l 0,0 c 0.376,-0.478 0.95,-1.172 1.78,-1.993 l 0,0 c 0.829,-0.818 1.919,-1.761 3.319,-2.712 l 0,0 c 1.397,-0.951 3.094,-1.898 5.04,-2.751 l 0,0 c 1.943,-0.854 4.129,-1.613 6.467,-2.26 l 0,0 c 2.336,-0.647 4.823,-1.185 7.372,-1.647 l 0,0 c 5.101,-0.926 10.47,-1.541 15.488,-2.282 l 0,0 c 2.506,-0.372 4.924,-0.776 7.139,-1.265 l 0,0 c 2.213,-0.487 4.223,-1.064 5.862,-1.74 l 0,0 c 1.392,-0.571 3.404,-2.322 4.024,-3.042 l 0,0 c -0.226,-0.186 -0.475,-0.38 -0.74,-0.572 l 0,0 c -0.483,-0.357 1.623,-0.782 3.747,-0.255 l 0,0 c 4.246,1.074 10.135,2.402 16.495,4.347 l 0,0 c 6.356,1.943 11.952,4.284 15.631,6.964 l 0,0 c 1.842,1.329 3.208,2.729 3.967,4.101 l 0,0 c 0.758,1.366 0.91,2.705 0.368,3.826 l 0,0 c -0.141,0.281 -0.6,1.03 -1.44,2.189 l 0,0 c -0.844,1.157 -2.069,2.735 -3.84,4.588 l 0,0 c -1.769,1.841 -4.115,3.975 -7.113,5.953 l 0,0 c -2.979,1.98 -6.626,3.739 -10.439,4.811 l 0,0 c -3.472,0.995 -7.012,1.425 -10.324,1.425 l 0,0 c -0.329,0 -0.656,-0.004 -0.981,-0.012"
         id="path1556"
         inkscape:connector-curvature="0" /></clipPath><radialGradient
       fx="0"
       fy="0"
       cx="0"
       cy="0"
       r="1"
       gradientUnits="userSpaceOnUse"
       gradientTransform="matrix(95.043976,-0.8262024,-0.8262024,-95.043961,199.62744,265.36279)"
       spreadMethod="pad"
       id="radialGradient1562"><stop
         style="stop-opacity:1;stop-color:#ff7300"
         offset="0"
         id="stop1564" /><stop
         style="stop-opacity:1;stop-color:#ffbd00"
         offset="0.606064"
         id="stop1566" /><stop
         style="stop-opacity:1;stop-color:#ffbd00"
         offset="0.606064"
         id="stop1568" /><stop
         style="stop-opacity:1;stop-color:#f5ea14"
         offset="1"
         id="stop1570" /></radialGradient><clipPath
       clipPathUnits="userSpaceOnUse"
       id="clipPath1578"><path
         d="m 171.382,271.362 c -3.851,-0.962 -7.434,-2.555 -10.496,-4.428 l 0,0 c -3.077,-1.878 -5.675,-4.016 -7.943,-6.206 l 0,0 c -2.267,-2.193 -4.219,-4.449 -5.994,-6.689 l 0,0 c -1.773,-2.242 -3.368,-4.473 -4.873,-6.652 l 0,0 c -3.003,-4.356 -5.662,-8.502 -8.304,-12.12 l 0,0 c -2.629,-3.618 -5.246,-6.694 -7.866,-8.947 l 0,0 c -1.305,-1.128 -2.607,-2.054 -3.845,-2.774 l 0,0 c -1.236,-0.72 -2.418,-1.239 -3.427,-1.598 l 0,0 c -2.028,-0.712 -3.317,-0.85 -3.307,-0.866 l 0,0 c 0.001,0.003 0.29,-0.137 0.855,-0.365 l 0,0 c 0.565,-0.227 1.409,-0.541 2.538,-0.836 l 0,0 c 1.128,-0.295 2.542,-0.566 4.231,-0.689 l 0,0 c 1.685,-0.127 3.629,-0.099 5.739,0.137 l 0,0 c 2.111,0.231 4.384,0.668 6.73,1.276 l 0,0 c 2.348,0.608 4.77,1.385 7.21,2.26 l 0,0 c 4.879,1.749 9.837,3.901 14.553,5.767 l 0,0 c 2.356,0.932 4.652,1.79 6.815,2.474 l 0,0 c 2.161,0.686 4.19,1.191 5.946,1.425 l 0,0 c 1.492,0.201 4.111,-0.308 5.007,-0.622 l 0,0 c -0.103,-0.274 -0.221,-0.567 -0.355,-0.867 l 0,0 c -0.241,-0.55 1.796,0.136 3.373,1.654 l 0,0 c 3.14,3.053 7.575,7.148 12.111,12.012 l 0,0 c 4.533,4.861 8.209,9.687 10.055,13.847 l 0,0 c 0.931,2.071 1.412,3.967 1.385,5.534 l 0,0 c -0.026,1.562 -0.563,2.798 -1.596,3.497 l 0,0 c -0.26,0.174 -1.033,0.593 -2.34,1.176 l 0,0 c -1.31,0.581 -3.16,1.334 -5.62,2.053 l 0,0 c -2.453,0.711 -5.551,1.386 -9.136,1.6 l 0,0 c -0.743,0.047 -1.506,0.071 -2.283,0.071 l 0,0 c -2.959,0 -6.123,-0.35 -9.163,-1.124"
         id="path1580"
         inkscape:connector-curvature="0" /></clipPath><radialGradient
       fx="0"
       fy="0"
       cx="0"
       cy="0"
       r="1"
       gradientUnits="userSpaceOnUse"
       gradientTransform="matrix(95.040909,-0.8261719,-0.8261719,-95.040909,199.62842,265.3623)"
       spreadMethod="pad"
       id="radialGradient1586"><stop
         style="stop-opacity:1;stop-color:#ff7300"
         offset="0"
         id="stop1588" /><stop
         style="stop-opacity:1;stop-color:#ffbd00"
         offset="0.606064"
         id="stop1590" /><stop
         style="stop-opacity:1;stop-color:#ffbd00"
         offset="0.606064"
         id="stop1592" /><stop
         style="stop-opacity:1;stop-color:#f5ea14"
         offset="1"
         id="stop1594" /></radialGradient><clipPath
       clipPathUnits="userSpaceOnUse"
       id="clipPath1602"><path
         d="m 196.838,266.731 c -1.424,-0.152 -3.404,-0.425 -5.894,-1.032 l 0,0 c -2.48,-0.61 -5.5,-1.574 -8.713,-3.182 l 0,0 c -3.204,-1.591 -6.55,-3.869 -9.384,-6.634 l 0,0 c -2.856,-2.76 -5.163,-5.931 -6.877,-9.084 l 0,0 c -1.726,-3.165 -2.906,-6.315 -3.776,-9.346 l 0,0 c -0.866,-3.033 -1.429,-5.962 -1.846,-8.79 l 0,0 c -0.414,-2.827 -0.681,-5.558 -0.895,-8.196 l 0,0 c -0.422,-5.274 -0.652,-10.196 -1.131,-14.649 l 0,0 c -0.468,-4.448 -1.196,-8.419 -2.339,-11.682 l 0,0 c -0.566,-1.631 -1.231,-3.081 -1.943,-4.323 l 0,0 c -0.71,-1.242 -1.474,-2.283 -2.169,-3.098 l 0,0 c -1.4,-1.632 -2.448,-2.395 -2.431,-2.405 l 0,0 c 0,0.004 0.32,0.027 0.924,0.111 l 0,0 c 0.602,0.087 1.491,0.237 2.616,0.546 l 0,0 c 1.123,0.309 2.484,0.781 4.008,1.519 l 0,0 c 1.523,0.733 3.191,1.729 4.902,2.988 l 0,0 c 1.712,1.257 3.462,2.771 5.19,4.471 l 0,0 c 1.73,1.7 3.439,3.583 5.114,5.561 l 0,0 c 3.352,3.955 6.569,8.297 9.72,12.271 l 0,0 c 1.574,1.986 3.134,3.877 4.665,5.551 l 0,0 c 1.529,1.673 3.033,3.125 4.437,4.207 l 0,0 c 1.19,0.919 3.714,1.787 4.647,1.963 l 0,0 c 0.048,-0.289 0.092,-0.601 0.126,-0.927 l 0,0 c 0.068,-0.597 1.488,1.015 2.094,3.118 l 0,0 c 1.193,4.214 2.986,9.978 4.482,16.46 l 0,0 c 1.497,6.475 2.266,12.492 1.787,17.018 l 0,0 c -0.23,2.26 -0.761,4.142 -1.57,5.485 l 0,0 c -0.803,1.34 -1.887,2.141 -3.129,2.23 l 0,0 c -0.062,0.005 -0.146,0.007 -0.253,0.007 l 0,0 c -0.43,0 -1.221,-0.039 -2.362,-0.158"
         id="path1604"
         inkscape:connector-curvature="0" /></clipPath><radialGradient
       fx="0"
       fy="0"
       cx="0"
       cy="0"
       r="1"
       gradientUnits="userSpaceOnUse"
       gradientTransform="matrix(95.040176,-0.8261719,-0.8261719,-95.040176,199.62891,265.36182)"
       spreadMethod="pad"
       id="radialGradient1610"><stop
         style="stop-opacity:1;stop-color:#ff7300"
         offset="0"
         id="stop1612" /><stop
         style="stop-opacity:1;stop-color:#ffbd00"
         offset="0.606064"
         id="stop1614" /><stop
         style="stop-opacity:1;stop-color:#ffbd00"
         offset="0.606064"
         id="stop1616" /><stop
         style="stop-opacity:1;stop-color:#f5ea14"
         offset="1"
         id="stop1618" /></radialGradient><clipPath
       clipPathUnits="userSpaceOnUse"
       id="clipPath1626"><path
         d="m 199.394,266.039 c -0.279,-0.139 -1.029,-0.599 -2.187,-1.439 l 0,0 c -1.158,-0.845 -2.736,-2.07 -4.589,-3.841 l 0,0 c -1.842,-1.769 -3.974,-4.113 -5.954,-7.111 l 0,0 c -1.98,-2.98 -3.738,-6.628 -4.809,-10.44 l 0,0 c -1.095,-3.817 -1.507,-7.716 -1.414,-11.305 l 0,0 c 0.086,-3.604 0.64,-6.921 1.402,-9.981 l 0,0 c 0.766,-3.06 1.744,-5.878 2.796,-8.536 l 0,0 c 1.055,-2.655 2.19,-5.153 3.323,-7.545 l 0,0 c 2.273,-4.779 4.534,-9.156 6.346,-13.251 l 0,0 c 1.819,-4.087 3.174,-7.891 3.815,-11.286 l 0,0 c 0.326,-1.696 0.476,-3.286 0.481,-4.718 l 0,0 c 0.005,-1.43 -0.137,-2.712 -0.33,-3.765 l 0,0 c -0.397,-2.114 -0.922,-3.299 -0.905,-3.299 l 0,0 c 0,0.002 0.266,0.183 0.744,0.558 l 0,0 c 0.481,0.376 1.174,0.951 1.995,1.78 l 0,0 c 0.818,0.829 1.761,1.919 2.711,3.32 l 0,0 c 0.953,1.396 1.899,3.093 2.751,5.039 l 0,0 c 0.854,1.943 1.614,4.131 2.26,6.467 l 0,0 c 0.649,2.336 1.186,4.823 1.649,7.374 l 0,0 c 0.923,5.099 1.539,10.469 2.281,15.487 l 0,0 c 0.371,2.506 0.775,4.924 1.265,7.139 l 0,0 c 0.487,2.212 1.062,4.224 1.738,5.862 l 0,0 c 0.572,1.391 2.323,3.404 3.043,4.023 l 0,0 c 0.186,-0.225 0.38,-0.474 0.573,-0.739 l 0,0 c 0.357,-0.484 0.781,1.622 0.253,3.747 l 0,0 c -1.073,4.245 -2.402,10.134 -4.347,16.495 l 0,0 c -1.944,6.355 -4.284,11.951 -6.963,15.631 l 0,0 c -1.33,1.843 -2.729,3.207 -4.099,3.967 l 0,0 c -0.819,0.454 -1.628,0.691 -2.387,0.691 l 0,0 c -0.507,0 -0.992,-0.106 -1.442,-0.324"
         id="path1628"
         inkscape:connector-curvature="0" /></clipPath><radialGradient
       fx="0"
       fy="0"
       cx="0"
       cy="0"
       r="1"
       gradientUnits="userSpaceOnUse"
       gradientTransform="matrix(95.036514,-0.8261261,-0.8261261,-95.036499,199.6543,265.36279)"
       spreadMethod="pad"
       id="radialGradient1634"><stop
         style="stop-opacity:1;stop-color:#ff7300"
         offset="0"
         id="stop1636" /><stop
         style="stop-opacity:1;stop-color:#ffbd00"
         offset="0.606064"
         id="stop1638" /><stop
         style="stop-opacity:1;stop-color:#ffbd00"
         offset="0.606064"
         id="stop1640" /><stop
         style="stop-opacity:1;stop-color:#f5ea14"
         offset="1"
         id="stop1642" /></radialGradient><clipPath
       clipPathUnits="userSpaceOnUse"
       id="clipPath1650"><path
         d="m 203.266,266.873 c -1.563,-0.026 -2.797,-0.562 -3.498,-1.595 l 0,0 c -0.174,-0.26 -0.593,-1.034 -1.176,-2.34 l 0,0 c -0.58,-1.311 -1.335,-3.161 -2.053,-5.621 l 0,0 c -0.711,-2.451 -1.385,-5.549 -1.6,-9.136 l 0,0 c -0.224,-3.57 0.075,-7.607 1.053,-11.445 l 0,0 c 0.963,-3.852 2.555,-7.435 4.43,-10.497 l 0,0 c 1.875,-3.077 4.014,-5.673 6.203,-7.942 l 0,0 c 2.196,-2.267 4.449,-4.219 6.689,-5.994 l 0,0 c 2.242,-1.772 4.475,-3.368 6.653,-4.875 l 0,0 c 4.357,-3.001 8.502,-5.661 12.119,-8.302 l 0,0 c 3.62,-2.63 6.695,-5.245 8.949,-7.866 l 0,0 c 1.127,-1.306 2.053,-2.607 2.771,-3.846 l 0,0 c 0.721,-1.236 1.241,-2.418 1.601,-3.426 l 0,0 c 0.712,-2.029 0.849,-3.317 0.864,-3.308 l 0,0 c -10e-4,0 0.139,0.291 0.366,0.855 l 0,0 c 0.227,0.566 0.543,1.411 0.836,2.539 l 0,0 c 0.294,1.127 0.566,2.541 0.689,4.23 l 0,0 c 0.127,1.685 0.098,3.628 -0.136,5.74 l 0,0 c -0.233,2.11 -0.668,4.383 -1.278,6.731 l 0,0 c -0.607,2.347 -1.383,4.769 -2.259,7.209 l 0,0 c -1.749,4.879 -3.901,9.837 -5.768,14.553 l 0,0 c -0.93,2.356 -1.79,4.653 -2.473,6.815 l 0,0 c -0.686,2.16 -1.191,4.189 -1.425,5.946 l 0,0 c -0.202,1.491 0.309,4.111 0.622,5.006 l 0,0 c 0.274,-0.102 0.567,-0.22 0.867,-0.354 l 0,0 c 0.549,-0.24 -0.136,1.795 -1.654,3.372 l 0,0 c -3.053,3.14 -7.146,7.576 -12.012,12.112 l 0,0 c -4.86,4.532 -9.685,8.208 -13.845,10.055 l 0,0 c -2.019,0.906 -3.868,1.385 -5.409,1.385 l 0,0 c -0.042,0 -0.084,0 -0.126,-0.001 m 32.937,-25.959 c 0,0 0,0 0,0"
         id="path1652"
         inkscape:connector-curvature="0" /></clipPath><radialGradient
       fx="0"
       fy="0"
       cx="0"
       cy="0"
       r="1"
       gradientUnits="userSpaceOnUse"
       gradientTransform="matrix(95.040771,-0.8261719,-0.8261719,-95.040771,199.62891,265.3623)"
       spreadMethod="pad"
       id="radialGradient1658"><stop
         style="stop-opacity:1;stop-color:#ff7300"
         offset="0"
         id="stop1660" /><stop
         style="stop-opacity:1;stop-color:#ffbd00"
         offset="0.606064"
         id="stop1662" /><stop
         style="stop-opacity:1;stop-color:#ffbd00"
         offset="0.606064"
         id="stop1664" /><stop
         style="stop-opacity:1;stop-color:#f5ea14"
         offset="1"
         id="stop1666" /></radialGradient><clipPath
       clipPathUnits="userSpaceOnUse"
       id="clipPath1674"><path
         d="m 208.187,269.505 c -2.259,-0.23 -4.14,-0.761 -5.485,-1.569 l 0,0 c -1.341,-0.803 -2.14,-1.886 -2.231,-3.13 l 0,0 c -0.019,-0.312 0.004,-1.191 0.152,-2.614 l 0,0 c 0.153,-1.425 0.423,-3.405 1.033,-5.895 l 0,0 c 0.61,-2.479 1.575,-5.499 3.179,-8.712 l 0,0 c 1.593,-3.203 3.872,-6.55 6.638,-9.385 l 0,0 c 2.759,-2.855 5.929,-5.161 9.082,-6.876 l 0,0 c 3.163,-1.726 6.314,-2.906 9.345,-3.776 l 0,0 c 3.034,-0.867 5.963,-1.43 8.792,-1.846 l 0,0 c 2.826,-0.415 5.558,-0.681 8.197,-0.895 l 0,0 c 5.273,-0.423 10.193,-0.653 14.646,-1.131 l 0,0 c 4.449,-0.469 8.42,-1.195 11.682,-2.339 l 0,0 c 1.63,-0.565 3.082,-1.23 4.324,-1.943 l 0,0 c 1.242,-0.71 2.283,-1.475 3.098,-2.169 l 0,0 c 1.632,-1.4 2.394,-2.448 2.404,-2.431 l 0,0 c -0.002,-0.001 -0.025,0.32 -0.109,0.922 l 0,0 c -0.088,0.604 -0.239,1.493 -0.547,2.618 l 0,0 c -0.309,1.123 -0.782,2.485 -1.52,4.007 l 0,0 c -0.73,1.523 -1.728,3.192 -2.988,4.903 l 0,0 c -1.254,1.712 -2.77,3.462 -4.471,5.191 l 0,0 c -1.699,1.729 -3.582,3.438 -5.561,5.113 l 0,0 c -3.954,3.35 -8.296,6.569 -12.27,9.72 l 0,0 c -1.985,1.575 -3.878,3.134 -5.552,4.664 l 0,0 c -1.672,1.53 -3.124,3.033 -4.206,4.438 l 0,0 c -0.919,1.191 -1.788,3.715 -1.964,4.647 l 0,0 c 0.289,0.048 0.602,0.092 0.928,0.126 l 0,0 c 0.596,0.068 -1.015,1.488 -3.119,2.093 l 0,0 c -4.213,1.194 -9.976,2.988 -16.457,4.483 l 0,0 c -5.179,1.196 -10.063,1.928 -14.127,1.928 l 0,0 c -1.019,0 -1.986,-0.046 -2.893,-0.142 m 36.02,-7.582 c 0,0 0,0 0,0"
         id="path1676"
         inkscape:connector-curvature="0" /></clipPath><radialGradient
       fx="0"
       fy="0"
       cx="0"
       cy="0"
       r="1"
       gradientUnits="userSpaceOnUse"
       gradientTransform="matrix(95.041138,-0.8261719,-0.8261719,-95.041122,199.62793,265.3623)"
       spreadMethod="pad"
       id="radialGradient1682"><stop
         style="stop-opacity:1;stop-color:#ff7300"
         offset="0"
         id="stop1684" /><stop
         style="stop-opacity:1;stop-color:#ffbd00"
         offset="0.606064"
         id="stop1686" /><stop
         style="stop-opacity:1;stop-color:#ffbd00"
         offset="0.606064"
         id="stop1688" /><stop
         style="stop-opacity:1;stop-color:#f5ea14"
         offset="1"
         id="stop1690" /></radialGradient><clipPath
       clipPathUnits="userSpaceOnUse"
       id="clipPath1698"><path
         d="m 237.775,283.987 c -4.246,-1.074 -10.133,-2.401 -16.494,-4.347 l 0,0 c -6.357,-1.944 -11.953,-4.284 -15.633,-6.963 l 0,0 c -1.841,-1.331 -3.205,-2.731 -3.966,-4.102 l 0,0 c -0.758,-1.366 -0.908,-2.704 -0.366,-3.827 l 0,0 c 0.139,-0.279 0.6,-1.029 1.438,-2.188 l 0,0 c 0.846,-1.158 2.07,-2.734 3.842,-4.588 l 0,0 c 1.767,-1.842 4.113,-3.974 7.111,-5.953 l 0,0 c 2.981,-1.98 6.627,-3.74 10.44,-4.811 l 0,0 c 3.816,-1.093 7.715,-1.506 11.304,-1.414 l 0,0 c 3.603,0.087 6.92,0.641 9.981,1.403 l 0,0 c 3.06,0.767 5.879,1.743 8.534,2.796 l 0,0 c 2.657,1.055 5.155,2.191 7.548,3.324 l 0,0 c 4.779,2.272 9.154,4.533 13.25,6.344 l 0,0 c 4.088,1.819 7.89,3.175 11.287,3.817 l 0,0 c 1.695,0.325 3.285,0.474 4.716,0.477 l 0,0 c 1.431,0.008 2.713,-0.134 3.766,-0.328 l 0,0 c 2.113,-0.398 3.299,-0.921 3.299,-0.904 l 0,0 c -0.002,-0.001 -0.184,0.265 -0.558,0.744 l 0,0 c -0.376,0.48 -0.952,1.174 -1.78,1.994 l 0,0 c -0.83,0.818 -1.919,1.762 -3.32,2.711 l 0,0 c -1.395,0.953 -3.092,1.899 -5.039,2.751 l 0,0 c -1.944,0.855 -4.131,1.613 -6.467,2.26 l 0,0 c -2.336,0.648 -4.823,1.186 -7.373,1.648 l 0,0 c -5.1,0.924 -10.469,1.541 -15.488,2.283 l 0,0 c -2.506,0.371 -4.924,0.775 -7.139,1.264 l 0,0 c -2.213,0.488 -4.223,1.063 -5.862,1.739 l 0,0 c -1.391,0.571 -3.405,2.323 -4.024,3.042 l 0,0 c 0.226,0.187 0.475,0.382 0.741,0.574 l 0,0 c 0.319,0.236 -0.494,0.501 -1.697,0.501 l 0,0 c -0.615,0 -1.332,-0.069 -2.051,-0.247 m 2.858,0.134 c 0,0 0,0 0,0"
         id="path1700"
         inkscape:connector-curvature="0" /></clipPath><radialGradient
       fx="0"
       fy="0"
       cx="0"
       cy="0"
       r="1"
       gradientUnits="userSpaceOnUse"
       gradientTransform="matrix(95.041214,-0.8261719,-0.8261719,-95.041214,199.62891,265.3623)"
       spreadMethod="pad"
       id="radialGradient1706"><stop
         style="stop-opacity:1;stop-color:#ff7300"
         offset="0"
         id="stop1708" /><stop
         style="stop-opacity:1;stop-color:#ffbd00"
         offset="0.606064"
         id="stop1710" /><stop
         style="stop-opacity:1;stop-color:#ffbd00"
         offset="0.606064"
         id="stop1712" /><stop
         style="stop-opacity:1;stop-color:#f5ea14"
         offset="1"
         id="stop1714" /></radialGradient><clipPath
       clipPathUnits="userSpaceOnUse"
       id="clipPath1722"><path
         d="m 273.31,313.379 c -2.111,-0.231 -4.385,-0.669 -6.73,-1.277 l 0,0 c -2.347,-0.607 -4.769,-1.384 -7.209,-2.259 l 0,0 c -4.879,-1.75 -9.836,-3.9 -14.555,-5.767 l 0,0 c -2.355,-0.933 -4.652,-1.791 -6.814,-2.475 l 0,0 c -2.161,-0.684 -4.189,-1.19 -5.945,-1.425 l 0,0 c -1.491,-0.2 -4.111,0.309 -5.007,0.623 l 0,0 c 0.102,0.274 0.22,0.567 0.354,0.867 l 0,0 c 0.24,0.549 -1.795,-0.136 -3.372,-1.655 l 0,0 c -3.14,-3.052 -7.575,-7.146 -12.11,-12.011 l 0,0 c -4.533,-4.861 -8.209,-9.687 -10.057,-13.846 l 0,0 c -0.931,-2.073 -1.412,-3.968 -1.385,-5.536 l 0,0 c 0.027,-1.561 0.565,-2.796 1.596,-3.497 l 0,0 c 0.262,-0.173 1.035,-0.592 2.34,-1.175 l 0,0 c 1.311,-0.581 3.16,-1.335 5.621,-2.053 l 0,0 c 2.453,-0.711 5.549,-1.386 9.135,-1.6 l 0,0 c 3.57,-0.225 7.607,0.075 11.445,1.053 l 0,0 c 3.854,0.963 7.436,2.555 10.498,4.429 l 0,0 c 3.077,1.875 5.674,4.014 7.942,6.204 l 0,0 c 2.267,2.194 4.218,4.449 5.994,6.69 l 0,0 c 1.773,2.241 3.369,4.474 4.874,6.651 l 0,0 c 3.003,4.357 5.66,8.503 8.304,12.119 l 0,0 c 2.629,3.618 5.246,6.696 7.865,8.949 l 0,0 c 1.307,1.128 2.607,2.054 3.847,2.773 l 0,0 c 1.235,0.721 2.416,1.238 3.426,1.598 l 0,0 c 2.028,0.713 3.316,0.85 3.306,0.867 l 0,0 c 0,-0.003 -0.29,0.137 -0.853,0.365 l 0,0 c -0.566,0.226 -1.412,0.541 -2.539,0.837 l 0,0 c -1.128,0.293 -2.543,0.565 -4.232,0.687 l 0,0 c -0.647,0.049 -1.333,0.076 -2.052,0.076 l 0,0 c -1.151,0 -2.387,-0.067 -3.687,-0.212"
         id="path1724"
         inkscape:connector-curvature="0" /></clipPath><radialGradient
       fx="0"
       fy="0"
       cx="0"
       cy="0"
       r="1"
       gradientUnits="userSpaceOnUse"
       gradientTransform="matrix(95.041992,-0.8261871,-0.8261871,-95.041992,199.62695,265.3623)"
       spreadMethod="pad"
       id="radialGradient1730"><stop
         style="stop-opacity:1;stop-color:#ff7300"
         offset="0"
         id="stop1732" /><stop
         style="stop-opacity:1;stop-color:#ffbd00"
         offset="0.606064"
         id="stop1734" /><stop
         style="stop-opacity:1;stop-color:#ffbd00"
         offset="0.606064"
         id="stop1736" /><stop
         style="stop-opacity:1;stop-color:#f5ea14"
         offset="1"
         id="stop1738" /></radialGradient><clipPath
       clipPathUnits="userSpaceOnUse"
       id="clipPath1746"><path
         d="m 251.636,348.286 c -0.603,-0.087 -1.492,-0.237 -2.617,-0.544 l 0,0 c -1.122,-0.31 -2.484,-0.782 -4.007,-1.52 l 0,0 c -1.522,-0.732 -3.192,-1.729 -4.903,-2.989 l 0,0 c -1.711,-1.255 -3.46,-2.77 -5.189,-4.47 l 0,0 c -1.731,-1.7 -3.439,-3.584 -5.113,-5.561 l 0,0 c -3.352,-3.955 -6.568,-8.297 -9.721,-12.272 l 0,0 c -1.574,-1.984 -3.133,-3.876 -4.664,-5.55 l 0,0 c -1.53,-1.673 -3.034,-3.126 -4.438,-4.208 l 0,0 c -1.19,-0.919 -3.714,-1.787 -4.647,-1.963 l 0,0 c -0.048,0.289 -0.092,0.602 -0.126,0.928 l 0,0 c -0.069,0.596 -1.486,-1.016 -2.094,-3.119 l 0,0 c -1.193,-4.214 -2.986,-9.976 -4.483,-16.458 l 0,0 c -1.494,-6.477 -2.265,-12.492 -1.784,-17.019 l 0,0 c 0.23,-2.26 0.761,-4.141 1.568,-5.486 l 0,0 c 0.802,-1.339 1.887,-2.139 3.131,-2.231 l 0,0 c 0.312,-0.019 1.191,0.004 2.615,0.151 l 0,0 c 1.424,0.154 3.402,0.425 5.892,1.033 l 0,0 c 2.481,0.611 5.498,1.575 8.713,3.183 l 0,0 c 3.203,1.59 6.549,3.869 9.385,6.635 l 0,0 c 2.856,2.759 5.163,5.93 6.877,9.082 l 0,0 c 1.725,3.165 2.905,6.316 3.776,9.346 l 0,0 c 0.865,3.034 1.429,5.962 1.846,8.79 l 0,0 c 0.414,2.828 0.681,5.559 0.894,8.197 l 0,0 c 0.422,5.275 0.652,10.195 1.131,14.648 l 0,0 c 0.469,4.449 1.197,8.421 2.34,11.683 l 0,0 c 0.564,1.629 1.23,3.082 1.943,4.324 l 0,0 c 0.709,1.241 1.475,2.281 2.168,3.096 l 0,0 c 1.4,1.632 2.447,2.395 2.432,2.405 l 0,0 c 0,-0.002 -0.321,-0.026 -0.925,-0.111"
         id="path1748"
         inkscape:connector-curvature="0" /></clipPath><radialGradient
       fx="0"
       fy="0"
       cx="0"
       cy="0"
       r="1"
       gradientUnits="userSpaceOnUse"
       gradientTransform="matrix(95.043564,-0.8261871,-0.8261871,-95.043549,199.62744,265.3623)"
       spreadMethod="pad"
       id="radialGradient1754"><stop
         style="stop-opacity:1;stop-color:#ff7300"
         offset="0"
         id="stop1756" /><stop
         style="stop-opacity:1;stop-color:#ffbd00"
         offset="0.606064"
         id="stop1758" /><stop
         style="stop-opacity:1;stop-color:#ffbd00"
         offset="0.606064"
         id="stop1760" /><stop
         style="stop-opacity:1;stop-color:#f5ea14"
         offset="1"
         id="stop1762" /></radialGradient><clipPath
       clipPathUnits="userSpaceOnUse"
       id="clipPath1770"><path
         d="m 149.416,266.353 c 0,-28.488 23.095,-51.582 51.584,-51.582 l 0,0 c 28.49,0 51.584,23.094 51.584,51.582 l 0,0 c 0,28.49 -23.094,51.585 -51.584,51.585 l 0,0 c -28.489,0 -51.584,-23.095 -51.584,-51.585"
         id="path1772"
         inkscape:connector-curvature="0" /></clipPath><radialGradient
       fx="0"
       fy="0"
       cx="0"
       cy="0"
       r="1"
       gradientUnits="userSpaceOnUse"
       gradientTransform="matrix(-6.064743,-69.046921,-69.046921,6.064743,180.8999,293.03613)"
       spreadMethod="pad"
       id="radialGradient1778"><stop
         style="stop-opacity:1;stop-color:#f5ea14"
         offset="0"
         id="stop1780" /><stop
         style="stop-opacity:1;stop-color:#fddb00"
         offset="0.545456"
         id="stop1782" /><stop
         style="stop-opacity:1;stop-color:#f89c1c"
         offset="1"
         id="stop1784" /></radialGradient><clipPath
       clipPathUnits="userSpaceOnUse"
       id="clipPath1792"><path
         d="m 178.666,246 c 1.713,-4.389 6.909,-9.741 7.136,-9.919 l 0,0 c -0.066,-5.229 2.033,-7.957 2.033,-7.957 l 0,0 c 38.671,-1.626 37.808,27.274 37.808,27.274 l 0,0 C 200.531,241.549 178.666,246 178.666,246"
         id="path1794"
         inkscape:connector-curvature="0" /></clipPath><linearGradient
       x1="0"
       y1="0"
       x2="1"
       y2="0"
       gradientUnits="userSpaceOnUse"
       gradientTransform="matrix(46.978516,0,0,-46.978516,178.66602,241.72852)"
       spreadMethod="pad"
       id="linearGradient1800"><stop
         style="stop-opacity:1;stop-color:#1e180e"
         offset="0"
         id="stop1802" /><stop
         style="stop-opacity:1;stop-color:#51381c"
         offset="1"
         id="stop1804" /></linearGradient><clipPath
       clipPathUnits="userSpaceOnUse"
       id="clipPath1812"><path
         d="M 0,500 400,500 400,0 0,0 0,500 z"
         id="path1814"
         inkscape:connector-curvature="0" /></clipPath><clipPath
       clipPathUnits="userSpaceOnUse"
       id="clipPath1824"><path
         d="m 181.158,245.62 c 0.349,-4.115 6.374,-9.442 6.374,-9.442 l 0,0 c 21.822,-4.706 36.441,13.01 36.441,13.01 l 0,0 -1.215,4.702 c -17.174,-8.555 -33.599,-8.822 -41.6,-8.27"
         id="path1826"
         inkscape:connector-curvature="0" /></clipPath><linearGradient
       x1="0"
       y1="0"
       x2="1"
       y2="0"
       gradientUnits="userSpaceOnUse"
       gradientTransform="matrix(42.971756,3.7305908,3.7305908,-42.971756,181.40479,242.19043)"
       spreadMethod="pad"
       id="linearGradient1832"><stop
         style="stop-opacity:1;stop-color:#393c3c"
         offset="0"
         id="stop1834" /><stop
         style="stop-opacity:1;stop-color:#f9f9f9"
         offset="0.52121"
         id="stop1836" /><stop
         style="stop-opacity:1;stop-color:#ced0d1"
         offset="1"
         id="stop1838" /></linearGradient><clipPath
       clipPathUnits="userSpaceOnUse"
       id="clipPath1846"><path
         d="m 187.532,236.178 c 0,0 -0.599,-4.405 0.403,-8.059 l 0,0 c 21.268,-0.866 30.545,7.52 34.59,15.217 l 0,0 c 0.715,1.746 1.143,3.695 1.448,5.852 l 0,0 c 0,0 -20.276,-16.393 -36.441,-13.01"
         id="path1848"
         inkscape:connector-curvature="0" /></clipPath><linearGradient
       x1="0"
       y1="0"
       x2="1"
       y2="0"
       gradientUnits="userSpaceOnUse"
       gradientTransform="matrix(38.113449,0.56987,0.56987,-38.113449,186.87695,238.31152)"
       spreadMethod="pad"
       id="linearGradient1854"><stop
         style="stop-opacity:1;stop-color:#bfbfbf"
         offset="0"
         id="stop1856" /><stop
         style="stop-opacity:1;stop-color:#f9f9f9"
         offset="0.52121"
         id="stop1858" /><stop
         style="stop-opacity:1;stop-color:#ced0d1"
         offset="1"
         id="stop1860" /></linearGradient><clipPath
       clipPathUnits="userSpaceOnUse"
       id="clipPath1868"><path
         d="M 0,500 400,500 400,0 0,0 0,500 z"
         id="path1870"
         inkscape:connector-curvature="0" /></clipPath><clipPath
       clipPathUnits="userSpaceOnUse"
       id="clipPath1876"><path
         d="m 187.464,249.188 36.509,0 0,-14.473 -36.509,0 0,14.473 z"
         id="path1878"
         inkscape:connector-curvature="0" /></clipPath><clipPath
       clipPathUnits="userSpaceOnUse"
       id="clipPath1892"><path
         d="m 181.158,245.62 c 0.349,-4.115 6.374,-9.442 6.374,-9.442 l 0,0 c 21.822,-4.706 36.441,13.01 36.441,13.01 l 0,0 -1.215,4.702 c -17.174,-8.555 -33.599,-8.822 -41.6,-8.27"
         id="path1894"
         inkscape:connector-curvature="0" /></clipPath><linearGradient
       x1="0"
       y1="0"
       x2="1"
       y2="0"
       gradientUnits="userSpaceOnUse"
       gradientTransform="matrix(42.971756,3.7305908,3.7305908,-42.971756,181.40479,242.19043)"
       spreadMethod="pad"
       id="linearGradient1900"><stop
         style="stop-opacity:1;stop-color:#393c3c"
         offset="0"
         id="stop1902" /><stop
         style="stop-opacity:1;stop-color:#f9f9f9"
         offset="0.52121"
         id="stop1904" /><stop
         style="stop-opacity:1;stop-color:#ced0d1"
         offset="1"
         id="stop1906" /></linearGradient><clipPath
       clipPathUnits="userSpaceOnUse"
       id="clipPath1914"><path
         d="m 181.158,245.62 c 0.349,-4.115 6.374,-9.442 6.374,-9.442 l 0,0 c 21.822,-4.706 36.441,13.01 36.441,13.01 l 0,0 -1.215,4.702 c -17.174,-8.555 -33.599,-8.822 -41.6,-8.27"
         id="path1916"
         inkscape:connector-curvature="0" /></clipPath><linearGradient
       x1="0"
       y1="0"
       x2="1"
       y2="0"
       gradientUnits="userSpaceOnUse"
       gradientTransform="matrix(42.813965,0,0,-42.813965,181.15869,244.63672)"
       spreadMethod="pad"
       id="linearGradient1922"><stop
         style="stop-opacity:1;stop-color:#bfbfbf"
         offset="0"
         id="stop1924" /><stop
         style="stop-opacity:1;stop-color:#f9f9f9"
         offset="0.52121"
         id="stop1926" /><stop
         style="stop-opacity:1;stop-color:#ced0d1"
         offset="1"
         id="stop1928" /></linearGradient><clipPath
       clipPathUnits="userSpaceOnUse"
       id="clipPath1936"><path
         d="M 0,500 400,500 400,0 0,0 0,500 z"
         id="path1938"
         inkscape:connector-curvature="0" /></clipPath><clipPath
       clipPathUnits="userSpaceOnUse"
       id="clipPath1948"><path
         d="m 181.159,247.742 41.478,0 0,-12.36 -41.478,0 0,12.36 z"
         id="path1950"
         inkscape:connector-curvature="0" /></clipPath><clipPath
       clipPathUnits="userSpaceOnUse"
       id="clipPath1952"><path
         d="m 187.595,236.368 c 0,0 -5.733,5.206 -6.436,9.252 0.348,-4.115 6.373,-9.442 6.373,-9.442 17.958,-3.873 31.036,7.437 35.105,11.564 -4.483,-4.411 -17.643,-15.125 -35.042,-11.374"
         id="path1954"
         inkscape:connector-curvature="0" /></clipPath><linearGradient
       x1="0"
       y1="0"
       x2="1"
       y2="0"
       gradientUnits="userSpaceOnUse"
       gradientTransform="matrix(6.0738373,-12.552597,-12.552597,-6.0738373,197.9541,254.37305)"
       spreadMethod="pad"
       id="linearGradient1956"><stop
         style="stop-opacity:1;stop-color:#ced0d1"
         offset="0"
         id="stop1958" /><stop
         style="stop-opacity:1;stop-color:#f9f9f9"
         offset="1"
         id="stop1960" /></linearGradient><clipPath
       clipPathUnits="userSpaceOnUse"
       id="clipPath1980"><path
         d="m 196.588,247.311 8.771,0 0,-11.582 -8.771,0 0,11.582 z"
         id="path1982"
         inkscape:connector-curvature="0" /></clipPath><clipPath
       clipPathUnits="userSpaceOnUse"
       id="clipPath1996"><path
         d="m 200.088,238.634 7.549,0 0,-9.77 -7.549,0 0,9.77 z"
         id="path1998"
         inkscape:connector-curvature="0" /></clipPath><clipPath
       clipPathUnits="userSpaceOnUse"
       id="clipPath2012"><path
         d="m 187.865,245.767 35.449,0 0,-17.706 -35.449,0 0,17.706 z"
         id="path2014"
         inkscape:connector-curvature="0" /></clipPath><clipPath
       clipPathUnits="userSpaceOnUse"
       id="clipPath2028"><path
         d="m 221.565,243.189 c -2.192,-3.651 -5.241,-6.725 -8.856,-8.932 l 0,0 c -3.594,-2.248 -7.69,-3.668 -11.898,-4.591 l 0,0 c -4.225,-0.916 -8.578,-1.305 -12.976,-1.542 l 0,0 c 4.364,-0.595 8.835,-0.647 13.253,0.006 l 0,0 c 4.413,0.637 8.796,2.043 12.676,4.431 l 0,0 c 1.919,1.213 3.713,2.649 5.267,4.311 l 0,0 c 1.537,1.678 2.877,3.542 3.894,5.563 l 0,0 c 2.043,4.024 3.065,8.557 2.718,12.963 l 0,0 c -0.485,-4.371 -1.905,-8.546 -4.078,-12.209"
         id="path2030"
         inkscape:connector-curvature="0" /></clipPath><radialGradient
       fx="0"
       fy="0"
       cx="0"
       cy="0"
       r="1"
       gradientUnits="userSpaceOnUse"
       gradientTransform="matrix(18.854599,-21.700455,-21.700455,-18.854599,197.44336,257.46045)"
       spreadMethod="pad"
       id="radialGradient2036"><stop
         style="stop-opacity:1;stop-color:#fdee77"
         offset="0"
         id="stop2038" /><stop
         style="stop-opacity:1;stop-color:#fddf0e"
         offset="0.448486"
         id="stop2040" /><stop
         style="stop-opacity:1;stop-color:#fcb614"
         offset="1"
         id="stop2042" /></radialGradient><clipPath
       clipPathUnits="userSpaceOnUse"
       id="clipPath2050"><path
         d="M 0,500 400,500 400,0 0,0 0,500 z"
         id="path2052"
         inkscape:connector-curvature="0" /></clipPath><clipPath
       clipPathUnits="userSpaceOnUse"
       id="clipPath2058"><path
         d="m 181.159,253.89 41.753,0 0,-9.242 -41.753,0 0,9.242 z"
         id="path2060"
         inkscape:connector-curvature="0" /></clipPath><clipPath
       clipPathUnits="userSpaceOnUse"
       id="clipPath2074"><path
         d="m 214.558,251.104 c -3.732,-1.261 -7.515,-2.349 -11.349,-3.173 l 0,0 c -3.832,-0.862 -7.716,-1.45 -11.633,-1.824 l 0,0 c -3.918,-0.342 -7.866,-0.503 -11.847,-0.24 l 0,0 c 3.863,-1.085 7.919,-1.37 11.932,-1.315 l 0,0 c 4.024,0.062 8.038,0.582 11.976,1.423 l 0,0 c 3.927,0.883 7.786,2.087 11.476,3.671 l 0,0 c 3.7,1.564 7.246,3.471 10.53,5.752 l 0,0 c -3.684,-1.548 -7.35,-3.031 -11.085,-4.294"
         id="path2076"
         inkscape:connector-curvature="0" /></clipPath><radialGradient
       fx="0"
       fy="0"
       cx="0"
       cy="0"
       r="1"
       gradientUnits="userSpaceOnUse"
       gradientTransform="matrix(8.5383911,-33.797958,-50.611099,-12.785889,196.37451,280.58643)"
       spreadMethod="pad"
       id="radialGradient2082"><stop
         style="stop-opacity:1;stop-color:#fdee77"
         offset="0"
         id="stop2084" /><stop
         style="stop-opacity:1;stop-color:#fddf0e"
         offset="0.448486"
         id="stop2086" /><stop
         style="stop-opacity:1;stop-color:#fcb614"
         offset="1"
         id="stop2088" /></radialGradient><clipPath
       clipPathUnits="userSpaceOnUse"
       id="clipPath2096"><path
         d="M 0,500 400,500 400,0 0,0 0,500 z"
         id="path2098"
         inkscape:connector-curvature="0" /></clipPath><clipPath
       clipPathUnits="userSpaceOnUse"
       id="clipPath2104"><path
         d="m 164.245,315.694 74.423,0 0,-45.444 -74.423,0 0,45.444 z"
         id="path2106"
         inkscape:connector-curvature="0" /></clipPath><clipPath
       clipPathUnits="userSpaceOnUse"
       id="clipPath2120"><path
         d="m 176.875,315.119 49.162,0 0,-30.02 -49.162,0 0,30.02 z"
         id="path2122"
         inkscape:connector-curvature="0" /></clipPath><clipPath
       clipPathUnits="userSpaceOnUse"
       id="clipPath2148"><path
         d="m 208.678,279.735 c -2.684,-1.919 -3.305,-5.65 -1.385,-8.334 l 0,0 c 1.918,-2.684 5.649,-3.305 8.332,-1.386 l 0,0 c 2.684,1.919 3.305,5.65 1.385,8.333 l 0,0 c -1.166,1.632 -3.001,2.501 -4.864,2.501 l 0,0 c -1.202,0 -2.416,-0.361 -3.468,-1.114"
         id="path2150"
         inkscape:connector-curvature="0" /></clipPath><radialGradient
       fx="0"
       fy="0"
       cx="0"
       cy="0"
       r="1"
       gradientUnits="userSpaceOnUse"
       gradientTransform="matrix(-4.8591461,-3.4733887,3.4733887,-4.8591461,212.15039,274.875)"
       spreadMethod="pad"
       id="radialGradient2156"><stop
         style="stop-opacity:1;stop-color:#96d9f7"
         offset="0"
         id="stop2158" /><stop
         style="stop-opacity:1;stop-color:#005793"
         offset="1"
         id="stop2160" /></radialGradient><clipPath
       clipPathUnits="userSpaceOnUse"
       id="clipPath2168"><path
         d="M 0,500 400,500 400,0 0,0 0,500 z"
         id="path2170"
         inkscape:connector-curvature="0" /></clipPath><clipPath
       clipPathUnits="userSpaceOnUse"
       id="clipPath2204"><path
         d="m 185.016,279.735 c -2.684,-1.919 -3.304,-5.65 -1.385,-8.334 l 0,0 c 1.917,-2.684 5.648,-3.305 8.333,-1.386 l 0,0 c 2.683,1.919 3.304,5.65 1.384,8.333 l 0,0 c -1.166,1.632 -3.002,2.501 -4.865,2.501 l 0,0 c -1.202,0 -2.415,-0.361 -3.467,-1.114"
         id="path2206"
         inkscape:connector-curvature="0" /></clipPath><radialGradient
       fx="0"
       fy="0"
       cx="0"
       cy="0"
       r="1"
       gradientUnits="userSpaceOnUse"
       gradientTransform="matrix(-4.8593445,-3.473526,3.473526,-4.8593445,188.48877,274.87451)"
       spreadMethod="pad"
       id="radialGradient2212"><stop
         style="stop-opacity:1;stop-color:#96d9f7"
         offset="0"
         id="stop2214" /><stop
         style="stop-opacity:1;stop-color:#005793"
         offset="1"
         id="stop2216" /></radialGradient><clipPath
       clipPathUnits="userSpaceOnUse"
       id="clipPath2224"><path
         d="M 0,500 400,500 400,0 0,0 0,500 z"
         id="path2226"
         inkscape:connector-curvature="0" /></clipPath><clipPath
       clipPathUnits="userSpaceOnUse"
       id="clipPath2546"><path
         d="m 29.7393,243.387 82.4837,0 0,-56.64 -82.4837,0 0,56.64 z"
         id="path2548"
         inkscape:connector-curvature="0" /></clipPath><clipPath
       clipPathUnits="userSpaceOnUse"
       id="clipPath2550"><path
         d="m 29.7393,243.387 82.4837,0 0,-56.64 -82.4837,0 0,56.64 z"
         id="path2552"
         inkscape:connector-curvature="0" /></clipPath><clipPath
       clipPathUnits="userSpaceOnUse"
       id="clipPath2554"><path
         d="m 30.4629,242.735 79.1111,0 0,-54.167 -79.1111,0 0,54.167 z"
         id="path2556"
         inkscape:connector-curvature="0" /></clipPath><clipPath
       clipPathUnits="userSpaceOnUse"
       id="clipPath2558"><path
         d="m 31.186,242.084 75.739,0 0,-51.693 -75.739,0 0,51.693 z"
         id="path2560"
         inkscape:connector-curvature="0" /></clipPath><clipPath
       clipPathUnits="userSpaceOnUse"
       id="clipPath2562"><path
         d="m 31.9097,241.434 72.3663,0 0,-49.221 -72.3663,0 0,49.221 z"
         id="path2564"
         inkscape:connector-curvature="0" /></clipPath><clipPath
       clipPathUnits="userSpaceOnUse"
       id="clipPath2566"><path
         d="m 32.6333,240.781 68.9937,0 0,-46.747 -68.9937,0 0,46.747 z"
         id="path2568"
         inkscape:connector-curvature="0" /></clipPath><clipPath
       clipPathUnits="userSpaceOnUse"
       id="clipPath2570"><path
         d="m 33.3569,240.13 65.6221,0 0,-44.275 -65.6221,0 0,44.275 z"
         id="path2572"
         inkscape:connector-curvature="0" /></clipPath><clipPath
       clipPathUnits="userSpaceOnUse"
       id="clipPath2574"><path
         d="m 34.0801,239.479 62.25,0 0,-41.801 -62.25,0 0,41.801 z"
         id="path2576"
         inkscape:connector-curvature="0" /></clipPath><clipPath
       clipPathUnits="userSpaceOnUse"
       id="clipPath2578"><path
         d="m 34.8037,238.827 58.8779,0 0,-39.328 -58.8779,0 0,39.328 z"
         id="path2580"
         inkscape:connector-curvature="0" /></clipPath><clipPath
       clipPathUnits="userSpaceOnUse"
       id="clipPath2582"><path
         d="m 35.5273,238.176 55.5054,0 0,-36.856 -55.5054,0 0,36.856 z"
         id="path2584"
         inkscape:connector-curvature="0" /></clipPath><clipPath
       clipPathUnits="userSpaceOnUse"
       id="clipPath2586"><path
         d="m 36.251,237.524 52.1333,0 0,-34.381 -52.1333,0 0,34.381 z"
         id="path2588"
         inkscape:connector-curvature="0" /></clipPath><clipPath
       clipPathUnits="userSpaceOnUse"
       id="clipPath2590"><path
         d="m 36.9741,236.873 48.7613,0 0,-31.908 -48.7613,0 0,31.908 z"
         id="path2592"
         inkscape:connector-curvature="0" /></clipPath><clipPath
       clipPathUnits="userSpaceOnUse"
       id="clipPath2594"><path
         d="m 37.6978,236.222 45.3891,0 0,-29.436 -45.3891,0 0,29.436 z"
         id="path2596"
         inkscape:connector-curvature="0" /></clipPath><clipPath
       clipPathUnits="userSpaceOnUse"
       id="clipPath2750"><path
         d="m 88.519,251.615 c -4.895,-0.329 -9.032,-3.137 -11.272,-7.115 l 0,0 c -1.895,0.762 -3.985,1.119 -6.158,0.973 l 0,0 c -2.838,-0.19 -5.421,-1.215 -7.529,-2.819 l 0,0 c -2.628,4.327 -7.514,7.076 -12.914,6.713 l 0,0 c -7.719,-0.517 -13.558,-7.193 -13.04,-14.914 l 0,0 c 0.141,-2.099 0.741,-4.058 1.692,-5.791 l 0,0 c -3.098,-2.777 -4.935,-6.898 -4.635,-11.37 l 0,0 c 0.517,-7.719 7.194,-13.555 14.913,-13.038 l 0,0 c 0.369,0.023 0.73,0.067 1.089,0.119 l 0,0 c 2.032,-5.793 7.729,-9.766 14.155,-9.334 l 0,0 c 6.305,0.422 11.353,4.955 12.709,10.811 l 0,0 c 3.143,0.335 5.949,1.694 8.102,3.721 l 0,0 c 2.698,-4.001 7.393,-6.499 12.555,-6.153 l 0,0 c 7.718,0.518 13.558,7.194 13.041,14.913 l 0,0 c -0.104,1.538 -0.456,3 -1.008,4.352 l 0,0 c 4.412,2.607 7.23,7.543 6.863,13.005 l 0,0 c -0.518,7.718 -7.193,13.557 -14.914,13.04 l 0,0 c -1.175,-0.08 -2.305,-0.302 -3.377,-0.647 l 0,0 c -2.49,2.225 -5.769,3.566 -9.321,3.566 l 0,0 c -0.315,0 -0.633,-0.011 -0.951,-0.032"
         id="path2752"
         inkscape:connector-curvature="0" /></clipPath><radialGradient
       fx="0"
       fy="0"
       cx="0"
       cy="0"
       r="1"
       gradientUnits="userSpaceOnUse"
       gradientTransform="matrix(-71.918381,1.53e-5,1.53e-5,71.918381,107.85352,215.38281)"
       spreadMethod="pad"
       id="radialGradient2758"><stop
         style="stop-opacity:1;stop-color:#f2f2f2"
         offset="0"
         id="stop2760" /><stop
         style="stop-opacity:1;stop-color:#bab89c"
         offset="1"
         id="stop2762" /></radialGradient><clipPath
       clipPathUnits="userSpaceOnUse"
       id="clipPath2770"><path
         d="M 0,500 400,500 400,0 0,0 0,500 z"
         id="path2772"
         inkscape:connector-curvature="0" /></clipPath></defs><sodipodi:namedview
     pagecolor="#ffffff"
     bordercolor="#666666"
     borderopacity="1"
     objecttolerance="10"
     gridtolerance="10"
     guidetolerance="10"
     inkscape:pageopacity="0"
     inkscape:pageshadow="2"
     inkscape:window-width="1366"
     inkscape:window-height="722"
     id="namedview4"
     showgrid="false"
     inkscape:zoom="1.4142136"
     inkscape:cx="165"
     inkscape:cy="88.592923"
     inkscape:window-x="0"
     inkscape:window-y="27"
     inkscape:window-maximized="1"
     inkscape:current-layer="g10" /><g
     id="g10"
     inkscape:groupmode="layer"
     inkscape:label="004"
     transform="matrix(1.25,0,0,-1.25,0,100)"><g
       id="g3405"
       transform="translate(1.6,0)"
       style="fill:#800080"><path
         inkscape:connector-curvature="0"
         id="path1500"
         d="m 35.470204,71.498778 c -0.0014,-0.0014 0.201875,-0.153646 0.577616,-0.447188 0.374953,-0.294331 0.922489,-0.746967 1.565158,-1.397461 0.641885,-0.64893 1.361083,-1.493279 2.105509,-2.589963 0.745216,-1.093545 1.492907,-2.427633 2.161407,-3.950158 0.668494,-1.521721 1.264438,-3.220117 1.770118,-5.049496 0.508028,-1.82858 0.924017,-3.77928 1.285665,-5.776174 0.02668,-0.146977 0.04852,-0.299668 0.07453,-0.447188 -1.920493,0.392094 -3.876297,0.614883 -5.869339,0.614883 -2.354741,0 -4.661583,-0.300391 -6.912777,-0.838477 0.285767,0.611962 0.574897,1.229871 0.838477,1.826017 1.424673,3.199248 2.479484,6.172837 2.981251,8.831958 0.253623,1.326829 0.368744,2.567573 0.372657,3.689299 0.0052,1.119385 -0.09036,2.119714 -0.242227,2.943985 -0.311548,1.654811 -0.722917,2.589963 -0.708047,2.589963 z"
         style="fill:#800080;fill-opacity:1;stroke:none" /><path
         inkscape:connector-curvature="0"
         id="path1524"
         d="m 2.7397274,56.912885 c 0.00134,-6.1e-4 -0.082532,-0.190597 -0.2178593,-0.586544 C 2.3879952,55.929106 2.2126754,55.336442 2.0526326,54.54995 1.8931998,53.764872 1.7543866,52.781113 1.7342229,51.617228 1.7112303,50.45526 1.7949553,49.119246 2.0358742,47.679002 2.2747754,46.23796 2.6687321,44.692875 3.175446,43.103956 3.680826,41.514287 4.3085223,39.886737 5.0021126,38.244018 5.404482,37.289285 5.8212502,36.318135 6.2589932,35.361571 8.692971,38.060875 11.646634,40.9868 14.990124,43.656984 14.3756,44.03563 13.760325,44.403155 13.180216,44.779797 10.596351,46.448962 8.3910918,48.142466 6.7449871,49.857595 5.92107,50.712006 5.2248117,51.565713 4.6837028,52.388115 4.1419437,53.2098 3.7449303,54.004591 3.460339,54.684017 2.8971961,56.045959 2.7514047,56.913529 2.7397274,56.912885 z"
         style="fill:#800080;stroke:none" /><path
         inkscape:connector-curvature="0"
         id="path1764"
         d="m 78.529404,54.625387 c -6.7e-5,-0.0013 -0.205981,0.0027 -0.594857,-0.02903 -0.388312,-0.03298 -0.967644,-0.09276 -1.697533,-0.24665 -0.728079,-0.155914 -1.611395,-0.412814 -2.611577,-0.827001 -0.999317,-0.4104 -2.095672,-0.986065 -3.235465,-1.726545 -1.139592,-0.737283 -2.314343,-1.634334 -3.482109,-2.655108 -1.169047,-1.020702 -2.339085,-2.151814 -3.482109,-3.351535 -0.365769,-0.383546 -0.726008,-0.780747 -1.088157,-1.175207 3.630199,-3.032863 6.669927,-6.344881 8.908394,-9.067995 0.253461,1.991322 0.501647,3.916145 0.797982,5.687442 0.466186,2.823383 1.092079,5.330314 1.944183,7.370469 0.421179,1.019086 0.891011,1.917752 1.392839,2.684127 0.499239,0.765893 1.035857,1.406192 1.50892,1.900652 0.955122,0.989678 1.648686,1.429425 1.639489,1.43637 z"
         style="fill:#800080;stroke:none" /><path
         id="path472"
         d="m 39.160717,49.160632 c -18.65339,0 -33.7681933,-23.79694 -33.7681933,-23.79694 0,0 15.1148033,-23.8136992 33.7681933,-23.8136992 18.65478,0 33.784952,23.8136992 33.784952,23.8136992 0,0 -15.130172,23.79694 -33.784952,23.79694 z m 0.335168,-7.591559 c 10.071895,0 18.233149,-8.161254 18.233149,-18.233149 0,-10.071889 -8.161254,-18.2331486 -18.233149,-18.2331486 -10.0719,0 -18.249907,8.1612596 -18.249907,18.2331486 0,10.071895 8.178013,18.233149 18.249907,18.233149 z"
         style="fill:#800080;fill-opacity:1;fill-rule:nonzero;stroke:none"
         inkscape:connector-curvature="0" /><path
         id="path484"
         d="m 39.278026,32.43574 c -5.119793,0 -9.2674,-4.147612 -9.2674,-9.2674 0,-5.119568 4.147607,-9.2674 9.2674,-9.2674 5.119573,0 9.2674,4.147832 9.2674,9.2674 0,5.119788 -4.147827,9.2674 -9.2674,9.2674 z"
         style="color:#000000;fill:#800080;fill-opacity:1;fill-rule:nonzero;stroke:none;marker:none;visibility:visible;display:inline;overflow:visible;enable-background:accumulate"
         inkscape:connector-curvature="0" /></g></g></svg>