<?xml version="1.0" encoding="iso-8859-1"?>
<!-- Generator: Adobe Illustrator 15.1.0, SVG Export Plug-In . SVG Version: 6.00 Build 0)  -->
<!DOCTYPE svg PUBLIC "-//W3C//DTD SVG 1.1//EN" "http://www.w3.org/Graphics/SVG/1.1/DTD/svg11.dtd">
<svg version="1.1" id="pumpkin" xmlns="http://www.w3.org/2000/svg" xmlns:xlink="http://www.w3.org/1999/xlink" x="0px" y="0px"
	 width="48.15px" height="46.55px" viewBox="0 0 48.15 46.55" style="enable-background:new 0 0 48.15 46.55;" xml:space="preserve"
	>
<symbol  id="pumpkin_2_" viewBox="4.65 -46.541 48.15 46.558">
	<g id="shadow_1_">
		
			<radialGradient id="SVGID_1_" cx="29.6997" cy="-41.2998" r="23.4128" gradientTransform="matrix(0.8456 0 0 -0.1583 4.0498 -49.104)" gradientUnits="userSpaceOnUse">
			<stop  offset="0.1647" style="stop-color:#000000;stop-opacity:0.8"/>
			<stop  offset="0.6353" style="stop-color:#000000;stop-opacity:0.1882"/>
			<stop  offset="1" style="stop-color:#000000;stop-opacity:0"/>
		</radialGradient>
		<path style="fill-rule:evenodd;clip-rule:evenodd;fill:url(#SVGID_1_);" d="M44.174-45.38c-4.144-0.774-9.146-1.161-15.009-1.161
			c-5.892,0-10.895,0.387-15.01,1.161c-4.144,0.773-6.215,1.712-6.215,2.814s2.071,2.041,6.215,2.814
			c4.115,0.773,9.118,1.161,15.01,1.161c5.863,0,10.866-0.387,15.009-1.161s6.215-1.712,6.215-2.814S48.317-44.607,44.174-45.38z"/>
	</g>
	<g id="pumpkin_1_">
		<g>
			
				<radialGradient id="SVGID_2_" cx="105.0034" cy="-16402.959" r="4.0628" gradientTransform="matrix(-0.0118 -0.9999 -2.4336 0.0288 -39888.6953 569.6982)" gradientUnits="userSpaceOnUse">
				<stop  offset="0" style="stop-color:#F5DC93"/>
				<stop  offset="0.2039" style="stop-color:#F4C125"/>
				<stop  offset="1" style="stop-color:#B47527"/>
			</radialGradient>
			<path style="fill-rule:evenodd;clip-rule:evenodd;fill:url(#SVGID_2_);" d="M34.7-12.15l-8-0.5l-3.2,0.9l-0.3,1.45
				c1.534,0.967,3.5,1.45,5.9,1.45c1.4,0,2.683-0.233,3.85-0.7c1.067-0.433,1.684-0.867,1.85-1.3
				C34.967-11.417,34.933-11.85,34.7-12.15z"/>
			
				<radialGradient id="SVGID_3_" cx="395.293" cy="-16742.5801" r="14.8227" gradientTransform="matrix(-0.0565 -0.9984 1.1055 -0.0514 18572.5664 -475.6929)" gradientUnits="userSpaceOnUse">
				<stop  offset="0" style="stop-color:#F5DC93"/>
				<stop  offset="0.2039" style="stop-color:#F4C125"/>
				<stop  offset="1" style="stop-color:#B47527"/>
			</radialGradient>
			<path style="fill-rule:evenodd;clip-rule:evenodd;fill:url(#SVGID_3_);" d="M52.45-26.85c-0.2-0.867-1.05-2.983-2.55-6.35
				c-0.733-1.667-2.017-3.283-3.85-4.85c-1.667-1.4-2.95-2.133-3.85-2.2c-1.066-0.1-4.183,0.967-9.35,3.2l-3.8,25.55
				c0.833,1,3.467,1.7,7.9,2.1c1.934,0.133,4.083-0.317,6.45-1.35c3.467-1.5,6.05-3.917,7.75-7.25
				C52.65-20.967,53.083-23.917,52.45-26.85z"/>
			
				<radialGradient id="SVGID_4_" cx="39.9497" cy="-12.6499" r="20.5518" gradientTransform="matrix(-0.0122 -0.9999 1.1069 -0.0135 54.4385 27.126)" gradientUnits="userSpaceOnUse">
				<stop  offset="0" style="stop-color:#F5DC93"/>
				<stop  offset="0.2039" style="stop-color:#F4C125"/>
				<stop  offset="1" style="stop-color:#B47527"/>
			</radialGradient>
			<path style="fill-rule:evenodd;clip-rule:evenodd;fill:url(#SVGID_4_);" d="M50-28.4c-0.5-2.733-1.4-5.034-2.7-6.9
				c-1.133-1.667-2.533-3.15-4.2-4.45c-1.667-1.333-3.367-2.283-5.1-2.85c-1.467-0.467-3-0.767-4.6-0.9h-2L29.65-12l2.55,0.4
				c2,0.233,3.833,0.283,5.5,0.15c2.367-0.167,4.6-0.9,6.7-2.2c2.533-1.534,4.25-3.583,5.15-6.15C50.45-22.367,50.6-25.233,50-28.4z
				"/>
			
				<radialGradient id="SVGID_5_" cx="-360.5957" cy="-15839.2588" r="14.8493" gradientTransform="matrix(0.0572 -0.9984 -1.1061 -0.0513 -17482.957 -1182.4854)" gradientUnits="userSpaceOnUse">
				<stop  offset="0" style="stop-color:#F5DC93"/>
				<stop  offset="0.2039" style="stop-color:#F4C125"/>
				<stop  offset="1" style="stop-color:#B47527"/>
			</radialGradient>
			<path style="fill-rule:evenodd;clip-rule:evenodd;fill:url(#SVGID_5_);" d="M5.05-26.85c-0.633,2.933-0.2,5.883,1.3,8.85
				c1.7,3.333,4.283,5.75,7.75,7.25c2.367,1.033,4.517,1.483,6.45,1.35c1.533-0.133,3.133-0.417,4.8-0.85
				c2.066-0.533,3.25-1.117,3.55-1.75l-4.3-25.05c-5.133-2.233-8.233-3.3-9.3-3.2c-0.9,0.066-2.183,0.8-3.85,2.2
				c-1.833,1.567-3.117,3.184-3.85,4.85C6.1-29.833,5.25-27.717,5.05-26.85z"/>
			<path style="fill-rule:evenodd;clip-rule:evenodd;fill:#A96F24;" d="M6.2-24.65c0.267,1.6,0.583,3.15,0.95,4.65
				c0.467,2,1.717,3.8,3.75,5.4c1.533,1.233,3.217,2.167,5.05,2.8c1.667,0.567,4.684,0.534,9.05-0.1l2.95-5.6L24.6-37.05l-3.15-1.3
				l-1.8,1.85v14.9l-11.7,1.8L7.5-21.05c-0.3-1-0.517-1.95-0.65-2.85c-0.1-1.034-0.083-2.3,0.05-3.8
				c0.133-1.333,0.317-2.383,0.55-3.15c0.3-0.933,0.25-1.5-0.15-1.7c-0.833,1.8-1.283,2.8-1.35,3C5.417-28.283,5.066-27.1,4.9-26
				h0.35C5.717-26,6.033-25.55,6.2-24.65z"/>
			<path style="fill-rule:evenodd;clip-rule:evenodd;fill:#A26921;" d="M6.9-27.7c-0.133,1.5-0.15,2.767-0.05,3.8
				C6.983-23,7.2-22.05,7.5-21.05l0.45,1.25l11.7-1.8v-14.9l-9.8,10l-2.5,0.75l0.2-2.35c0.2-1.8,0.533-3.233,1-4.3
				c0.733-1.767,1.25-3.1,1.55-4l-0.25-0.05C8.816-35.383,8.066-34.3,7.6-33.2l-0.3,0.65c0.4,0.2,0.45,0.767,0.15,1.7
				C7.217-30.083,7.033-29.033,6.9-27.7z"/>
			<path style="fill-rule:evenodd;clip-rule:evenodd;fill:#905D1C;" d="M7.55-28.1l-0.2,2.35l2.5-0.75l11.6-11.85
				c-3.267-1.367-5.316-2-6.15-1.9c-0.566,0.033-1.367,0.4-2.4,1.1c-1.1,0.767-2.117,1.667-3.05,2.7l0.25,0.05
				c-0.3,0.9-0.817,2.233-1.55,4C8.083-31.333,7.75-29.9,7.55-28.1z"/>
			
				<radialGradient id="SVGID_6_" cx="-86.0547" cy="-16218.4766" r="20.5518" gradientTransform="matrix(0.0122 -0.9999 -1.1069 -0.0135 -17934.3066 -317.4619)" gradientUnits="userSpaceOnUse">
				<stop  offset="0" style="stop-color:#F5DC93"/>
				<stop  offset="0.2039" style="stop-color:#F4C125"/>
				<stop  offset="1" style="stop-color:#B47527"/>
			</radialGradient>
			<path style="fill-rule:evenodd;clip-rule:evenodd;fill:url(#SVGID_6_);" d="M7.5-28.4c-0.6,3.167-0.45,6.033,0.45,8.6
				c0.9,2.567,2.617,4.617,5.15,6.15c2.1,1.3,4.333,2.033,6.7,2.2c2.667,0.2,5.35,0.017,8.05-0.55L26.1-43.5
				c-2.067-0.167-4.267,0.133-6.6,0.9c-1.733,0.567-3.434,1.517-5.1,2.85c-1.667,1.3-3.067,2.783-4.2,4.45
				C8.933-33.434,8.033-31.133,7.5-28.4z"/>
			<path style="fill-rule:evenodd;clip-rule:evenodd;fill:#A96F24;" d="M27.7-12h0.15l-1.1-20.1l-8.9,5.75
				c-0.133-2.633-0.15-4.45-0.05-5.45c0.067-0.8,0.283-2.05,0.65-3.75c0.367-1.6,0.55-2.566,0.55-2.9
				c0.033-0.633-0.317-1.15-1.05-1.55c-0.833-0.5-1.85-0.55-3.05-0.15c-1.6,1.233-2.85,2.433-3.75,3.6
				c1.333-0.5,2.45-0.583,3.35-0.25c0.833,0.3,1.367,0.917,1.6,1.85C16.033-34.184,16-33.3,16-32.3c-0.067,2,0.333,4.867,1.2,8.6
				c0.9,3.8,2.867,6.867,5.9,9.2C24.633-13.333,26.167-12.5,27.7-12z"/>
			<path style="fill-rule:evenodd;clip-rule:evenodd;fill:#A26921;" d="M26.75-32.1l-0.2-2.95l-7.4,4.6L18.6-31.4l0.25-2
				c0.233-1.534,0.566-2.75,1-3.65c0.966-1.966,1.45-3.316,1.45-4.05c0-0.333-0.233-0.633-0.7-0.9c-0.6-0.267-1.35-0.317-2.25-0.15
				c-1.167,0.5-2.317,1.167-3.45,2c1.2-0.4,2.217-0.35,3.05,0.15c0.733,0.4,1.083,0.917,1.05,1.55c0,0.333-0.184,1.3-0.55,2.9
				c-0.367,1.7-0.583,2.95-0.65,3.75c-0.1,1-0.083,2.817,0.05,5.45L26.75-32.1z"/>
			<path style="fill-rule:evenodd;clip-rule:evenodd;fill:#905D1C;" d="M18.6-31.4l0.55,0.95l7.4-4.6l-0.3-6.1
				c-0.467,0.167-0.95,0.283-1.45,0.35l-0.6,0.05l0.35-0.4c0.1-0.367-0.133-0.8-0.7-1.3c-0.467-0.433-1.317-0.65-2.55-0.65
				l-2.95,0.95c0.9-0.167,1.65-0.117,2.25,0.15c0.466,0.267,0.7,0.566,0.7,0.9c0,0.733-0.483,2.083-1.45,4.05
				c-0.434,0.9-0.767,2.117-1,3.65L18.6-31.4z"/>
			<path style="fill-rule:evenodd;clip-rule:evenodd;fill:#6E4613;" d="M23.85-42.45c0.566,0.5,0.8,0.934,0.7,1.3l-0.35,0.4
				l0.6-0.05c0.5-0.066,0.983-0.183,1.45-0.35L26.1-43.5c-1.4-0.1-3,0.033-4.8,0.4C22.533-43.1,23.383-42.883,23.85-42.45z"/>
			
				<radialGradient id="SVGID_7_" cx="-44.8311" cy="-16245.5605" r="19.4632" gradientTransform="matrix(0.0078 -1 -0.9801 -0.0076 -15894.3379 -186.9316)" gradientUnits="userSpaceOnUse">
				<stop  offset="0" style="stop-color:#F5DC93"/>
				<stop  offset="0.2039" style="stop-color:#F4C125"/>
				<stop  offset="1" style="stop-color:#B47527"/>
			</radialGradient>
			<path style="fill-rule:evenodd;clip-rule:evenodd;fill:url(#SVGID_7_);" d="M28.45-11.8c2.7-0.033,4.95-0.917,6.75-2.65
				c1.633-1.6,2.617-3.633,2.95-6.1c0.267-2.167-0.017-5.367-0.85-9.6c-0.767-3.934-1.566-6.7-2.4-8.3
				c-0.933-1.867-1.817-3.267-2.65-4.2c-1.2-1.333-2.467-1.95-3.8-1.85c-1.333,0.1-2.716,0.8-4.15,2.1c-1.233,1.1-2.367,2.5-3.4,4.2
				c-1.167,1.934-2.05,3.95-2.65,6.05c-0.567,2.033-0.817,3.95-0.75,5.75c0.133,2.5,0.783,4.883,1.95,7.15
				c0.867,1.733,1.85,3.117,2.95,4.15c0.8,0.767,1.85,1.5,3.15,2.2C26.883-12.167,27.85-11.8,28.45-11.8z"/>
			<path style="fill-rule:evenodd;clip-rule:evenodd;fill:#A96F24;" d="M20.9-38.2c-0.233,0.4-0.667,1.217-1.3,2.45
				c1.1-1.367,3.017-2.317,5.75-2.85c2.367-0.433,4.267-0.467,5.7-0.1c2.2,0.633,4.15,2.867,5.85,6.7l-0.75-3.05
				c-1.033-2.066-1.583-3.167-1.65-3.3c-0.967-1.667-1.883-2.717-2.75-3.15c-2.633-1.333-5.267-1.217-7.9,0.35L22.3-40.2L20.9-38.2z
				"/>
			<path style="fill-rule:evenodd;clip-rule:evenodd;fill:#A26921;" d="M27.1-43.35c-1.034,0.133-2.083,0.567-3.15,1.3
				c-0.5,0.467-1.05,1.083-1.65,1.85l1.55-0.95c2.633-1.567,5.267-1.684,7.9-0.35c0.867,0.433,1.783,1.483,2.75,3.15
				c0.066,0.133,0.617,1.233,1.65,3.3c-0.533-1.7-0.95-2.833-1.25-3.4l-0.95-1.8c-1.1-1.533-2.3-2.5-3.6-2.9
				C29.55-43.417,28.467-43.483,27.1-43.35z"/>
			<path style="fill-rule:evenodd;clip-rule:evenodd;fill:#6E4613;" d="M23.95-42.05c1.067-0.733,2.117-1.167,3.15-1.3
				c1.367-0.133,2.45-0.067,3.25,0.2c1.3,0.4,2.5,1.367,3.6,2.9c-1.767-3-3.6-4.417-5.5-4.25
				C26.983-44.367,25.483-43.55,23.95-42.05z"/>
			
				<radialGradient id="SVGID_8_" cx="9.8389" cy="-16308.3838" r="35.075" gradientTransform="matrix(1.425517e-005 -1 -0.8357 1.425517e-005 -13601.5664 0.3716)" gradientUnits="userSpaceOnUse">
				<stop  offset="0.4667" style="stop-color:#F4C125;stop-opacity:0"/>
				<stop  offset="1" style="stop-color:#603C10"/>
			</radialGradient>
			<path style="fill-rule:evenodd;clip-rule:evenodd;fill:url(#SVGID_8_);" d="M51.15-18c1.5-2.967,1.934-5.917,1.3-8.85
				c-0.2-0.867-1.05-2.983-2.55-6.35c-0.733-1.6-1.933-3.15-3.6-4.65c-1.533-1.333-2.8-2.117-3.8-2.35c-1.533-1.1-3.033-1.9-4.5-2.4
				c-1.467-0.467-3-0.767-4.6-0.9h-2c-0.933-0.767-1.917-1.1-2.95-1c-0.767,0.033-1.667,0.367-2.7,1c-2.067-0.1-4.15,0.2-6.25,0.9
				c-1.467,0.5-2.967,1.3-4.5,2.4c-1,0.233-2.267,1.017-3.8,2.35c-1.667,1.5-2.867,3.05-3.6,4.65c-1.5,3.367-2.35,5.483-2.55,6.35
				c-0.633,2.934-0.2,5.883,1.3,8.85c1.7,3.333,4.283,5.75,7.75,7.25c2.367,1.033,4.517,1.483,6.45,1.35
				c1.3-0.167,2.417-0.35,3.35-0.55c1.533,0.733,3.267,1.1,5.2,1.1c1.8,0,3.3-0.333,4.5-1l3.35,0.45
				c1.933,0.133,4.083-0.317,6.45-1.35C46.867-12.25,49.45-14.667,51.15-18z"/>
			
				<radialGradient id="SVGID_9_" cx="-66.6709" cy="-16237.1572" r="6.8753" gradientTransform="matrix(0.0087 -1 -0.8854 -0.0077 -14348.1406 -194.5078)" gradientUnits="userSpaceOnUse">
				<stop  offset="0" style="stop-color:#9FAB41"/>
				<stop  offset="1" style="stop-color:#796D12"/>
			</radialGradient>
			<path style="fill-rule:evenodd;clip-rule:evenodd;fill:url(#SVGID_9_);" d="M31.95-2.7c-0.267-0.9-0.5-1.517-0.7-1.85
				c-0.267-0.5-0.517-1.233-0.75-2.2S30.15-8.5,30.15-9.1c0-0.8,0.133-1.75,0.4-2.85c-0.2,0.2-0.566,0.267-1.1,0.2h-0.1
				c-1.034,0.1-1.983-0.1-2.85-0.6l-0.2,0.1c-0.933,2.433-1.467,4.483-1.6,6.15c-0.066,1.067-0.1,2.2-0.1,3.4v1.45l0.65-0.45
				l0.2-0.25c0.567-0.566,1.284-0.933,2.15-1.1c0.9-0.4,1.75-0.466,2.55-0.2c0.6,0.033,1.183,0.217,1.75,0.55H31.95z"/>
			
				<radialGradient id="SVGID_10_" cx="-71.9688" cy="-16234.4297" r="3.6627" gradientTransform="matrix(0.009 -1 -0.8839 -0.0079 -14321.123 -201.6338)" gradientUnits="userSpaceOnUse">
				<stop  offset="0" style="stop-color:#9FAB41"/>
				<stop  offset="1" style="stop-color:#796D12"/>
			</radialGradient>
			<path style="fill-rule:evenodd;clip-rule:evenodd;fill:url(#SVGID_10_);" d="M29.75-3.85c-0.5,0.033-1.133-0.033-1.9-0.2
				c-0.534-0.1-1.217,0-2.05,0.3c-0.167,0.066-0.417,0.5-0.75,1.3l-0.45,1.2l1,0.85c0.9,0.5,1.917,0.55,3.05,0.15
				c1.133-0.367,2.017-0.883,2.65-1.55c0.333-0.333,0.55-0.633,0.65-0.9c-0.033-0.233-0.15-0.45-0.35-0.65
				C31.2-3.783,30.583-3.95,29.75-3.85z"/>
			<path style="fill-rule:evenodd;clip-rule:evenodd;fill:#4E4906;" d="M27.9-2.3c-0.333-0.4-0.567-0.767-0.7-1.1
				c-0.466-0.633-0.7-1.233-0.7-1.8c0-0.433,0.033-1.083,0.1-1.95c0-0.833-0.034-1.483-0.1-1.95c-0.067,0.467-0.117,0.8-0.15,1
				L25.9-5c-0.033,0.333-0.05,0.583-0.05,0.75c-0.034,0.267,0,0.483,0.1,0.65l0.25,0.35l1.55,0.95H27.9z"/>
			<path style="fill-rule:evenodd;clip-rule:evenodd;fill:#4E4906;" d="M28.75-3.85c-0.133-0.067-0.233-0.217-0.3-0.45
				c-0.066-0.133-0.133-0.316-0.2-0.55L27.8-6c-0.167,0.167-0.183,0.683-0.05,1.55c0,0.4,0.1,0.7,0.3,0.9L28.75-3.85z"/>
			<path style="fill-rule:evenodd;clip-rule:evenodd;fill:#5C5708;" d="M29.95-3.85l1.8,0.75L31.3-5.35L30.95-6.1
				C30.717-6.7,30.566-7.333,30.5-8c-0.1-0.767-0.15-1.517-0.15-2.25c0-0.167,0.017-0.483,0.05-0.95c0-0.4-0.033-0.7-0.1-0.9
				c-0.066,0-0.383,0.1-0.95,0.3c-0.434-0.033-0.7-0.017-0.8,0.05c-0.167,0.066-0.25,0.3-0.25,0.7c0.033,0.434,0.05,0.717,0.05,0.85
				c-0.034,0.567-0.067,1.017-0.1,1.35c-0.033,0.633,0.017,1.083,0.15,1.35c0.067-0.3,0.117-0.717,0.15-1.25
				c0.067-0.5,0.167-0.917,0.3-1.25v3.175c0.019-1.061,0.168-1.918,0.45-2.575c0.1,0.333,0.133,0.833,0.1,1.5
				c-0.033,0.667-0.017,1.167,0.05,1.5C29.583-5.233,29.75-4.383,29.95-3.85z"/>
		</g>
		<g>
			
				<radialGradient id="SVGID_11_" cx="1948.7461" cy="-15015.2207" r="5.875" gradientTransform="matrix(-0.4728 -0.7817 -0.6848 0.3774 -9338.0801 7182.4688)" gradientUnits="userSpaceOnUse">
				<stop  offset="0" style="stop-color:#785120"/>
				<stop  offset="1" style="stop-color:#2A1804"/>
			</radialGradient>
			<path style="fill-rule:evenodd;clip-rule:evenodd;fill:url(#SVGID_11_);" d="M26.363-9.762c0.281-0.067,0.584-0.139,0.908-0.214
				L26.13-9.921C26.214-9.862,26.291-9.81,26.363-9.762z M18.538-11.053c-0.199,0.213-0.34,0.551-0.424,1.015L18.07-9.389
				c0.681,0.042,1.404,0.095,2.171,0.159c1.545,0.086,2.569,0.095,3.073,0.026c0.43-0.047,1.018-0.144,1.762-0.293
				c-0.717-0.338-1.434-0.725-2.15-1.161l-2.493-1.232c-0.242,0.069-0.457,0.135-0.644,0.199
				C19.181-11.494,18.764-11.281,18.538-11.053z"/>
			
				<linearGradient id="SVGID_12_" gradientUnits="userSpaceOnUse" x1="12.3354" y1="-13.1367" x2="10.435" y2="2.9382" gradientTransform="matrix(0.9458 0 0 0.84 3 -1.8999)">
				<stop  offset="0" style="stop-color:#866327"/>
				<stop  offset="1" style="stop-color:#DEC162"/>
			</linearGradient>
			<path style="fill-rule:evenodd;clip-rule:evenodd;fill:url(#SVGID_12_);" d="M15.863-0.031l0.307-0.021l0.757,0.042
				c1.965-0.803,3.455-2.154,4.469-4.053c0.674-1.273,1.227-3.016,1.655-5.229c0.032-0.217,0.063-0.462,0.094-0.735
				c0-0.168,0-0.322,0-0.462c0.001-0.133-0.006-0.259-0.023-0.378l-2.435-1.113c-0.757-0.224-1.277-0.378-1.561-0.461
				c-0.059-0.021-0.114-0.042-0.165-0.063c-0.178,0.143-0.366,0.387-0.568,0.735c-0.459,0.593-0.672,0.992-0.638,1.197
				c-0.099,0.296-0.233,0.632-0.402,1.008c-0.247,0.518-0.389,0.819-0.425,0.903c-0.953,2.071-1.993,3.282-3.121,3.633
				c-0.912-0.339-1.542-0.885-1.892-1.638c-0.222-0.334-0.379-0.664-0.473-0.987c-0.036-0.075-0.075-0.159-0.118-0.252
				c-0.157-0.308-0.236-0.924-0.236-1.848l0.047-0.735c-1.091-0.504-2.526-1.421-4.303-2.751c-0.19-0.053-0.38-0.075-0.567-0.063
				c-0.504,0.622-0.756,1.749-0.757,3.381c-0.033,1.393,0.479,2.934,1.537,4.62C7.042-5.133,7.357-4.398,7.989-3.097
				c0.239,0.775,0.593,1.441,1.064,1.995L8.958-1.06c-0.042,0.197,1.005,0.449,3.145,0.756L15.863-0.031z"/>
			
				<radialGradient id="SVGID_13_" cx="1948.7461" cy="-15015.2207" r="5.875" gradientTransform="matrix(0.4728 -0.7817 0.6848 0.3774 9397.8809 7182.0693)" gradientUnits="userSpaceOnUse">
				<stop  offset="0" style="stop-color:#785120"/>
				<stop  offset="1" style="stop-color:#2A1804"/>
			</radialGradient>
			<path style="fill-rule:evenodd;clip-rule:evenodd;fill:url(#SVGID_13_);" d="M32.529-10.375l1.478,0.084
				c1.076-0.033,1.855-0.298,2.338-0.796c1.057-1.085,1.862-1.544,2.417-1.378c0.5,0.136,0.916,0.261,1.248,0.375
				c0.609,0.197,1.026,0.41,1.252,0.638c0.199,0.213,0.34,0.551,0.424,1.015l0.044,0.649c-0.681,0.042-1.404,0.095-2.171,0.159
				c-1.545,0.086-2.569,0.095-3.073,0.026C35.699-9.688,34.381-9.946,32.529-10.375z"/>
			
				<linearGradient id="SVGID_14_" gradientUnits="userSpaceOnUse" x1="17132.9805" y1="-1163.9893" x2="17146.5996" y2="-1163.9893" gradientTransform="matrix(-0.1322 0.9912 -0.9949 -0.1044 1120.9355 -17117.1387)">
				<stop  offset="0" style="stop-color:#866327"/>
				<stop  offset="1" style="stop-color:#DEC162"/>
			</linearGradient>
			<path style="fill-rule:evenodd;clip-rule:evenodd;fill:url(#SVGID_14_);" d="M23.15-10.5c0-0.133,0-0.267,0-0.4L20.7-12
				c-0.767-0.2-1.283-0.35-1.55-0.45c-0.067-0.033-0.117-0.066-0.15-0.1c-0.2,0.2-0.4,0.466-0.6,0.8
				c-0.467,0.567-0.684,0.95-0.65,1.15c-0.1,0.3-0.216,0.633-0.35,1c-0.267,0.533-0.417,0.85-0.45,0.95
				c-0.967,2.066-2,3.267-3.1,3.6c-0.933-0.333-1.566-0.883-1.9-1.65c-0.267-0.3-0.433-0.617-0.5-0.95
				c-0.067-0.1-0.117-0.184-0.15-0.25c-0.133-0.3-0.2-0.917-0.2-1.85l0.05-0.725c-1.098-0.492-2.548-1.417-4.35-2.775
				c-0.178-0.049-0.353-0.066-0.525-0.05C5.758-12.687,5.5-11.554,5.5-9.9C5.467-8.5,5.983-6.967,7.05-5.3
				C7.017-5.133,7.333-4.4,8-3.1c0.233,0.767,0.583,1.434,1.05,2l-0.1,0.05c-0.033,0.2,1.033,0.45,3.2,0.75l4.8,0.3
				c1.967-0.833,3.45-2.2,4.45-4.1c0.667-1.233,1.216-2.967,1.65-5.2c0.033-0.233,0.066-0.483,0.1-0.75
				C23.15-10.217,23.15-10.367,23.15-10.5z"/>
			
				<radialGradient id="SVGID_15_" cx="1155.645" cy="-17567.2305" r="12.7286" gradientTransform="matrix(-0.1669 -0.986 -0.8033 0.108 -13901.0449 3036.4619)" gradientUnits="userSpaceOnUse">
				<stop  offset="0" style="stop-color:#F5DC93"/>
				<stop  offset="0.2039" style="stop-color:#F4C125"/>
				<stop  offset="1" style="stop-color:#B47527"/>
			</radialGradient>
			<path style="fill-rule:evenodd;clip-rule:evenodd;fill:url(#SVGID_15_);" d="M20.3-9.45c0.066-0.433,0.117-0.95,0.15-1.55
				l-0.1-0.8c-0.2-0.167-0.367-0.3-0.5-0.4c-0.1,0-0.167-0.017-0.2-0.05c-0.1-0.033-0.167-0.067-0.2-0.1c-0.133,0-0.233,0-0.3,0
				c-0.7,0.3-1.267,0.667-1.7,1.1l-0.6,0.75c-0.867,1.233-1.383,2.2-1.55,2.9c-0.233,0.8-0.817,1.55-1.75,2.25
				c-1.167,0.833-2.267,1.05-3.3,0.65c-1.367-0.4-2.3-1.333-2.8-2.8c-0.7-1.467-0.75-2.7-0.15-3.7
				c0.333-0.566,0.717-0.917,1.15-1.05c-0.367-0.233-0.733-0.5-1.1-0.8c-0.733,0.133-1.2,0.316-1.4,0.55
				C5.417-11.9,5.1-11.317,5-10.75c-0.233,0.533-0.316,1.067-0.25,1.6c-0.066,0.066-0.066,0.133,0,0.2C4.65-7.817,4.9-6.567,5.5-5.2
				c0.767,2.9,2.284,4.417,4.55,4.55c0.3,0.1,0.617,0.1,0.95,0c0.534,0.033,1.117-0.033,1.75-0.2c1.633-0.433,3.317-1.417,5.05-2.95
				c0.633-0.434,1.15-1.15,1.55-2.15c0.2-0.6,0.434-1.316,0.7-2.15C20.117-8.467,20.2-8.917,20.3-9.45z"/>
			
				<linearGradient id="SVGID_16_" gradientUnits="userSpaceOnUse" x1="12.3354" y1="-13.1367" x2="10.435" y2="2.9382" gradientTransform="matrix(-0.9458 0 0 0.84 54.4497 -1.8999)">
				<stop  offset="0" style="stop-color:#866327"/>
				<stop  offset="1" style="stop-color:#DEC162"/>
			</linearGradient>
			<path style="fill-rule:evenodd;clip-rule:evenodd;fill:url(#SVGID_16_);" d="M41.587-0.031L41.28-0.052L40.523-0.01
				c-1.965-0.803-3.455-2.154-4.469-4.053c-0.674-1.273-1.227-3.016-1.655-5.229c-0.032-0.217-0.063-0.462-0.094-0.735
				c0-0.168,0-0.322,0-0.462c-0.001-0.133,0.006-0.259,0.023-0.378l2.435-1.113c0.757-0.224,1.277-0.378,1.561-0.461
				c0.059-0.021,0.114-0.042,0.165-0.063c0.178,0.143,0.366,0.387,0.568,0.735c0.459,0.593,0.672,0.992,0.638,1.197
				c0.099,0.296,0.233,0.632,0.402,1.008c0.247,0.518,0.389,0.819,0.425,0.903c0.953,2.071,1.993,3.282,3.121,3.633
				c0.912-0.339,1.542-0.885,1.892-1.638c0.222-0.334,0.379-0.664,0.473-0.987c0.036-0.075,0.075-0.159,0.118-0.252
				c0.157-0.308,0.236-0.924,0.236-1.848l-0.047-0.735c1.091-0.504,2.526-1.421,4.303-2.751c0.19-0.053,0.38-0.075,0.567-0.063
				c0.504,0.622,0.756,1.749,0.757,3.381c0.033,1.393-0.479,2.934-1.537,4.62c0.001,0.169-0.313,0.904-0.946,2.205
				c-0.239,0.775-0.593,1.441-1.064,1.995l0.095,0.042c0.042,0.197-1.005,0.449-3.145,0.756L41.587-0.031z"/>
			
				<linearGradient id="SVGID_17_" gradientUnits="userSpaceOnUse" x1="17132.9727" y1="-1164.0386" x2="17146.5918" y2="-1164.0386" gradientTransform="matrix(0.1322 0.9912 0.9949 -0.1044 -1063.4355 -17117.1387)">
				<stop  offset="0" style="stop-color:#866327"/>
				<stop  offset="1" style="stop-color:#DEC162"/>
			</linearGradient>
			<path style="fill-rule:evenodd;clip-rule:evenodd;fill:url(#SVGID_17_);" d="M34.3-10.5c0-0.133,0-0.267,0-0.4l2.45-1.1
				c0.767-0.2,1.283-0.35,1.55-0.45c0.067-0.033,0.117-0.066,0.15-0.1c0.2,0.2,0.4,0.466,0.6,0.8c0.467,0.567,0.684,0.95,0.65,1.15
				c0.1,0.3,0.216,0.633,0.35,1c0.267,0.533,0.417,0.85,0.45,0.95c0.967,2.066,2,3.267,3.1,3.6c0.933-0.333,1.566-0.883,1.9-1.65
				C45.767-7,45.933-7.317,46-7.65c0.067-0.1,0.117-0.184,0.15-0.25c0.133-0.3,0.2-0.917,0.2-1.85l-0.05-0.725
				c1.098-0.492,2.548-1.417,4.35-2.775c0.178-0.049,0.353-0.066,0.525-0.05c0.517,0.613,0.775,1.746,0.775,3.4
				c0.033,1.4-0.483,2.933-1.55,4.6c0.033,0.167-0.283,0.9-0.95,2.2c-0.233,0.767-0.583,1.434-1.05,2l0.1,0.05
				c0.033,0.2-1.033,0.45-3.2,0.75L40.5,0c-1.967-0.833-3.45-2.2-4.45-4.1c-0.667-1.233-1.216-2.967-1.65-5.2
				c-0.033-0.233-0.066-0.483-0.1-0.75C34.3-10.217,34.3-10.367,34.3-10.5z"/>
			
				<radialGradient id="SVGID_18_" cx="1155.6387" cy="-17567.1836" r="12.7286" gradientTransform="matrix(0.1669 -0.986 0.8033 0.108 13958.4609 3036.4512)" gradientUnits="userSpaceOnUse">
				<stop  offset="0" style="stop-color:#F5DC93"/>
				<stop  offset="0.2039" style="stop-color:#F4C125"/>
				<stop  offset="1" style="stop-color:#B47527"/>
			</radialGradient>
			<path style="fill-rule:evenodd;clip-rule:evenodd;fill:url(#SVGID_18_);" d="M37.15-9.45C37.083-9.883,37.033-10.4,37-11l0.1-0.8
				c0.2-0.167,0.367-0.3,0.5-0.4c0.1,0,0.167-0.017,0.2-0.05c0.1-0.033,0.167-0.067,0.2-0.1c0.133,0,0.233,0,0.3,0
				c0.7,0.3,1.267,0.667,1.7,1.1l0.6,0.75c0.867,1.233,1.383,2.2,1.55,2.9c0.233,0.8,0.817,1.55,1.75,2.25
				c1.167,0.833,2.267,1.05,3.3,0.65c1.367-0.4,2.3-1.333,2.8-2.8c0.7-1.467,0.75-2.7,0.15-3.7c-0.333-0.566-0.717-0.917-1.15-1.05
				c0.367-0.233,0.733-0.5,1.1-0.8c0.733,0.133,1.2,0.316,1.4,0.55c0.533,0.6,0.85,1.183,0.95,1.75
				c0.233,0.533,0.316,1.067,0.25,1.6c0.066,0.066,0.066,0.133,0,0.2c0.1,1.133-0.15,2.383-0.75,3.75
				c-0.767,2.9-2.284,4.417-4.55,4.55c-0.3,0.1-0.617,0.1-0.95,0c-0.534,0.033-1.117-0.033-1.75-0.2
				c-1.633-0.433-3.317-1.417-5.05-2.95c-0.633-0.434-1.15-1.15-1.55-2.15c-0.2-0.6-0.434-1.316-0.7-2.15
				C37.333-8.467,37.25-8.917,37.15-9.45z"/>
		</g>
	</g>
	<g id="face_1_">
		<g>
			
				<radialGradient id="SVGID_19_" cx="18512.6504" cy="-3143.8296" r="36.9026" gradientTransform="matrix(-0.3279 0.9447 0.7893 0.274 8581.6289 -16670.5742)" gradientUnits="userSpaceOnUse">
				<stop  offset="0" style="stop-color:#FFFEF5"/>
				<stop  offset="1" style="stop-color:#FEE607"/>
			</radialGradient>
			<path style="fill-rule:evenodd;clip-rule:evenodd;fill:url(#SVGID_19_);" d="M13.55-23.2c-0.1,0.9-0.5,1.417-1.2,1.55
				c-0.633,0.1-1.233-0.133-1.8-0.7c-0.434-0.433-0.45-1.15-0.05-2.15c0.2-0.533,0.45-1,0.75-1.4c-0.267,0-0.6,0.083-1,0.25
				c-0.733,0.367-1.367,0.983-1.9,1.85c-0.533,0.867-0.583,2.05-0.15,3.55L9-18.2l1.6,0.1c1.267,0,2.467-0.183,3.6-0.55
				c1.8-0.533,3.383-1.217,4.75-2.05L19-22.4c-0.1-1.333-0.534-2.434-1.3-3.3c-0.566-0.634-1.466-0.9-2.7-0.8l-1.65,0.4
				C13.616-25.4,13.683-24.434,13.55-23.2z"/>
			
				<radialGradient id="SVGID_20_" cx="18512.8398" cy="-3144.2222" r="36.9185" gradientTransform="matrix(-0.328 0.9447 0.7892 0.274 8582.5137 -16670.3633)" gradientUnits="userSpaceOnUse">
				<stop  offset="0" style="stop-color:#FFFEF5"/>
				<stop  offset="1" style="stop-color:#FEE607"/>
			</radialGradient>
			<path style="fill-rule:evenodd;clip-rule:evenodd;fill:url(#SVGID_20_);" d="M27.75-24.45l0.15-1.05l-0.8,0.35
				c-0.733,0.367-1.7,0.75-2.9,1.15c-0.9,0.267-1.267,0.684-1.1,1.25c0.167,0.567,0.717,0.9,1.65,1c0.8,0.067,1.533-0.367,2.2-1.3
				C27.316-23.517,27.583-23.984,27.75-24.45z"/>
			
				<radialGradient id="SVGID_21_" cx="18512.6504" cy="-3143.8296" r="36.9026" gradientTransform="matrix(-0.3279 0.9447 0.7893 0.274 8581.6289 -16670.5742)" gradientUnits="userSpaceOnUse">
				<stop  offset="0" style="stop-color:#FFFEF5"/>
				<stop  offset="1" style="stop-color:#FEE607"/>
			</radialGradient>
			<path style="fill-rule:evenodd;clip-rule:evenodd;fill:url(#SVGID_21_);" d="M30.1-18.45c0.5-0.167,0.917-0.417,1.25-0.75
				c0.634-0.6,0.617-1.583-0.05-2.95l-1.9-3.25v-0.1l-0.05,0.05v0.05l-1.9,3.25c-0.667,1.4-0.683,2.383-0.05,2.95
				c0.333,0.333,0.733,0.583,1.2,0.75c0.367,0.133,0.617,0.183,0.75,0.15C29.483-18.267,29.733-18.317,30.1-18.45z"/>
			
				<radialGradient id="SVGID_22_" cx="25.25" cy="-43.1006" r="36.9185" gradientTransform="matrix(0.328 0.9447 -0.7892 0.274 -17.0464 -55.144)" gradientUnits="userSpaceOnUse">
				<stop  offset="0" style="stop-color:#FFFEF5"/>
				<stop  offset="1" style="stop-color:#FEE607"/>
			</radialGradient>
			<path style="fill-rule:evenodd;clip-rule:evenodd;fill:url(#SVGID_22_);" d="M30.75-25.5l0.15,1.05
				c0.2,0.466,0.466,0.933,0.8,1.4c0.667,0.933,1.4,1.367,2.2,1.3c0.933-0.1,1.483-0.433,1.65-1c0.167-0.566-0.2-0.983-1.1-1.25
				L30.75-25.5z"/>
			
				<radialGradient id="SVGID_23_" cx="18512.6504" cy="-3143.8296" r="36.9026" gradientTransform="matrix(-0.3279 0.9447 0.7893 0.274 8581.6289 -16670.5742)" gradientUnits="userSpaceOnUse">
				<stop  offset="0" style="stop-color:#FFFEF5"/>
				<stop  offset="1" style="stop-color:#FEE607"/>
			</radialGradient>
			<path style="fill-rule:evenodd;clip-rule:evenodd;fill:url(#SVGID_23_);" d="M15.35-31.851c0.634-0.866,0.967-2,1-3.4
				c0.067-1.333-0.133-2.25-0.6-2.75c-0.6-0.6-1.483-0.6-2.65,0l1.55,0.3c1.233,0.267,1.117,1.95-0.35,5.05
				c-0.533,1.1-1.434,1.717-2.7,1.85c-1.167,0.1-1.917-0.133-2.25-0.7C8.983-32.134,9-33.184,9.4-34.65l-0.5,0.9
				c-0.267,0.434-0.367,1.034-0.3,1.8c0.067,0.7,0.2,1.2,0.4,1.5c0.6,0.833,1.65,1.05,3.15,0.65
				C13.583-30.2,14.65-30.884,15.35-31.851z"/>
			
				<radialGradient id="SVGID_24_" cx="18590.7656" cy="-4217.2793" r="37.7486" gradientTransform="matrix(-0.4219 0.9067 0.7424 0.2629 11003.7949 -15789.6133)" gradientUnits="userSpaceOnUse">
				<stop  offset="0" style="stop-color:#FFFEF5"/>
				<stop  offset="1" style="stop-color:#FEE607"/>
			</radialGradient>
			<path style="fill-rule:evenodd;clip-rule:evenodd;fill:url(#SVGID_24_);" d="M11.25-33.5c0.433,0.067,0.85-0.167,1.25-0.7
				c0.333-0.467,0.533-0.9,0.6-1.3c0.067-0.333-0.033-0.566-0.3-0.7c-0.3-0.134-0.684-0.067-1.15,0.2
				c-0.467,0.3-0.733,0.784-0.8,1.45C10.783-33.917,10.917-33.567,11.25-33.5z"/>
			
				<linearGradient id="SVGID_25_" gradientUnits="userSpaceOnUse" x1="26.7324" y1="-16325.2324" x2="33.5824" y2="-16325.2324" gradientTransform="matrix(1.459854e-004 -1 1 -0.001 16334.8086 -8.168)">
				<stop  offset="0" style="stop-color:#DBAC46"/>
				<stop  offset="1" style="stop-color:#F7E16C"/>
			</linearGradient>
			<path style="fill-rule:evenodd;clip-rule:evenodd;fill:url(#SVGID_25_);" d="M8.35-23.8c-0.533,0.867-0.583,2.05-0.15,3.55
				L9-18.2l1.45,0.1c-0.5-0.633-0.75-1.333-0.75-2.1c-0.1-1.8,0.05-2.867,0.45-3.2l0.1-0.05c0.066-0.733,0.4-1.55,1-2.45
				c-0.267,0-0.6,0.083-1,0.25C9.517-25.284,8.883-24.667,8.35-23.8z"/>
			
				<linearGradient id="SVGID_26_" gradientUnits="userSpaceOnUse" x1="26.7271" y1="-16319.7109" x2="33.577" y2="-16319.7109" gradientTransform="matrix(1.459854e-004 -1 1 -0.001 16334.8086 -8.168)">
				<stop  offset="0" style="stop-color:#DBAC46"/>
				<stop  offset="1" style="stop-color:#F7E16C"/>
			</linearGradient>
			<path style="fill-rule:evenodd;clip-rule:evenodd;fill:url(#SVGID_26_);" d="M12.5-21.75l1.45-0.05l0.5-0.45
				c0.333-0.4,0.467-0.883,0.4-1.45l-0.2-1.9l1-0.25c0.8-0.1,1.483-0.05,2.05,0.15c-0.6-0.634-1.5-0.9-2.7-0.8l-1.65,0.4
				c0.267,0.7,0.333,1.667,0.2,2.9C13.45-22.4,13.1-21.917,12.5-21.75z"/>
			<linearGradient id="SVGID_27_" gradientUnits="userSpaceOnUse" x1="0.6621" y1="-38.0005" x2="17.1371" y2="-38.0005">
				<stop  offset="0" style="stop-color:#DBAC46"/>
				<stop  offset="1" style="stop-color:#F7E16C"/>
			</linearGradient>
			<path style="fill-rule:evenodd;clip-rule:evenodd;fill:url(#SVGID_27_);" d="M15-37.55c0-0.367,0.3-0.434,0.9-0.2L15.75-38
				c-0.6-0.6-1.483-0.6-2.65,0l1.55,0.3C14.783-37.7,14.9-37.65,15-37.55z"/>
			
				<linearGradient id="SVGID_28_" gradientUnits="userSpaceOnUse" x1="-2120.3877" y1="-13357.0635" x2="-2110.2764" y2="-13357.0635" gradientTransform="matrix(0.314 -0.9494 0.9494 0.314 13358.1162 2151.6484)">
				<stop  offset="0" style="stop-color:#DBAC46"/>
				<stop  offset="1" style="stop-color:#F7E16C"/>
			</linearGradient>
			<path style="fill-rule:evenodd;clip-rule:evenodd;fill:url(#SVGID_28_);" d="M14.3-32.65c-0.533,1.1-1.434,1.717-2.7,1.85
				c-1.167,0.1-1.917-0.133-2.25-0.7C8.983-32.134,9-33.184,9.4-34.65l-0.5,0.9c-0.267,0.434-0.367,1.034-0.3,1.8
				c0.067,0.7,0.2,1.2,0.4,1.5c0.466,0.667,1.283,0.917,2.45,0.75l-1.1-0.5l1.7,0.05c1.233-0.167,2.133-0.684,2.7-1.55
				c0.866-1.4,1.35-3.034,1.45-4.9l-0.95-0.65C15.65-36.45,15.333-34.917,14.3-32.65z"/>
			
				<linearGradient id="SVGID_29_" gradientUnits="userSpaceOnUse" x1="-2111.1719" y1="-13367.6094" x2="-2108.7764" y2="-13367.6094" gradientTransform="matrix(0.3131 -0.9497 0.9497 0.3131 13367.9678 2146.6875)">
				<stop  offset="0" style="stop-color:#DBAC46"/>
				<stop  offset="1" style="stop-color:#F7E16C"/>
			</linearGradient>
			<path style="fill-rule:evenodd;clip-rule:evenodd;fill:url(#SVGID_29_);" d="M12.7-35.5l0.4-0.1c0.034-0.3-0.083-0.517-0.35-0.65
				c-0.3-0.1-0.667-0.017-1.1,0.25c-0.467,0.3-0.733,0.784-0.8,1.45c-0.066,0.633,0.067,0.983,0.4,1.05l0.3-0.05
				c-0.1-0.434-0.033-0.833,0.2-1.2C11.95-35.15,12.267-35.4,12.7-35.5z"/>
			
				<linearGradient id="SVGID_30_" gradientUnits="userSpaceOnUse" x1="118.0254" y1="-16408.0391" x2="124.2508" y2="-16408.0391" gradientTransform="matrix(-0.012 -0.9999 0.9999 -0.012 16433.8105 -98.9951)">
				<stop  offset="0" style="stop-color:#DBAC46"/>
				<stop  offset="1" style="stop-color:#F7E16C"/>
			</linearGradient>
			<path style="fill-rule:evenodd;clip-rule:evenodd;fill:url(#SVGID_30_);" d="M26.6-24.101l1.25-1.05l0.05-0.35l-0.8,0.35
				c-0.733,0.367-1.7,0.75-2.9,1.15c-0.9,0.267-1.267,0.684-1.1,1.25c0.167,0.567,0.717,0.9,1.65,1h0.1
				c-0.4-0.433-0.366-0.867,0.1-1.3C25.25-23.351,25.8-23.7,26.6-24.101z"/>
			
				<linearGradient id="SVGID_31_" gradientUnits="userSpaceOnUse" x1="118.0425" y1="-16405.3438" x2="124.2679" y2="-16405.3438" gradientTransform="matrix(-0.012 -0.9999 0.9999 -0.012 16433.8105 -98.9951)">
				<stop  offset="0" style="stop-color:#DBAC46"/>
				<stop  offset="1" style="stop-color:#F7E16C"/>
			</linearGradient>
			<path style="fill-rule:evenodd;clip-rule:evenodd;fill:url(#SVGID_31_);" d="M28.3-18.601c-0.333-0.767-0.4-1.75-0.2-2.95
				c0.2-1.034,0.534-1.967,1-2.8c0.034-0.233,0.15-0.55,0.35-0.95l-0.05-0.1v-0.1l-0.05,0.05v0.05l-1.9,3.25
				c-0.667,1.4-0.683,2.383-0.05,2.95C27.6-19,27.9-18.8,28.3-18.601z"/>
			<linearGradient id="SVGID_32_" gradientUnits="userSpaceOnUse" x1="33.1411" y1="-25.5132" x2="33.2161" y2="-19.2882">
				<stop  offset="0" style="stop-color:#DBAC46"/>
				<stop  offset="1" style="stop-color:#F7E16C"/>
			</linearGradient>
			<path style="fill-rule:evenodd;clip-rule:evenodd;fill:url(#SVGID_32_);" d="M34.45-24l-3.7-1.5l0.05,0.3l0.2,0.05
				c1.033,0.467,1.833,0.85,2.4,1.15c1,0.567,1.533,1.2,1.6,1.9c0.433-0.3,0.616-0.633,0.55-1C35.45-23.5,35.083-23.8,34.45-24z"/>
			
				<radialGradient id="SVGID_33_" cx="28.4497" cy="-43.4004" r="36.9026" gradientTransform="matrix(0.3279 0.9447 -0.7893 0.274 -15.1338 -58.3857)" gradientUnits="userSpaceOnUse">
				<stop  offset="0" style="stop-color:#FFFEF5"/>
				<stop  offset="1" style="stop-color:#FEE607"/>
			</radialGradient>
			<path style="fill-rule:evenodd;clip-rule:evenodd;fill:url(#SVGID_33_);" d="M38.7-20.95l1.4,0.7
				c1.134,0.567,2.267,1.017,3.4,1.35c1.767,0.566,3.483,0.717,5.15,0.45l0.8-2.05c0.434-1.5,0.383-2.683-0.15-3.55
				s-1.167-1.483-1.9-1.85c-0.4-0.167-0.733-0.25-1-0.25c0.3,0.4,0.55,0.867,0.75,1.4c0.4,1,0.383,1.717-0.05,2.15
				c-0.566,0.534-1.167,0.75-1.8,0.65c-0.7-0.134-1.1-0.634-1.2-1.5c-0.133-1.233-0.066-2.2,0.2-2.9
				c-0.467-0.2-1.017-0.333-1.65-0.4c-1.2-0.133-2.1,0.133-2.7,0.8c-0.767,0.866-1.2,1.966-1.3,3.3L38.7-20.95z"/>
			<linearGradient id="SVGID_34_" gradientUnits="userSpaceOnUse" x1="48.0703" y1="-25.6753" x2="48.0703" y2="-18.8253">
				<stop  offset="0" style="stop-color:#DBAC46"/>
				<stop  offset="1" style="stop-color:#F7E16C"/>
			</linearGradient>
			<path style="fill-rule:evenodd;clip-rule:evenodd;fill:url(#SVGID_34_);" d="M48.65-18.45l0.8-2.05
				c0.434-1.5,0.383-2.683-0.15-3.55s-1.167-1.483-1.9-1.85c-0.4-0.167-0.733-0.25-1-0.25c0.6,0.867,0.933,1.684,1,2.45l0.1,0.05
				c0.4,0.333,0.55,1.383,0.45,3.15c0,0.8-0.25,1.517-0.75,2.15L48.65-18.45z"/>
			<linearGradient id="SVGID_35_" gradientUnits="userSpaceOnUse" x1="42.5498" y1="-25.6753" x2="42.5498" y2="-18.8253">
				<stop  offset="0" style="stop-color:#DBAC46"/>
				<stop  offset="1" style="stop-color:#F7E16C"/>
			</linearGradient>
			<path style="fill-rule:evenodd;clip-rule:evenodd;fill:url(#SVGID_35_);" d="M44.15-22.05c0.433,0,0.767,0.017,1,0.05
				c-0.6-0.167-0.95-0.65-1.05-1.45c-0.133-1.233-0.066-2.2,0.2-2.9c-0.467-0.2-1.017-0.333-1.65-0.4c-1.2-0.1-2.1,0.167-2.7,0.8
				c0.934-0.333,1.95-0.3,3.05,0.1l-0.2,1.9c-0.066,0.566,0.066,1.05,0.4,1.45l0.5,0.45H44.15z"/>
			
				<radialGradient id="SVGID_36_" cx="27.8496" cy="-43.1006" r="36.9185" gradientTransform="matrix(0.328 0.9447 -0.7892 0.274 -15.2993 -57.6001)" gradientUnits="userSpaceOnUse">
				<stop  offset="0" style="stop-color:#FFFEF5"/>
				<stop  offset="1" style="stop-color:#FEE607"/>
			</radialGradient>
			<path style="fill-rule:evenodd;clip-rule:evenodd;fill:url(#SVGID_36_);" d="M48.4-31.95c0.066-0.767-0.017-1.367-0.25-1.8
				l-0.5-0.9c0.4,1.467,0.417,2.517,0.05,3.15c-0.367,0.567-1.117,0.8-2.25,0.7c-1.267-0.133-2.167-0.75-2.7-1.85
				c-0.634-1.3-1-2.4-1.1-3.3c-0.133-1.034,0.117-1.617,0.75-1.75c0.9-0.233,1.417-0.333,1.55-0.3c-1.167-0.6-2.05-0.6-2.65,0
				c-0.467,0.5-0.684,1.417-0.65,2.75c0.033,1.4,0.367,2.534,1,3.4c0.7,0.967,1.767,1.65,3.2,2.05c1.534,0.4,2.6,0.183,3.2-0.65
				C48.25-30.75,48.366-31.25,48.4-31.95z"/>
			
				<radialGradient id="SVGID_37_" cx="13131.6328" cy="2640.7383" r="37.7486" gradientTransform="matrix(0.4219 0.9067 -0.7424 0.2629 -3552.2773 -12643.1904)" gradientUnits="userSpaceOnUse">
				<stop  offset="0" style="stop-color:#FFFEF5"/>
				<stop  offset="1" style="stop-color:#FEE607"/>
			</radialGradient>
			<path style="fill-rule:evenodd;clip-rule:evenodd;fill:url(#SVGID_37_);" d="M45.75-33.5c0.366-0.066,0.517-0.417,0.45-1.05
				c-0.066-0.667-0.333-1.15-0.8-1.45c-0.5-0.267-0.883-0.333-1.15-0.2c-0.267,0.133-0.367,0.366-0.3,0.7
				c0.067,0.4,0.267,0.833,0.6,1.3C44.917-33.667,45.316-33.434,45.75-33.5z"/>
			<linearGradient id="SVGID_38_" gradientUnits="userSpaceOnUse" x1="56.3496" y1="-38.0005" x2="39.8496" y2="-38.0005">
				<stop  offset="0" style="stop-color:#DBAC46"/>
				<stop  offset="1" style="stop-color:#F7E16C"/>
			</linearGradient>
			<path style="fill-rule:evenodd;clip-rule:evenodd;fill:url(#SVGID_38_);" d="M42.05-37.55c0.1-0.1,0.217-0.15,0.35-0.15
				c0.9-0.233,1.417-0.333,1.55-0.3c-1.167-0.6-2.05-0.6-2.65,0l-0.15,0.25c0.233-0.1,0.45-0.117,0.65-0.05
				C41.966-37.767,42.05-37.684,42.05-37.55z"/>
			<linearGradient id="SVGID_39_" gradientUnits="userSpaceOnUse" x1="46.2661" y1="-38.9404" x2="43.0911" y2="-29.3404">
				<stop  offset="0" style="stop-color:#DBAC46"/>
				<stop  offset="1" style="stop-color:#F7E16C"/>
			</linearGradient>
			<path style="fill-rule:evenodd;clip-rule:evenodd;fill:url(#SVGID_39_);" d="M45.6-29.7c1.167,0.167,1.983-0.083,2.45-0.75
				c0.2-0.3,0.316-0.8,0.35-1.5c0.066-0.767-0.017-1.367-0.25-1.8l-0.5-0.9c0.4,1.467,0.417,2.517,0.05,3.15
				c-0.367,0.567-1.117,0.8-2.25,0.7c-1.267-0.133-2.167-0.75-2.7-1.85c-1.1-2.233-1.434-3.767-1-4.6l-0.9,0.65
				c0.1,1.867,0.583,3.5,1.45,4.9c0.533,0.866,1.417,1.383,2.65,1.55c0.633,0.066,1.2,0.05,1.7-0.05l-0.25,0.15L45.6-29.7z"/>
			<linearGradient id="SVGID_40_" gradientUnits="userSpaceOnUse" x1="45.3921" y1="-35.9478" x2="44.6421" y2="-33.6728">
				<stop  offset="0" style="stop-color:#DBAC46"/>
				<stop  offset="1" style="stop-color:#F7E16C"/>
			</linearGradient>
			<path style="fill-rule:evenodd;clip-rule:evenodd;fill:url(#SVGID_40_);" d="M44.35-35.5c0.434,0.1,0.75,0.35,0.95,0.75
				c0.233,0.367,0.3,0.767,0.2,1.2l0.25,0.05c0.366-0.066,0.517-0.417,0.45-1.05c-0.066-0.667-0.333-1.15-0.8-1.45
				c-0.467-0.267-0.85-0.35-1.15-0.25c-0.267,0.133-0.384,0.35-0.35,0.65L44.35-35.5z"/>
			
				<radialGradient id="SVGID_41_" cx="16.3999" cy="-22" r="11.7875" gradientTransform="matrix(1 0 0 -1.1813 0 -47.9897)" gradientUnits="userSpaceOnUse">
				<stop  offset="0" style="stop-color:#FFF5B3;stop-opacity:0.8196"/>
				<stop  offset="1" style="stop-color:#FEE400;stop-opacity:0"/>
			</radialGradient>
			<path style="fill-rule:evenodd;clip-rule:evenodd;fill:url(#SVGID_41_);" d="M24.8-12.1c2.267-2.733,3.4-6.033,3.4-9.9
				c0-3.833-1.133-7.117-3.4-9.85c-2.333-2.733-5.133-4.1-8.4-4.1s-6.033,1.367-8.3,4.1C5.8-29.117,4.65-25.833,4.65-22
				c0,3.867,1.15,7.167,3.45,9.9c2.267,2.7,5.033,4.05,8.3,4.05S22.467-9.4,24.8-12.1z"/>
			
				<radialGradient id="SVGID_42_" cx="41.25" cy="-22" r="11.5375" gradientTransform="matrix(1 0 0 -1.2069 0 -48.5522)" gradientUnits="userSpaceOnUse">
				<stop  offset="0" style="stop-color:#FFF5B3;stop-opacity:0.8196"/>
				<stop  offset="1" style="stop-color:#FEE400;stop-opacity:0"/>
			</radialGradient>
			<path style="fill-rule:evenodd;clip-rule:evenodd;fill:url(#SVGID_42_);" d="M52.8-22c0-3.833-1.133-7.117-3.4-9.85
				s-4.983-4.1-8.15-4.1c-3.2,0-5.917,1.367-8.15,4.1c-2.267,2.733-3.4,6.017-3.4,9.85c0,3.867,1.133,7.167,3.4,9.9
				c2.233,2.7,4.95,4.05,8.15,4.05c3.167,0,5.883-1.35,8.15-4.05C51.667-14.833,52.8-18.133,52.8-22z"/>
		</g>
	</g>
	<g id="mouth_1_">
		<g>
			
				<radialGradient id="SVGID_43_" cx="16286.8809" cy="-28.8687" r="17.5625" gradientTransform="matrix(2.846975e-005 1 1 2.846975e-005 57.5049 -16336.2305)" gradientUnits="userSpaceOnUse">
				<stop  offset="0" style="stop-color:#FFFEF5"/>
				<stop  offset="1" style="stop-color:#FEE607"/>
			</radialGradient>
			<path style="fill-rule:evenodd;clip-rule:evenodd;fill:url(#SVGID_43_);" d="M26.7-27.4l1.05-2l0.35,0.25
				c0.3,0.267,0.534,0.684,0.7,1.25l0.05,0.3l0.05-0.1v0.1l0.05-0.3c0.2-0.566,0.434-0.983,0.7-1.25L30-29.4l1.05,2l0.35-1l0.2-1.1
				c0.233,0.367,0.35,0.667,0.35,0.9l0.2,0.85l1.1,0.75l0.3-0.35c0.2-0.3,0.3-0.566,0.3-0.8l0.05-1c0.6,0.566,0.966,1.167,1.1,1.8
				l0.2,0.95v-1.45c-0.033-1.1-0.2-2.083-0.5-2.95c-0.333-1.034-0.517-2.2-0.55-3.5c-0.067-1.267,0.017-2.133,0.25-2.6
				c0.267-0.6,0.65-1.816,1.15-3.65l-1.05-0.8c-1-0.566-2.317-0.883-3.95-0.95H27.2c-1.633,0.066-2.95,0.383-3.95,0.95l-1.05,0.8
				c0.5,1.833,0.9,3.05,1.2,3.65c0.2,0.467,0.267,1.333,0.2,2.6c-0.066,1.3-0.25,2.466-0.55,3.5c-0.3,0.867-0.467,1.85-0.5,2.95
				v1.45l0.2-0.95c0.133-0.633,0.5-1.233,1.1-1.8c0.067,0.267,0.1,0.6,0.1,1c0,0.233,0.1,0.5,0.3,0.8L24.5-27l1.1-0.75l0.2-0.85
				c0-0.233,0.117-0.533,0.35-0.9l0.2,1.1L26.7-27.4z"/>
			
				<linearGradient id="SVGID_44_" gradientUnits="userSpaceOnUse" x1="36.501" y1="-16306.6104" x2="52.276" y2="-16306.6104" gradientTransform="matrix(6.339145e-005 -1 1 -0.001 16335.4834 -8.168)">
				<stop  offset="0" style="stop-color:#DBAC46"/>
				<stop  offset="1" style="stop-color:#F7E16C"/>
			</linearGradient>
			<path style="fill-rule:evenodd;clip-rule:evenodd;fill:url(#SVGID_44_);" d="M33.9-29.15c0.6,0.566,0.966,1.167,1.1,1.8l0.2,0.95
				v-1.45c-0.033-1.1-0.2-2.083-0.5-2.95c-0.333-1.034-0.517-2.2-0.55-3.5c-0.067-1.267,0.017-2.133,0.25-2.6
				c0.267-0.6,0.65-1.816,1.15-3.65l-1.05-0.8c-1-0.566-2.317-0.883-3.95-0.95H27.2c-1.633,0.066-2.95,0.383-3.95,0.95l-1.05,0.8
				c0.5,1.833,0.9,3.05,1.2,3.65c0.2,0.467,0.267,1.333,0.2,2.6c-0.066,1.3-0.25,2.466-0.55,3.5c-0.3,0.867-0.467,1.85-0.5,2.95
				v1.45l0.2-0.95c0.133-0.633,0.5-1.233,1.1-1.8l0.55-1.65c0.233-0.7,0.367-1.733,0.4-3.1s-0.05-2.417-0.25-3.15
				c-0.267-0.967-0.434-1.784-0.5-2.45l-0.45-0.85l2.05-0.4l0.4-0.15c0.434-0.1,1.133-0.167,2.1-0.2h1.5
				c1.5,0.034,2.316,0.15,2.45,0.35l2.05,0.4L33.7-39.5c-0.066,0.667-0.233,1.483-0.5,2.45c-0.2,0.733-0.267,1.783-0.2,3.15
				c0.033,1.333,0.15,2.367,0.35,3.1L33.9-29.15z"/>
			
				<linearGradient id="SVGID_45_" gradientUnits="userSpaceOnUse" x1="36.5054" y1="-16311.0342" x2="52.2804" y2="-16311.0342" gradientTransform="matrix(6.339145e-005 -1 1 -0.001 16335.4834 -8.168)">
				<stop  offset="0" style="stop-color:#866327"/>
				<stop  offset="1" style="stop-color:#DEC162"/>
			</linearGradient>
			<path style="fill-rule:evenodd;clip-rule:evenodd;fill:url(#SVGID_45_);" d="M23.9-28.8l0.05,0.65c0,0.233,0.1,0.5,0.3,0.8
				L24.5-27l0.5-0.35c-0.267-0.2-0.4-0.4-0.4-0.6v-0.5l-0.45-0.7L23.9-28.8z"/>
			
				<linearGradient id="SVGID_46_" gradientUnits="userSpaceOnUse" x1="36.5029" y1="-16308.7842" x2="52.2779" y2="-16308.7842" gradientTransform="matrix(6.339145e-005 -1 1 -0.001 16335.4834 -8.168)">
				<stop  offset="0" style="stop-color:#866327"/>
				<stop  offset="1" style="stop-color:#DEC162"/>
			</linearGradient>
			<polygon style="fill-rule:evenodd;clip-rule:evenodd;fill:url(#SVGID_46_);" points="27.2,-28.4 27.2,-29.15 26.2,-29.3 
				26.2,-29.15 26.35,-28.4 26.7,-27.4 			"/>
			
				<linearGradient id="SVGID_47_" gradientUnits="userSpaceOnUse" x1="36.4966" y1="-16302.1846" x2="52.2716" y2="-16302.1846" gradientTransform="matrix(6.339145e-005 -1 1 -0.001 16335.4834 -8.168)">
				<stop  offset="0" style="stop-color:#866327"/>
				<stop  offset="1" style="stop-color:#DEC162"/>
			</linearGradient>
			<path style="fill-rule:evenodd;clip-rule:evenodd;fill:url(#SVGID_47_);" d="M33.6-29.15l-0.45,0.7v0.5c0,0.2-0.133,0.4-0.4,0.6
				l0.5,0.35l0.3-0.35c0.2-0.3,0.3-0.566,0.3-0.8v-0.65L33.6-29.15z"/>
			
				<linearGradient id="SVGID_48_" gradientUnits="userSpaceOnUse" x1="36.4985" y1="-16304.4346" x2="52.2735" y2="-16304.4346" gradientTransform="matrix(6.339145e-005 -1 1 -0.001 16335.4834 -8.168)">
				<stop  offset="0" style="stop-color:#866327"/>
				<stop  offset="1" style="stop-color:#DEC162"/>
			</linearGradient>
			<polygon style="fill-rule:evenodd;clip-rule:evenodd;fill:url(#SVGID_48_);" points="30.55,-28.4 31.05,-27.4 31.4,-28.4 
				31.55,-29.15 31.55,-29.3 30.6,-29.15 30.6,-28.5 			"/>
			
				<linearGradient id="SVGID_49_" gradientUnits="userSpaceOnUse" x1="36.5142" y1="-16307.0088" x2="52.2642" y2="-16307.0088" gradientTransform="matrix(6.349207e-005 -1 1 -0.001 16335.4824 -8.168)">
				<stop  offset="0" style="stop-color:#866327"/>
				<stop  offset="1" style="stop-color:#DEC162"/>
			</linearGradient>
			<path style="fill-rule:evenodd;clip-rule:evenodd;fill:url(#SVGID_49_);" d="M28.8-28.8c-0.066-0.233-0.3-0.35-0.7-0.35
				c0.3,0.267,0.534,0.684,0.7,1.25l0.05,0.25L28.8-28.8z"/>
			
				<linearGradient id="SVGID_50_" gradientUnits="userSpaceOnUse" x1="36.5132" y1="-16306.208" x2="52.2632" y2="-16306.208" gradientTransform="matrix(6.349207e-005 -1 1 -0.001 16335.4824 -8.168)">
				<stop  offset="0" style="stop-color:#866327"/>
				<stop  offset="1" style="stop-color:#DEC162"/>
			</linearGradient>
			<path style="fill-rule:evenodd;clip-rule:evenodd;fill:url(#SVGID_50_);" d="M29-28.8l-0.1,1.15l0.05-0.25
				c0.2-0.566,0.434-0.983,0.7-1.25C29.25-29.15,29.033-29.034,29-28.8z"/>
			<g>
				
					<linearGradient id="SVGID_51_" gradientUnits="userSpaceOnUse" x1="19667.6055" y1="-7836.3076" x2="19676.5176" y2="-7836.3076" gradientTransform="matrix(-0.6872 0.7265 -0.7265 -0.6872 7847.2549 -19714.8418)">
					<stop  offset="0" style="stop-color:#DBAC46"/>
					<stop  offset="1" style="stop-color:#F7E16C"/>
				</linearGradient>
				<path style="fill-rule:evenodd;clip-rule:evenodd;fill:url(#SVGID_51_);" d="M19.5-35.15c0.3-0.1,0.667-0.4,1.1-0.9
					c0.333-0.367,0.8-0.917,1.4-1.65c0.566-0.667,1.183-1.25,1.85-1.75l1.95-1.6l-0.7-0.8c-1,0.1-2.417,0.833-4.25,2.2
					c-0.8,0.566-1.517,1.167-2.15,1.8c-0.233,0.667-0.566,1.35-1,2.05c0.167,0.233,0.5,0.417,1,0.55
					C19.133-35.15,19.4-35.117,19.5-35.15z"/>
				
					<radialGradient id="SVGID_52_" cx="-11.5957" cy="-17147.5469" r="5.8846" gradientTransform="matrix(-0.1083 -0.9941 -0.9665 8.496707e-005 -16552.8691 -45.8208)" gradientUnits="userSpaceOnUse">
					<stop  offset="0" style="stop-color:#F5DC93"/>
					<stop  offset="0.2039" style="stop-color:#F4C125"/>
					<stop  offset="1" style="stop-color:#B47527"/>
				</radialGradient>
				<path style="fill-rule:evenodd;clip-rule:evenodd;fill:url(#SVGID_52_);" d="M19.5-40.101c-1.233,1.7-1.867,2.95-1.9,3.75
					c0,0.567,0.167,0.817,0.5,0.75c0.3-0.066,0.684-0.383,1.15-0.95c0.333-0.367,0.8-0.917,1.4-1.65c0.6-0.667,1.216-1.233,1.85-1.7
					l2.6-2c-0.433-0.066-1-0.05-1.7,0.05C22.033-41.617,20.733-41.034,19.5-40.101z"/>
				<linearGradient id="SVGID_53_" gradientUnits="userSpaceOnUse" x1="32.854" y1="-35.4419" x2="38.979" y2="-41.9169">
					<stop  offset="0" style="stop-color:#DBAC46"/>
					<stop  offset="1" style="stop-color:#F7E16C"/>
				</linearGradient>
				<path style="fill-rule:evenodd;clip-rule:evenodd;fill:url(#SVGID_53_);" d="M38.75-37.851c-0.634-0.633-1.35-1.233-2.15-1.8
					c-1.833-1.367-3.25-2.1-4.25-2.2l-0.7,0.8l2,1.6c0.8,0.633,1.867,1.767,3.2,3.4c0.467,0.5,0.833,0.8,1.1,0.9
					c0.1,0.033,0.367,0,0.8-0.1c0.5-0.133,0.833-0.316,1-0.55C39.316-36.5,38.983-37.184,38.75-37.851z"/>
				
					<radialGradient id="SVGID_54_" cx="-13.0356" cy="-15371.1992" r="5.8846" gradientTransform="matrix(0.1083 -0.9941 0.9665 8.496707e-005 14893.6328 -47.4023)" gradientUnits="userSpaceOnUse">
					<stop  offset="0" style="stop-color:#F5DC93"/>
					<stop  offset="0.2039" style="stop-color:#F4C125"/>
					<stop  offset="1" style="stop-color:#B47527"/>
				</radialGradient>
				<path style="fill-rule:evenodd;clip-rule:evenodd;fill:url(#SVGID_54_);" d="M37.95-40.101c-1.2-0.933-2.5-1.517-3.9-1.75
					l-1.7-0.05l2.65,2c0.633,0.5,1.25,1.066,1.85,1.7c0.6,0.733,1.05,1.283,1.35,1.65c0.467,0.566,0.85,0.883,1.15,0.95
					c0.333,0.067,0.5-0.183,0.5-0.75C39.85-37.15,39.216-38.4,37.95-40.101z"/>
			</g>
		</g>
	</g>
	<g id="Layer_2_2_">
	</g>
	<g id="Layer_1_2_">
	</g>
</symbol>
<use xlink:href="#pumpkin_2_"  width="48.15" height="46.558" id="pumpkin_x5F_mc" x="4.65" y="-46.541" transform="matrix(1 0 0 -1 -4.6499 0)" style="overflow:visible;"/>
</svg>
