<?xml version="1.0" encoding="iso-8859-1"?>
<!-- Generator: Adobe Illustrator 15.1.0, SVG Export Plug-In . SVG Version: 6.00 Build 0)  -->
<!DOCTYPE svg PUBLIC "-//W3C//DTD SVG 1.1//EN" "http://www.w3.org/Graphics/SVG/1.1/DTD/svg11.dtd">
<svg version="1.1" id="pumpkin" xmlns="http://www.w3.org/2000/svg" xmlns:xlink="http://www.w3.org/1999/xlink" x="0px" y="0px"
	 width="50.1px" height="54.9px" viewBox="0 0 50.1 54.9" style="enable-background:new 0 0 50.1 54.9;" xml:space="preserve">
<symbol  id="pumpkin_1_" viewBox="-0.017 -54.891 50.115 54.905">
	<g id="Layer_3_1_">
		<g>
			
				<radialGradient id="SVGID_1_" cx="29.6997" cy="-41.2998" r="23.4127" gradientTransform="matrix(0.8456 0 0 -0.1583 -0.6001 -57.4551)" gradientUnits="userSpaceOnUse">
				<stop  offset="0.1647" style="stop-color:#000000;stop-opacity:0.8"/>
				<stop  offset="0.6353" style="stop-color:#000000;stop-opacity:0.1882"/>
				<stop  offset="1" style="stop-color:#000000;stop-opacity:0"/>
			</radialGradient>
			<path style="fill-rule:evenodd;clip-rule:evenodd;fill:url(#SVGID_1_);" d="M39.524-53.731c-4.144-0.773-9.147-1.16-15.01-1.16
				c-5.891,0-10.894,0.387-15.009,1.16c-4.144,0.774-6.215,1.712-6.215,2.815c0,1.102,2.071,2.041,6.215,2.814
				c4.115,0.774,9.118,1.161,15.009,1.161c5.863,0,10.866-0.387,15.01-1.161c4.144-0.773,6.215-1.712,6.215-2.814
				C45.739-52.019,43.668-52.957,39.524-53.731z"/>
			<g>
				
					<radialGradient id="SVGID_2_" cx="1849.7046" cy="-15008.1875" r="5.0254" gradientTransform="matrix(-0.0098 -0.8311 -2.0219 0.0239 -30302.5742 1882.4561)" gradientUnits="userSpaceOnUse">
					<stop  offset="0" style="stop-color:#F5DC93"/>
					<stop  offset="0.2039" style="stop-color:#F4C125"/>
					<stop  offset="1" style="stop-color:#B47527"/>
				</radialGradient>
				<path style="fill-rule:evenodd;clip-rule:evenodd;fill:url(#SVGID_2_);" d="M18.942-16.568c0.526,0.36,1.247,0.679,2.161,0.956
					c1.219,0.36,2.507,0.54,3.865,0.54c1.441,0,2.771-0.249,3.99-0.748c1.081-0.416,1.704-0.859,1.87-1.33
					c0.194-0.554,0.166-0.983-0.083-1.288l-8.187-0.54l-3.325,0.914L18.942-16.568z"/>
			</g>
			<g>
				
					<radialGradient id="SVGID_3_" cx="2089.1514" cy="-15268.9209" r="18.3314" gradientTransform="matrix(-0.047 -0.8298 0.9188 -0.0425 14165.5518 1069.1445)" gradientUnits="userSpaceOnUse">
					<stop  offset="0" style="stop-color:#F5DC93"/>
					<stop  offset="0.2039" style="stop-color:#F4C125"/>
					<stop  offset="1" style="stop-color:#B47527"/>
				</radialGradient>
				<path style="fill-rule:evenodd;clip-rule:evenodd;fill:url(#SVGID_3_);" d="M39.68-17.026c3.546-1.523,6.207-4.017,7.979-7.48
					c1.552-3.047,1.981-6.067,1.289-9.06c-0.194-0.915-1.067-3.089-2.619-6.525c-0.748-1.718-2.064-3.38-3.948-4.987
					c-1.69-1.44-3.006-2.202-3.948-2.286c-1.108-0.083-4.294,1.025-9.559,3.325l-3.948,26.224c0.831,1.025,3.532,1.746,8.104,2.161
					C34.97-15.488,37.187-15.945,39.68-17.026z"/>
			</g>
			<g>
				
					<radialGradient id="SVGID_4_" cx="1411.5498" cy="-1771.7998" r="25.4024" gradientTransform="matrix(-0.0103 -0.8311 0.9207 -0.0115 1681.9624 1133.8809)" gradientUnits="userSpaceOnUse">
					<stop  offset="0" style="stop-color:#F5DC93"/>
					<stop  offset="0.2039" style="stop-color:#F4C125"/>
					<stop  offset="1" style="stop-color:#B47527"/>
				</radialGradient>
				<path style="fill-rule:evenodd;clip-rule:evenodd;fill:url(#SVGID_4_);" d="M40.678-20.018c2.604-1.58,4.377-3.671,5.319-6.276
					c0.914-2.659,1.067-5.61,0.457-8.852c-0.526-2.798-1.454-5.167-2.784-7.106c-1.164-1.718-2.591-3.242-4.281-4.572
					c-1.746-1.385-3.505-2.369-5.278-2.951c-1.497-0.499-3.076-0.803-4.738-0.915h-2.036L25.55-18.314l2.577,0.416
					c2.078,0.25,3.976,0.305,5.694,0.167C36.23-17.926,38.516-18.688,40.678-20.018z"/>
			</g>
			<g>
				
					<radialGradient id="SVGID_5_" cx="1463.9019" cy="-14571.9424" r="18.3674" gradientTransform="matrix(0.0475 -0.8298 -0.9186 -0.0424 -13443.8789 581.1631)" gradientUnits="userSpaceOnUse">
					<stop  offset="0" style="stop-color:#F5DC93"/>
					<stop  offset="0.2039" style="stop-color:#F4C125"/>
					<stop  offset="1" style="stop-color:#B47527"/>
				</radialGradient>
				<path style="fill-rule:evenodd;clip-rule:evenodd;fill:url(#SVGID_5_);" d="M9.55-17.026c2.494,1.081,4.71,1.538,6.649,1.372
					c1.58-0.139,3.214-0.43,4.904-0.873c2.161-0.554,3.38-1.15,3.657-1.787l-4.364-25.725c-5.292-2.299-8.492-3.407-9.601-3.325
					c-0.942,0.083-2.258,0.845-3.948,2.286c-1.856,1.607-3.172,3.27-3.948,4.987c-1.551,3.436-2.424,5.61-2.618,6.525
					c-0.665,2.992-0.222,6.012,1.33,9.06C3.358-21.043,6.003-18.549,9.55-17.026z"/>
				<g>
					<path style="fill-rule:evenodd;clip-rule:evenodd;fill:#A96F24;" d="M2.402-26.542c0.499,2.05,1.787,3.906,3.865,5.569
						c1.606,1.302,3.338,2.258,5.195,2.868c1.801,0.609,4.904,0.568,9.309-0.125l3.034-5.694l-3.408-20.115
						c-0.998-0.443-2.092-0.9-3.283-1.371l-1.871,1.912l0.042,15.294L3.233-26.293l-0.457-1.288
						c-0.333-1.053-0.554-2.05-0.665-2.992C2-31.626,2.028-32.929,2.194-34.48c0.138-1.357,0.318-2.424,0.54-3.2
						c0.305-0.998,0.249-1.58-0.167-1.746c-0.831,1.829-1.302,2.868-1.413,3.117c-0.527,1.274-0.873,2.479-1.039,3.616h0.333
						c0.499,0,0.831,0.457,0.997,1.371C1.723-29.659,2.042-28.066,2.402-26.542z"/>
					<path style="fill-rule:evenodd;clip-rule:evenodd;fill:#A26921;" d="M15.285-28.205l-0.042-15.294L5.186-33.192L2.61-32.444
						l0.208-2.41c0.222-1.829,0.568-3.311,1.039-4.447c0.748-1.8,1.274-3.158,1.579-4.072l-0.25-0.083
						c-1.053,1.136-1.814,2.258-2.286,3.366l-0.333,0.665c0.416,0.166,0.471,0.748,0.167,1.746c-0.222,0.776-0.402,1.842-0.54,3.2
						C2.028-32.929,2-31.626,2.111-30.574c0.111,0.942,0.333,1.939,0.665,2.992l0.457,1.288L15.285-28.205z"/>
					<path style="fill-rule:evenodd;clip-rule:evenodd;fill:#905D1C;" d="M17.114-45.41c-3.408-1.385-5.514-2.036-6.317-1.954
						c-0.582,0.056-1.413,0.444-2.493,1.164c-1.108,0.748-2.147,1.663-3.117,2.743l0.25,0.083c-0.305,0.914-0.831,2.272-1.579,4.072
						c-0.471,1.136-0.817,2.618-1.039,4.447l-0.208,2.41l2.576-0.748L17.114-45.41z"/>
				</g>
			</g>
			<g>
				
					<radialGradient id="SVGID_6_" cx="1690.8999" cy="-14867.0957" r="25.4024" gradientTransform="matrix(0.0103 -0.8311 -0.9207 -0.0115 -13691.832 1216.04)" gradientUnits="userSpaceOnUse">
					<stop  offset="0" style="stop-color:#F5DC93"/>
					<stop  offset="0.2039" style="stop-color:#F4C125"/>
					<stop  offset="1" style="stop-color:#B47527"/>
				</radialGradient>
				<path style="fill-rule:evenodd;clip-rule:evenodd;fill:url(#SVGID_6_);" d="M8.553-20.018c2.161,1.33,4.447,2.092,6.857,2.286
					c2.743,0.222,5.5,0.028,8.27-0.582l-1.787-32.375c-2.105-0.166-4.363,0.139-6.774,0.915c-1.773,0.582-3.532,1.565-5.278,2.951
					c-1.69,1.33-3.117,2.854-4.281,4.572c-1.33,1.939-2.258,4.308-2.784,7.106c-0.61,3.241-0.457,6.192,0.457,8.852
					C4.175-23.689,5.948-21.597,8.553-20.018z"/>
				<g>
					<path style="fill-rule:evenodd;clip-rule:evenodd;fill:#A96F24;" d="M23.514-18.314h0.166l-1.122-20.655l-9.143,5.901
						c-0.194-2.355-0.222-4.225-0.083-5.61c0.083-0.804,0.318-2.078,0.707-3.823c0.36-1.663,0.54-2.673,0.54-3.034
						c0.055-0.637-0.291-1.164-1.039-1.58c-0.859-0.471-1.898-0.512-3.117-0.125c-1.497,1.108-2.798,2.341-3.907,3.699
						c1.357-0.499,2.507-0.582,3.449-0.25c0.859,0.305,1.413,0.928,1.663,1.871c-0.056,0.803-0.097,1.717-0.125,2.743
						c-0.055,2.05,0.36,5,1.247,8.852c0.914,3.907,2.937,7.051,6.068,9.434c0.969,0.748,2.022,1.385,3.158,1.912
						C22.53-18.702,23.042-18.48,23.514-18.314z"/>
					<path style="fill-rule:evenodd;clip-rule:evenodd;fill:#A26921;" d="M14.412-40.299c0.25-1.579,0.61-2.839,1.081-3.781
						c0.969-1.967,1.455-3.353,1.455-4.156c0-0.332-0.25-0.623-0.749-0.873c-0.582-0.305-1.33-0.374-2.244-0.208
						c-1.219,0.554-2.396,1.247-3.532,2.078c1.219-0.388,2.258-0.347,3.117,0.125c0.748,0.416,1.094,0.942,1.039,1.58
						c0,0.36-0.18,1.371-0.54,3.034c-0.388,1.745-0.624,3.02-0.707,3.823c-0.139,1.385-0.111,3.255,0.083,5.61l9.143-5.901
						l-0.167-3.034l-7.647,4.738l-0.582-0.998L14.412-40.299z"/>
					<path style="fill-rule:evenodd;clip-rule:evenodd;fill:#905D1C;" d="M14.163-38.262l0.582,0.998l7.647-4.738l-0.374-6.234
						c-0.471,0.167-0.956,0.277-1.455,0.333l-0.624,0.042l0.333-0.416c0.111-0.36-0.125-0.803-0.707-1.33
						c-0.471-0.444-1.33-0.666-2.577-0.666c-0.609,0.111-1.233,0.277-1.87,0.499l-1.164,0.458c0.915-0.167,1.663-0.097,2.244,0.208
						c0.499,0.25,0.749,0.541,0.749,0.873c0,0.804-0.485,2.189-1.455,4.156c-0.471,0.942-0.832,2.202-1.081,3.781L14.163-38.262z"/>
					<path style="fill-rule:evenodd;clip-rule:evenodd;fill:#6E4613;" d="M19.566-49.607c0.582,0.526,0.817,0.969,0.707,1.33
						l-0.333,0.416l0.624-0.042c0.499-0.055,0.983-0.166,1.455-0.333l-0.125-2.452c-1.44-0.111-3.075,0.028-4.904,0.416
						C18.236-50.273,19.095-50.051,19.566-49.607z"/>
				</g>
			</g>
			<g>
				
					<radialGradient id="SVGID_7_" cx="1730.417" cy="-14887.0254" r="24.0633" gradientTransform="matrix(0.0063 -0.8312 -0.8147 -0.0062 -12117.3398 1321.3398)" gradientUnits="userSpaceOnUse">
					<stop  offset="0" style="stop-color:#F5DC93"/>
					<stop  offset="0.2039" style="stop-color:#F4C125"/>
					<stop  offset="1" style="stop-color:#B47527"/>
				</radialGradient>
				<path style="fill-rule:evenodd;clip-rule:evenodd;fill:url(#SVGID_7_);" d="M24.345-18.106c2.743-0.028,5.029-0.942,6.857-2.743
					c1.69-1.635,2.715-3.713,3.075-6.234c0.277-2.245-0.014-5.542-0.873-9.892c-0.804-3.989-1.621-6.829-2.452-8.52
					c-0.97-1.939-1.884-3.38-2.743-4.322c-1.219-1.385-2.507-2.022-3.865-1.912c-1.413,0.111-2.854,0.845-4.322,2.203
					c-1.219,1.108-2.369,2.549-3.449,4.322c-1.219,1.967-2.133,4.018-2.743,6.151c-0.609,2.133-0.859,4.114-0.749,5.943
					c0.139,2.548,0.804,5,1.996,7.355c0.886,1.801,1.884,3.214,2.992,4.239c0.831,0.804,1.926,1.565,3.283,2.286
					C22.71-18.48,23.708-18.106,24.345-18.106z"/>
				<g>
					<path style="fill-rule:evenodd;clip-rule:evenodd;fill:#A96F24;" d="M32.199-42.002c-0.222-0.443-0.789-1.579-1.704-3.408
						c-0.97-1.718-1.912-2.798-2.826-3.242c-1.302-0.637-2.66-0.928-4.072-0.873c-1.414,0.055-2.757,0.471-4.031,1.247l-1.58,0.998
						c-0.471,0.554-0.942,1.247-1.413,2.078c-0.388,0.637-0.845,1.468-1.371,2.494c1.136-1.385,3.103-2.355,5.901-2.909
						c2.438-0.499,4.405-0.54,5.901-0.125c1.164,0.333,2.314,1.177,3.45,2.535c0.942,1.191,1.787,2.632,2.535,4.322
						C32.712-40.188,32.449-41.227,32.199-42.002z"/>
					<path style="fill-rule:evenodd;clip-rule:evenodd;fill:#A26921;" d="M30.496-45.41c0.915,1.829,1.482,2.964,1.704,3.408
						c-0.416-1.496-0.831-2.66-1.247-3.491l-0.997-1.87c-1.136-1.579-2.369-2.576-3.699-2.992c-0.803-0.25-1.925-0.305-3.366-0.167
						c-1.025,0.138-2.092,0.568-3.2,1.288c-0.416,0.416-0.984,1.067-1.704,1.954l1.58-0.998c1.274-0.776,2.618-1.191,4.031-1.247
						c1.413-0.056,2.77,0.235,4.072,0.873C28.584-48.208,29.526-47.128,30.496-45.41z"/>
					<path style="fill-rule:evenodd;clip-rule:evenodd;fill:#6E4613;" d="M22.891-50.522c1.44-0.138,2.563-0.083,3.366,0.167
						c1.33,0.416,2.563,1.413,3.699,2.992c-1.829-3.075-3.699-4.529-5.611-4.364c-1.551,0.167-3.103,0.998-4.654,2.494
						C20.799-49.954,21.865-50.384,22.891-50.522z"/>
				</g>
			</g>
			<g>
				
					<radialGradient id="SVGID_8_" cx="1771.2432" cy="-14934.8262" r="43.375" gradientTransform="matrix(9.581288e-006 -0.8312 -0.6946 9.581289e-006 -10351.0898 1456.4141)" gradientUnits="userSpaceOnUse">
					<stop  offset="0.4667" style="stop-color:#F4C125;stop-opacity:0"/>
					<stop  offset="1" style="stop-color:#603C10"/>
				</radialGradient>
				<path style="fill-rule:evenodd;clip-rule:evenodd;fill:url(#SVGID_8_);" d="M9.55-17.026c2.494,1.081,4.71,1.538,6.649,1.372
					c1.191-0.111,2.341-0.291,3.45-0.541c1.551,0.748,3.325,1.122,5.319,1.122c1.829,0,3.38-0.346,4.655-1.039
					c0.831,0.167,1.967,0.319,3.407,0.458c1.94,0.166,4.156-0.291,6.649-1.372c3.546-1.523,6.207-4.017,7.979-7.48
					c1.552-3.047,1.981-6.067,1.289-9.06c-0.194-0.915-1.067-3.089-2.619-6.525c-0.72-1.634-1.939-3.213-3.657-4.737
					c-1.579-1.414-2.896-2.245-3.948-2.494c-1.552-1.164-3.089-1.981-4.613-2.452c-1.497-0.499-3.076-0.803-4.738-0.915h-2.036
					v0.042c-0.942-0.804-1.939-1.164-2.993-1.081c-0.942,0.083-1.87,0.43-2.784,1.039c-2.078-0.083-4.226,0.222-6.442,0.915
					c-1.44,0.443-2.979,1.261-4.613,2.452c-1.053,0.249-2.355,1.08-3.907,2.494c-1.746,1.551-2.979,3.13-3.699,4.737
					c-1.551,3.436-2.424,5.61-2.618,6.525c-0.665,2.992-0.222,6.012,1.33,9.06C3.358-21.043,6.003-18.549,9.55-17.026z"/>
			</g>
			<g>
				
					<radialGradient id="SVGID_9_" cx="-293.3691" cy="-11043.2686" r="13.4368" gradientTransform="matrix(0.399 -0.7292 -0.8838 -0.3294 -9633.3516 -3859.1421)" gradientUnits="userSpaceOnUse">
					<stop  offset="0" style="stop-color:#F5DC93"/>
					<stop  offset="0.2039" style="stop-color:#F4C125"/>
					<stop  offset="1" style="stop-color:#B47527"/>
				</radialGradient>
				<path style="fill-rule:evenodd;clip-rule:evenodd;fill:url(#SVGID_9_);" d="M7.306-18.147c-0.443,1.939-0.429,3.934,0.042,5.984
					c0.388,1.746,1.067,3.311,2.037,4.696L9.342-7.384h0.083l0.083,0.042L9.55-7.425c1.773-0.25,3.644-0.859,5.61-1.829
					c2.161-1.053,3.99-2.355,5.486-3.906l-1.122-0.707c-0.831-0.526-1.427-0.956-1.787-1.289c-0.055-0.083-0.222-0.208-0.499-0.374
					h-0.125c-2.133-0.25-3.242-0.374-3.325-0.374c-1.524-0.222-3.172-0.776-4.945-1.663l-0.666-0.416L7.306-18.147z"/>
				
					<radialGradient id="SVGID_10_" cx="4484.5137" cy="-17162.3242" r="13.4368" gradientTransform="matrix(-0.399 -0.7292 0.8838 -0.3294 16996.1992 -2390.9165)" gradientUnits="userSpaceOnUse">
					<stop  offset="0" style="stop-color:#F5DC93"/>
					<stop  offset="0.2039" style="stop-color:#F4C125"/>
					<stop  offset="1" style="stop-color:#B47527"/>
				</radialGradient>
				<path style="fill-rule:evenodd;clip-rule:evenodd;fill:url(#SVGID_10_);" d="M39.14-7.467c0.915-1.135,1.593-2.701,2.037-4.696
					c0.471-2.05,0.499-4.045,0.083-5.984l-0.873,0.166l-0.707,0.416c-1.773,0.887-3.421,1.441-4.945,1.663
					c-0.083,0-1.192,0.125-3.325,0.374h-0.083c-0.305,0.194-0.485,0.318-0.54,0.374c-0.333,0.333-0.915,0.762-1.746,1.289
					l-1.122,0.707c0.36,0.387,0.859,0.845,1.496,1.371c1.302,1.025,2.632,1.87,3.99,2.535c1.995,0.998,3.865,1.607,5.61,1.829
					l0.042,0.083l0.042-0.042h0.083L39.14-7.467z"/>
				
					<radialGradient id="SVGID_11_" cx="1752.7007" cy="-14933.2578" r="22.4625" gradientTransform="matrix(1.850143e-005 -0.8312 -0.8312 1.850143e-005 -12387.6582 1456.5957)" gradientUnits="userSpaceOnUse">
					<stop  offset="0" style="stop-color:#F5DC93"/>
					<stop  offset="0.2039" style="stop-color:#F4C125"/>
					<stop  offset="1" style="stop-color:#B47527"/>
				</radialGradient>
				<path style="fill-rule:evenodd;clip-rule:evenodd;fill:url(#SVGID_11_);" d="M24.553-0.111c2.161-1.44,4.17-3.504,6.026-6.192
					c1.302-1.884,2.424-4.031,3.366-6.441c0.471-1.192,0.804-2.203,0.998-3.034c-0.582-0.111-1.233-0.25-1.953-0.416
					c-1.469-0.36-2.549-0.707-3.242-1.039c-1.025-0.526-2.785-0.43-5.278,0.291c-2.494-0.721-4.267-0.817-5.32-0.291
					c-0.692,0.333-1.759,0.679-3.2,1.039l-1.995,0.416c0.222,0.831,0.554,1.842,0.998,3.034c0.942,2.41,2.064,4.558,3.366,6.441
					c1.801,2.576,3.81,4.641,6.026,6.192v0.125l0.125-0.042l0.083,0.042V-0.111z"/>
			</g>
			<g>
				
					<radialGradient id="SVGID_12_" cx="1705.7017" cy="-14879.3105" r="8.5003" gradientTransform="matrix(0.0071 -0.8311 -0.7358 -0.0063 -10936.6992 1314.375)" gradientUnits="userSpaceOnUse">
					<stop  offset="0" style="stop-color:#9FAB41"/>
					<stop  offset="1" style="stop-color:#796D12"/>
				</radialGradient>
				<path style="fill-rule:evenodd;clip-rule:evenodd;fill:url(#SVGID_12_);" d="M22.309-18.646l-0.208,0.083
					c-0.97,2.494-1.524,4.599-1.662,6.316c-0.083,1.081-0.125,2.245-0.125,3.491l0.042,1.496l0.707-0.499l0.208-0.25
					c0.526-0.554,1.247-0.928,2.161-1.122c0.969-0.388,1.856-0.443,2.66-0.166c0.665,0.055,1.247,0.235,1.745,0.54l0.042,0.042
					c-0.167-0.803-0.388-1.455-0.665-1.953c-0.277-0.471-0.541-1.219-0.79-2.244c-0.25-1.025-0.374-1.843-0.374-2.452
					c0-0.792,0.132-1.748,0.395-2.867c-0.296,0.166-0.664,0.221-1.101,0.166h-0.125C24.248-17.954,23.278-18.147,22.309-18.646z"/>
				
					<radialGradient id="SVGID_13_" cx="1700.7871" cy="-14877.6777" r="4.5377" gradientTransform="matrix(0.0073 -0.8311 -0.735 -0.0065 -10923.5703 1310.5156)" gradientUnits="userSpaceOnUse">
					<stop  offset="0" style="stop-color:#9FAB41"/>
					<stop  offset="1" style="stop-color:#796D12"/>
				</radialGradient>
				<path style="fill-rule:evenodd;clip-rule:evenodd;fill:url(#SVGID_13_);" d="M21.602-9.835c-0.166,0.055-0.43,0.498-0.79,1.329
					l-0.458,1.247l1.039,0.873c0.915,0.499,1.953,0.554,3.117,0.166c1.164-0.388,2.078-0.914,2.743-1.579
					c0.333-0.36,0.541-0.665,0.624-0.915L27.545-9.42c-0.416-0.444-1.053-0.624-1.912-0.541c-0.526,0.055-1.178,0-1.954-0.166
					C23.153-10.237,22.461-10.141,21.602-9.835z"/>
				<path style="fill-rule:evenodd;clip-rule:evenodd;fill:#4E4906;" d="M23.015-9.462c-0.471-0.665-0.707-1.274-0.707-1.828
					c0-0.444,0.028-1.123,0.083-2.037c0.055-0.832,0.028-1.496-0.083-1.995c-0.028,0.027-0.083,0.36-0.166,0.997l-0.458,3.242
					c-0.028,0.333-0.055,0.582-0.083,0.748c-0.028,0.277,0.014,0.499,0.125,0.665l0.249,0.333l1.621,0.998l0.125-0.042
					C23.417-8.686,23.181-9.046,23.015-9.462z"/>
				<path style="fill-rule:evenodd;clip-rule:evenodd;fill:#4E4906;" d="M23.888-9.628l0.707-0.333
					c-0.139-0.083-0.235-0.236-0.291-0.457l-0.208-0.541c-0.138-0.277-0.291-0.665-0.457-1.164
					c-0.083,0.083-0.125,0.319-0.125,0.707c0.028,0.443,0.042,0.72,0.042,0.831C23.611-10.141,23.722-9.822,23.888-9.628z"/>
				<path style="fill-rule:evenodd;clip-rule:evenodd;fill:#5C5708;" d="M24.137-17.358c0.027,0.443,0.042,0.734,0.042,0.873
					c-0.028,0.582-0.055,1.053-0.083,1.413c-0.027,0.665,0.028,1.122,0.167,1.371c0.028-0.111,0.083-0.54,0.167-1.288
					c0.055-0.526,0.152-0.956,0.291-1.288v3.262c0.021-1.108,0.187-1.974,0.499-2.597c0.056,0.305,0.07,0.817,0.042,1.538
					c-0.028,0.693,0,1.205,0.083,1.538c0.139,1.191,0.305,2.05,0.499,2.577l1.87,0.79l-0.457-2.286l-0.374-0.79
					c-0.249-0.609-0.416-1.26-0.499-1.953c-0.083-0.804-0.125-1.58-0.125-2.328c0-0.166,0.014-0.485,0.042-0.956
					c0.027-0.443,0-0.748-0.083-0.915l-0.998,0.25c-0.416,0-0.692,0.028-0.831,0.083C24.22-18.009,24.137-17.773,24.137-17.358z"/>
			</g>
		</g>
	</g>
	<g id="Layer_14_1_">
		<g>
			
				<linearGradient id="SVGID_14_" gradientUnits="userSpaceOnUse" x1="1379.9624" y1="-1877.1138" x2="1390.4374" y2="-1877.1138" gradientTransform="matrix(0.8372 0 0 0.8372 -1145.4502 1546.3496)">
				<stop  offset="0" style="stop-color:#DBAC46"/>
				<stop  offset="1" style="stop-color:#F7E16C"/>
			</linearGradient>
			<path style="fill-rule:evenodd;clip-rule:evenodd;fill:url(#SVGID_14_);" d="M12.842-22.431c1.702,0.642,3.098,0.725,4.186,0.251
				c0.81-0.335,1.326-0.837,1.549-1.507c0.167-0.475,0.07-1.047-0.293-1.717c-0.363-0.642-0.893-1.256-1.59-1.842
				c-1.535-1.368-3.447-1.646-5.735-0.837c-1.144,0.39-1.409,1.325-0.795,2.804C10.75-23.827,11.642-22.878,12.842-22.431z"/>
			
				<linearGradient id="SVGID_15_" gradientUnits="userSpaceOnUse" x1="1385.5874" y1="-1869.8208" x2="1390.3124" y2="-1869.8208" gradientTransform="matrix(0.8372 0 0 0.8372 -1145.4502 1546.3496)">
				<stop  offset="0" style="stop-color:#DBAC46"/>
				<stop  offset="1" style="stop-color:#F7E16C"/>
			</linearGradient>
			<path style="fill-rule:evenodd;clip-rule:evenodd;fill:url(#SVGID_15_);" d="M15.982-18.245c1.145,0.083,1.939-0.112,2.386-0.586
				c0.418-0.446,0.349-0.712-0.209-0.795c-0.642-0.112-1.144-0.195-1.507-0.251c-0.698-0.112-1.242-0.125-1.632-0.042
				c-0.475,0.112-0.573,0.405-0.293,0.879C14.977-18.566,15.396-18.301,15.982-18.245z"/>
			
				<linearGradient id="SVGID_16_" gradientUnits="userSpaceOnUse" x1="1373.2876" y1="-1874.29" x2="1380.7126" y2="-1874.29" gradientTransform="matrix(0.8372 0 0 0.8372 -1145.4502 1546.3496)">
				<stop  offset="0" style="stop-color:#DBAC46"/>
				<stop  offset="1" style="stop-color:#F7E16C"/>
			</linearGradient>
			<path style="fill-rule:evenodd;clip-rule:evenodd;fill:url(#SVGID_16_);" d="M9.075-20.338c1.563-0.167,1.883-0.977,0.962-2.428
				c-0.865-1.451-1.925-2.289-3.181-2.512c-1.061-0.195-1.814-0.014-2.261,0.544c-0.474,0.558-0.488,1.214-0.042,1.967
				c0.39,0.698,1.088,1.298,2.093,1.8C7.596-20.492,8.405-20.283,9.075-20.338z"/>
			
				<linearGradient id="SVGID_17_" gradientUnits="userSpaceOnUse" x1="1379.6626" y1="-1868.2988" x2="1385.1376" y2="-1868.2988" gradientTransform="matrix(0.8372 0 0 0.8372 -1145.4502 1546.3496)">
				<stop  offset="0" style="stop-color:#DBAC46"/>
				<stop  offset="1" style="stop-color:#F7E16C"/>
			</linearGradient>
			<path style="fill-rule:evenodd;clip-rule:evenodd;fill:url(#SVGID_17_);" d="M11.837-16.948c1.452,0.223,2.233,0.154,2.345-0.209
				c0.084-0.251-0.098-0.53-0.544-0.837c-0.307-0.168-0.852-0.349-1.633-0.544c-0.865-0.195-1.549-0.293-2.051-0.293
				c-0.53,0-0.53,0.279,0,0.837C10.484-17.408,11.112-17.06,11.837-16.948z"/>
			
				<linearGradient id="SVGID_18_" gradientUnits="userSpaceOnUse" x1="1403.1123" y1="-1877.5508" x2="1409.7874" y2="-1877.5508" gradientTransform="matrix(0.8372 0 0 0.8372 -1145.4502 1546.3496)">
				<stop  offset="0" style="stop-color:#DBAC46"/>
				<stop  offset="1" style="stop-color:#F7E16C"/>
			</linearGradient>
			<path style="fill-rule:evenodd;clip-rule:evenodd;fill:url(#SVGID_18_);" d="M31.136-22.976c0.949,0.056,1.702-0.069,2.26-0.376
				c0.195-0.111,0.531-0.405,1.005-0.879c0.307-0.307,0.46-0.893,0.46-1.758c-0.028-0.949-0.321-1.577-0.879-1.884
				c-0.614-0.363-1.326-0.404-2.135-0.125c-0.782,0.251-1.465,0.711-2.052,1.381c-0.586,0.614-0.711,1.368-0.376,2.26
				C29.726-23.492,30.298-23.032,31.136-22.976z"/>
			
				<linearGradient id="SVGID_19_" gradientUnits="userSpaceOnUse" x1="1415.1377" y1="-1877.396" x2="1422.8627" y2="-1877.396" gradientTransform="matrix(0.8372 0 0 0.8372 -1145.4502 1546.3496)">
				<stop  offset="0" style="stop-color:#DBAC46"/>
				<stop  offset="1" style="stop-color:#F7E16C"/>
			</linearGradient>
			<path style="fill-rule:evenodd;clip-rule:evenodd;fill:url(#SVGID_19_);" d="M41.224-27.999c-1.228,0.391-1.87,0.949-1.925,1.674
				c-0.056,0.81,0.167,1.577,0.669,2.302c0.558,0.81,1.284,1.27,2.177,1.382c0.81,0.083,1.591-0.098,2.344-0.544
				c0.698-0.391,1.103-0.809,1.214-1.256c0.14-0.474,0.112-1.019-0.083-1.632c-0.223-0.782-0.684-1.381-1.381-1.8
				C43.457-28.348,42.452-28.39,41.224-27.999z"/>
			
				<linearGradient id="SVGID_20_" gradientUnits="userSpaceOnUse" x1="1411.3374" y1="-1870.8716" x2="1418.3624" y2="-1870.8716" gradientTransform="matrix(0.8372 0 0 0.8372 -1145.4502 1546.3496)">
				<stop  offset="0" style="stop-color:#DBAC46"/>
				<stop  offset="1" style="stop-color:#F7E16C"/>
			</linearGradient>
			<path style="fill-rule:evenodd;clip-rule:evenodd;fill:url(#SVGID_20_);" d="M38.712-21.887
				c-1.535,0.167-2.386,0.711-2.553,1.632c-0.14,0.949,0.111,1.605,0.753,1.967c0.558,0.307,1.284,0.349,2.177,0.125
				c1.116-0.251,1.954-0.669,2.512-1.256c0.53-0.614,0.572-1.2,0.125-1.758C41.196-21.817,40.191-22.055,38.712-21.887z"/>
			
				<linearGradient id="SVGID_21_" gradientUnits="userSpaceOnUse" x1="1402.2002" y1="-1869.293" x2="1409.4001" y2="-1869.293" gradientTransform="matrix(0.8372 0 0 0.8372 -1145.4502 1546.3496)">
				<stop  offset="0" style="stop-color:#DBAC46"/>
				<stop  offset="1" style="stop-color:#F7E16C"/>
			</linearGradient>
			<path style="fill-rule:evenodd;clip-rule:evenodd;fill:url(#SVGID_21_);" d="M31.261-17.115c2.065,0.028,3.153-0.363,3.265-1.172
				c0.084-0.585-0.237-1.144-0.963-1.674c-0.418-0.307-1.284-0.321-2.595-0.042c-1.34,0.251-2.135,0.585-2.386,1.004
				c-0.251,0.391-0.042,0.809,0.628,1.256C29.852-17.325,30.536-17.115,31.261-17.115z"/>
			
				<radialGradient id="SVGID_22_" cx="14438.9697" cy="-1393.1318" r="26.55" gradientTransform="matrix(1.576684e-005 0.8372 0.8916 1.576684e-005 1265.4263 -12126.3555)" gradientUnits="userSpaceOnUse">
				<stop  offset="0" style="stop-color:#FFFEF5"/>
				<stop  offset="1" style="stop-color:#FEE607"/>
			</radialGradient>
			<path style="fill-rule:evenodd;clip-rule:evenodd;fill:url(#SVGID_22_);" d="M13.219-23.896c1.479,0.502,2.693,0.572,3.642,0.209
				c0.67-0.279,1.117-0.698,1.34-1.256c0.111-0.363,0.014-0.824-0.293-1.382c-0.306-0.502-0.753-0.991-1.339-1.465
				c-1.34-1.116-3-1.353-4.982-0.711c-0.977,0.335-1.2,1.103-0.669,2.303C11.419-25.055,12.187-24.287,13.219-23.896z"/>
			
				<radialGradient id="SVGID_23_" cx="14444.5176" cy="-1393.1563" r="21.9995" gradientTransform="matrix(1.902771e-005 0.8372 1.0989 1.902771e-005 1554.1538 -12126.3496)" gradientUnits="userSpaceOnUse">
				<stop  offset="0" style="stop-color:#FFFEF5"/>
				<stop  offset="1" style="stop-color:#FEE607"/>
			</radialGradient>
			<path style="fill-rule:evenodd;clip-rule:evenodd;fill:url(#SVGID_23_);" d="M15.814-18.832c1.033,0.084,1.73-0.042,2.093-0.377
				c0.391-0.307,0.335-0.488-0.167-0.544c-1.284-0.223-2.205-0.293-2.763-0.209c-0.418,0.084-0.516,0.293-0.292,0.628
				C14.908-19.027,15.284-18.859,15.814-18.832z"/>
			
				<radialGradient id="SVGID_24_" cx="14440.373" cy="-1392.0288" r="25.9" gradientTransform="matrix(1.616253e-005 0.8372 0.8986 1.616253e-005 1273.2905 -12126.3574)" gradientUnits="userSpaceOnUse">
				<stop  offset="0" style="stop-color:#FFFEF5"/>
				<stop  offset="1" style="stop-color:#FEE607"/>
			</radialGradient>
			<path style="fill-rule:evenodd;clip-rule:evenodd;fill:url(#SVGID_24_);" d="M9.284-21.385c1.312-0.112,1.591-0.754,0.837-1.926
				c-0.726-1.117-1.619-1.772-2.679-1.968c-0.921-0.167-1.577-0.028-1.967,0.418c-0.363,0.447-0.363,0.963,0,1.549
				c0.335,0.558,0.935,1.032,1.8,1.423C8.056-21.497,8.726-21.329,9.284-21.385z"/>
			
				<radialGradient id="SVGID_25_" cx="14868.2168" cy="-1813.1602" r="22.5217" gradientTransform="matrix(-0.054 0.8355 1.0492 0.0678 2729.2676 -12331.8867)" gradientUnits="userSpaceOnUse">
				<stop  offset="0" style="stop-color:#FFFEF5"/>
				<stop  offset="1" style="stop-color:#FEE607"/>
			</radialGradient>
			<path style="fill-rule:evenodd;clip-rule:evenodd;fill:url(#SVGID_25_);" d="M12.131-17.534c1.228,0.224,1.897,0.224,2.009,0
				c0.083-0.195-0.056-0.404-0.419-0.628c-0.223-0.139-0.683-0.292-1.381-0.46c-0.726-0.195-1.311-0.307-1.758-0.335
				c-0.446-0.028-0.46,0.167-0.042,0.586C10.986-17.924,11.517-17.646,12.131-17.534z"/>
			
				<radialGradient id="SVGID_26_" cx="14438.3125" cy="-1395.04" r="28.4875" gradientTransform="matrix(1.469450e-005 0.8372 0.8909 1.469450e-005 1267.6738 -12126.3506)" gradientUnits="userSpaceOnUse">
				<stop  offset="0" style="stop-color:#FFFEF5"/>
				<stop  offset="1" style="stop-color:#FEE607"/>
			</radialGradient>
			<path style="fill-rule:evenodd;clip-rule:evenodd;fill:url(#SVGID_26_);" d="M31.01-23.855c0.893,0.028,1.591-0.083,2.093-0.334
				c0.167-0.084,0.474-0.335,0.92-0.753c0.279-0.279,0.418-0.796,0.418-1.549c-0.028-0.809-0.292-1.354-0.795-1.632
				c-0.558-0.307-1.228-0.335-2.009-0.084c-0.698,0.223-1.326,0.614-1.884,1.172c-0.531,0.558-0.642,1.214-0.335,1.967
				C29.698-24.315,30.229-23.911,31.01-23.855z"/>
			
				<radialGradient id="SVGID_27_" cx="14436.9375" cy="-1399.0034" r="32.4625" gradientTransform="matrix(1.289518e-005 0.8372 0.6332 1.289518e-005 914.0112 -12126.375)" gradientUnits="userSpaceOnUse">
				<stop  offset="0" style="stop-color:#FFFEF5"/>
				<stop  offset="1" style="stop-color:#FEE607"/>
			</radialGradient>
			<path style="fill-rule:evenodd;clip-rule:evenodd;fill:url(#SVGID_27_);" d="M40.722-27.999
				c-0.893,0.391-1.368,0.949-1.423,1.674c-0.028,0.782,0.153,1.535,0.544,2.261c0.418,0.809,0.949,1.27,1.591,1.381
				c0.614,0.083,1.214-0.098,1.8-0.544c0.502-0.391,0.795-0.809,0.879-1.256c0.083-0.502,0.07-1.046-0.042-1.633
				c-0.195-0.753-0.558-1.339-1.088-1.758C42.396-28.348,41.643-28.39,40.722-27.999z"/>
			
				<radialGradient id="SVGID_28_" cx="13811.4131" cy="-859.0073" r="23.9592" gradientTransform="matrix(0.0751 0.8338 1.0387 -0.0935 -120.083 -11630.5781)" gradientUnits="userSpaceOnUse">
				<stop  offset="0" style="stop-color:#FFFEF5"/>
				<stop  offset="1" style="stop-color:#FEE607"/>
			</radialGradient>
			<path style="fill-rule:evenodd;clip-rule:evenodd;fill:url(#SVGID_28_);" d="M38.545-21.846
				c-1.396,0.223-2.135,0.684-2.219,1.381c-0.083,0.698,0.182,1.145,0.795,1.34c0.502,0.195,1.172,0.182,2.009-0.042
				c1.005-0.307,1.73-0.698,2.177-1.172c0.446-0.475,0.446-0.893,0-1.256C40.806-22.013,39.884-22.097,38.545-21.846z"/>
			
				<radialGradient id="SVGID_29_" cx="13832.7168" cy="-873.8003" r="22.7608" gradientTransform="matrix(0.0727 0.8341 1.1486 -0.1001 21.4258 -11657.8164)" gradientUnits="userSpaceOnUse">
				<stop  offset="0" style="stop-color:#FFFEF5"/>
				<stop  offset="1" style="stop-color:#FEE607"/>
			</radialGradient>
			<path style="fill-rule:evenodd;clip-rule:evenodd;fill:url(#SVGID_29_);" d="M31.22-18.036c1.981-0.167,3-0.53,3.056-1.088
				c0.056-0.446-0.279-0.809-1.005-1.088c-0.418-0.195-1.256-0.139-2.512,0.167c-1.228,0.307-1.954,0.614-2.177,0.921
				c-0.223,0.279,0,0.544,0.67,0.795C29.894-18.078,30.549-17.98,31.22-18.036z"/>
			
				<radialGradient id="SVGID_30_" cx="1377.75" cy="-1874.4502" r="9.375" gradientTransform="matrix(0.8372 0 0 -0.8372 -1145.4502 -1592.3018)" gradientUnits="userSpaceOnUse">
				<stop  offset="0" style="stop-color:#FFF5B3;stop-opacity:0.8196"/>
				<stop  offset="1" style="stop-color:#FEE400;stop-opacity:0"/>
			</radialGradient>
			<path style="fill-rule:evenodd;clip-rule:evenodd;fill:url(#SVGID_30_);" d="M15.898-22.976c0-2.176-0.768-4.032-2.303-5.567
				c-1.535-1.535-3.391-2.302-5.567-2.302c-2.148,0-3.991,0.767-5.525,2.302C0.968-27.008,0.2-25.152,0.2-22.976
				c0,2.149,0.768,3.991,2.303,5.526c1.535,1.535,3.377,2.302,5.525,2.302c2.177,0,4.033-0.767,5.567-2.302
				C15.131-18.985,15.898-20.827,15.898-22.976z"/>
			
				<radialGradient id="SVGID_31_" cx="1418.6001" cy="-1877.9502" r="9.375" gradientTransform="matrix(0.8372 0 0 -0.8372 -1145.4502 -1598.1621)" gradientUnits="userSpaceOnUse">
				<stop  offset="0" style="stop-color:#FFF5B3;stop-opacity:0.8196"/>
				<stop  offset="1" style="stop-color:#FEE400;stop-opacity:0"/>
			</radialGradient>
			<path style="fill-rule:evenodd;clip-rule:evenodd;fill:url(#SVGID_31_);" d="M36.703-20.38c1.507,1.535,3.349,2.302,5.526,2.302
				s4.032-0.767,5.567-2.302s2.302-3.377,2.302-5.526c0-2.176-0.767-4.032-2.302-5.567s-3.391-2.302-5.567-2.302
				s-4.019,0.767-5.526,2.302c-1.535,1.535-2.302,3.391-2.302,5.567C34.401-23.757,35.168-21.916,36.703-20.38z"/>
		</g>
	</g>
	<g id="Layer_2_2_">
		<g>
			<g>
				<g>
					
						<linearGradient id="SVGID_32_" gradientUnits="userSpaceOnUse" x1="42.1792" y1="-16305.6914" x2="54.1042" y2="-16305.6914" gradientTransform="matrix(8.385744e-005 -1 1 -0.001 16330.3164 -5.1641)">
						<stop  offset="0" style="stop-color:#DBAC46"/>
						<stop  offset="1" style="stop-color:#F7E16C"/>
					</linearGradient>
					<path style="fill-rule:evenodd;clip-rule:evenodd;fill:url(#SVGID_32_);" d="M18.1-37.25c0.2,1.633,0.816,3.033,1.85,4.2
						c0.966,1.066,2.066,1.716,3.3,1.95c1.933,0.367,3.717,0.033,5.35-1c1.6-1.066,2.467-2.45,2.6-4.15
						c0.1-1.633-0.083-3.1-0.55-4.4c-0.467-1.2-1.05-2.017-1.75-2.45c-2.4-1.4-4.7-1.667-6.9-0.8C19-42.667,17.7-40.45,18.1-37.25z"
						/>
				</g>
				<g>
					
						<radialGradient id="SVGID_33_" cx="16281.6484" cy="-21.8022" r="27.45" gradientTransform="matrix(1.821494e-005 1 0.9995 1.821493e-005 46.4453 -16331.1475)" gradientUnits="userSpaceOnUse">
						<stop  offset="0" style="stop-color:#FFFEF5"/>
						<stop  offset="1" style="stop-color:#FEE607"/>
					</radialGradient>
					<path style="fill-rule:evenodd;clip-rule:evenodd;fill:url(#SVGID_33_);" d="M19.1-36.25c0.167,1.367,0.683,2.55,1.55,3.55
						c0.833,0.9,1.783,1.434,2.85,1.6c1.6,0.3,3.083,0.017,4.45-0.85c1.367-0.9,2.1-2.05,2.2-3.45s-0.066-2.65-0.5-3.75
						c-0.333-0.967-0.816-1.633-1.45-2c-2.067-1.2-3.983-1.434-5.75-0.7C19.883-40.85,18.767-38.983,19.1-36.25z"/>
				</g>
			</g>
			<g>
				<g>
					
						<radialGradient id="SVGID_34_" cx="16259.4609" cy="241.6113" r="384.525" gradientTransform="matrix(1.300306e-006 1 0.9998 1.300306e-006 -480.1836 -16331.0117)" gradientUnits="userSpaceOnUse">
						<stop  offset="0" style="stop-color:#FFFEF5"/>
						<stop  offset="1" style="stop-color:#FEE607"/>
					</radialGradient>
					<path style="fill-rule:evenodd;clip-rule:evenodd;fill:url(#SVGID_34_);" d="M45.85-28.5c0.933,0.867,1.4,1.583,1.4,2.15v0.95
						l0.25-0.55c0.1-0.5,0.017-1.183-0.25-2.05c-0.133-0.5-0.3-0.95-0.5-1.35c0.233-2.7,0.3-4.883,0.2-6.55
						c-0.034-1.1-0.617-2.567-1.75-4.4c-0.567-0.9-1.117-1.684-1.65-2.35l0.6,1.25c0.4,0.8,0.783,1.75,1.15,2.85
						c0.4,1.367,0.6,2.5,0.6,3.4c0,1.1-0.1,2.533-0.3,4.3c-0.533-0.5-1.233-0.85-2.1-1.05l-0.1-5.05c0-1.2-0.217-2.5-0.65-3.9
						c-0.367-1.267-0.733-2.15-1.1-2.65c-0.433-0.567-1.867-2-4.3-4.3l1.85,2.6c0.7,0.967,1.283,2.133,1.75,3.5
						c0.5,1.4,0.8,2.75,0.9,4.05c0.1,1.633-0.05,3.433-0.45,5.4c-0.4-0.067-1.066-0.1-2-0.1l-0.9,0.05
						c0.067-0.233,0.283-0.967,0.65-2.2c0.333-1.367,0.333-2.733,0-4.1c-0.733-2.933-2.1-5.316-4.1-7.15
						c-0.9-0.833-2.45-2.017-4.65-3.55c1.633,1.5,3.083,2.966,4.35,4.4c0.967,1.133,1.633,2.217,2,3.25c0.4,1.133,0.633,2.6,0.7,4.4
						c0.033,2.067-0.3,3.783-1,5.15c-1.067,0.1-2.083,0.267-3.05,0.5c0.4-1.3,0.783-2.683,1.15-4.15
						c0.333-1.533,0.25-3.217-0.25-5.05c-0.433-1.567-0.95-2.65-1.55-3.25c-0.7-0.7-1.733-2.267-3.1-4.7
						c0.5,1.667,1.184,3.2,2.05,4.6c0.6,1.033,0.966,1.95,1.1,2.75c0.133,0.8,0.184,2.183,0.15,4.15
						c-0.067,1.933-0.867,4.017-2.4,6.25c-2.5,0.5-4.4,0.75-5.7,0.75c-1.434,0-3.35-0.267-5.75-0.8c-1.533-2.133-2.333-4.2-2.4-6.2
						c-0.067-2-0.034-3.383,0.1-4.15c0.167-0.833,0.55-1.75,1.15-2.75c0.767-1.333,1.417-2.733,1.95-4.2l-0.05,0.4
						c0,0.1,0.083,0.467,0.25,1.1c0.3,0.733,0.483,1.317,0.55,1.75c0.067-0.233,0.167-0.633,0.3-1.2c0.133-0.5,0.25-0.867,0.35-1.1
						c0.067-0.1,0.35-0.45,0.85-1.05c0.233-0.267,0.367-0.433,0.4-0.5c0.034-0.033,0.05-0.133,0.05-0.3c0-0.067,0.033-0.133,0.1-0.2
						c0.133,0.1,0.233,0.317,0.3,0.65c0.133,0.433,0.2,0.667,0.2,0.7l0.3,0.9c0.267,0.6,0.417,1,0.45,1.2
						c0.167-0.133,0.316-0.417,0.45-0.85c0.067-0.233,0.15-0.55,0.25-0.95c0.067-0.133,0.167-0.65,0.3-1.55
						c0.033-0.1,0.133-0.383,0.3-0.85c0.133-0.333,0.183-0.617,0.15-0.85c0.267,0.066,0.617,0.583,1.05,1.55l0.4,0.9
						c0.167,0.333,0.283,0.617,0.35,0.85c0.066,0.533,0.117,0.933,0.15,1.2c0,0.5,0.083,0.9,0.25,1.2
						c0.133-0.066,0.217-0.25,0.25-0.55c0.033-0.167,0.05-0.383,0.05-0.65l0.2-0.85c0.066-0.367,0.1-0.9,0.1-1.6
						c-0.034,0.2-0.133,0.467-0.3,0.8c-0.2,0.333-0.3,0.583-0.3,0.75c0.033-1.267-0.017-2.133-0.15-2.6
						c-0.1-0.434-0.317-0.833-0.65-1.2c-0.5-0.533-0.933-0.833-1.3-0.9c-0.333,0.933-0.583,1.617-0.75,2.05
						c-0.2,0.5-0.333,0.883-0.4,1.15c-0.167,0.567-0.267,0.867-0.3,0.9c-0.433-0.067-0.683-0.517-0.75-1.35
						c-0.066-0.967-0.167-1.517-0.3-1.65c-0.067,0.367-0.417,0.85-1.05,1.45c-0.167,0.167-0.434,0.617-0.8,1.35
						c-0.133,0.3-0.267,0.45-0.4,0.45c-0.233,0.033-0.367-0.067-0.4-0.3c0-0.167,0.017-0.417,0.05-0.75c0-0.7,0.017-1.217,0.05-1.55
						c-0.1,0.066-0.2,0.233-0.3,0.5c-0.066,0.3-0.133,0.5-0.2,0.6l-0.15,0.6l-0.05-0.05l-0.3,0.9c-1.133,2.033-1.983,3.3-2.55,3.8
						c-0.6,0.6-1.117,1.683-1.55,3.25c-0.467,1.833-0.533,3.517-0.2,5.05c0.333,1.6,0.717,2.983,1.15,4.15
						c-1.033-0.233-2.066-0.4-3.1-0.5c-0.7-1.566-1.034-3.283-1-5.15c0.033-1.767,0.267-3.233,0.7-4.4
						c0.367-1.033,1.05-2.117,2.05-3.25c1.233-1.434,2.65-2.9,4.25-4.4c-2.133,1.533-3.667,2.716-4.6,3.55
						c-1.967,1.867-3.317,4.25-4.05,7.15c-0.333,1.367-0.35,2.733-0.05,4.1c0.4,1.233,0.617,1.967,0.65,2.2l-0.8-0.05
						c-1,0-1.7,0.033-2.1,0.1c-0.4-2.3-0.55-4.1-0.45-5.4c0.133-1.3,0.434-2.65,0.9-4.05c0.466-1.367,1.033-2.533,1.7-3.5l1.9-2.6
						c-2.433,2.3-3.85,3.733-4.25,4.3C7.683-43,7.3-42.117,6.9-40.85c-0.433,1.434-0.65,2.733-0.65,3.9l-0.05,5.1
						c-0.867,0.2-1.583,0.533-2.15,1c-0.233-2-0.35-3.433-0.35-4.3c0-0.9,0.233-2.033,0.7-3.4c0.333-1.1,0.7-2.05,1.1-2.85
						l0.65-1.25c-0.566,0.667-1.133,1.45-1.7,2.35c-1.1,1.833-1.7,3.3-1.8,4.4c-0.033,1.033-0.017,2.35,0.05,3.95
						c0.133,1.534,0.2,2.434,0.2,2.7L2.45-28c-0.233,0.867-0.317,1.55-0.25,2.05l0.25,0.55v-0.95c0-0.566,0.483-1.283,1.45-2.15
						c1.033-1.033,2.133-1.683,3.3-1.95c1.367-0.333,2.95-0.517,4.75-0.55c2.033-0.033,3.617,0.15,4.75,0.55
						c0.767,0.267,2.066,0.733,3.9,1.4c1.6,0.533,2.967,0.8,4.1,0.8H25c1.167,0,2.55-0.267,4.15-0.8c0.934-0.3,2.233-0.767,3.9-1.4
						c1.133-0.4,2.7-0.583,4.7-0.55c1.833,0.033,3.433,0.217,4.8,0.55C43.717-30.183,44.817-29.533,45.85-28.5z"/>
				</g>
				<g>
					<linearGradient id="SVGID_35_" gradientUnits="userSpaceOnUse" x1="19.5376" y1="-48.3252" x2="19.8626" y2="-48.3252">
						<stop  offset="0" style="stop-color:#DBAC46"/>
						<stop  offset="1" style="stop-color:#F7E16C"/>
					</linearGradient>
					<polygon style="fill-rule:evenodd;clip-rule:evenodd;fill:url(#SVGID_35_);" points="19.9,-48.55 19.8,-48.7 19.55,-47.95 
											"/>
				</g>
				<g>
					
						<linearGradient id="SVGID_36_" gradientUnits="userSpaceOnUse" x1="-568.582" y1="-15670.2363" x2="-552.936" y2="-15670.2363" gradientTransform="matrix(0.0767 -0.9971 0.9971 0.0767 15680.5713 605.0947)">
						<stop  offset="0" style="stop-color:#DBAC46"/>
						<stop  offset="1" style="stop-color:#F7E16C"/>
					</linearGradient>
					<path style="fill-rule:evenodd;clip-rule:evenodd;fill:url(#SVGID_36_);" d="M10.5-34.5c0.4,1.233,0.617,1.967,0.65,2.2
						l-0.8-0.05c-1,0-1.7,0.033-2.1,0.1L8.7-31.9h3.55l-0.6-1c-0.433-0.8-0.667-1.567-0.7-2.3c-0.067-1.167,0.066-2.533,0.4-4.1
						c0.433-1.9,1.05-3.184,1.85-3.85c0.433-0.367,0.75-0.6,0.95-0.7l0.8-1.05c1.233-1.434,2.65-2.9,4.25-4.4
						c-2.133,1.533-3.667,2.716-4.6,3.55c-1.967,1.867-3.317,4.25-4.05,7.15C10.217-37.233,10.2-35.867,10.5-34.5z"/>
				</g>
				<g>
					
						<linearGradient id="SVGID_37_" gradientUnits="userSpaceOnUse" x1="-568.6357" y1="-15679.4199" x2="-552.9897" y2="-15679.4199" gradientTransform="matrix(0.0767 -0.9971 0.9971 0.0767 15680.5713 605.0947)">
						<stop  offset="0" style="stop-color:#DBAC46"/>
						<stop  offset="1" style="stop-color:#F7E16C"/>
					</linearGradient>
					<path style="fill-rule:evenodd;clip-rule:evenodd;fill:url(#SVGID_37_);" d="M2.45-25.4v-0.95c0-0.333,0.283-0.85,0.85-1.55
						c0.233-0.633,0.367-0.967,0.4-1l0.2-0.3l-0.25-0.95c-0.2-0.767-0.316-1.5-0.35-2.2c-0.033-0.967,0.034-2,0.2-3.1
						c0.167-1.2,0.417-2.1,0.75-2.7c0.433-1.333,0.85-2.417,1.25-3.25l0.65-1.25c-0.566,0.667-1.133,1.45-1.7,2.35
						c-1.1,1.833-1.7,3.3-1.8,4.4c-0.033,1.033-0.017,2.35,0.05,3.95c0.133,1.534,0.2,2.434,0.2,2.7L2.45-28
						c-0.233,0.867-0.317,1.55-0.25,2.05L2.45-25.4z"/>
				</g>
				<g>
					
						<linearGradient id="SVGID_38_" gradientUnits="userSpaceOnUse" x1="-568.6016" y1="-15675.6592" x2="-552.9555" y2="-15675.6592" gradientTransform="matrix(0.0767 -0.9971 0.9971 0.0767 15680.5713 605.0947)">
						<stop  offset="0" style="stop-color:#DBAC46"/>
						<stop  offset="1" style="stop-color:#F7E16C"/>
					</linearGradient>
					<path style="fill-rule:evenodd;clip-rule:evenodd;fill:url(#SVGID_38_);" d="M5.8-31.15l1.05-0.25l0.1-4.4
						c0-0.8,0.117-1.817,0.35-3.05c0.3-1.4,0.617-2.433,0.95-3.1c0.733-1.4,1.167-2.117,1.3-2.15l0.25-0.05l2.5-3.65
						c-2.433,2.3-3.85,3.733-4.25,4.3C7.683-43,7.3-42.117,6.9-40.85c-0.433,1.434-0.65,2.733-0.65,3.9l-0.05,5.1
						c-0.867,0.2-1.583,0.533-2.15,1l0.8,0.15L5.8-31.15z"/>
				</g>
				<g>
					
						<linearGradient id="SVGID_39_" gradientUnits="userSpaceOnUse" x1="-568.5977" y1="-15667.1484" x2="-552.9516" y2="-15667.1484" gradientTransform="matrix(0.0767 -0.9971 0.9971 0.0767 15680.5713 605.0947)">
						<stop  offset="0" style="stop-color:#DBAC46"/>
						<stop  offset="1" style="stop-color:#F7E16C"/>
					</linearGradient>
					<path style="fill-rule:evenodd;clip-rule:evenodd;fill:url(#SVGID_39_);" d="M13.2-32.1l0.7,0.35l2.25,0.4l0.9,0.35l-0.6-1.8
						c-0.4-1.267-0.617-2.133-0.65-2.6c-0.033-0.533,0-1.45,0.1-2.75c0.067-1.233,0.117-2.017,0.15-2.35
						c0.1-0.433,0.434-0.983,1-1.65c0.167-0.633,0.467-1.3,0.9-2c0.767-1.333,1.417-2.733,1.95-4.2l-0.05,0.4l0.3-0.3l0.2-0.05
						l0.05-0.55c0-0.7,0.017-1.217,0.05-1.55c-0.1,0.066-0.2,0.233-0.3,0.5c-0.066,0.3-0.133,0.5-0.2,0.6l-0.15,0.6l-0.05-0.05
						l-0.3,0.9c-1.133,2.033-1.983,3.3-2.55,3.8c-0.6,0.6-1.117,1.683-1.55,3.25c-0.467,1.833-0.533,3.517-0.2,5.05
						c0.333,1.6,0.717,2.983,1.15,4.15C15.267-31.833,14.233-32,13.2-32.1z"/>
				</g>
				<g>
					
						<linearGradient id="SVGID_40_" gradientUnits="userSpaceOnUse" x1="-568.5664" y1="-15658.2715" x2="-552.9203" y2="-15658.2715" gradientTransform="matrix(0.0767 -0.9971 0.9971 0.0767 15680.5713 605.0947)">
						<stop  offset="0" style="stop-color:#DBAC46"/>
						<stop  offset="1" style="stop-color:#F7E16C"/>
					</linearGradient>
					<path style="fill-rule:evenodd;clip-rule:evenodd;fill:url(#SVGID_40_);" d="M27.2-47.75l0.4,0.1v-0.05
						c0-1.167-0.05-1.95-0.15-2.35c-0.1-0.434-0.317-0.833-0.65-1.2c-0.5-0.533-0.933-0.833-1.3-0.9l-0.3,0.7
						c0.566,0.333,1.017,0.817,1.35,1.45c0.167,0.267,0.317,0.733,0.45,1.4L27.2-47.75z"/>
				</g>
				<g>
					
						<linearGradient id="SVGID_41_" gradientUnits="userSpaceOnUse" x1="-568.6094" y1="-15662.7568" x2="-552.9633" y2="-15662.7568" gradientTransform="matrix(0.0767 -0.9971 0.9971 0.0767 15680.5713 605.0947)">
						<stop  offset="0" style="stop-color:#DBAC46"/>
						<stop  offset="1" style="stop-color:#F7E16C"/>
					</linearGradient>
					<path style="fill-rule:evenodd;clip-rule:evenodd;fill:url(#SVGID_41_);" d="M20.75-47.8c-0.1,0-0.183-0.017-0.25-0.05
						l-0.05,0.05l0.65,0.4l0.25-0.5c0.167-0.367,0.333-0.617,0.5-0.75c0.233-0.2,0.6-0.617,1.1-1.25l0.3-0.05
						c0-0.566-0.083-0.933-0.25-1.1c-0.067,0.367-0.417,0.85-1.05,1.45c-0.167,0.167-0.434,0.617-0.8,1.35
						C21.017-47.95,20.883-47.8,20.75-47.8z"/>
				</g>
				<g>
					
						<linearGradient id="SVGID_42_" gradientUnits="userSpaceOnUse" x1="-565.1963" y1="-15643.5947" x2="-550.5032" y2="-15643.5947" gradientTransform="matrix(0.0766 -0.9971 0.9971 0.0766 15681.7158 604.1143)">
						<stop  offset="0" style="stop-color:#DBAC46"/>
						<stop  offset="1" style="stop-color:#F7E16C"/>
					</linearGradient>
					<path style="fill-rule:evenodd;clip-rule:evenodd;fill:url(#SVGID_42_);" d="M44.75-30.7l0.85-0.15
						c-0.533-0.5-1.233-0.85-2.1-1.05l-0.1-5.05c0-1.2-0.217-2.5-0.65-3.9c-0.367-1.267-0.733-2.15-1.1-2.65
						c-0.433-0.567-1.867-2-4.3-4.3l1.85,2.6c0.233,0.3,0.5,0.75,0.8,1.35c0.667,0.467,1.133,1.083,1.4,1.85
						c0.333,0.867,0.617,2.017,0.85,3.45c0.233,1.367,0.35,2.5,0.35,3.4v3.55c0.733,0.167,1.283,0.367,1.65,0.6L44.75-30.7z"/>
				</g>
				<g>
					
						<linearGradient id="SVGID_43_" gradientUnits="userSpaceOnUse" x1="-565.1943" y1="-15653.127" x2="-550.5012" y2="-15653.127" gradientTransform="matrix(0.0766 -0.9971 0.9971 0.0766 15681.7158 604.1143)">
						<stop  offset="0" style="stop-color:#DBAC46"/>
						<stop  offset="1" style="stop-color:#F7E16C"/>
					</linearGradient>
					<path style="fill-rule:evenodd;clip-rule:evenodd;fill:url(#SVGID_43_);" d="M33.15-32.8c-0.1,0.133-0.217,0.383-0.35,0.75
						l-0.1,0.55l0.7-0.1c0.4-1.3,0.783-2.683,1.15-4.15c0.333-1.533,0.25-3.217-0.25-5.05c-0.433-1.567-0.95-2.65-1.55-3.25
						c-0.7-0.7-1.733-2.267-3.1-4.7c0.5,1.667,1.184,3.183,2.05,4.55l0.85,1.4c0.3,0.533,0.583,1.316,0.85,2.35
						c0.3,1.167,0.434,2.184,0.4,3.05c-0.033,0.933-0.117,1.9-0.25,2.9S33.283-32.933,33.15-32.8z"/>
				</g>
				<g>
					
						<linearGradient id="SVGID_44_" gradientUnits="userSpaceOnUse" x1="-565.208" y1="-15639.165" x2="-550.5149" y2="-15639.165" gradientTransform="matrix(0.0766 -0.9971 0.9971 0.0766 15681.7158 604.1143)">
						<stop  offset="0" style="stop-color:#DBAC46"/>
						<stop  offset="1" style="stop-color:#F7E16C"/>
					</linearGradient>
					<path style="fill-rule:evenodd;clip-rule:evenodd;fill:url(#SVGID_44_);" d="M46.75-27.5c0.333,0.533,0.5,0.917,0.5,1.15v0.95
						l0.25-0.55c0.1-0.5,0.017-1.183-0.25-2.05c-0.133-0.5-0.3-0.95-0.5-1.35c0.233-2.7,0.3-4.883,0.2-6.55
						c-0.034-1.1-0.617-2.567-1.75-4.4c-0.567-0.9-1.117-1.684-1.65-2.35l0.6,1.25c0.9,1.867,1.467,3.617,1.7,5.25l0.1,0.75
						c0.133,1.267,0.1,2.983-0.1,5.15l-0.2,0.8C46.283-28.683,46.65-28.033,46.75-27.5z"/>
				</g>
				<g>
					
						<linearGradient id="SVGID_45_" gradientUnits="userSpaceOnUse" x1="-565.2256" y1="-15649.2646" x2="-550.5325" y2="-15649.2646" gradientTransform="matrix(0.0766 -0.9971 0.9971 0.0766 15681.7158 604.1143)">
						<stop  offset="0" style="stop-color:#DBAC46"/>
						<stop  offset="1" style="stop-color:#F7E16C"/>
					</linearGradient>
					<path style="fill-rule:evenodd;clip-rule:evenodd;fill:url(#SVGID_45_);" d="M40.5-32l0.9-0.25c-0.4-0.067-1.066-0.1-2-0.1
						l-0.9,0.05c0.067-0.233,0.283-0.967,0.65-2.2c0.333-1.367,0.333-2.733,0-4.1c-0.733-2.933-2.1-5.316-4.1-7.15
						c-0.9-0.833-2.45-2.017-4.65-3.55c1.633,1.5,3.083,2.966,4.35,4.4l0.8,1.15c0.667,0.733,1.117,1.367,1.35,1.9
						c0.467,1.033,0.85,2.283,1.15,3.75c0.267,1.533,0.333,2.783,0.2,3.75c-0.1,0.833-0.217,1.45-0.35,1.85l-0.1,0.4h1.6
						C39.933-32.133,40.3-32.1,40.5-32z"/>
				</g>
			</g>
			<g>
				
					<radialGradient id="SVGID_46_" cx="24.5498" cy="-36.625" r="15.3001" gradientTransform="matrix(1 0 0 -1 0 -73.25)" gradientUnits="userSpaceOnUse">
					<stop  offset="0" style="stop-color:#FFF5B3;stop-opacity:0.8196"/>
					<stop  offset="1" style="stop-color:#FEE400;stop-opacity:0"/>
				</radialGradient>
				<path style="fill-rule:evenodd;clip-rule:evenodd;fill:url(#SVGID_46_);" d="M35.4-47.45c-2.967-3-6.583-4.5-10.85-4.5
					c-4.2,0-7.8,1.5-10.8,4.5c-2.967,3-4.45,6.617-4.45,10.85s1.483,7.85,4.45,10.85c3,2.967,6.6,4.45,10.8,4.45
					c4.267,0,7.883-1.483,10.85-4.45c3-3.033,4.5-6.65,4.5-10.85C39.9-40.833,38.4-44.45,35.4-47.45z"/>
			</g>
		</g>
	</g>
	<g id="Layer_4_1_">
	</g>
	<g id="Layer_1_2_">
	</g>
</symbol>
<use xlink:href="#pumpkin_1_"  width="50.115" height="54.905" id="pumpkin_x5F_mc" x="-0.017" y="-54.891" transform="matrix(1 0 0 -1 0 0)" style="overflow:visible;"/>
</svg>
