<?xml version="1.0" encoding="iso-8859-1"?>
<!-- Generator: Adobe Illustrator 15.1.0, SVG Export Plug-In . SVG Version: 6.00 Build 0)  -->
<!DOCTYPE svg PUBLIC "-//W3C//DTD SVG 1.1//EN" "http://www.w3.org/Graphics/SVG/1.1/DTD/svg11.dtd">
<svg version="1.1" id="FlashAICB" xmlns="http://www.w3.org/2000/svg" xmlns:xlink="http://www.w3.org/1999/xlink" x="0px" y="0px"
	 width="50.1px" height="54.9px" viewBox="0 0 50.1 54.9" style="enable-background:new 0 0 50.1 54.9;" xml:space="preserve">
<symbol  id="_x31_" viewBox="-0.017 -51.74 49.285 51.754">
	<g id="Layer_1_2_">
		<g>
			<g>
				
					<radialGradient id="SVGID_1_" cx="1849.7046" cy="-15008.1875" r="5.0254" gradientTransform="matrix(-0.0098 -0.8311 -2.0219 0.0239 -30302.5742 1882.4561)" gradientUnits="userSpaceOnUse">
					<stop  offset="0" style="stop-color:#F5DC93"/>
					<stop  offset="0.2039" style="stop-color:#F4C125"/>
					<stop  offset="1" style="stop-color:#B47527"/>
				</radialGradient>
				<path style="fill-rule:evenodd;clip-rule:evenodd;fill:url(#SVGID_1_);" d="M18.942-16.568c0.526,0.36,1.247,0.679,2.161,0.956
					c1.219,0.36,2.507,0.54,3.865,0.54c1.441,0,2.771-0.249,3.99-0.748c1.081-0.416,1.704-0.859,1.87-1.33
					c0.194-0.554,0.166-0.983-0.083-1.288l-8.187-0.54l-3.325,0.914L18.942-16.568z"/>
			</g>
			<g>
				
					<radialGradient id="SVGID_2_" cx="2089.1514" cy="-15268.9209" r="18.3314" gradientTransform="matrix(-0.047 -0.8298 0.9188 -0.0425 14165.5518 1069.1445)" gradientUnits="userSpaceOnUse">
					<stop  offset="0" style="stop-color:#F5DC93"/>
					<stop  offset="0.2039" style="stop-color:#F4C125"/>
					<stop  offset="1" style="stop-color:#B47527"/>
				</radialGradient>
				<path style="fill-rule:evenodd;clip-rule:evenodd;fill:url(#SVGID_2_);" d="M39.68-17.026c3.546-1.523,6.207-4.017,7.979-7.48
					c1.552-3.047,1.981-6.067,1.289-9.06c-0.194-0.915-1.067-3.089-2.619-6.525c-0.748-1.718-2.064-3.38-3.948-4.987
					c-1.69-1.44-3.006-2.202-3.948-2.286c-1.108-0.083-4.294,1.025-9.559,3.325l-3.948,26.224c0.831,1.025,3.532,1.746,8.104,2.161
					C34.97-15.488,37.187-15.945,39.68-17.026z"/>
			</g>
			<g>
				
					<radialGradient id="SVGID_3_" cx="1411.5498" cy="-1771.7998" r="25.4024" gradientTransform="matrix(-0.0103 -0.8311 0.9207 -0.0115 1681.9624 1133.8809)" gradientUnits="userSpaceOnUse">
					<stop  offset="0" style="stop-color:#F5DC93"/>
					<stop  offset="0.2039" style="stop-color:#F4C125"/>
					<stop  offset="1" style="stop-color:#B47527"/>
				</radialGradient>
				<path style="fill-rule:evenodd;clip-rule:evenodd;fill:url(#SVGID_3_);" d="M40.678-20.018c2.604-1.58,4.377-3.671,5.319-6.276
					c0.914-2.659,1.067-5.61,0.457-8.852c-0.526-2.798-1.454-5.167-2.784-7.106c-1.164-1.718-2.591-3.242-4.281-4.572
					c-1.746-1.385-3.505-2.369-5.278-2.951c-1.497-0.499-3.076-0.803-4.738-0.915h-2.036L25.55-18.314l2.577,0.416
					c2.078,0.25,3.976,0.305,5.694,0.167C36.23-17.926,38.516-18.688,40.678-20.018z"/>
			</g>
			<g>
				
					<radialGradient id="SVGID_4_" cx="1463.9019" cy="-14571.9424" r="18.3674" gradientTransform="matrix(0.0475 -0.8298 -0.9186 -0.0424 -13443.8789 581.1631)" gradientUnits="userSpaceOnUse">
					<stop  offset="0" style="stop-color:#F5DC93"/>
					<stop  offset="0.2039" style="stop-color:#F4C125"/>
					<stop  offset="1" style="stop-color:#B47527"/>
				</radialGradient>
				<path style="fill-rule:evenodd;clip-rule:evenodd;fill:url(#SVGID_4_);" d="M9.55-17.026c2.494,1.081,4.71,1.538,6.649,1.372
					c1.58-0.139,3.214-0.43,4.904-0.873c2.161-0.554,3.38-1.15,3.657-1.787l-4.364-25.725c-5.292-2.299-8.492-3.407-9.601-3.325
					c-0.942,0.083-2.258,0.845-3.948,2.286c-1.856,1.607-3.172,3.27-3.948,4.987c-1.551,3.436-2.424,5.61-2.618,6.525
					c-0.665,2.992-0.222,6.012,1.33,9.06C3.358-21.043,6.003-18.549,9.55-17.026z"/>
				<g>
					<path style="fill-rule:evenodd;clip-rule:evenodd;fill:#A96F24;" d="M2.402-26.542c0.499,2.05,1.787,3.906,3.865,5.569
						c1.606,1.302,3.338,2.258,5.195,2.868c1.801,0.609,4.904,0.568,9.309-0.125l3.034-5.694l-3.408-20.115
						c-0.998-0.443-2.092-0.9-3.283-1.371l-1.871,1.912l0.042,15.294L3.233-26.293l-0.457-1.288
						c-0.333-1.053-0.554-2.05-0.665-2.992C2-31.626,2.028-32.929,2.194-34.48c0.138-1.357,0.318-2.424,0.54-3.2
						c0.305-0.998,0.249-1.58-0.167-1.746c-0.831,1.829-1.302,2.868-1.413,3.117c-0.527,1.274-0.873,2.479-1.039,3.616h0.333
						c0.499,0,0.831,0.457,0.997,1.371C1.723-29.659,2.042-28.066,2.402-26.542z"/>
					<path style="fill-rule:evenodd;clip-rule:evenodd;fill:#A26921;" d="M15.285-28.205l-0.042-15.294L5.186-33.192L2.61-32.444
						l0.208-2.41c0.222-1.829,0.568-3.311,1.039-4.447c0.748-1.8,1.274-3.158,1.579-4.072l-0.25-0.083
						c-1.053,1.136-1.814,2.258-2.286,3.366l-0.333,0.665c0.416,0.166,0.471,0.748,0.167,1.746c-0.222,0.776-0.402,1.842-0.54,3.2
						C2.028-32.929,2-31.626,2.111-30.574c0.111,0.942,0.333,1.939,0.665,2.992l0.457,1.288L15.285-28.205z"/>
					<path style="fill-rule:evenodd;clip-rule:evenodd;fill:#905D1C;" d="M17.114-45.41c-3.408-1.385-5.514-2.036-6.317-1.954
						c-0.582,0.056-1.413,0.444-2.493,1.164c-1.108,0.748-2.147,1.663-3.117,2.743l0.25,0.083c-0.305,0.914-0.831,2.272-1.579,4.072
						c-0.471,1.136-0.817,2.618-1.039,4.447l-0.208,2.41l2.576-0.748L17.114-45.41z"/>
				</g>
			</g>
			<g>
				
					<radialGradient id="SVGID_5_" cx="1690.8999" cy="-14867.0957" r="25.4024" gradientTransform="matrix(0.0103 -0.8311 -0.9207 -0.0115 -13691.832 1216.04)" gradientUnits="userSpaceOnUse">
					<stop  offset="0" style="stop-color:#F5DC93"/>
					<stop  offset="0.2039" style="stop-color:#F4C125"/>
					<stop  offset="1" style="stop-color:#B47527"/>
				</radialGradient>
				<path style="fill-rule:evenodd;clip-rule:evenodd;fill:url(#SVGID_5_);" d="M8.553-20.018c2.161,1.33,4.447,2.092,6.857,2.286
					c2.743,0.222,5.5,0.028,8.27-0.582l-1.787-32.375c-2.105-0.166-4.363,0.139-6.774,0.915c-1.773,0.582-3.532,1.565-5.278,2.951
					c-1.69,1.33-3.117,2.854-4.281,4.572c-1.33,1.939-2.258,4.308-2.784,7.106c-0.61,3.241-0.457,6.192,0.457,8.852
					C4.175-23.689,5.948-21.597,8.553-20.018z"/>
				<g>
					<path style="fill-rule:evenodd;clip-rule:evenodd;fill:#A96F24;" d="M23.514-18.314h0.166l-1.122-20.655l-9.143,5.901
						c-0.194-2.355-0.222-4.225-0.083-5.61c0.083-0.804,0.318-2.078,0.707-3.823c0.36-1.663,0.54-2.673,0.54-3.034
						c0.055-0.637-0.291-1.164-1.039-1.58c-0.859-0.471-1.898-0.512-3.117-0.125c-1.497,1.108-2.798,2.341-3.907,3.699
						c1.357-0.499,2.507-0.582,3.449-0.25c0.859,0.305,1.413,0.928,1.663,1.871c-0.056,0.803-0.097,1.717-0.125,2.743
						c-0.055,2.05,0.36,5,1.247,8.852c0.914,3.907,2.937,7.051,6.068,9.434c0.969,0.748,2.022,1.385,3.158,1.912
						C22.53-18.702,23.042-18.48,23.514-18.314z"/>
					<path style="fill-rule:evenodd;clip-rule:evenodd;fill:#A26921;" d="M14.412-40.299c0.25-1.579,0.61-2.839,1.081-3.781
						c0.969-1.967,1.455-3.353,1.455-4.156c0-0.332-0.25-0.623-0.749-0.873c-0.582-0.305-1.33-0.374-2.244-0.208
						c-1.219,0.554-2.396,1.247-3.532,2.078c1.219-0.388,2.258-0.347,3.117,0.125c0.748,0.416,1.094,0.942,1.039,1.58
						c0,0.36-0.18,1.371-0.54,3.034c-0.388,1.745-0.624,3.02-0.707,3.823c-0.139,1.385-0.111,3.255,0.083,5.61l9.143-5.901
						l-0.167-3.034l-7.647,4.738l-0.582-0.998L14.412-40.299z"/>
					<path style="fill-rule:evenodd;clip-rule:evenodd;fill:#905D1C;" d="M14.163-38.262l0.582,0.998l7.647-4.738l-0.374-6.234
						c-0.471,0.167-0.956,0.277-1.455,0.333l-0.624,0.042l0.333-0.416c0.111-0.36-0.125-0.803-0.707-1.33
						c-0.471-0.444-1.33-0.666-2.577-0.666c-0.609,0.111-1.233,0.277-1.87,0.499l-1.164,0.458c0.915-0.167,1.663-0.097,2.244,0.208
						c0.499,0.25,0.749,0.541,0.749,0.873c0,0.804-0.485,2.189-1.455,4.156c-0.471,0.942-0.832,2.202-1.081,3.781L14.163-38.262z"/>
					<path style="fill-rule:evenodd;clip-rule:evenodd;fill:#6E4613;" d="M19.566-49.607c0.582,0.526,0.817,0.969,0.707,1.33
						l-0.333,0.416l0.624-0.042c0.499-0.055,0.983-0.166,1.455-0.333l-0.125-2.452c-1.44-0.111-3.075,0.028-4.904,0.416
						C18.236-50.273,19.095-50.051,19.566-49.607z"/>
				</g>
			</g>
			<g>
				
					<radialGradient id="SVGID_6_" cx="1730.417" cy="-14887.0254" r="24.0633" gradientTransform="matrix(0.0063 -0.8312 -0.8147 -0.0062 -12117.3398 1321.3398)" gradientUnits="userSpaceOnUse">
					<stop  offset="0" style="stop-color:#F5DC93"/>
					<stop  offset="0.2039" style="stop-color:#F4C125"/>
					<stop  offset="1" style="stop-color:#B47527"/>
				</radialGradient>
				<path style="fill-rule:evenodd;clip-rule:evenodd;fill:url(#SVGID_6_);" d="M24.345-18.106c2.743-0.028,5.029-0.942,6.857-2.743
					c1.69-1.635,2.715-3.713,3.075-6.234c0.277-2.245-0.014-5.542-0.873-9.892c-0.804-3.989-1.621-6.829-2.452-8.52
					c-0.97-1.939-1.884-3.38-2.743-4.322c-1.219-1.385-2.507-2.022-3.865-1.912c-1.413,0.111-2.854,0.845-4.322,2.203
					c-1.219,1.108-2.369,2.549-3.449,4.322c-1.219,1.967-2.133,4.018-2.743,6.151c-0.609,2.133-0.859,4.114-0.749,5.943
					c0.139,2.548,0.804,5,1.996,7.355c0.886,1.801,1.884,3.214,2.992,4.239c0.831,0.804,1.926,1.565,3.283,2.286
					C22.71-18.48,23.708-18.106,24.345-18.106z"/>
				<g>
					<path style="fill-rule:evenodd;clip-rule:evenodd;fill:#A96F24;" d="M32.199-42.002c-0.222-0.443-0.789-1.579-1.704-3.408
						c-0.97-1.718-1.912-2.798-2.826-3.242c-1.302-0.637-2.66-0.928-4.072-0.873c-1.414,0.055-2.757,0.471-4.031,1.247l-1.58,0.998
						c-0.471,0.554-0.942,1.247-1.413,2.078c-0.388,0.637-0.845,1.468-1.371,2.494c1.136-1.385,3.103-2.355,5.901-2.909
						c2.438-0.499,4.405-0.54,5.901-0.125c1.164,0.333,2.314,1.177,3.45,2.535c0.942,1.191,1.787,2.632,2.535,4.322
						C32.712-40.188,32.449-41.227,32.199-42.002z"/>
					<path style="fill-rule:evenodd;clip-rule:evenodd;fill:#A26921;" d="M30.496-45.41c0.915,1.829,1.482,2.964,1.704,3.408
						c-0.416-1.496-0.831-2.66-1.247-3.491l-0.997-1.87c-1.136-1.579-2.369-2.576-3.699-2.992c-0.803-0.25-1.925-0.305-3.366-0.167
						c-1.025,0.138-2.092,0.568-3.2,1.288c-0.416,0.416-0.984,1.067-1.704,1.954l1.58-0.998c1.274-0.776,2.618-1.191,4.031-1.247
						c1.413-0.056,2.77,0.235,4.072,0.873C28.584-48.208,29.526-47.128,30.496-45.41z"/>
					<path style="fill-rule:evenodd;clip-rule:evenodd;fill:#6E4613;" d="M22.891-50.522c1.44-0.138,2.563-0.083,3.366,0.167
						c1.33,0.416,2.563,1.413,3.699,2.992c-1.829-3.075-3.699-4.529-5.611-4.364c-1.551,0.167-3.103,0.998-4.654,2.494
						C20.799-49.954,21.865-50.384,22.891-50.522z"/>
				</g>
			</g>
			<g>
				
					<radialGradient id="SVGID_7_" cx="1771.2432" cy="-14934.8262" r="43.375" gradientTransform="matrix(9.581288e-006 -0.8312 -0.6946 9.581289e-006 -10351.0898 1456.4141)" gradientUnits="userSpaceOnUse">
					<stop  offset="0.4667" style="stop-color:#F4C125;stop-opacity:0"/>
					<stop  offset="1" style="stop-color:#603C10"/>
				</radialGradient>
				<path style="fill-rule:evenodd;clip-rule:evenodd;fill:url(#SVGID_7_);" d="M9.55-17.026c2.494,1.081,4.71,1.538,6.649,1.372
					c1.191-0.111,2.341-0.291,3.45-0.541c1.551,0.748,3.325,1.122,5.319,1.122c1.829,0,3.38-0.346,4.655-1.039
					c0.831,0.167,1.967,0.319,3.407,0.458c1.94,0.166,4.156-0.291,6.649-1.372c3.546-1.523,6.207-4.017,7.979-7.48
					c1.552-3.047,1.981-6.067,1.289-9.06c-0.194-0.915-1.067-3.089-2.619-6.525c-0.72-1.634-1.939-3.213-3.657-4.737
					c-1.579-1.414-2.896-2.245-3.948-2.494c-1.552-1.164-3.089-1.981-4.613-2.452c-1.497-0.499-3.076-0.803-4.738-0.915h-2.036
					v0.042c-0.942-0.804-1.939-1.164-2.993-1.081c-0.942,0.083-1.87,0.43-2.784,1.039c-2.078-0.083-4.226,0.222-6.442,0.915
					c-1.44,0.443-2.979,1.261-4.613,2.452c-1.053,0.249-2.355,1.08-3.907,2.494c-1.746,1.551-2.979,3.13-3.699,4.737
					c-1.551,3.436-2.424,5.61-2.618,6.525c-0.665,2.992-0.222,6.012,1.33,9.06C3.358-21.043,6.003-18.549,9.55-17.026z"/>
			</g>
			<g>
				
					<radialGradient id="SVGID_8_" cx="-293.3691" cy="-11043.2686" r="13.4368" gradientTransform="matrix(0.399 -0.7292 -0.8838 -0.3294 -9633.3516 -3859.1421)" gradientUnits="userSpaceOnUse">
					<stop  offset="0" style="stop-color:#F5DC93"/>
					<stop  offset="0.2039" style="stop-color:#F4C125"/>
					<stop  offset="1" style="stop-color:#B47527"/>
				</radialGradient>
				<path style="fill-rule:evenodd;clip-rule:evenodd;fill:url(#SVGID_8_);" d="M7.306-18.147c-0.443,1.939-0.429,3.934,0.042,5.984
					c0.388,1.746,1.067,3.311,2.037,4.696L9.342-7.384h0.083l0.083,0.042L9.55-7.425c1.773-0.25,3.644-0.859,5.61-1.829
					c2.161-1.053,3.99-2.355,5.486-3.906l-1.122-0.707c-0.831-0.526-1.427-0.956-1.787-1.289c-0.055-0.083-0.222-0.208-0.499-0.374
					h-0.125c-2.133-0.25-3.242-0.374-3.325-0.374c-1.524-0.222-3.172-0.776-4.945-1.663l-0.666-0.416L7.306-18.147z"/>
				
					<radialGradient id="SVGID_9_" cx="4484.5137" cy="-17162.3242" r="13.4368" gradientTransform="matrix(-0.399 -0.7292 0.8838 -0.3294 16996.1992 -2390.9165)" gradientUnits="userSpaceOnUse">
					<stop  offset="0" style="stop-color:#F5DC93"/>
					<stop  offset="0.2039" style="stop-color:#F4C125"/>
					<stop  offset="1" style="stop-color:#B47527"/>
				</radialGradient>
				<path style="fill-rule:evenodd;clip-rule:evenodd;fill:url(#SVGID_9_);" d="M39.14-7.467c0.915-1.135,1.593-2.701,2.037-4.696
					c0.471-2.05,0.499-4.045,0.083-5.984l-0.873,0.166l-0.707,0.416c-1.773,0.887-3.421,1.441-4.945,1.663
					c-0.083,0-1.192,0.125-3.325,0.374h-0.083c-0.305,0.194-0.485,0.318-0.54,0.374c-0.333,0.333-0.915,0.762-1.746,1.289
					l-1.122,0.707c0.36,0.387,0.859,0.845,1.496,1.371c1.302,1.025,2.632,1.87,3.99,2.535c1.995,0.998,3.865,1.607,5.61,1.829
					l0.042,0.083l0.042-0.042h0.083L39.14-7.467z"/>
				
					<radialGradient id="SVGID_10_" cx="1752.7007" cy="-14933.2578" r="22.4625" gradientTransform="matrix(1.850143e-005 -0.8312 -0.8312 1.850143e-005 -12387.6582 1456.5957)" gradientUnits="userSpaceOnUse">
					<stop  offset="0" style="stop-color:#F5DC93"/>
					<stop  offset="0.2039" style="stop-color:#F4C125"/>
					<stop  offset="1" style="stop-color:#B47527"/>
				</radialGradient>
				<path style="fill-rule:evenodd;clip-rule:evenodd;fill:url(#SVGID_10_);" d="M24.553-0.111c2.161-1.44,4.17-3.504,6.026-6.192
					c1.302-1.884,2.424-4.031,3.366-6.441c0.471-1.192,0.804-2.203,0.998-3.034c-0.582-0.111-1.233-0.25-1.953-0.416
					c-1.469-0.36-2.549-0.707-3.242-1.039c-1.025-0.526-2.785-0.43-5.278,0.291c-2.494-0.721-4.267-0.817-5.32-0.291
					c-0.692,0.333-1.759,0.679-3.2,1.039l-1.995,0.416c0.222,0.831,0.554,1.842,0.998,3.034c0.942,2.41,2.064,4.558,3.366,6.441
					c1.801,2.576,3.81,4.641,6.026,6.192v0.125l0.125-0.042l0.083,0.042V-0.111z"/>
			</g>
			<g>
				
					<radialGradient id="SVGID_11_" cx="1705.7017" cy="-14879.3105" r="8.5003" gradientTransform="matrix(0.0071 -0.8311 -0.7358 -0.0063 -10936.6992 1314.375)" gradientUnits="userSpaceOnUse">
					<stop  offset="0" style="stop-color:#9FAB41"/>
					<stop  offset="1" style="stop-color:#796D12"/>
				</radialGradient>
				<path style="fill-rule:evenodd;clip-rule:evenodd;fill:url(#SVGID_11_);" d="M22.309-18.646l-0.208,0.083
					c-0.97,2.494-1.524,4.599-1.662,6.316c-0.083,1.081-0.125,2.245-0.125,3.491l0.042,1.496l0.707-0.499l0.208-0.25
					c0.526-0.554,1.247-0.928,2.161-1.122c0.969-0.388,1.856-0.443,2.66-0.166c0.665,0.055,1.247,0.235,1.745,0.54l0.042,0.042
					c-0.167-0.803-0.388-1.455-0.665-1.953c-0.277-0.471-0.541-1.219-0.79-2.244c-0.25-1.025-0.374-1.843-0.374-2.452
					c0-0.792,0.132-1.748,0.395-2.867c-0.296,0.166-0.664,0.221-1.101,0.166h-0.125C24.248-17.954,23.278-18.147,22.309-18.646z"/>
				
					<radialGradient id="SVGID_12_" cx="1700.7871" cy="-14877.6777" r="4.5377" gradientTransform="matrix(0.0073 -0.8311 -0.735 -0.0065 -10923.5703 1310.5156)" gradientUnits="userSpaceOnUse">
					<stop  offset="0" style="stop-color:#9FAB41"/>
					<stop  offset="1" style="stop-color:#796D12"/>
				</radialGradient>
				<path style="fill-rule:evenodd;clip-rule:evenodd;fill:url(#SVGID_12_);" d="M21.602-9.835c-0.166,0.055-0.43,0.498-0.79,1.329
					l-0.458,1.247l1.039,0.873c0.915,0.499,1.953,0.554,3.117,0.166c1.164-0.388,2.078-0.914,2.743-1.579
					c0.333-0.36,0.541-0.665,0.624-0.915L27.545-9.42c-0.416-0.444-1.053-0.624-1.912-0.541c-0.526,0.055-1.178,0-1.954-0.166
					C23.153-10.237,22.461-10.141,21.602-9.835z"/>
				<path style="fill-rule:evenodd;clip-rule:evenodd;fill:#4E4906;" d="M23.015-9.462c-0.471-0.665-0.707-1.274-0.707-1.828
					c0-0.444,0.028-1.123,0.083-2.037c0.055-0.832,0.028-1.496-0.083-1.995c-0.028,0.027-0.083,0.36-0.166,0.997l-0.458,3.242
					c-0.028,0.333-0.055,0.582-0.083,0.748c-0.028,0.277,0.014,0.499,0.125,0.665l0.249,0.333l1.621,0.998l0.125-0.042
					C23.417-8.686,23.181-9.046,23.015-9.462z"/>
				<path style="fill-rule:evenodd;clip-rule:evenodd;fill:#4E4906;" d="M23.888-9.628l0.707-0.333
					c-0.139-0.083-0.235-0.236-0.291-0.457l-0.208-0.541c-0.138-0.277-0.291-0.665-0.457-1.164
					c-0.083,0.083-0.125,0.319-0.125,0.707c0.028,0.443,0.042,0.72,0.042,0.831C23.611-10.141,23.722-9.822,23.888-9.628z"/>
				<path style="fill-rule:evenodd;clip-rule:evenodd;fill:#5C5708;" d="M24.137-17.358c0.027,0.443,0.042,0.734,0.042,0.873
					c-0.028,0.582-0.055,1.053-0.083,1.413c-0.027,0.665,0.028,1.122,0.167,1.371c0.028-0.111,0.083-0.54,0.167-1.288
					c0.055-0.526,0.152-0.956,0.291-1.288v3.262c0.021-1.108,0.187-1.974,0.499-2.597c0.056,0.305,0.07,0.817,0.042,1.538
					c-0.028,0.693,0,1.205,0.083,1.538c0.139,1.191,0.305,2.05,0.499,2.577l1.87,0.79l-0.457-2.286l-0.374-0.79
					c-0.249-0.609-0.416-1.26-0.499-1.953c-0.083-0.804-0.125-1.58-0.125-2.328c0-0.166,0.014-0.485,0.042-0.956
					c0.027-0.443,0-0.748-0.083-0.915l-0.998,0.25c-0.416,0-0.692,0.028-0.831,0.083C24.22-18.009,24.137-17.773,24.137-17.358z"/>
			</g>
			<g>
				<linearGradient id="SVGID_13_" gradientUnits="userSpaceOnUse" x1="36.1748" y1="-20.0278" x2="42.0248" y2="-20.0278">
					<stop  offset="0" style="stop-color:#866327"/>
					<stop  offset="1" style="stop-color:#DEC162"/>
				</linearGradient>
				<path style="fill-rule:evenodd;clip-rule:evenodd;fill:url(#SVGID_13_);" d="M38.775-21.95c-0.025,0-0.05,0-0.075,0
					c-1.5,0.167-2.333,0.7-2.5,1.6c-0.133,0.967,0.117,1.617,0.75,1.95c0.533,0.333,1.25,0.383,2.15,0.15
					c1.1-0.267,1.933-0.683,2.5-1.25c0.533-0.6,0.566-1.183,0.1-1.75c-0.034-0.067-0.1-0.15-0.2-0.25c0.233,0.333,0.167,0.7-0.2,1.1
					c-0.433,0.467-1.15,0.85-2.15,1.15c-0.833,0.233-1.5,0.25-2,0.05c-0.6-0.2-0.867-0.65-0.8-1.35c0.066-0.7,0.8-1.15,2.2-1.35
					C38.611-21.931,38.686-21.947,38.775-21.95z"/>
				
					<radialGradient id="SVGID_14_" cx="15534.1484" cy="674.7305" r="19.9179" gradientTransform="matrix(0.0897 0.996 1.2407 -0.1118 -2205.8877 -15429.7627)" gradientUnits="userSpaceOnUse">
					<stop  offset="0" style="stop-color:#785120"/>
					<stop  offset="1" style="stop-color:#2A1804"/>
				</radialGradient>
				<path style="fill-rule:evenodd;clip-rule:evenodd;fill:url(#SVGID_14_);" d="M38.775-21.95c-0.089,0.003-0.164,0.02-0.225,0.05
					c-1.4,0.2-2.133,0.65-2.2,1.35c-0.067,0.7,0.2,1.15,0.8,1.35c0.5,0.2,1.167,0.184,2-0.05c1-0.3,1.717-0.683,2.15-1.15
					c0.367-0.4,0.434-0.767,0.2-1.1c-0.067-0.067-0.133-0.117-0.2-0.15c-0.433-0.4-1.216-0.517-2.35-0.35
					c-0.067,0.033-0.117,0.05-0.15,0.05H38.775z"/>
				
					<radialGradient id="SVGID_15_" cx="16291.75" cy="-25.3486" r="26.9875" gradientTransform="matrix(1.852710e-005 1 0.7559 1.852709e-005 47.3589 -16331.1992)" gradientUnits="userSpaceOnUse">
					<stop  offset="0" style="stop-color:#785120"/>
					<stop  offset="1" style="stop-color:#2A1804"/>
				</radialGradient>
				<path style="fill-rule:evenodd;clip-rule:evenodd;fill:url(#SVGID_15_);" d="M42.2-28.25c-0.434-0.1-0.934-0.017-1.5,0.25
					c-0.833,0.333-1.284,0.833-1.35,1.5l-0.05,0.15c-0.033,0.367,0.017,0.717,0.15,1.05c0.066,0.433,0.2,0.833,0.4,1.2
					c0.4,0.8,0.917,1.25,1.55,1.35c0.167,0.033,0.333,0.033,0.5,0c0.467-0.033,0.9-0.217,1.3-0.55c0.5-0.367,0.8-0.784,0.9-1.25
					c0.066-0.5,0.05-1.034-0.05-1.6c-0.2-0.733-0.566-1.317-1.1-1.75C42.75-28.1,42.5-28.217,42.2-28.25z"/>
				<linearGradient id="SVGID_16_" gradientUnits="userSpaceOnUse" x1="39.3374" y1="-25.4858" x2="45.7624" y2="-25.4858">
					<stop  offset="0" style="stop-color:#866327"/>
					<stop  offset="1" style="stop-color:#DEC162"/>
				</linearGradient>
				<path style="fill-rule:evenodd;clip-rule:evenodd;fill:url(#SVGID_16_);" d="M42.2-28.25c0.3,0.033,0.55,0.15,0.75,0.35
					c0.533,0.433,0.9,1.017,1.1,1.75c0.1,0.566,0.117,1.1,0.05,1.6c-0.1,0.466-0.4,0.883-0.9,1.25c-0.4,0.333-0.833,0.517-1.3,0.55
					c0.067,0.033,0.15,0.05,0.25,0.05c0.8,0.067,1.567-0.117,2.3-0.55c0.7-0.367,1.1-0.783,1.2-1.25c0.133-0.467,0.117-1-0.05-1.6
					c-0.233-0.767-0.7-1.367-1.4-1.8C43.633-28.233,42.967-28.35,42.2-28.25z"/>
				
					<linearGradient id="SVGID_17_" gradientUnits="userSpaceOnUse" x1="-569.6816" y1="-15634.5957" x2="-555.0882" y2="-15634.5957" gradientTransform="matrix(0.0771 -0.997 0.997 0.0771 15677.1152 608.0557)">
					<stop  offset="0" style="stop-color:#866327"/>
					<stop  offset="1" style="stop-color:#DEC162"/>
				</linearGradient>
				<path style="fill-rule:evenodd;clip-rule:evenodd;fill:url(#SVGID_17_);" d="M45.85-35.35l0.05,0.55
					c0.133,1.267,0.117,2.966-0.05,5.1l-0.25,0.8c0.633,0.733,1,1.367,1.1,1.9v0.05c0.333,0.5,0.5,0.867,0.5,1.1v0.95l0.25-0.5
					c0.066-0.5-0.017-1.2-0.25-2.1c-0.133-0.5-0.3-0.933-0.5-1.3c0.233-2.7,0.3-4.867,0.2-6.5c-0.066-1.1-0.65-2.55-1.75-4.35
					c-0.533-0.934-1.083-1.733-1.65-2.4l0.6,1.25c0.4,0.833,0.783,1.783,1.15,2.85c0.067,0.3,0.15,0.583,0.25,0.85l0.15,0.75
					c0.067,0.3,0.117,0.567,0.15,0.8L45.85-35.35z"/>
				
					<radialGradient id="SVGID_18_" cx="16260.3105" cy="239.6104" r="381.675" gradientTransform="matrix(1.310015e-006 1 1 1.310015e-006 -476.2314 -16331.0117)" gradientUnits="userSpaceOnUse">
					<stop  offset="0" style="stop-color:#785120"/>
					<stop  offset="1" style="stop-color:#2A1804"/>
				</radialGradient>
				<path style="fill-rule:evenodd;clip-rule:evenodd;fill:url(#SVGID_18_);" d="M45.85-35.35c0,0.3,0,0.567,0,0.8
					c0,1.1-0.083,2.517-0.25,4.25l-0.9,0.15l-0.5-0.3c-0.367-0.2-0.9-0.383-1.6-0.55v-3.55c0-0.9-0.117-2.017-0.35-3.35
					c-0.233-1.434-0.517-2.583-0.85-3.45c-0.267-0.733-0.7-1.333-1.3-1.8c0.333,0.633,0.617,1.333,0.85,2.1
					c0.466,1.367,0.767,2.7,0.9,4c0.1,1.633-0.05,3.417-0.45,5.35l-0.9,0.25c-0.2-0.1-0.55-0.133-1.05-0.1H37.8l0.15-0.4
					c0.1-0.367,0.2-0.966,0.3-1.8c0.133-0.967,0.067-2.217-0.2-3.75c-0.267-1.433-0.633-2.667-1.1-3.7
					c-0.233-0.5-0.617-1.066-1.15-1.7c0.434,0.667,0.75,1.3,0.95,1.9c0.433,1.133,0.667,2.6,0.7,4.4c0.033,2.033-0.3,3.717-1,5.05
					c-1.034,0.1-2.034,0.267-3,0.5l-0.7,0.1l0.1-0.5c0.133-0.367,0.25-0.617,0.35-0.75c0.133-0.167,0.267-0.733,0.4-1.7
					c0.133-1,0.217-1.967,0.25-2.9c0.033-0.867-0.1-1.867-0.4-3c-0.267-1.034-0.55-1.817-0.85-2.35l-0.85-1.35
					c0.6,1.033,0.967,1.95,1.1,2.75s0.183,2.183,0.15,4.15c-0.067,1.9-0.867,3.95-2.4,6.15c-2.5,0.5-4.383,0.75-5.65,0.75
					c-1.4,0-3.3-0.25-5.7-0.75c-1.533-2.133-2.333-4.183-2.4-6.15c-0.033-2,0.017-3.383,0.15-4.15c0-0.233,0.067-0.5,0.2-0.8
					c-0.567,0.7-0.883,1.267-0.95,1.7c-0.067,0.333-0.133,1.1-0.2,2.3c-0.066,1.3-0.083,2.216-0.05,2.75
					c0.033,0.433,0.233,1.3,0.6,2.6l0.65,1.75l-0.95-0.3l-2.25-0.45l-0.7-0.35c-0.667-1.567-0.983-3.25-0.95-5.05
					c0.033-1.8,0.267-3.267,0.7-4.4c0.267-0.7,0.667-1.433,1.2-2.2c-0.2,0.133-0.5,0.367-0.9,0.7c-0.8,0.667-1.417,1.95-1.85,3.85
					c-0.333,1.533-0.466,2.883-0.4,4.05c0.033,0.733,0.267,1.5,0.7,2.3l0.6,0.95H8.9L8.45-31.7c-0.367-2.3-0.5-4.083-0.4-5.35
					c0.1-1.3,0.383-2.633,0.85-4c0.333-0.9,0.7-1.717,1.1-2.45l-0.25,0.05c-0.133,0.034-0.567,0.75-1.3,2.15
					c-0.333,0.667-0.633,1.683-0.9,3.05C7.317-36.983,7.2-35.967,7.2-35.2l-0.1,4.35L6.05-30.6L5.1-30.15l-0.8-0.1
					c-0.2-2-0.3-3.433-0.3-4.3c0-0.8,0.167-1.8,0.5-3c-0.333,0.6-0.583,1.5-0.75,2.7c-0.167,1.1-0.233,2.117-0.2,3.05
					c0.034,0.733,0.15,1.466,0.35,2.2l0.25,0.95l-0.2,0.3C3.917-28.317,3.8-28,3.6-27.4c0.133-0.2,0.316-0.4,0.55-0.6
					c1.033-0.967,2.117-1.6,3.25-1.9c1.367-0.333,2.95-0.517,4.75-0.55c2,0,3.567,0.184,4.7,0.55c0.767,0.3,2.05,0.767,3.85,1.4
					c1.633,0.533,3,0.8,4.1,0.8h0.35c1.133,0,2.5-0.267,4.1-0.8c0.9-0.3,2.183-0.767,3.85-1.4c1.1-0.367,2.65-0.55,4.65-0.55
					c1.833,0.034,3.433,0.217,4.8,0.55c1.133,0.3,2.217,0.933,3.25,1.9c0.367,0.367,0.667,0.7,0.9,1c-0.1-0.533-0.467-1.167-1.1-1.9
					l0.25-0.8c0.167-2.133,0.183-3.833,0.05-5.1L45.85-35.35z M27.25-47.2l-0.15-0.75c-0.167-0.633-0.317-1.083-0.45-1.35
					c-0.333-0.6-0.767-1.067-1.3-1.4c-0.2,0.567-0.35,1-0.45,1.3c-0.233,0.467-0.383,0.85-0.45,1.15
					c-0.167,0.567-0.267,0.867-0.3,0.9c-0.433-0.066-0.667-0.517-0.7-1.35c0-0.2-0.017-0.383-0.05-0.55l-0.35,0.05
					c-0.466,0.633-0.833,1.05-1.1,1.25c-0.167,0.133-0.333,0.383-0.5,0.75l-0.25,0.5l-0.6-0.45l0.05-0.05
					c-0.1,0-0.167-0.083-0.2-0.25c0-0.066,0.017-0.167,0.05-0.3l-0.05,0.15l-0.2,0.05L20-47.25c0,0.1,0.067,0.45,0.2,1.05
					c0.333,0.767,0.517,1.35,0.55,1.75c0.1-0.2,0.217-0.583,0.35-1.15c0.1-0.5,0.217-0.867,0.35-1.1c0.033-0.133,0.3-0.483,0.8-1.05
					c0.267-0.267,0.417-0.433,0.45-0.5c0-0.033,0-0.133,0-0.3c0-0.1,0.05-0.167,0.15-0.2c0.1,0.1,0.2,0.317,0.3,0.65
					c0.1,0.434,0.167,0.667,0.2,0.7l0.25,0.9c0.267,0.567,0.417,0.95,0.45,1.15c0.167-0.1,0.317-0.383,0.45-0.85
					c0.1-0.2,0.183-0.5,0.25-0.9c0.067-0.133,0.167-0.65,0.3-1.55c0.034-0.1,0.133-0.383,0.3-0.85
					c0.133-0.333,0.183-0.617,0.15-0.85c0.267,0.067,0.617,0.583,1.05,1.55l0.4,0.85C27.083-47.683,27.183-47.433,27.25-47.2z
					 M27.65-46.95l-0.35-0.1c0.034,0.533,0.067,0.933,0.1,1.2c0.033,0.467,0.117,0.85,0.25,1.15c0.133-0.033,0.233-0.216,0.3-0.55
					C27.983-45.417,28-45.633,28-45.9l0.15-0.8c0.1-0.367,0.15-0.9,0.15-1.6c-0.033,0.2-0.133,0.466-0.3,0.8
					c-0.2,0.333-0.317,0.583-0.35,0.75C27.65-46.85,27.65-46.917,27.65-46.95z"/>
				
					<linearGradient id="SVGID_19_" gradientUnits="userSpaceOnUse" x1="-569.668" y1="-15638.9707" x2="-555.0745" y2="-15638.9707" gradientTransform="matrix(0.0771 -0.997 0.997 0.0771 15677.1152 608.0557)">
					<stop  offset="0" style="stop-color:#866327"/>
					<stop  offset="1" style="stop-color:#DEC162"/>
				</linearGradient>
				<path style="fill-rule:evenodd;clip-rule:evenodd;fill:url(#SVGID_19_);" d="M45.6-30.3c-0.567-0.467-1.283-0.817-2.15-1.05
					l-0.1-5c0-1.167-0.2-2.467-0.6-3.9c-0.4-1.233-0.767-2.1-1.1-2.6c-0.433-0.566-1.867-2-4.3-4.3l2.05,2.9
					c0.167,0.267,0.367,0.617,0.6,1.05c0.033,0.034,0.067,0.05,0.1,0.05c0.6,0.467,1.033,1.066,1.3,1.8
					c0.333,0.867,0.617,2.017,0.85,3.45c0.233,1.333,0.35,2.45,0.35,3.35V-31c0.7,0.167,1.233,0.35,1.6,0.55l0.5,0.3L45.6-30.3z"/>
				
					<linearGradient id="SVGID_20_" gradientUnits="userSpaceOnUse" x1="-569.6973" y1="-15644.5898" x2="-555.1038" y2="-15644.5898" gradientTransform="matrix(0.0771 -0.997 0.997 0.0771 15677.1152 608.0557)">
					<stop  offset="0" style="stop-color:#866327"/>
					<stop  offset="1" style="stop-color:#DEC162"/>
				</linearGradient>
				<path style="fill-rule:evenodd;clip-rule:evenodd;fill:url(#SVGID_20_);" d="M41.4-31.7c-0.4-0.033-1.05-0.05-1.95-0.05
					L38.5-31.7c0.067-0.267,0.3-1,0.7-2.2c0.3-1.367,0.283-2.733-0.05-4.1c-0.733-2.9-2.1-5.25-4.1-7.05
					c-0.867-0.833-2.383-2.017-4.55-3.55c1.6,1.467,3.017,2.917,4.25,4.35l0.85,1.15c0.066,0.067,0.133,0.133,0.2,0.2
					c0.534,0.633,0.917,1.2,1.15,1.7c0.466,1.034,0.833,2.267,1.1,3.7c0.267,1.533,0.333,2.783,0.2,3.75
					c-0.1,0.833-0.2,1.433-0.3,1.8l-0.15,0.4h1.65c0.5-0.034,0.85,0,1.05,0.1L41.4-31.7z"/>
				<linearGradient id="SVGID_21_" gradientUnits="userSpaceOnUse" x1="28.564" y1="-18.2739" x2="34.539" y2="-18.2739">
					<stop  offset="0" style="stop-color:#866327"/>
					<stop  offset="1" style="stop-color:#DEC162"/>
				</linearGradient>
				<path style="fill-rule:evenodd;clip-rule:evenodd;fill:url(#SVGID_21_);" d="M28.6-18.95c-0.133,0.367,0.1,0.733,0.7,1.1
					c0.633,0.434,1.3,0.65,2,0.65c2.067,0.034,3.15-0.367,3.25-1.2c0.067-0.333-0.017-0.65-0.25-0.95c0,0.033,0,0.083,0,0.15
					c-0.033,0.534-1.033,0.883-3,1.05c-0.667,0.066-1.316-0.017-1.95-0.25C28.883-18.567,28.633-18.75,28.6-18.95z"/>
				
					<radialGradient id="SVGID_22_" cx="15561.4443" cy="653.3369" r="18.921" gradientTransform="matrix(0.0867 0.9962 1.3722 -0.1194 -2221.5557 -15457.9727)" gradientUnits="userSpaceOnUse">
					<stop  offset="0" style="stop-color:#785120"/>
					<stop  offset="1" style="stop-color:#2A1804"/>
				</radialGradient>
				<path style="fill-rule:evenodd;clip-rule:evenodd;fill:url(#SVGID_22_);" d="M34.3-19.35c-0.033-0.367-0.367-0.683-1-0.95
					c-0.4-0.2-1.233-0.133-2.5,0.2c-1.2,0.3-1.917,0.6-2.15,0.9c-0.066,0.067-0.083,0.15-0.05,0.25c0.033,0.2,0.283,0.383,0.75,0.55
					c0.633,0.233,1.283,0.316,1.95,0.25c1.967-0.167,2.967-0.517,3-1.05C34.3-19.267,34.3-19.317,34.3-19.35z"/>
				<linearGradient id="SVGID_23_" gradientUnits="userSpaceOnUse" x1="29.3213" y1="-25.4658" x2="34.8713" y2="-25.4658">
					<stop  offset="0" style="stop-color:#866327"/>
					<stop  offset="1" style="stop-color:#DEC162"/>
				</linearGradient>
				<path style="fill-rule:evenodd;clip-rule:evenodd;fill:url(#SVGID_23_);" d="M29.35-25.65c-0.067,0.4-0.017,0.816,0.15,1.25
					c0.3,0.867,0.867,1.316,1.7,1.35c0.933,0.066,1.683-0.05,2.25-0.35c0.2-0.1,0.533-0.4,1-0.9c0.3-0.3,0.45-0.883,0.45-1.75
					c-0.033-0.934-0.333-1.55-0.9-1.85c0.3,0.3,0.467,0.767,0.5,1.4c0,0.733-0.15,1.233-0.45,1.5c-0.433,0.433-0.733,0.683-0.9,0.75
					c-0.5,0.267-1.2,0.383-2.1,0.35c-0.767-0.067-1.283-0.467-1.55-1.2C29.4-25.3,29.35-25.483,29.35-25.65z"/>
				
					<radialGradient id="SVGID_24_" cx="16292.8613" cy="-22.0288" r="23.675" gradientTransform="matrix(2.111933e-005 1 1.0639 2.111933e-005 48.2925 -16331.1611)" gradientUnits="userSpaceOnUse">
					<stop  offset="0" style="stop-color:#785120"/>
					<stop  offset="1" style="stop-color:#2A1804"/>
				</radialGradient>
				<path style="fill-rule:evenodd;clip-rule:evenodd;fill:url(#SVGID_24_);" d="M34-27.9v-0.05c-0.1-0.066-0.2-0.133-0.3-0.2
					c-0.567-0.3-1.233-0.333-2-0.1c-0.7,0.233-1.317,0.633-1.85,1.2c-0.4,0.4-0.567,0.867-0.5,1.4c0,0.167,0.05,0.35,0.15,0.55
					c0.267,0.733,0.783,1.133,1.55,1.2c0.9,0.033,1.6-0.083,2.1-0.35c0.167-0.067,0.467-0.317,0.9-0.75
					c0.3-0.267,0.45-0.767,0.45-1.5C34.467-27.133,34.3-27.6,34-27.9z"/>
				
					<radialGradient id="SVGID_25_" cx="16294.5762" cy="-19.5112" r="21.525" gradientTransform="matrix(2.322880e-005 1 1.0738 2.322880e-005 43.2725 -16331.1758)" gradientUnits="userSpaceOnUse">
					<stop  offset="0" style="stop-color:#785120"/>
					<stop  offset="1" style="stop-color:#2A1804"/>
				</radialGradient>
				<path style="fill-rule:evenodd;clip-rule:evenodd;fill:url(#SVGID_25_);" d="M10.65-22c0.167-0.3,0.067-0.75-0.3-1.35
					c-0.733-1.133-1.633-1.783-2.7-1.95C7.317-25.367,7-25.4,6.7-25.4c-0.434,0.066-0.767,0.233-1,0.5
					c-0.333,0.433-0.333,0.95,0,1.55c0.333,0.533,0.933,1,1.8,1.4c0.767,0.4,1.433,0.567,2,0.5C10.133-21.517,10.517-21.7,10.65-22z
					"/>
				<linearGradient id="SVGID_26_" gradientUnits="userSpaceOnUse" x1="4.5625" y1="-22.9106" x2="10.7375" y2="-22.9106">
					<stop  offset="0" style="stop-color:#866327"/>
					<stop  offset="1" style="stop-color:#DEC162"/>
				</linearGradient>
				<path style="fill-rule:evenodd;clip-rule:evenodd;fill:url(#SVGID_26_);" d="M6.7-25.4c-0.833-0.1-1.45,0.1-1.85,0.6
					c-0.467,0.566-0.483,1.216-0.05,1.95c0.4,0.7,1.1,1.3,2.1,1.8c0.934,0.466,1.733,0.683,2.4,0.65c1.2-0.133,1.65-0.667,1.35-1.6
					c-0.133,0.3-0.517,0.483-1.15,0.55c-0.567,0.067-1.233-0.1-2-0.5c-0.867-0.4-1.467-0.867-1.8-1.4c-0.333-0.6-0.333-1.117,0-1.55
					C5.933-25.167,6.267-25.333,6.7-25.4z"/>
				
					<radialGradient id="SVGID_27_" cx="16804.5273" cy="-560.7212" r="18.7135" gradientTransform="matrix(-0.0642 0.9979 1.2538 0.0807 1806.9912 -16757.2344)" gradientUnits="userSpaceOnUse">
					<stop  offset="0" style="stop-color:#785120"/>
					<stop  offset="1" style="stop-color:#2A1804"/>
				</radialGradient>
				<path style="fill-rule:evenodd;clip-rule:evenodd;fill:url(#SVGID_27_);" d="M14.3-17.65c0.1-0.167-0.033-0.367-0.4-0.6
					c-0.2-0.133-0.65-0.283-1.35-0.45c-0.733-0.2-1.316-0.316-1.75-0.35c-0.233-0.034-0.35,0.017-0.35,0.15c0,0.1,0.1,0.25,0.3,0.45
					c0.433,0.434,0.967,0.7,1.6,0.8C13.517-17.417,14.167-17.417,14.3-17.65z"/>
				<linearGradient id="SVGID_28_" gradientUnits="userSpaceOnUse" x1="9.8252" y1="-17.9067" x2="14.3752" y2="-17.9067">
					<stop  offset="0" style="stop-color:#866327"/>
					<stop  offset="1" style="stop-color:#DEC162"/>
				</linearGradient>
				<path style="fill-rule:evenodd;clip-rule:evenodd;fill:url(#SVGID_28_);" d="M10.45-18.9c-0.1,0-0.2,0-0.3,0
					c-0.5,0-0.5,0.267,0,0.8c0.533,0.6,1.167,0.95,1.9,1.05c1.434,0.233,2.2,0.167,2.3-0.2c0.033-0.1,0.017-0.233-0.05-0.4
					c-0.133,0.233-0.783,0.233-1.95,0c-0.633-0.1-1.167-0.367-1.6-0.8C10.55-18.65,10.45-18.8,10.45-18.9z"/>
				
					<radialGradient id="SVGID_29_" cx="16298.0195" cy="-20.4277" r="18.2875" gradientTransform="matrix(2.734108e-005 1 1.3117 2.734108e-005 50.0005 -16331.1689)" gradientUnits="userSpaceOnUse">
					<stop  offset="0" style="stop-color:#785120"/>
					<stop  offset="1" style="stop-color:#2A1804"/>
				</radialGradient>
				<path style="fill-rule:evenodd;clip-rule:evenodd;fill:url(#SVGID_29_);" d="M14.8-19.65c0,0.066,0.017,0.15,0.05,0.25
					c0.233,0.3,0.617,0.467,1.15,0.5c1,0.066,1.683-0.067,2.05-0.4c0.267-0.2,0.333-0.333,0.2-0.4
					c-0.033-0.066-0.15-0.117-0.35-0.15c-1.267-0.2-2.183-0.267-2.75-0.2C14.85-19.983,14.733-19.85,14.8-19.65z"/>
				<linearGradient id="SVGID_30_" gradientUnits="userSpaceOnUse" x1="14.7876" y1="-19.0117" x2="18.7126" y2="-19.0117">
					<stop  offset="0" style="stop-color:#866327"/>
					<stop  offset="1" style="stop-color:#DEC162"/>
				</linearGradient>
				<path style="fill-rule:evenodd;clip-rule:evenodd;fill:url(#SVGID_30_);" d="M14.8-19.65c-0.033,0.167,0,0.333,0.1,0.5
					c0.267,0.5,0.684,0.767,1.25,0.8c1.133,0.1,1.917-0.083,2.35-0.55s0.367-0.733-0.2-0.8h-0.05c0.133,0.067,0.067,0.2-0.2,0.4
					C17.683-18.967,17-18.833,16-18.9c-0.533-0.033-0.917-0.2-1.15-0.5C14.817-19.5,14.8-19.583,14.8-19.65z"/>
				<linearGradient id="SVGID_31_" gradientUnits="userSpaceOnUse" x1="10.1001" y1="-25.0264" x2="18.8001" y2="-25.0264">
					<stop  offset="0" style="stop-color:#866327"/>
					<stop  offset="1" style="stop-color:#DEC162"/>
				</linearGradient>
				<path style="fill-rule:evenodd;clip-rule:evenodd;fill:url(#SVGID_31_);" d="M18.4-25.525c0.03,0.191,0.014,0.366-0.05,0.525
					c-0.233,0.567-0.684,0.983-1.35,1.25c-0.933,0.367-2.133,0.3-3.6-0.2c-1.033-0.4-1.8-1.167-2.3-2.3
					c-0.333-0.8-0.333-1.417,0-1.85c-1.1,0.4-1.333,1.333-0.7,2.8c0.567,1.433,1.45,2.367,2.65,2.8
					c1.667,0.633,3.05,0.717,4.15,0.25c0.8-0.333,1.316-0.833,1.55-1.5c0.167-0.467,0.067-1.033-0.3-1.7
					C18.426-25.474,18.41-25.499,18.4-25.525z"/>
				
					<radialGradient id="SVGID_32_" cx="16293.4238" cy="-20.4658" r="22.0625" gradientTransform="matrix(2.266289e-005 1 1.0652 2.266289e-005 45.0806 -16331.1729)" gradientUnits="userSpaceOnUse">
					<stop  offset="0" style="stop-color:#785120"/>
					<stop  offset="1" style="stop-color:#2A1804"/>
				</radialGradient>
				<path style="fill-rule:evenodd;clip-rule:evenodd;fill:url(#SVGID_32_);" d="M18.4-25.525v-0.025
					c-0.066-0.233-0.183-0.5-0.35-0.8c-0.3-0.5-0.733-0.983-1.3-1.45c-1.333-1.1-2.983-1.333-4.95-0.7c-0.3,0.1-0.533,0.233-0.7,0.4
					c-0.333,0.434-0.333,1.05,0,1.85c0.5,1.133,1.267,1.9,2.3,2.3c1.467,0.5,2.667,0.567,3.6,0.2c0.667-0.267,1.117-0.683,1.35-1.25
					C18.414-25.159,18.43-25.333,18.4-25.525z"/>
				
					<linearGradient id="SVGID_33_" gradientUnits="userSpaceOnUse" x1="-561.7012" y1="-15675.5781" x2="-546.1816" y2="-15675.5781" gradientTransform="matrix(0.0757 -0.9971 0.9971 0.0757 15689.2354 597.6641)">
					<stop  offset="0" style="stop-color:#866327"/>
					<stop  offset="1" style="stop-color:#DEC162"/>
				</linearGradient>
				<path style="fill-rule:evenodd;clip-rule:evenodd;fill:url(#SVGID_33_);" d="M17.2-41.55c0.1-0.3,0.216-0.617,0.35-0.95l0.55-1
					c0.767-1.333,1.4-2.733,1.9-4.2v0.45l0.25-0.3l0.2-0.05l0.05-0.15c0-0.133,0-0.267,0-0.4c0-0.667,0.033-1.167,0.1-1.5
					c-0.1,0.033-0.2,0.2-0.3,0.5c-0.066,0.267-0.133,0.45-0.2,0.55L19.95-48l-0.05-0.05l-0.3,0.85c-1.133,2.034-1.983,3.3-2.55,3.8
					c-0.6,0.6-1.1,1.683-1.5,3.25c-0.5,1.8-0.583,3.467-0.25,5c0.333,1.6,0.717,2.967,1.15,4.1c-1.034-0.233-2.067-0.4-3.1-0.5
					l0.7,0.35l2.25,0.45l0.95,0.3L16.6-32.2c-0.367-1.3-0.567-2.167-0.6-2.6c-0.033-0.534-0.017-1.45,0.05-2.75
					c0.067-1.2,0.133-1.967,0.2-2.3C16.317-40.283,16.633-40.85,17.2-41.55z"/>
				
					<linearGradient id="SVGID_34_" gradientUnits="userSpaceOnUse" x1="-561.6797" y1="-15678.6309" x2="-546.1602" y2="-15678.6309" gradientTransform="matrix(0.0757 -0.9971 0.9971 0.0757 15689.2354 597.6641)">
					<stop  offset="0" style="stop-color:#866327"/>
					<stop  offset="1" style="stop-color:#DEC162"/>
				</linearGradient>
				<path style="fill-rule:evenodd;clip-rule:evenodd;fill:url(#SVGID_34_);" d="M14.3-43.2l0.8-1.05
					c1.267-1.433,2.683-2.883,4.25-4.35c-2.133,1.533-3.65,2.717-4.55,3.55c-1.966,1.867-3.316,4.216-4.05,7.05
					c-0.333,1.367-0.35,2.733-0.05,4.1c0.4,1.2,0.617,1.933,0.65,2.2l-0.8-0.05c-0.966,0-1.667,0.017-2.1,0.05l0.45,0.35h3.55
					l-0.6-0.95c-0.434-0.8-0.667-1.567-0.7-2.3c-0.066-1.167,0.067-2.517,0.4-4.05c0.434-1.9,1.05-3.184,1.85-3.85
					C13.8-42.833,14.1-43.067,14.3-43.2z"/>
				
					<linearGradient id="SVGID_35_" gradientUnits="userSpaceOnUse" x1="41.6162" y1="-16305.5859" x2="53.4662" y2="-16305.5859" gradientTransform="matrix(8.438819e-005 -1 1 -0.001 16330.3115 -5.1641)">
					<stop  offset="0" style="stop-color:#866327"/>
					<stop  offset="1" style="stop-color:#DEC162"/>
				</linearGradient>
				<path style="fill-rule:evenodd;clip-rule:evenodd;fill:url(#SVGID_35_);" d="M18.25-36.6c0.2,1.6,0.817,2.983,1.85,4.15
					c0.967,1.034,2.066,1.684,3.3,1.95c1.9,0.367,3.65,0.017,5.25-1.05c1.6-1.067,2.467-2.434,2.6-4.1c0.1-1.633-0.083-3.1-0.55-4.4
					c-0.434-1.167-1.017-1.967-1.75-2.4c-2.367-1.367-4.633-1.633-6.8-0.8C19.15-42.017,17.85-39.8,18.25-36.6z M28.05-31.4
					c-1.367,0.867-2.85,1.167-4.45,0.9c-1.067-0.2-2-0.75-2.8-1.65c-0.867-0.967-1.383-2.133-1.55-3.5
					c-0.333-2.7,0.767-4.55,3.3-5.55c1.767-0.7,3.684-0.483,5.75,0.65c0.6,0.367,1.083,1.033,1.45,2c0.4,1.133,0.55,2.383,0.45,3.75
					C30.1-33.4,29.383-32.267,28.05-31.4z"/>
				
					<linearGradient id="SVGID_36_" gradientUnits="userSpaceOnUse" x1="-561.7393" y1="-15684.0059" x2="-546.2197" y2="-15684.0059" gradientTransform="matrix(0.0757 -0.9971 0.9971 0.0757 15689.2354 597.6641)">
					<stop  offset="0" style="stop-color:#866327"/>
					<stop  offset="1" style="stop-color:#DEC162"/>
				</linearGradient>
				<path style="fill-rule:evenodd;clip-rule:evenodd;fill:url(#SVGID_36_);" d="M10-43.5l2.5-3.65c-2.4,2.3-3.817,3.733-4.25,4.3
					c-0.367,0.5-0.733,1.367-1.1,2.6c-0.467,1.433-0.7,2.733-0.7,3.9v5.05c-0.867,0.233-1.583,0.583-2.15,1.05l0.8,0.1l0.95-0.45
					l1.05-0.25l0.1-4.35c0-0.767,0.117-1.783,0.35-3.05c0.267-1.367,0.567-2.383,0.9-3.05c0.733-1.4,1.167-2.117,1.3-2.15L10-43.5z"
					/>
				
					<linearGradient id="SVGID_37_" gradientUnits="userSpaceOnUse" x1="-561.7207" y1="-15687.7188" x2="-546.2012" y2="-15687.7188" gradientTransform="matrix(0.0757 -0.9971 0.9971 0.0757 15689.2354 597.6641)">
					<stop  offset="0" style="stop-color:#866327"/>
					<stop  offset="1" style="stop-color:#DEC162"/>
				</linearGradient>
				<path style="fill-rule:evenodd;clip-rule:evenodd;fill:url(#SVGID_37_);" d="M4.5-37.55c0.233-0.7,0.467-1.35,0.7-1.95l1.2-2.55
					c-0.566,0.667-1.133,1.466-1.7,2.4c-1.1,1.8-1.684,3.25-1.75,4.35C2.883-34.267,2.9-32.967,3-31.4
					c0.1,1.533,0.15,2.433,0.15,2.7l-0.4,1.2c-0.267,0.9-0.35,1.6-0.25,2.1l0.25,0.5v-0.95c0-0.333,0.267-0.833,0.8-1.5L3.6-27.4
					c0.2-0.6,0.316-0.917,0.35-0.95l0.2-0.3L3.9-29.6c-0.2-0.733-0.316-1.467-0.35-2.2c-0.033-0.934,0.034-1.95,0.2-3.05
					C3.917-36.05,4.167-36.95,4.5-37.55z"/>
				
					<linearGradient id="SVGID_38_" gradientUnits="userSpaceOnUse" x1="-569.6641" y1="-15648.4219" x2="-555.0706" y2="-15648.4219" gradientTransform="matrix(0.0771 -0.997 0.997 0.0771 15677.1152 608.0557)">
					<stop  offset="0" style="stop-color:#866327"/>
					<stop  offset="1" style="stop-color:#DEC162"/>
				</linearGradient>
				<path style="fill-rule:evenodd;clip-rule:evenodd;fill:url(#SVGID_38_);" d="M33.45-31.05c0.4-1.267,0.767-2.633,1.1-4.1
					c0.333-1.533,0.25-3.2-0.25-5c-0.4-1.567-0.9-2.65-1.5-3.25c-0.7-0.7-1.7-2.217-3-4.55c0.034,0.067,0.05,0.133,0.05,0.2
					l1.35,3.25c0.167,0.333,0.35,0.667,0.55,1l0.85,1.35c0.3,0.533,0.583,1.316,0.85,2.35c0.3,1.133,0.433,2.133,0.4,3
					c-0.033,0.933-0.117,1.9-0.25,2.9c-0.133,0.967-0.267,1.533-0.4,1.7c-0.1,0.133-0.217,0.383-0.35,0.75l-0.1,0.5L33.45-31.05z"/>
				
					<radialGradient id="SVGID_39_" cx="16282.3496" cy="-21.9009" r="27.2375" gradientTransform="matrix(1.835705e-005 1 1 1.835705e-005 46.6519 -16331.1484)" gradientUnits="userSpaceOnUse">
					<stop  offset="0" style="stop-color:#785120"/>
					<stop  offset="1" style="stop-color:#2A1804"/>
				</radialGradient>
				<path style="fill-rule:evenodd;clip-rule:evenodd;fill:url(#SVGID_39_);" d="M28.05-31.4c1.333-0.867,2.05-2,2.15-3.4
					c0.1-1.367-0.05-2.617-0.45-3.75c-0.367-0.967-0.85-1.633-1.45-2c-2.066-1.133-3.983-1.35-5.75-0.65
					c-2.533,1-3.633,2.85-3.3,5.55c0.167,1.367,0.683,2.533,1.55,3.5c0.8,0.9,1.733,1.45,2.8,1.65
					C25.2-30.233,26.683-30.533,28.05-31.4z"/>
				
					<linearGradient id="SVGID_40_" gradientUnits="userSpaceOnUse" x1="-561.7178" y1="-15671.1641" x2="-546.1982" y2="-15671.1641" gradientTransform="matrix(0.0757 -0.9971 0.9971 0.0757 15689.2354 597.6641)">
					<stop  offset="0" style="stop-color:#866327"/>
					<stop  offset="1" style="stop-color:#DEC162"/>
				</linearGradient>
				<path style="fill-rule:evenodd;clip-rule:evenodd;fill:url(#SVGID_40_);" d="M23.4-49.25c-0.066-0.6-0.15-0.967-0.25-1.1
					c-0.1,0.367-0.45,0.85-1.05,1.45c-0.167,0.167-0.434,0.617-0.8,1.35c-0.133,0.267-0.267,0.417-0.4,0.45
					c-0.133,0-0.217-0.033-0.25-0.1l-0.05,0.05l0.6,0.45l0.25-0.5c0.167-0.367,0.333-0.617,0.5-0.75c0.267-0.2,0.633-0.617,1.1-1.25
					L23.4-49.25z"/>
				
					<linearGradient id="SVGID_41_" gradientUnits="userSpaceOnUse" x1="-561.7334" y1="-15666.7266" x2="-546.2139" y2="-15666.7266" gradientTransform="matrix(0.0757 -0.9971 0.9971 0.0757 15689.2354 597.6641)">
					<stop  offset="0" style="stop-color:#866327"/>
					<stop  offset="1" style="stop-color:#DEC162"/>
				</linearGradient>
				<path style="fill-rule:evenodd;clip-rule:evenodd;fill:url(#SVGID_41_);" d="M25.35-50.7c0.533,0.333,0.967,0.8,1.3,1.4
					c0.133,0.267,0.283,0.716,0.45,1.35l0.15,0.75l0.05,0.05c0,0.033,0,0.066,0,0.1l0.35,0.1L27.7-47c0-0.433,0-0.8,0-1.1l-0.05-0.3
					c-0.033-0.4-0.066-0.717-0.1-0.95c-0.133-0.433-0.367-0.833-0.7-1.2c-0.467-0.534-0.883-0.817-1.25-0.85l-0.3,0.7H25.35z"/>
			</g>
		</g>
	</g>
</symbol>
<radialGradient id="SVGID_42_" cx="29.7002" cy="41.3008" r="23.4123" gradientTransform="matrix(0.8456 0 0 -0.1583 -0.6003 57.4552)" gradientUnits="userSpaceOnUse">
	<stop  offset="0.1647" style="stop-color:#000000;stop-opacity:0.8"/>
	<stop  offset="0.6353" style="stop-color:#000000;stop-opacity:0.1882"/>
	<stop  offset="1" style="stop-color:#000000;stop-opacity:0"/>
</radialGradient>
<path style="fill-rule:evenodd;clip-rule:evenodd;fill:url(#SVGID_42_);" d="M39.524,53.73c-4.144,0.774-9.146,1.161-15.01,1.161
	c-5.891,0-10.894-0.387-15.01-1.161c-4.144-0.773-6.215-1.712-6.215-2.814s2.071-2.041,6.215-2.814
	c4.116-0.773,9.119-1.16,15.01-1.16c5.863,0,10.866,0.387,15.01,1.16c4.143,0.773,6.215,1.712,6.215,2.814
	S43.667,52.957,39.524,53.73z"/>
<use xlink:href="#_x31_"  width="49.285" height="51.754" x="-0.017" y="-51.74" transform="matrix(1 0 0 -1 0 0)" style="overflow:visible;"/>
</svg>
