<?xml version="1.0" encoding="iso-8859-1"?>
<!-- Generator: Adobe Illustrator 15.1.0, SVG Export Plug-In . SVG Version: 6.00 Build 0)  -->
<!DOCTYPE svg PUBLIC "-//W3C//DTD SVG 1.1//EN" "http://www.w3.org/Graphics/SVG/1.1/DTD/svg11.dtd">
<svg version="1.1" id="FlashAICB" xmlns="http://www.w3.org/2000/svg" xmlns:xlink="http://www.w3.org/1999/xlink" x="0px" y="0px"
	 width="48px" height="46.55px" viewBox="0 0 48 46.55" style="enable-background:new 0 0 48 46.55;" xml:space="preserve">
<symbol  id="_x31_" viewBox="0.018 -44.517 47.964 44.534">
	<g id="Layer_1_2_">
		<g>
			
				<radialGradient id="SVGID_1_" cx="105.0596" cy="-16407.709" r="4.0628" gradientTransform="matrix(-0.0118 -0.9999 -2.4336 0.0288 -39905.0039 569.8906)" gradientUnits="userSpaceOnUse">
				<stop  offset="0" style="stop-color:#F5DC93"/>
				<stop  offset="0.2039" style="stop-color:#F4C125"/>
				<stop  offset="1" style="stop-color:#B47527"/>
			</radialGradient>
			<path style="fill-rule:evenodd;clip-rule:evenodd;fill:url(#SVGID_1_);" d="M29.95-12.15l-8-0.5l-3.2,0.9l-0.3,1.45
				c1.534,0.967,3.5,1.45,5.9,1.45c1.4,0,2.683-0.233,3.85-0.7c1.067-0.433,1.684-0.867,1.85-1.3
				C30.217-11.417,30.183-11.85,29.95-12.15z"/>
			
				<radialGradient id="SVGID_2_" cx="395.5137" cy="-16747.3223" r="14.8227" gradientTransform="matrix(-0.0565 -0.9984 1.1055 -0.0514 18573.0703 -475.7163)" gradientUnits="userSpaceOnUse">
				<stop  offset="0" style="stop-color:#F5DC93"/>
				<stop  offset="0.2039" style="stop-color:#F4C125"/>
				<stop  offset="1" style="stop-color:#B47527"/>
			</radialGradient>
			<path style="fill-rule:evenodd;clip-rule:evenodd;fill:url(#SVGID_2_);" d="M47.7-26.85c-0.2-0.867-1.05-2.983-2.55-6.35
				c-0.733-1.667-2.017-3.283-3.85-4.85c-1.667-1.4-2.95-2.133-3.85-2.2c-1.066-0.1-4.183,0.967-9.35,3.2L24.3-11.5
				c0.833,1,3.467,1.7,7.9,2.1c1.934,0.133,4.083-0.317,6.45-1.35c3.467-1.5,6.05-3.917,7.75-7.25
				C47.9-20.967,48.333-23.917,47.7-26.85z"/>
			
				<radialGradient id="SVGID_3_" cx="35.1997" cy="-12.6499" r="20.5518" gradientTransform="matrix(-0.0122 -0.9999 1.1069 -0.0135 49.6318 22.3765)" gradientUnits="userSpaceOnUse">
				<stop  offset="0" style="stop-color:#F5DC93"/>
				<stop  offset="0.2039" style="stop-color:#F4C125"/>
				<stop  offset="1" style="stop-color:#B47527"/>
			</radialGradient>
			<path style="fill-rule:evenodd;clip-rule:evenodd;fill:url(#SVGID_3_);" d="M45.25-28.4c-0.5-2.733-1.4-5.034-2.7-6.9
				c-1.133-1.667-2.533-3.15-4.2-4.45c-1.667-1.333-3.367-2.283-5.1-2.85c-1.467-0.467-3-0.767-4.6-0.9h-2L24.9-12l2.55,0.4
				c2,0.233,3.833,0.283,5.5,0.15c2.367-0.167,4.6-0.9,6.7-2.2c2.533-1.534,4.25-3.583,5.15-6.15
				C45.7-22.367,45.85-25.233,45.25-28.4z"/>
			
				<radialGradient id="SVGID_4_" cx="-360.8164" cy="-15844.001" r="14.8493" gradientTransform="matrix(0.0572 -0.9984 -1.1061 -0.0513 -17492.9395 -1182.9487)" gradientUnits="userSpaceOnUse">
				<stop  offset="0" style="stop-color:#F5DC93"/>
				<stop  offset="0.2039" style="stop-color:#F4C125"/>
				<stop  offset="1" style="stop-color:#B47527"/>
			</radialGradient>
			<path style="fill-rule:evenodd;clip-rule:evenodd;fill:url(#SVGID_4_);" d="M0.3-26.85c-0.633,2.933-0.2,5.883,1.3,8.85
				c1.7,3.333,4.283,5.75,7.75,7.25c2.367,1.033,4.517,1.483,6.45,1.35c1.533-0.133,3.133-0.417,4.8-0.85
				c2.066-0.533,3.25-1.117,3.55-1.75l-4.3-25.05c-5.133-2.233-8.233-3.3-9.3-3.2c-0.9,0.066-2.183,0.8-3.85,2.2
				c-1.833,1.567-3.117,3.184-3.85,4.85C1.35-29.833,0.5-27.717,0.3-26.85z"/>
			<path style="fill-rule:evenodd;clip-rule:evenodd;fill:#A96F24;" d="M1.45-24.65C1.717-23.05,2.033-21.5,2.4-20
				c0.467,2,1.717,3.8,3.75,5.4c1.533,1.233,3.217,2.167,5.05,2.8c1.667,0.567,4.684,0.534,9.05-0.1l2.95-5.6l-3.35-19.55l-3.15-1.3
				l-1.8,1.85v14.9L3.2-19.8l-0.45-1.25c-0.3-1-0.517-1.95-0.65-2.85c-0.1-1.034-0.083-2.3,0.05-3.8
				c0.133-1.333,0.317-2.383,0.55-3.15c0.3-0.933,0.25-1.5-0.15-1.7c-0.833,1.8-1.283,2.8-1.35,3C0.667-28.283,0.316-27.1,0.15-26
				H0.5C0.967-26,1.283-25.55,1.45-24.65z"/>
			<path style="fill-rule:evenodd;clip-rule:evenodd;fill:#A26921;" d="M2.15-27.7C2.017-26.2,2-24.934,2.1-23.9
				c0.133,0.9,0.35,1.85,0.65,2.85L3.2-19.8l11.7-1.8v-14.9l-9.8,10l-2.5,0.75l0.2-2.35c0.2-1.8,0.533-3.233,1-4.3
				c0.733-1.767,1.25-3.1,1.55-4L5.1-36.45c-1.034,1.067-1.784,2.15-2.25,3.25l-0.3,0.65c0.4,0.2,0.45,0.767,0.15,1.7
				C2.467-30.083,2.283-29.033,2.15-27.7z"/>
			<path style="fill-rule:evenodd;clip-rule:evenodd;fill:#905D1C;" d="M2.8-28.1l-0.2,2.35l2.5-0.75l11.6-11.85
				c-3.267-1.367-5.316-2-6.15-1.9c-0.566,0.033-1.367,0.4-2.4,1.1c-1.1,0.767-2.117,1.667-3.05,2.7l0.25,0.05
				c-0.3,0.9-0.817,2.233-1.55,4C3.333-31.333,3-29.9,2.8-28.1z"/>
			
				<radialGradient id="SVGID_5_" cx="-86.1123" cy="-16223.2256" r="20.5518" gradientTransform="matrix(0.0122 -0.9999 -1.1069 -0.0135 -17944.3145 -317.5835)" gradientUnits="userSpaceOnUse">
				<stop  offset="0" style="stop-color:#F5DC93"/>
				<stop  offset="0.2039" style="stop-color:#F4C125"/>
				<stop  offset="1" style="stop-color:#B47527"/>
			</radialGradient>
			<path style="fill-rule:evenodd;clip-rule:evenodd;fill:url(#SVGID_5_);" d="M2.75-28.4c-0.6,3.167-0.45,6.033,0.45,8.6
				c0.9,2.567,2.617,4.617,5.15,6.15c2.1,1.3,4.333,2.033,6.7,2.2c2.667,0.2,5.35,0.017,8.05-0.55l-1.75-31.5
				c-2.067-0.167-4.267,0.133-6.6,0.9c-1.733,0.567-3.434,1.517-5.1,2.85c-1.667,1.3-3.067,2.783-4.2,4.45
				C4.183-33.434,3.283-31.133,2.75-28.4z"/>
			<path style="fill-rule:evenodd;clip-rule:evenodd;fill:#A96F24;" d="M22.95-12h0.15L22-32.1l-8.9,5.75
				c-0.133-2.633-0.15-4.45-0.05-5.45c0.067-0.8,0.283-2.05,0.65-3.75c0.367-1.6,0.55-2.566,0.55-2.9
				c0.033-0.633-0.317-1.15-1.05-1.55c-0.833-0.5-1.85-0.55-3.05-0.15c-1.6,1.233-2.85,2.433-3.75,3.6
				c1.333-0.5,2.45-0.583,3.35-0.25c0.833,0.3,1.367,0.917,1.6,1.85c-0.067,0.767-0.1,1.65-0.1,2.65c-0.067,2,0.333,4.867,1.2,8.6
				c0.9,3.8,2.867,6.867,5.9,9.2C19.883-13.333,21.417-12.5,22.95-12z"/>
			<path style="fill-rule:evenodd;clip-rule:evenodd;fill:#A26921;" d="M22-32.1l-0.2-2.95l-7.4,4.6l-0.55-0.95l0.25-2
				c0.233-1.534,0.566-2.75,1-3.65c0.966-1.966,1.45-3.316,1.45-4.05c0-0.333-0.233-0.633-0.7-0.9c-0.6-0.267-1.35-0.317-2.25-0.15
				c-1.167,0.5-2.317,1.167-3.45,2c1.2-0.4,2.217-0.35,3.05,0.15c0.733,0.4,1.083,0.917,1.05,1.55c0,0.333-0.184,1.3-0.55,2.9
				c-0.367,1.7-0.583,2.95-0.65,3.75c-0.1,1-0.083,2.817,0.05,5.45L22-32.1z"/>
			<path style="fill-rule:evenodd;clip-rule:evenodd;fill:#905D1C;" d="M14.1-33.4l-0.25,2l0.55,0.95l7.4-4.6l-0.3-6.1
				c-0.467,0.167-0.95,0.283-1.45,0.35l-0.6,0.05l0.35-0.4c0.1-0.367-0.133-0.8-0.7-1.3c-0.467-0.433-1.317-0.65-2.55-0.65
				l-2.95,0.95c0.9-0.167,1.65-0.117,2.25,0.15c0.466,0.267,0.7,0.566,0.7,0.9c0,0.733-0.483,2.083-1.45,4.05
				C14.667-36.15,14.333-34.934,14.1-33.4z"/>
			<path style="fill-rule:evenodd;clip-rule:evenodd;fill:#6E4613;" d="M19.1-42.45c0.566,0.5,0.8,0.934,0.7,1.3l-0.35,0.4l0.6-0.05
				c0.5-0.066,0.983-0.183,1.45-0.35l-0.15-2.35c-1.4-0.1-3,0.033-4.8,0.4C17.783-43.1,18.633-42.883,19.1-42.45z"/>
			
				<radialGradient id="SVGID_6_" cx="-44.8682" cy="-16250.3105" r="19.4632" gradientTransform="matrix(0.0078 -1 -0.9801 -0.0076 -15903.7441 -187.0049)" gradientUnits="userSpaceOnUse">
				<stop  offset="0" style="stop-color:#F5DC93"/>
				<stop  offset="0.2039" style="stop-color:#F4C125"/>
				<stop  offset="1" style="stop-color:#B47527"/>
			</radialGradient>
			<path style="fill-rule:evenodd;clip-rule:evenodd;fill:url(#SVGID_6_);" d="M23.7-11.8c2.7-0.033,4.95-0.917,6.75-2.65
				c1.633-1.6,2.617-3.633,2.95-6.1c0.267-2.167-0.017-5.367-0.85-9.6c-0.767-3.934-1.566-6.7-2.4-8.3
				c-0.933-1.867-1.817-3.267-2.65-4.2c-1.2-1.333-2.467-1.95-3.8-1.85c-1.333,0.1-2.716,0.8-4.15,2.1c-1.233,1.1-2.367,2.5-3.4,4.2
				c-1.167,1.934-2.05,3.95-2.65,6.05c-0.567,2.033-0.817,3.95-0.75,5.75c0.133,2.5,0.783,4.883,1.95,7.15
				c0.867,1.733,1.85,3.117,2.95,4.15c0.8,0.767,1.85,1.5,3.15,2.2C22.133-12.167,23.1-11.8,23.7-11.8z"/>
			<path style="fill-rule:evenodd;clip-rule:evenodd;fill:#A96F24;" d="M16.15-38.2c-0.233,0.4-0.667,1.217-1.3,2.45
				c1.1-1.367,3.017-2.317,5.75-2.85c2.367-0.433,4.267-0.467,5.7-0.1c2.2,0.633,4.15,2.867,5.85,6.7l-0.75-3.05
				c-1.033-2.066-1.583-3.167-1.65-3.3c-0.967-1.667-1.883-2.717-2.75-3.15c-2.633-1.333-5.267-1.217-7.9,0.35l-1.55,0.95
				L16.15-38.2z"/>
			<path style="fill-rule:evenodd;clip-rule:evenodd;fill:#A26921;" d="M22.35-43.35c-1.034,0.133-2.083,0.567-3.15,1.3
				c-0.5,0.467-1.05,1.083-1.65,1.85l1.55-0.95c2.633-1.567,5.267-1.684,7.9-0.35c0.867,0.433,1.783,1.483,2.75,3.15
				c0.066,0.133,0.617,1.233,1.65,3.3c-0.533-1.7-0.95-2.833-1.25-3.4l-0.95-1.8c-1.1-1.533-2.3-2.5-3.6-2.9
				C24.8-43.417,23.717-43.483,22.35-43.35z"/>
			<path style="fill-rule:evenodd;clip-rule:evenodd;fill:#6E4613;" d="M19.2-42.05c1.067-0.733,2.117-1.167,3.15-1.3
				c1.367-0.133,2.45-0.067,3.25,0.2c1.3,0.4,2.5,1.367,3.6,2.9c-1.767-3-3.6-4.417-5.5-4.25C22.233-44.367,20.733-43.55,19.2-42.05
				z"/>
			
				<radialGradient id="SVGID_7_" cx="9.8394" cy="-16313.1338" r="35.075" gradientTransform="matrix(1.425517e-005 -1 -0.8357 1.425517e-005 -13610.2852 0.3716)" gradientUnits="userSpaceOnUse">
				<stop  offset="0.4667" style="stop-color:#F4C125;stop-opacity:0"/>
				<stop  offset="1" style="stop-color:#603C10"/>
			</radialGradient>
			<path style="fill-rule:evenodd;clip-rule:evenodd;fill:url(#SVGID_7_);" d="M46.4-18c1.5-2.967,1.934-5.917,1.3-8.85
				c-0.2-0.867-1.05-2.983-2.55-6.35c-0.733-1.6-1.933-3.15-3.6-4.65c-1.533-1.333-2.8-2.117-3.8-2.35c-1.533-1.1-3.033-1.9-4.5-2.4
				c-1.467-0.467-3-0.767-4.6-0.9h-2c-0.933-0.767-1.917-1.1-2.95-1c-0.767,0.033-1.667,0.367-2.7,1c-2.067-0.1-4.15,0.2-6.25,0.9
				c-1.467,0.5-2.967,1.3-4.5,2.4c-1,0.233-2.267,1.017-3.8,2.35c-1.667,1.5-2.867,3.05-3.6,4.65c-1.5,3.367-2.35,5.483-2.55,6.35
				c-0.633,2.934-0.2,5.883,1.3,8.85c1.7,3.333,4.283,5.75,7.75,7.25c2.367,1.033,4.517,1.483,6.45,1.35
				c1.3-0.167,2.417-0.35,3.35-0.55c1.533,0.733,3.267,1.1,5.2,1.1c1.8,0,3.3-0.333,4.5-1L32.2-9.4
				c1.933,0.133,4.083-0.317,6.45-1.35C42.117-12.25,44.7-14.667,46.4-18z"/>
			
				<radialGradient id="SVGID_8_" cx="-66.7119" cy="-16241.9063" r="6.8753" gradientTransform="matrix(0.0087 -1 -0.8854 -0.0077 -14357.0957 -194.5854)" gradientUnits="userSpaceOnUse">
				<stop  offset="0" style="stop-color:#9FAB41"/>
				<stop  offset="1" style="stop-color:#796D12"/>
			</radialGradient>
			<path style="fill-rule:evenodd;clip-rule:evenodd;fill:url(#SVGID_8_);" d="M27.2-2.7c-0.267-0.9-0.5-1.517-0.7-1.85
				c-0.267-0.5-0.517-1.233-0.75-2.2S25.4-8.5,25.4-9.1c0-0.8,0.133-1.75,0.4-2.85c-0.2,0.2-0.566,0.267-1.1,0.2h-0.1
				c-1.034,0.1-1.983-0.1-2.85-0.6l-0.2,0.1c-0.933,2.433-1.467,4.483-1.6,6.15c-0.066,1.067-0.1,2.2-0.1,3.4v1.45L20.5-1.7
				l0.2-0.25c0.567-0.566,1.284-0.933,2.15-1.1c0.9-0.4,1.75-0.466,2.55-0.2c0.6,0.033,1.183,0.217,1.75,0.55H27.2z"/>
			
				<radialGradient id="SVGID_9_" cx="-72.0117" cy="-16239.1797" r="3.6627" gradientTransform="matrix(0.009 -1 -0.8839 -0.0079 -14330.0703 -201.7139)" gradientUnits="userSpaceOnUse">
				<stop  offset="0" style="stop-color:#9FAB41"/>
				<stop  offset="1" style="stop-color:#796D12"/>
			</radialGradient>
			<path style="fill-rule:evenodd;clip-rule:evenodd;fill:url(#SVGID_9_);" d="M25-3.85c-0.5,0.033-1.133-0.033-1.9-0.2
				c-0.534-0.1-1.217,0-2.05,0.3c-0.167,0.066-0.417,0.5-0.75,1.3l-0.45,1.2l1,0.85c0.9,0.5,1.917,0.55,3.05,0.15
				c1.133-0.367,2.017-0.883,2.65-1.55c0.333-0.333,0.55-0.633,0.65-0.9c-0.033-0.233-0.15-0.45-0.35-0.65
				C26.45-3.783,25.833-3.95,25-3.85z"/>
			<path style="fill-rule:evenodd;clip-rule:evenodd;fill:#4E4906;" d="M23.15-2.3c-0.333-0.4-0.567-0.767-0.7-1.1
				c-0.466-0.633-0.7-1.233-0.7-1.8c0-0.433,0.033-1.083,0.1-1.95c0-0.833-0.034-1.483-0.1-1.95c-0.067,0.467-0.117,0.8-0.15,1
				L21.15-5c-0.033,0.333-0.05,0.583-0.05,0.75c-0.034,0.267,0,0.483,0.1,0.65l0.25,0.35L23-2.3H23.15z"/>
			<path style="fill-rule:evenodd;clip-rule:evenodd;fill:#4E4906;" d="M24-3.85c-0.133-0.067-0.233-0.217-0.3-0.45
				c-0.066-0.133-0.133-0.316-0.2-0.55L23.05-6C22.883-5.833,22.867-5.317,23-4.45c0,0.4,0.1,0.7,0.3,0.9L24-3.85z"/>
			<path style="fill-rule:evenodd;clip-rule:evenodd;fill:#5C5708;" d="M25.2-3.85L27-3.1l-0.45-2.25L26.2-6.1
				c-0.233-0.6-0.383-1.233-0.45-1.9c-0.1-0.767-0.15-1.517-0.15-2.25c0-0.167,0.017-0.483,0.05-0.95c0-0.4-0.033-0.7-0.1-0.9
				c-0.066,0-0.383,0.1-0.95,0.3c-0.434-0.033-0.7-0.017-0.8,0.05c-0.167,0.066-0.25,0.3-0.25,0.7c0.033,0.434,0.05,0.717,0.05,0.85
				c-0.034,0.567-0.067,1.017-0.1,1.35c-0.033,0.633,0.017,1.083,0.15,1.35c0.067-0.3,0.117-0.717,0.15-1.25
				c0.067-0.5,0.167-0.917,0.3-1.25v3.175c0.019-1.061,0.168-1.918,0.45-2.575c0.1,0.333,0.133,0.833,0.1,1.5
				c-0.033,0.667-0.017,1.167,0.05,1.5C24.833-5.233,25-4.383,25.2-3.85z"/>
		</g>
	</g>
</symbol>
<symbol  id="_x32_" viewBox="4.75 -44.517 48.05 44.534">
	<g id="Layer_1_3_">
		
			<use xlink:href="#_x31_"  width="47.964" height="44.534" x="0.018" y="-44.517" transform="matrix(1 0 0 1 4.75 0)" style="overflow:visible;"/>
		<g>
			<g>
				
					<radialGradient id="SVGID_10_" cx="18512.5371" cy="-3144.0024" r="36.9026" gradientTransform="matrix(-0.3279 0.9447 0.7893 0.274 8581.9297 -16670.4688)" gradientUnits="userSpaceOnUse">
					<stop  offset="0" style="stop-color:#785120"/>
					<stop  offset="1" style="stop-color:#2A1804"/>
				</radialGradient>
				<path style="fill-rule:evenodd;clip-rule:evenodd;fill:url(#SVGID_10_);" d="M8.45-20.25l0.75,2l1.6,0.1
					c1.267,0.034,2.467-0.133,3.6-0.5c1.8-0.533,3.383-1.216,4.75-2.05l0.1-1.7c-0.1-1.333-0.55-2.433-1.35-3.3
					c-0.567-0.667-1.467-0.934-2.7-0.8l-1.65,0.4c0.3,0.667,0.367,1.633,0.2,2.9c-0.1,0.867-0.5,1.367-1.2,1.5
					c-0.633,0.1-1.233-0.133-1.8-0.7c-0.434-0.433-0.434-1.15,0-2.15c0.2-0.5,0.45-0.95,0.75-1.35c-0.267,0-0.6,0.083-1,0.25
					c-0.733,0.333-1.367,0.934-1.9,1.8C8.066-22.983,8.017-21.784,8.45-20.25z"/>
				
					<radialGradient id="SVGID_11_" cx="18512.5371" cy="-3144.0024" r="36.9026" gradientTransform="matrix(-0.3279 0.9447 0.7893 0.274 8581.9297 -16670.4688)" gradientUnits="userSpaceOnUse">
					<stop  offset="0" style="stop-color:#785120"/>
					<stop  offset="1" style="stop-color:#2A1804"/>
				</radialGradient>
				<path style="fill-rule:evenodd;clip-rule:evenodd;fill:url(#SVGID_11_);" d="M27.95-24.45l0.15-1.05l-0.75,0.35
					c-0.767,0.367-1.75,0.733-2.95,1.1c-0.867,0.267-1.217,0.7-1.05,1.3c0.134,0.566,0.684,0.9,1.65,1
					c0.767,0.066,1.483-0.367,2.15-1.3C27.517-23.517,27.783-23.983,27.95-24.45z"/>
				
					<radialGradient id="SVGID_12_" cx="18512.5371" cy="-3144.0024" r="36.9026" gradientTransform="matrix(-0.3279 0.9447 0.7893 0.274 8581.9297 -16670.4688)" gradientUnits="userSpaceOnUse">
					<stop  offset="0" style="stop-color:#785120"/>
					<stop  offset="1" style="stop-color:#2A1804"/>
				</radialGradient>
				<path style="fill-rule:evenodd;clip-rule:evenodd;fill:url(#SVGID_12_);" d="M27.7-22.15c-0.7,1.367-0.733,2.35-0.1,2.95
					c0.367,0.3,0.784,0.55,1.25,0.75c0.4,0.133,0.65,0.184,0.75,0.15c0.1,0.034,0.35-0.017,0.75-0.15c0.467-0.2,0.867-0.45,1.2-0.75
					c0.7-0.6,0.684-1.583-0.05-2.95c-0.534-1.066-1.167-2.15-1.9-3.25v-0.05l-0.05-0.05v0.1C28.583-23.833,27.966-22.75,27.7-22.15z
					"/>
				
					<radialGradient id="SVGID_13_" cx="25.4497" cy="-43.1504" r="36.9026" gradientTransform="matrix(0.3279 0.9447 -0.7893 0.274 -16.9531 -55.3701)" gradientUnits="userSpaceOnUse">
					<stop  offset="0" style="stop-color:#785120"/>
					<stop  offset="1" style="stop-color:#2A1804"/>
				</radialGradient>
				<path style="fill-rule:evenodd;clip-rule:evenodd;fill:url(#SVGID_13_);" d="M31-25.5l0.15,1.05c0.2,0.467,0.466,0.934,0.8,1.4
					c0.667,0.934,1.383,1.367,2.15,1.3c0.934-0.1,1.483-0.434,1.65-1c0.167-0.6-0.2-1.034-1.1-1.3L31-25.5z"/>
				
					<radialGradient id="SVGID_14_" cx="16292.082" cy="-29.1182" r="17.5625" gradientTransform="matrix(2.846975e-005 1 1 2.846975e-005 58.0039 -16336.2305)" gradientUnits="userSpaceOnUse">
					<stop  offset="0" style="stop-color:#785120"/>
					<stop  offset="1" style="stop-color:#2A1804"/>
				</radialGradient>
				<path style="fill-rule:evenodd;clip-rule:evenodd;fill:url(#SVGID_14_);" d="M22.75-27.85v1.45l0.2-0.95
					c0.167-0.667,0.55-1.267,1.15-1.8l0.05,0.95c0,0.233,0.1,0.5,0.3,0.8L24.7-27l1.1-0.8l0.2-0.8c0-0.233,0.116-0.534,0.35-0.9
					l0.2,1.1l0.35,0.95l1.05-2l0.35,0.3c0.233,0.134,0.467,0.534,0.7,1.2l0.05,0.3l0.05-0.1l0.05,0.1v-0.3
					c0.367-0.7,0.617-1.1,0.75-1.2l0.35-0.3l1,2l0.15-0.2c0.1-0.2,0.167-0.45,0.2-0.75l0.25-1.1c0.2,0.366,0.3,0.667,0.3,0.9
					l0.25,0.8l1.1,0.8l0.3-0.4c0.167-0.3,0.25-0.566,0.25-0.8l0.05-0.95c0.6,0.534,0.967,1.134,1.1,1.8l0.2,0.95l0.05-1.45
					c-0.033-1.1-0.2-2.083-0.5-2.95c-0.333-1-0.533-2.167-0.6-3.5c-0.033-1.267,0.05-2.133,0.25-2.6c0.267-0.6,0.65-1.816,1.15-3.65
					l-1.05-0.8c-1-0.567-2.3-0.883-3.9-0.95h-3.4c-1.6,0.067-2.917,0.383-3.95,0.95l-1.05,0.8c0.533,1.833,0.933,3.05,1.2,3.65
					c0.2,0.467,0.284,1.333,0.25,2.6c-0.066,1.333-0.267,2.5-0.6,3.5C22.95-29.934,22.783-28.95,22.75-27.85z"/>
				
					<linearGradient id="SVGID_15_" gradientUnits="userSpaceOnUse" x1="36.5679" y1="-16310.8086" x2="52.3179" y2="-16310.8086" gradientTransform="matrix(6.349207e-005 -1 1 -0.001 16335.4824 -8.168)">
					<stop  offset="0" style="stop-color:#866327"/>
					<stop  offset="1" style="stop-color:#DEC162"/>
				</linearGradient>
				<path style="fill-rule:evenodd;clip-rule:evenodd;fill:url(#SVGID_15_);" d="M24.1-28.85l0.05,0.65c0,0.233,0.1,0.5,0.3,0.8
					L24.7-27l0.55-0.4c-0.267-0.2-0.4-0.4-0.4-0.6v-0.45l-0.5-0.7L24.1-28.85z"/>
				
					<linearGradient id="SVGID_16_" gradientUnits="userSpaceOnUse" x1="36.5527" y1="-16308.5586" x2="52.3277" y2="-16308.5586" gradientTransform="matrix(6.339145e-005 -1 1 -0.001 16335.4834 -8.168)">
					<stop  offset="0" style="stop-color:#866327"/>
					<stop  offset="1" style="stop-color:#DEC162"/>
				</linearGradient>
				<polygon style="fill-rule:evenodd;clip-rule:evenodd;fill:url(#SVGID_16_);" points="26.9,-27.45 27.45,-28.4 27.4,-28.55 
					27.4,-29.15 26.45,-29.3 26.4,-29.15 26.55,-28.4 				"/>
				
					<linearGradient id="SVGID_17_" gradientUnits="userSpaceOnUse" x1="36.5586" y1="-16301.9834" x2="52.3086" y2="-16301.9834" gradientTransform="matrix(6.349207e-005 -1 1 -0.001 16335.4824 -8.168)">
					<stop  offset="0" style="stop-color:#866327"/>
					<stop  offset="1" style="stop-color:#DEC162"/>
				</linearGradient>
				<path style="fill-rule:evenodd;clip-rule:evenodd;fill:url(#SVGID_17_);" d="M33.85-29.15l-0.5,0.7V-28
					c0,0.267-0.133,0.466-0.4,0.6L33.5-27l0.3-0.4c0.167-0.3,0.25-0.566,0.25-0.8v-0.65L33.85-29.15z"/>
				
					<linearGradient id="SVGID_18_" gradientUnits="userSpaceOnUse" x1="36.5483" y1="-16304.2344" x2="52.3233" y2="-16304.2344" gradientTransform="matrix(6.339145e-005 -1 1 -0.001 16335.4834 -8.168)">
					<stop  offset="0" style="stop-color:#866327"/>
					<stop  offset="1" style="stop-color:#DEC162"/>
				</linearGradient>
				<path style="fill-rule:evenodd;clip-rule:evenodd;fill:url(#SVGID_18_);" d="M30.75-28.4l0.5,0.95l0.15-0.2
					c0.1-0.2,0.167-0.45,0.2-0.75l0.15-0.75v-0.15l-0.95,0.15v0.6L30.75-28.4z"/>
				
					<linearGradient id="SVGID_19_" gradientUnits="userSpaceOnUse" x1="36.5503" y1="-16306.4102" x2="52.3253" y2="-16306.4102" gradientTransform="matrix(6.339145e-005 -1 1 -0.001 16335.4834 -8.168)">
					<stop  offset="0" style="stop-color:#866327"/>
					<stop  offset="1" style="stop-color:#DEC162"/>
				</linearGradient>
				<path style="fill-rule:evenodd;clip-rule:evenodd;fill:url(#SVGID_19_);" d="M22.75-27.85v1.45l0.2-0.95
					c0.167-0.667,0.55-1.267,1.15-1.8l0.55-1.65c0.2-0.733,0.316-1.767,0.35-3.1c0.033-1.4-0.05-2.45-0.25-3.15
					c-0.267-0.966-0.417-1.8-0.45-2.5l-0.5-0.8l2.1-0.45l0.35-0.15c0.433-0.066,1.133-0.117,2.1-0.15l0.75-0.05l0.75,0.05
					c1.5,0.033,2.317,0.133,2.45,0.3l2.1,0.45l-0.5,0.8c-0.034,0.7-0.2,1.534-0.5,2.5c-0.2,0.7-0.267,1.75-0.2,3.15
					c0.034,1.333,0.15,2.367,0.35,3.1l0.55,1.65c0.6,0.534,0.967,1.134,1.1,1.8l0.2,0.95l0.05-1.45c-0.033-1.1-0.2-2.083-0.5-2.95
					c-0.333-1-0.533-2.167-0.6-3.5c-0.033-1.267,0.05-2.133,0.25-2.6c0.267-0.6,0.65-1.816,1.15-3.65l-1.05-0.8
					c-1-0.567-2.3-0.883-3.9-0.95h-3.4c-1.6,0.067-2.917,0.383-3.95,0.95l-1.05,0.8c0.533,1.833,0.933,3.05,1.2,3.65
					c0.2,0.467,0.284,1.333,0.25,2.6c-0.066,1.333-0.267,2.5-0.6,3.5C22.95-29.934,22.783-28.95,22.75-27.85z"/>
				
					<linearGradient id="SVGID_20_" gradientUnits="userSpaceOnUse" x1="36.5508" y1="-16306.8096" x2="52.3258" y2="-16306.8096" gradientTransform="matrix(6.339145e-005 -1 1 -0.001 16335.4834 -8.168)">
					<stop  offset="0" style="stop-color:#866327"/>
					<stop  offset="1" style="stop-color:#DEC162"/>
				</linearGradient>
				<path style="fill-rule:evenodd;clip-rule:evenodd;fill:url(#SVGID_20_);" d="M29-28.8c-0.067-0.233-0.3-0.35-0.7-0.35
					c0.233,0.134,0.467,0.534,0.7,1.2l0.05,0.3L29-28.8z"/>
				
					<linearGradient id="SVGID_21_" gradientUnits="userSpaceOnUse" x1="36.5503" y1="-16305.9473" x2="52.3253" y2="-16305.9473" gradientTransform="matrix(6.339145e-005 -1 1 -0.001 16335.4834 -8.168)">
					<stop  offset="0" style="stop-color:#866327"/>
					<stop  offset="1" style="stop-color:#DEC162"/>
				</linearGradient>
				<path style="fill-rule:evenodd;clip-rule:evenodd;fill:url(#SVGID_21_);" d="M29.2-28.8l-0.025,0.825
					c0.352-0.685,0.593-1.076,0.725-1.175C29.466-29.15,29.233-29.034,29.2-28.8z"/>
				
					<radialGradient id="SVGID_22_" cx="18512.7266" cy="-3144.395" r="36.9185" gradientTransform="matrix(-0.328 0.9447 0.7892 0.274 8582.8135 -16670.2578)" gradientUnits="userSpaceOnUse">
					<stop  offset="0" style="stop-color:#785120"/>
					<stop  offset="1" style="stop-color:#2A1804"/>
				</radialGradient>
				<path style="fill-rule:evenodd;clip-rule:evenodd;fill:url(#SVGID_22_);" d="M8.85-31.95c0.034,0.7,0.15,1.2,0.35,1.5
					c0.6,0.833,1.667,1.05,3.2,0.65c1.433-0.4,2.5-1.083,3.2-2.05c0.634-0.9,0.967-2.034,1-3.4c0.034-1.333-0.183-2.25-0.65-2.75
					c-0.367-0.4-0.917-0.517-1.65-0.35l-1,0.35l1.55,0.25c0.634,0.133,0.884,0.716,0.75,1.75c-0.1,0.9-0.466,2.017-1.1,3.35
					c-0.534,1.067-1.434,1.667-2.7,1.8c-1.133,0.133-1.883-0.083-2.25-0.65c-0.367-0.634-0.35-1.7,0.05-3.2l-0.5,0.95
					C8.866-33.317,8.783-32.717,8.85-31.95z"/>
				
					<radialGradient id="SVGID_23_" cx="18590.6836" cy="-4217.5059" r="37.7486" gradientTransform="matrix(-0.4219 0.9067 0.7424 0.2629 11004.1777 -15789.4785)" gradientUnits="userSpaceOnUse">
					<stop  offset="0" style="stop-color:#785120"/>
					<stop  offset="1" style="stop-color:#2A1804"/>
				</radialGradient>
				<path style="fill-rule:evenodd;clip-rule:evenodd;fill:url(#SVGID_23_);" d="M11.5-33.55c0.433,0.067,0.833-0.167,1.2-0.7
					c0.333-0.434,0.534-0.85,0.6-1.25c0.066-0.367-0.033-0.617-0.3-0.75c-0.3-0.167-0.684-0.1-1.15,0.2
					c-0.466,0.3-0.733,0.784-0.8,1.45C11.017-33.967,11.167-33.617,11.5-33.55z"/>
				
					<linearGradient id="SVGID_24_" gradientUnits="userSpaceOnUse" x1="26.7324" y1="-16324.9824" x2="33.5824" y2="-16324.9824" gradientTransform="matrix(1.459854e-004 -1 1 -0.001 16334.8086 -8.168)">
					<stop  offset="0" style="stop-color:#866327"/>
					<stop  offset="1" style="stop-color:#DEC162"/>
				</linearGradient>
				<path style="fill-rule:evenodd;clip-rule:evenodd;fill:url(#SVGID_24_);" d="M8.45-20.25l0.75,2l1.45,0.15
					c-0.467-0.6-0.717-1.317-0.75-2.15c-0.034-1.8,0.133-2.85,0.5-3.15l0.05-0.05c0.067-0.767,0.417-1.583,1.05-2.45
					c-0.267,0-0.6,0.083-1,0.25c-0.733,0.333-1.367,0.934-1.9,1.8C8.066-22.983,8.017-21.784,8.45-20.25z"/>
				
					<linearGradient id="SVGID_25_" gradientUnits="userSpaceOnUse" x1="26.7271" y1="-16319.5117" x2="33.577" y2="-16319.5117" gradientTransform="matrix(1.459854e-004 -1 1 -0.001 16334.8086 -8.168)">
					<stop  offset="0" style="stop-color:#866327"/>
					<stop  offset="1" style="stop-color:#DEC162"/>
				</linearGradient>
				<path style="fill-rule:evenodd;clip-rule:evenodd;fill:url(#SVGID_25_);" d="M13.7-21.8h0.5l0.5-0.45
					c0.3-0.434,0.434-0.917,0.4-1.45l-0.2-1.95l1-0.2c0.767-0.1,1.433-0.05,2,0.15c-0.6-0.667-1.5-0.934-2.7-0.8l-1.65,0.4
					c0.3,0.667,0.367,1.633,0.2,2.9c-0.1,0.8-0.45,1.283-1.05,1.45C12.933-21.784,13.267-21.8,13.7-21.8z"/>
				<linearGradient id="SVGID_26_" gradientUnits="userSpaceOnUse" x1="0.9121" y1="-38.0117" x2="17.3871" y2="-38.0117">
					<stop  offset="0" style="stop-color:#866327"/>
					<stop  offset="1" style="stop-color:#DEC162"/>
				</linearGradient>
				<path style="fill-rule:evenodd;clip-rule:evenodd;fill:url(#SVGID_26_);" d="M15.2-37.6c0-0.1,0.083-0.184,0.25-0.25
					c0.2-0.034,0.417,0,0.65,0.1L15.95-38c-0.367-0.4-0.917-0.517-1.65-0.35l-1,0.35l1.55,0.25L15.2-37.6z"/>
				
					<linearGradient id="SVGID_27_" gradientUnits="userSpaceOnUse" x1="-2120.3252" y1="-13356.8652" x2="-2110.2139" y2="-13356.8652" gradientTransform="matrix(0.314 -0.9494 0.9494 0.314 13358.1162 2151.6484)">
					<stop  offset="0" style="stop-color:#866327"/>
					<stop  offset="1" style="stop-color:#DEC162"/>
				</linearGradient>
				<path style="fill-rule:evenodd;clip-rule:evenodd;fill:url(#SVGID_27_);" d="M9.1-33.75c-0.233,0.433-0.316,1.033-0.25,1.8
					c0.034,0.7,0.15,1.2,0.35,1.5c0.467,0.667,1.284,0.917,2.45,0.75l-0.8-0.35L10.6-30.2h1.7c1.233-0.133,2.117-0.633,2.65-1.5
					c0.867-1.4,1.35-3.05,1.45-4.95l-0.9-0.6c0.4,0.9,0.066,2.433-1,4.6c-0.534,1.067-1.434,1.667-2.7,1.8
					c-1.133,0.133-1.883-0.083-2.25-0.65c-0.367-0.634-0.35-1.7,0.05-3.2L9.1-33.75z"/>
				
					<linearGradient id="SVGID_28_" gradientUnits="userSpaceOnUse" x1="-2111.0625" y1="-13367.4268" x2="-2108.667" y2="-13367.4268" gradientTransform="matrix(0.3131 -0.9497 0.9497 0.3131 13367.9678 2146.6875)">
					<stop  offset="0" style="stop-color:#866327"/>
					<stop  offset="1" style="stop-color:#DEC162"/>
				</linearGradient>
				<path style="fill-rule:evenodd;clip-rule:evenodd;fill:url(#SVGID_28_);" d="M12.9-35.55l0.4-0.05
					c0.033-0.333-0.083-0.55-0.35-0.65c-0.3-0.134-0.667-0.067-1.1,0.2c-0.466,0.3-0.733,0.784-0.8,1.45
					c-0.033,0.633,0.117,0.983,0.45,1.05h0.25c-0.1-0.433-0.034-0.85,0.2-1.25C12.15-35.167,12.466-35.417,12.9-35.55z"/>
				
					<linearGradient id="SVGID_29_" gradientUnits="userSpaceOnUse" x1="118.0728" y1="-16407.8145" x2="124.2982" y2="-16407.8145" gradientTransform="matrix(-0.012 -0.9999 0.9999 -0.012 16433.8105 -98.9951)">
					<stop  offset="0" style="stop-color:#866327"/>
					<stop  offset="1" style="stop-color:#DEC162"/>
				</linearGradient>
				<path style="fill-rule:evenodd;clip-rule:evenodd;fill:url(#SVGID_29_);" d="M26.8-24.1l1.25-1.1l0.05-0.3l-0.75,0.35
					c-0.767,0.367-1.75,0.733-2.95,1.1c-0.867,0.267-1.217,0.7-1.05,1.3c0.134,0.566,0.684,0.9,1.65,1h0.05
					C24.383-22.483,24.966-23.267,26.8-24.1z"/>
				
					<linearGradient id="SVGID_30_" gradientUnits="userSpaceOnUse" x1="118.04" y1="-16405.1367" x2="124.2655" y2="-16405.1367" gradientTransform="matrix(-0.012 -0.9999 0.9999 -0.012 16433.8105 -98.9951)">
					<stop  offset="0" style="stop-color:#866327"/>
					<stop  offset="1" style="stop-color:#DEC162"/>
				</linearGradient>
				<path style="fill-rule:evenodd;clip-rule:evenodd;fill:url(#SVGID_30_);" d="M28.5-18.6c-0.333-0.8-0.384-1.8-0.15-3
					c0.167-1.034,0.483-1.967,0.95-2.8c0.167-0.466,0.283-0.767,0.35-0.9l-0.05-0.1v-0.05l-0.05-0.05v0.1
					c-0.967,1.567-1.583,2.65-1.85,3.25c-0.7,1.367-0.733,2.35-0.1,2.95L28.5-18.6z"/>
				<linearGradient id="SVGID_31_" gradientUnits="userSpaceOnUse" x1="33.3638" y1="-25.563" x2="33.4388" y2="-19.338">
					<stop  offset="0" style="stop-color:#866327"/>
					<stop  offset="1" style="stop-color:#DEC162"/>
				</linearGradient>
				<path style="fill-rule:evenodd;clip-rule:evenodd;fill:url(#SVGID_31_);" d="M34.65-24.05L31-25.5v0.3l0.2,0.05
					c1.034,0.467,1.833,0.85,2.4,1.15c1,0.566,1.534,1.2,1.6,1.9c0.434-0.3,0.617-0.633,0.55-1
					C35.65-23.534,35.283-23.85,34.65-24.05z"/>
				
					<radialGradient id="SVGID_32_" cx="28.6997" cy="-43.4004" r="36.9026" gradientTransform="matrix(0.3279 0.9447 -0.7893 0.274 -14.9658 -58.6221)" gradientUnits="userSpaceOnUse">
					<stop  offset="0" style="stop-color:#785120"/>
					<stop  offset="1" style="stop-color:#2A1804"/>
				</radialGradient>
				<path style="fill-rule:evenodd;clip-rule:evenodd;fill:url(#SVGID_32_);" d="M45.5-21.95c-0.7-0.133-1.1-0.633-1.2-1.5
					c-0.133-1.267-0.066-2.233,0.2-2.9c-0.467-0.2-1.017-0.333-1.65-0.4c-1.2-0.134-2.1,0.133-2.7,0.8
					c-0.767,0.867-1.2,1.95-1.3,3.25L38.9-21l1.4,0.75c1.133,0.533,2.267,0.983,3.4,1.35c1.8,0.567,3.534,0.7,5.2,0.4l0.75-2
					c0.433-1.534,0.383-2.733-0.15-3.6c-0.534-0.867-1.167-1.467-1.9-1.8l-1-0.25c0.3,0.4,0.55,0.85,0.75,1.35
					c0.434,1,0.434,1.717,0,2.15C46.783-22.083,46.167-21.85,45.5-21.95z"/>
				<linearGradient id="SVGID_33_" gradientUnits="userSpaceOnUse" x1="48.2705" y1="-25.6753" x2="48.2705" y2="-18.8253">
					<stop  offset="0" style="stop-color:#866327"/>
					<stop  offset="1" style="stop-color:#DEC162"/>
				</linearGradient>
				<path style="fill-rule:evenodd;clip-rule:evenodd;fill:url(#SVGID_33_);" d="M49.65-20.5c0.433-1.534,0.383-2.733-0.15-3.6
					c-0.534-0.867-1.167-1.467-1.9-1.8l-1-0.25c0.634,0.867,0.983,1.667,1.05,2.4l0.05,0.1c0.367,0.3,0.534,1.35,0.5,3.15
					c-0.033,0.833-0.3,1.533-0.8,2.1l1.5-0.1L49.65-20.5z"/>
				<linearGradient id="SVGID_34_" gradientUnits="userSpaceOnUse" x1="42.7744" y1="-25.6753" x2="42.7744" y2="-18.8253">
					<stop  offset="0" style="stop-color:#866327"/>
					<stop  offset="1" style="stop-color:#DEC162"/>
				</linearGradient>
				<path style="fill-rule:evenodd;clip-rule:evenodd;fill:url(#SVGID_34_);" d="M44.4-22.1l0.95,0.1c-0.6-0.2-0.95-0.684-1.05-1.45
					c-0.133-1.267-0.066-2.233,0.2-2.9c-0.467-0.2-1-0.333-1.6-0.4c-1.2-0.134-2.1,0.133-2.7,0.8c0.9-0.367,1.9-0.35,3,0.05
					L43-23.95c-0.067,0.533,0.066,1,0.4,1.4l0.5,0.45H44.4z"/>
				
					<radialGradient id="SVGID_35_" cx="28.2998" cy="-43.1504" r="36.9026" gradientTransform="matrix(0.3279 0.9447 -0.7893 0.274 -15.0376 -58.0625)" gradientUnits="userSpaceOnUse">
					<stop  offset="0" style="stop-color:#785120"/>
					<stop  offset="1" style="stop-color:#2A1804"/>
				</radialGradient>
				<path style="fill-rule:evenodd;clip-rule:evenodd;fill:url(#SVGID_35_);" d="M48.5-30.45c0.2-0.3,0.316-0.8,0.35-1.5
					c0.067-0.767-0.017-1.367-0.25-1.8l-0.5-0.95c0.4,1.5,0.417,2.566,0.05,3.2c-0.367,0.566-1.117,0.783-2.25,0.65
					c-1.267-0.133-2.167-0.733-2.7-1.8c-0.633-1.333-1-2.45-1.1-3.35c-0.133-1.034,0.117-1.617,0.75-1.75
					c0.9-0.2,1.417-0.284,1.55-0.25c-1.167-0.634-2.05-0.634-2.65,0c-0.467,0.5-0.684,1.417-0.65,2.75c0.034,1.366,0.367,2.5,1,3.4
					c0.7,0.966,1.767,1.65,3.2,2.05C46.833-29.4,47.9-29.617,48.5-30.45z"/>
				
					<radialGradient id="SVGID_36_" cx="13131.7832" cy="2640.3301" r="37.7486" gradientTransform="matrix(0.4219 0.9067 -0.7424 0.2629 -3552.1943 -12643.2197)" gradientUnits="userSpaceOnUse">
					<stop  offset="0" style="stop-color:#785120"/>
					<stop  offset="1" style="stop-color:#2A1804"/>
				</radialGradient>
				<path style="fill-rule:evenodd;clip-rule:evenodd;fill:url(#SVGID_36_);" d="M46.2-33.55c0.333-0.066,0.483-0.417,0.45-1.05
					c-0.067-0.667-0.333-1.15-0.8-1.45c-0.466-0.3-0.85-0.367-1.15-0.2c-0.267,0.133-0.367,0.383-0.3,0.75
					c0.066,0.4,0.267,0.816,0.6,1.25C45.366-33.717,45.767-33.483,46.2-33.55z"/>
				<linearGradient id="SVGID_37_" gradientUnits="userSpaceOnUse" x1="56.8374" y1="-38.0376" x2="40.3624" y2="-38.0376">
					<stop  offset="0" style="stop-color:#866327"/>
					<stop  offset="1" style="stop-color:#DEC162"/>
				</linearGradient>
				<path style="fill-rule:evenodd;clip-rule:evenodd;fill:url(#SVGID_37_);" d="M42.5-37.6l0.35-0.15
					c0.9-0.2,1.417-0.284,1.55-0.25c-1.167-0.634-2.05-0.634-2.65,0l-0.15,0.25c0.233-0.1,0.45-0.134,0.65-0.1
					C42.417-37.784,42.5-37.7,42.5-37.6z"/>
				<linearGradient id="SVGID_38_" gradientUnits="userSpaceOnUse" x1="46.709" y1="-38.9434" x2="43.534" y2="-29.3434">
					<stop  offset="0" style="stop-color:#866327"/>
					<stop  offset="1" style="stop-color:#DEC162"/>
				</linearGradient>
				<path style="fill-rule:evenodd;clip-rule:evenodd;fill:url(#SVGID_38_);" d="M48.85-31.95c0.067-0.767-0.017-1.367-0.25-1.8
					l-0.5-0.95c0.4,1.5,0.417,2.566,0.05,3.2c-0.367,0.566-1.117,0.783-2.25,0.65c-1.267-0.133-2.167-0.733-2.7-1.8
					c-1.066-2.167-1.4-3.7-1-4.6l-0.9,0.6c0.1,1.9,0.583,3.55,1.45,4.95c0.533,0.867,1.417,1.367,2.65,1.5c0.633,0.1,1.2,0.1,1.7,0
					l-0.25,0.15l-0.8,0.35c1.167,0.167,1.983-0.083,2.45-0.75C48.7-30.75,48.816-31.25,48.85-31.95z"/>
				<linearGradient id="SVGID_39_" gradientUnits="userSpaceOnUse" x1="45.8574" y1="-35.9927" x2="45.1074" y2="-33.7177">
					<stop  offset="0" style="stop-color:#866327"/>
					<stop  offset="1" style="stop-color:#DEC162"/>
				</linearGradient>
				<path style="fill-rule:evenodd;clip-rule:evenodd;fill:url(#SVGID_39_);" d="M44.8-35.55c0.434,0.133,0.75,0.383,0.95,0.75
					c0.233,0.4,0.3,0.817,0.2,1.25h0.25c0.333-0.066,0.483-0.417,0.45-1.05c-0.067-0.667-0.333-1.15-0.8-1.45
					c-0.433-0.267-0.8-0.333-1.1-0.2c-0.267,0.1-0.384,0.316-0.35,0.65L44.8-35.55z"/>
				
					<linearGradient id="SVGID_40_" gradientUnits="userSpaceOnUse" x1="19667.4668" y1="-7836.4531" x2="19676.3789" y2="-7836.4531" gradientTransform="matrix(-0.6872 0.7265 -0.7265 -0.6872 7847.2549 -19714.8418)">
					<stop  offset="0" style="stop-color:#866327"/>
					<stop  offset="1" style="stop-color:#DEC162"/>
				</linearGradient>
				<path style="fill-rule:evenodd;clip-rule:evenodd;fill:url(#SVGID_40_);" d="M24.05-39.45c1.033-0.8,1.684-1.333,1.95-1.6
					l-0.7-0.85c-0.967,0.134-2.383,0.884-4.25,2.25c-0.8,0.567-1.517,1.167-2.15,1.8c-0.233,0.667-0.567,1.35-1,2.05
					c0.2,0.2,0.533,0.367,1,0.5c0.433,0.1,0.7,0.133,0.8,0.1c0.333-0.1,0.717-0.4,1.15-0.9c0.3-0.367,0.75-0.917,1.35-1.65
					C22.767-38.417,23.383-38.983,24.05-39.45z"/>
				
					<radialGradient id="SVGID_41_" cx="-11.5962" cy="-17147.2969" r="5.8846" gradientTransform="matrix(-0.1083 -0.9941 -0.9665 8.496707e-005 -16552.375 -45.8208)" gradientUnits="userSpaceOnUse">
					<stop  offset="0" style="stop-color:#F5DC93"/>
					<stop  offset="0.2039" style="stop-color:#F4C125"/>
					<stop  offset="1" style="stop-color:#B47527"/>
				</radialGradient>
				<path style="fill-rule:evenodd;clip-rule:evenodd;fill:url(#SVGID_41_);" d="M22.7-39.95l2.65-1.95
					c-0.433-0.066-1-0.05-1.7,0.05c-1.4,0.233-2.717,0.816-3.95,1.75c-1.233,1.7-1.85,2.95-1.85,3.75c0,1.066,0.55,1,1.65-0.2
					c0.3-0.367,0.75-0.917,1.35-1.65C21.45-38.867,22.066-39.45,22.7-39.95z"/>
				<linearGradient id="SVGID_42_" gradientUnits="userSpaceOnUse" x1="33.0757" y1="-35.4683" x2="39.2007" y2="-41.9433">
					<stop  offset="0" style="stop-color:#866327"/>
					<stop  offset="1" style="stop-color:#DEC162"/>
				</linearGradient>
				<path style="fill-rule:evenodd;clip-rule:evenodd;fill:url(#SVGID_42_);" d="M33.85-39.45c0.634,0.5,1.25,1.066,1.85,1.7
					c0.6,0.733,1.05,1.283,1.35,1.65c0.4,0.5,0.783,0.8,1.15,0.9c0.1,0.033,0.367,0,0.8-0.1c0.466-0.133,0.8-0.3,1-0.5
					c-0.3-0.433-0.65-1.117-1.05-2.05c-0.6-0.633-1.3-1.233-2.1-1.8c-1.866-1.366-3.3-2.116-4.3-2.25l-0.65,0.85
					C32.167-40.784,32.816-40.25,33.85-39.45z"/>
				
					<radialGradient id="SVGID_43_" cx="-13.0356" cy="-15371" r="5.8846" gradientTransform="matrix(0.1083 -0.9941 0.9665 8.496707e-005 14893.6406 -47.4023)" gradientUnits="userSpaceOnUse">
					<stop  offset="0" style="stop-color:#F5DC93"/>
					<stop  offset="0.2039" style="stop-color:#F4C125"/>
					<stop  offset="1" style="stop-color:#B47527"/>
				</radialGradient>
				<path style="fill-rule:evenodd;clip-rule:evenodd;fill:url(#SVGID_43_);" d="M35.2-39.95c0.633,0.5,1.25,1.083,1.85,1.75
					c0.6,0.733,1.05,1.283,1.35,1.65c1.1,1.2,1.65,1.267,1.65,0.2c0-0.8-0.617-2.05-1.85-3.75c-1.233-0.934-2.55-1.517-3.95-1.75
					l-1.7-0.05L35.2-39.95z"/>
			</g>
		</g>
		
			<radialGradient id="SVGID_44_" cx="1948.7461" cy="-15015.2207" r="5.875" gradientTransform="matrix(-0.4728 -0.7817 -0.6848 0.3774 -9338.0313 7182.4688)" gradientUnits="userSpaceOnUse">
			<stop  offset="0" style="stop-color:#785120"/>
			<stop  offset="1" style="stop-color:#2A1804"/>
		</radialGradient>
		<path style="fill-rule:evenodd;clip-rule:evenodd;fill:url(#SVGID_44_);" d="M26.413-9.762c0.281-0.067,0.584-0.139,0.908-0.214
			L26.18-9.921C26.264-9.862,26.341-9.81,26.413-9.762z M18.588-11.053c-0.199,0.213-0.34,0.551-0.424,1.015L18.12-9.389
			c0.681,0.042,1.404,0.095,2.171,0.159c1.545,0.086,2.569,0.095,3.073,0.026c0.43-0.047,1.018-0.144,1.762-0.293
			c-0.717-0.338-1.434-0.725-2.15-1.161l-2.493-1.232c-0.242,0.069-0.457,0.135-0.644,0.199
			C19.23-11.494,18.813-11.281,18.588-11.053z"/>
		
			<linearGradient id="SVGID_45_" gradientUnits="userSpaceOnUse" x1="12.3354" y1="-13.1367" x2="10.435" y2="2.9382" gradientTransform="matrix(0.9458 0 0 0.84 3.0498 -1.8999)">
			<stop  offset="0" style="stop-color:#866327"/>
			<stop  offset="1" style="stop-color:#DEC162"/>
		</linearGradient>
		<path style="fill-rule:evenodd;clip-rule:evenodd;fill:url(#SVGID_45_);" d="M15.913-0.031l0.307-0.021l0.757,0.042
			c1.965-0.803,3.455-2.154,4.469-4.053c0.674-1.273,1.227-3.016,1.655-5.229c0.032-0.217,0.063-0.462,0.094-0.735
			c0-0.168,0-0.322,0-0.462c0.001-0.133-0.006-0.259-0.023-0.378l-2.435-1.113c-0.757-0.224-1.277-0.378-1.561-0.461
			c-0.059-0.021-0.114-0.042-0.165-0.063c-0.178,0.143-0.366,0.387-0.568,0.735c-0.459,0.593-0.672,0.992-0.638,1.197
			c-0.099,0.296-0.233,0.632-0.402,1.008c-0.247,0.518-0.389,0.819-0.425,0.903c-0.953,2.071-1.993,3.282-3.121,3.633
			c-0.912-0.339-1.542-0.885-1.892-1.638c-0.222-0.334-0.379-0.664-0.473-0.987c-0.036-0.075-0.075-0.159-0.118-0.252
			c-0.157-0.308-0.236-0.924-0.236-1.848l0.047-0.735c-1.091-0.504-2.526-1.421-4.303-2.751c-0.19-0.053-0.38-0.075-0.567-0.063
			c-0.504,0.622-0.756,1.749-0.757,3.381c-0.033,1.393,0.479,2.934,1.537,4.62C7.092-5.133,7.407-4.398,8.039-3.097
			c0.239,0.775,0.593,1.441,1.064,1.995L9.008-1.06c-0.042,0.197,1.005,0.449,3.145,0.756L15.913-0.031z"/>
		
			<radialGradient id="SVGID_46_" cx="1948.7461" cy="-15015.2207" r="5.875" gradientTransform="matrix(0.4728 -0.7817 0.6848 0.3774 9397.9316 7182.0693)" gradientUnits="userSpaceOnUse">
			<stop  offset="0" style="stop-color:#785120"/>
			<stop  offset="1" style="stop-color:#2A1804"/>
		</radialGradient>
		<path style="fill-rule:evenodd;clip-rule:evenodd;fill:url(#SVGID_46_);" d="M32.579-10.375l1.478,0.084
			c1.076-0.033,1.855-0.298,2.338-0.796c1.057-1.085,1.862-1.544,2.417-1.378c0.5,0.136,0.916,0.261,1.248,0.375
			c0.609,0.197,1.026,0.41,1.252,0.638c0.199,0.213,0.34,0.551,0.424,1.015l0.044,0.649c-0.681,0.042-1.404,0.095-2.171,0.159
			c-1.545,0.086-2.569,0.095-3.073,0.026C35.749-9.688,34.431-9.946,32.579-10.375z"/>
		
			<linearGradient id="SVGID_47_" gradientUnits="userSpaceOnUse" x1="17132.9727" y1="-1164.0386" x2="17146.5918" y2="-1164.0386" gradientTransform="matrix(-0.1322 0.9912 -0.9949 -0.1044 1120.9355 -17117.1387)">
			<stop  offset="0" style="stop-color:#866327"/>
			<stop  offset="1" style="stop-color:#DEC162"/>
		</linearGradient>
		<path style="fill-rule:evenodd;clip-rule:evenodd;fill:url(#SVGID_47_);" d="M23.2-10.5c0-0.133,0-0.267,0-0.4L20.75-12
			c-0.767-0.2-1.283-0.35-1.55-0.45c-0.067-0.033-0.117-0.066-0.15-0.1c-0.2,0.2-0.4,0.466-0.6,0.8
			c-0.467,0.567-0.684,0.95-0.65,1.15c-0.1,0.3-0.216,0.633-0.35,1C17.183-9.067,17.033-8.75,17-8.65c-0.967,2.066-2,3.267-3.1,3.6
			C12.967-5.383,12.333-5.933,12-6.7c-0.267-0.3-0.433-0.617-0.5-0.95c-0.067-0.1-0.117-0.184-0.15-0.25
			c-0.133-0.3-0.2-0.917-0.2-1.85l0.05-0.725c-1.098-0.492-2.548-1.417-4.35-2.775c-0.178-0.049-0.353-0.066-0.525-0.05
			C5.808-12.687,5.55-11.554,5.55-9.9C5.517-8.5,6.033-6.967,7.1-5.3C7.067-5.133,7.383-4.4,8.05-3.1
			c0.233,0.767,0.583,1.434,1.05,2L9-1.05c-0.033,0.2,1.033,0.45,3.2,0.75L17,0c1.967-0.833,3.45-2.2,4.45-4.1
			c0.667-1.233,1.216-2.967,1.65-5.2c0.033-0.233,0.066-0.483,0.1-0.75C23.2-10.217,23.2-10.367,23.2-10.5z"/>
		
			<radialGradient id="SVGID_48_" cx="1155.6387" cy="-17567.1836" r="12.7286" gradientTransform="matrix(-0.1669 -0.986 -0.8033 0.108 -13900.9609 3036.4512)" gradientUnits="userSpaceOnUse">
			<stop  offset="0" style="stop-color:#F5DC93"/>
			<stop  offset="0.2039" style="stop-color:#F4C125"/>
			<stop  offset="1" style="stop-color:#B47527"/>
		</radialGradient>
		<path style="fill-rule:evenodd;clip-rule:evenodd;fill:url(#SVGID_48_);" d="M20.35-9.45c0.066-0.433,0.117-0.95,0.15-1.55
			l-0.1-0.8c-0.2-0.167-0.367-0.3-0.5-0.4c-0.1,0-0.167-0.017-0.2-0.05c-0.1-0.033-0.167-0.067-0.2-0.1c-0.133,0-0.233,0-0.3,0
			c-0.7,0.3-1.267,0.667-1.7,1.1l-0.6,0.75c-0.867,1.233-1.383,2.2-1.55,2.9c-0.233,0.8-0.817,1.55-1.75,2.25
			c-1.167,0.833-2.267,1.05-3.3,0.65C8.933-5.1,8-6.033,7.5-7.5c-0.7-1.467-0.75-2.7-0.15-3.7c0.333-0.566,0.717-0.917,1.15-1.05
			c-0.367-0.233-0.733-0.5-1.1-0.8C6.667-12.917,6.2-12.733,6-12.5c-0.533,0.6-0.85,1.183-0.95,1.75
			c-0.233,0.533-0.316,1.067-0.25,1.6c-0.066,0.066-0.066,0.133,0,0.2C4.7-7.817,4.95-6.567,5.55-5.2
			c0.767,2.9,2.284,4.417,4.55,4.55c0.3,0.1,0.617,0.1,0.95,0c0.534,0.033,1.117-0.033,1.75-0.2c1.633-0.433,3.317-1.417,5.05-2.95
			C18.483-4.233,19-4.95,19.4-5.95c0.2-0.6,0.434-1.316,0.7-2.15C20.167-8.467,20.25-8.917,20.35-9.45z"/>
		
			<linearGradient id="SVGID_49_" gradientUnits="userSpaceOnUse" x1="12.3354" y1="-13.1367" x2="10.435" y2="2.9382" gradientTransform="matrix(-0.9458 0 0 0.84 54.5005 -1.8999)">
			<stop  offset="0" style="stop-color:#866327"/>
			<stop  offset="1" style="stop-color:#DEC162"/>
		</linearGradient>
		<path style="fill-rule:evenodd;clip-rule:evenodd;fill:url(#SVGID_49_);" d="M41.638-0.031l-0.307-0.021L40.574-0.01
			c-1.965-0.803-3.455-2.154-4.469-4.053c-0.674-1.273-1.227-3.016-1.655-5.229c-0.032-0.217-0.063-0.462-0.094-0.735
			c0-0.168,0-0.322,0-0.462c-0.001-0.133,0.006-0.259,0.023-0.378l2.435-1.113c0.757-0.224,1.277-0.378,1.561-0.461
			c0.059-0.021,0.114-0.042,0.165-0.063c0.178,0.143,0.366,0.387,0.568,0.735c0.459,0.593,0.672,0.992,0.638,1.197
			c0.099,0.296,0.233,0.632,0.402,1.008c0.247,0.518,0.389,0.819,0.425,0.903c0.953,2.071,1.993,3.282,3.121,3.633
			c0.912-0.339,1.542-0.885,1.892-1.638c0.222-0.334,0.379-0.664,0.473-0.987c0.036-0.075,0.075-0.159,0.118-0.252
			c0.157-0.308,0.236-0.924,0.236-1.848l-0.047-0.735c1.091-0.504,2.526-1.421,4.303-2.751c0.19-0.053,0.38-0.075,0.567-0.063
			c0.504,0.622,0.756,1.749,0.757,3.381c0.033,1.393-0.479,2.934-1.537,4.62c0.001,0.169-0.313,0.904-0.946,2.205
			c-0.239,0.775-0.593,1.441-1.064,1.995l0.095,0.042c0.042,0.197-1.005,0.449-3.145,0.756L41.638-0.031z"/>
		
			<linearGradient id="SVGID_50_" gradientUnits="userSpaceOnUse" x1="17132.9727" y1="-1164.0386" x2="17146.5918" y2="-1164.0386" gradientTransform="matrix(0.1322 0.9912 0.9949 -0.1044 -1063.3857 -17117.1387)">
			<stop  offset="0" style="stop-color:#866327"/>
			<stop  offset="1" style="stop-color:#DEC162"/>
		</linearGradient>
		<path style="fill-rule:evenodd;clip-rule:evenodd;fill:url(#SVGID_50_);" d="M34.35-10.5c0-0.133,0-0.267,0-0.4L36.8-12
			c0.767-0.2,1.283-0.35,1.55-0.45c0.067-0.033,0.117-0.066,0.15-0.1c0.2,0.2,0.4,0.466,0.6,0.8c0.467,0.567,0.684,0.95,0.65,1.15
			c0.1,0.3,0.216,0.633,0.35,1c0.267,0.533,0.417,0.85,0.45,0.95c0.967,2.066,2,3.267,3.1,3.6c0.933-0.333,1.566-0.883,1.9-1.65
			c0.267-0.3,0.433-0.617,0.5-0.95c0.067-0.1,0.117-0.184,0.15-0.25c0.133-0.3,0.2-0.917,0.2-1.85l-0.05-0.725
			c1.098-0.492,2.548-1.417,4.35-2.775c0.178-0.049,0.353-0.066,0.525-0.05C51.742-12.687,52-11.554,52-9.9
			c0.033,1.4-0.483,2.933-1.55,4.6c0.033,0.167-0.283,0.9-0.95,2.2c-0.233,0.767-0.583,1.434-1.05,2l0.1,0.05
			c0.033,0.2-1.033,0.45-3.2,0.75L40.55,0c-1.967-0.833-3.45-2.2-4.45-4.1c-0.667-1.233-1.216-2.967-1.65-5.2
			c-0.033-0.233-0.066-0.483-0.1-0.75C34.35-10.217,34.35-10.367,34.35-10.5z"/>
		
			<radialGradient id="SVGID_51_" cx="1155.6387" cy="-17567.1836" r="12.7286" gradientTransform="matrix(0.1669 -0.986 0.8033 0.108 13958.5117 3036.4512)" gradientUnits="userSpaceOnUse">
			<stop  offset="0" style="stop-color:#F5DC93"/>
			<stop  offset="0.2039" style="stop-color:#F4C125"/>
			<stop  offset="1" style="stop-color:#B47527"/>
		</radialGradient>
		<path style="fill-rule:evenodd;clip-rule:evenodd;fill:url(#SVGID_51_);" d="M37.2-9.45c-0.066-0.433-0.117-0.95-0.15-1.55
			l0.1-0.8c0.2-0.167,0.367-0.3,0.5-0.4c0.1,0,0.167-0.017,0.2-0.05c0.1-0.033,0.167-0.067,0.2-0.1c0.133,0,0.233,0,0.3,0
			c0.7,0.3,1.267,0.667,1.7,1.1l0.6,0.75c0.867,1.233,1.383,2.2,1.55,2.9c0.233,0.8,0.817,1.55,1.75,2.25
			c1.167,0.833,2.267,1.05,3.3,0.65c1.367-0.4,2.3-1.333,2.8-2.8c0.7-1.467,0.75-2.7,0.15-3.7c-0.333-0.566-0.717-0.917-1.15-1.05
			c0.367-0.233,0.733-0.5,1.1-0.8c0.733,0.133,1.2,0.316,1.4,0.55c0.533,0.6,0.85,1.183,0.95,1.75c0.233,0.533,0.316,1.067,0.25,1.6
			c0.066,0.066,0.066,0.133,0,0.2C52.85-7.817,52.6-6.567,52-5.2c-0.767,2.9-2.284,4.417-4.55,4.55c-0.3,0.1-0.617,0.1-0.95,0
			c-0.534,0.033-1.117-0.033-1.75-0.2c-1.633-0.433-3.317-1.417-5.05-2.95c-0.633-0.434-1.15-1.15-1.55-2.15
			c-0.2-0.6-0.434-1.316-0.7-2.15C37.383-8.467,37.3-8.917,37.2-9.45z"/>
	</g>
</symbol>
<radialGradient id="SVGID_52_" cx="29.6992" cy="41.2998" r="23.4133" gradientTransform="matrix(0.8456 0 0 -0.1583 -0.7 49.1048)" gradientUnits="userSpaceOnUse">
	<stop  offset="0.1647" style="stop-color:#000000;stop-opacity:0.8"/>
	<stop  offset="0.6353" style="stop-color:#000000;stop-opacity:0.1882"/>
	<stop  offset="1" style="stop-color:#000000;stop-opacity:0"/>
</radialGradient>
<path style="fill-rule:evenodd;clip-rule:evenodd;fill:url(#SVGID_52_);" d="M39.424,45.381c-4.144,0.773-9.146,1.16-15.009,1.16
	c-5.892,0-10.895-0.387-15.01-1.16c-4.144-0.774-6.215-1.712-6.215-2.814s2.071-2.041,6.215-2.814
	c4.116-0.774,9.119-1.161,15.01-1.161c5.862,0,10.865,0.387,15.009,1.161c4.144,0.773,6.215,1.712,6.215,2.814
	S43.567,44.606,39.424,45.381z"/>
<use xlink:href="#_x32_"  width="48.05" height="44.534" x="4.75" y="-44.517" transform="matrix(1 0 0 -1 -4.75 0)" style="overflow:visible;"/>
</svg>
