<?xml version="1.0" encoding="iso-8859-1"?>
<!-- Generator: Adobe Illustrator 15.1.0, SVG Export Plug-In . SVG Version: 6.00 Build 0)  -->
<!DOCTYPE svg PUBLIC "-//W3C//DTD SVG 1.1//EN" "http://www.w3.org/Graphics/SVG/1.1/DTD/svg11.dtd">
<svg version="1.1" id="FlashAICB" xmlns="http://www.w3.org/2000/svg" xmlns:xlink="http://www.w3.org/1999/xlink" x="0px" y="0px"
	 width="62.5px" height="46.55px" viewBox="0 0 62.5 46.55" style="enable-background:new 0 0 62.5 46.55;" xml:space="preserve">
<symbol  id="Symbol_1" viewBox="0 -14.9 23.4 14.9">
	<g id="Layer_1_2_">
		<g>
			<g>
				<g>
					
						<radialGradient id="SVGID_1_" cx="16308.9326" cy="-29.9673" r="17.5" gradientTransform="matrix(2.857143e-005 1 1 2.857143e-005 52.7012 -16329.2314)" gradientUnits="userSpaceOnUse">
						<stop  offset="0" style="stop-color:#FFFEF5"/>
						<stop  offset="1" style="stop-color:#FEE607"/>
					</radialGradient>
					<path style="fill-rule:evenodd;clip-rule:evenodd;fill:url(#SVGID_1_);" d="M16.65-5.65l0.05,0.7l1.2,0.2h1L18.85-5.9
						c-0.067-0.867-0.233-1.55-0.5-2.05c-0.2-0.4-0.533-0.75-1-1.05c-0.133-0.867-0.267-1.433-0.4-1.7c-0.133-0.4-0.35-0.733-0.65-1
						c-0.267-0.267-0.45-0.35-0.55-0.25c-0.067,0.034-0.167,0.267-0.3,0.7c-0.167,0.533-0.317,0.967-0.45,1.3
						c-0.933,0.467-1.583,0.7-1.95,0.7c-0.9,0.9-2.5,0.733-4.8-0.5c-0.3-0.733-0.567-1.467-0.8-2.2
						c-0.133-0.066-0.333,0.017-0.6,0.25c-0.267,0.267-0.483,0.6-0.65,1C6-10.3,5.867-9.683,5.8-8.85C5.5-8.583,5.233-8.283,5-7.95
						C4.767-7.45,4.6-6.767,4.5-5.9L4.45-4.75H5.5c0.367,0,0.75-0.067,1.15-0.2l0.1-0.7c0.1-0.5,0.333-0.9,0.7-1.2
						c0.466-0.367,1-0.566,1.6-0.6c0.7-0.033,1.267,0.2,1.7,0.7c0.267,0.3,0.333,1.517,0.2,3.65l0.75-0.05l0.7,0.05v-1.65
						c0-1.133,0.083-1.8,0.25-2c0.434-0.5,1-0.733,1.7-0.7c0.566,0.034,1.1,0.233,1.6,0.6C16.317-6.55,16.55-6.15,16.65-5.65z"/>
				</g>
			</g>
			<g>
				
					<radialGradient id="SVGID_2_" cx="11.6992" cy="-7.4502" r="11.7127" gradientTransform="matrix(1 0 0 -0.6371 0 -12.1973)" gradientUnits="userSpaceOnUse">
					<stop  offset="0" style="stop-color:#FFF9D1"/>
					<stop  offset="1" style="stop-color:#FEE400;stop-opacity:0"/>
				</radialGradient>
				<path style="fill-rule:evenodd;clip-rule:evenodd;fill:url(#SVGID_2_);" d="M23.399-7.45c0-2.066-1.15-3.833-3.45-5.3
					c-2.267-1.434-5.017-2.15-8.25-2.15s-5.983,0.717-8.25,2.15C1.149-11.284,0-9.517,0-7.45c0,2.033,1.15,3.783,3.45,5.25
					C5.716-0.733,8.466,0,11.7,0s5.983-0.733,8.25-2.2C22.25-3.667,23.399-5.417,23.399-7.45z"/>
			</g>
			<g>
				<linearGradient id="SVGID_3_" gradientUnits="userSpaceOnUse" x1="15.2876" y1="-8.3706" x2="18.9126" y2="-8.3706">
					<stop  offset="0" style="stop-color:#DBAC46"/>
					<stop  offset="1" style="stop-color:#F7E16C"/>
				</linearGradient>
				<path style="fill-rule:evenodd;clip-rule:evenodd;fill:url(#SVGID_3_);" d="M18.05-4.75h0.85L18.85-5.9
					c-0.067-0.867-0.233-1.55-0.5-2.05c-0.2-0.4-0.533-0.75-1-1.05c-0.133-0.867-0.267-1.433-0.4-1.7c-0.133-0.4-0.35-0.733-0.65-1
					c-0.267-0.267-0.45-0.35-0.55-0.25c-0.067,0.034-0.217,0.417-0.45,1.15c0.2,0.2,0.317,0.367,0.35,0.5l0.1,0.85
					c0,0.4,0.033,0.684,0.1,0.85c0.066,0.1,0.25,0.217,0.55,0.35c0.067,0.033,0.283,0.183,0.65,0.45
					c0.434,0.367,0.733,0.85,0.9,1.45C17.983-6.217,18-5.8,18-5.1L18.05-4.75z"/>
				<linearGradient id="SVGID_4_" gradientUnits="userSpaceOnUse" x1="4.4624" y1="-8.3613" x2="7.8374" y2="-8.3613">
					<stop  offset="0" style="stop-color:#DBAC46"/>
					<stop  offset="1" style="stop-color:#F7E16C"/>
				</linearGradient>
				<path style="fill-rule:evenodd;clip-rule:evenodd;fill:url(#SVGID_4_);" d="M5.7-4.75v-0.1C5.533-5.717,5.667-6.5,6.1-7.2
					c0.367-0.5,0.683-0.833,0.95-1C6.683-8.467,6.533-8.867,6.6-9.4c0.1-0.7,0.517-1.184,1.25-1.45c-0.233-0.7-0.367-1.066-0.4-1.1
					c-0.133-0.066-0.333,0.017-0.6,0.25c-0.267,0.267-0.483,0.6-0.65,1C6-10.3,5.867-9.683,5.8-8.85C5.5-8.583,5.233-8.283,5-7.95
					C4.767-7.45,4.6-6.767,4.5-5.9L4.45-4.75H5.7z"/>
				<linearGradient id="SVGID_5_" gradientUnits="userSpaceOnUse" x1="8.062" y1="-9.1001" x2="14.737" y2="-9.1001">
					<stop  offset="0" style="stop-color:#DBAC46"/>
					<stop  offset="1" style="stop-color:#F7E16C"/>
				</linearGradient>
				<path style="fill-rule:evenodd;clip-rule:evenodd;fill:url(#SVGID_5_);" d="M11.45-8C11.516-8,11.7-8.067,12-8.2l0.6-0.35
					c0.2-0.133,0.417-0.216,0.65-0.25c0.167-0.033,0.4-0.066,0.7-0.1c0.533-0.167,0.8-0.417,0.8-0.75v-0.1
					c-0.167-0.034-0.433-0.05-0.8-0.05c-1.1,0.034-1.85,0.35-2.25,0.95c-0.4-0.6-1.15-0.917-2.25-0.95l-1.2,0.05l-0.2-0.45
					C8.116-9.833,8.2-9.567,8.3-9.4l0.45,0.55l0.6,0.1c0.3-0.067,0.583-0.05,0.85,0.05C11-8.6,11.416-8.367,11.45-8z"/>
			</g>
		</g>
	</g>
</symbol>
<symbol  id="pumpkin" viewBox="3.95 -46.541 48.782 46.558">
	<g id="pumpkin_1_">
		
			<radialGradient id="SVGID_6_" cx="29.7002" cy="-41.2998" r="23.4126" gradientTransform="matrix(0.8456 0 0 -0.1583 6.1001 -49.104)" gradientUnits="userSpaceOnUse">
			<stop  offset="0.1647" style="stop-color:#000000;stop-opacity:0.8"/>
			<stop  offset="0.6353" style="stop-color:#000000;stop-opacity:0.1882"/>
			<stop  offset="1" style="stop-color:#000000;stop-opacity:0"/>
		</radialGradient>
		<path style="fill-rule:evenodd;clip-rule:evenodd;fill:url(#SVGID_6_);" d="M46.225-45.38c-4.144-0.774-9.147-1.161-15.01-1.161
			c-5.891,0-10.894,0.387-15.009,1.161c-4.144,0.773-6.215,1.712-6.215,2.814s2.071,2.041,6.215,2.814
			c4.115,0.773,9.118,1.161,15.009,1.161c5.863,0,10.866-0.387,15.01-1.161c4.144-0.773,6.215-1.712,6.215-2.814
			S50.368-44.607,46.225-45.38z"/>
		<g>
			
				<radialGradient id="SVGID_7_" cx="97.9204" cy="-16395.9609" r="4.0628" gradientTransform="matrix(-0.0118 -0.9999 -2.4336 0.0288 -39871.75 562.4141)" gradientUnits="userSpaceOnUse">
				<stop  offset="0" style="stop-color:#F5DC93"/>
				<stop  offset="0.2039" style="stop-color:#F4C125"/>
				<stop  offset="1" style="stop-color:#B47527"/>
			</radialGradient>
			<path style="fill-rule:evenodd;clip-rule:evenodd;fill:url(#SVGID_7_);" d="M34.7-12.15l-8-0.5l-3.2,0.9l-0.3,1.45
				c1.534,0.967,3.5,1.45,5.9,1.45c1.4,0,2.683-0.233,3.85-0.7c1.067-0.433,1.684-0.867,1.85-1.3
				C34.967-11.417,34.933-11.85,34.7-12.15z"/>
			
				<radialGradient id="SVGID_8_" cx="387.9678" cy="-16735.5938" r="14.8224" gradientTransform="matrix(-0.0565 -0.9984 1.1055 -0.0514 18564.4258 -482.647)" gradientUnits="userSpaceOnUse">
				<stop  offset="0" style="stop-color:#F5DC93"/>
				<stop  offset="0.2039" style="stop-color:#F4C125"/>
				<stop  offset="1" style="stop-color:#B47527"/>
			</radialGradient>
			<path style="fill-rule:evenodd;clip-rule:evenodd;fill:url(#SVGID_8_);" d="M52.45-26.85c-0.2-0.867-1.05-2.983-2.55-6.35
				c-0.733-1.667-2.017-3.283-3.85-4.85c-1.667-1.4-2.95-2.133-3.85-2.2c-1.066-0.1-4.183,0.967-9.35,3.2l-3.8,25.55
				c0.833,1,3.467,1.7,7.9,2.1c1.934,0.133,4.083-0.317,6.45-1.35c3.467-1.5,6.05-3.917,7.75-7.25
				C52.65-20.967,53.083-23.917,52.45-26.85z"/>
			
				<radialGradient id="SVGID_9_" cx="39.9497" cy="-12.6499" r="20.5518" gradientTransform="matrix(-0.0122 -0.9999 1.1069 -0.0135 54.4395 27.126)" gradientUnits="userSpaceOnUse">
				<stop  offset="0" style="stop-color:#F5DC93"/>
				<stop  offset="0.2039" style="stop-color:#F4C125"/>
				<stop  offset="1" style="stop-color:#B47527"/>
			</radialGradient>
			<path style="fill-rule:evenodd;clip-rule:evenodd;fill:url(#SVGID_9_);" d="M50-28.4c-0.5-2.733-1.4-5.034-2.7-6.9
				c-1.133-1.667-2.533-3.15-4.2-4.45c-1.667-1.333-3.367-2.283-5.1-2.85c-1.467-0.467-3-0.767-4.6-0.9h-2L29.65-12l2.55,0.4
				c2,0.233,3.833,0.283,5.5,0.15c2.367-0.167,4.6-0.9,6.7-2.2c2.533-1.534,4.25-3.583,5.15-6.15C50.45-22.367,50.6-25.233,50-28.4z
				"/>
			
				<radialGradient id="SVGID_10_" cx="-367.2715" cy="-15832.2705" r="14.8493" gradientTransform="matrix(0.0572 -0.9984 -1.1061 -0.0513 -17474.8457 -1188.7915)" gradientUnits="userSpaceOnUse">
				<stop  offset="0" style="stop-color:#F5DC93"/>
				<stop  offset="0.2039" style="stop-color:#F4C125"/>
				<stop  offset="1" style="stop-color:#B47527"/>
			</radialGradient>
			<path style="fill-rule:evenodd;clip-rule:evenodd;fill:url(#SVGID_10_);" d="M5.05-26.85c-0.633,2.933-0.2,5.883,1.3,8.85
				c1.7,3.333,4.283,5.75,7.75,7.25c2.367,1.033,4.517,1.483,6.45,1.35c1.533-0.133,3.133-0.417,4.8-0.85
				c2.066-0.533,3.25-1.117,3.55-1.75l-4.3-25.05c-5.133-2.233-8.233-3.3-9.3-3.2c-0.9,0.066-2.183,0.8-3.85,2.2
				c-1.833,1.567-3.117,3.184-3.85,4.85C6.1-29.833,5.25-27.717,5.05-26.85z"/>
			<path style="fill-rule:evenodd;clip-rule:evenodd;fill:#A96F24;" d="M6.2-24.65c0.267,1.6,0.583,3.15,0.95,4.65
				c0.467,2,1.717,3.8,3.75,5.4c1.533,1.233,3.217,2.167,5.05,2.8c1.667,0.567,4.684,0.534,9.05-0.1l2.95-5.6L24.6-37.05l-3.15-1.3
				l-1.8,1.85v14.9l-11.7,1.8L7.5-21.05c-0.3-1-0.517-1.95-0.65-2.85c-0.1-1.034-0.083-2.3,0.05-3.8
				c0.133-1.333,0.317-2.383,0.55-3.15c0.3-0.933,0.25-1.5-0.15-1.7c-0.833,1.8-1.283,2.8-1.35,3C5.417-28.283,5.066-27.1,4.9-26
				h0.35C5.717-26,6.033-25.55,6.2-24.65z"/>
			<path style="fill-rule:evenodd;clip-rule:evenodd;fill:#A26921;" d="M6.9-27.7c-0.133,1.5-0.15,2.767-0.05,3.8
				C6.983-23,7.2-22.05,7.5-21.05l0.45,1.25l11.7-1.8v-14.9l-9.8,10l-2.5,0.75l0.2-2.35c0.2-1.8,0.533-3.233,1-4.3
				c0.733-1.767,1.25-3.1,1.55-4l-0.25-0.05C8.816-35.383,8.066-34.3,7.6-33.2l-0.3,0.65c0.4,0.2,0.45,0.767,0.15,1.7
				C7.217-30.083,7.033-29.033,6.9-27.7z"/>
			<path style="fill-rule:evenodd;clip-rule:evenodd;fill:#905D1C;" d="M7.55-28.1l-0.2,2.35l2.5-0.75l11.6-11.85
				c-3.267-1.367-5.316-2-6.15-1.9c-0.566,0.033-1.367,0.4-2.4,1.1c-1.1,0.767-2.117,1.667-3.05,2.7l0.25,0.05
				c-0.3,0.9-0.817,2.233-1.55,4C8.083-31.333,7.75-29.9,7.55-28.1z"/>
			
				<radialGradient id="SVGID_11_" cx="-92.9688" cy="-16211.4766" r="20.5518" gradientTransform="matrix(0.0122 -0.9999 -1.1069 -0.0135 -17926.4746 -324.2822)" gradientUnits="userSpaceOnUse">
				<stop  offset="0" style="stop-color:#F5DC93"/>
				<stop  offset="0.2039" style="stop-color:#F4C125"/>
				<stop  offset="1" style="stop-color:#B47527"/>
			</radialGradient>
			<path style="fill-rule:evenodd;clip-rule:evenodd;fill:url(#SVGID_11_);" d="M7.5-28.4c-0.6,3.167-0.45,6.033,0.45,8.6
				c0.9,2.567,2.617,4.617,5.15,6.15c2.1,1.3,4.333,2.033,6.7,2.2c2.667,0.2,5.35,0.017,8.05-0.55L26.1-43.5
				c-2.067-0.167-4.267,0.133-6.6,0.9c-1.733,0.567-3.434,1.517-5.1,2.85c-1.667,1.3-3.067,2.783-4.2,4.45
				C8.933-33.434,8.033-31.133,7.5-28.4z"/>
			<path style="fill-rule:evenodd;clip-rule:evenodd;fill:#A96F24;" d="M27.7-12h0.15l-1.1-20.1l-8.9,5.75
				c-0.133-2.633-0.15-4.45-0.05-5.45c0.067-0.8,0.283-2.05,0.65-3.75c0.367-1.6,0.55-2.566,0.55-2.9
				c0.033-0.633-0.317-1.15-1.05-1.55c-0.833-0.5-1.85-0.55-3.05-0.15c-1.6,1.233-2.85,2.433-3.75,3.6
				c1.333-0.5,2.45-0.583,3.35-0.25c0.833,0.3,1.367,0.917,1.6,1.85C16.033-34.184,16-33.3,16-32.3c-0.067,2,0.333,4.867,1.2,8.6
				c0.9,3.8,2.867,6.867,5.9,9.2C24.633-13.333,26.167-12.5,27.7-12z"/>
			<path style="fill-rule:evenodd;clip-rule:evenodd;fill:#A26921;" d="M26.75-32.1l-0.2-2.95l-7.4,4.6L18.6-31.4l0.25-2
				c0.233-1.534,0.566-2.75,1-3.65c0.966-1.966,1.45-3.316,1.45-4.05c0-0.333-0.233-0.633-0.7-0.9c-0.6-0.267-1.35-0.317-2.25-0.15
				c-1.167,0.5-2.317,1.167-3.45,2c1.2-0.4,2.217-0.35,3.05,0.15c0.733,0.4,1.083,0.917,1.05,1.55c0,0.333-0.184,1.3-0.55,2.9
				c-0.367,1.7-0.583,2.95-0.65,3.75c-0.1,1-0.083,2.817,0.05,5.45L26.75-32.1z"/>
			<path style="fill-rule:evenodd;clip-rule:evenodd;fill:#905D1C;" d="M18.6-31.4l0.55,0.95l7.4-4.6l-0.3-6.1
				c-0.467,0.167-0.95,0.283-1.45,0.35l-0.6,0.05l0.35-0.4c0.1-0.367-0.133-0.8-0.7-1.3c-0.467-0.433-1.317-0.65-2.55-0.65
				l-2.95,0.95c0.9-0.167,1.65-0.117,2.25,0.15c0.466,0.267,0.7,0.566,0.7,0.9c0,0.733-0.483,2.083-1.45,4.05
				c-0.434,0.9-0.767,2.117-1,3.65L18.6-31.4z"/>
			<path style="fill-rule:evenodd;clip-rule:evenodd;fill:#6E4613;" d="M23.85-42.45c0.566,0.5,0.8,0.934,0.7,1.3l-0.35,0.4
				l0.6-0.05c0.5-0.066,0.983-0.183,1.45-0.35L26.1-43.5c-1.4-0.1-3,0.033-4.8,0.4C22.533-43.1,23.383-42.883,23.85-42.45z"/>
			
				<radialGradient id="SVGID_12_" cx="-51.7773" cy="-16238.5605" r="19.4632" gradientTransform="matrix(0.0078 -1 -0.9801 -0.0076 -15887.4238 -193.8242)" gradientUnits="userSpaceOnUse">
				<stop  offset="0" style="stop-color:#F5DC93"/>
				<stop  offset="0.2039" style="stop-color:#F4C125"/>
				<stop  offset="1" style="stop-color:#B47527"/>
			</radialGradient>
			<path style="fill-rule:evenodd;clip-rule:evenodd;fill:url(#SVGID_12_);" d="M28.45-11.8c2.7-0.033,4.95-0.917,6.75-2.65
				c1.633-1.6,2.617-3.633,2.95-6.1c0.267-2.167-0.017-5.367-0.85-9.6c-0.767-3.934-1.566-6.7-2.4-8.3
				c-0.933-1.867-1.817-3.267-2.65-4.2c-1.2-1.333-2.467-1.95-3.8-1.85c-1.333,0.1-2.716,0.8-4.15,2.1c-1.233,1.1-2.367,2.5-3.4,4.2
				c-1.167,1.934-2.05,3.95-2.65,6.05c-0.567,2.033-0.817,3.95-0.75,5.75c0.133,2.5,0.783,4.883,1.95,7.15
				c0.867,1.733,1.85,3.117,2.95,4.15c0.8,0.767,1.85,1.5,3.15,2.2C26.883-12.167,27.85-11.8,28.45-11.8z"/>
			<path style="fill-rule:evenodd;clip-rule:evenodd;fill:#A96F24;" d="M20.9-38.2c-0.233,0.4-0.667,1.217-1.3,2.45
				c1.1-1.367,3.017-2.317,5.75-2.85c2.367-0.433,4.267-0.467,5.7-0.1c2.2,0.633,4.15,2.867,5.85,6.7l-0.75-3.05
				c-1.033-2.066-1.583-3.167-1.65-3.3c-0.967-1.667-1.883-2.717-2.75-3.15c-2.633-1.333-5.267-1.217-7.9,0.35L22.3-40.2L20.9-38.2z
				"/>
			<path style="fill-rule:evenodd;clip-rule:evenodd;fill:#A26921;" d="M27.1-43.35c-1.034,0.133-2.083,0.567-3.15,1.3
				c-0.5,0.467-1.05,1.083-1.65,1.85l1.55-0.95c2.633-1.567,5.267-1.684,7.9-0.35c0.867,0.433,1.783,1.483,2.75,3.15
				c0.066,0.133,0.617,1.233,1.65,3.3c-0.533-1.7-0.95-2.833-1.25-3.4l-0.95-1.8c-1.1-1.533-2.3-2.5-3.6-2.9
				C29.55-43.417,28.467-43.483,27.1-43.35z"/>
			<path style="fill-rule:evenodd;clip-rule:evenodd;fill:#6E4613;" d="M23.95-42.05c1.067-0.733,2.117-1.167,3.15-1.3
				c1.367-0.133,2.45-0.067,3.25,0.2c1.3,0.4,2.5,1.367,3.6,2.9c-1.767-3-3.6-4.417-5.5-4.25
				C26.983-44.367,25.483-43.55,23.95-42.05z"/>
			
				<radialGradient id="SVGID_13_" cx="2.8389" cy="-16301.3838" r="35.075" gradientTransform="matrix(1.425517e-005 -1 -0.8357 1.425517e-005 -13595.7168 -6.6289)" gradientUnits="userSpaceOnUse">
				<stop  offset="0.4667" style="stop-color:#F4C125;stop-opacity:0"/>
				<stop  offset="1" style="stop-color:#603C10"/>
			</radialGradient>
			<path style="fill-rule:evenodd;clip-rule:evenodd;fill:url(#SVGID_13_);" d="M51.15-18c1.5-2.967,1.934-5.917,1.3-8.85
				c-0.2-0.867-1.05-2.983-2.55-6.35c-0.733-1.6-1.933-3.15-3.6-4.65c-1.533-1.333-2.8-2.117-3.8-2.35c-1.533-1.1-3.033-1.9-4.5-2.4
				c-1.467-0.467-3-0.767-4.6-0.9h-2c-0.933-0.767-1.917-1.1-2.95-1c-0.767,0.033-1.667,0.367-2.7,1c-2.067-0.1-4.15,0.2-6.25,0.9
				c-1.467,0.5-2.967,1.3-4.5,2.4c-1,0.233-2.267,1.017-3.8,2.35c-1.667,1.5-2.867,3.05-3.6,4.65c-1.5,3.367-2.35,5.483-2.55,6.35
				c-0.633,2.934-0.2,5.883,1.3,8.85c1.7,3.333,4.283,5.75,7.75,7.25c2.367,1.033,4.517,1.483,6.45,1.35
				c1.3-0.167,2.417-0.35,3.35-0.55c1.533,0.733,3.267,1.1,5.2,1.1c1.8,0,3.3-0.333,4.5-1l3.35,0.45
				c1.933,0.133,4.083-0.317,6.45-1.35C46.867-12.25,49.45-14.667,51.15-18z"/>
			
				<radialGradient id="SVGID_14_" cx="-73.6104" cy="-16230.1572" r="6.8753" gradientTransform="matrix(0.0087 -1 -0.8854 -0.0077 -14341.8828 -201.3936)" gradientUnits="userSpaceOnUse">
				<stop  offset="0" style="stop-color:#9FAB41"/>
				<stop  offset="1" style="stop-color:#796D12"/>
			</radialGradient>
			<path style="fill-rule:evenodd;clip-rule:evenodd;fill:url(#SVGID_14_);" d="M31.95-2.7c-0.267-0.9-0.5-1.517-0.7-1.85
				c-0.267-0.5-0.517-1.233-0.75-2.2S30.15-8.5,30.15-9.1c0-0.8,0.133-1.75,0.4-2.85c-0.2,0.2-0.566,0.267-1.1,0.2h-0.1
				c-1.034,0.1-1.983-0.1-2.85-0.6l-0.2,0.1c-0.933,2.433-1.467,4.483-1.6,6.15c-0.066,1.067-0.1,2.2-0.1,3.4v1.45l0.65-0.45
				l0.2-0.25c0.567-0.566,1.284-0.933,2.15-1.1c0.9-0.4,1.75-0.466,2.55-0.2c0.6,0.033,1.183,0.217,1.75,0.55H31.95z"/>
			
				<radialGradient id="SVGID_15_" cx="-78.9063" cy="-16227.4297" r="3.6627" gradientTransform="matrix(0.009 -1 -0.8839 -0.0079 -14314.8711 -208.5151)" gradientUnits="userSpaceOnUse">
				<stop  offset="0" style="stop-color:#9FAB41"/>
				<stop  offset="1" style="stop-color:#796D12"/>
			</radialGradient>
			<path style="fill-rule:evenodd;clip-rule:evenodd;fill:url(#SVGID_15_);" d="M29.75-3.85c-0.5,0.033-1.133-0.033-1.9-0.2
				c-0.534-0.1-1.217,0-2.05,0.3c-0.167,0.066-0.417,0.5-0.75,1.3l-0.45,1.2l1,0.85c0.9,0.5,1.917,0.55,3.05,0.15
				c1.133-0.367,2.017-0.883,2.65-1.55c0.333-0.333,0.55-0.633,0.65-0.9c-0.033-0.233-0.15-0.45-0.35-0.65
				C31.2-3.783,30.583-3.95,29.75-3.85z"/>
			<path style="fill-rule:evenodd;clip-rule:evenodd;fill:#4E4906;" d="M27.9-2.3c-0.333-0.4-0.567-0.767-0.7-1.1
				c-0.466-0.633-0.7-1.233-0.7-1.8c0-0.433,0.033-1.083,0.1-1.95c0-0.833-0.034-1.483-0.1-1.95c-0.067,0.467-0.117,0.8-0.15,1
				L25.9-5c-0.033,0.333-0.05,0.583-0.05,0.75c-0.034,0.267,0,0.483,0.1,0.65l0.25,0.35l1.55,0.95H27.9z"/>
			<path style="fill-rule:evenodd;clip-rule:evenodd;fill:#4E4906;" d="M28.75-3.85c-0.133-0.067-0.233-0.217-0.3-0.45
				c-0.066-0.133-0.133-0.316-0.2-0.55L27.8-6c-0.167,0.167-0.183,0.683-0.05,1.55c0,0.4,0.1,0.7,0.3,0.9L28.75-3.85z"/>
			<path style="fill-rule:evenodd;clip-rule:evenodd;fill:#5C5708;" d="M29.95-3.85l1.8,0.75L31.3-5.35L30.95-6.1
				C30.717-6.7,30.566-7.333,30.5-8c-0.1-0.767-0.15-1.517-0.15-2.25c0-0.167,0.017-0.483,0.05-0.95c0-0.4-0.033-0.7-0.1-0.9
				c-0.066,0-0.383,0.1-0.95,0.3c-0.434-0.033-0.7-0.017-0.8,0.05c-0.167,0.066-0.25,0.3-0.25,0.7c0.033,0.434,0.05,0.717,0.05,0.85
				c-0.034,0.567-0.067,1.017-0.1,1.35c-0.033,0.633,0.017,1.083,0.15,1.35c0.067-0.3,0.117-0.717,0.15-1.25
				c0.067-0.5,0.167-0.917,0.3-1.25v3.175c0.019-1.061,0.168-1.918,0.45-2.575c0.1,0.333,0.133,0.833,0.1,1.5
				c-0.033,0.667-0.017,1.167,0.05,1.5C29.583-5.233,29.75-4.383,29.95-3.85z"/>
		</g>
		<g>
			<g>
				
					<radialGradient id="SVGID_16_" cx="16297.6289" cy="-39.6709" r="6.4625" gradientTransform="matrix(7.736944e-005 1 1 7.736944e-005 71.7104 -16329.625)" gradientUnits="userSpaceOnUse">
					<stop  offset="0" style="stop-color:#FFFEF5"/>
					<stop  offset="1" style="stop-color:#FEE607"/>
				</radialGradient>
				<path style="fill-rule:evenodd;clip-rule:evenodd;fill:url(#SVGID_16_);" d="M28.55-25.85h0.1c2.367,0,3.283-0.683,2.75-2.05
					c-0.267-0.667-1.117-1.034-2.55-1.1h-0.5c-1.434,0.066-2.284,0.434-2.55,1.1C25.267-26.533,26.184-25.85,28.55-25.85z"/>
				
					<radialGradient id="SVGID_17_" cx="16292.6768" cy="-23.8247" r="7.0625" gradientTransform="matrix(7.079646e-005 1 1 7.079646e-005 40.0718 -16329.5742)" gradientUnits="userSpaceOnUse">
					<stop  offset="0" style="stop-color:#FFFEF5"/>
					<stop  offset="1" style="stop-color:#FEE607"/>
				</radialGradient>
				<path style="fill-rule:evenodd;clip-rule:evenodd;fill:url(#SVGID_17_);" d="M13.45-33.3c-0.933,0.133-1.95,0.35-3.05,0.65
					c-1.167,0.333-1.767,0.583-1.8,0.75l-0.15,1.55L9.5-30.7c0.333-0.133,1.35-0.45,3.05-0.95c1.633-0.467,2.534-0.7,2.7-0.7
					l0.05-0.2l0.05-1.15C15.217-33.633,14.584-33.5,13.45-33.3z"/>
				
					<radialGradient id="SVGID_18_" cx="16292.0488" cy="-23.9536" r="4.8" gradientTransform="matrix(1.041667e-004 1 1 1.041667e-004 40.0571 -16329.8457)" gradientUnits="userSpaceOnUse">
					<stop  offset="0" style="stop-color:#FFFEF5"/>
					<stop  offset="1" style="stop-color:#FEE607"/>
				</radialGradient>
				<path style="fill-rule:evenodd;clip-rule:evenodd;fill:url(#SVGID_18_);" d="M15.25-34.6c-0.1-0.066-0.017-0.316,0.25-0.75
					c0.133-0.2,0.267-0.4,0.4-0.6c-1.566-0.066-2.8-0.083-3.7-0.05l-2.3,0.25l-0.25,1.6l2.2-0.35
					C13.317-34.733,14.45-34.767,15.25-34.6z"/>
				
					<radialGradient id="SVGID_19_" cx="16289.6504" cy="-29.6499" r="20.2625" gradientTransform="matrix(2.467613e-005 1 1 2.467613e-005 52.0986 -16329.1992)" gradientUnits="userSpaceOnUse">
					<stop  offset="0" style="stop-color:#FFFEF5"/>
					<stop  offset="1" style="stop-color:#FEE607"/>
				</radialGradient>
				<path style="fill-rule:evenodd;clip-rule:evenodd;fill:url(#SVGID_19_);" d="M9.55-19.85c1,0.867,1.95,1.333,2.85,1.4
					c1.733,0.167,3.1-0.066,4.1-0.7c0.633-0.4,1.216-1.067,1.75-2c0.533-1,0.883-3.617,1.05-7.85c-0.566-0.3-1.35-0.4-2.35-0.3
					c-0.6,0.066-1.216,0.216-1.85,0.45l-0.75,0.3c0.167,1.6,0.267,2.933,0.3,4c0.066,0.733-0.25,1.35-0.95,1.85
					c-0.7,0.5-1.417,0.617-2.15,0.35c-0.566-0.233-1.066-1.167-1.5-2.8c-0.233-0.8-0.4-1.583-0.5-2.35
					c-1.066,0.1-1.716,0.35-1.95,0.75c-0.3,0.434-0.25,1.767,0.15,4C7.95-21.717,8.55-20.75,9.55-19.85z"/>
				
					<radialGradient id="SVGID_20_" cx="13.75" cy="-23.1001" r="11.725" gradientTransform="matrix(1 0 0 -1.0085 0 -46.3979)" gradientUnits="userSpaceOnUse">
					<stop  offset="0" style="stop-color:#FFF5B3;stop-opacity:0.8196"/>
					<stop  offset="1" style="stop-color:#FEE400;stop-opacity:0"/>
				</radialGradient>
				<path style="fill-rule:evenodd;clip-rule:evenodd;fill:url(#SVGID_20_);" d="M27.4-23.55c0-3.267-1.15-6.067-3.45-8.4
					c-2.3-2.3-5.067-3.45-8.3-3.45s-6,1.15-8.3,3.45c-2.267,2.333-3.4,5.133-3.4,8.4c0,3.267,1.133,6.066,3.4,8.4
					c2.3,2.3,5.066,3.45,8.3,3.45s6-1.15,8.3-3.45C26.25-17.483,27.4-20.283,27.4-23.55z"/>
				<g>
					
						<linearGradient id="SVGID_21_" gradientUnits="userSpaceOnUse" x1="2904.3291" y1="-18417.9629" x2="2912.2351" y2="-18417.9629" gradientTransform="matrix(-0.3067 -0.9518 0.9518 -0.3067 18438.4727 -2905.7109)">
						<stop  offset="0" style="stop-color:#DBAC46"/>
						<stop  offset="1" style="stop-color:#F7E16C"/>
					</linearGradient>
					<path style="fill-rule:evenodd;clip-rule:evenodd;fill:url(#SVGID_21_);" d="M12.5-22.25c1.028-0.005,1.711-0.039,2.05-0.1
						c0.4-0.1,0.733-0.316,1-0.65c0.333-0.467,0.45-1.066,0.35-1.8c-0.133-1.1-0.2-1.934-0.2-2.5l1.25-0.25
						c0.934-0.1,1.684-0.05,2.25,0.15l0.1-1.6c-0.566-0.3-1.35-0.4-2.35-0.3c-0.6,0.066-1.216,0.216-1.85,0.45l-0.75,0.3
						c0.167,1.6,0.267,2.933,0.3,4c0.033,0.633-0.2,1.183-0.7,1.65C13.519-22.498,13.036-22.281,12.5-22.25z"/>
					
						<linearGradient id="SVGID_22_" gradientUnits="userSpaceOnUse" x1="2904.3657" y1="-18423.9375" x2="2912.2717" y2="-18423.9375" gradientTransform="matrix(-0.3067 -0.9518 0.9518 -0.3067 18438.4727 -2905.7109)">
						<stop  offset="0" style="stop-color:#DBAC46"/>
						<stop  offset="1" style="stop-color:#F7E16C"/>
					</linearGradient>
					<path style="fill-rule:evenodd;clip-rule:evenodd;fill:url(#SVGID_22_);" d="M11.15-20.3c-0.533-0.733-1-1.567-1.4-2.5
						c-0.3-0.7-0.483-1.25-0.55-1.65L9-25.85l0.8-0.3L9.55-27.5c-1.066,0.1-1.716,0.35-1.95,0.75c-0.3,0.434-0.25,1.767,0.15,4
						c0.2,1.033,0.8,2,1.8,2.9c1,0.867,1.95,1.333,2.85,1.4c0.8,0.067,1.583,0.05,2.35-0.05C13.017-18.767,11.817-19.367,11.15-20.3
						z"/>
				</g>
				<linearGradient id="SVGID_23_" gradientUnits="userSpaceOnUse" x1="8.4502" y1="-32.0254" x2="15.3506" y2="-32.0254">
					<stop  offset="0" style="stop-color:#DBAC46"/>
					<stop  offset="1" style="stop-color:#F7E16C"/>
				</linearGradient>
				<path style="fill-rule:evenodd;clip-rule:evenodd;fill:url(#SVGID_23_);" d="M8.45-30.35l0.8-0.2c0.066-0.5,0.2-0.917,0.4-1.25
					c0.7-0.233,1.684-0.45,2.95-0.65c1.5-0.233,2.4-0.383,2.7-0.45l0.05-0.8c-0.134,0.067-0.767,0.2-1.9,0.4
					c-0.933,0.133-1.95,0.35-3.05,0.65c-1.167,0.333-1.767,0.583-1.8,0.75L8.45-30.35z"/>
				<linearGradient id="SVGID_24_" gradientUnits="userSpaceOnUse" x1="9.6631" y1="-35.083" x2="15.9381" y2="-35.083">
					<stop  offset="0" style="stop-color:#DBAC46"/>
					<stop  offset="1" style="stop-color:#F7E16C"/>
				</linearGradient>
				<path style="fill-rule:evenodd;clip-rule:evenodd;fill:url(#SVGID_24_);" d="M11.3-35.3l4.25-0.1l0.35-0.55
					c-1.566-0.066-2.8-0.083-3.7-0.05l-2.3,0.25l-0.25,1.6l1-0.15C10.884-34.967,11.101-35.3,11.3-35.3z"/>
				<linearGradient id="SVGID_25_" gradientUnits="userSpaceOnUse" x1="25.6504" y1="-27.7749" x2="31.5504" y2="-27.7749">
					<stop  offset="0" style="stop-color:#DBAC46"/>
					<stop  offset="1" style="stop-color:#F7E16C"/>
				</linearGradient>
				<path style="fill-rule:evenodd;clip-rule:evenodd;fill:url(#SVGID_25_);" d="M28.851-29h-0.5c-1.434,0.066-2.284,0.434-2.55,1.1
					c-0.233,0.566-0.216,1.017,0.05,1.35c0.2-0.767,0.75-1.2,1.65-1.3c0.667-0.1,1.316-0.066,1.95,0.1
					c0.867,0.167,1.5,0.566,1.9,1.2c0.267-0.333,0.283-0.784,0.05-1.35C31.134-28.566,30.284-28.934,28.851-29z"/>
				<radialGradient id="SVGID_26_" cx="40.2505" cy="-36.8999" r="7.0625" gradientUnits="userSpaceOnUse">
					<stop  offset="0" style="stop-color:#FFFEF5"/>
					<stop  offset="1" style="stop-color:#FEE607"/>
				</radialGradient>
				<path style="fill-rule:evenodd;clip-rule:evenodd;fill:url(#SVGID_26_);" d="M42.45-32.35c0.134,0,1.034,0.233,2.7,0.7
					c1.7,0.5,2.717,0.816,3.05,0.95l1,0.35l-0.1-1.55c-0.034-0.167-0.634-0.417-1.8-0.75c-1.133-0.3-2.15-0.517-3.05-0.65l-1.95-0.4
					l0.05,1.15L42.45-32.35z"/>
				<radialGradient id="SVGID_27_" cx="39.9004" cy="-37.7998" r="4.8" gradientUnits="userSpaceOnUse">
					<stop  offset="0" style="stop-color:#FFFEF5"/>
					<stop  offset="1" style="stop-color:#FEE607"/>
				</radialGradient>
				<path style="fill-rule:evenodd;clip-rule:evenodd;fill:url(#SVGID_27_);" d="M42.45-34.6l0.85-0.1c0.767,0,1.617,0.067,2.55,0.2
					l2.2,0.35l-0.3-1.6c-0.6-0.133-1.35-0.217-2.25-0.25l-3.75,0.05C42.351-35.15,42.584-34.7,42.45-34.6z"/>
				<radialGradient id="SVGID_28_" cx="34.8003" cy="-39.5498" r="20.2625" gradientUnits="userSpaceOnUse">
					<stop  offset="0" style="stop-color:#FFFEF5"/>
					<stop  offset="1" style="stop-color:#FEE607"/>
				</radialGradient>
				<path style="fill-rule:evenodd;clip-rule:evenodd;fill:url(#SVGID_28_);" d="M49.9-22.75c0.434-2.167,0.5-3.5,0.2-4
					c-0.267-0.4-0.934-0.65-2-0.75c-0.367,3.066-1.034,4.783-2,5.15c-0.7,0.267-1.4,0.15-2.1-0.35c-0.7-0.5-1.034-1.116-1-1.85
					l0.35-4c-0.767-0.4-1.65-0.65-2.65-0.75c-0.6-0.067-1.167-0.034-1.7,0.1l-0.65,0.2c0.2,4.233,0.566,6.85,1.1,7.85
					c0.534,0.933,1.117,1.6,1.75,2c1,0.633,2.35,0.867,4.05,0.7c0.933-0.066,1.883-0.533,2.85-1.4
					C49.134-20.75,49.734-21.717,49.9-22.75z"/>
				
					<radialGradient id="SVGID_29_" cx="44" cy="-23.3501" r="11.725" gradientTransform="matrix(1 0 0 -1.0085 0 -46.8999)" gradientUnits="userSpaceOnUse">
					<stop  offset="0" style="stop-color:#FFF5B3;stop-opacity:0.8196"/>
					<stop  offset="1" style="stop-color:#FEE400;stop-opacity:0"/>
				</radialGradient>
				<path style="fill-rule:evenodd;clip-rule:evenodd;fill:url(#SVGID_29_);" d="M52.2-23.55c0-3.267-1.15-6.067-3.45-8.4
					c-2.267-2.3-5.033-3.45-8.3-3.45c-3.233,0-6,1.15-8.3,3.45c-2.267,2.333-3.4,5.133-3.4,8.4c0,3.267,1.133,6.066,3.4,8.4
					c2.3,2.3,5.067,3.45,8.3,3.45c3.267,0,6.033-1.15,8.3-3.45C51.05-17.483,52.2-20.283,52.2-23.55z"/>
				<g>
					<linearGradient id="SVGID_30_" gradientUnits="userSpaceOnUse" x1="40.7637" y1="-28.3999" x2="43.1887" y2="-20.8749">
						<stop  offset="0" style="stop-color:#DBAC46"/>
						<stop  offset="1" style="stop-color:#F7E16C"/>
					</linearGradient>
					<path style="fill-rule:evenodd;clip-rule:evenodd;fill:url(#SVGID_30_);" d="M43-24.55l0.35-4c-0.767-0.4-1.65-0.65-2.65-0.75
						c-0.6-0.067-1.167-0.034-1.7,0.1l-0.65,0.2l0.1,1.6c0.967-0.333,2.134-0.3,3.5,0.1c0,0.566-0.066,1.4-0.2,2.5
						c-0.1,0.733,0.033,1.333,0.4,1.8c0.267,0.333,0.6,0.55,1,0.65c0.309,0.062,0.992,0.095,2.05,0.1
						c-0.535-0.031-1.019-0.248-1.45-0.65C43.217-23.367,42.967-23.917,43-24.55z"/>
					<linearGradient id="SVGID_31_" gradientUnits="userSpaceOnUse" x1="45.3184" y1="-26.3291" x2="47.7434" y2="-18.8041">
						<stop  offset="0" style="stop-color:#DBAC46"/>
						<stop  offset="1" style="stop-color:#F7E16C"/>
					</linearGradient>
					<path style="fill-rule:evenodd;clip-rule:evenodd;fill:url(#SVGID_31_);" d="M49.9-22.75c0.434-2.167,0.5-3.5,0.2-4
						c-0.267-0.4-0.934-0.65-2-0.75l-0.2,1.35l0.75,0.3l-0.2,1.4c-0.033,0.333-0.216,0.884-0.55,1.65
						c-0.4,0.933-0.867,1.767-1.4,2.5c-0.6,0.933-1.8,1.533-3.6,1.8c0.8,0.133,1.583,0.15,2.35,0.05
						c0.933-0.066,1.883-0.533,2.85-1.4C49.134-20.75,49.734-21.717,49.9-22.75z"/>
				</g>
				<linearGradient id="SVGID_32_" gradientUnits="userSpaceOnUse" x1="49.2002" y1="-32.0254" x2="42.3003" y2="-32.0254">
					<stop  offset="0" style="stop-color:#DBAC46"/>
					<stop  offset="1" style="stop-color:#F7E16C"/>
				</linearGradient>
				<path style="fill-rule:evenodd;clip-rule:evenodd;fill:url(#SVGID_32_);" d="M42.351-32.9c0.3,0.066,1.216,0.216,2.75,0.45
					c1.267,0.2,2.25,0.417,2.95,0.65c0.167,0.333,0.3,0.75,0.4,1.25c0.333,0.133,0.583,0.2,0.75,0.2l-0.1-1.55
					c-0.034-0.167-0.634-0.417-1.8-0.75c-1.133-0.3-2.15-0.517-3.05-0.65l-1.95-0.4L42.351-32.9z"/>
				<linearGradient id="SVGID_33_" gradientUnits="userSpaceOnUse" x1="48.0381" y1="-35.0752" x2="41.7631" y2="-35.0752">
					<stop  offset="0" style="stop-color:#DBAC46"/>
					<stop  offset="1" style="stop-color:#F7E16C"/>
				</linearGradient>
				<path style="fill-rule:evenodd;clip-rule:evenodd;fill:url(#SVGID_33_);" d="M46.4-35.3c0.2,0,0.417,0.333,0.65,1l1,0.15
					l-0.3-1.6c-0.6-0.133-1.35-0.217-2.25-0.25l-3.75,0.05l0.4,0.55L46.4-35.3z"/>
			</g>
			<g>
				<path style="fill-rule:evenodd;clip-rule:evenodd;fill:#AD7C19;" d="M21.55-12.65c-1.566-0.2-2.833-0.383-3.8-0.55
					c-1.434-0.267-3.1-0.917-5-1.95c-0.934-0.5-1.733-0.983-2.4-1.45l1.25,4.55l4.1,0.75c2.867,0.5,4.684,0.733,5.45,0.7
					c0.833-0.034,1.417-0.267,1.75-0.7c0.3-0.367,0.333-0.683,0.1-0.95C22.9-12.384,22.417-12.517,21.55-12.65z"/>
				
					<linearGradient id="SVGID_34_" gradientUnits="userSpaceOnUse" x1="19614.5293" y1="-9392.4619" x2="19623.5957" y2="-9392.4619" gradientTransform="matrix(-0.7776 0.6287 -0.6287 -0.7776 9371.8359 -19650.6836)">
					<stop  offset="0" style="stop-color:#866327"/>
					<stop  offset="1" style="stop-color:#DEC162"/>
				</linearGradient>
				<path style="fill-rule:evenodd;clip-rule:evenodd;fill:url(#SVGID_34_);" d="M21.55-11l-0.8-1.25c-1.267,0.267-2,0.4-2.2,0.4
					c-0.2,0-1.933,1.316-5.2,3.95L11-5.6c0.267,0.167,0.55,0.316,0.85,0.45c0.6,0.333,0.966,0.5,1.1,0.5c0.233,0,0.6-0.1,1.1-0.3
					c0.633-0.233,1.2-0.55,1.7-0.95c0.767-0.633,1.983-1.716,3.65-3.25C20-9.617,20.717-10.233,21.55-11z"/>
				
					<radialGradient id="SVGID_35_" cx="-64.2285" cy="-16250.502" r="7.4128" gradientTransform="matrix(0.008 -1 -0.8853 -0.0071 -14373.2109 -187.584)" gradientUnits="userSpaceOnUse">
					<stop  offset="0" style="stop-color:#F5DC93"/>
					<stop  offset="0.2039" style="stop-color:#F4C125"/>
					<stop  offset="1" style="stop-color:#B47527"/>
				</radialGradient>
				<path style="fill-rule:evenodd;clip-rule:evenodd;fill:url(#SVGID_35_);" d="M20.3-11.3l0.45-0.95
					c-0.567-0.134-1.267-0.317-2.1-0.55c-1.633-0.5-3.05-1.033-4.25-1.6c-1.1-0.533-2.1-1.066-3-1.6c-0.633-0.4-0.983-0.6-1.05-0.6
					c-0.167,0-0.25,0.6-0.25,1.8c-0.034,1.233,0.017,2.267,0.15,3.1c0.066,0.333,0.167,1.483,0.3,3.45
					C10.65-6.717,10.8-5.833,11-5.6c0.233,0.3,0.783,0.267,1.65-0.1c0.833-0.333,1.633-0.816,2.4-1.45
					C18.017-9.717,19.767-11.1,20.3-11.3z"/>
				<path style="fill-rule:evenodd;clip-rule:evenodd;fill:#AD7C19;" d="M37.15-10.6c1.233,0.066,4.417-0.417,9.55-1.45l1.25-4.55
					c-2.633,1.867-5.083,3-7.35,3.4c-3.333,0.367-5.1,0.684-5.3,0.95c-0.233,0.267-0.2,0.583,0.1,0.95
					C35.734-10.867,36.317-10.634,37.15-10.6z"/>
				<linearGradient id="SVGID_36_" gradientUnits="userSpaceOnUse" x1="37.437" y1="-4.8921" x2="44.487" y2="-10.5921">
					<stop  offset="0" style="stop-color:#866327"/>
					<stop  offset="1" style="stop-color:#DEC162"/>
				</linearGradient>
				<path style="fill-rule:evenodd;clip-rule:evenodd;fill:url(#SVGID_36_);" d="M44.95-7.9c-3.267-2.633-5-3.95-5.2-3.95l-2.2-0.4
					L36.75-11c0.833,0.767,1.55,1.383,2.15,1.85c1.667,1.534,2.883,2.617,3.65,3.25c0.5,0.4,1.067,0.717,1.7,0.95
					c0.5,0.2,0.867,0.3,1.1,0.3c0.133,0,0.5-0.167,1.1-0.5c0.3-0.133,0.583-0.283,0.85-0.45L44.95-7.9z"/>
				
					<radialGradient id="SVGID_37_" cx="45.5503" cy="-7.9004" r="7.4128" gradientTransform="matrix(-0.008 -1 0.8853 -0.0071 52.9102 37.5928)" gradientUnits="userSpaceOnUse">
					<stop  offset="0" style="stop-color:#F5DC93"/>
					<stop  offset="0.2039" style="stop-color:#F4C125"/>
					<stop  offset="1" style="stop-color:#B47527"/>
				</radialGradient>
				<path style="fill-rule:evenodd;clip-rule:evenodd;fill:url(#SVGID_37_);" d="M47.3-5.6c0.2-0.233,0.35-1.117,0.45-2.65
					c0.133-1.967,0.233-3.117,0.3-3.45c0.133-0.833,0.2-1.867,0.2-3.1c-0.034-1.2-0.133-1.8-0.3-1.8c-0.066,0-0.417,0.2-1.05,0.6
					c-0.9,0.533-1.9,1.066-3,1.6c-1.2,0.567-2.617,1.1-4.25,1.6l-2.1,0.55L38-11.3c0.533,0.2,2.283,1.583,5.25,4.15
					c0.767,0.634,1.566,1.117,2.4,1.45C46.517-5.333,47.067-5.3,47.3-5.6z"/>
			</g>
		</g>
	</g>
	<g id="Layer_2_3_">
		
			<use xlink:href="#Symbol_1"  width="23.4" height="14.9" x="0" y="-14.9" transform="matrix(1 0 0 1 16.8501 -26.5498)" style="overflow:visible;"/>
	</g>
	<g id="Layer_4_1_">
	</g>
	<g id="Layer_3_2_">
	</g>
</symbol>
<use xlink:href="#pumpkin"  width="48.782" height="46.558" id="pumpkin_x5F_mc" x="3.95" y="-46.541" transform="matrix(1 0 0 -1 1.4502 0)" style="overflow:visible;"/>
</svg>
