<?xml version="1.0" encoding="iso-8859-1"?>
<!-- Generator: Adobe Illustrator 15.1.0, SVG Export Plug-In . SVG Version: 6.00 Build 0)  -->
<!DOCTYPE svg PUBLIC "-//W3C//DTD SVG 1.1//EN" "http://www.w3.org/Graphics/SVG/1.1/DTD/svg11.dtd">
<svg version="1.1" id="FlashAICB" xmlns="http://www.w3.org/2000/svg" xmlns:xlink="http://www.w3.org/1999/xlink" x="0px" y="0px"
	 width="62.5px" height="46.55px" viewBox="0 0 62.5 46.55" style="enable-background:new 0 0 62.5 46.55;" xml:space="preserve">
<symbol  id="_x31_" viewBox="0.018 -44.517 47.964 44.534">
	<g id="Layer_1_2_">
		<g>
			
				<radialGradient id="SVGID_1_" cx="97.9766" cy="-16400.709" r="4.0628" gradientTransform="matrix(-0.0118 -0.9999 -2.4336 0.0288 -39888.0508 562.6064)" gradientUnits="userSpaceOnUse">
				<stop  offset="0" style="stop-color:#F5DC93"/>
				<stop  offset="0.2039" style="stop-color:#F4C125"/>
				<stop  offset="1" style="stop-color:#B47527"/>
			</radialGradient>
			<path style="fill-rule:evenodd;clip-rule:evenodd;fill:url(#SVGID_1_);" d="M29.95-12.15l-8-0.5l-3.2,0.9l-0.3,1.45
				c1.534,0.967,3.5,1.45,5.9,1.45c1.4,0,2.683-0.233,3.85-0.7c1.067-0.433,1.684-0.867,1.85-1.3
				C30.217-11.417,30.183-11.85,29.95-12.15z"/>
			
				<radialGradient id="SVGID_2_" cx="388.1885" cy="-16740.3359" r="14.8224" gradientTransform="matrix(-0.0565 -0.9984 1.1055 -0.0514 18564.9316 -482.6704)" gradientUnits="userSpaceOnUse">
				<stop  offset="0" style="stop-color:#F5DC93"/>
				<stop  offset="0.2039" style="stop-color:#F4C125"/>
				<stop  offset="1" style="stop-color:#B47527"/>
			</radialGradient>
			<path style="fill-rule:evenodd;clip-rule:evenodd;fill:url(#SVGID_2_);" d="M47.7-26.85c-0.2-0.867-1.05-2.983-2.55-6.35
				c-0.733-1.667-2.017-3.283-3.85-4.85c-1.667-1.4-2.95-2.133-3.85-2.2c-1.066-0.1-4.183,0.967-9.35,3.2L24.3-11.5
				c0.833,1,3.467,1.7,7.9,2.1c1.934,0.133,4.083-0.317,6.45-1.35c3.467-1.5,6.05-3.917,7.75-7.25
				C47.9-20.967,48.333-23.917,47.7-26.85z"/>
			
				<radialGradient id="SVGID_3_" cx="35.1997" cy="-12.6499" r="20.5518" gradientTransform="matrix(-0.0122 -0.9999 1.1069 -0.0135 49.6309 22.3765)" gradientUnits="userSpaceOnUse">
				<stop  offset="0" style="stop-color:#F5DC93"/>
				<stop  offset="0.2039" style="stop-color:#F4C125"/>
				<stop  offset="1" style="stop-color:#B47527"/>
			</radialGradient>
			<path style="fill-rule:evenodd;clip-rule:evenodd;fill:url(#SVGID_3_);" d="M45.25-28.4c-0.5-2.733-1.4-5.034-2.7-6.9
				c-1.133-1.667-2.533-3.15-4.2-4.45c-1.667-1.333-3.367-2.283-5.1-2.85c-1.467-0.467-3-0.767-4.6-0.9h-2L24.9-12l2.55,0.4
				c2,0.233,3.833,0.283,5.5,0.15c2.367-0.167,4.6-0.9,6.7-2.2c2.533-1.534,4.25-3.583,5.15-6.15
				C45.7-22.367,45.85-25.233,45.25-28.4z"/>
			
				<radialGradient id="SVGID_4_" cx="-367.4922" cy="-15837.0127" r="14.8493" gradientTransform="matrix(0.0572 -0.9984 -1.1061 -0.0513 -17484.8281 -1189.2549)" gradientUnits="userSpaceOnUse">
				<stop  offset="0" style="stop-color:#F5DC93"/>
				<stop  offset="0.2039" style="stop-color:#F4C125"/>
				<stop  offset="1" style="stop-color:#B47527"/>
			</radialGradient>
			<path style="fill-rule:evenodd;clip-rule:evenodd;fill:url(#SVGID_4_);" d="M0.3-26.85c-0.633,2.933-0.2,5.883,1.3,8.85
				c1.7,3.333,4.283,5.75,7.75,7.25c2.367,1.033,4.517,1.483,6.45,1.35c1.533-0.133,3.133-0.417,4.8-0.85
				c2.066-0.533,3.25-1.117,3.55-1.75l-4.3-25.05c-5.133-2.233-8.233-3.3-9.3-3.2c-0.9,0.066-2.183,0.8-3.85,2.2
				c-1.833,1.567-3.117,3.184-3.85,4.85C1.35-29.833,0.5-27.717,0.3-26.85z"/>
			<path style="fill-rule:evenodd;clip-rule:evenodd;fill:#A96F24;" d="M1.45-24.65C1.717-23.05,2.033-21.5,2.4-20
				c0.467,2,1.717,3.8,3.75,5.4c1.533,1.233,3.217,2.167,5.05,2.8c1.667,0.567,4.684,0.534,9.05-0.1l2.95-5.6l-3.35-19.55l-3.15-1.3
				l-1.8,1.85v14.9L3.2-19.8l-0.45-1.25c-0.3-1-0.517-1.95-0.65-2.85c-0.1-1.034-0.083-2.3,0.05-3.8
				c0.133-1.333,0.317-2.383,0.55-3.15c0.3-0.933,0.25-1.5-0.15-1.7c-0.833,1.8-1.283,2.8-1.35,3C0.667-28.283,0.316-27.1,0.15-26
				H0.5C0.967-26,1.283-25.55,1.45-24.65z"/>
			<path style="fill-rule:evenodd;clip-rule:evenodd;fill:#A26921;" d="M2.15-27.7C2.017-26.2,2-24.934,2.1-23.9
				c0.133,0.9,0.35,1.85,0.65,2.85L3.2-19.8l11.7-1.8v-14.9l-9.8,10l-2.5,0.75l0.2-2.35c0.2-1.8,0.533-3.233,1-4.3
				c0.733-1.767,1.25-3.1,1.55-4L5.1-36.45c-1.034,1.067-1.784,2.15-2.25,3.25l-0.3,0.65c0.4,0.2,0.45,0.767,0.15,1.7
				C2.467-30.083,2.283-29.033,2.15-27.7z"/>
			<path style="fill-rule:evenodd;clip-rule:evenodd;fill:#905D1C;" d="M2.8-28.1l-0.2,2.35l2.5-0.75l11.6-11.85
				c-3.267-1.367-5.316-2-6.15-1.9c-0.566,0.033-1.367,0.4-2.4,1.1c-1.1,0.767-2.117,1.667-3.05,2.7l0.25,0.05
				c-0.3,0.9-0.817,2.233-1.55,4C3.333-31.333,3-29.9,2.8-28.1z"/>
			
				<radialGradient id="SVGID_5_" cx="-93.0273" cy="-16216.2266" r="20.5518" gradientTransform="matrix(0.0122 -0.9999 -1.1069 -0.0135 -17936.4824 -324.4038)" gradientUnits="userSpaceOnUse">
				<stop  offset="0" style="stop-color:#F5DC93"/>
				<stop  offset="0.2039" style="stop-color:#F4C125"/>
				<stop  offset="1" style="stop-color:#B47527"/>
			</radialGradient>
			<path style="fill-rule:evenodd;clip-rule:evenodd;fill:url(#SVGID_5_);" d="M2.75-28.4c-0.6,3.167-0.45,6.033,0.45,8.6
				c0.9,2.567,2.617,4.617,5.15,6.15c2.1,1.3,4.333,2.033,6.7,2.2c2.667,0.2,5.35,0.017,8.05-0.55l-1.75-31.5
				c-2.067-0.167-4.267,0.133-6.6,0.9c-1.733,0.567-3.434,1.517-5.1,2.85c-1.667,1.3-3.067,2.783-4.2,4.45
				C4.183-33.434,3.283-31.133,2.75-28.4z"/>
			<path style="fill-rule:evenodd;clip-rule:evenodd;fill:#A96F24;" d="M22.95-12h0.15L22-32.1l-8.9,5.75
				c-0.133-2.633-0.15-4.45-0.05-5.45c0.067-0.8,0.283-2.05,0.65-3.75c0.367-1.6,0.55-2.566,0.55-2.9
				c0.033-0.633-0.317-1.15-1.05-1.55c-0.833-0.5-1.85-0.55-3.05-0.15c-1.6,1.233-2.85,2.433-3.75,3.6
				c1.333-0.5,2.45-0.583,3.35-0.25c0.833,0.3,1.367,0.917,1.6,1.85c-0.067,0.767-0.1,1.65-0.1,2.65c-0.067,2,0.333,4.867,1.2,8.6
				c0.9,3.8,2.867,6.867,5.9,9.2C19.883-13.333,21.417-12.5,22.95-12z"/>
			<path style="fill-rule:evenodd;clip-rule:evenodd;fill:#A26921;" d="M22-32.1l-0.2-2.95l-7.4,4.6l-0.55-0.95l0.25-2
				c0.233-1.534,0.566-2.75,1-3.65c0.966-1.966,1.45-3.316,1.45-4.05c0-0.333-0.233-0.633-0.7-0.9c-0.6-0.267-1.35-0.317-2.25-0.15
				c-1.167,0.5-2.317,1.167-3.45,2c1.2-0.4,2.217-0.35,3.05,0.15c0.733,0.4,1.083,0.917,1.05,1.55c0,0.333-0.184,1.3-0.55,2.9
				c-0.367,1.7-0.583,2.95-0.65,3.75c-0.1,1-0.083,2.817,0.05,5.45L22-32.1z"/>
			<path style="fill-rule:evenodd;clip-rule:evenodd;fill:#905D1C;" d="M14.1-33.4l-0.25,2l0.55,0.95l7.4-4.6l-0.3-6.1
				c-0.467,0.167-0.95,0.283-1.45,0.35l-0.6,0.05l0.35-0.4c0.1-0.367-0.133-0.8-0.7-1.3c-0.467-0.433-1.317-0.65-2.55-0.65
				l-2.95,0.95c0.9-0.167,1.65-0.117,2.25,0.15c0.466,0.267,0.7,0.566,0.7,0.9c0,0.733-0.483,2.083-1.45,4.05
				C14.667-36.15,14.333-34.934,14.1-33.4z"/>
			<path style="fill-rule:evenodd;clip-rule:evenodd;fill:#6E4613;" d="M19.1-42.45c0.566,0.5,0.8,0.934,0.7,1.3l-0.35,0.4l0.6-0.05
				c0.5-0.066,0.983-0.183,1.45-0.35l-0.15-2.35c-1.4-0.1-3,0.033-4.8,0.4C17.783-43.1,18.633-42.883,19.1-42.45z"/>
			
				<radialGradient id="SVGID_6_" cx="-51.8145" cy="-16243.3105" r="19.4632" gradientTransform="matrix(0.0078 -1 -0.9801 -0.0076 -15896.8301 -193.897)" gradientUnits="userSpaceOnUse">
				<stop  offset="0" style="stop-color:#F5DC93"/>
				<stop  offset="0.2039" style="stop-color:#F4C125"/>
				<stop  offset="1" style="stop-color:#B47527"/>
			</radialGradient>
			<path style="fill-rule:evenodd;clip-rule:evenodd;fill:url(#SVGID_6_);" d="M23.7-11.8c2.7-0.033,4.95-0.917,6.75-2.65
				c1.633-1.6,2.617-3.633,2.95-6.1c0.267-2.167-0.017-5.367-0.85-9.6c-0.767-3.934-1.566-6.7-2.4-8.3
				c-0.933-1.867-1.817-3.267-2.65-4.2c-1.2-1.333-2.467-1.95-3.8-1.85c-1.333,0.1-2.716,0.8-4.15,2.1c-1.233,1.1-2.367,2.5-3.4,4.2
				c-1.167,1.934-2.05,3.95-2.65,6.05c-0.567,2.033-0.817,3.95-0.75,5.75c0.133,2.5,0.783,4.883,1.95,7.15
				c0.867,1.733,1.85,3.117,2.95,4.15c0.8,0.767,1.85,1.5,3.15,2.2C22.133-12.167,23.1-11.8,23.7-11.8z"/>
			<path style="fill-rule:evenodd;clip-rule:evenodd;fill:#A96F24;" d="M16.15-38.2c-0.233,0.4-0.667,1.217-1.3,2.45
				c1.1-1.367,3.017-2.317,5.75-2.85c2.367-0.433,4.267-0.467,5.7-0.1c2.2,0.633,4.15,2.867,5.85,6.7l-0.75-3.05
				c-1.033-2.066-1.583-3.167-1.65-3.3c-0.967-1.667-1.883-2.717-2.75-3.15c-2.633-1.333-5.267-1.217-7.9,0.35l-1.55,0.95
				L16.15-38.2z"/>
			<path style="fill-rule:evenodd;clip-rule:evenodd;fill:#A26921;" d="M22.35-43.35c-1.034,0.133-2.083,0.567-3.15,1.3
				c-0.5,0.467-1.05,1.083-1.65,1.85l1.55-0.95c2.633-1.567,5.267-1.684,7.9-0.35c0.867,0.433,1.783,1.483,2.75,3.15
				c0.066,0.133,0.617,1.233,1.65,3.3c-0.533-1.7-0.95-2.833-1.25-3.4l-0.95-1.8c-1.1-1.533-2.3-2.5-3.6-2.9
				C24.8-43.417,23.717-43.483,22.35-43.35z"/>
			<path style="fill-rule:evenodd;clip-rule:evenodd;fill:#6E4613;" d="M19.2-42.05c1.067-0.733,2.117-1.167,3.15-1.3
				c1.367-0.133,2.45-0.067,3.25,0.2c1.3,0.4,2.5,1.367,3.6,2.9c-1.767-3-3.6-4.417-5.5-4.25C22.233-44.367,20.733-43.55,19.2-42.05
				z"/>
			
				<radialGradient id="SVGID_7_" cx="2.8389" cy="-16306.1338" r="35.075" gradientTransform="matrix(1.425517e-005 -1 -0.8357 1.425517e-005 -13604.4355 -6.6284)" gradientUnits="userSpaceOnUse">
				<stop  offset="0.4667" style="stop-color:#F4C125;stop-opacity:0"/>
				<stop  offset="1" style="stop-color:#603C10"/>
			</radialGradient>
			<path style="fill-rule:evenodd;clip-rule:evenodd;fill:url(#SVGID_7_);" d="M46.4-18c1.5-2.967,1.934-5.917,1.3-8.85
				c-0.2-0.867-1.05-2.983-2.55-6.35c-0.733-1.6-1.933-3.15-3.6-4.65c-1.533-1.333-2.8-2.117-3.8-2.35c-1.533-1.1-3.033-1.9-4.5-2.4
				c-1.467-0.467-3-0.767-4.6-0.9h-2c-0.933-0.767-1.917-1.1-2.95-1c-0.767,0.033-1.667,0.367-2.7,1c-2.067-0.1-4.15,0.2-6.25,0.9
				c-1.467,0.5-2.967,1.3-4.5,2.4c-1,0.233-2.267,1.017-3.8,2.35c-1.667,1.5-2.867,3.05-3.6,4.65c-1.5,3.367-2.35,5.483-2.55,6.35
				c-0.633,2.934-0.2,5.883,1.3,8.85c1.7,3.333,4.283,5.75,7.75,7.25c2.367,1.033,4.517,1.483,6.45,1.35
				c1.3-0.167,2.417-0.35,3.35-0.55c1.533,0.733,3.267,1.1,5.2,1.1c1.8,0,3.3-0.333,4.5-1L32.2-9.4
				c1.933,0.133,4.083-0.317,6.45-1.35C42.117-12.25,44.7-14.667,46.4-18z"/>
			
				<radialGradient id="SVGID_8_" cx="-73.6514" cy="-16234.9072" r="6.8753" gradientTransform="matrix(0.0087 -1 -0.8854 -0.0077 -14350.8379 -201.4712)" gradientUnits="userSpaceOnUse">
				<stop  offset="0" style="stop-color:#9FAB41"/>
				<stop  offset="1" style="stop-color:#796D12"/>
			</radialGradient>
			<path style="fill-rule:evenodd;clip-rule:evenodd;fill:url(#SVGID_8_);" d="M27.2-2.7c-0.267-0.9-0.5-1.517-0.7-1.85
				c-0.267-0.5-0.517-1.233-0.75-2.2S25.4-8.5,25.4-9.1c0-0.8,0.133-1.75,0.4-2.85c-0.2,0.2-0.566,0.267-1.1,0.2h-0.1
				c-1.034,0.1-1.983-0.1-2.85-0.6l-0.2,0.1c-0.933,2.433-1.467,4.483-1.6,6.15c-0.066,1.067-0.1,2.2-0.1,3.4v1.45L20.5-1.7
				l0.2-0.25c0.567-0.566,1.284-0.933,2.15-1.1c0.9-0.4,1.75-0.466,2.55-0.2c0.6,0.033,1.183,0.217,1.75,0.55H27.2z"/>
			
				<radialGradient id="SVGID_9_" cx="-78.9492" cy="-16232.1797" r="3.6627" gradientTransform="matrix(0.009 -1 -0.8839 -0.0079 -14323.8203 -208.5957)" gradientUnits="userSpaceOnUse">
				<stop  offset="0" style="stop-color:#9FAB41"/>
				<stop  offset="1" style="stop-color:#796D12"/>
			</radialGradient>
			<path style="fill-rule:evenodd;clip-rule:evenodd;fill:url(#SVGID_9_);" d="M25-3.85c-0.5,0.033-1.133-0.033-1.9-0.2
				c-0.534-0.1-1.217,0-2.05,0.3c-0.167,0.066-0.417,0.5-0.75,1.3l-0.45,1.2l1,0.85c0.9,0.5,1.917,0.55,3.05,0.15
				c1.133-0.367,2.017-0.883,2.65-1.55c0.333-0.333,0.55-0.633,0.65-0.9c-0.033-0.233-0.15-0.45-0.35-0.65
				C26.45-3.783,25.833-3.95,25-3.85z"/>
			<path style="fill-rule:evenodd;clip-rule:evenodd;fill:#4E4906;" d="M23.15-2.3c-0.333-0.4-0.567-0.767-0.7-1.1
				c-0.466-0.633-0.7-1.233-0.7-1.8c0-0.433,0.033-1.083,0.1-1.95c0-0.833-0.034-1.483-0.1-1.95c-0.067,0.467-0.117,0.8-0.15,1
				L21.15-5c-0.033,0.333-0.05,0.583-0.05,0.75c-0.034,0.267,0,0.483,0.1,0.65l0.25,0.35L23-2.3H23.15z"/>
			<path style="fill-rule:evenodd;clip-rule:evenodd;fill:#4E4906;" d="M24-3.85c-0.133-0.067-0.233-0.217-0.3-0.45
				c-0.066-0.133-0.133-0.316-0.2-0.55L23.05-6C22.883-5.833,22.867-5.317,23-4.45c0,0.4,0.1,0.7,0.3,0.9L24-3.85z"/>
			<path style="fill-rule:evenodd;clip-rule:evenodd;fill:#5C5708;" d="M25.2-3.85L27-3.1l-0.45-2.25L26.2-6.1
				c-0.233-0.6-0.383-1.233-0.45-1.9c-0.1-0.767-0.15-1.517-0.15-2.25c0-0.167,0.017-0.483,0.05-0.95c0-0.4-0.033-0.7-0.1-0.9
				c-0.066,0-0.383,0.1-0.95,0.3c-0.434-0.033-0.7-0.017-0.8,0.05c-0.167,0.066-0.25,0.3-0.25,0.7c0.033,0.434,0.05,0.717,0.05,0.85
				c-0.034,0.567-0.067,1.017-0.1,1.35c-0.033,0.633,0.017,1.083,0.15,1.35c0.067-0.3,0.117-0.717,0.15-1.25
				c0.067-0.5,0.167-0.917,0.3-1.25v3.175c0.019-1.061,0.168-1.918,0.45-2.575c0.1,0.333,0.133,0.833,0.1,1.5
				c-0.033,0.667-0.017,1.167,0.05,1.5C24.833-5.233,25-4.383,25.2-3.85z"/>
		</g>
	</g>
</symbol>
<symbol  id="_x32_" viewBox="4.768 -44.517 47.964 44.534">
	<g id="Layer_1_3_">
		
			<use xlink:href="#_x31_"  width="47.964" height="44.534" x="0.018" y="-44.517" transform="matrix(1 0 0 1 4.75 0)" style="overflow:visible;"/>
		<g>
			<g>
				
					<radialGradient id="SVGID_10_" cx="16297.5781" cy="-39.9712" r="6.4625" gradientTransform="matrix(7.736944e-005 1 1 7.736944e-005 72.311 -16329.625)" gradientUnits="userSpaceOnUse">
					<stop  offset="0" style="stop-color:#785120"/>
					<stop  offset="1" style="stop-color:#2A1804"/>
				</radialGradient>
				<path style="fill-rule:evenodd;clip-rule:evenodd;fill:url(#SVGID_10_);" d="M29.15-29.05h-0.5
					c-1.434,0.067-2.283,0.434-2.55,1.1c-0.233,0.633-0.2,1.1,0.1,1.4c0.367,0.434,1.25,0.667,2.65,0.7h0.1
					c2.4-0.034,3.3-0.733,2.7-2.1C31.417-28.617,30.584-28.983,29.15-29.05z"/>
				
					<radialGradient id="SVGID_11_" cx="16282.332" cy="-47.0684" r="17.5" gradientTransform="matrix(2.857143e-005 1 1 2.857143e-005 86.9033 -16329.2305)" gradientUnits="userSpaceOnUse">
					<stop  offset="0" style="stop-color:#785120"/>
					<stop  offset="1" style="stop-color:#2A1804"/>
				</radialGradient>
				<path style="fill-rule:evenodd;clip-rule:evenodd;fill:url(#SVGID_11_);" d="M28.05-29.7l0.7-0.05l0.75,0.05l-0.05-1.65
					c0-1.133,0.083-1.8,0.25-2c0.434-0.5,1-0.733,1.7-0.7c0.633,0.034,1.184,0.25,1.65,0.65c0.333,0.3,0.567,0.7,0.7,1.2l0.05,0.65
					l1.15,0.2H36l-0.05-1.15c-0.066-0.867-0.233-1.534-0.5-2c-0.167-0.367-0.517-0.733-1.05-1.1c-0.066-0.733-0.184-1.3-0.35-1.7
					c-0.167-0.367-0.4-0.683-0.7-0.95c-0.267-0.267-0.45-0.367-0.55-0.3c-0.233,0.733-0.5,1.467-0.8,2.2
					c-0.2-0.034-0.534-0.05-1-0.05c-1.1,0.034-1.85,0.35-2.25,0.95c-0.4-0.6-1.15-0.917-2.25-0.95l-1.15,0.05
					C25.184-36.717,25-37.2,24.8-37.8c-0.133-0.466-0.233-0.716-0.3-0.75c-0.1-0.066-0.284,0.034-0.55,0.3
					c-0.3,0.267-0.533,0.583-0.7,0.95c-0.167,0.434-0.284,1.067-0.35,1.9c-0.4,0.267-0.667,0.567-0.8,0.9
					c-0.267,0.466-0.434,1.133-0.5,2l-0.05,1.15h1c0.367,0,0.767-0.067,1.2-0.2l0.1-0.65c0.1-0.5,0.316-0.9,0.65-1.2
					c0.466-0.4,1-0.616,1.6-0.65c0.7-0.033,1.283,0.2,1.75,0.7C28.084-33.05,28.15-31.833,28.05-29.7z"/>
				
					<radialGradient id="SVGID_12_" cx="16292.627" cy="-24.1245" r="7.0625" gradientTransform="matrix(7.079646e-005 1 1 7.079646e-005 40.6714 -16329.5742)" gradientUnits="userSpaceOnUse">
					<stop  offset="0" style="stop-color:#785120"/>
					<stop  offset="1" style="stop-color:#2A1804"/>
				</radialGradient>
				<path style="fill-rule:evenodd;clip-rule:evenodd;fill:url(#SVGID_12_);" d="M8.75-30.35l1-0.35
					c0.333-0.167,1.35-0.483,3.05-0.95c1.667-0.466,2.567-0.7,2.7-0.7l0.1-0.25l0.05-1.15c-0.133,0.1-0.783,0.233-1.95,0.4
					c-1,0.167-2,0.4-3,0.7c-1.2,0.3-1.816,0.534-1.85,0.7L8.75-30.35z"/>
				
					<radialGradient id="SVGID_13_" cx="16291.998" cy="-24.2036" r="4.8" gradientTransform="matrix(1.041667e-004 1 1 1.041667e-004 40.5571 -16329.8457)" gradientUnits="userSpaceOnUse">
					<stop  offset="0" style="stop-color:#785120"/>
					<stop  offset="1" style="stop-color:#2A1804"/>
				</radialGradient>
				<path style="fill-rule:evenodd;clip-rule:evenodd;fill:url(#SVGID_13_);" d="M15.5-34.65c-0.067-0.066,0.033-0.3,0.3-0.7
					c0.133-0.2,0.267-0.4,0.4-0.6c-1.566-0.1-2.816-0.133-3.75-0.1l-2.25,0.3l-0.3,1.6l2.2-0.35
					C13.601-34.733,14.734-34.784,15.5-34.65z"/>
				
					<radialGradient id="SVGID_14_" cx="16289.6006" cy="-29.9497" r="20.2625" gradientTransform="matrix(2.467613e-005 1 1 2.467613e-005 52.6982 -16329.1992)" gradientUnits="userSpaceOnUse">
					<stop  offset="0" style="stop-color:#785120"/>
					<stop  offset="1" style="stop-color:#2A1804"/>
				</radialGradient>
				<path style="fill-rule:evenodd;clip-rule:evenodd;fill:url(#SVGID_14_);" d="M14.95-24.6c0.034,0.733-0.3,1.35-1,1.85
					c-0.7,0.5-1.4,0.616-2.1,0.35c-0.6-0.233-1.117-1.167-1.55-2.8c-0.2-0.8-0.35-1.583-0.45-2.35c-1.067,0.1-1.733,0.35-2,0.75
					c-0.267,0.434-0.2,1.767,0.2,4c0.167,1.034,0.767,2,1.8,2.9c0.966,0.867,1.917,1.333,2.85,1.4c1.7,0.167,3.05-0.067,4.05-0.7
					c0.633-0.4,1.216-1.066,1.75-2c0.533-1,0.9-3.6,1.1-7.8c-0.6-0.333-1.384-0.45-2.35-0.35c-0.633,0.066-1.267,0.216-1.9,0.45
					l-0.75,0.3L14.95-24.6z"/>
				<g>
					
						<linearGradient id="SVGID_15_" gradientUnits="userSpaceOnUse" x1="2904.2852" y1="-18417.6934" x2="2912.1912" y2="-18417.6934" gradientTransform="matrix(-0.3067 -0.9518 0.9518 -0.3067 18438.4727 -2905.7109)">
						<stop  offset="0" style="stop-color:#866327"/>
						<stop  offset="1" style="stop-color:#DEC162"/>
					</linearGradient>
					<path style="fill-rule:evenodd;clip-rule:evenodd;fill:url(#SVGID_15_);" d="M16.2-24.85c-0.133-1.1-0.2-1.917-0.2-2.45
						l1.2-0.25c0.934-0.133,1.7-0.1,2.3,0.1l0.1-1.55c-0.6-0.333-1.384-0.45-2.35-0.35c-0.633,0.066-1.267,0.216-1.9,0.45l-0.75,0.3
						l0.35,4c0.034,0.633-0.216,1.183-0.75,1.65c-0.431,0.402-0.915,0.619-1.45,0.65c1.058-0.005,1.741-0.038,2.05-0.1
						C15.9-22.667,16.367-23.483,16.2-24.85z"/>
					
						<linearGradient id="SVGID_16_" gradientUnits="userSpaceOnUse" x1="2904.3218" y1="-18423.6426" x2="2912.2278" y2="-18423.6426" gradientTransform="matrix(-0.3067 -0.9518 0.9518 -0.3067 18438.4727 -2905.7109)">
						<stop  offset="0" style="stop-color:#866327"/>
						<stop  offset="1" style="stop-color:#DEC162"/>
					</linearGradient>
					<path style="fill-rule:evenodd;clip-rule:evenodd;fill:url(#SVGID_16_);" d="M12.7-18.5c0.8,0.066,1.583,0.05,2.35-0.05
						c-1.733-0.267-2.933-0.867-3.6-1.8c-0.533-0.733-1-1.567-1.4-2.5c-0.333-0.767-0.517-1.317-0.55-1.65l-0.2-1.35l0.75-0.35
						l-0.2-1.35c-1.067,0.1-1.733,0.35-2,0.75c-0.267,0.434-0.2,1.767,0.2,4c0.167,1.034,0.767,2,1.8,2.9
						C10.817-19.034,11.767-18.567,12.7-18.5z"/>
				</g>
				<linearGradient id="SVGID_17_" gradientUnits="userSpaceOnUse" x1="8.7505" y1="-32.0498" x2="15.6504" y2="-32.0498">
					<stop  offset="0" style="stop-color:#866327"/>
					<stop  offset="1" style="stop-color:#DEC162"/>
				</linearGradient>
				<path style="fill-rule:evenodd;clip-rule:evenodd;fill:url(#SVGID_17_);" d="M9.9-31.8c1.2-0.433,3.1-0.8,5.7-1.1l0.05-0.85
					c-0.133,0.1-0.783,0.233-1.95,0.4c-1,0.167-2,0.4-3,0.7c-1.2,0.3-1.816,0.534-1.85,0.7l-0.1,1.6l0.8-0.25
					C9.617-31.1,9.734-31.5,9.9-31.8z"/>
				<linearGradient id="SVGID_18_" gradientUnits="userSpaceOnUse" x1="9.9131" y1="-35.1064" x2="16.1881" y2="-35.1064">
					<stop  offset="0" style="stop-color:#866327"/>
					<stop  offset="1" style="stop-color:#DEC162"/>
				</linearGradient>
				<path style="fill-rule:evenodd;clip-rule:evenodd;fill:url(#SVGID_18_);" d="M11.55-35.35l4.25-0.1l0.4-0.5
					c-1.566-0.1-2.816-0.133-3.75-0.1l-2.25,0.3l-0.3,1.6l1-0.2c0.1-0.2,0.2-0.434,0.3-0.7C11.3-35.25,11.417-35.35,11.55-35.35z"/>
				<linearGradient id="SVGID_19_" gradientUnits="userSpaceOnUse" x1="25.9502" y1="-27.8252" x2="31.8502" y2="-27.8252">
					<stop  offset="0" style="stop-color:#866327"/>
					<stop  offset="1" style="stop-color:#DEC162"/>
				</linearGradient>
				<path style="fill-rule:evenodd;clip-rule:evenodd;fill:url(#SVGID_19_);" d="M29.15-29.05h-0.5
					c-1.434,0.067-2.283,0.434-2.55,1.1c-0.233,0.6-0.217,1.05,0.05,1.35c0.133-0.733,0.667-1.167,1.6-1.3
					c0.833-0.066,1.5-0.017,2,0.15c0.8,0.1,1.417,0.483,1.85,1.15c0.267-0.267,0.283-0.717,0.05-1.35
					C31.417-28.617,30.584-28.983,29.15-29.05z"/>
				<linearGradient id="SVGID_20_" gradientUnits="userSpaceOnUse" x1="21.5127" y1="-34.96" x2="24.8877" y2="-34.96">
					<stop  offset="0" style="stop-color:#866327"/>
					<stop  offset="1" style="stop-color:#DEC162"/>
				</linearGradient>
				<path style="fill-rule:evenodd;clip-rule:evenodd;fill:url(#SVGID_20_);" d="M24.101-34.8c-0.367-0.267-0.5-0.65-0.4-1.15
					c0.034-0.7,0.434-1.2,1.2-1.5c-0.167-0.633-0.3-1-0.4-1.1c-0.1-0.066-0.284,0.034-0.55,0.3c-0.3,0.267-0.533,0.583-0.7,0.95
					c-0.167,0.434-0.284,1.067-0.35,1.9c-0.4,0.267-0.667,0.567-0.8,0.9c-0.267,0.466-0.434,1.133-0.5,2l-0.05,1.15h1.25l-0.05-0.1
					c-0.1-0.967,0.05-1.75,0.45-2.35C23.367-34.1,23.667-34.434,24.101-34.8z"/>
				<linearGradient id="SVGID_21_" gradientUnits="userSpaceOnUse" x1="25.1631" y1="-35.6963" x2="31.8381" y2="-35.6963">
					<stop  offset="0" style="stop-color:#866327"/>
					<stop  offset="1" style="stop-color:#DEC162"/>
				</linearGradient>
				<path style="fill-rule:evenodd;clip-rule:evenodd;fill:url(#SVGID_21_);" d="M26.5-36.4l-1.15,0.05l-0.2-0.45
					c0,0.3,0.083,0.583,0.25,0.85l0.4,0.55c0.167-0.033,0.383-0.017,0.65,0.05c0.367,0,0.634,0.017,0.8,0.05
					c0.8,0.233,1.233,0.467,1.3,0.7c0.067,0.033,0.233-0.034,0.5-0.2l0.65-0.35c0.3-0.167,0.733-0.283,1.3-0.35
					c0.533-0.167,0.816-0.417,0.85-0.75v-0.1c-0.2-0.034-0.483-0.05-0.85-0.05c-1.1,0.034-1.85,0.35-2.25,0.95
					C28.351-36.05,27.601-36.367,26.5-36.4z"/>
				<linearGradient id="SVGID_22_" gradientUnits="userSpaceOnUse" x1="32.3877" y1="-34.96" x2="36.0127" y2="-34.96">
					<stop  offset="0" style="stop-color:#866327"/>
					<stop  offset="1" style="stop-color:#DEC162"/>
				</linearGradient>
				<path style="fill-rule:evenodd;clip-rule:evenodd;fill:url(#SVGID_22_);" d="M36-31.35l-0.05-1.15
					c-0.066-0.867-0.233-1.534-0.5-2c-0.167-0.367-0.517-0.733-1.05-1.1c-0.066-0.733-0.184-1.3-0.35-1.7
					c-0.167-0.367-0.4-0.683-0.7-0.95c-0.267-0.267-0.45-0.367-0.55-0.3c-0.066,0.067-0.216,0.467-0.45,1.2
					c0.2,0.1,0.316,0.267,0.35,0.5c0.067,0.167,0.1,0.433,0.1,0.8c0.034,0.4,0.083,0.684,0.15,0.85
					c0.034,0.133,0.217,0.267,0.55,0.4c0.167,0.034,0.367,0.167,0.6,0.4c0.5,0.4,0.8,0.884,0.9,1.45c0.066,0.267,0.1,0.684,0.1,1.25
					v0.35H36z"/>
				<radialGradient id="SVGID_23_" cx="40.5503" cy="-36.9502" r="7.0625" gradientUnits="userSpaceOnUse">
					<stop  offset="0" style="stop-color:#785120"/>
					<stop  offset="1" style="stop-color:#2A1804"/>
				</radialGradient>
				<path style="fill-rule:evenodd;clip-rule:evenodd;fill:url(#SVGID_23_);" d="M49.5-30.35l-0.15-1.6
					c-0.034-0.167-0.634-0.4-1.8-0.7c-1.033-0.3-2.05-0.533-3.05-0.7l-1.9-0.4l0.05,1.15l0.05,0.25c0.167,0,1.083,0.233,2.75,0.7
					c1.667,0.467,2.667,0.784,3,0.95L49.5-30.35z"/>
				<radialGradient id="SVGID_24_" cx="40.1504" cy="-37.8501" r="4.8" gradientUnits="userSpaceOnUse">
					<stop  offset="0" style="stop-color:#785120"/>
					<stop  offset="1" style="stop-color:#2A1804"/>
				</radialGradient>
				<path style="fill-rule:evenodd;clip-rule:evenodd;fill:url(#SVGID_24_);" d="M42.7-34.65l0.9-0.05c0.767,0,1.6,0.066,2.5,0.2
					l2.2,0.35l-0.25-1.6c-0.6-0.134-1.367-0.233-2.3-0.3l-3.7,0.1C42.65-35.184,42.867-34.75,42.7-34.65z"/>
				<radialGradient id="SVGID_25_" cx="35.1006" cy="-39.6001" r="20.2625" gradientUnits="userSpaceOnUse">
					<stop  offset="0" style="stop-color:#785120"/>
					<stop  offset="1" style="stop-color:#2A1804"/>
				</radialGradient>
				<path style="fill-rule:evenodd;clip-rule:evenodd;fill:url(#SVGID_25_);" d="M47.95-25.2c-0.433,1.633-0.95,2.566-1.55,2.8
					c-0.733,0.267-1.45,0.15-2.15-0.35c-0.667-0.5-0.983-1.117-0.95-1.85c0.034-1.067,0.133-2.4,0.3-4
					c-0.767-0.4-1.634-0.65-2.6-0.75c-0.633-0.067-1.217-0.034-1.75,0.1L38.65-29c0.167,4.2,0.517,6.8,1.05,7.8
					c0.534,0.934,1.117,1.6,1.75,2c1,0.633,2.367,0.867,4.1,0.7c0.934-0.067,1.883-0.534,2.85-1.4c1-0.9,1.6-1.866,1.8-2.9
					c0.4-2.233,0.45-3.566,0.15-4c-0.233-0.4-0.884-0.65-1.95-0.75C48.3-26.784,48.15-26,47.95-25.2z"/>
				<g>
					<linearGradient id="SVGID_26_" gradientUnits="userSpaceOnUse" x1="41.041" y1="-28.4424" x2="43.466" y2="-20.9174">
						<stop  offset="0" style="stop-color:#866327"/>
						<stop  offset="1" style="stop-color:#DEC162"/>
					</linearGradient>
					<path style="fill-rule:evenodd;clip-rule:evenodd;fill:url(#SVGID_26_);" d="M45.5-22.3c-0.536-0.031-1.019-0.248-1.45-0.65
						c-0.533-0.467-0.783-1.017-0.75-1.65c0.034-1.067,0.133-2.4,0.3-4c-0.767-0.4-1.634-0.65-2.6-0.75
						c-0.633-0.067-1.217-0.034-1.75,0.1L38.65-29l0.1,1.55c0.966-0.333,2.133-0.283,3.5,0.15c0,0.534-0.067,1.35-0.2,2.45
						c-0.2,1.367,0.25,2.183,1.35,2.45C43.74-22.338,44.44-22.305,45.5-22.3z"/>
					<linearGradient id="SVGID_27_" gradientUnits="userSpaceOnUse" x1="45.5991" y1="-26.3726" x2="48.0241" y2="-18.8476">
						<stop  offset="0" style="stop-color:#866327"/>
						<stop  offset="1" style="stop-color:#DEC162"/>
					</linearGradient>
					<path style="fill-rule:evenodd;clip-rule:evenodd;fill:url(#SVGID_27_);" d="M45.55-18.5c0.934-0.067,1.883-0.534,2.85-1.4
						c1-0.9,1.6-1.866,1.8-2.9c0.4-2.233,0.45-3.566,0.15-4c-0.233-0.4-0.884-0.65-1.95-0.75l-0.25,1.35
						c0.367,0.1,0.633,0.217,0.8,0.35l-0.2,1.35c-0.067,0.4-0.25,0.95-0.55,1.65c-0.4,0.933-0.866,1.767-1.4,2.5
						c-0.667,0.933-1.867,1.533-3.6,1.8C43.967-18.45,44.75-18.434,45.55-18.5z"/>
				</g>
				<linearGradient id="SVGID_28_" gradientUnits="userSpaceOnUse" x1="49.5005" y1="-32.0498" x2="42.6006" y2="-32.0498">
					<stop  offset="0" style="stop-color:#866327"/>
					<stop  offset="1" style="stop-color:#DEC162"/>
				</linearGradient>
				<path style="fill-rule:evenodd;clip-rule:evenodd;fill:url(#SVGID_28_);" d="M49.5-30.35l-0.15-1.6
					c-0.034-0.167-0.634-0.4-1.8-0.7c-1.033-0.3-2.05-0.533-3.05-0.7l-1.9-0.4l0.05,0.85l2.7,0.4c1.233,0.2,2.216,0.433,2.95,0.7
					c0.2,0.3,0.333,0.7,0.4,1.2L49.5-30.35z"/>
				<linearGradient id="SVGID_29_" gradientUnits="userSpaceOnUse" x1="48.3379" y1="-35.1006" x2="42.0629" y2="-35.1006">
					<stop  offset="0" style="stop-color:#866327"/>
					<stop  offset="1" style="stop-color:#DEC162"/>
				</linearGradient>
				<path style="fill-rule:evenodd;clip-rule:evenodd;fill:url(#SVGID_29_);" d="M46.65-35.35c0.2,0,0.417,0.333,0.65,1l1,0.2
					l-0.25-1.6c-0.6-0.134-1.367-0.233-2.3-0.3l-3.7,0.1l0.35,0.5L46.65-35.35z"/>
			</g>
			<g>
				<path style="fill-rule:evenodd;clip-rule:evenodd;fill:#AD7C19;" d="M22.9-11.3c0.3-0.367,0.333-0.683,0.1-0.95
					c-0.1-0.134-0.583-0.267-1.45-0.4c-1.566-0.2-2.833-0.383-3.8-0.55c-1.434-0.267-3.1-0.917-5-1.95
					c-0.934-0.5-1.733-0.983-2.4-1.45l1.25,4.55l4.1,0.75c2.867,0.5,4.684,0.733,5.45,0.7C21.984-10.634,22.567-10.867,22.9-11.3z"
					/>
				
					<linearGradient id="SVGID_30_" gradientUnits="userSpaceOnUse" x1="19614.5293" y1="-9392.4619" x2="19623.5957" y2="-9392.4619" gradientTransform="matrix(-0.7776 0.6287 -0.6287 -0.7776 9371.8359 -19650.6836)">
					<stop  offset="0" style="stop-color:#866327"/>
					<stop  offset="1" style="stop-color:#DEC162"/>
				</linearGradient>
				<path style="fill-rule:evenodd;clip-rule:evenodd;fill:url(#SVGID_30_);" d="M21.55-11l-0.8-1.25c-1.267,0.267-2,0.4-2.2,0.4
					c-0.2,0-1.933,1.316-5.2,3.95L11-5.6c0.267,0.167,0.55,0.316,0.85,0.45c0.6,0.333,0.966,0.5,1.1,0.5c0.233,0,0.6-0.1,1.1-0.3
					c0.633-0.233,1.2-0.55,1.7-0.95c0.767-0.633,1.983-1.716,3.65-3.25C20-9.617,20.717-10.233,21.55-11z"/>
				
					<radialGradient id="SVGID_31_" cx="-64.2285" cy="-16250.502" r="7.4128" gradientTransform="matrix(0.008 -1 -0.8853 -0.0071 -14373.2109 -187.584)" gradientUnits="userSpaceOnUse">
					<stop  offset="0" style="stop-color:#F5DC93"/>
					<stop  offset="0.2039" style="stop-color:#F4C125"/>
					<stop  offset="1" style="stop-color:#B47527"/>
				</radialGradient>
				<path style="fill-rule:evenodd;clip-rule:evenodd;fill:url(#SVGID_31_);" d="M20.3-11.3l0.45-0.95
					c-0.567-0.134-1.267-0.317-2.1-0.55c-1.633-0.5-3.05-1.033-4.25-1.6c-1.1-0.533-2.1-1.066-3-1.6c-0.633-0.4-0.983-0.6-1.05-0.6
					c-0.167,0-0.25,0.6-0.25,1.8c-0.034,1.233,0.017,2.267,0.15,3.1c0.066,0.333,0.167,1.483,0.3,3.45
					C10.65-6.717,10.8-5.833,11-5.6c0.233,0.3,0.783,0.267,1.65-0.1c0.833-0.333,1.633-0.816,2.4-1.45
					C18.017-9.717,19.767-11.1,20.3-11.3z"/>
				<path style="fill-rule:evenodd;clip-rule:evenodd;fill:#AD7C19;" d="M37.15-10.6c1.233,0.066,4.417-0.417,9.55-1.45l1.25-4.55
					c-2.633,1.867-5.083,3-7.35,3.4c-3.333,0.367-5.1,0.684-5.3,0.95c-0.233,0.267-0.2,0.583,0.1,0.95
					C35.734-10.867,36.317-10.634,37.15-10.6z"/>
				<linearGradient id="SVGID_32_" gradientUnits="userSpaceOnUse" x1="37.437" y1="-4.8921" x2="44.487" y2="-10.5921">
					<stop  offset="0" style="stop-color:#866327"/>
					<stop  offset="1" style="stop-color:#DEC162"/>
				</linearGradient>
				<path style="fill-rule:evenodd;clip-rule:evenodd;fill:url(#SVGID_32_);" d="M44.95-7.9c-3.267-2.633-5-3.95-5.2-3.95l-2.2-0.4
					L36.75-11c0.833,0.767,1.55,1.383,2.15,1.85c1.667,1.534,2.883,2.617,3.65,3.25c0.5,0.4,1.067,0.717,1.7,0.95
					c0.5,0.2,0.867,0.3,1.1,0.3c0.133,0,0.5-0.167,1.1-0.5c0.3-0.133,0.583-0.283,0.85-0.45L44.95-7.9z"/>
				
					<radialGradient id="SVGID_33_" cx="45.5503" cy="-7.9004" r="7.4128" gradientTransform="matrix(-0.008 -1 0.8853 -0.0071 52.9102 37.5928)" gradientUnits="userSpaceOnUse">
					<stop  offset="0" style="stop-color:#F5DC93"/>
					<stop  offset="0.2039" style="stop-color:#F4C125"/>
					<stop  offset="1" style="stop-color:#B47527"/>
				</radialGradient>
				<path style="fill-rule:evenodd;clip-rule:evenodd;fill:url(#SVGID_33_);" d="M47.3-5.6c0.2-0.233,0.35-1.117,0.45-2.65
					c0.133-1.967,0.233-3.117,0.3-3.45c0.133-0.833,0.2-1.867,0.2-3.1c-0.034-1.2-0.133-1.8-0.3-1.8c-0.066,0-0.417,0.2-1.05,0.6
					c-0.9,0.533-1.9,1.066-3,1.6c-1.2,0.567-2.617,1.1-4.25,1.6l-2.1,0.55L38-11.3c0.533,0.2,2.283,1.583,5.25,4.15
					c0.767,0.634,1.566,1.117,2.4,1.45C46.517-5.333,47.067-5.3,47.3-5.6z"/>
			</g>
		</g>
	</g>
</symbol>
<radialGradient id="SVGID_34_" cx="29.7002" cy="41.2998" r="23.4125" gradientTransform="matrix(0.8456 0 0 -0.1583 6.1 49.1048)" gradientUnits="userSpaceOnUse">
	<stop  offset="0.1647" style="stop-color:#000000;stop-opacity:0.8"/>
	<stop  offset="0.6353" style="stop-color:#000000;stop-opacity:0.1882"/>
	<stop  offset="1" style="stop-color:#000000;stop-opacity:0"/>
</radialGradient>
<path style="fill-rule:evenodd;clip-rule:evenodd;fill:url(#SVGID_34_);" d="M46.225,45.381c-4.144,0.773-9.146,1.16-15.01,1.16
	c-5.891,0-10.894-0.387-15.01-1.16c-4.144-0.774-6.215-1.712-6.215-2.814s2.071-2.041,6.215-2.814
	c4.116-0.774,9.119-1.161,15.01-1.161c5.863,0,10.866,0.387,15.01,1.161c4.143,0.773,6.215,1.712,6.215,2.814
	S50.367,44.606,46.225,45.381z"/>
<use xlink:href="#_x32_"  width="47.964" height="44.534" x="4.768" y="-44.517" transform="matrix(1 0 0 -1 2.0498 0)" style="overflow:visible;"/>
</svg>
