<?xml version="1.0" encoding="iso-8859-1"?>
<!-- Generator: Adobe Illustrator 15.1.0, SVG Export Plug-In . SVG Version: 6.00 Build 0)  -->
<!DOCTYPE svg PUBLIC "-//W3C//DTD SVG 1.1//EN" "http://www.w3.org/Graphics/SVG/1.1/DTD/svg11.dtd">
<svg version="1.1" id="pumpkin" xmlns="http://www.w3.org/2000/svg" xmlns:xlink="http://www.w3.org/1999/xlink" x="0px" y="0px"
	 width="59.6px" height="46.55px" viewBox="0 0 59.6 46.55" style="enable-background:new 0 0 59.6 46.55;" xml:space="preserve">
<symbol  id="pumpkin_2_" viewBox="4.707 -46.541 48.25 46.558">
	<g id="Layer_3_1_">
	</g>
	<g id="mouth_1_">
	</g>
	<g id="Layer_4_1_">
	</g>
	<g id="Layer_6_1_">
		<g>
			
				<radialGradient id="SVGID_1_" cx="29.7002" cy="-41.2998" r="23.4126" gradientTransform="matrix(0.8456 0 0 -0.1583 4.6001 -49.104)" gradientUnits="userSpaceOnUse">
				<stop  offset="0.1647" style="stop-color:#000000;stop-opacity:0.8"/>
				<stop  offset="0.6353" style="stop-color:#000000;stop-opacity:0.1882"/>
				<stop  offset="1" style="stop-color:#000000;stop-opacity:0"/>
			</radialGradient>
			<path style="fill-rule:evenodd;clip-rule:evenodd;fill:url(#SVGID_1_);" d="M44.724-45.38c-4.144-0.774-9.146-1.161-15.009-1.161
				c-5.891,0-10.895,0.387-15.01,1.161c-4.144,0.773-6.215,1.712-6.215,2.814s2.072,2.041,6.215,2.814
				c4.115,0.773,9.119,1.161,15.01,1.161c5.863,0,10.866-0.387,15.009-1.161s6.215-1.712,6.215-2.814S48.868-44.607,44.724-45.38z"
				/>
			<g>
				
					<radialGradient id="SVGID_2_" cx="99.9438" cy="-16397.9609" r="4.0628" gradientTransform="matrix(-0.0118 -0.9999 -2.4336 0.0288 -39876.5898 564.4951)" gradientUnits="userSpaceOnUse">
					<stop  offset="0" style="stop-color:#F5DC93"/>
					<stop  offset="0.2039" style="stop-color:#F4C125"/>
					<stop  offset="1" style="stop-color:#B47527"/>
				</radialGradient>
				<path style="fill-rule:evenodd;clip-rule:evenodd;fill:url(#SVGID_2_);" d="M34.7-12.15l-8-0.5l-3.2,0.9l-0.3,1.45
					c1.534,0.967,3.5,1.45,5.9,1.45c1.4,0,2.683-0.233,3.85-0.7c1.067-0.433,1.684-0.867,1.85-1.3
					C34.967-11.417,34.933-11.85,34.7-12.15z"/>
				
					<radialGradient id="SVGID_3_" cx="390.0605" cy="-16737.5898" r="14.8224" gradientTransform="matrix(-0.0565 -0.9984 1.1055 -0.0514 18566.7539 -480.6597)" gradientUnits="userSpaceOnUse">
					<stop  offset="0" style="stop-color:#F5DC93"/>
					<stop  offset="0.2039" style="stop-color:#F4C125"/>
					<stop  offset="1" style="stop-color:#B47527"/>
				</radialGradient>
				<path style="fill-rule:evenodd;clip-rule:evenodd;fill:url(#SVGID_3_);" d="M52.45-26.85c-0.2-0.867-1.05-2.983-2.55-6.35
					c-0.733-1.667-2.017-3.283-3.85-4.85c-1.667-1.4-2.95-2.133-3.85-2.2c-1.066-0.1-4.183,0.967-9.35,3.2l-3.8,25.55
					c0.833,1,3.467,1.7,7.9,2.1c1.934,0.133,4.083-0.317,6.45-1.35c3.467-1.5,6.05-3.917,7.75-7.25
					C52.65-20.967,53.083-23.917,52.45-26.85z"/>
				
					<radialGradient id="SVGID_4_" cx="39.9497" cy="-12.6499" r="20.5518" gradientTransform="matrix(-0.0122 -0.9999 1.1069 -0.0135 54.4385 27.126)" gradientUnits="userSpaceOnUse">
					<stop  offset="0" style="stop-color:#F5DC93"/>
					<stop  offset="0.2039" style="stop-color:#F4C125"/>
					<stop  offset="1" style="stop-color:#B47527"/>
				</radialGradient>
				<path style="fill-rule:evenodd;clip-rule:evenodd;fill:url(#SVGID_4_);" d="M50-28.4c-0.5-2.733-1.4-5.034-2.7-6.9
					c-1.133-1.667-2.533-3.15-4.2-4.45c-1.667-1.333-3.367-2.283-5.1-2.85c-1.467-0.467-3-0.767-4.6-0.9h-2L29.65-12l2.55,0.4
					c2,0.233,3.833,0.283,5.5,0.15c2.367-0.167,4.6-0.9,6.7-2.2c2.533-1.534,4.25-3.583,5.15-6.15C50.45-22.367,50.6-25.233,50-28.4
					z"/>
				
					<radialGradient id="SVGID_5_" cx="-365.3643" cy="-15834.2676" r="14.8493" gradientTransform="matrix(0.0572 -0.9984 -1.1061 -0.0513 -17477.1641 -1186.9897)" gradientUnits="userSpaceOnUse">
					<stop  offset="0" style="stop-color:#F5DC93"/>
					<stop  offset="0.2039" style="stop-color:#F4C125"/>
					<stop  offset="1" style="stop-color:#B47527"/>
				</radialGradient>
				<path style="fill-rule:evenodd;clip-rule:evenodd;fill:url(#SVGID_5_);" d="M5.05-26.85c-0.633,2.933-0.2,5.883,1.3,8.85
					c1.7,3.333,4.283,5.75,7.75,7.25c2.367,1.033,4.517,1.483,6.45,1.35c1.533-0.133,3.133-0.417,4.8-0.85
					c2.066-0.533,3.25-1.117,3.55-1.75l-4.3-25.05c-5.133-2.233-8.233-3.3-9.3-3.2c-0.9,0.066-2.183,0.8-3.85,2.2
					c-1.833,1.567-3.117,3.184-3.85,4.85C6.1-29.833,5.25-27.717,5.05-26.85z"/>
				<path style="fill-rule:evenodd;clip-rule:evenodd;fill:#A96F24;" d="M6.2-24.65c0.267,1.6,0.583,3.15,0.95,4.65
					c0.467,2,1.717,3.8,3.75,5.4c1.533,1.233,3.217,2.167,5.05,2.8c1.667,0.567,4.684,0.534,9.05-0.1l2.95-5.6L24.6-37.05l-3.15-1.3
					l-1.8,1.85v14.9l-11.7,1.8L7.5-21.05c-0.3-1-0.517-1.95-0.65-2.85c-0.1-1.034-0.083-2.3,0.05-3.8
					c0.133-1.333,0.317-2.383,0.55-3.15c0.3-0.933,0.25-1.5-0.15-1.7c-0.833,1.8-1.283,2.8-1.35,3C5.417-28.283,5.066-27.1,4.9-26
					h0.35C5.717-26,6.033-25.55,6.2-24.65z"/>
				<path style="fill-rule:evenodd;clip-rule:evenodd;fill:#A26921;" d="M6.9-27.7c-0.133,1.5-0.15,2.767-0.05,3.8
					C6.983-23,7.2-22.05,7.5-21.05l0.45,1.25l11.7-1.8v-14.9l-9.8,10l-2.5,0.75l0.2-2.35c0.2-1.8,0.533-3.233,1-4.3
					c0.733-1.767,1.25-3.1,1.55-4l-0.25-0.05C8.816-35.383,8.066-34.3,7.6-33.2l-0.3,0.65c0.4,0.2,0.45,0.767,0.15,1.7
					C7.217-30.083,7.033-29.033,6.9-27.7z"/>
				<path style="fill-rule:evenodd;clip-rule:evenodd;fill:#905D1C;" d="M7.55-28.1l-0.2,2.35l2.5-0.75l11.6-11.85
					c-3.267-1.367-5.316-2-6.15-1.9c-0.566,0.033-1.367,0.4-2.4,1.1c-1.1,0.767-2.117,1.667-3.05,2.7l0.25,0.05
					c-0.3,0.9-0.817,2.233-1.55,4C8.083-31.333,7.75-29.9,7.55-28.1z"/>
				
					<radialGradient id="SVGID_6_" cx="-90.9932" cy="-16213.4766" r="20.5518" gradientTransform="matrix(0.0122 -0.9999 -1.1069 -0.0135 -17928.7129 -322.3335)" gradientUnits="userSpaceOnUse">
					<stop  offset="0" style="stop-color:#F5DC93"/>
					<stop  offset="0.2039" style="stop-color:#F4C125"/>
					<stop  offset="1" style="stop-color:#B47527"/>
				</radialGradient>
				<path style="fill-rule:evenodd;clip-rule:evenodd;fill:url(#SVGID_6_);" d="M7.5-28.4c-0.6,3.167-0.45,6.033,0.45,8.6
					c0.9,2.567,2.617,4.617,5.15,6.15c2.1,1.3,4.333,2.033,6.7,2.2c2.667,0.2,5.35,0.017,8.05-0.55L26.1-43.5
					c-2.067-0.167-4.267,0.133-6.6,0.9c-1.733,0.567-3.434,1.517-5.1,2.85c-1.667,1.3-3.067,2.783-4.2,4.45
					C8.933-33.434,8.033-31.133,7.5-28.4z"/>
				<path style="fill-rule:evenodd;clip-rule:evenodd;fill:#A96F24;" d="M27.7-12h0.15l-1.1-20.1l-8.9,5.75
					c-0.133-2.633-0.15-4.45-0.05-5.45c0.067-0.8,0.283-2.05,0.65-3.75c0.367-1.6,0.55-2.566,0.55-2.9
					c0.033-0.633-0.317-1.15-1.05-1.55c-0.833-0.5-1.85-0.55-3.05-0.15c-1.6,1.233-2.85,2.433-3.75,3.6
					c1.333-0.5,2.45-0.583,3.35-0.25c0.833,0.3,1.367,0.917,1.6,1.85C16.033-34.184,16-33.3,16-32.3c-0.067,2,0.333,4.867,1.2,8.6
					c0.9,3.8,2.867,6.867,5.9,9.2C24.633-13.333,26.167-12.5,27.7-12z"/>
				<path style="fill-rule:evenodd;clip-rule:evenodd;fill:#A26921;" d="M26.75-32.1l-0.2-2.95l-7.4,4.6L18.6-31.4l0.25-2
					c0.233-1.534,0.566-2.75,1-3.65c0.966-1.966,1.45-3.316,1.45-4.05c0-0.333-0.233-0.633-0.7-0.9c-0.6-0.267-1.35-0.317-2.25-0.15
					c-1.167,0.5-2.317,1.167-3.45,2c1.2-0.4,2.217-0.35,3.05,0.15c0.733,0.4,1.083,0.917,1.05,1.55c0,0.333-0.184,1.3-0.55,2.9
					c-0.367,1.7-0.583,2.95-0.65,3.75c-0.1,1-0.083,2.817,0.05,5.45L26.75-32.1z"/>
				<path style="fill-rule:evenodd;clip-rule:evenodd;fill:#905D1C;" d="M18.85-33.4l-0.25,2l0.55,0.95l7.4-4.6l-0.3-6.1
					c-0.467,0.167-0.95,0.283-1.45,0.35l-0.6,0.05l0.35-0.4c0.1-0.367-0.133-0.8-0.7-1.3c-0.467-0.433-1.317-0.65-2.55-0.65
					l-2.95,0.95c0.9-0.167,1.65-0.117,2.25,0.15c0.466,0.267,0.7,0.566,0.7,0.9c0,0.733-0.483,2.083-1.45,4.05
					C19.417-36.15,19.083-34.934,18.85-33.4z"/>
				<path style="fill-rule:evenodd;clip-rule:evenodd;fill:#6E4613;" d="M23.85-42.45c0.566,0.5,0.8,0.934,0.7,1.3l-0.35,0.4
					l0.6-0.05c0.5-0.066,0.983-0.183,1.45-0.35L26.1-43.5c-1.4-0.1-3,0.033-4.8,0.4C22.533-43.1,23.383-42.883,23.85-42.45z"/>
				
					<radialGradient id="SVGID_7_" cx="-49.793" cy="-16240.5605" r="19.4632" gradientTransform="matrix(0.0078 -1 -0.9801 -0.0076 -15889.4004 -191.855)" gradientUnits="userSpaceOnUse">
					<stop  offset="0" style="stop-color:#F5DC93"/>
					<stop  offset="0.2039" style="stop-color:#F4C125"/>
					<stop  offset="1" style="stop-color:#B47527"/>
				</radialGradient>
				<path style="fill-rule:evenodd;clip-rule:evenodd;fill:url(#SVGID_7_);" d="M28.45-11.8c2.7-0.033,4.95-0.917,6.75-2.65
					c1.633-1.6,2.617-3.633,2.95-6.1c0.267-2.167-0.017-5.367-0.85-9.6c-0.767-3.934-1.566-6.7-2.4-8.3
					c-0.933-1.867-1.817-3.267-2.65-4.2c-1.2-1.333-2.467-1.95-3.8-1.85c-1.333,0.1-2.716,0.8-4.15,2.1
					c-1.233,1.1-2.367,2.5-3.4,4.2c-1.167,1.934-2.05,3.95-2.65,6.05c-0.567,2.033-0.817,3.95-0.75,5.75
					c0.133,2.5,0.783,4.883,1.95,7.15c0.867,1.733,1.85,3.117,2.95,4.15c0.8,0.767,1.85,1.5,3.15,2.2
					C26.883-12.167,27.85-11.8,28.45-11.8z"/>
				<path style="fill-rule:evenodd;clip-rule:evenodd;fill:#A96F24;" d="M20.9-38.2c-0.233,0.4-0.667,1.217-1.3,2.45
					c1.1-1.367,3.017-2.317,5.75-2.85c2.367-0.433,4.267-0.467,5.7-0.1c2.2,0.633,4.15,2.867,5.85,6.7l-0.75-3.05
					c-1.033-2.066-1.583-3.167-1.65-3.3c-0.967-1.667-1.883-2.717-2.75-3.15c-2.633-1.333-5.267-1.217-7.9,0.35L22.3-40.2L20.9-38.2
					z"/>
				<path style="fill-rule:evenodd;clip-rule:evenodd;fill:#A26921;" d="M27.1-43.35c-1.034,0.133-2.083,0.567-3.15,1.3
					c-0.5,0.467-1.05,1.083-1.65,1.85l1.55-0.95c2.633-1.567,5.267-1.684,7.9-0.35c0.867,0.433,1.783,1.483,2.75,3.15
					c0.066,0.133,0.617,1.233,1.65,3.3c-0.533-1.7-0.95-2.833-1.25-3.4l-0.95-1.8c-1.1-1.533-2.3-2.5-3.6-2.9
					C29.55-43.417,28.467-43.483,27.1-43.35z"/>
				<path style="fill-rule:evenodd;clip-rule:evenodd;fill:#6E4613;" d="M23.95-42.05c1.067-0.733,2.117-1.167,3.15-1.3
					c1.367-0.133,2.45-0.067,3.25,0.2c1.3,0.4,2.5,1.367,3.6,2.9c-1.767-3-3.6-4.417-5.5-4.25
					C26.983-44.367,25.483-43.55,23.95-42.05z"/>
				
					<radialGradient id="SVGID_8_" cx="4.8389" cy="-16303.3838" r="35.075" gradientTransform="matrix(1.425517e-005 -1 -0.8357 1.425517e-005 -13597.3887 -4.6284)" gradientUnits="userSpaceOnUse">
					<stop  offset="0.4667" style="stop-color:#F4C125;stop-opacity:0"/>
					<stop  offset="1" style="stop-color:#603C10"/>
				</radialGradient>
				<path style="fill-rule:evenodd;clip-rule:evenodd;fill:url(#SVGID_8_);" d="M51.15-18c1.5-2.967,1.934-5.917,1.3-8.85
					c-0.2-0.867-1.05-2.983-2.55-6.35c-0.733-1.6-1.933-3.15-3.6-4.65c-1.533-1.333-2.8-2.117-3.8-2.35
					c-1.533-1.1-3.033-1.9-4.5-2.4c-1.467-0.467-3-0.767-4.6-0.9h-2c-0.933-0.767-1.917-1.1-2.95-1c-0.767,0.033-1.667,0.367-2.7,1
					c-2.067-0.1-4.15,0.2-6.25,0.9c-1.467,0.5-2.967,1.3-4.5,2.4c-1,0.233-2.267,1.017-3.8,2.35c-1.667,1.5-2.867,3.05-3.6,4.65
					c-1.5,3.367-2.35,5.483-2.55,6.35c-0.633,2.934-0.2,5.883,1.3,8.85c1.7,3.333,4.283,5.75,7.75,7.25
					c2.367,1.033,4.517,1.483,6.45,1.35c1.3-0.167,2.417-0.35,3.35-0.55c1.533,0.733,3.267,1.1,5.2,1.1c1.8,0,3.3-0.333,4.5-1
					l3.35,0.45c1.933,0.133,4.083-0.317,6.45-1.35C46.867-12.25,49.45-14.667,51.15-18z"/>
				
					<radialGradient id="SVGID_9_" cx="-71.6279" cy="-16232.1572" r="6.8753" gradientTransform="matrix(0.0087 -1 -0.8854 -0.0077 -14343.6699 -199.4263)" gradientUnits="userSpaceOnUse">
					<stop  offset="0" style="stop-color:#9FAB41"/>
					<stop  offset="1" style="stop-color:#796D12"/>
				</radialGradient>
				<path style="fill-rule:evenodd;clip-rule:evenodd;fill:url(#SVGID_9_);" d="M31.95-2.7c-0.267-0.9-0.5-1.517-0.7-1.85
					c-0.267-0.5-0.517-1.233-0.75-2.2S30.15-8.5,30.15-9.1c0-0.8,0.133-1.75,0.4-2.85c-0.2,0.2-0.566,0.267-1.1,0.2h-0.1
					c-1.034,0.1-1.983-0.1-2.85-0.6l-0.2,0.1c-0.933,2.433-1.467,4.483-1.6,6.15c-0.066,1.067-0.1,2.2-0.1,3.4v1.45l0.65-0.45
					l0.2-0.25c0.567-0.566,1.284-0.933,2.15-1.1c0.9-0.4,1.75-0.466,2.55-0.2c0.6,0.033,1.183,0.217,1.75,0.55H31.95z"/>
				
					<radialGradient id="SVGID_10_" cx="-76.9248" cy="-16229.4297" r="3.6627" gradientTransform="matrix(0.009 -1 -0.8839 -0.0079 -14316.6582 -206.5488)" gradientUnits="userSpaceOnUse">
					<stop  offset="0" style="stop-color:#9FAB41"/>
					<stop  offset="1" style="stop-color:#796D12"/>
				</radialGradient>
				<path style="fill-rule:evenodd;clip-rule:evenodd;fill:url(#SVGID_10_);" d="M29.75-3.85c-0.5,0.033-1.133-0.033-1.9-0.2
					c-0.534-0.1-1.217,0-2.05,0.3c-0.167,0.066-0.417,0.5-0.75,1.3l-0.45,1.2l1,0.85c0.9,0.5,1.917,0.55,3.05,0.15
					c1.133-0.367,2.017-0.883,2.65-1.55c0.333-0.333,0.55-0.633,0.65-0.9c-0.033-0.233-0.15-0.45-0.35-0.65
					C31.2-3.783,30.583-3.95,29.75-3.85z"/>
				<path style="fill-rule:evenodd;clip-rule:evenodd;fill:#4E4906;" d="M27.9-2.3c-0.333-0.4-0.567-0.767-0.7-1.1
					c-0.466-0.633-0.7-1.233-0.7-1.8c0-0.433,0.033-1.083,0.1-1.95c0-0.833-0.034-1.483-0.1-1.95c-0.067,0.467-0.117,0.8-0.15,1
					L25.9-5c-0.033,0.333-0.05,0.583-0.05,0.75c-0.034,0.267,0,0.483,0.1,0.65l0.25,0.35l1.55,0.95H27.9z"/>
				<path style="fill-rule:evenodd;clip-rule:evenodd;fill:#4E4906;" d="M28.75-3.85c-0.133-0.067-0.233-0.217-0.3-0.45
					c-0.066-0.133-0.133-0.316-0.2-0.55L27.8-6c-0.167,0.167-0.183,0.683-0.05,1.55c0,0.4,0.1,0.7,0.3,0.9L28.75-3.85z"/>
				<path style="fill-rule:evenodd;clip-rule:evenodd;fill:#5C5708;" d="M29.95-3.85l1.8,0.75L31.3-5.35L30.95-6.1
					C30.717-6.7,30.566-7.333,30.5-8c-0.1-0.767-0.15-1.517-0.15-2.25c0-0.167,0.017-0.483,0.05-0.95c0-0.4-0.033-0.7-0.1-0.9
					c-0.066,0-0.383,0.1-0.95,0.3c-0.434-0.033-0.7-0.017-0.8,0.05c-0.167,0.066-0.25,0.3-0.25,0.7
					c0.033,0.434,0.05,0.717,0.05,0.85c-0.034,0.567-0.067,1.017-0.1,1.35c-0.033,0.633,0.017,1.083,0.15,1.35
					c0.067-0.3,0.117-0.717,0.15-1.25c0.067-0.5,0.167-0.917,0.3-1.25v3.175c0.019-1.061,0.168-1.918,0.45-2.575
					c0.1,0.333,0.133,0.833,0.1,1.5c-0.033,0.667-0.017,1.167,0.05,1.5C29.583-5.233,29.75-4.383,29.95-3.85z"/>
			</g>
			<g>
				
					<radialGradient id="SVGID_11_" cx="17066.5156" cy="-25.2153" r="17.3" gradientTransform="matrix(2.890174e-005 1 1.0325 0.0975 45.9927 -17097.8047)" gradientUnits="userSpaceOnUse">
					<stop  offset="0" style="stop-color:#FFFEF5"/>
					<stop  offset="1" style="stop-color:#FEE607"/>
				</radialGradient>
				<path style="fill-rule:evenodd;clip-rule:evenodd;fill:url(#SVGID_11_);" d="M15.101-16.85c1.233-0.566,2-1.316,2.3-2.25
					c0.233-0.8,0.133-1.633-0.3-2.5c-1-2.066-2.2-3.367-3.6-3.9c-0.967-0.367-2.133-0.25-3.5,0.35c-1.434,0.633-2.2,1.483-2.3,2.55
					c-0.1,1.1,0.067,2.284,0.5,3.55c0.434,1.3,0.95,2.083,1.55,2.35c0.133,0.067,0.433,0.134,0.9,0.2c-0.7-0.767-1.033-1.6-1-2.5
					c0.033-0.467,0.2-0.85,0.5-1.15c0.3-0.367,0.684-0.534,1.15-0.5c1,0.066,1.767,0.517,2.3,1.35c0.333,0.633,0.583,1.533,0.75,2.7
					L15.101-16.85z"/>
				
					<radialGradient id="SVGID_12_" cx="1150.7002" cy="-1997.8501" r="13.1125" gradientTransform="matrix(0.8096 0 0 -0.7791 -920.25 -1577.0713)" gradientUnits="userSpaceOnUse">
					<stop  offset="0" style="stop-color:#FFF298;stop-opacity:0.8196"/>
					<stop  offset="1" style="stop-color:#FEE400;stop-opacity:0"/>
				</radialGradient>
				<path style="fill-rule:evenodd;clip-rule:evenodd;fill:url(#SVGID_12_);" d="M25.958-22.181c0-2.829-1.039-5.234-3.117-7.215
					c-2.051-2.006-4.547-3.009-7.488-3.009c-2.942,0-5.451,1.003-7.529,3.009c-2.078,1.981-3.117,4.386-3.117,7.215
					c0,2.804,1.039,5.209,3.117,7.216c2.078,2.006,4.587,3.009,7.529,3.009c2.941,0,5.437-1.003,7.488-3.009
					C24.919-16.946,25.958-19.352,25.958-22.181z"/>
				
					<linearGradient id="SVGID_13_" gradientUnits="userSpaceOnUse" x1="1483.8735" y1="-17563.2813" x2="1491.3784" y2="-17563.2813" gradientTransform="matrix(-0.1666 -0.986 0.986 -0.1666 17576.5293 -1479.4814)">
					<stop  offset="0" style="stop-color:#DBAC46"/>
					<stop  offset="1" style="stop-color:#F7E16C"/>
				</linearGradient>
				<path style="fill-rule:evenodd;clip-rule:evenodd;fill:url(#SVGID_13_);" d="M12.3-25.45l0.8-0.15c-1.034-0.2-2.15,0-3.35,0.6
					c-1.267,0.633-1.95,1.434-2.05,2.4c-0.1,1.1,0.067,2.284,0.5,3.55c0.434,1.3,0.95,2.083,1.55,2.35
					c0.133,0.067,0.433,0.134,0.9,0.2c-0.7-0.767-1.033-1.6-1-2.5l0.15-0.55C9.467-20.684,9.3-21.5,9.3-22
					c0.067-0.733,0.3-1.4,0.7-2C10.567-24.8,11.334-25.283,12.3-25.45z"/>
				
					<linearGradient id="SVGID_14_" gradientUnits="userSpaceOnUse" x1="4432.5566" y1="-19073.1367" x2="4436.9282" y2="-19073.1367" gradientTransform="matrix(-0.4403 -0.8978 0.8978 -0.4403 19090.9707 -4435.6777)">
					<stop  offset="0" style="stop-color:#DBAC46"/>
					<stop  offset="1" style="stop-color:#F7E16C"/>
				</linearGradient>
				<path style="fill-rule:evenodd;clip-rule:evenodd;fill:url(#SVGID_14_);" d="M15.15-18.8c-0.2-0.567-0.483-0.983-0.85-1.25
					c-0.566-0.4-0.9-0.634-1-0.7c-0.367-0.2-0.7-0.267-1-0.2l-1.05,0.3h0.05c1,0.066,1.767,0.517,2.3,1.35
					c0.333,0.633,0.583,1.533,0.75,2.7l0.9-0.3C15.45-17.533,15.417-18.167,15.15-18.8z"/>
				
					<radialGradient id="SVGID_15_" cx="15529.5527" cy="-41.7646" r="17.3" gradientTransform="matrix(2.890174e-005 1 -1.0325 0.0975 -6.5713 -15559.2285)" gradientUnits="userSpaceOnUse">
					<stop  offset="0" style="stop-color:#FFFEF5"/>
					<stop  offset="1" style="stop-color:#FEE607"/>
				</radialGradient>
				<path style="fill-rule:evenodd;clip-rule:evenodd;fill:url(#SVGID_15_);" d="M40.05-19.1c0.3,0.934,1.067,1.684,2.3,2.25
					c0.267,0.133,0.517,0.217,0.75,0.25c0.167-1.2,0.417-2.1,0.75-2.7c0.5-0.833,1.25-1.284,2.25-1.35
					c0.466-0.034,0.85,0.133,1.15,0.5c0.3,0.3,0.466,0.683,0.5,1.15c0.1,0.9-0.233,1.733-1,2.5l0.95-0.2
					c0.6-0.267,1.117-1.05,1.55-2.35c0.433-1.267,0.6-2.45,0.5-3.55c-0.133-1.066-0.9-1.917-2.3-2.55
					c-1.366-0.6-2.533-0.717-3.5-0.35c-1.433,0.566-2.65,1.867-3.65,3.9C39.867-20.733,39.784-19.9,40.05-19.1z"/>
				
					<radialGradient id="SVGID_16_" cx="1193.7998" cy="-1997.8501" r="13.1125" gradientTransform="matrix(0.8096 0 0 -0.7791 -920.25 -1577.0713)" gradientUnits="userSpaceOnUse">
					<stop  offset="0" style="stop-color:#FFF298;stop-opacity:0.8196"/>
					<stop  offset="1" style="stop-color:#FEE400;stop-opacity:0"/>
				</radialGradient>
				<path style="fill-rule:evenodd;clip-rule:evenodd;fill:url(#SVGID_16_);" d="M52.957-22.181c0-2.829-1.039-5.234-3.117-7.215
					c-2.051-2.006-4.547-3.009-7.488-3.009s-5.451,1.003-7.529,3.009c-2.078,1.981-3.117,4.386-3.117,7.215
					c0,2.804,1.04,5.209,3.117,7.216c2.078,2.006,4.587,3.009,7.529,3.009s5.438-1.003,7.488-3.009
					C51.918-16.946,52.957-19.352,52.957-22.181z"/>
				<linearGradient id="SVGID_17_" gradientUnits="userSpaceOnUse" x1="46.9258" y1="-24.8525" x2="48.1758" y2="-17.4525">
					<stop  offset="0" style="stop-color:#DBAC46"/>
					<stop  offset="1" style="stop-color:#F7E16C"/>
				</linearGradient>
				<path style="fill-rule:evenodd;clip-rule:evenodd;fill:url(#SVGID_17_);" d="M47.75-19c0.1,0.9-0.233,1.733-1,2.5l0.95-0.2
					c0.6-0.267,1.117-1.05,1.55-2.35c0.433-1.267,0.6-2.45,0.5-3.55c-0.1-0.966-0.784-1.767-2.05-2.4c-1.2-0.6-2.316-0.8-3.35-0.6
					l0.8,0.15c1,0.167,1.767,0.65,2.3,1.45c0.4,0.6,0.617,1.267,0.65,2c0.033,0.467-0.117,1.283-0.45,2.45L47.75-19z"/>
				<linearGradient id="SVGID_18_" gradientUnits="userSpaceOnUse" x1="43.1704" y1="-20.8745" x2="45.0954" y2="-16.9495">
					<stop  offset="0" style="stop-color:#DBAC46"/>
					<stop  offset="1" style="stop-color:#F7E16C"/>
				</linearGradient>
				<path style="fill-rule:evenodd;clip-rule:evenodd;fill:url(#SVGID_18_);" d="M42.3-18.8c-0.267,0.633-0.3,1.267-0.1,1.9
					l0.15,0.05c0.267,0.133,0.517,0.217,0.75,0.25c0.167-1.2,0.417-2.1,0.75-2.7c0.5-0.833,1.25-1.284,2.25-1.35h0.1l-1.05-0.3
					c-0.434-0.1-1.1,0.2-2,0.9C42.784-19.783,42.5-19.367,42.3-18.8z"/>
				
					<radialGradient id="SVGID_19_" cx="16301.7168" cy="-31.6836" r="5.675" gradientTransform="matrix(8.810573e-005 1 1 8.810573e-005 57.6479 -16331.7148)" gradientUnits="userSpaceOnUse">
					<stop  offset="0" style="stop-color:#FFFEF5"/>
					<stop  offset="1" style="stop-color:#FEE607"/>
				</radialGradient>
				<path style="fill-rule:evenodd;clip-rule:evenodd;fill:url(#SVGID_19_);" d="M25.95-23.85c0.5-0.033,0.767-0.5,0.8-1.4
					c0.033-0.833-0.1-1.367-0.4-1.6c-0.233-0.2-0.534-0.216-0.9-0.05c-0.333,0.167-0.616,0.417-0.85,0.75
					c-0.2,0.333-0.15,0.8,0.15,1.4C25.084-24.117,25.484-23.816,25.95-23.85z"/>
				
					<linearGradient id="SVGID_20_" gradientUnits="userSpaceOnUse" x1="27.4712" y1="-16302.6582" x2="30.0962" y2="-16302.6582" gradientTransform="matrix(3.809524e-004 -1 1 -0.001 16327.8945 -13.1685)">
					<stop  offset="0" style="stop-color:#DBAC46"/>
					<stop  offset="1" style="stop-color:#F7E16C"/>
				</linearGradient>
				<path style="fill-rule:evenodd;clip-rule:evenodd;fill:url(#SVGID_20_);" d="M25.45-24.3c-0.167-0.134-0.283-0.333-0.35-0.6
					c-0.067-0.667,0.033-1.15,0.3-1.45c0.2-0.267,0.3-0.483,0.3-0.65c-0.433,0.1-0.8,0.383-1.1,0.85c-0.2,0.333-0.15,0.8,0.15,1.4
					c0.333,0.633,0.733,0.934,1.2,0.9H26C25.8-23.95,25.617-24.1,25.45-24.3z"/>
				<radialGradient id="SVGID_21_" cx="29.1504" cy="-30" r="5.675" gradientUnits="userSpaceOnUse">
					<stop  offset="0" style="stop-color:#FFFEF5"/>
					<stop  offset="1" style="stop-color:#FEE607"/>
				</radialGradient>
				<path style="fill-rule:evenodd;clip-rule:evenodd;fill:url(#SVGID_21_);" d="M31.95-26.15c-0.233-0.333-0.517-0.583-0.85-0.75
					c-0.367-0.167-0.667-0.15-0.9,0.05c-0.3,0.233-0.417,0.767-0.35,1.6c0.033,0.9,0.283,1.367,0.75,1.4
					c0.466,0.034,0.866-0.267,1.2-0.9S32.184-25.85,31.95-26.15z"/>
				<linearGradient id="SVGID_22_" gradientUnits="userSpaceOnUse" x1="31.3477" y1="-26.9624" x2="31.3477" y2="-24.3374">
					<stop  offset="0" style="stop-color:#DBAC46"/>
					<stop  offset="1" style="stop-color:#F7E16C"/>
				</linearGradient>
				<path style="fill-rule:evenodd;clip-rule:evenodd;fill:url(#SVGID_22_);" d="M31.95-26.15c-0.3-0.467-0.667-0.75-1.1-0.85
					c0,0.133,0.116,0.35,0.35,0.65c0.267,0.367,0.35,0.85,0.25,1.45c0,0.2-0.1,0.4-0.3,0.6c-0.167,0.2-0.35,0.35-0.55,0.45
					c0.466,0.034,0.866-0.267,1.2-0.9S32.184-25.85,31.95-26.15z"/>
			</g>
			<g>
				
					<radialGradient id="SVGID_23_" cx="16289.1982" cy="-35.0518" r="27.35" gradientTransform="matrix(1.828154e-005 1 1 1.828154e-005 64.9541 -16331.1484)" gradientUnits="userSpaceOnUse">
					<stop  offset="0" style="stop-color:#FFFEF5"/>
					<stop  offset="1" style="stop-color:#FEE607"/>
				</radialGradient>
				<path style="fill-rule:evenodd;clip-rule:evenodd;fill:url(#SVGID_23_);" d="M44.45-36.15c-0.3-0.667-1-1.35-2.1-2.05
					c-1.567-1.033-2.7-1.733-3.4-2.1c-1.2-0.633-2.217-1.034-3.05-1.2c-0.033,0-0.066,0-0.1,0l-0.65-0.1
					c0.233,0.267,0.383,0.6,0.45,1c0.066,0.434,0.017,0.783-0.15,1.05c-0.067,0.1-0.167,0.133-0.3,0.1
					c-0.133-0.033-0.3-0.15-0.5-0.35c-0.267-0.267-0.767-0.767-1.5-1.5l-0.6-0.5h-8.1l-0.6,0.5c-0.733,0.733-1.233,1.233-1.5,1.5
					c-0.133,0.133-0.25,0.233-0.35,0.3c-0.2,0.133-0.35,0.117-0.45-0.05c-0.133-0.267-0.167-0.617-0.1-1.05
					c0.066-0.4,0.216-0.75,0.45-1.05l-0.95,0.15c-1.267,0.2-3.45,1.3-6.55,3.3c-1.1,0.7-1.783,1.383-2.05,2.05
					c-0.267,0.633-0.25,1.483,0.05,2.55c0.233,0.9,1.233,1.684,3,2.35c0.5-1.467,1.267-2.65,2.3-3.55
					c0.933-0.8,1.533-0.883,1.8-0.25c-0.233,1.4-0.2,2.983,0.1,4.75c0.967,0.1,2.267,0.133,3.9,0.1c1.433,0,2.433-0.033,3-0.1
					c0.733-0.067,1.367-0.1,1.9-0.1c0.467,0,1.1,0.033,1.9,0.1c0.567,0.066,1.567,0.1,3,0.1c1.633,0.034,2.934,0,3.9-0.1l0.2-0.05
					c0.3-1.733,0.333-3.3,0.1-4.7c0.267-0.633,0.867-0.55,1.8,0.25c0.934,0.767,1.7,1.917,2.3,3.45
					c1.633-0.667,2.566-1.417,2.8-2.25C44.667-34.667,44.683-35.517,44.45-36.15z"/>
			</g>
			<g>
				
					<linearGradient id="SVGID_24_" gradientUnits="userSpaceOnUse" x1="35.5596" y1="-16290.1758" x2="44.1846" y2="-16290.1758" gradientTransform="matrix(1.159420e-004 -1 1 -0.001 16330.0547 -13.168)">
					<stop  offset="0" style="stop-color:#DBAC46"/>
					<stop  offset="1" style="stop-color:#F7E16C"/>
				</linearGradient>
				<path style="fill-rule:evenodd;clip-rule:evenodd;fill:url(#SVGID_24_);" d="M40.75-37.7c1.067,0.733,1.8,1.333,2.2,1.8
					c0.633,0.733,0.983,1.733,1.05,3c0.133-0.133,0.267-0.367,0.4-0.7c0.267-1.066,0.283-1.917,0.05-2.55
					c-0.3-0.667-1-1.35-2.1-2.05c-1.567-1.033-2.7-1.733-3.4-2.1c-1.2-0.633-2.217-1.034-3.05-1.2c-0.033,0-0.066,0-0.1,0l-0.65-0.1
					c0.233,0.3,0.383,0.7,0.45,1.2l2.55,1.1C38.85-38.967,39.717-38.433,40.75-37.7z"/>
			</g>
			<g>
				
					<linearGradient id="SVGID_25_" gradientUnits="userSpaceOnUse" x1="35.5825" y1="-16313.0264" x2="44.2075" y2="-16313.0264" gradientTransform="matrix(1.159420e-004 -1 1 -0.001 16330.0547 -13.168)">
					<stop  offset="0" style="stop-color:#DBAC46"/>
					<stop  offset="1" style="stop-color:#F7E16C"/>
				</linearGradient>
				<path style="fill-rule:evenodd;clip-rule:evenodd;fill:url(#SVGID_25_);" d="M13.3-32.35c0-1.7,0.284-2.9,0.85-3.6
					c0.667-0.833,2.15-1.9,4.45-3.2c0.433-0.267,1.283-0.567,2.55-0.9c0.067,0,0.15-0.017,0.25-0.05c-0.066-0.533,0.1-1.05,0.5-1.55
					l-0.95,0.15c-1.267,0.2-3.45,1.3-6.55,3.3c-1.1,0.7-1.783,1.383-2.05,2.05c-0.267,0.633-0.25,1.483,0.05,2.55
					C12.5-33.233,12.8-32.817,13.3-32.35z"/>
			</g>
			<g>
				
					<linearGradient id="SVGID_26_" gradientUnits="userSpaceOnUse" x1="35.5708" y1="-16301.5576" x2="44.1958" y2="-16301.5576" gradientTransform="matrix(1.159420e-004 -1 1 -0.001 16330.0547 -13.168)">
					<stop  offset="0" style="stop-color:#DBAC46"/>
					<stop  offset="1" style="stop-color:#F7E16C"/>
				</linearGradient>
				<path style="fill-rule:evenodd;clip-rule:evenodd;fill:url(#SVGID_26_);" d="M24.9-40.75l5.15-0.2
					c0.667-0.033,1.35-0.017,2.05,0.05c0.6,0.467,0.983,0.833,1.15,1.1c0.233,0.333,0.6,0.566,1.1,0.7
					c0.066,0.033,0.333-0.066,0.8-0.3c0.033,0,0.067-0.017,0.1-0.05c-0.033,0-0.067-0.017-0.1-0.05c-0.333-0.1-1-0.7-2-1.8l-0.6-0.5
					h-8.1l-0.6,0.5c-0.867,0.966-1.483,1.55-1.85,1.75c-0.1,0.066-0.183,0.1-0.25,0.1l1.05,0.65L24.9-40.75z"/>
			</g>
			<g>
				
					<linearGradient id="SVGID_27_" gradientUnits="userSpaceOnUse" x1="33.5288" y1="-16309.3291" x2="38.3538" y2="-16309.3291" gradientTransform="matrix(2.072539e-004 -1 1 -0.001 16329.3096 -13.168)">
					<stop  offset="0" style="stop-color:#DBAC46"/>
					<stop  offset="1" style="stop-color:#F7E16C"/>
				</linearGradient>
				<path style="fill-rule:evenodd;clip-rule:evenodd;fill:url(#SVGID_27_);" d="M20.2-34.45l-0.7-0.5c-0.2,1.5-0.167,3.05,0.1,4.65
					c0.2,0.033,0.533,0.05,1,0.05c-0.267-0.9-0.4-1.633-0.4-2.2V-34.45z"/>
				
					<linearGradient id="SVGID_28_" gradientUnits="userSpaceOnUse" x1="33.5122" y1="-16292.5391" x2="38.3372" y2="-16292.5391" gradientTransform="matrix(2.072539e-004 -1 1 -0.001 16329.3096 -13.168)">
					<stop  offset="0" style="stop-color:#DBAC46"/>
					<stop  offset="1" style="stop-color:#F7E16C"/>
				</linearGradient>
				<path style="fill-rule:evenodd;clip-rule:evenodd;fill:url(#SVGID_28_);" d="M37.5-35.05l0.05-0.1
					c-0.633,0.167-0.966,0.333-1,0.5l-0.1,2.4c0,0.7-0.184,1.383-0.55,2.05l1.3-0.1l0.2-0.05C37.7-32.083,37.733-33.65,37.5-35.05z"
					/>
			</g>
			<g>
				
					<radialGradient id="SVGID_29_" cx="29.2251" cy="-32.4502" r="22.6187" gradientTransform="matrix(1 0 0 -0.583 0 -51.3677)" gradientUnits="userSpaceOnUse">
					<stop  offset="0" style="stop-color:#FFF9D1"/>
					<stop  offset="1" style="stop-color:#FEE400;stop-opacity:0"/>
				</radialGradient>
				<path style="fill-rule:evenodd;clip-rule:evenodd;fill:url(#SVGID_29_);" d="M45.25-41.8c-4.433-2.567-9.767-3.85-16-3.85
					c-6.267,0-11.6,1.283-16,3.85c-4.433,2.566-6.65,5.683-6.65,9.35c0,3.633,2.217,6.75,6.65,9.35c4.4,2.567,9.733,3.85,16,3.85
					c6.233,0,11.567-1.283,16-3.85c4.4-2.6,6.6-5.717,6.6-9.35C51.85-36.117,49.65-39.233,45.25-41.8z"/>
			</g>
		</g>
	</g>
	<g id="Layer_2_2_">
	</g>
	<g id="Layer_1_2_">
	</g>
</symbol>
<use xlink:href="#pumpkin_2_"  width="48.25" height="46.558" id="pumpkin_1_" x="4.707" y="-46.541" transform="matrix(1 0 0 -1 0.5498 0)" style="overflow:visible;"/>
</svg>
