<?xml version="1.0" encoding="iso-8859-1"?>
<!-- Generator: Adobe Illustrator 15.1.0, SVG Export Plug-In . SVG Version: 6.00 Build 0)  -->
<!DOCTYPE svg PUBLIC "-//W3C//DTD SVG 1.1//EN" "http://www.w3.org/Graphics/SVG/1.1/DTD/svg11.dtd">
<svg version="1.1" id="FlashAICB" xmlns="http://www.w3.org/2000/svg" xmlns:xlink="http://www.w3.org/1999/xlink" x="0px" y="0px"
	 width="59.6px" height="46.55px" viewBox="0 0 59.6 46.55" style="enable-background:new 0 0 59.6 46.55;" xml:space="preserve">
<symbol  id="_x31_" viewBox="0.018 -44.517 47.964 44.534">
	<g id="Layer_1_2_">
		<g>
			
				<radialGradient id="SVGID_1_" cx="100.0005" cy="-16402.709" r="4.0628" gradientTransform="matrix(-0.0118 -0.9999 -2.4336 0.0288 -39892.8945 564.6885)" gradientUnits="userSpaceOnUse">
				<stop  offset="0" style="stop-color:#F5DC93"/>
				<stop  offset="0.2039" style="stop-color:#F4C125"/>
				<stop  offset="1" style="stop-color:#B47527"/>
			</radialGradient>
			<path style="fill-rule:evenodd;clip-rule:evenodd;fill:url(#SVGID_1_);" d="M29.95-12.15l-8-0.5l-3.2,0.9l-0.3,1.45
				c1.534,0.967,3.5,1.45,5.9,1.45c1.4,0,2.683-0.233,3.85-0.7c1.067-0.433,1.684-0.867,1.85-1.3
				C30.217-11.417,30.183-11.85,29.95-12.15z"/>
			
				<radialGradient id="SVGID_2_" cx="390.2813" cy="-16742.332" r="14.8224" gradientTransform="matrix(-0.0565 -0.9984 1.1055 -0.0514 18567.2578 -480.6831)" gradientUnits="userSpaceOnUse">
				<stop  offset="0" style="stop-color:#F5DC93"/>
				<stop  offset="0.2039" style="stop-color:#F4C125"/>
				<stop  offset="1" style="stop-color:#B47527"/>
			</radialGradient>
			<path style="fill-rule:evenodd;clip-rule:evenodd;fill:url(#SVGID_2_);" d="M47.7-26.85c-0.2-0.867-1.05-2.983-2.55-6.35
				c-0.733-1.667-2.017-3.283-3.85-4.85c-1.667-1.4-2.95-2.133-3.85-2.2c-1.066-0.1-4.183,0.967-9.35,3.2L24.3-11.5
				c0.833,1,3.467,1.7,7.9,2.1c1.934,0.133,4.083-0.317,6.45-1.35c3.467-1.5,6.05-3.917,7.75-7.25
				C47.9-20.967,48.333-23.917,47.7-26.85z"/>
			
				<radialGradient id="SVGID_3_" cx="35.1997" cy="-12.6499" r="20.5518" gradientTransform="matrix(-0.0122 -0.9999 1.1069 -0.0135 49.6318 22.377)" gradientUnits="userSpaceOnUse">
				<stop  offset="0" style="stop-color:#F5DC93"/>
				<stop  offset="0.2039" style="stop-color:#F4C125"/>
				<stop  offset="1" style="stop-color:#B47527"/>
			</radialGradient>
			<path style="fill-rule:evenodd;clip-rule:evenodd;fill:url(#SVGID_3_);" d="M45.25-28.4c-0.5-2.733-1.4-5.034-2.7-6.9
				c-1.133-1.667-2.533-3.15-4.2-4.45c-1.667-1.333-3.367-2.283-5.1-2.85c-1.467-0.467-3-0.767-4.6-0.9h-2L24.9-12l2.55,0.4
				c2,0.233,3.833,0.283,5.5,0.15c2.367-0.167,4.6-0.9,6.7-2.2c2.533-1.534,4.25-3.583,5.15-6.15
				C45.7-22.367,45.85-25.233,45.25-28.4z"/>
			
				<radialGradient id="SVGID_4_" cx="-365.585" cy="-15839.0098" r="14.8493" gradientTransform="matrix(0.0572 -0.9984 -1.1061 -0.0513 -17487.1465 -1187.4531)" gradientUnits="userSpaceOnUse">
				<stop  offset="0" style="stop-color:#F5DC93"/>
				<stop  offset="0.2039" style="stop-color:#F4C125"/>
				<stop  offset="1" style="stop-color:#B47527"/>
			</radialGradient>
			<path style="fill-rule:evenodd;clip-rule:evenodd;fill:url(#SVGID_4_);" d="M0.3-26.85c-0.633,2.933-0.2,5.883,1.3,8.85
				c1.7,3.333,4.283,5.75,7.75,7.25c2.367,1.033,4.517,1.483,6.45,1.35c1.533-0.133,3.133-0.417,4.8-0.85
				c2.066-0.533,3.25-1.117,3.55-1.75l-4.3-25.05c-5.133-2.233-8.233-3.3-9.3-3.2c-0.9,0.066-2.183,0.8-3.85,2.2
				c-1.833,1.567-3.117,3.184-3.85,4.85C1.35-29.833,0.5-27.717,0.3-26.85z"/>
			<path style="fill-rule:evenodd;clip-rule:evenodd;fill:#A96F24;" d="M1.45-24.65C1.717-23.05,2.033-21.5,2.4-20
				c0.467,2,1.717,3.8,3.75,5.4c1.533,1.233,3.217,2.167,5.05,2.8c1.667,0.567,4.684,0.534,9.05-0.1l2.95-5.6l-3.35-19.55l-3.15-1.3
				l-1.8,1.85v14.9L3.2-19.8l-0.45-1.25c-0.3-1-0.517-1.95-0.65-2.85c-0.1-1.034-0.083-2.3,0.05-3.8
				c0.133-1.333,0.317-2.383,0.55-3.15c0.3-0.933,0.25-1.5-0.15-1.7c-0.833,1.8-1.283,2.8-1.35,3C0.667-28.283,0.316-27.1,0.15-26
				H0.5C0.967-26,1.283-25.55,1.45-24.65z"/>
			<path style="fill-rule:evenodd;clip-rule:evenodd;fill:#A26921;" d="M2.15-27.7C2.017-26.2,2-24.934,2.1-23.9
				c0.133,0.9,0.35,1.85,0.65,2.85L3.2-19.8l11.7-1.8v-14.9l-9.8,10l-2.5,0.75l0.2-2.35c0.2-1.8,0.533-3.233,1-4.3
				c0.733-1.767,1.25-3.1,1.55-4L5.1-36.45c-1.034,1.067-1.784,2.15-2.25,3.25l-0.3,0.65c0.4,0.2,0.45,0.767,0.15,1.7
				C2.467-30.083,2.283-29.033,2.15-27.7z"/>
			<path style="fill-rule:evenodd;clip-rule:evenodd;fill:#905D1C;" d="M2.8-28.1l-0.2,2.35l2.5-0.75l11.6-11.85
				c-3.267-1.367-5.316-2-6.15-1.9c-0.566,0.033-1.367,0.4-2.4,1.1c-1.1,0.767-2.117,1.667-3.05,2.7l0.25,0.05
				c-0.3,0.9-0.817,2.233-1.55,4C3.333-31.333,3-29.9,2.8-28.1z"/>
			
				<radialGradient id="SVGID_5_" cx="-91.0518" cy="-16218.2266" r="20.5518" gradientTransform="matrix(0.0122 -0.9999 -1.1069 -0.0135 -17938.7188 -322.4556)" gradientUnits="userSpaceOnUse">
				<stop  offset="0" style="stop-color:#F5DC93"/>
				<stop  offset="0.2039" style="stop-color:#F4C125"/>
				<stop  offset="1" style="stop-color:#B47527"/>
			</radialGradient>
			<path style="fill-rule:evenodd;clip-rule:evenodd;fill:url(#SVGID_5_);" d="M2.75-28.4c-0.6,3.167-0.45,6.033,0.45,8.6
				c0.9,2.567,2.617,4.617,5.15,6.15c2.1,1.3,4.333,2.033,6.7,2.2c2.667,0.2,5.35,0.017,8.05-0.55l-1.75-31.5
				c-2.067-0.167-4.267,0.133-6.6,0.9c-1.733,0.567-3.434,1.517-5.1,2.85c-1.667,1.3-3.067,2.783-4.2,4.45
				C4.183-33.434,3.283-31.133,2.75-28.4z"/>
			<path style="fill-rule:evenodd;clip-rule:evenodd;fill:#A96F24;" d="M22.95-12h0.15L22-32.1l-8.9,5.75
				c-0.133-2.633-0.15-4.45-0.05-5.45c0.067-0.8,0.283-2.05,0.65-3.75c0.367-1.6,0.55-2.566,0.55-2.9
				c0.033-0.633-0.317-1.15-1.05-1.55c-0.833-0.5-1.85-0.55-3.05-0.15c-1.6,1.233-2.85,2.433-3.75,3.6
				c1.333-0.5,2.45-0.583,3.35-0.25c0.833,0.3,1.367,0.917,1.6,1.85c-0.067,0.767-0.1,1.65-0.1,2.65c-0.067,2,0.333,4.867,1.2,8.6
				c0.9,3.8,2.867,6.867,5.9,9.2C19.883-13.333,21.417-12.5,22.95-12z"/>
			<path style="fill-rule:evenodd;clip-rule:evenodd;fill:#A26921;" d="M22-32.1l-0.2-2.95l-7.4,4.6l-0.55-0.95l0.25-2
				c0.233-1.534,0.566-2.75,1-3.65c0.966-1.966,1.45-3.316,1.45-4.05c0-0.333-0.233-0.633-0.7-0.9c-0.6-0.267-1.35-0.317-2.25-0.15
				c-1.167,0.5-2.317,1.167-3.45,2c1.2-0.4,2.217-0.35,3.05,0.15c0.733,0.4,1.083,0.917,1.05,1.55c0,0.333-0.184,1.3-0.55,2.9
				c-0.367,1.7-0.583,2.95-0.65,3.75c-0.1,1-0.083,2.817,0.05,5.45L22-32.1z"/>
			<path style="fill-rule:evenodd;clip-rule:evenodd;fill:#905D1C;" d="M14.1-33.4l-0.25,2l0.55,0.95l7.4-4.6l-0.3-6.1
				c-0.467,0.167-0.95,0.283-1.45,0.35l-0.6,0.05l0.35-0.4c0.1-0.367-0.133-0.8-0.7-1.3c-0.467-0.433-1.317-0.65-2.55-0.65
				l-2.95,0.95c0.9-0.167,1.65-0.117,2.25,0.15c0.466,0.267,0.7,0.566,0.7,0.9c0,0.733-0.483,2.083-1.45,4.05
				C14.667-36.15,14.333-34.934,14.1-33.4z"/>
			<path style="fill-rule:evenodd;clip-rule:evenodd;fill:#6E4613;" d="M19.1-42.45c0.566,0.5,0.8,0.934,0.7,1.3l-0.35,0.4l0.6-0.05
				c0.5-0.066,0.983-0.183,1.45-0.35l-0.15-2.35c-1.4-0.1-3,0.033-4.8,0.4C17.783-43.1,18.633-42.883,19.1-42.45z"/>
			
				<radialGradient id="SVGID_6_" cx="-49.8291" cy="-16245.3105" r="19.4632" gradientTransform="matrix(0.0078 -1 -0.9801 -0.0076 -15898.8066 -191.9282)" gradientUnits="userSpaceOnUse">
				<stop  offset="0" style="stop-color:#F5DC93"/>
				<stop  offset="0.2039" style="stop-color:#F4C125"/>
				<stop  offset="1" style="stop-color:#B47527"/>
			</radialGradient>
			<path style="fill-rule:evenodd;clip-rule:evenodd;fill:url(#SVGID_6_);" d="M23.7-11.8c2.7-0.033,4.95-0.917,6.75-2.65
				c1.633-1.6,2.617-3.633,2.95-6.1c0.267-2.167-0.017-5.367-0.85-9.6c-0.767-3.934-1.566-6.7-2.4-8.3
				c-0.933-1.867-1.817-3.267-2.65-4.2c-1.2-1.333-2.467-1.95-3.8-1.85c-1.333,0.1-2.716,0.8-4.15,2.1c-1.233,1.1-2.367,2.5-3.4,4.2
				c-1.167,1.934-2.05,3.95-2.65,6.05c-0.567,2.033-0.817,3.95-0.75,5.75c0.133,2.5,0.783,4.883,1.95,7.15
				c0.867,1.733,1.85,3.117,2.95,4.15c0.8,0.767,1.85,1.5,3.15,2.2C22.133-12.167,23.1-11.8,23.7-11.8z"/>
			<path style="fill-rule:evenodd;clip-rule:evenodd;fill:#A96F24;" d="M16.15-38.2c-0.233,0.4-0.667,1.217-1.3,2.45
				c1.1-1.367,3.017-2.317,5.75-2.85c2.367-0.433,4.267-0.467,5.7-0.1c2.2,0.633,4.15,2.867,5.85,6.7l-0.75-3.05
				c-1.033-2.066-1.583-3.167-1.65-3.3c-0.967-1.667-1.883-2.717-2.75-3.15c-2.633-1.333-5.267-1.217-7.9,0.35l-1.55,0.95
				L16.15-38.2z"/>
			<path style="fill-rule:evenodd;clip-rule:evenodd;fill:#A26921;" d="M22.35-43.35c-1.034,0.133-2.083,0.567-3.15,1.3
				c-0.5,0.467-1.05,1.083-1.65,1.85l1.55-0.95c2.633-1.567,5.267-1.684,7.9-0.35c0.867,0.433,1.783,1.483,2.75,3.15
				c0.066,0.133,0.617,1.233,1.65,3.3c-0.533-1.7-0.95-2.833-1.25-3.4l-0.95-1.8c-1.1-1.533-2.3-2.5-3.6-2.9
				C24.8-43.417,23.717-43.483,22.35-43.35z"/>
			<path style="fill-rule:evenodd;clip-rule:evenodd;fill:#6E4613;" d="M19.2-42.05c1.067-0.733,2.117-1.167,3.15-1.3
				c1.367-0.133,2.45-0.067,3.25,0.2c1.3,0.4,2.5,1.367,3.6,2.9c-1.767-3-3.6-4.417-5.5-4.25C22.233-44.367,20.733-43.55,19.2-42.05
				z"/>
			
				<radialGradient id="SVGID_7_" cx="4.8389" cy="-16308.1338" r="35.075" gradientTransform="matrix(1.425517e-005 -1 -0.8357 1.425517e-005 -13606.1074 -4.6284)" gradientUnits="userSpaceOnUse">
				<stop  offset="0.4667" style="stop-color:#F4C125;stop-opacity:0"/>
				<stop  offset="1" style="stop-color:#603C10"/>
			</radialGradient>
			<path style="fill-rule:evenodd;clip-rule:evenodd;fill:url(#SVGID_7_);" d="M46.4-18c1.5-2.967,1.934-5.917,1.3-8.85
				c-0.2-0.867-1.05-2.983-2.55-6.35c-0.733-1.6-1.933-3.15-3.6-4.65c-1.533-1.333-2.8-2.117-3.8-2.35c-1.533-1.1-3.033-1.9-4.5-2.4
				c-1.467-0.467-3-0.767-4.6-0.9h-2c-0.933-0.767-1.917-1.1-2.95-1c-0.767,0.033-1.667,0.367-2.7,1c-2.067-0.1-4.15,0.2-6.25,0.9
				c-1.467,0.5-2.967,1.3-4.5,2.4c-1,0.233-2.267,1.017-3.8,2.35c-1.667,1.5-2.867,3.05-3.6,4.65c-1.5,3.367-2.35,5.483-2.55,6.35
				c-0.633,2.934-0.2,5.883,1.3,8.85c1.7,3.333,4.283,5.75,7.75,7.25c2.367,1.033,4.517,1.483,6.45,1.35
				c1.3-0.167,2.417-0.35,3.35-0.55c1.533,0.733,3.267,1.1,5.2,1.1c1.8,0,3.3-0.333,4.5-1L32.2-9.4
				c1.933,0.133,4.083-0.317,6.45-1.35C42.117-12.25,44.7-14.667,46.4-18z"/>
			
				<radialGradient id="SVGID_8_" cx="-71.6689" cy="-16236.9072" r="6.8753" gradientTransform="matrix(0.0087 -1 -0.8854 -0.0077 -14352.627 -199.5039)" gradientUnits="userSpaceOnUse">
				<stop  offset="0" style="stop-color:#9FAB41"/>
				<stop  offset="1" style="stop-color:#796D12"/>
			</radialGradient>
			<path style="fill-rule:evenodd;clip-rule:evenodd;fill:url(#SVGID_8_);" d="M27.2-2.7c-0.267-0.9-0.5-1.517-0.7-1.85
				c-0.267-0.5-0.517-1.233-0.75-2.2S25.4-8.5,25.4-9.1c0-0.8,0.133-1.75,0.4-2.85c-0.2,0.2-0.566,0.267-1.1,0.2h-0.1
				c-1.034,0.1-1.983-0.1-2.85-0.6l-0.2,0.1c-0.933,2.433-1.467,4.483-1.6,6.15c-0.066,1.067-0.1,2.2-0.1,3.4v1.45L20.5-1.7
				l0.2-0.25c0.567-0.566,1.284-0.933,2.15-1.1c0.9-0.4,1.75-0.466,2.55-0.2c0.6,0.033,1.183,0.217,1.75,0.55H27.2z"/>
			
				<radialGradient id="SVGID_9_" cx="-76.9668" cy="-16234.1797" r="3.6627" gradientTransform="matrix(0.009 -1 -0.8839 -0.0079 -14325.6074 -206.6294)" gradientUnits="userSpaceOnUse">
				<stop  offset="0" style="stop-color:#9FAB41"/>
				<stop  offset="1" style="stop-color:#796D12"/>
			</radialGradient>
			<path style="fill-rule:evenodd;clip-rule:evenodd;fill:url(#SVGID_9_);" d="M25-3.85c-0.5,0.033-1.133-0.033-1.9-0.2
				c-0.534-0.1-1.217,0-2.05,0.3c-0.167,0.066-0.417,0.5-0.75,1.3l-0.45,1.2l1,0.85c0.9,0.5,1.917,0.55,3.05,0.15
				c1.133-0.367,2.017-0.883,2.65-1.55c0.333-0.333,0.55-0.633,0.65-0.9c-0.033-0.233-0.15-0.45-0.35-0.65
				C26.45-3.783,25.833-3.95,25-3.85z"/>
			<path style="fill-rule:evenodd;clip-rule:evenodd;fill:#4E4906;" d="M23.15-2.3c-0.333-0.4-0.567-0.767-0.7-1.1
				c-0.466-0.633-0.7-1.233-0.7-1.8c0-0.433,0.033-1.083,0.1-1.95c0-0.833-0.034-1.483-0.1-1.95c-0.067,0.467-0.117,0.8-0.15,1
				L21.15-5c-0.033,0.333-0.05,0.583-0.05,0.75c-0.034,0.267,0,0.483,0.1,0.65l0.25,0.35L23-2.3H23.15z"/>
			<path style="fill-rule:evenodd;clip-rule:evenodd;fill:#4E4906;" d="M24-3.85c-0.133-0.067-0.233-0.217-0.3-0.45
				c-0.066-0.133-0.133-0.316-0.2-0.55L23.05-6C22.883-5.833,22.867-5.317,23-4.45c0,0.4,0.1,0.7,0.3,0.9L24-3.85z"/>
			<path style="fill-rule:evenodd;clip-rule:evenodd;fill:#5C5708;" d="M25.2-3.85L27-3.1l-0.45-2.25L26.2-6.1
				c-0.233-0.6-0.383-1.233-0.45-1.9c-0.1-0.767-0.15-1.517-0.15-2.25c0-0.167,0.017-0.483,0.05-0.95c0-0.4-0.033-0.7-0.1-0.9
				c-0.066,0-0.383,0.1-0.95,0.3c-0.434-0.033-0.7-0.017-0.8,0.05c-0.167,0.066-0.25,0.3-0.25,0.7c0.033,0.434,0.05,0.717,0.05,0.85
				c-0.034,0.567-0.067,1.017-0.1,1.35c-0.033,0.633,0.017,1.083,0.15,1.35c0.067-0.3,0.117-0.717,0.15-1.25
				c0.067-0.5,0.167-0.917,0.3-1.25v3.175c0.019-1.061,0.168-1.918,0.45-2.575c0.1,0.333,0.133,0.833,0.1,1.5
				c-0.033,0.667-0.017,1.167,0.05,1.5C24.833-5.233,25-4.383,25.2-3.85z"/>
		</g>
	</g>
</symbol>
<symbol  id="_x32_" viewBox="4.768 -44.517 47.964 44.534">
	<g id="Layer_1_3_">
		
			<use xlink:href="#_x31_"  width="47.964" height="44.534" x="0.018" y="-44.517" transform="matrix(1 0 0 1 4.75 0)" style="overflow:visible;"/>
		<g>
			
				<radialGradient id="SVGID_10_" cx="17066.4805" cy="-25.0654" r="17.3" gradientTransform="matrix(2.890174e-005 1 1.0325 0.0975 45.688 -17097.834)" gradientUnits="userSpaceOnUse">
				<stop  offset="0" style="stop-color:#785120"/>
				<stop  offset="1" style="stop-color:#2A1804"/>
			</radialGradient>
			<path style="fill-rule:evenodd;clip-rule:evenodd;fill:url(#SVGID_10_);" d="M14.95-16.9c1.233-0.567,2-1.317,2.3-2.25
				c0.267-0.8,0.183-1.65-0.25-2.55c-1.034-2.066-2.25-3.35-3.65-3.85c-0.967-0.367-2.134-0.25-3.5,0.35
				c-1.434,0.634-2.2,1.467-2.3,2.5c-0.1,1.1,0.067,2.284,0.5,3.55c0.434,1.333,0.95,2.117,1.55,2.35c0.3,0.133,0.6,0.216,0.9,0.25
				c-0.733-0.833-1.05-1.667-0.95-2.5c0.034-0.467,0.2-0.867,0.5-1.2c0.3-0.367,0.684-0.533,1.15-0.5c1,0.066,1.75,0.533,2.25,1.4
				c0.333,0.6,0.583,1.483,0.75,2.65C14.567-16.767,14.817-16.833,14.95-16.9z"/>
			
				<linearGradient id="SVGID_11_" gradientUnits="userSpaceOnUse" x1="1483.9976" y1="-17563.4141" x2="1491.5024" y2="-17563.4141" gradientTransform="matrix(-0.1666 -0.986 0.986 -0.1666 17576.5293 -1479.4814)">
				<stop  offset="0" style="stop-color:#866327"/>
				<stop  offset="1" style="stop-color:#DEC162"/>
			</linearGradient>
			<path style="fill-rule:evenodd;clip-rule:evenodd;fill:url(#SVGID_11_);" d="M9.2-22.1c0.034-0.733,0.25-1.4,0.65-2
				c0.533-0.767,1.3-1.25,2.3-1.45l0.8-0.15c-1.033-0.2-2.15,0-3.35,0.6c-1.267,0.633-1.95,1.434-2.05,2.4
				c-0.1,1.1,0.067,2.284,0.5,3.55c0.434,1.333,0.95,2.117,1.55,2.35c0.3,0.133,0.6,0.216,0.9,0.25
				c-0.733-0.833-1.05-1.667-0.95-2.5l0.1-0.55C9.317-20.8,9.167-21.633,9.2-22.1z"/>
			
				<linearGradient id="SVGID_12_" gradientUnits="userSpaceOnUse" x1="4432.6909" y1="-19073.1699" x2="4437.0625" y2="-19073.1699" gradientTransform="matrix(-0.4403 -0.8978 0.8978 -0.4403 19090.9707 -4435.6777)">
				<stop  offset="0" style="stop-color:#866327"/>
				<stop  offset="1" style="stop-color:#DEC162"/>
			</linearGradient>
			<path style="fill-rule:evenodd;clip-rule:evenodd;fill:url(#SVGID_12_);" d="M14.15-20.15c-0.233-0.167-0.566-0.4-1-0.7
				c-0.367-0.2-0.7-0.267-1-0.2c-0.423,0.132-0.731,0.232-0.925,0.3c0.988,0.075,1.729,0.542,2.225,1.4
				c0.333,0.6,0.583,1.483,0.75,2.65c0.367-0.066,0.617-0.133,0.75-0.2l0.15-0.1c0.2-0.6,0.167-1.233-0.1-1.9
				C14.8-19.467,14.517-19.883,14.15-20.15z"/>
			
				<radialGradient id="SVGID_13_" cx="15529.4893" cy="-41.6147" r="17.3" gradientTransform="matrix(2.890174e-005 1 -1.0325 0.0975 -6.5659 -15559.2295)" gradientUnits="userSpaceOnUse">
				<stop  offset="0" style="stop-color:#785120"/>
				<stop  offset="1" style="stop-color:#2A1804"/>
			</radialGradient>
			<path style="fill-rule:evenodd;clip-rule:evenodd;fill:url(#SVGID_13_);" d="M39.9-19.15c0.3,0.933,1.066,1.683,2.3,2.25
				c0.167,0.066,0.417,0.133,0.75,0.2c0.367-2.6,1.367-3.95,3-4.05c0.467-0.033,0.85,0.133,1.15,0.5c0.3,0.333,0.483,0.733,0.55,1.2
				c0.033,0.833-0.3,1.667-1,2.5c0.3-0.034,0.6-0.117,0.9-0.25c0.6-0.233,1.117-1.017,1.55-2.35c0.433-1.267,0.6-2.45,0.5-3.55
				c-0.1-1.033-0.867-1.866-2.3-2.5c-1.367-0.6-2.533-0.716-3.5-0.35c-1.4,0.5-2.617,1.783-3.65,3.85
				C39.717-20.833,39.634-19.983,39.9-19.15z"/>
			<linearGradient id="SVGID_14_" gradientUnits="userSpaceOnUse" x1="46.7759" y1="-24.9517" x2="48.0259" y2="-17.5517">
				<stop  offset="0" style="stop-color:#866327"/>
				<stop  offset="1" style="stop-color:#DEC162"/>
			</linearGradient>
			<path style="fill-rule:evenodd;clip-rule:evenodd;fill:url(#SVGID_14_);" d="M48-22.1c0,0.467-0.167,1.3-0.5,2.5l0.15,0.55
				c0.033,0.833-0.3,1.667-1,2.5c0.3-0.034,0.6-0.117,0.9-0.25c0.6-0.233,1.117-1.017,1.55-2.35c0.433-1.267,0.6-2.45,0.5-3.55
				c-0.1-0.966-0.784-1.767-2.05-2.4c-1.2-0.6-2.316-0.8-3.35-0.6l0.8,0.15c1,0.2,1.767,0.683,2.3,1.45
				C47.7-23.5,47.934-22.833,48-22.1z"/>
			<linearGradient id="SVGID_15_" gradientUnits="userSpaceOnUse" x1="42.9795" y1="-20.9307" x2="44.9045" y2="-17.0057">
				<stop  offset="0" style="stop-color:#866327"/>
				<stop  offset="1" style="stop-color:#DEC162"/>
			</linearGradient>
			<path style="fill-rule:evenodd;clip-rule:evenodd;fill:url(#SVGID_15_);" d="M42.2-16.9c0.167,0.066,0.417,0.133,0.75,0.2
				c0.365-2.585,1.356-3.935,2.975-4.05c-0.194-0.068-0.502-0.168-0.925-0.3c-0.3-0.067-0.633,0-1,0.2c-0.434,0.3-0.767,0.534-1,0.7
				c-0.367,0.267-0.65,0.683-0.85,1.25c-0.267,0.667-0.3,1.3-0.1,1.9L42.2-16.9z"/>
			
				<radialGradient id="SVGID_16_" cx="16278.1484" cy="-59.002" r="27.35" gradientTransform="matrix(1.828154e-005 1 1 1.828154e-005 112.8545 -16331.1475)" gradientUnits="userSpaceOnUse">
				<stop  offset="0" style="stop-color:#785120"/>
				<stop  offset="1" style="stop-color:#2A1804"/>
			</radialGradient>
			<path style="fill-rule:evenodd;clip-rule:evenodd;fill:url(#SVGID_16_);" d="M26.351-30.4h3.8c0.533,0.1,1.533,0.15,3,0.15
				c1.6,0,2.9-0.05,3.9-0.15h0.25c0.167-1.034,0.217-2.133,0.15-3.3l-0.05-1.45c0.066-0.2,0.2-0.317,0.4-0.35
				c0.367-0.066,0.833,0.15,1.4,0.65c0.967,0.8,1.717,1.95,2.25,3.45c1.634-0.633,2.567-1.4,2.8-2.3c0.3-1.066,0.316-1.9,0.05-2.5
				c-0.267-0.667-0.95-1.35-2.05-2.05c-1.7-1.066-2.833-1.767-3.4-2.1c-1.267-0.667-2.317-1.083-3.15-1.25L35-41.7
				c0.233,0.3,0.383,0.65,0.45,1.05c0.067,0.433,0.017,0.767-0.15,1c-0.133,0.233-0.4,0.15-0.8-0.25
				c-0.233-0.233-0.717-0.733-1.45-1.5l-0.6-0.45c-1.4-0.1-2.683-0.15-3.85-0.15l-4.3,0.1l-0.6,0.5
				c-0.733,0.767-1.233,1.267-1.5,1.5c-0.366,0.4-0.616,0.483-0.75,0.25c-0.167-0.267-0.216-0.617-0.15-1.05
				c0.034-0.4,0.184-0.733,0.45-1l-0.95,0.1c-0.833,0.167-1.867,0.583-3.1,1.25c-0.6,0.333-1.75,1.034-3.45,2.1
				c-1.1,0.7-1.784,1.383-2.05,2.05c-0.233,0.6-0.216,1.434,0.05,2.5c0.2,0.9,1.2,1.684,3,2.35c0.533-1.533,1.3-2.7,2.3-3.5
				c0.567-0.5,1.017-0.716,1.35-0.65c0.267,0.033,0.417,0.15,0.45,0.35c-0.233,1.433-0.2,3.017,0.1,4.75c1,0.1,2.3,0.15,3.9,0.15
				C24.817-30.25,25.817-30.3,26.351-30.4z"/>
			
				<linearGradient id="SVGID_17_" gradientUnits="userSpaceOnUse" x1="35.6597" y1="-16290.3125" x2="44.2847" y2="-16290.3125" gradientTransform="matrix(1.159420e-004 -1 1 -0.001 16330.0547 -13.168)">
				<stop  offset="0" style="stop-color:#866327"/>
				<stop  offset="1" style="stop-color:#DEC162"/>
			</linearGradient>
			<path style="fill-rule:evenodd;clip-rule:evenodd;fill:url(#SVGID_17_);" d="M43.851-32.95c0.233-0.267,0.366-0.517,0.4-0.75
				c0.3-1.066,0.316-1.9,0.05-2.5c-0.267-0.667-0.95-1.35-2.05-2.05c-1.7-1.066-2.833-1.767-3.4-2.1
				c-1.267-0.667-2.317-1.083-3.15-1.25L35-41.7c0.233,0.333,0.383,0.733,0.45,1.2l2.6,1.15c0.667,0.3,1.517,0.817,2.55,1.55
				c1.066,0.733,1.8,1.333,2.2,1.8C43.434-35.2,43.784-34.184,43.851-32.95z"/>
			
				<linearGradient id="SVGID_18_" gradientUnits="userSpaceOnUse" x1="35.6826" y1="-16313.1631" x2="44.3076" y2="-16313.1631" gradientTransform="matrix(1.159420e-004 -1 1 -0.001 16330.0547 -13.168)">
				<stop  offset="0" style="stop-color:#866327"/>
				<stop  offset="1" style="stop-color:#DEC162"/>
			</linearGradient>
			<path style="fill-rule:evenodd;clip-rule:evenodd;fill:url(#SVGID_18_);" d="M12.2-36.2c-0.233,0.6-0.216,1.434,0.05,2.5
				c0.1,0.434,0.4,0.85,0.9,1.25c0-1.7,0.283-2.9,0.85-3.6c0.7-0.867,2.183-1.934,4.45-3.2c0.667-0.333,1.6-0.65,2.8-0.95
				c0-0.633,0.167-1.133,0.5-1.5l-0.95,0.1c-0.833,0.167-1.867,0.583-3.1,1.25c-0.6,0.333-1.75,1.034-3.45,2.1
				C13.15-37.55,12.467-36.867,12.2-36.2z"/>
			
				<linearGradient id="SVGID_19_" gradientUnits="userSpaceOnUse" x1="35.6714" y1="-16301.6816" x2="44.2964" y2="-16301.6816" gradientTransform="matrix(1.159420e-004 -1 1 -0.001 16330.0547 -13.168)">
				<stop  offset="0" style="stop-color:#866327"/>
				<stop  offset="1" style="stop-color:#DEC162"/>
			</linearGradient>
			<path style="fill-rule:evenodd;clip-rule:evenodd;fill:url(#SVGID_19_);" d="M22.65-38.9l2.1-1.9l5.2-0.25
				c0.634-0.034,1.3,0,2,0.1c0.6,0.467,0.983,0.833,1.15,1.1c0.167,0.233,0.55,0.467,1.15,0.7c0.1,0.033,0.383-0.083,0.85-0.35
				c-0.167,0-0.434-0.2-0.8-0.6c-0.733-0.8-1.15-1.233-1.25-1.3l-0.6-0.45c-1.4-0.1-2.683-0.15-3.85-0.15l-4.3,0.1l-0.6,0.5
				c-1.133,1.267-1.816,1.9-2.05,1.9L22.65-38.9z"/>
			
				<linearGradient id="SVGID_20_" gradientUnits="userSpaceOnUse" x1="33.562" y1="-16292.6758" x2="38.387" y2="-16292.6758" gradientTransform="matrix(2.072539e-004 -1 1 -0.001 16329.3096 -13.168)">
				<stop  offset="0" style="stop-color:#866327"/>
				<stop  offset="1" style="stop-color:#DEC162"/>
			</linearGradient>
			<path style="fill-rule:evenodd;clip-rule:evenodd;fill:url(#SVGID_20_);" d="M37.45-33.7l-0.05-1.5
				c-0.6,0.167-0.917,0.317-0.95,0.45c-0.1,0.3-0.15,1.117-0.15,2.45c0,0.6-0.167,1.267-0.5,2l1.25-0.1h0.25
				C37.467-31.434,37.517-32.533,37.45-33.7z"/>
			
				<linearGradient id="SVGID_21_" gradientUnits="userSpaceOnUse" x1="33.5786" y1="-16309.4434" x2="38.4036" y2="-16309.4434" gradientTransform="matrix(2.072539e-004 -1 1 -0.001 16329.3096 -13.168)">
				<stop  offset="0" style="stop-color:#866327"/>
				<stop  offset="1" style="stop-color:#DEC162"/>
			</linearGradient>
			<path style="fill-rule:evenodd;clip-rule:evenodd;fill:url(#SVGID_21_);" d="M20.05-34.55l-0.7-0.5
				c-0.034,0.533-0.067,1.066-0.1,1.6c-0.034,1.034,0.033,2.05,0.2,3.05l1.05,0.1c-0.3-0.833-0.45-1.567-0.45-2.2V-34.55z"/>
			
				<radialGradient id="SVGID_22_" cx="16301.667" cy="-31.5835" r="5.675" gradientTransform="matrix(8.810573e-005 1 1 8.810573e-005 57.4478 -16331.7148)" gradientUnits="userSpaceOnUse">
				<stop  offset="0" style="stop-color:#785120"/>
				<stop  offset="1" style="stop-color:#2A1804"/>
			</radialGradient>
			<path style="fill-rule:evenodd;clip-rule:evenodd;fill:url(#SVGID_22_);" d="M25.8-23.95c0.467-0.033,0.733-0.5,0.8-1.4
				c0.066-0.833-0.05-1.367-0.35-1.6c-0.267-0.2-0.583-0.216-0.95-0.05c-0.3,0.167-0.583,0.417-0.85,0.75
				c-0.2,0.333-0.15,0.816,0.15,1.45C24.934-24.2,25.334-23.917,25.8-23.95z"/>
			
				<linearGradient id="SVGID_23_" gradientUnits="userSpaceOnUse" x1="27.5713" y1="-16302.8076" x2="30.1963" y2="-16302.8076" gradientTransform="matrix(3.809524e-004 -1 1 -0.001 16327.8945 -13.1685)">
				<stop  offset="0" style="stop-color:#866327"/>
				<stop  offset="1" style="stop-color:#DEC162"/>
			</linearGradient>
			<path style="fill-rule:evenodd;clip-rule:evenodd;fill:url(#SVGID_23_);" d="M25.3-24.35c-0.2-0.2-0.316-0.417-0.35-0.65
				c-0.066-0.633,0.034-1.117,0.3-1.45c0.2-0.267,0.3-0.466,0.3-0.6c-0.367,0.1-0.733,0.366-1.1,0.8
				c-0.2,0.333-0.15,0.816,0.15,1.45c0.333,0.6,0.733,0.883,1.2,0.85h0.05L25.3-24.35z"/>
			<radialGradient id="SVGID_24_" cx="29.0005" cy="-30.0498" r="5.675" gradientUnits="userSpaceOnUse">
				<stop  offset="0" style="stop-color:#785120"/>
				<stop  offset="1" style="stop-color:#2A1804"/>
			</radialGradient>
			<path style="fill-rule:evenodd;clip-rule:evenodd;fill:url(#SVGID_24_);" d="M30.5-23.95c0.466,0.034,0.867-0.25,1.2-0.85
				c0.3-0.634,0.35-1.117,0.15-1.45C31.617-26.583,31.334-26.833,31-27c-0.367-0.167-0.684-0.15-0.95,0.05
				c-0.3,0.233-0.417,0.767-0.35,1.6C29.767-24.45,30.034-23.983,30.5-23.95z"/>
			<linearGradient id="SVGID_25_" gradientUnits="userSpaceOnUse" x1="31.2104" y1="-27.0625" x2="31.2104" y2="-24.4375">
				<stop  offset="0" style="stop-color:#866327"/>
				<stop  offset="1" style="stop-color:#DEC162"/>
			</linearGradient>
			<path style="fill-rule:evenodd;clip-rule:evenodd;fill:url(#SVGID_25_);" d="M31-24.35l-0.55,0.4h0.05
				c0.466,0.034,0.867-0.25,1.2-0.85c0.3-0.634,0.35-1.117,0.15-1.45c-0.367-0.434-0.733-0.7-1.1-0.8c0,0.133,0.1,0.333,0.3,0.6
				c0.267,0.333,0.367,0.817,0.3,1.45C31.317-24.767,31.2-24.55,31-24.35z"/>
		</g>
	</g>
</symbol>
<radialGradient id="SVGID_26_" cx="29.7002" cy="41.2998" r="23.4125" gradientTransform="matrix(0.8456 0 0 -0.1583 4.6003 49.1048)" gradientUnits="userSpaceOnUse">
	<stop  offset="0.1647" style="stop-color:#000000;stop-opacity:0.8"/>
	<stop  offset="0.6353" style="stop-color:#000000;stop-opacity:0.1882"/>
	<stop  offset="1" style="stop-color:#000000;stop-opacity:0"/>
</radialGradient>
<path style="fill-rule:evenodd;clip-rule:evenodd;fill:url(#SVGID_26_);" d="M44.725,45.381c-4.144,0.773-9.146,1.16-15.01,1.16
	c-5.891,0-10.894-0.387-15.01-1.16c-4.144-0.774-6.215-1.712-6.215-2.814s2.071-2.041,6.215-2.814
	c4.116-0.774,9.119-1.161,15.01-1.161c5.863,0,10.866,0.387,15.01,1.161c4.143,0.773,6.215,1.712,6.215,2.814
	S48.867,44.606,44.725,45.381z"/>
<use xlink:href="#_x32_"  width="47.964" height="44.534" x="4.768" y="-44.517" transform="matrix(1 0 0 -1 0.5498 0)" style="overflow:visible;"/>
</svg>
