<?xml version="1.0" encoding="iso-8859-1"?>
<!-- Generator: Adobe Illustrator 15.1.0, SVG Export Plug-In . SVG Version: 6.00 Build 0)  -->
<!DOCTYPE svg PUBLIC "-//W3C//DTD SVG 1.1//EN" "http://www.w3.org/Graphics/SVG/1.1/DTD/svg11.dtd">
<svg version="1.1" xmlns="http://www.w3.org/2000/svg" xmlns:xlink="http://www.w3.org/1999/xlink" x="0px" y="0px" width="172.4px"
	 height="172.4px" viewBox="0 0 172.4 172.4" style="enable-background:new 0 0 172.4 172.4;" xml:space="preserve">
<symbol  id="BG_x2F_bg_yellow" viewBox="0 -134.05 134 134.05">
	<g id="Layer_1_3_">
		<g>
			<g>
				
					<linearGradient id="SVGID_1_" gradientUnits="userSpaceOnUse" x1="16085.8389" y1="-65.9146" x2="16218.1895" y2="-65.9146" gradientTransform="matrix(7.555724e-006 1 -1 -0.001 0.939 -16219.1055)">
					<stop  offset="0" style="stop-color:#4D2700"/>
					<stop  offset="0.651" style="stop-color:#936919"/>
					<stop  offset="1" style="stop-color:#B6984A"/>
				</linearGradient>
				<path style="fill-rule:evenodd;clip-rule:evenodd;fill:url(#SVGID_1_);" d="M67-0.85c18.233,0,33.817-6.466,46.75-19.4
					c12.934-12.967,19.4-28.566,19.4-46.8s-6.467-33.817-19.4-46.75c-12.933-12.934-28.517-19.4-46.75-19.4s-33.833,6.467-46.8,19.4
					C7.267-100.867,0.8-85.283,0.8-67.05c0,18.267,6.466,33.866,19.4,46.8S48.733-0.85,67-0.85z"/>
				<linearGradient id="SVGID_2_" gradientUnits="userSpaceOnUse" x1="0" y1="-67.0249" x2="134" y2="-67.0249">
					<stop  offset="0" style="stop-color:#804A2E"/>
					<stop  offset="0.651" style="stop-color:#B18335"/>
					<stop  offset="1" style="stop-color:#E4C13E"/>
				</linearGradient>
				<path style="fill-rule:evenodd;clip-rule:evenodd;fill:url(#SVGID_2_);" d="M132.35-67.05c0,18.033-6.383,33.433-19.15,46.2
					C100.467-8.083,85.067-1.7,67-1.7c-18.033,0-33.433-6.383-46.2-19.15C8.033-33.617,1.65-49.017,1.65-67.05
					c0-18.034,6.383-33.434,19.15-46.2C33.567-126.017,48.967-132.4,67-132.4s33.433,6.383,46.2,19.15
					C125.967-100.483,132.35-85.083,132.35-67.05z M92.65-5.1c8.133-3.367,15.367-8.217,21.7-14.55
					c6.333-6.333,11.183-13.583,14.55-21.75c3.4-8.167,5.1-16.717,5.1-25.65c0-8.934-1.7-17.483-5.1-25.65
					c-3.367-8.133-8.217-15.367-14.55-21.7c-6.333-6.333-13.567-11.184-21.7-14.55c-8.167-3.4-16.717-5.1-25.65-5.1
					s-17.483,1.7-25.65,5.1c-8.167,3.367-15.417,8.217-21.75,14.55c-6.333,6.333-11.184,13.566-14.55,21.7S0-76.017,0-67.05
					c0,8.966,1.683,17.517,5.05,25.65c3.367,8.167,8.217,15.417,14.55,21.75C25.933-13.317,33.183-8.467,41.35-5.1
					C49.517-1.7,58.067,0,67,0S84.483-1.7,92.65-5.1z"/>
			</g>
			
				<radialGradient id="SVGID_3_" cx="66.9746" cy="-64.875" r="59.3751" gradientTransform="matrix(1 0 0 -1 0 -129.75)" gradientUnits="userSpaceOnUse">
				<stop  offset="0.0353" style="stop-color:#BB912C"/>
				<stop  offset="0.8275" style="stop-color:#9F662E;stop-opacity:0.8471"/>
			</radialGradient>
			<path style="fill-rule:evenodd;clip-rule:evenodd;fill:url(#SVGID_3_);" d="M126.4-64.9c0-16.367-5.8-30.35-17.4-41.95
				c-11.6-11.566-25.6-17.35-42-17.35c-16.433,0-30.45,5.784-42.05,17.35c-11.6,11.6-17.4,25.583-17.4,41.95
				c0,16.4,5.8,30.383,17.4,41.95C36.55-11.35,50.567-5.55,67-5.55c16.4,0,30.4-5.8,42-17.4C120.6-34.517,126.4-48.5,126.4-64.9z"/>
		</g>
	</g>
</symbol>
<symbol  id="Frames_x2F_frame_08" viewBox="0 -171.35 171.4 171.35">
	<g id="Layer_1_2_">
		<g>
			<path style="fill-rule:evenodd;clip-rule:evenodd;fill:#6B757B;" d="M52.4-6.75C63-2.25,74.1,0,85.7,0
				c11.6,0,22.7-2.25,33.3-6.75c10.267-4.333,19.35-10.466,27.25-18.4c7.934-7.9,14.066-16.983,18.4-27.25
				c4.5-10.6,6.75-21.7,6.75-33.3s-2.25-22.7-6.75-33.3c-4.333-10.233-10.466-19.316-18.4-27.25c-7.9-7.9-16.983-14.017-27.25-18.35
				c-10.6-4.5-21.7-6.75-33.3-6.75c-11.6,0-22.7,2.25-33.3,6.75c-10.267,4.333-19.35,10.45-27.25,18.35
				c-7.933,7.934-14.066,17.017-18.4,27.25C2.25-108.4,0-97.3,0-85.7S2.25-63,6.75-52.4c4.333,10.267,10.467,19.35,18.4,27.25
				C33.05-17.216,42.133-11.083,52.4-6.75z"/>
			
				<linearGradient id="SVGID_4_" gradientUnits="userSpaceOnUse" x1="16047.6709" y1="-84.6533" x2="16219.0205" y2="-84.6533" gradientTransform="matrix(5.836008e-006 1 -1 -0.001 0.9526 -16219.1055)">
				<stop  offset="0" style="stop-color:#A38A14"/>
				<stop  offset="0.5098" style="stop-color:#CEB658"/>
				<stop  offset="0.6941" style="stop-color:#FCFCEF"/>
				<stop  offset="0.8706" style="stop-color:#F0E8B1"/>
			</linearGradient>
			<path style="fill-rule:evenodd;clip-rule:evenodd;fill:url(#SVGID_4_);" d="M52.4-6.75C63-2.25,74.1,0,85.7,0
				c11.6,0,22.7-2.25,33.3-6.75c10.267-4.333,19.35-10.466,27.25-18.4c7.934-7.9,14.066-16.983,18.4-27.25
				c4.5-10.6,6.75-21.7,6.75-33.3s-2.25-22.7-6.75-33.3c-4.333-10.233-10.466-19.316-18.4-27.25c-7.9-7.9-16.983-14.017-27.25-18.35
				c-10.6-4.5-21.7-6.75-33.3-6.75c-11.6,0-22.7,2.25-33.3,6.75c-10.267,4.333-19.35,10.45-27.25,18.35
				c-7.933,7.934-14.066,17.017-18.4,27.25C2.25-108.4,0-97.3,0-85.7S2.25-63,6.75-52.4c4.333,10.267,10.467,19.35,18.4,27.25
				C33.05-17.216,42.133-11.083,52.4-6.75z"/>
			<g>
				<g>
					
						<linearGradient id="SVGID_5_" gradientUnits="userSpaceOnUse" x1="16329.584" y1="-222.7056" x2="16347.8369" y2="-222.7056" gradientTransform="matrix(-0.0172 0.9837 -0.9999 -0.0169 142.6299 -16084.9941)">
						<stop  offset="0.0627" style="stop-color:#D0AB1A"/>
						<stop  offset="0.1333" style="stop-color:#DCBE5E"/>
						<stop  offset="0.2078" style="stop-color:#E9D597"/>
						<stop  offset="0.2706" style="stop-color:#F3E7C4"/>
						<stop  offset="0.3176" style="stop-color:#FBF6E3"/>
						<stop  offset="0.3412" style="stop-color:#FFFEF0"/>
						<stop  offset="0.3882" style="stop-color:#F3ECCE"/>
						<stop  offset="0.451" style="stop-color:#EADFAD"/>
						<stop  offset="0.5137" style="stop-color:#E4D591"/>
						<stop  offset="0.5843" style="stop-color:#DECD7C"/>
						<stop  offset="0.6588" style="stop-color:#DAC76C"/>
						<stop  offset="0.7451" style="stop-color:#D7C45F"/>
						<stop  offset="0.8431" style="stop-color:#D5C158"/>
						<stop  offset="1" style="stop-color:#D5C155"/>
					</linearGradient>
					<path style="fill-rule:evenodd;clip-rule:evenodd;fill:url(#SVGID_5_);" d="M96.3-15.062l-11.7,0.64
						c-1.933,0.131-4.283,0.016-7.05-0.344l-3.6-0.59c-0.3,1.771-0.184,3.607,0.35,5.509c0.533,1.836,1.3,3.247,2.3,4.23
						c1.5,1.476,4.383,2.755,8.65,3.837c4.3,1.115,5.817,1.164,4.55,0.147c-1.233-0.951-1.85-2.131-1.85-3.542
						c0-1.574,0.9-2.788,2.7-3.64c1.6-0.754,3.017-2.017,4.25-3.788C95.533-13.52,96-14.34,96.3-15.062z"/>
					<path style="fill-rule:evenodd;clip-rule:evenodd;fill:none;stroke:#A97B50;stroke-miterlimit:10;" d="M96.3-15.062
						c-0.3,0.722-0.767,1.542-1.4,2.46c-1.233,1.771-2.65,3.034-4.25,3.788c-1.8,0.853-2.7,2.066-2.7,3.64
						c0,1.41,0.617,2.59,1.85,3.542c1.267,1.017-0.25,0.968-4.55-0.147c-4.267-1.082-7.15-2.361-8.65-3.837
						c-1-0.983-1.767-2.394-2.3-4.23c-0.534-1.902-0.65-3.738-0.35-5.509l3.6,0.59c2.767,0.36,5.117,0.476,7.05,0.344L96.3-15.062z"
						/>
					
						<linearGradient id="SVGID_6_" gradientUnits="userSpaceOnUse" x1="16411.6328" y1="-303.6274" x2="16427.1641" y2="-303.6274" gradientTransform="matrix(-0.0274 0.9835 -0.9996 -0.0269 227.2051 -16164.5674)">
						<stop  offset="0.0157" style="stop-color:#8A6315"/>
						<stop  offset="0.051" style="stop-color:#8D6715"/>
						<stop  offset="0.2549" style="stop-color:#A07A12"/>
						<stop  offset="0.4706" style="stop-color:#AF890E"/>
						<stop  offset="0.7059" style="stop-color:#B99309"/>
						<stop  offset="1" style="stop-color:#BD9606"/>
					</linearGradient>
					<path style="fill-rule:evenodd;clip-rule:evenodd;fill:url(#SVGID_6_);" d="M83.9-2.223c3.333,1.083,5.333,1.443,6,1.083
						l-4.25-1.279c-1.066-0.295-2.183-0.754-3.35-1.377c-2.3-1.279-3.633-2.722-4-4.329c-0.333-1.508,0.117-3.017,1.35-4.525
						c0.633-0.754,1.284-1.344,1.95-1.771l-8.65-0.935c-0.467,3.116,0.75,6.214,3.65,9.297C77.867-4.682,80.3-3.403,83.9-2.223z"/>
					<path style="fill-rule:evenodd;clip-rule:evenodd;fill:none;stroke:#A97B50;stroke-miterlimit:10;" d="M83.9-2.223
						c-3.6-1.18-6.033-2.459-7.3-3.837c-2.9-3.083-4.117-6.181-3.65-9.297l8.65,0.935c-0.667,0.427-1.317,1.017-1.95,1.771
						c-1.233,1.509-1.683,3.017-1.35,4.525c0.367,1.607,1.7,3.05,4,4.329c1.167,0.623,2.283,1.082,3.35,1.377L89.9-1.14
						C89.233-0.779,87.233-1.14,83.9-2.223z"/>
				</g>
				<g>
					
						<linearGradient id="SVGID_7_" gradientUnits="userSpaceOnUse" x1="10097.3438" y1="3075.7686" x2="10116.2314" y2="3075.7686" gradientTransform="matrix(0.5768 0.8037 -0.8169 0.5674 -3188.9932 -9889.9814)">
						<stop  offset="0.0627" style="stop-color:#D0AB1A"/>
						<stop  offset="0.1333" style="stop-color:#DCBE5E"/>
						<stop  offset="0.2078" style="stop-color:#E9D597"/>
						<stop  offset="0.2706" style="stop-color:#F3E7C4"/>
						<stop  offset="0.3176" style="stop-color:#FBF6E3"/>
						<stop  offset="0.3412" style="stop-color:#FFFEF0"/>
						<stop  offset="0.3882" style="stop-color:#F3ECCE"/>
						<stop  offset="0.451" style="stop-color:#EADFAD"/>
						<stop  offset="0.5137" style="stop-color:#E4D591"/>
						<stop  offset="0.5843" style="stop-color:#DECD7C"/>
						<stop  offset="0.6588" style="stop-color:#DAC76C"/>
						<stop  offset="0.7451" style="stop-color:#D7C45F"/>
						<stop  offset="0.8431" style="stop-color:#D5C158"/>
						<stop  offset="1" style="stop-color:#D5C155"/>
					</linearGradient>
					<path style="fill-rule:evenodd;clip-rule:evenodd;fill:url(#SVGID_7_);" d="M133.25-33.459l-9,7.33
						c-1.5,1.213-3.483,2.476-5.95,3.788l-3.25,1.623c0.867,1.64,2.117,3.099,3.75,4.378c1.533,1.213,3.017,1.934,4.45,2.164
						c2.1,0.361,5.217-0.23,9.35-1.771c4.167-1.574,5.417-2.411,3.75-2.509c-1.567-0.098-2.783-0.738-3.65-1.918
						c-0.967-1.312-1-2.836-0.1-4.575c0.8-1.574,1.15-3.46,1.05-5.657C133.617-31.721,133.483-32.672,133.25-33.459z"/>
					<path style="fill-rule:evenodd;clip-rule:evenodd;fill:none;stroke:#A97B50;stroke-miterlimit:10;" d="M133.25-33.459
						c0.233,0.787,0.367,1.738,0.4,2.854c0.1,2.197-0.25,4.083-1.05,5.657c-0.9,1.738-0.867,3.263,0.1,4.575
						c0.867,1.181,2.083,1.82,3.65,1.918c1.667,0.098,0.417,0.935-3.75,2.509c-4.133,1.541-7.25,2.132-9.35,1.771
						c-1.433-0.23-2.917-0.951-4.45-2.164c-1.633-1.279-2.883-2.739-3.75-4.378l3.25-1.623c2.466-1.312,4.45-2.575,5.95-3.788
						L133.25-33.459z"/>
					
						<linearGradient id="SVGID_8_" gradientUnits="userSpaceOnUse" x1="10220.1338" y1="3056.998" x2="10236.2012" y2="3056.998" gradientTransform="matrix(0.5679 0.8098 -0.8231 0.5587 -3167.2891 -10009.9912)">
						<stop  offset="0.0157" style="stop-color:#8A6315"/>
						<stop  offset="0.051" style="stop-color:#8D6715"/>
						<stop  offset="0.2549" style="stop-color:#A07A12"/>
						<stop  offset="0.4706" style="stop-color:#AF890E"/>
						<stop  offset="0.7059" style="stop-color:#B99309"/>
						<stop  offset="1" style="stop-color:#BD9606"/>
					</linearGradient>
					<path style="fill-rule:evenodd;clip-rule:evenodd;fill:url(#SVGID_8_);" d="M123-14.521c1.867,0.394,4.6,0.033,8.2-1.082
						c3.367-1.017,5.217-1.87,5.55-2.558l-4.25,1.426c-1.066,0.361-2.25,0.623-3.55,0.787c-2.633,0.295-4.6-0.131-5.9-1.279
						c-1.2-1.082-1.767-2.607-1.7-4.575c0.033-0.983,0.183-1.853,0.45-2.607l-7.55,4.23C115.783-17.291,118.7-15.406,123-14.521z"/>
					<path style="fill-rule:evenodd;clip-rule:evenodd;fill:none;stroke:#A97B50;stroke-miterlimit:10;" d="M123-14.521
						c-4.3-0.885-7.217-2.771-8.75-5.657l7.55-4.23c-0.267,0.754-0.417,1.624-0.45,2.607c-0.067,1.968,0.5,3.493,1.7,4.575
						c1.3,1.148,3.267,1.574,5.9,1.279c1.3-0.164,2.483-0.426,3.55-0.787l4.25-1.426c-0.333,0.688-2.183,1.541-5.55,2.558
						C127.6-14.487,124.867-14.126,123-14.521z"/>
				</g>
				<g>
					
						<linearGradient id="SVGID_9_" gradientUnits="userSpaceOnUse" x1="4905.375" y1="2754.7441" x2="4924.2441" y2="2754.7441" gradientTransform="matrix(0.8808 0.4659 -0.4735 0.8665 -2870.2568 -4727.7729)">
						<stop  offset="0.0627" style="stop-color:#D0AB1A"/>
						<stop  offset="0.1333" style="stop-color:#DCBE5E"/>
						<stop  offset="0.2078" style="stop-color:#E9D597"/>
						<stop  offset="0.2706" style="stop-color:#F3E7C4"/>
						<stop  offset="0.3176" style="stop-color:#FBF6E3"/>
						<stop  offset="0.3412" style="stop-color:#FFFEF0"/>
						<stop  offset="0.3882" style="stop-color:#F3ECCE"/>
						<stop  offset="0.451" style="stop-color:#EADFAD"/>
						<stop  offset="0.5137" style="stop-color:#E4D591"/>
						<stop  offset="0.5843" style="stop-color:#DECD7C"/>
						<stop  offset="0.6588" style="stop-color:#DAC76C"/>
						<stop  offset="0.7451" style="stop-color:#D7C45F"/>
						<stop  offset="0.8431" style="stop-color:#D5C158"/>
						<stop  offset="1" style="stop-color:#D5C155"/>
					</linearGradient>
					<path style="fill-rule:evenodd;clip-rule:evenodd;fill:url(#SVGID_9_);" d="M145.4-47.183l-2.2,2.853
						c1.5,1.115,3.267,1.885,5.3,2.312c1.967,0.394,3.633,0.377,5-0.049c2.067-0.623,4.583-2.525,7.55-5.706
						c3.033-3.214,3.783-4.509,2.25-3.886c-1.467,0.623-2.85,0.59-4.15-0.098c-1.466-0.755-2.183-2.116-2.15-4.083
						c0-1.771-0.55-3.607-1.65-5.509l-1.65-2.361l-4.75,10.527C148.184-51.446,147-49.446,145.4-47.183z"/>
					<path style="fill-rule:evenodd;clip-rule:evenodd;fill:none;stroke:#A97B50;stroke-miterlimit:10;" d="M145.4-47.183
						c1.6-2.263,2.784-4.263,3.55-6.001l4.75-10.527l1.65,2.361c1.1,1.902,1.65,3.738,1.65,5.509
						c-0.033,1.967,0.684,3.328,2.15,4.083c1.3,0.688,2.684,0.721,4.15,0.098c1.533-0.623,0.783,0.672-2.25,3.886
						c-2.967,3.181-5.483,5.083-7.55,5.706c-1.367,0.426-3.033,0.443-5,0.049c-2.033-0.427-3.8-1.197-5.3-2.312L145.4-47.183z"/>
					
						<linearGradient id="SVGID_10_" gradientUnits="userSpaceOnUse" x1="5016.2158" y1="2789.6367" x2="5032.2832" y2="2789.6367" gradientTransform="matrix(0.876 0.4745 -0.4823 0.8618 -2902.7305 -4836.0098)">
						<stop  offset="0.0157" style="stop-color:#8A6315"/>
						<stop  offset="0.051" style="stop-color:#8D6715"/>
						<stop  offset="0.2549" style="stop-color:#A07A12"/>
						<stop  offset="0.4706" style="stop-color:#AF890E"/>
						<stop  offset="0.7059" style="stop-color:#B99309"/>
						<stop  offset="1" style="stop-color:#BD9606"/>
					</linearGradient>
					<path style="fill-rule:evenodd;clip-rule:evenodd;fill:url(#SVGID_10_);" d="M151.95-44.724
						c-1.567-0.426-2.767-1.525-3.6-3.296c-0.4-0.918-0.65-1.771-0.75-2.558l-4.85,7.133c2.633,1.869,6.083,2.279,10.35,1.23
						c1.867-0.459,4.167-1.984,6.9-4.575c2.533-2.427,3.8-4.018,3.8-4.772l-3.15,3.099c-0.767,0.82-1.716,1.591-2.85,2.312
						C155.6-44.74,153.65-44.264,151.95-44.724z"/>
					<path style="fill-rule:evenodd;clip-rule:evenodd;fill:none;stroke:#A97B50;stroke-miterlimit:10;" d="M151.95-44.724
						c1.7,0.459,3.65-0.016,5.85-1.427c1.133-0.721,2.083-1.492,2.85-2.312l3.15-3.099c0,0.754-1.267,2.345-3.8,4.772
						c-2.733,2.591-5.033,4.115-6.9,4.575c-4.267,1.049-7.717,0.639-10.35-1.23l4.85-7.133c0.1,0.788,0.35,1.64,0.75,2.558
						C149.184-46.249,150.383-45.15,151.95-44.724z"/>
				</g>
				<g>
					
						<linearGradient id="SVGID_11_" gradientUnits="userSpaceOnUse" x1="-730.9209" y1="-1084.5654" x2="-713.8007" y2="-1084.5654" gradientTransform="matrix(0.9931 -0.1153 0.1171 0.9771 1006.6357 878.7773)">
						<stop  offset="0.0627" style="stop-color:#D0AB1A"/>
						<stop  offset="0.1333" style="stop-color:#DCBE5E"/>
						<stop  offset="0.2078" style="stop-color:#E9D597"/>
						<stop  offset="0.2706" style="stop-color:#F3E7C4"/>
						<stop  offset="0.3176" style="stop-color:#FBF6E3"/>
						<stop  offset="0.3412" style="stop-color:#FFFEF0"/>
						<stop  offset="0.3882" style="stop-color:#F3ECCE"/>
						<stop  offset="0.451" style="stop-color:#EADFAD"/>
						<stop  offset="0.5137" style="stop-color:#E4D591"/>
						<stop  offset="0.5843" style="stop-color:#DECD7C"/>
						<stop  offset="0.6588" style="stop-color:#DAC76C"/>
						<stop  offset="0.7451" style="stop-color:#D7C45F"/>
						<stop  offset="0.8431" style="stop-color:#D5C158"/>
						<stop  offset="1" style="stop-color:#D5C155"/>
					</linearGradient>
					<path style="fill-rule:evenodd;clip-rule:evenodd;fill:url(#SVGID_11_);" d="M169.05-98.981c0.533-4.362,0.4-5.854-0.4-4.477
						c-0.733,1.312-1.75,2.066-3.05,2.263c-1.467,0.196-2.717-0.509-3.75-2.116c-0.9-1.443-2.25-2.656-4.05-3.64l-2.45-0.984
						l2,11.265c0.367,1.87,0.533,4.181,0.5,6.937l-0.1,3.591c1.7,0.033,3.4-0.345,5.1-1.131c1.633-0.754,2.85-1.689,3.65-2.804
						C167.7-91.718,168.55-94.686,169.05-98.981z"/>
					<path style="fill-rule:evenodd;clip-rule:evenodd;fill:none;stroke:#A97B50;stroke-miterlimit:10;" d="M169.05-98.981
						c-0.5,4.296-1.35,7.264-2.55,8.903c-0.8,1.115-2.017,2.05-3.65,2.804c-1.7,0.787-3.4,1.164-5.1,1.131l0.1-3.591
						c0.033-2.755-0.133-5.067-0.5-6.937l-2-11.265l2.45,0.984c1.8,0.984,3.15,2.197,4.05,3.64c1.033,1.607,2.283,2.312,3.75,2.116
						c1.3-0.197,2.317-0.951,3.05-2.263C169.45-104.835,169.583-103.343,169.05-98.981z"/>
					
						<linearGradient id="SVGID_12_" gradientUnits="userSpaceOnUse" x1="-650.5596" y1="-983.5176" x2="-635.9521" y2="-983.5176" gradientTransform="matrix(0.9944 -0.1044 0.1061 0.9783 907.1362 800.6484)">
						<stop  offset="0.0157" style="stop-color:#8A6315"/>
						<stop  offset="0.051" style="stop-color:#8D6715"/>
						<stop  offset="0.2549" style="stop-color:#A07A12"/>
						<stop  offset="0.4706" style="stop-color:#AF890E"/>
						<stop  offset="0.7059" style="stop-color:#B99309"/>
						<stop  offset="1" style="stop-color:#BD9606"/>
					</linearGradient>
					<path style="fill-rule:evenodd;clip-rule:evenodd;fill:url(#SVGID_12_);" d="M166.1-90.029c1.133-1.443,2.033-3.984,2.7-7.625
						c0.6-3.377,0.683-5.378,0.25-6.001l-0.65,4.329c-0.133,1.082-0.433,2.23-0.9,3.443c-0.867,2.394-2.033,3.886-3.5,4.476
						c-1.4,0.558-2.867,0.344-4.4-0.64l-1.85-1.672l0.15,8.56C160.833-85.126,163.567-86.75,166.1-90.029z"/>
					<path style="fill-rule:evenodd;clip-rule:evenodd;fill:none;stroke:#A97B50;stroke-miterlimit:10;" d="M166.1-90.029
						c-2.533,3.279-5.267,4.903-8.2,4.87l-0.15-8.56l1.85,1.672c1.533,0.984,3,1.197,4.4,0.64c1.467-0.59,2.633-2.083,3.5-4.476
						c0.467-1.213,0.767-2.361,0.9-3.443l0.65-4.329c0.433,0.623,0.35,2.624-0.25,6.001C168.133-94.013,167.233-91.472,166.1-90.029
						z"/>
				</g>
				<g>
					
						<linearGradient id="SVGID_13_" gradientUnits="userSpaceOnUse" x1="-3110.5547" y1="-6962.7134" x2="-3091.8635" y2="-6962.7134" gradientTransform="matrix(0.7749 -0.6218 0.632 0.7624 6948.3247 3245.25)">
						<stop  offset="0.0627" style="stop-color:#D0AB1A"/>
						<stop  offset="0.1333" style="stop-color:#DCBE5E"/>
						<stop  offset="0.2078" style="stop-color:#E9D597"/>
						<stop  offset="0.2706" style="stop-color:#F3E7C4"/>
						<stop  offset="0.3176" style="stop-color:#FBF6E3"/>
						<stop  offset="0.3412" style="stop-color:#FFFEF0"/>
						<stop  offset="0.3882" style="stop-color:#F3ECCE"/>
						<stop  offset="0.451" style="stop-color:#EADFAD"/>
						<stop  offset="0.5137" style="stop-color:#E4D591"/>
						<stop  offset="0.5843" style="stop-color:#DECD7C"/>
						<stop  offset="0.6588" style="stop-color:#DAC76C"/>
						<stop  offset="0.7451" style="stop-color:#D7C45F"/>
						<stop  offset="0.8431" style="stop-color:#D5C158"/>
						<stop  offset="1" style="stop-color:#D5C155"/>
					</linearGradient>
					<path style="fill-rule:evenodd;clip-rule:evenodd;fill:url(#SVGID_13_);" d="M133.7-139.761l7.1,8.363
						c1.9,2.197,3.716,5.066,5.45,8.608c1.434-0.951,2.667-2.263,3.7-3.936c1-1.607,1.566-3.115,1.7-4.525
						c0.2-2.132-0.533-5.149-2.2-9.051c-1.667-3.968-2.5-5.148-2.5-3.542c0.033,1.541-0.45,2.787-1.45,3.738
						c-1.133,1.049-2.517,1.181-4.15,0.393c-1.467-0.688-3.183-0.901-5.15-0.639L133.7-139.761z"/>
					<path style="fill-rule:evenodd;clip-rule:evenodd;fill:none;stroke:#A97B50;stroke-miterlimit:10;" d="M133.7-139.761l2.5-0.59
						c1.967-0.262,3.683-0.049,5.15,0.639c1.633,0.788,3.017,0.656,4.15-0.393c1-0.951,1.483-2.197,1.45-3.738
						c0-1.607,0.833-0.427,2.5,3.542c1.667,3.902,2.4,6.919,2.2,9.051c-0.133,1.41-0.7,2.918-1.7,4.525
						c-1.033,1.673-2.267,2.984-3.7,3.936c-1.733-3.542-3.55-6.411-5.45-8.608L133.7-139.761z"/>
					
						<linearGradient id="SVGID_14_" gradientUnits="userSpaceOnUse" x1="-3095.8154" y1="-6840.3994" x2="-3079.8232" y2="-6840.3994" gradientTransform="matrix(0.7816 -0.6137 0.6237 0.769 6826.8745 3232.4629)">
						<stop  offset="0.0157" style="stop-color:#8A6315"/>
						<stop  offset="0.051" style="stop-color:#8D6715"/>
						<stop  offset="0.2549" style="stop-color:#A07A12"/>
						<stop  offset="0.4706" style="stop-color:#AF890E"/>
						<stop  offset="0.7059" style="stop-color:#B99309"/>
						<stop  offset="1" style="stop-color:#BD9606"/>
					</linearGradient>
					<path style="fill-rule:evenodd;clip-rule:evenodd;fill:url(#SVGID_14_);" d="M147.2-144.237l1.55,4.033
						c0.4,1.017,0.717,2.165,0.95,3.443c0.433,2.558,0.167,4.509-0.8,5.854c-0.9,1.279-2.233,1.951-4,2.017l-2.35-0.295l4.25,7.182
						c2.5-1.738,4.017-4.738,4.55-9.002c0.267-1.869-0.217-4.542-1.45-8.018C148.733-142.237,147.833-143.975,147.2-144.237z"/>
					<path style="fill-rule:evenodd;clip-rule:evenodd;fill:none;stroke:#A97B50;stroke-miterlimit:10;" d="M147.2-144.237
						c0.633,0.262,1.533,2,2.7,5.214c1.233,3.476,1.717,6.149,1.45,8.018c-0.533,4.264-2.05,7.264-4.55,9.002l-4.25-7.182
						l2.35,0.295c1.767-0.065,3.1-0.738,4-2.017c0.967-1.345,1.233-3.296,0.8-5.854c-0.233-1.279-0.55-2.426-0.95-3.443
						L147.2-144.237z"/>
				</g>
				<g>
					
						<linearGradient id="SVGID_15_" gradientUnits="userSpaceOnUse" x1="-1796.0781" y1="-13510.1328" x2="-1778.011" y2="-13510.1328" gradientTransform="matrix(0.2847 -0.9431 0.9586 0.2801 13568.6641 1940.8408)">
						<stop  offset="0.0627" style="stop-color:#D0AB1A"/>
						<stop  offset="0.1333" style="stop-color:#DCBE5E"/>
						<stop  offset="0.2078" style="stop-color:#E9D597"/>
						<stop  offset="0.2706" style="stop-color:#F3E7C4"/>
						<stop  offset="0.3176" style="stop-color:#FBF6E3"/>
						<stop  offset="0.3412" style="stop-color:#FFFEF0"/>
						<stop  offset="0.3882" style="stop-color:#F3ECCE"/>
						<stop  offset="0.451" style="stop-color:#EADFAD"/>
						<stop  offset="0.5137" style="stop-color:#E4D591"/>
						<stop  offset="0.5843" style="stop-color:#DECD7C"/>
						<stop  offset="0.6588" style="stop-color:#DAC76C"/>
						<stop  offset="0.7451" style="stop-color:#D7C45F"/>
						<stop  offset="0.8431" style="stop-color:#D5C158"/>
						<stop  offset="1" style="stop-color:#D5C155"/>
					</linearGradient>
					<path style="fill-rule:evenodd;clip-rule:evenodd;fill:url(#SVGID_15_);" d="M107.3-163.176
						c-0.467,1.476-1.684,2.394-3.65,2.755c-1.733,0.328-3.45,1.164-5.15,2.508l-2,1.968l11.4,2.361
						c3.034,0.59,6.367,1.771,10,3.542c0.8-1.607,1.2-3.377,1.2-5.313c0-1.836-0.333-3.345-1-4.526
						c-1.033-1.771-3.433-3.706-7.2-5.804c-3.833-2.131-5.283-2.558-4.35-1.279C107.45-165.784,107.7-164.521,107.3-163.176z"/>
					<path style="fill-rule:evenodd;clip-rule:evenodd;fill:none;stroke:#A97B50;stroke-miterlimit:10;" d="M107.3-163.176
						c0.4-1.344,0.15-2.607-0.75-3.788c-0.934-1.279,0.517-0.853,4.35,1.279c3.767,2.099,6.167,4.034,7.2,5.804
						c0.667,1.181,1,2.689,1,4.526c0,1.935-0.4,3.706-1.2,5.313c-3.633-1.771-6.966-2.951-10-3.542l-11.4-2.361l2-1.968
						c1.7-1.345,3.417-2.18,5.15-2.508C105.617-160.782,106.833-161.7,107.3-163.176z"/>
					
						<linearGradient id="SVGID_16_" gradientUnits="userSpaceOnUse" x1="-1849.2588" y1="-13403.6729" x2="-1834.2421" y2="-13403.6729" gradientTransform="matrix(0.2947 -0.9401 0.9556 0.2899 13463.877 1996.0156)">
						<stop  offset="0.0157" style="stop-color:#8A6315"/>
						<stop  offset="0.051" style="stop-color:#8D6715"/>
						<stop  offset="0.2549" style="stop-color:#A07A12"/>
						<stop  offset="0.4706" style="stop-color:#AF890E"/>
						<stop  offset="0.7059" style="stop-color:#B99309"/>
						<stop  offset="1" style="stop-color:#BD9606"/>
					</linearGradient>
					<path style="fill-rule:evenodd;clip-rule:evenodd;fill:url(#SVGID_16_);" d="M115.75-157.962c-0.1,1.508-0.95,2.82-2.55,3.935
						l-2.4,1.181l8.05,3.049c1.333-2.754,1.05-5.985-0.85-9.69c-0.867-1.607-2.85-3.411-5.95-5.411c-2.9-1.87-4.733-2.722-5.5-2.558
						l3.75,2.312c0.966,0.557,1.917,1.262,2.85,2.115C115.017-161.258,115.883-159.569,115.75-157.962z"/>
					<path style="fill-rule:evenodd;clip-rule:evenodd;fill:none;stroke:#A97B50;stroke-miterlimit:10;" d="M115.75-157.962
						c0.133-1.607-0.733-3.296-2.6-5.067c-0.933-0.853-1.883-1.558-2.85-2.115l-3.75-2.312c0.767-0.165,2.6,0.688,5.5,2.558
						c3.1,2,5.083,3.804,5.95,5.411c1.9,3.706,2.184,6.936,0.85,9.69l-8.05-3.049l2.4-1.181
						C114.8-155.142,115.65-156.454,115.75-157.962z"/>
				</g>
				<g>
					
						<linearGradient id="SVGID_17_" gradientUnits="userSpaceOnUse" x1="2357.7656" y1="-17844.4473" x2="2375.8406" y2="-17844.4473" gradientTransform="matrix(-0.2442 -0.954 0.9697 -0.2403 17946.4844 -2188.2847)">
						<stop  offset="0.0627" style="stop-color:#D0AB1A"/>
						<stop  offset="0.1333" style="stop-color:#DCBE5E"/>
						<stop  offset="0.2078" style="stop-color:#E9D597"/>
						<stop  offset="0.2706" style="stop-color:#F3E7C4"/>
						<stop  offset="0.3176" style="stop-color:#FBF6E3"/>
						<stop  offset="0.3412" style="stop-color:#FFFEF0"/>
						<stop  offset="0.3882" style="stop-color:#F3ECCE"/>
						<stop  offset="0.451" style="stop-color:#EADFAD"/>
						<stop  offset="0.5137" style="stop-color:#E4D591"/>
						<stop  offset="0.5843" style="stop-color:#DECD7C"/>
						<stop  offset="0.6588" style="stop-color:#DAC76C"/>
						<stop  offset="0.7451" style="stop-color:#D7C45F"/>
						<stop  offset="0.8431" style="stop-color:#D5C158"/>
						<stop  offset="1" style="stop-color:#D5C155"/>
					</linearGradient>
					<path style="fill-rule:evenodd;clip-rule:evenodd;fill:url(#SVGID_17_);" d="M74.7-161.012c-1-1.574-2.117-2.706-3.35-3.394
						c-1.867-1.017-5-1.525-9.4-1.525c-4.467,0-5.95,0.312-4.45,0.935c1.467,0.59,2.383,1.541,2.75,2.853
						c0.434,1.476-0.1,2.836-1.6,4.083c-1.333,1.115-2.35,2.657-3.05,4.624l-0.7,2.607l11.1-3.395
						c2.967-0.918,6.483-1.492,10.55-1.722C76.35-157.684,75.733-159.372,74.7-161.012z"/>
					<path style="fill-rule:evenodd;clip-rule:evenodd;fill:none;stroke:#A97B50;stroke-miterlimit:10;" d="M74.7-161.012
						c1.033,1.64,1.65,3.328,1.85,5.066c-4.067,0.229-7.583,0.804-10.55,1.722l-11.1,3.395l0.7-2.607
						c0.7-1.967,1.717-3.509,3.05-4.624c1.5-1.246,2.034-2.607,1.6-4.083c-0.367-1.312-1.283-2.263-2.75-2.853
						c-1.5-0.623-0.017-0.935,4.45-0.935c4.4,0,7.533,0.508,9.4,1.525C72.583-163.717,73.7-162.586,74.7-161.012z"/>
					
						<linearGradient id="SVGID_18_" gradientUnits="userSpaceOnUse" x1="2251.3838" y1="-17776.3984" x2="2266.8098" y2="-17776.3984" gradientTransform="matrix(-0.2334 -0.9567 0.9724 -0.2296 17880.2676 -2080.6685)">
						<stop  offset="0.0157" style="stop-color:#8A6315"/>
						<stop  offset="0.051" style="stop-color:#8D6715"/>
						<stop  offset="0.2549" style="stop-color:#A07A12"/>
						<stop  offset="0.4706" style="stop-color:#AF890E"/>
						<stop  offset="0.7059" style="stop-color:#B99309"/>
						<stop  offset="1" style="stop-color:#BD9606"/>
					</linearGradient>
					<path style="fill-rule:evenodd;clip-rule:evenodd;fill:url(#SVGID_18_);" d="M65.35-164.75c2.567,0.623,4.233,1.656,5,3.099
						c0.767,1.345,0.75,2.869-0.05,4.575l-1.4,2.115l8.65-1.23c-0.4-3.017-2.434-5.624-6.1-7.821c-1.6-0.984-4.283-1.591-8.05-1.82
						c-3.533-0.197-5.583-0.049-6.15,0.443L65.35-164.75z"/>
					<path style="fill-rule:evenodd;clip-rule:evenodd;fill:none;stroke:#A97B50;stroke-miterlimit:10;" d="M65.35-164.75
						l-8.1-0.639c0.567-0.492,2.617-0.64,6.15-0.443c3.767,0.229,6.45,0.836,8.05,1.82c3.667,2.197,5.7,4.804,6.1,7.821l-8.65,1.23
						l1.4-2.115c0.8-1.706,0.816-3.23,0.05-4.575C69.583-163.094,67.917-164.127,65.35-164.75z"/>
				</g>
				<g>
					
						<linearGradient id="SVGID_19_" gradientUnits="userSpaceOnUse" x1="8769.0732" y1="-19429.0332" x2="8787.3955" y2="-19429.0332" gradientTransform="matrix(-0.7431 -0.6584 0.6692 -0.7311 19554.6289 -8563.1338)">
						<stop  offset="0.0627" style="stop-color:#D0AB1A"/>
						<stop  offset="0.1333" style="stop-color:#DCBE5E"/>
						<stop  offset="0.2078" style="stop-color:#E9D597"/>
						<stop  offset="0.2706" style="stop-color:#F3E7C4"/>
						<stop  offset="0.3176" style="stop-color:#FBF6E3"/>
						<stop  offset="0.3412" style="stop-color:#FFFEF0"/>
						<stop  offset="0.3882" style="stop-color:#F3ECCE"/>
						<stop  offset="0.451" style="stop-color:#EADFAD"/>
						<stop  offset="0.5137" style="stop-color:#E4D591"/>
						<stop  offset="0.5843" style="stop-color:#DECD7C"/>
						<stop  offset="0.6588" style="stop-color:#DAC76C"/>
						<stop  offset="0.7451" style="stop-color:#D7C45F"/>
						<stop  offset="0.8431" style="stop-color:#D5C158"/>
						<stop  offset="1" style="stop-color:#D5C155"/>
					</linearGradient>
					<path style="fill-rule:evenodd;clip-rule:evenodd;fill:url(#SVGID_19_);" d="M27.3-126.283l6.5-9.1
						c1.733-2.427,4.1-4.854,7.1-7.281c-1.133-1.443-2.55-2.607-4.25-3.493c-1.6-0.82-3.066-1.197-4.4-1.131
						c-1.933,0.099-4.566,1.361-7.9,3.788c-3.4,2.426-4.35,3.509-2.85,3.247c1.4-0.263,2.6,0.082,3.6,1.033
						c1.133,1.082,1.483,2.574,1.05,4.477c-0.4,1.706-0.333,3.624,0.2,5.755L27.3-126.283z"/>
					<path style="fill-rule:evenodd;clip-rule:evenodd;fill:none;stroke:#A97B50;stroke-miterlimit:10;" d="M27.3-126.283
						l-0.95-2.706c-0.533-2.132-0.6-4.05-0.2-5.755c0.434-1.902,0.083-3.395-1.05-4.477c-1-0.951-2.2-1.295-3.6-1.033
						c-1.5,0.262-0.55-0.82,2.85-3.247c3.333-2.427,5.967-3.689,7.9-3.788c1.333-0.065,2.8,0.312,4.4,1.131
						c1.7,0.886,3.117,2.05,4.25,3.493c-3,2.427-5.367,4.854-7.1,7.281L27.3-126.283z"/>
					
						<linearGradient id="SVGID_20_" gradientUnits="userSpaceOnUse" x1="8649.3281" y1="-19431.9805" x2="8663.8359" y2="-19431.9805" gradientTransform="matrix(-0.7358 -0.6663 0.6772 -0.7239 19560.4453 -8440.9639)">
						<stop  offset="0.0157" style="stop-color:#8A6315"/>
						<stop  offset="0.051" style="stop-color:#8D6715"/>
						<stop  offset="0.2549" style="stop-color:#A07A12"/>
						<stop  offset="0.4706" style="stop-color:#AF890E"/>
						<stop  offset="0.7059" style="stop-color:#B99309"/>
						<stop  offset="1" style="stop-color:#BD9606"/>
					</linearGradient>
					<path style="fill-rule:evenodd;clip-rule:evenodd;fill:url(#SVGID_20_);" d="M33.05-144.336c1.3,0.787,2.117,2.131,2.45,4.034
						l0.1,2.656l5.9-5.755c-1.933-2.427-4.917-3.64-8.95-3.64c-1.733,0.033-4.1,0.984-7.1,2.853c-2.767,1.738-4.233,2.984-4.4,3.738
						l3.5-2.312l3-1.525C29.817-145.172,31.65-145.188,33.05-144.336z"/>
					<path style="fill-rule:evenodd;clip-rule:evenodd;fill:none;stroke:#A97B50;stroke-miterlimit:10;" d="M33.05-144.336
						c-1.4-0.853-3.233-0.836-5.5,0.049l-3,1.525l-3.5,2.312c0.167-0.754,1.633-2,4.4-3.738c3-1.869,5.367-2.82,7.1-2.853
						c4.033,0,7.017,1.213,8.95,3.64l-5.9,5.755l-0.1-2.656C35.167-142.205,34.35-143.549,33.05-144.336z"/>
				</g>
				<g>
					
						<linearGradient id="SVGID_21_" gradientUnits="userSpaceOnUse" x1="13318.4248" y1="-18218.0059" x2="13336.2998" y2="-18218.0059" gradientTransform="matrix(-0.9508 -0.3047 0.3097 -0.9355 18324.8652 -13086.626)">
						<stop  offset="0.0627" style="stop-color:#D0AB1A"/>
						<stop  offset="0.1333" style="stop-color:#DCBE5E"/>
						<stop  offset="0.2078" style="stop-color:#E9D597"/>
						<stop  offset="0.2706" style="stop-color:#F3E7C4"/>
						<stop  offset="0.3176" style="stop-color:#FBF6E3"/>
						<stop  offset="0.3412" style="stop-color:#FFFEF0"/>
						<stop  offset="0.3882" style="stop-color:#F3ECCE"/>
						<stop  offset="0.451" style="stop-color:#EADFAD"/>
						<stop  offset="0.5137" style="stop-color:#E4D591"/>
						<stop  offset="0.5843" style="stop-color:#DECD7C"/>
						<stop  offset="0.6588" style="stop-color:#DAC76C"/>
						<stop  offset="0.7451" style="stop-color:#D7C45F"/>
						<stop  offset="0.8431" style="stop-color:#D5C158"/>
						<stop  offset="1" style="stop-color:#D5C155"/>
					</linearGradient>
					<path style="fill-rule:evenodd;clip-rule:evenodd;fill:url(#SVGID_21_);" d="M11.25-94.702l1.9,2.017l2.55-11.167
						c0.7-2.984,1.967-6.231,3.8-9.74c-1.6-0.82-3.35-1.263-5.25-1.328c-1.867-0.066-3.383,0.229-4.55,0.885
						c-1.767,0.951-3.75,3.263-5.95,6.936c-2.233,3.706-2.7,5.116-1.4,4.23c1.2-0.853,2.467-1.066,3.8-0.64
						c1.467,0.492,2.35,1.706,2.65,3.64C9.1-98.129,9.917-96.407,11.25-94.702z"/>
					<path style="fill-rule:evenodd;clip-rule:evenodd;fill:none;stroke:#A97B50;stroke-miterlimit:10;" d="M11.25-94.702
						c-1.333-1.705-2.15-3.427-2.45-5.165c-0.3-1.935-1.184-3.148-2.65-3.64c-1.333-0.426-2.6-0.213-3.8,0.64
						c-1.3,0.885-0.833-0.524,1.4-4.23c2.2-3.673,4.184-5.985,5.95-6.936c1.167-0.656,2.683-0.951,4.55-0.885
						c1.9,0.065,3.65,0.508,5.25,1.328c-1.833,3.509-3.1,6.755-3.8,9.74l-2.55,11.167L11.25-94.702z"/>
					
						<linearGradient id="SVGID_22_" gradientUnits="userSpaceOnUse" x1="13212.8555" y1="-18269.4297" x2="13227.5527" y2="-18269.4297" gradientTransform="matrix(-0.9475 -0.3146 0.3198 -0.9322 18379.6289 -12979.2686)">
						<stop  offset="0.0157" style="stop-color:#8A6315"/>
						<stop  offset="0.051" style="stop-color:#8D6715"/>
						<stop  offset="0.2549" style="stop-color:#A07A12"/>
						<stop  offset="0.4706" style="stop-color:#AF890E"/>
						<stop  offset="0.7059" style="stop-color:#B99309"/>
						<stop  offset="1" style="stop-color:#BD9606"/>
					</linearGradient>
					<path style="fill-rule:evenodd;clip-rule:evenodd;fill:url(#SVGID_22_);" d="M15.4-109.017l1.15,2.361l3.25-7.871
						c-2.767-1.377-6.017-1.18-9.75,0.591c-1.6,0.82-3.434,2.722-5.5,5.706c-1.934,2.82-2.833,4.608-2.7,5.362l4.6-6.395
						c1.767-1.771,3.467-2.574,5.1-2.411C13.083-111.542,14.367-110.656,15.4-109.017z"/>
					<path style="fill-rule:evenodd;clip-rule:evenodd;fill:none;stroke:#A97B50;stroke-miterlimit:10;" d="M15.4-109.017
						c-1.033-1.64-2.316-2.525-3.85-2.657c-1.633-0.164-3.333,0.64-5.1,2.411l-4.6,6.395c-0.133-0.754,0.767-2.542,2.7-5.362
						c2.066-2.984,3.9-4.886,5.5-5.706c3.733-1.771,6.983-1.968,9.75-0.591l-3.25,7.871L15.4-109.017z"/>
				</g>
				<g>
					
						<linearGradient id="SVGID_23_" gradientUnits="userSpaceOnUse" x1="18721.5469" y1="-12275.9434" x2="18739.752" y2="-12275.9434" gradientTransform="matrix(-0.9177 0.3908 -0.3972 -0.9029 12326.666 -18460.1934)">
						<stop  offset="0.0627" style="stop-color:#D0AB1A"/>
						<stop  offset="0.1333" style="stop-color:#DCBE5E"/>
						<stop  offset="0.2078" style="stop-color:#E9D597"/>
						<stop  offset="0.2706" style="stop-color:#F3E7C4"/>
						<stop  offset="0.3176" style="stop-color:#FBF6E3"/>
						<stop  offset="0.3412" style="stop-color:#FFFEF0"/>
						<stop  offset="0.3882" style="stop-color:#F3ECCE"/>
						<stop  offset="0.451" style="stop-color:#EADFAD"/>
						<stop  offset="0.5137" style="stop-color:#E4D591"/>
						<stop  offset="0.5843" style="stop-color:#DECD7C"/>
						<stop  offset="0.6588" style="stop-color:#DAC76C"/>
						<stop  offset="0.7451" style="stop-color:#D7C45F"/>
						<stop  offset="0.8431" style="stop-color:#D5C158"/>
						<stop  offset="1" style="stop-color:#D5C155"/>
					</linearGradient>
					<path style="fill-rule:evenodd;clip-rule:evenodd;fill:url(#SVGID_23_);" d="M20.75-48.708c1.033,0.165,1.934,0.23,2.7,0.197
						L18.4-58.694c-1.367-2.722-2.45-6.051-3.25-9.986c-1.7,0.492-3.3,1.377-4.8,2.656C8.95-64.745,8-63.449,7.5-62.137
						c-0.733,1.967-0.767,5.083-0.1,9.346c0.667,4.329,1.2,5.723,1.6,4.181c0.4-1.508,1.217-2.558,2.45-3.148
						c1.4-0.689,2.833-0.41,4.3,0.836C17.05-49.807,18.717-49.069,20.75-48.708z"/>
					<path style="fill-rule:evenodd;clip-rule:evenodd;fill:none;stroke:#A97B50;stroke-miterlimit:10;" d="M20.75-48.708
						c-2.033-0.361-3.7-1.099-5-2.213c-1.467-1.246-2.9-1.525-4.3-0.836c-1.233,0.59-2.05,1.64-2.45,3.148
						c-0.4,1.542-0.933,0.147-1.6-4.181c-0.667-4.263-0.633-7.379,0.1-9.346c0.5-1.312,1.45-2.607,2.85-3.886
						c1.5-1.279,3.1-2.165,4.8-2.656c0.8,3.935,1.883,7.264,3.25,9.986l5.05,10.183C22.684-48.479,21.783-48.544,20.75-48.708z"/>
					
						<linearGradient id="SVGID_24_" gradientUnits="userSpaceOnUse" x1="18679.5898" y1="-12382.6914" x2="18695.1309" y2="-12382.6914" gradientTransform="matrix(-0.9218 0.3814 -0.3877 -0.9069 12437.0664 -18416.543)">
						<stop  offset="0.0157" style="stop-color:#8A6315"/>
						<stop  offset="0.051" style="stop-color:#8D6715"/>
						<stop  offset="0.2549" style="stop-color:#A07A12"/>
						<stop  offset="0.4706" style="stop-color:#AF890E"/>
						<stop  offset="0.7059" style="stop-color:#B99309"/>
						<stop  offset="1" style="stop-color:#BD9606"/>
					</linearGradient>
					<path style="fill-rule:evenodd;clip-rule:evenodd;fill:url(#SVGID_24_);" d="M10.35-61.646c1.233-0.951,2.75-1.197,4.55-0.738
						c0.9,0.229,1.684,0.558,2.35,0.984l-2.5-8.166c-2.933,0.885-5.233,3.296-6.9,7.231c-0.7,1.738-0.883,4.46-0.55,8.166
						c0.333,3.476,0.783,5.427,1.35,5.854L8.1-56.284C8.3-58.841,9.05-60.629,10.35-61.646z"/>
					<path style="fill-rule:evenodd;clip-rule:evenodd;fill:none;stroke:#A97B50;stroke-miterlimit:10;" d="M10.35-61.646
						c-1.3,1.017-2.05,2.804-2.25,5.362l0.55,7.969c-0.566-0.427-1.017-2.378-1.35-5.854c-0.333-3.706-0.15-6.427,0.55-8.166
						c1.667-3.935,3.967-6.346,6.9-7.231l2.5,8.166c-0.667-0.426-1.45-0.754-2.35-0.984C13.1-62.843,11.583-62.597,10.35-61.646z"/>
				</g>
				<g>
					
						<linearGradient id="SVGID_25_" gradientUnits="userSpaceOnUse" x1="19314.8867" y1="-5982.7373" x2="19333.7676" y2="-5982.7373" gradientTransform="matrix(-0.5622 0.8136 -0.827 -0.5531 5961.5898 -19052.6133)">
						<stop  offset="0.0627" style="stop-color:#D0AB1A"/>
						<stop  offset="0.1333" style="stop-color:#DCBE5E"/>
						<stop  offset="0.2078" style="stop-color:#E9D597"/>
						<stop  offset="0.2706" style="stop-color:#F3E7C4"/>
						<stop  offset="0.3176" style="stop-color:#FBF6E3"/>
						<stop  offset="0.3412" style="stop-color:#FFFEF0"/>
						<stop  offset="0.3882" style="stop-color:#F3ECCE"/>
						<stop  offset="0.451" style="stop-color:#EADFAD"/>
						<stop  offset="0.5137" style="stop-color:#E4D591"/>
						<stop  offset="0.5843" style="stop-color:#DECD7C"/>
						<stop  offset="0.6588" style="stop-color:#DAC76C"/>
						<stop  offset="0.7451" style="stop-color:#D7C45F"/>
						<stop  offset="0.8431" style="stop-color:#D5C158"/>
						<stop  offset="1" style="stop-color:#D5C155"/>
					</linearGradient>
					<path style="fill-rule:evenodd;clip-rule:evenodd;fill:url(#SVGID_25_);" d="M58.25-19.686l-10.1-5.755
						c-1.7-0.951-3.6-2.329-5.7-4.132c-1.067-0.918-1.967-1.738-2.7-2.459c-1.267,1.377-2.217,3.05-2.85,5.018
						c-0.6,1.869-0.767,3.492-0.5,4.87c0.4,2.066,2.05,4.723,4.95,7.969c2.967,3.279,4.217,4.148,3.75,2.607
						c-0.467-1.476-0.3-2.837,0.5-4.083c0.933-1.344,2.383-1.902,4.35-1.672c1.8,0.196,3.717-0.131,5.75-0.984
						C56.733-18.767,57.583-19.226,58.25-19.686z"/>
					<path style="fill-rule:evenodd;clip-rule:evenodd;fill:none;stroke:#A97B50;stroke-miterlimit:10;" d="M58.25-19.686
						c-0.667,0.459-1.517,0.918-2.55,1.378c-2.033,0.853-3.95,1.18-5.75,0.984c-1.967-0.23-3.417,0.328-4.35,1.672
						c-0.8,1.246-0.967,2.607-0.5,4.083c0.467,1.542-0.783,0.672-3.75-2.607c-2.9-3.247-4.55-5.903-4.95-7.969
						c-0.267-1.377-0.1-3,0.5-4.87c0.633-1.968,1.583-3.64,2.85-5.018c0.733,0.722,1.633,1.542,2.7,2.459
						c2.1,1.804,4,3.181,5.7,4.132L58.25-19.686z"/>
					
						<linearGradient id="SVGID_26_" gradientUnits="userSpaceOnUse" x1="19339.1406" y1="-6100.1553" x2="19355.25" y2="-6100.1553" gradientTransform="matrix(-0.5711 0.8076 -0.8209 -0.5618 6082.9624 -19074.7031)">
						<stop  offset="0.0157" style="stop-color:#8A6315"/>
						<stop  offset="0.051" style="stop-color:#8D6715"/>
						<stop  offset="0.2549" style="stop-color:#A07A12"/>
						<stop  offset="0.4706" style="stop-color:#AF890E"/>
						<stop  offset="0.7059" style="stop-color:#B99309"/>
						<stop  offset="1" style="stop-color:#BD9606"/>
					</linearGradient>
					<path style="fill-rule:evenodd;clip-rule:evenodd;fill:url(#SVGID_26_);" d="M43-26.572c0.934-0.328,1.817-0.492,2.65-0.492
						l-6.7-5.509c-2.167,2.426-2.95,5.772-2.35,10.035c0.3,1.869,1.617,4.28,3.95,7.231c2.167,2.722,3.633,4.115,4.4,4.181
						l-2.85-3.395c-0.733-0.853-1.4-1.853-2-3c-1.2-2.295-1.483-4.247-0.85-5.854C39.85-24.883,41.1-25.949,43-26.572z"/>
					<path style="fill-rule:evenodd;clip-rule:evenodd;fill:none;stroke:#A97B50;stroke-miterlimit:10;" d="M43-26.572
						c-1.9,0.623-3.15,1.689-3.75,3.197c-0.633,1.607-0.35,3.559,0.85,5.854c0.6,1.148,1.267,2.148,2,3l2.85,3.395
						c-0.767-0.066-2.233-1.459-4.4-4.181c-2.333-2.952-3.65-5.362-3.95-7.231c-0.6-4.263,0.183-7.608,2.35-10.035l6.7,5.509
						C44.817-27.064,43.934-26.9,43-26.572z"/>
				</g>
			</g>
			<g>
				<g>
					
						<linearGradient id="SVGID_27_" gradientUnits="userSpaceOnUse" x1="16061.0205" y1="-84.6445" x2="16205.6709" y2="-84.6445" gradientTransform="matrix(6.912045e-006 1 -1 -0.001 0.9438 -16219.1055)">
						<stop  offset="0" style="stop-color:#E9E1AC"/>
						<stop  offset="1" style="stop-color:#D1B81F"/>
					</linearGradient>
					<path style="fill-rule:evenodd;clip-rule:evenodd;fill:url(#SVGID_27_);" d="M85.7-13.35c19.966,0,37.017-7.067,51.15-21.2
						c6.667-6.667,11.833-14.317,15.5-22.95c3.8-8.966,5.7-18.367,5.7-28.2c0-9.8-1.9-19.184-5.7-28.15
						c-3.667-8.667-8.833-16.333-15.5-23c-6.667-6.667-14.333-11.817-23-15.45c-8.967-3.8-18.35-5.7-28.15-5.7
						c-9.8,0-19.184,1.9-28.15,5.7c-8.667,3.633-16.333,8.783-23,15.45c-6.667,6.667-11.833,14.333-15.5,23
						c-3.8,8.966-5.7,18.35-5.7,28.15c0,9.833,1.9,19.233,5.7,28.2c3.667,8.633,8.833,16.284,15.5,22.95
						c6.667,6.7,14.333,11.867,23,15.5C66.517-15.25,75.9-13.35,85.7-13.35z"/>
				</g>
			</g>
		</g>
	</g>
	<g id="Isolation_Mode_3_">
	</g>
	<g id="Isolation_Mode_2_">
	</g>
</symbol>
<symbol  id="Letters_x2F_digit_1" viewBox="0 -26.35 9.95 26.35">
	<g id="Layer_1_9_">
		<path style="fill-rule:evenodd;clip-rule:evenodd;fill:#FFFFFF;" d="M9.95-23.2v-0.35c0-0.867-0.25-1.567-0.75-2.1
			c-0.5-0.467-1.15-0.7-1.95-0.7s-1.45,0.233-1.95,0.7c-0.5,0.533-0.75,1.233-0.75,2.1v0.35c0.034-0.8,0.284-1.45,0.75-1.95
			c0.5-0.467,1.15-0.7,1.95-0.7s1.45,0.233,1.95,0.7C9.667-24.65,9.917-24,9.95-23.2z M0.55-4.2C1.017-4.733,1.65-5,2.45-5h2.1v-0.5
			h-2.1c-0.8,0-1.434,0.267-1.9,0.8C0.183-4.267,0-3.7,0-3c0,0.067,0,0.133,0,0.2C0.033-3.367,0.217-3.833,0.55-4.2z"/>
		
			<use xlink:href="#zzz_x5F_miscellaneous_x2F_digit_1x"  width="9.95" height="25.85" y="-25.85" style="overflow:visible;enable-background:new    ;"/>
		
			<use xlink:href="#zzz_x5F_miscellaneous_x2F_digit_1x"  width="9.95" height="25.85" y="-25.85" style="overflow:visible;opacity:0.4219;enable-background:new    ;"/>
	</g>
</symbol>
<symbol  id="flash0.ai_Assets_x5F_2_x2F_Layer_3_x2F__x3C_Group_x3E_" viewBox="0.029 -99.45 105.461 99.45">
	<g id="Layer_1_4_">
		<g>
			<path style="fill-rule:evenodd;clip-rule:evenodd;fill:#FFC943;" d="M102.35-12.95c1.867-2.7,2.9-6.3,3.1-10.8
				c0.167-3.667-0.2-7.417-1.1-11.25c-2.267-12.167-11.233-26.467-26.9-42.9c-7.867-8.233-15.6-15.333-23.2-21.3l-0.35-0.25
				l-0.3,0.3c-9.133,7.7-17.917,16.2-26.35,25.5C10.583-55.217,1.867-40.25,1.1-28.75c-1,3.6-1.3,6.767-0.9,9.5
				c0.433,2.667,1.566,5.167,3.4,7.5c2.4,3.067,4.917,5.367,7.55,6.9c2.867,1.667,6.033,2.5,9.5,2.5c6.133,0,12.934-2,20.4-6
				c4.233-2.3,8.083-4.85,11.55-7.65c2.667,3.133,6.05,6.133,10.15,9c6.7,4.667,13.067,7,19.1,7c3.333,0,6.467-0.667,9.4-2
				c3.133-1.433,5.85-3.567,8.15-6.4C100.633-9.933,101.617-11.45,102.35-12.95z M103.6-34.15c2.267,8.066,1.4,14.95-2.6,20.65
				c-0.8,1.633-1.75,3.083-2.85,4.35c-4.733,5.7-10.233,8.55-16.5,8.55C75.817-0.6,69.6-2.983,63-7.75c-3.7-2.7-7.033-5.717-10-9.05
				c-3.433,2.767-7.217,5.267-11.35,7.5c-7.367,3.966-14.033,5.95-20,5.95c-7.1,0-12.85-2.783-17.25-8.35
				C0.833-16.133,0.033-21.85,2-28.85c0.767-11.033,9.35-25.316,25.75-42.85c8.267-8.867,16.9-16.983,25.9-24.35l0.3-0.25l0.3,0.25
				c7.5,5.767,15.117,12.633,22.85,20.6C92.567-59.55,101.4-45.783,103.6-34.15z"/>
		</g>
	</g>
</symbol>
<symbol  id="zz_x5F_Highlight_x2F_Highlight_Piece" viewBox="0 -115.9 118.7 115.9">
	<g id="Layer_1_10_">
		<g>
			
				<use xlink:href="#zzz_x5F_miscellaneous_x2F_FlashAICB_copy_x2F_Layer_1_x2F__x3C_Path_x3E__x5F_2"  width="118.7" height="57.1" y="-57.1" transform="matrix(1 0 0 1 0 -58.7998)" style="overflow:visible;opacity:0.2813;enable-background:new    ;"/>
			
				<use xlink:href="#zzz_x5F_miscellaneous_x2F_FlashAICB_copy_x2F_Layer_1_x2F__x3C_Path_x3E__x5F_1"  width="110.05" height="55.75" y="-55.75" transform="matrix(1 0 0 1 4.1499 0)" style="overflow:visible;opacity:0.1094;enable-background:new    ;"/>
			
				<use xlink:href="#zzz_x5F_miscellaneous_x2F_FlashAICB_copy_x2F_Layer_1_x2F__x3C_Path_x3E_"  width="110.05" height="61.294" y="-61.294" transform="matrix(1 0 0 1 4.1499 0)" style="overflow:visible;opacity:0.0898;enable-background:new    ;"/>
		</g>
	</g>
</symbol>
<symbol  id="zzz_x5F_miscellaneous_x2F_FlashAICB_copy_x2F_Layer_1_x2F__x3C_Path_x3E_" viewBox="0 -61.294 110.05 61.294">
	<g id="Layer_1_8_">
		<path style="fill-rule:evenodd;clip-rule:evenodd;fill:#FFFFFF;" d="M106.5-34.35c2.367-5.633,3.55-10.95,3.55-15.95
			c0-4.934-1.45-8.05-4.35-9.35c-2.333-1.033-6.25-1.017-11.75,0.05c-7.3,1.767-13.133,3.117-17.5,4.05
			C68.417-53.85,61.267-53,55-53c-6.3,0-13.433-0.917-21.4-2.75c-8.333-2.2-14.167-3.683-17.5-4.45
			c-5.533-1.267-9.45-1.433-11.75-0.5C1.45-59.5,0-56.433,0-51.5c0,5.5,1.167,11.167,3.5,17c2.467,6.167,5.95,11.733,10.45,16.7
			C24.65-5.933,38.333,0,55,0c16.467,0,30.15-5.983,41.05-17.95C100.517-22.883,104-28.35,106.5-34.35z"/>
	</g>
</symbol>
<symbol  id="zzz_x5F_miscellaneous_x2F_FlashAICB_copy_x2F_Layer_1_x2F__x3C_Path_x3E__x5F_1" viewBox="0 -55.75 110.05 55.75">
	<g id="Layer_1_7_">
		
			<linearGradient id="SVGID_28_" gradientUnits="userSpaceOnUse" x1="16163.2637" y1="-53.8804" x2="16219.0391" y2="-53.8804" gradientTransform="matrix(1.792918e-005 1 -1 -0.001 0.8545 -16219.1055)">
			<stop  offset="0.1294" style="stop-color:#D9BBB3"/>
			<stop  offset="0.9255" style="stop-color:#FFFFFF"/>
		</linearGradient>
		<path style="fill-rule:evenodd;clip-rule:evenodd;fill:url(#SVGID_28_);" d="M96.05-17.95c4.467-4.933,7.95-10.4,10.45-16.4
			c2.367-5.633,3.55-10.95,3.55-15.95c0-1.567-0.167-3.05-0.5-4.45c-1.867,11.067-7.267,20.9-16.2,29.5
			C82.783-15.117,70-10.05,55-10.05c-15.233,0-28.067-5.05-38.5-15.15C7.533-33.9,2.183-44.083,0.45-55.75
			C0.15-54.617,0-53.2,0-51.5c0,5.5,1.167,11.167,3.5,17c2.467,6.167,5.95,11.733,10.45,16.7C24.65-5.933,38.333,0,55,0
			C71.467,0,85.15-5.983,96.05-17.95z"/>
	</g>
</symbol>
<symbol  id="zzz_x5F_miscellaneous_x2F_FlashAICB_copy_x2F_Layer_1_x2F__x3C_Path_x3E__x5F_2" viewBox="0 -57.1 118.7 57.1">
	<g id="Layer_1_6_">
		
			<radialGradient id="SVGID_29_" cx="59.3501" cy="-28.5498" r="46.5701" gradientTransform="matrix(1 0 0 -1 0 -57.0996)" gradientUnits="userSpaceOnUse">
			<stop  offset="0" style="stop-color:#000000;stop-opacity:0"/>
			<stop  offset="0.651" style="stop-color:#000000;stop-opacity:0.4"/>
		</radialGradient>
		<path style="fill-rule:evenodd;clip-rule:evenodd;fill:url(#SVGID_29_);" d="M95.5-30.35c10.733,7.7,18.3,17.733,22.7,30.1
			L118.7,0c-0.567-15.9-6.6-29.383-18.1-40.45C89.1-51.55,75.333-57.1,59.3-57.1c-15.7,0-29.267,5.367-40.7,16.1
			C7.2-30.333,1-17.233,0-1.7c4.6-12,12.183-21.683,22.75-29.05c10.833-7.567,22.867-11.35,36.1-11.35
			C72.35-42.1,84.567-38.183,95.5-30.35z"/>
	</g>
</symbol>
<symbol  id="zzz_x5F_miscellaneous_x2F_digit_1x" viewBox="0 -25.85 9.95 25.85">
	<g id="Layer_1_5_">
		<linearGradient id="SVGID_30_" gradientUnits="userSpaceOnUse" x1="4.9751" y1="-17.9248" x2="4.9751" y2="-7.9748">
			<stop  offset="0.0745" style="stop-color:#000000;stop-opacity:0.9882"/>
			<stop  offset="0.9647" style="stop-color:#000000;stop-opacity:0.651"/>
		</linearGradient>
		<path style="fill-rule:evenodd;clip-rule:evenodd;fill:url(#SVGID_30_);" d="M0.55-4.2C0.183-3.767,0-3.2,0-2.5
			c0,0.667,0.217,1.233,0.65,1.7C1.117-0.267,1.717,0,2.45,0h5.1c0.767,0,1.367-0.25,1.8-0.75c0.4-0.467,0.6-1.083,0.6-1.85v-20.45
			c0-0.867-0.25-1.567-0.75-2.1c-0.5-0.467-1.15-0.7-1.95-0.7s-1.45,0.233-1.95,0.7c-0.5,0.533-0.75,1.233-0.75,2.1V-5h-2.1
			C1.65-5,1.017-4.733,0.55-4.2z"/>
	</g>
</symbol>
<g id="Layer_5">
	
		<use xlink:href="#Frames_x2F_frame_08"  width="171.4" height="171.35" y="-171.35" transform="matrix(1 0 0 -1 0.2998 0.8501)" style="overflow:visible;"/>
	
		<use xlink:href="#Frames_x2F_frame_08"  width="171.4" height="171.35" y="-171.35" transform="matrix(1 0 0 -1 0 0)" style="overflow:visible;"/>
</g>
<g id="Base">
	
		<use xlink:href="#BG_x2F_bg_yellow"  width="134" height="134.05" y="-134.05" transform="matrix(1 0 0 -1 19.2002 19.8501)" style="overflow:visible;"/>
</g>
<g id="Layer_3">
	<g>
		
			<linearGradient id="SVGID_31_" gradientUnits="userSpaceOnUse" x1="-103.5386" y1="52.2432" x2="13.052" y2="52.2432" gradientTransform="matrix(-0.0238 -0.8946 0.903 -0.0236 39.6497 55.0012)">
			<stop  offset="0.0078" style="stop-color:#2A1300"/>
			<stop  offset="0.2314" style="stop-color:#553317"/>
			<stop  offset="0.4588" style="stop-color:#744826"/>
			<stop  offset="0.6706" style="stop-color:#8B572F"/>
			<stop  offset="0.8549" style="stop-color:#9B6034"/>
			<stop  offset="1" style="stop-color:#A16435"/>
		</linearGradient>
		<path style="fill-rule:evenodd;clip-rule:evenodd;fill:url(#SVGID_31_);" d="M130.885,67.082
			c3.613,5.101,4.396,11.261,2.349,18.48c-1.986,10.411-9.967,22.731-23.938,36.961c-6.985,7.129-13.866,13.274-20.641,18.436
			l-0.271,0.224l-0.271-0.224c-8.13-6.593-15.929-13.856-23.396-21.791c-14.814-15.691-22.568-28.475-23.26-38.348
			c-1.777-6.265-1.054-11.381,2.168-15.348c3.975-4.982,9.168-7.473,15.582-7.473c5.39,0,11.412,1.775,18.066,5.325
			c3.734,1.999,7.152,4.236,10.252,6.712c2.681-2.983,5.691-5.683,9.033-8.099c5.963-4.266,11.578-6.398,16.848-6.398
			c5.661,0,10.629,2.551,14.905,7.651C129.305,64.322,130.163,65.62,130.885,67.082z"/>
		
			<use xlink:href="#flash0.ai_Assets_x5F_2_x2F_Layer_3_x2F__x3C_Group_x3E_"  width="105.461" height="99.45" x="0.029" y="-99.45" transform="matrix(0.9033 0 0 -0.8949 39.6499 55)" style="overflow:visible;opacity:0.7109;enable-background:new    ;"/>
	</g>
</g>
<g id="Layer_3_1_">
	<g>
		<path style="fill-rule:evenodd;clip-rule:evenodd;fill:#594026;" d="M87.962,78.467c3.495-4.218,7.623-7.668,12.383-10.349
			c9.49-5.363,17.339-4.233,23.545,3.389c7.743,9.49,4.143,23.033-10.801,40.627c-7.472,8.798-15.727,16.646-24.766,23.545
			c-8.857-7.2-17.082-15.185-24.674-23.951C48.404,94.164,43.885,81.45,50.091,73.586c5.604-7.11,13.587-8.436,23.952-3.977
			C79.255,71.869,83.895,74.822,87.962,78.467z M118.738,77.428c-5.213-4.399-11.946-5.046-20.201-1.944
			c-2.591,0.964-5.167,2.245-7.728,3.841l-3.073,2.125c-3.646-2.139-7.698-3.796-12.157-4.971c-8.948-2.35-15.44-1.13-19.478,3.661
			c-5.604,6.688-2.063,17.279,10.62,31.77c6.327,7.23,13.227,13.799,20.698,19.703c8.285-6.447,15.802-13.558,22.551-21.33
			C123.468,94.796,126.391,83.845,118.738,77.428z"/>
		<path style="fill-rule:evenodd;clip-rule:evenodd;fill:#FFFAD6;" d="M87.601,73.676c3.435-4.067,7.486-7.381,12.157-9.942
			c9.339-5.122,17.112-3.932,23.318,3.57c7.743,9.34,4.143,22.671-10.801,39.995c-7.472,8.677-15.727,16.404-24.766,23.183
			c-8.857-7.079-17.082-14.943-24.674-23.59C47.591,89.63,43.072,77.111,49.278,69.338c5.604-6.99,13.663-8.361,24.178-4.112
			C78.728,67.334,83.443,70.151,87.601,73.676z M117.924,73.134c-5.182-4.309-11.81-4.881-19.884-1.717
			c-2.531,0.964-5.046,2.259-7.547,3.887l-3.028,2.124c-3.735-2.169-7.878-3.857-12.427-5.062c-9.099-2.411-15.667-1.25-19.704,3.48
			c-5.604,6.568-1.838,17.006,11.298,31.318c6.568,7.17,13.693,13.678,21.376,19.522c8.164-6.297,15.53-13.256,22.099-20.878
			C123.242,90.594,125.848,79.702,117.924,73.134z"/>
		<path style="fill-rule:evenodd;clip-rule:evenodd;fill:#EDD25F;" d="M88.505,76.388c3.494-4.127,7.606-7.517,12.337-10.168
			c9.49-5.272,17.339-4.157,23.545,3.344c7.743,9.31,4.143,22.611-10.801,39.905c-7.472,8.646-15.712,16.359-24.72,23.139
			c-8.858-7.081-17.098-14.929-24.72-23.545c-15.245-17.264-19.764-29.767-13.558-37.51c5.604-6.99,13.603-8.286,23.997-3.887
			C79.797,69.896,84.437,72.803,88.505,76.388z M119.28,75.349c-5.212-4.308-11.855-4.881-19.93-1.717
			c-2.53,0.995-5.047,2.29-7.547,3.886l-3.028,2.125c-3.736-2.139-7.878-3.827-12.428-5.062c-9.099-2.41-15.666-1.25-19.704,3.48
			c-5.604,6.568-2.063,16.962,10.62,31.182c6.327,7.11,13.226,13.558,20.698,19.343c8.286-6.327,15.803-13.302,22.551-20.924
			C124.01,92.446,126.933,81.675,119.28,75.349z"/>
		
			<linearGradient id="SVGID_32_" gradientUnits="userSpaceOnUse" x1="-84.8218" y1="46.0986" x2="-0.7422" y2="46.0986" gradientTransform="matrix(-0.0094 -0.9038 0.9038 -0.0094 46.2501 60.2992)">
			<stop  offset="0.0039" style="stop-color:#8F6C00"/>
			<stop  offset="0.1529" style="stop-color:#96740A;stop-opacity:0.902"/>
			<stop  offset="0.4314" style="stop-color:#AC8D2E;stop-opacity:0.651"/>
			<stop  offset="0.8" style="stop-color:#CFB764;stop-opacity:0.2431"/>
			<stop  offset="1" style="stop-color:#E3D386;stop-opacity:0"/>
		</linearGradient>
		<path style="fill-rule:evenodd;clip-rule:evenodd;fill:url(#SVGID_32_);" d="M88.505,76.388
			c3.494-4.127,7.606-7.517,12.337-10.168c9.49-5.272,17.339-4.157,23.545,3.344c7.743,9.31,4.143,22.611-10.801,39.905
			c-7.472,8.646-15.712,16.359-24.72,23.139c-8.858-7.081-17.098-14.929-24.72-23.545c-15.245-17.264-19.764-29.767-13.558-37.51
			c5.604-6.99,13.603-8.286,23.997-3.887C79.797,69.896,84.437,72.803,88.505,76.388z M119.28,75.349
			c-5.212-4.308-11.855-4.881-19.93-1.717c-2.53,0.995-5.047,2.29-7.547,3.886l-3.028,2.125c-3.736-2.139-7.878-3.827-12.428-5.062
			c-9.099-2.41-15.666-1.25-19.704,3.48c-5.604,6.568-2.063,16.962,10.62,31.182c6.327,7.11,13.226,13.558,20.698,19.343
			c8.286-6.327,15.803-13.302,22.551-20.924C124.01,92.446,126.933,81.675,119.28,75.349z"/>
		<path style="fill-rule:evenodd;clip-rule:evenodd;fill:#C66A42;" d="M119.868,73.857c2.41,2.29,3.615,6.146,3.615,11.569
			c0,6.056-5.77,15.321-17.309,27.793c-5.785,6.236-11.569,11.87-17.354,16.901c-2.923-2.591-6.042-5.453-9.355-8.586
			c-6.688-6.267-11.072-10.726-13.151-13.377c-1.476-1.688-2.772-3.209-3.887-4.564c-2.109-2.591-3.796-5.031-5.062-7.321
			c-3.887-7.02-4.127-13.09-0.723-18.212c3.345-5.062,9.701-6.312,19.071-3.751c4.7,1.266,9.053,3.043,13.06,5.333l7.005-4.52
			c5.333-3.012,9.716-4.519,13.151-4.519C113.963,70.604,117.608,71.688,119.868,73.857z"/>
		<path style="fill-rule:evenodd;clip-rule:evenodd;fill:none;stroke:#3B2314;stroke-miterlimit:10;" d="M119.868,73.857
			c-2.26-2.169-5.905-3.254-10.937-3.254c-3.436,0-7.818,1.507-13.151,4.519l-7.005,4.52c-4.007-2.29-8.36-4.067-13.06-5.333
			c-9.37-2.561-15.727-1.311-19.071,3.751c-3.404,5.122-3.164,11.193,0.723,18.212c1.266,2.29,2.953,4.73,5.062,7.321
			c1.115,1.355,2.411,2.877,3.887,4.564c2.079,2.651,6.462,7.11,13.151,13.377c3.313,3.133,6.432,5.995,9.355,8.586
			c5.784-5.031,11.568-10.665,17.354-16.901c11.539-12.473,17.309-21.737,17.309-27.793
			C123.483,80.003,122.278,76.147,119.868,73.857z"/>
		<path style="fill-rule:evenodd;clip-rule:evenodd;fill:#3B2314;" d="M122.76,67.576c-3.555-4.338-7.713-6.507-12.473-6.507
			s-9.897,2.124-15.411,6.372c-1.747,1.326-3.419,2.787-5.016,4.384c-1.266,1.356-1.913,2.049-1.943,2.079l-0.271,0.316
			l-0.271-0.271c-2.169-1.808-4.806-3.6-7.909-5.378c-6.237-3.555-11.826-5.333-16.766-5.333c-5.393,0-9.762,2.109-13.106,6.327
			c-2.651,3.345-3.224,7.653-1.717,12.925v0.091c0.542,8.286,7.035,19.176,19.478,32.673c6.478,7.021,13.467,13.663,20.969,19.93
			c6.538-5.122,12.865-10.892,18.98-17.308c11.419-11.992,17.973-22.386,19.659-31.183c1.718-6.146,1.055-11.403-1.989-15.772
			C124.372,69.745,123.634,68.63,122.76,67.576z M127.731,86.873c-1.748,9.25-8.752,20.171-21.015,32.764
			c-6.146,6.327-12.202,11.78-18.167,16.359l-0.227,0.182l-0.271-0.182c-7.11-5.845-13.949-12.277-20.518-19.297
			C54.49,102.78,47.681,91.438,47.109,82.67c-1.597-5.514-0.979-10.048,1.853-13.603c3.555-4.429,8.135-6.644,13.739-6.644
			c4.729,0,10.017,1.582,15.862,4.745c3.375,1.808,6.372,3.781,8.994,5.92c2.35-2.651,4.986-5.031,7.908-7.14
			c5.242-3.766,10.184-5.649,14.823-5.649c5.001,0,9.37,2.26,13.105,6.779c0.783,0.904,1.536,2.049,2.26,3.435
			C128.815,75.032,129.508,80.486,127.731,86.873z"/>
		<g>
			<g>
				<polygon style="fill-rule:evenodd;clip-rule:evenodd;fill:#594026;" points="78.11,94.781 72.461,99.346 71.467,98.261 
					71.829,89.63 				"/>
				<path style="fill-rule:evenodd;clip-rule:evenodd;fill:#594026;" d="M85.522,90.939l3.75-7.275l0.904,1.762
					c0.663,1.266,1.22,2.109,1.672,2.531c0.753,0.663,1.356,1.688,1.808,3.073c-1.325-0.241-2.741-0.211-4.248,0.091
					c-0.783,0.181-1.657,0.195-2.621,0.045L85.522,90.939z"/>
				<path style="fill-rule:evenodd;clip-rule:evenodd;fill:#594026;" d="M99.215,94.013l3.706-3.479l2.757-1.763
					c-0.332,2.893-0.648,4.745-0.949,5.559c-0.181,0.513-0.271,1.597-0.271,3.254c0,0.844,0.015,1.627,0.046,2.351L99.215,94.013z"
					/>
				<path style="fill-rule:evenodd;clip-rule:evenodd;fill:#594026;" d="M88.008,97.719c-2.291,0.241-5.469,2.244-9.536,6.011
					c-3.916,3.585-6.357,5.317-7.321,5.196c-1.416-0.15-2.666-1.159-3.75-3.027l-1.22-2.802l0.994-1.537l1.537,2.306
					c1.175,1.416,2.229,1.897,3.164,1.445c2.139-2.139,4.188-4.052,6.146-5.738c3.796-3.314,7.517-4.972,11.163-4.972
					c3.555,0,7.245,1.868,11.071,5.604c0.965,0.934,2.17,2.199,3.616,3.797c1.054,1.114,1.777,1.626,2.169,1.536
					c1.355-0.271,2.365-0.783,3.027-1.536c0.332-0.362,0.527-0.708,0.588-1.04l1.039,1.853c-0.753,0.904-1.611,1.763-2.575,2.576
					c-1.959,1.657-3.48,2.32-4.564,1.988c-0.513-0.15-1.19-0.919-2.034-2.305c-1.355-2.199-2.26-3.601-2.711-4.202
					C95.886,99.015,92.285,97.297,88.008,97.719z"/>
				<path style="fill-rule:evenodd;clip-rule:evenodd;fill:#594026;" d="M72.009,106.351l1.943-1.582l0.271,1.356
					c0.332,1.114,0.919,2.123,1.762,3.027c2.621,2.922,7.125,4.384,13.513,4.384c5.303,0,9.158-1.296,11.568-3.887
					c1.206-1.325,1.884-2.637,2.034-3.932l2.531,0.994c-2.501,3.856-4.866,6.492-7.096,7.909c-2.44,1.536-5.679,2.304-9.716,2.304
					c-4.369,0-8.481-1.762-12.338-5.287c-1.205-1.114-2.305-2.319-3.299-3.615L72.009,106.351z"/>
				<path style="fill-rule:evenodd;clip-rule:evenodd;fill:#594026;" d="M89.092,96.95c2.26-0.181,3.962,0.708,5.106,2.667
					c0.904,1.566,1.356,3.539,1.356,5.92c0,2.41-0.407,4.459-1.221,6.146c-0.994,2.139-2.455,3.103-4.383,2.892
					c-2.049-0.241-3.631-1.311-4.746-3.208c-1.055-1.778-1.461-3.722-1.22-5.83c0.361-3.556,0.572-5.408,0.633-5.559
					C85.221,98.141,86.712,97.131,89.092,96.95z M92.889,102.328c-0.604-1.295-1.567-1.883-2.893-1.763
					c-1.446,0.091-2.396,0.738-2.848,1.943c-0.15,0.392-0.346,1.582-0.587,3.57c-0.151,1.266,0.09,2.44,0.723,3.525
					c0.693,1.145,1.657,1.777,2.893,1.897c1.145,0.151,2.019-0.406,2.621-1.672c0.481-1.024,0.723-2.274,0.723-3.751
					C93.521,104.543,93.311,103.293,92.889,102.328z"/>
			</g>
		</g>
		<g>
			<g>
				<path style="fill-rule:evenodd;clip-rule:evenodd;fill:#F3F0C5;" d="M76.8,94.193l-4.52,4.339l-0.813-0.588l-1.491-10.62
					l1.175,1.266c0.874,0.874,1.567,1.446,2.079,1.718C74.043,90.729,75.233,92.024,76.8,94.193z"/>
				<path style="fill-rule:evenodd;clip-rule:evenodd;fill:#F3F0C5;" d="M86.381,89.042l2.666-7.412l0.813,1.762
					c0.633,1.235,1.19,2.034,1.672,2.396c0.753,0.573,1.235,1.491,1.446,2.757c0.09,0.633,0.105,1.205,0.045,1.717
					c-2.35-0.181-4.112-0.165-5.287,0.046c-0.753,0.15-1.205-0.016-1.355-0.497V89.042z"/>
				<path style="fill-rule:evenodd;clip-rule:evenodd;fill:#F3F0C5;" d="M99.938,92.883l3.525-3.435l3.299-2.033
					c-0.241,1.416-0.467,2.741-0.678,3.977c-0.12,0.633-0.331,1.341-0.633,2.124c-0.181,0.482-0.392,1.462-0.633,2.938
					c-0.12,0.754-0.226,1.446-0.315,2.079L99.938,92.883z"/>
				<path style="fill-rule:evenodd;clip-rule:evenodd;fill:#F4F0C9;" d="M87.826,94.826c-2.199,0.241-5.272,2.26-9.219,6.056
					c-3.736,3.646-6.085,5.408-7.05,5.288c-1.356-0.182-2.561-1.055-3.615-2.621l-1.221-2.306l1.13-1.355l1.401,1.718
					c1.114,1.024,2.124,1.311,3.027,0.858c2.049-2.169,4.022-4.098,5.92-5.784c3.675-3.345,7.276-5.017,10.8-5.017
					c3.405,0,6.96,1.897,10.666,5.694c0.904,0.934,2.049,2.215,3.435,3.841c1.055,1.115,1.763,1.627,2.124,1.537
					c1.325-0.271,2.395-0.874,3.208-1.808c0.393-0.452,0.663-0.889,0.814-1.311l0.858,2.847c-0.753,0.903-1.612,1.777-2.576,2.621
					c-1.929,1.688-3.42,2.365-4.474,2.033c-0.482-0.15-1.146-0.964-1.989-2.439c-1.386-2.351-2.289-3.826-2.711-4.429
					C95.464,96.183,91.954,94.375,87.826,94.826z"/>
				<path style="fill-rule:evenodd;clip-rule:evenodd;fill:#F3F0C5;" d="M104.864,104.046c-2.411,3.735-4.716,6.297-6.914,7.683
					c-2.351,1.506-5.469,2.259-9.355,2.259c-4.188,0-8.149-1.717-11.885-5.151c-1.175-1.085-2.245-2.274-3.209-3.57l-1.129-1.627
					l1.898-1.536l0.271,1.355c0.332,1.055,0.889,2.034,1.672,2.938c2.531,2.862,6.884,4.293,13.06,4.293
					c5.092,0,8.813-1.265,11.163-3.796c1.145-1.295,1.792-2.575,1.943-3.842L104.864,104.046z"/>
				<path style="fill-rule:evenodd;clip-rule:evenodd;fill:#F3F0C5;" d="M88.866,94.465c2.169-0.15,3.811,0.738,4.926,2.666
					c0.874,1.507,1.311,3.42,1.311,5.74c0,2.38-0.392,4.398-1.175,6.055c-0.965,2.05-2.38,2.969-4.248,2.758
					c-1.959-0.211-3.479-1.251-4.564-3.119c-0.995-1.717-1.386-3.615-1.175-5.693c0.391-3.556,0.602-5.378,0.632-5.469
					C85.145,95.625,86.576,94.646,88.866,94.465z M93.159,103.413c0-1.507-0.211-2.727-0.633-3.661
					c-0.572-1.265-1.506-1.853-2.802-1.762c-1.386,0.12-2.305,0.768-2.757,1.943c-0.12,0.361-0.301,1.521-0.542,3.479
					c-0.12,1.235,0.12,2.365,0.723,3.39c0.663,1.145,1.582,1.777,2.757,1.897c1.115,0.151,1.974-0.406,2.576-1.672
					C92.934,106.034,93.159,104.829,93.159,103.413z"/>
			</g>
		</g>
		<g>
			<g>
				<path style="fill-rule:evenodd;clip-rule:evenodd;fill:#EDD25F;" d="M76.529,94.104l-4.926,4.609L69.84,88.318l1.762,1.627
					c1.266,1.115,2.154,1.808,2.667,2.079C75.083,92.446,75.836,93.14,76.529,94.104z"/>
				<path style="fill-rule:evenodd;clip-rule:evenodd;fill:#EDD25F;" d="M85.657,90.262l3.254-7.728l0.858,1.762
					c0.663,1.235,1.205,2.049,1.627,2.441c0.724,0.633,1.085,1.808,1.085,3.524c-1.175-0.211-2.365-0.211-3.57,0
					c-0.753,0.151-1.521,0.196-2.305,0.136L85.657,90.262z"/>
				<path style="fill-rule:evenodd;clip-rule:evenodd;fill:#EDD25F;" d="M99.26,93.381l3.436-3.028l2.621-1.763
					c-0.302,2.862-0.604,4.686-0.904,5.469c-0.181,0.481-0.331,1.415-0.452,2.802c-0.029,0.692-0.061,1.34-0.09,1.943L99.26,93.381z
					"/>
				<path style="fill-rule:evenodd;clip-rule:evenodd;fill:#EDD25F;" d="M88.866,93.154c3.404,0,6.959,1.838,10.665,5.514
					c0.904,0.904,2.049,2.139,3.435,3.705c1.055,1.085,1.763,1.582,2.124,1.492c1.326-0.271,2.396-0.859,3.209-1.763
					c0.392-0.452,0.662-0.874,0.813-1.266l0.858,2.802c-0.753,0.874-1.611,1.718-2.576,2.531c-1.928,1.597-3.419,2.244-4.474,1.943
					l-0.271-0.136c-1.928,2.561-3.916,4.368-5.966,5.423c-2.108,1.055-4.835,1.582-8.179,1.582c-3.284,0-6.433-1.055-9.446-3.164
					c-2.018-1.416-3.871-3.208-5.559-5.378c-0.783,0.572-1.476,0.829-2.079,0.769c-1.355-0.181-2.561-1.024-3.615-2.53l-1.22-2.26
					l1.13-1.311l1.401,1.672c1.145,0.994,2.154,1.28,3.028,0.858c2.048-2.108,4.022-3.992,5.92-5.648
					C81.71,94.767,85.311,93.154,88.866,93.154z M98.13,101.334c-1.656-2.199-3.464-3.69-5.423-4.474
					c1.507,1.506,2.26,3.841,2.26,7.005c0,1.416-0.165,2.771-0.497,4.067c-0.392,1.506-0.949,2.666-1.672,3.479
					c4.128-0.633,6.975-2.29,8.541-4.972C100.104,104.271,99.034,102.569,98.13,101.334z M89.589,98.984
					c-1.386,0.12-2.305,0.768-2.757,1.943c-0.12,0.361-0.301,1.521-0.542,3.479c-0.121,1.235,0.12,2.365,0.724,3.389
					c0.662,1.146,1.581,1.778,2.756,1.898c1.115,0.151,1.974-0.406,2.576-1.672c0.452-0.994,0.678-2.199,0.678-3.615
					c0-1.507-0.211-2.727-0.633-3.66C91.818,99.481,90.885,98.894,89.589,98.984z M83.804,103.865
					c0.091-1.718,0.181-2.983,0.271-3.797c0.181-1.386,0.558-2.425,1.13-3.118c-1.507,0.724-3.344,2.064-5.514,4.022
					c-1.175,1.055-2.802,2.546-4.88,4.474c0.693,1.507,1.837,2.757,3.434,3.751c2.169,1.386,5.032,2.185,8.586,2.396
					c-1.115-0.783-1.943-1.913-2.485-3.39C83.835,106.787,83.654,105.341,83.804,103.865z"/>
				
					<linearGradient id="SVGID_33_" gradientUnits="userSpaceOnUse" x1="-63.6221" y1="46.0938" x2="-28.5708" y2="46.0938" gradientTransform="matrix(-0.0077 -0.9038 0.9038 -0.0077 46.2499 60.3002)">
					<stop  offset="0.0039" style="stop-color:#886C02"/>
					<stop  offset="0.102" style="stop-color:#957910;stop-opacity:0.7765"/>
					<stop  offset="0.2941" style="stop-color:#AA8F25;stop-opacity:0.4353"/>
					<stop  offset="0.498" style="stop-color:#BB9F34;stop-opacity:0.1882"/>
					<stop  offset="0.7216" style="stop-color:#C5AA3D;stop-opacity:0.0431"/>
					<stop  offset="1" style="stop-color:#C8AD40;stop-opacity:0"/>
				</linearGradient>
				<path style="fill-rule:evenodd;clip-rule:evenodd;fill:url(#SVGID_33_);" d="M88.866,93.154c3.404,0,6.959,1.838,10.665,5.514
					c0.904,0.904,2.049,2.139,3.435,3.705c1.055,1.085,1.763,1.582,2.124,1.492c1.326-0.271,2.396-0.859,3.209-1.763
					c0.392-0.452,0.662-0.874,0.813-1.266l0.858,2.802c-0.753,0.874-1.611,1.718-2.576,2.531c-1.928,1.597-3.419,2.244-4.474,1.943
					l-0.271-0.136c-1.928,2.561-3.916,4.368-5.966,5.423c-2.108,1.055-4.835,1.582-8.179,1.582c-3.284,0-6.433-1.055-9.446-3.164
					c-2.018-1.416-3.871-3.208-5.559-5.378c-0.783,0.572-1.476,0.829-2.079,0.769c-1.355-0.181-2.561-1.024-3.615-2.53l-1.22-2.26
					l1.13-1.311l1.401,1.672c1.145,0.994,2.154,1.28,3.028,0.858c2.048-2.108,4.022-3.992,5.92-5.648
					C81.71,94.767,85.311,93.154,88.866,93.154z M98.13,101.334c-1.656-2.199-3.464-3.69-5.423-4.474
					c1.507,1.506,2.26,3.841,2.26,7.005c0,1.416-0.165,2.771-0.497,4.067c-0.392,1.506-0.949,2.666-1.672,3.479
					c4.128-0.633,6.975-2.29,8.541-4.972C100.104,104.271,99.034,102.569,98.13,101.334z M89.589,98.984
					c-1.386,0.12-2.305,0.768-2.757,1.943c-0.12,0.361-0.301,1.521-0.542,3.479c-0.121,1.235,0.12,2.365,0.724,3.389
					c0.662,1.146,1.581,1.778,2.756,1.898c1.115,0.151,1.974-0.406,2.576-1.672c0.452-0.994,0.678-2.199,0.678-3.615
					c0-1.507-0.211-2.727-0.633-3.66C91.818,99.481,90.885,98.894,89.589,98.984z M83.804,103.865
					c0.091-1.718,0.181-2.983,0.271-3.797c0.181-1.386,0.558-2.425,1.13-3.118c-1.507,0.724-3.344,2.064-5.514,4.022
					c-1.175,1.055-2.802,2.546-4.88,4.474c0.693,1.507,1.837,2.757,3.434,3.751c2.169,1.386,5.032,2.185,8.586,2.396
					c-1.115-0.783-1.943-1.913-2.485-3.39C83.835,106.787,83.654,105.341,83.804,103.865z"/>
			</g>
		</g>
		<g>
			<path style="fill-rule:evenodd;clip-rule:evenodd;fill:none;stroke:#3B2314;stroke-miterlimit:10;" d="M93.068,89.584
				c-0.09-1.777-0.603-3.043-1.536-3.796c-0.481-0.362-1.039-1.16-1.672-2.396l-0.813-1.762l-3.39,8.631l0.181,0.046l-0.316,0.632
				l1.265,0.227c0.964,0.15,1.838,0.136,2.621-0.045c1.507-0.302,2.923-0.332,4.248-0.091
				C93.506,90.578,93.311,90.097,93.068,89.584z"/>
			<path style="fill-rule:evenodd;clip-rule:evenodd;fill:none;stroke:#3B2314;stroke-miterlimit:10;" d="M99.215,94.013
				l5.288,5.921l-0.046-1.491l0.046,0.09c0.09-0.633,0.195-1.325,0.315-2.079c0.241-1.476,0.452-2.455,0.633-2.938
				c0.302-0.783,0.513-1.491,0.633-2.124c0.211-1.235,0.437-2.561,0.678-3.977l-3.299,2.033l-4.203,3.933l0.271,0.316L99.215,94.013
				z"/>
			<path style="fill-rule:evenodd;clip-rule:evenodd;fill:none;stroke:#3B2314;stroke-miterlimit:10;" d="M89.996,100.565
				c1.325-0.12,2.274,0.452,2.847,1.718c0.12,0.633,0.181,1.341,0.181,2.124l-0.045,0.858c-0.422,2.501-1.446,3.646-3.073,3.435
				c-0.813-0.09-1.521-0.437-2.124-1.039c-0.542-0.572-0.934-1.28-1.175-2.124c0.15-1.597,0.361-2.666,0.633-3.209
				C87.721,101.243,88.64,100.656,89.996,100.565z M83.308,103.865c0,0.843,0.015,1.416,0.045,1.717c0,1.235,0.452,2.832,1.355,4.79
				c-4.067-0.603-6.989-2.033-8.767-4.293c5.905-5.453,8.601-7.668,8.089-6.644C83.548,100.581,83.308,102.058,83.308,103.865z
				 M95.645,102.735c-0.06-1.477-0.15-2.411-0.271-2.802c2.5,2.139,4.368,4.218,5.604,6.236c-1.325,1.838-3.329,3.118-6.011,3.841
				c0.392-1.386,0.588-2.561,0.588-3.524c0-0.151,0.06-0.769,0.181-1.854C95.796,103.88,95.766,103.247,95.645,102.735z
				 M89.001,91.663c-3.524,0-7.125,1.672-10.8,5.017c-1.898,1.687-3.871,3.615-5.92,5.784c-0.904,0.452-1.913,0.166-3.027-0.858
				l-1.401-1.718l-1.13,1.355l0.271,0.633l-0.226,0.362l-0.181,0.181v0.045l-0.407,0.633l1.22,2.802
				c1.084,1.868,2.335,2.877,3.75,3.027c0.513,0.091,1.235-0.165,2.17-0.768c1.717,2.229,3.63,4.067,5.739,5.513
				c3.133,2.17,6.387,3.254,9.762,3.254c3.555,0,6.447-0.572,8.677-1.717c2.139-1.115,4.232-3.043,6.281-5.784
				c1.115,0.181,2.606-0.543,4.475-2.169c0.934-0.784,1.747-1.598,2.439-2.441l-0.813-1.4l-0.135-0.542l0.361-0.407l-0.858-2.847
				c-0.151,0.422-0.422,0.858-0.814,1.311c-0.813,0.934-1.883,1.536-3.208,1.808c-0.361,0.09-1.069-0.422-2.124-1.537
				c-1.386-1.626-2.53-2.907-3.435-3.841C95.961,93.561,92.406,91.663,89.001,91.663z"/>
			<path style="fill-rule:evenodd;clip-rule:evenodd;fill:none;stroke:#3B2314;stroke-miterlimit:10;" d="M69.84,88.318l1.626,9.626
				v0.316l0.091,0.136l0.045,0.316l0.136-0.136l0.723,0.769l5.649-4.564l-2.305-1.898c-1.296-1.506-2.154-2.365-2.576-2.575
				c-0.512-0.271-1.295-0.874-2.35-1.808l-1.4-1.356L69.84,88.318z"/>
		</g>
	</g>
</g>
<g id="Letters">
	
		<use xlink:href="#Letters_x2F_digit_1"  width="9.95" height="26.35" y="-26.35" transform="matrix(1 0 0 -1 72.1499 31.3999)" style="overflow:visible;"/>
	
		<use xlink:href="#Letters_x2F_digit_1"  width="9.95" height="26.35" y="-26.35" transform="matrix(1 0 0 -1 85.3501 31.3999)" style="overflow:visible;"/>
</g>
<g id="highlight">
	
		<use xlink:href="#zz_x5F_Highlight_x2F_Highlight_Piece"  width="118.7" height="115.9" y="-115.9" transform="matrix(1 0 0 -1 27.25 28.1001)" style="overflow:visible;"/>
</g>
</svg>
