<?xml version="1.0" encoding="UTF-8" standalone="no"?>
<!-- Created with Inkscape (http://www.inkscape.org/) -->

<svg
   xmlns:dc="http://purl.org/dc/elements/1.1/"
   xmlns:cc="http://creativecommons.org/ns#"
   xmlns:rdf="http://www.w3.org/1999/02/22-rdf-syntax-ns#"
   xmlns:svg="http://www.w3.org/2000/svg"
   xmlns="http://www.w3.org/2000/svg"
   xmlns:sodipodi="http://sodipodi.sourceforge.net/DTD/sodipodi-0.dtd"
   xmlns:inkscape="http://www.inkscape.org/namespaces/inkscape"
   id="svg2"
   version="1.1"
   inkscape:version="0.48.5 r10040"
   width="999.9"
   height="999.9"
   xml:space="preserve"
   sodipodi:docname="black cat.ai"><metadata
     id="metadata8"><rdf:RDF><cc:Work
         rdf:about=""><dc:format>image/svg+xml</dc:format><dc:type
           rdf:resource="http://purl.org/dc/dcmitype/StillImage" /><dc:title></dc:title></cc:Work></rdf:RDF></metadata><defs
     id="defs6"><clipPath
       clipPathUnits="userSpaceOnUse"
       id="clipPath18"><path
         d="m 0,799.92 799.92,0 L 799.92,0 0,0 0,799.92 z"
         id="path20" /></clipPath><clipPath
       clipPathUnits="userSpaceOnUse"
       id="clipPath288"><path
         d="m 0,799.92 799.92,0 L 799.92,0 0,0 0,799.92 z"
         id="path290" /></clipPath></defs><sodipodi:namedview
     pagecolor="#ffffff"
     bordercolor="#666666"
     borderopacity="1"
     objecttolerance="10"
     gridtolerance="10"
     guidetolerance="10"
     inkscape:pageopacity="0"
     inkscape:pageshadow="2"
     inkscape:window-width="1366"
     inkscape:window-height="722"
     id="namedview4"
     showgrid="false"
     inkscape:zoom="0.47204719"
     inkscape:cx="499.95001"
     inkscape:cy="526.81065"
     inkscape:window-x="0"
     inkscape:window-y="27"
     inkscape:window-maximized="1"
     inkscape:current-layer="g10" /><g
     id="g10"
     inkscape:groupmode="layer"
     inkscape:label="black cat"
     transform="matrix(1.25,0,0,-1.25,0,999.9)"><g
       id="g292"
       transform="matrix(1.310528,0,0,1.310528,12.479539,752.91515)"><path
         d="m 0,0 c 5.273,6.385 47.108,-19.736 54.685,-27.503 5.023,2.728 10.787,4.977 17.339,6.61 5.737,1.43 12.763,1.866 20.083,1.256 2.69,14.209 15.041,40.197 37.891,51.05 8.225,3.243 3.138,-30.583 4.475,-43.282 0.912,-8.676 0.984,-17.585 -2.153,-25.129 4.169,-4.872 6.764,-10.788 6.916,-17.796 0.64,-29.424 22.817,-45.538 7.558,-61.314 -8.825,-9.124 -28.081,-13.455 -48.154,-12.731 -5.486,-72.608 46.423,-68.004 121.151,-108.596 76.115,-41.347 81.753,-143.774 83.632,-171.965 1.334,-20 5.72,-48.028 15.515,-63.874 9.683,-15.664 25.765,-15.934 42.38,-13.609 48.824,6.829 85.765,51.377 77.713,102.546 -10.126,64.345 -121.804,181.05 -106.574,275.178 5.785,35.75 44.148,77.952 97.008,76.215 34.937,-1.148 35.619,-33.95 5.973,-32.366 -45.022,2.406 -73.683,-24.124 -79.405,-52.448 -19.103,-94.579 78.477,-191.607 92.186,-258.327 14.461,-70.379 -35.064,-115.38 -98.208,-122.627 -26.059,-2.991 -129.413,-8.972 -149.547,-4.932 -15.185,3.046 -37.467,-9.388 -54.845,-5.965 -17.378,3.424 -24.699,27.916 11.408,20.652 18.528,-3.726 30.853,-4.94 42.343,-3.474 -38.406,19.483 -44.649,69.61 -49.117,100.886 -0.91,6.375 -2.513,12.025 -4.653,17.123 -18.514,-28.785 -55.065,-90.045 -70.126,-131.976 -3.78,-10.522 -42.972,-3.797 -43.273,-3.463 -4.628,5.135 -2.398,23.785 16.565,17.768 10.739,-3.407 15.696,16.73 25.489,41.161 8.656,21.598 31.058,98.519 26.43,119.981 -29.787,18.457 -61.113,37.118 -57.847,96.128 1.716,31.003 39.722,89.632 13.658,116.072 -5.133,2.69 -9.613,5.921 -13.122,9.703 -7.47,8.051 -12.394,17.774 -14.419,27.827 C 10.683,-65.893 -8.475,-28.507 0,0"
         style="fill:#000000;fill-opacity:1;fill-rule:evenodd;stroke:none"
         id="path294"
         inkscape:connector-curvature="0" /></g><g
       id="g296"
       transform="matrix(1.310528,0,0,1.310528,180.21939,624.78417)"><path
         d="M 0,0 C 5.167,3.986 11.343,8.307 18.526,5.913 L 13.008,-5.518 0,0 z"
         style="fill:#f0d9f7;fill-opacity:1;fill-rule:evenodd;stroke:none"
         id="path298"
         inkscape:connector-curvature="0" /></g><g
       id="g300"
       transform="matrix(1.310528,0,0,1.310528,175.57108,596.88998)"><path
         d="M 0,0 C 12.22,-3.153 16.997,11.392 15.814,19.275 17.785,12.969 22.928,8.893 25.409,12.478 24.397,8.893 20.025,9.77 17.275,13.135 18.112,6.549 10.057,-4.45 0,0"
         style="fill:#f0d9f7;fill-opacity:1;fill-rule:evenodd;stroke:none"
         id="path302"
         inkscape:connector-curvature="0" /></g><g
       id="g304"
       transform="matrix(1.310528,0,0,1.310528,180.39985,663.28919)"><path
         d="M 0,0 C -4.761,15.742 1.667,24.716 9.934,17.282 12.669,4.966 13.024,-7.371 0,0"
         style="fill:#ffffff;fill-opacity:1;fill-rule:evenodd;stroke:none"
         id="path306"
         inkscape:connector-curvature="0" /></g><g
       id="g308"
       transform="matrix(1.310528,0,0,1.310528,98.314012,665.46624)"><path
         d="M 0,0 C 2.562,-18.441 31.759,-20.49 39.955,-7.685 37.906,6.146 15.368,20.49 0,0"
         style="fill:#ffffff;fill-opacity:1;fill-rule:evenodd;stroke:none"
         id="path310"
         inkscape:connector-curvature="0" /></g><g
       id="g312"
       transform="matrix(1.310528,0,0,1.310528,128.26416,676.36957)"><path
         d="M 0,0 C 2.722,-0.177 4.692,-5.49 4.401,-11.866 4.11,-18.241 1.667,-23.267 -1.055,-23.09 -3.776,-22.913 -5.748,-17.6 -5.456,-11.225 -5.165,-4.849 -2.723,0.177 0,0"
         style="fill:#000000;fill-opacity:1;fill-rule:evenodd;stroke:none"
         id="path314"
         inkscape:connector-curvature="0" /></g><g
       id="g316"
       transform="matrix(1.310528,0,0,1.310528,184.48372,687.89042)"><path
         d="m 0,0 c 1.392,0.784 3.431,-2.827 4.555,-8.065 1.124,-5.237 0.907,-10.12 -0.485,-10.904 -1.39,-0.784 -3.43,2.827 -4.554,8.065 C -1.608,-5.667 -1.392,-0.784 0,0"
         style="fill:#000000;fill-opacity:1;fill-rule:evenodd;stroke:none"
         id="path318"
         inkscape:connector-curvature="0" /></g><g
       id="g320"
       transform="matrix(1.310528,0,0,1.310528,234.93525,627.01168)"><path
         d="m 0,0 c -5.585,-1.126 -11.339,-2.157 -17.443,-3.188 6.075,0.083 11.855,0.4 17.443,1.071 L 0,0 z M 0,7.312 0,4.278 C -4.454,2.208 -9.774,1.006 -17.443,-0.075 -10.065,2.51 -4.809,4.666 0,7.312 M -16.685,-6.773 c 6.613,0.701 11.918,1.274 16.685,1.546 l 0,-2.176 c -5.42,0.228 -10.929,0.405 -16.685,0.63 M 0,4.278 c 6.169,2.868 10.674,7.4 17.443,15.585 C 10.51,14.079 5.555,10.368 0,7.312 L 0,4.278 z M 0,-2.117 0,0 C 13.04,2.629 25.162,5.776 38.679,10.643 25.951,3.202 13.541,-0.493 0,-2.117 m 0,-3.11 C 11.073,-4.595 19.239,-5.585 34.128,-10.359 22.198,-8.571 11.294,-7.878 0,-7.403 l 0,2.176 z"
         style="fill:#000000;fill-opacity:1;fill-rule:evenodd;stroke:none"
         id="path322"
         inkscape:connector-curvature="0" /></g><g
       id="g324"
       transform="matrix(1.310528,0,0,1.310528,141.47049,610.00679)"><path
         d="M 0,0 0,-2.499 C -12.537,-3.327 -24.866,-2.441 -38.206,0.874 -24.758,-0.222 -12.493,-0.397 0,0 M 0,8.718 0,5.963 c -5.116,1.749 -10.343,4.678 -17.427,9.17 C -10.582,12.25 -5.186,10.213 0,8.718 M 0,-9.44 c -9.035,-2.556 -18.002,-5.355 -27.353,-8.873 11.26,6.222 19.061,9.497 27.353,11.654 L 0,-9.44 z M 0,5.963 0,8.718 C 7.872,6.447 15.258,5.424 26.484,4.594 14.452,3.372 7.341,3.453 0,5.963 m 0,-8.462 c 8.87,0.587 17.844,2.031 27.353,4.08 C 17.788,0.849 8.837,0.281 0,0 L 0,-2.499 z M 27.517,-2.08 C 17.982,-4.607 8.958,-6.905 0,-9.44 l 0,2.781 c 7.695,2.002 15.815,3.042 27.517,4.579"
         style="fill:#f0d9f7;fill-opacity:1;fill-rule:evenodd;stroke:none"
         id="path326"
         inkscape:connector-curvature="0" /></g><g
       id="g328"
       transform="matrix(1.310528,0,0,1.310528,106.35764,515.46832)"><path
         d="M 0,0 C -7.003,2.426 -11.861,7.513 -10.042,15.011 -9.329,8.381 -5.3,4.074 0,1.84 L 0,0 z m 0,-25.839 c -0.376,-0.226 -0.764,-0.444 -1.165,-0.651 -15.234,-7.863 -11.266,14.53 1.165,22.93 l 0,-1.676 c -11.563,-9.35 -13.117,-26.876 -0.52,-18.538 0.177,0.117 0.349,0.236 0.52,0.357 l 0,-2.422 z m 12.309,25.95 c 3.145,0.286 6.247,1.081 9.02,2.352 l 0,-2.178 c -2.016,-0.769 -4.196,-1.304 -6.437,-1.612 2.306,-0.247 4.463,-0.958 6.437,-1.99 l 0,-1.904 c -2.667,1.742 -5.783,3.068 -9.294,3.63 -0.446,-0.023 -0.894,-0.04 -1.342,-0.045 L 10.69,-1.712 c 2.248,-7.134 4.582,-14.634 10.639,-19.453 l 0,-2.471 c -3.914,2.731 -6.432,6.514 -8.13,10.729 2.435,-8.735 5.475,-16.208 8.13,-23.573 l 0,-6.419 c -3.721,12.448 -8.647,21.485 -10.702,34.482 0.576,-20.596 7.644,-38.524 2.675,-56.301 l -4.268,-10.186 -0.002,10e-4 c 3.941,13.243 3.944,11.749 4.185,20.803 0.44,16.586 -4.123,26.785 -4.298,40.572 C 7.518,-18.498 4.775,-22.953 0,-25.839 l 0,2.422 C 7.204,-18.301 8.586,-9.756 9.337,-1.673 9.144,-1.66 8.959,-1.637 8.789,-1.607 8.022,-1.575 7.261,-1.517 6.507,-1.434 4.079,-2.378 1.903,-3.696 0,-5.236 l 0,1.676 c 1.499,1.014 3.121,1.824 4.848,2.352 C 3.161,-0.934 1.529,-0.53 0,0 L 0,1.84 C 2.78,0.668 5.911,0.067 9.095,0.001 c 0.335,-0.007 2.211,0.02 3.214,0.11 m 9.02,-36.591 c 5.818,-16.139 9.785,-31.759 1.458,-58.993 l -10e-4,0 c 3.368,17.583 4.423,27.762 0.418,45.449 -0.569,2.515 -1.202,4.875 -1.875,7.125 l 0,6.419 z m 0,33.163 c 13.592,-7.11 18.432,-29.54 2.899,-22.014 -1.043,0.506 -2.007,1.073 -2.899,1.695 l 0,2.471 c 0.666,-0.529 1.375,-1.027 2.136,-1.488 12.91,-7.824 10.249,9.338 -2.136,17.432 l 0,1.904 z m 0,5.78 C 27.021,5.071 31.332,9.682 31.81,16 32.195,14.7 32.303,14.758 32.212,13.341 31.798,6.856 27.28,2.554 21.329,0.285 l 0,2.178 z"
         style="fill:#f0d9f7;fill-opacity:1;fill-rule:evenodd;stroke:none"
         id="path330"
         inkscape:connector-curvature="0" /></g><g
       id="g332"
       transform="matrix(1.310528,0,0,1.310528,87.997405,684.90779)"><path
         d="M 0,0 C 3.655,12.942 18.466,20.808 30.954,15.021 17.028,16.858 7.656,12.042 0,0"
         style="fill:#f0d9f7;fill-opacity:1;fill-rule:evenodd;stroke:none"
         id="path334"
         inkscape:connector-curvature="0" /></g><g
       id="g336"
       transform="matrix(1.310528,0,0,1.310528,185.48837,704.45563)"><path
         d="M 0,0 C -4.495,4.969 -7.335,6.244 -13.448,4.548 -9.324,10.087 -0.623,6.33 0,0"
         style="fill:#f0d9f7;fill-opacity:1;fill-rule:evenodd;stroke:none"
         id="path338"
         inkscape:connector-curvature="0" /></g></g></svg>