<?xml version="1.0" encoding="UTF-8" standalone="no"?>
<!-- Created with Inkscape (http://www.inkscape.org/) -->

<svg
   xmlns:dc="http://purl.org/dc/elements/1.1/"
   xmlns:cc="http://creativecommons.org/ns#"
   xmlns:rdf="http://www.w3.org/1999/02/22-rdf-syntax-ns#"
   xmlns:svg="http://www.w3.org/2000/svg"
   xmlns="http://www.w3.org/2000/svg"
   xmlns:sodipodi="http://sodipodi.sourceforge.net/DTD/sodipodi-0.dtd"
   xmlns:inkscape="http://www.inkscape.org/namespaces/inkscape"
   id="svg2"
   version="1.1"
   inkscape:version="0.48.5 r10040"
   width="500"
   height="500"
   xml:space="preserve"
   sodipodi:docname="halloween.ai"><metadata
     id="metadata8"><rdf:RDF><cc:Work
         rdf:about=""><dc:format>image/svg+xml</dc:format><dc:type
           rdf:resource="http://purl.org/dc/dcmitype/StillImage" /><dc:title></dc:title></cc:Work></rdf:RDF></metadata><defs
     id="defs6"><clipPath
       clipPathUnits="userSpaceOnUse"
       id="clipPath16"><path
         d="M 0,800 800,800 800,0 0,0 0,800 z"
         id="path18"
         inkscape:connector-curvature="0" /></clipPath><clipPath
       clipPathUnits="userSpaceOnUse"
       id="clipPath152"><path
         d="M 0,0 800,0 800,800 0,800 0,0 z"
         id="path154"
         inkscape:connector-curvature="0" /></clipPath><radialGradient
       fx="0"
       fy="0"
       cx="0"
       cy="0"
       r="1"
       gradientUnits="userSpaceOnUse"
       gradientTransform="matrix(537.16797,0,0,-537.16797,400,400)"
       spreadMethod="pad"
       id="radialGradient160"><stop
         style="stop-opacity:1;stop-color:#ffffff"
         offset="0"
         id="stop162" /><stop
         style="stop-opacity:1;stop-color:#666666"
         offset="1"
         id="stop164" /></radialGradient><clipPath
       clipPathUnits="userSpaceOnUse"
       id="clipPath172"><path
         d="M 0,800 800,800 800,0 0,0 0,800 z"
         id="path174"
         inkscape:connector-curvature="0" /></clipPath><clipPath
       clipPathUnits="userSpaceOnUse"
       id="clipPath308"><path
         d="M 0,800 800,800 800,0 0,0 0,800 z"
         id="path310"
         inkscape:connector-curvature="0" /></clipPath><clipPath
       clipPathUnits="userSpaceOnUse"
       id="clipPath316"><path
         d="m 25.3164,313.884 81.3636,0 0,-198.084 -81.3636,0 0,198.084 z"
         id="path318"
         inkscape:connector-curvature="0" /></clipPath><clipPath
       clipPathUnits="userSpaceOnUse"
       id="clipPath320"><path
         d="m 25.3164,313.884 81.3636,0 0,-198.084 -81.3636,0 0,198.084 z"
         id="path322"
         inkscape:connector-curvature="0" /></clipPath><clipPath
       clipPathUnits="userSpaceOnUse"
       id="clipPath432"><path
         d="m 580.304,720.13 c 0,0 -39.604,-24.935 -35.204,-64.539 l 0,0 c 1.493,-13.444 4.12,-6.478 7.982,0.488 l 0,0 c 2.956,5.33 6.635,10.661 11.087,6.847 l 0,0 c 10.268,-8.801 29.336,-30.804 33.736,-70.407 l 0,0 c 0,0 -32.269,-23.469 -44.004,-8.801 l 0,0 c -11.734,14.669 -16.135,3.556 -10.267,-4.823 l 0,0 c 5.867,-8.378 -24.936,-8.378 -16.135,-20.112 l 0,0 c 3.08,-4.108 13.887,-1.926 27.012,0.256 l 0,0 c 24.373,4.051 56.742,8.103 62.462,-28.126 l 0,0 c 8.801,-55.738 -16.134,-48.404 -32.269,-52.804 l 0,0 c -16.134,-4.401 -2.933,-22.002 -10.267,-26.403 l 0,0 c -3.438,-2.063 -10.099,0.709 -16.207,3.481 l 0,0 c -6.921,3.141 -13.13,6.283 -13.13,2.386 l 0,0 c 0,-7.334 24.936,-23.469 35.204,-13.201 l 0,0 c 10.267,10.267 10.267,30.803 36.669,19.069 l 0,0 c 26.403,-11.735 68.94,-33.737 107.077,10.267 l 0,0 c 38.137,44.003 -16.135,120.278 0,127.612 l 0,0 c 16.134,7.334 50.963,7.334 52.618,26.402 l 0,0 c 1.653,19.068 -15.948,14.668 -26.216,8.801 l 0,0 c -5.631,-3.217 -5.085,1.064 -4.897,5.345 l 0,0 c 0.156,3.526 0.071,7.052 -3.904,6.389 l 0,0 c -8.801,-1.467 -16.134,-20.535 -30.802,-24.935 l 0,0 c 0,0 -13.201,105.609 -68.94,110.01 l 0,0 c -4.671,0.369 -9.026,0.535 -13.073,0.535 l 0,0 c -36.808,0.001 -48.532,-13.737 -48.532,-13.737"
         id="path434"
         inkscape:connector-curvature="0" /></clipPath><linearGradient
       x1="0"
       y1="0"
       x2="1"
       y2="0"
       gradientUnits="userSpaceOnUse"
       gradientTransform="matrix(250.87012,0,0,-250.87012,525.90625,587.45801)"
       spreadMethod="pad"
       id="linearGradient440"><stop
         style="stop-opacity:1;stop-color:#afab98"
         offset="0"
         id="stop442" /><stop
         style="stop-opacity:1;stop-color:#ffffcc"
         offset="1"
         id="stop444" /></linearGradient><clipPath
       clipPathUnits="userSpaceOnUse"
       id="clipPath452"><path
         d="M 0,800 800,800 800,0 0,0 0,800 z"
         id="path454"
         inkscape:connector-curvature="0" /></clipPath><clipPath
       clipPathUnits="userSpaceOnUse"
       id="clipPath460"><path
         d="m 525.906,733.815 196.568,0 0,-292.766 -196.568,0 0,292.766 z"
         id="path462"
         inkscape:connector-curvature="0" /></clipPath><clipPath
       clipPathUnits="userSpaceOnUse"
       id="clipPath504"><path
         d="m 525.906,679.317 87.985,0 0,-238.268 -87.985,0 0,238.268 z"
         id="path506"
         inkscape:connector-curvature="0" /></clipPath><clipPath
       clipPathUnits="userSpaceOnUse"
       id="clipPath508"><path
         d="m 525.906,590.869 84.719,0 0,-42.759 -84.719,0 0,42.759 z"
         id="path510"
         inkscape:connector-curvature="0" /></clipPath><clipPath
       clipPathUnits="userSpaceOnUse"
       id="clipPath512"><path
         d="m 545.101,480.827 68.79,0 0,-39.778 -68.79,0 0,39.778 z"
         id="path514"
         inkscape:connector-curvature="0" /></clipPath><clipPath
       clipPathUnits="userSpaceOnUse"
       id="clipPath516"><path
         d="m 544.759,679.317 53.722,0 0,-86.798 -53.722,0 0,86.798 z"
         id="path518"
         inkscape:connector-curvature="0" /></clipPath><clipPath
       clipPathUnits="userSpaceOnUse"
       id="clipPath568"><path
         d="m 274.83,742.502 141.297,0 0,-139.143 -141.297,0 0,139.143 z"
         id="path570"
         inkscape:connector-curvature="0" /></clipPath><clipPath
       clipPathUnits="userSpaceOnUse"
       id="clipPath648"><path
         d="m 338.866,567.069 148.896,0 0,-138.314 -148.896,0 0,138.314 z"
         id="path650"
         inkscape:connector-curvature="0" /></clipPath><clipPath
       clipPathUnits="userSpaceOnUse"
       id="clipPath664"><path
         d="m 135.864,303.471 -44.56,10.413 -48.534,-19.67 -17.454,-55.537 8.151,-74.047 27.376,-40.14 87.318,-16.555 87.648,25.571 19.129,56.578 1.402,69.42 -20.531,43.967 -32.56,12.726 -67.385,-12.726 z"
         id="path666"
         inkscape:connector-curvature="0" /></clipPath><linearGradient
       x1="0"
       y1="0"
       x2="1"
       y2="0"
       gradientUnits="userSpaceOnUse"
       gradientTransform="matrix(231.02344,0,0,-231.02344,25.316406,212.06641)"
       spreadMethod="pad"
       id="linearGradient672"><stop
         style="stop-opacity:1;stop-color:#000000"
         offset="0"
         id="stop674" /><stop
         style="stop-opacity:1;stop-color:#a65300"
         offset="0.5"
         id="stop676" /><stop
         style="stop-opacity:1;stop-color:#a65300"
         offset="1"
         id="stop678" /></linearGradient><clipPath
       clipPathUnits="userSpaceOnUse"
       id="clipPath686"><path
         d="M 0,800 800,800 800,0 0,0 0,800 z"
         id="path688"
         inkscape:connector-curvature="0" /></clipPath><clipPath
       clipPathUnits="userSpaceOnUse"
       id="clipPath694"><path
         d="m 25.3164,313.884 115.5626,0 0,-204.568 -115.5626,0 0,204.568 z"
         id="path696"
         inkscape:connector-curvature="0" /></clipPath><clipPath
       clipPathUnits="userSpaceOnUse"
       id="clipPath710"><path
         d="m 54.769,277.276 30.8404,0 0,-134.799 -30.8404,0 0,134.799 z"
         id="path712"
         inkscape:connector-curvature="0" /></clipPath><clipPath
       clipPathUnits="userSpaceOnUse"
       id="clipPath726"><path
         d="m 131.119,277.429 15.245,0 0,-142.155 -15.245,0 0,142.155 z"
         id="path728"
         inkscape:connector-curvature="0" /></clipPath><clipPath
       clipPathUnits="userSpaceOnUse"
       id="clipPath742"><path
         d="m 191.753,287.121 39.037,0 0,-134.616 -39.037,0 0,134.616 z"
         id="path744"
         inkscape:connector-curvature="0" /></clipPath><clipPath
       clipPathUnits="userSpaceOnUse"
       id="clipPath762"><path
         d="m 94.2437,362.713 44.4353,0 0,-83.538 -44.4353,0 0,83.538 z"
         id="path764"
         inkscape:connector-curvature="0" /></clipPath><clipPath
       clipPathUnits="userSpaceOnUse"
       id="clipPath898"><path
         d="m 34.3164,715.943 60.7622,0 0,-81.237 -60.7622,0 0,81.237 z"
         id="path900"
         inkscape:connector-curvature="0" /></clipPath><clipPath
       clipPathUnits="userSpaceOnUse"
       id="clipPath914"><path
         d="m 80.8296,622.422 51.1184,0 0,-167.422 -51.1184,0 0,167.422 z"
         id="path916"
         inkscape:connector-curvature="0" /></clipPath><clipPath
       clipPathUnits="userSpaceOnUse"
       id="clipPath966"><path
         d="m 138.045,681.422 12.372,0 0,-173.114 -12.372,0 0,173.114 z"
         id="path968"
         inkscape:connector-curvature="0" /></clipPath><clipPath
       clipPathUnits="userSpaceOnUse"
       id="clipPath1038"><path
         d="m 162.6,721.916 60.36,0 0,-279.867 -60.36,0 0,279.867 z"
         id="path1040"
         inkscape:connector-curvature="0" /></clipPath><clipPath
       clipPathUnits="userSpaceOnUse"
       id="clipPath1054"><path
         d="m 160.33,736.845 41.496,0 0,-26.791 -41.496,0 0,26.791 z"
         id="path1056"
         inkscape:connector-curvature="0" /></clipPath><clipPath
       clipPathUnits="userSpaceOnUse"
       id="clipPath1134"><path
         d="m 399.622,346.531 c 0,0 -69.427,-25.332 -71.304,-68.49 l 0,0 c -1.099,-25.27 6.928,-64.683 27.104,-90.008 l 0,0 c 14.957,4.92 65.373,18.854 96.622,-4.832 l 0,0 c 36.145,32.247 41.678,95.027 28.263,121.111 l 0,0 C 464.6,334.853 418.86,346.728 402.73,346.729 l 0,0 c -1.212,0 -2.255,-0.067 -3.108,-0.198"
         id="path1136"
         inkscape:connector-curvature="0" /></clipPath><linearGradient
       x1="0"
       y1="0"
       x2="1"
       y2="0"
       gradientUnits="userSpaceOnUse"
       gradientTransform="matrix(158.7627,0,0,-158.7627,328.21973,264.96484)"
       spreadMethod="pad"
       id="linearGradient1142"><stop
         style="stop-opacity:1;stop-color:#000000"
         offset="0"
         id="stop1144" /><stop
         style="stop-opacity:1;stop-color:#4d4d4d"
         offset="1"
         id="stop1146" /></linearGradient><clipPath
       clipPathUnits="userSpaceOnUse"
       id="clipPath1154"><path
         d="M 0,800 800,800 800,0 0,0 0,800 z"
         id="path1156"
         inkscape:connector-curvature="0" /></clipPath><clipPath
       clipPathUnits="userSpaceOnUse"
       id="clipPath1166"><path
         d="m 433.118,333.585 53.864,0 0,-150.384 -53.864,0 0,150.384 z"
         id="path1168"
         inkscape:connector-curvature="0" /></clipPath><clipPath
       clipPathUnits="userSpaceOnUse"
       id="clipPath1182"><path
         d="m 346.367,163.066 c -4.871,-29.826 26.062,-58.16 53.212,-56.669 l 0,0 c 27.151,1.491 37.911,8.949 37.911,8.949 l 0,0 c 0,0 47.295,32.808 15.832,58.159 l 0,0 c -13.415,10.81 -33.953,15.926 -53.474,15.926 l 0,0 c -26.262,10e-4 -50.687,-9.257 -53.481,-26.365"
         id="path1184"
         inkscape:connector-curvature="0" /></clipPath><linearGradient
       x1="0"
       y1="0"
       x2="1"
       y2="0"
       gradientUnits="userSpaceOnUse"
       gradientTransform="matrix(118.26563,0,0,-118.26563,345.85645,147.88672)"
       spreadMethod="pad"
       id="linearGradient1190"><stop
         style="stop-opacity:1;stop-color:#000000"
         offset="0"
         id="stop1192" /><stop
         style="stop-opacity:1;stop-color:#4d4d4d"
         offset="1"
         id="stop1194" /></linearGradient><clipPath
       clipPathUnits="userSpaceOnUse"
       id="clipPath1202"><path
         d="M 0,800 800,800 800,0 0,0 0,800 z"
         id="path1204"
         inkscape:connector-curvature="0" /></clipPath><clipPath
       clipPathUnits="userSpaceOnUse"
       id="clipPath1226"><path
         d="m 421.933,180.756 42.189,0 0,-71.266 -42.189,0 0,71.266 z"
         id="path1228"
         inkscape:connector-curvature="0" /></clipPath></defs><sodipodi:namedview
     pagecolor="#ffffff"
     bordercolor="#666666"
     borderopacity="1"
     objecttolerance="10"
     gridtolerance="10"
     guidetolerance="10"
     inkscape:pageopacity="0"
     inkscape:pageshadow="2"
     inkscape:window-width="1366"
     inkscape:window-height="722"
     id="namedview4"
     showgrid="false"
     inkscape:zoom="0.472"
     inkscape:cx="500"
     inkscape:cy="500"
     inkscape:window-x="0"
     inkscape:window-y="27"
     inkscape:window-maximized="1"
     inkscape:current-layer="g10" /><g
     id="g10"
     inkscape:groupmode="layer"
     inkscape:label="halloween"
     transform="matrix(1.25,0,0,-1.25,0,500)"><g
       id="g4376"
       transform="matrix(1.569114,0,0,1.569114,-842.63483,-189.22506)"><g
         transform="translate(598.8301,299.5176)"
         id="g344"><path
           inkscape:connector-curvature="0"
           id="path346"
           style="fill:#000000;fill-opacity:1;fill-rule:nonzero;stroke:none"
           d="m 0,0 c 0,0 23,48 82,33 l 9,-17.32 c 0,0 -3,-54.911 -83,-34.296 L 0,0 z" /></g><g
         transform="translate(604.4961,311.8506)"
         id="g348"><path
           inkscape:connector-curvature="0"
           id="path350"
           style="fill:#2c760c;fill-opacity:1;fill-rule:nonzero;stroke:none"
           d="M 0,0 10.334,-34.666 21.667,-36.333 7,7 0,0 z" /></g><g
         transform="translate(617.4961,324.8506)"
         id="g352"><path
           inkscape:connector-curvature="0"
           id="path354"
           style="fill:#2c760c;fill-opacity:1;fill-rule:nonzero;stroke:none"
           d="m 0,0 11.667,7.334 24,-55.913 L 22.334,-49.666 0,0 z" /></g><g
         transform="translate(642.1631,335.4209)"
         id="g356"><path
           inkscape:connector-curvature="0"
           id="path358"
           style="fill:#2c760c;fill-opacity:1;fill-rule:nonzero;stroke:none"
           d="m 0,0 10.667,1.43 21,-52.333 -10,-5 L 0,0 z" /></g><g
         transform="translate(665.1631,336.8506)"
         id="g360"><path
           inkscape:connector-curvature="0"
           id="path362"
           style="fill:#2c760c;fill-opacity:1;fill-rule:nonzero;stroke:none"
           d="M 0,0 9,-1 25,-27 17.333,-42.666 0,0 z" /></g><g
         transform="translate(686.4961,335.4209)"
         id="g364"><path
           inkscape:connector-curvature="0"
           id="path366"
           style="fill:#2c760c;fill-opacity:1;fill-rule:nonzero;stroke:none"
           d="m 0,0 16.334,38.764 5.333,-12 L 40,24.43 33.334,14.097 45,-0.903 36.667,-7.57 44.334,-16.236 9,-18.903 0,0 z" /></g><g
         transform="translate(591.1631,297.5176)"
         id="g368"><path
           inkscape:connector-curvature="0"
           id="path370"
           style="fill:#2c760c;fill-opacity:1;fill-rule:nonzero;stroke:none"
           d="M 0,0 9,-20.667 -5,-47 l -5.667,15 -12,1.667 5,11.666 -9,8 L -20.333,-4 -26.667,9.333 0,0 z" /></g><g
         transform="translate(634.3125,245.9092)"
         id="g372"><path
           inkscape:connector-curvature="0"
           id="path374"
           style="fill:#b060b3;fill-opacity:1;fill-rule:nonzero;stroke:none"
           d="m 0,0 c 0,0 44.578,29.083 87.216,-14.369 l -1.301,-19.476 c 0,0 -31.073,-45.373 -88.742,13.782 L 0,0 z" /></g><g
         transform="translate(645.5596,253.5078)"
         id="g376"><path
           inkscape:connector-curvature="0"
           id="path378"
           style="fill:#ad2b76;fill-opacity:1;fill-rule:nonzero;stroke:none"
           d="m 0,0 -9.167,-34.993 8.82,-7.309 L 9.616,2.349 0,0 z" /></g><g
         transform="translate(663.4189,257.8691)"
         id="g380"><path
           inkscape:connector-curvature="0"
           id="path382"
           style="fill:#ad2b76;fill-opacity:1;fill-rule:nonzero;stroke:none"
           d="M 0,0 13.778,0.21 5.262,-60.036 -6.699,-54.043 0,0 z" /></g><g
         transform="translate(689.9883,254.0967)"
         id="g384"><path
           inkscape:connector-curvature="0"
           id="path386"
           style="fill:#ad2b76;fill-opacity:1;fill-rule:nonzero;stroke:none"
           d="M 0,0 9.859,-4.316 0.636,-59.946 -10.507,-59.027 0,0 z" /></g><g
         transform="translate(710.3887,243.377)"
         id="g388"><path
           inkscape:connector-curvature="0"
           id="path390"
           style="fill:#ad2b76;fill-opacity:1;fill-rule:nonzero;stroke:none"
           d="M 0,0 7.172,-5.527 7.348,-36.056 -7.338,-45.465 0,0 z" /></g><g
         transform="translate(727.8789,231.0791)"
         id="g392"><path
           inkscape:connector-curvature="0"
           id="path394"
           style="fill:#ad2b76;fill-opacity:1;fill-rule:nonzero;stroke:none"
           d="M 0,0 34.085,24.649 32.412,11.624 46.87,0.111 35.808,-5.259 37.99,-24.136 27.407,-25.507 29.46,-36.895 -2.123,-20.829 0,0 z" /></g><g
         transform="translate(626.7217,248.1807)"
         id="g396"><path
           inkscape:connector-curvature="0"
           id="path398"
           style="fill:#ad2b76;fill-opacity:1;fill-rule:nonzero;stroke:none"
           d="m 0,0 -3.038,-22.336 -25.637,-15.237 2.945,15.761 -9.391,7.656 10.331,7.375 -3.539,11.51 8.875,2.409 1.51,14.683 L 0,0 z" /></g><g
         transform="translate(598.5117,193.0049)"
         id="g400"><path
           inkscape:connector-curvature="0"
           id="path402"
           style="fill:#000000;fill-opacity:1;fill-rule:nonzero;stroke:none"
           d="m 0,0 c 0,0 48.889,21.047 83.483,-29.045 l -4.605,-18.967 c 0,0 -38.361,-39.404 -85.089,28.726 L 0,0 z" /></g><g
         transform="translate(610.8906,198.5732)"
         id="g404"><path
           inkscape:connector-curvature="0"
           id="path406"
           style="fill:#ffc900;fill-opacity:1;fill-rule:nonzero;stroke:none"
           d="M 0,0 -15.006,-32.915 -7.562,-41.622 9.876,0.672 0,0 z" /></g><g
         transform="translate(629.2324,199.8213)"
         id="g408"><path
           inkscape:connector-curvature="0"
           id="path410"
           style="fill:#ffc900;fill-opacity:1;fill-rule:nonzero;stroke:none"
           d="M 0,0 13.612,-2.145 -5.062,-60.053 -15.824,-52.106 0,0 z" /></g><g
         transform="translate(654.7686,191.5693)"
         id="g412"><path
           inkscape:connector-curvature="0"
           id="path414"
           style="fill:#ffc900;fill-opacity:1;fill-rule:nonzero;stroke:none"
           d="M 0,0 8.978,-5.936 -9.605,-59.175 -20.428,-56.368 0,0 z" /></g><g
         transform="translate(673.0391,177.5254)"
         id="g416"><path
           inkscape:connector-curvature="0"
           id="path418"
           style="fill:#ffc900;fill-opacity:1;fill-rule:nonzero;stroke:none"
           d="M 0,0 6.124,-6.67 1.087,-36.78 -14.99,-43.545 0,0 z" /></g><g
         transform="translate(688.1738,162.4229)"
         id="g420"><path
           inkscape:connector-curvature="0"
           id="path422"
           style="fill:#ad2b76;fill-opacity:1;fill-rule:nonzero;stroke:none"
           d="M 0,0 37.792,18.47 33.921,5.921 46.201,-7.89 34.385,-11.293 33.313,-30.266 22.651,-29.811 22.73,-41.382 -5.646,-20.161 0,0 z" /></g><g
         transform="translate(591.4199,196.5381)"
         id="g424"><path
           inkscape:connector-curvature="0"
           id="path426"
           style="fill:#ad2b76;fill-opacity:1;fill-rule:nonzero;stroke:none"
           d="m 0,0 -6.806,-21.489 -27.861,-10.638 5.592,15.028 -7.946,9.145 11.437,5.504 -1.521,11.945 9.155,0.859 3.993,14.21 L 0,0 z" /></g></g></g></svg>