<?xml version="1.0" encoding="UTF-8" standalone="no"?>
<!-- Generator: Adobe Illustrator 15.1.0, SVG Export Plug-In . SVG Version: 6.00 Build 0)  -->

<svg
   xmlns:dc="http://purl.org/dc/elements/1.1/"
   xmlns:cc="http://creativecommons.org/ns#"
   xmlns:rdf="http://www.w3.org/1999/02/22-rdf-syntax-ns#"
   xmlns:svg="http://www.w3.org/2000/svg"
   xmlns="http://www.w3.org/2000/svg"
   xmlns:xlink="http://www.w3.org/1999/xlink"
   xmlns:sodipodi="http://sodipodi.sourceforge.net/DTD/sodipodi-0.dtd"
   xmlns:inkscape="http://www.inkscape.org/namespaces/inkscape"
   version="1.1"
   x="0px"
   y="0px"
   width="50"
   height="50"
   viewBox="0 0 50.000002 50"
   xml:space="preserve"
   id="svg2"
   inkscape:version="0.48.5 r10040"
   sodipodi:docname="hanging candy.svg"><metadata
     id="metadata906"><rdf:RDF><cc:Work
         rdf:about=""><dc:format>image/svg+xml</dc:format><dc:type
           rdf:resource="http://purl.org/dc/dcmitype/StillImage" /></cc:Work></rdf:RDF></metadata><defs
     id="defs904"><linearGradient
       inkscape:collect="always"
       xlink:href="#SVGID_1_"
       id="linearGradient4456"
       gradientUnits="userSpaceOnUse"
       gradientTransform="matrix(-0.6825,-0.7309,0.6693,-0.7484,2.326369e-4,4.478693e-4)"
       x1="-241.3486"
       y1="-77.707001"
       x2="-226.3669"
       y2="-77.707001" /><linearGradient
       inkscape:collect="always"
       xlink:href="#SVGID_2_"
       id="linearGradient4458"
       gradientUnits="userSpaceOnUse"
       gradientTransform="matrix(-0.6822,-0.7312,0.6367,-0.7835,-1.273155e-4,-7.882714e-4)"
       x1="-242.0386"
       y1="-75.769501"
       x2="-226.2076"
       y2="-75.769501" /><linearGradient
       inkscape:collect="always"
       xlink:href="#SVGID_3_"
       id="linearGradient4460"
       gradientUnits="userSpaceOnUse"
       gradientTransform="matrix(-0.6825,-0.7309,0.6693,-0.7484,2.326369e-4,4.478693e-4)"
       x1="-241.3486"
       y1="-79.179703"
       x2="-226.3669"
       y2="-79.179703" /><linearGradient
       inkscape:collect="always"
       xlink:href="#SVGID_4_"
       id="linearGradient4462"
       gradientUnits="userSpaceOnUse"
       gradientTransform="matrix(-0.4847,-0.8747,0.8076,-0.6057,1.02222e-4,-3.428459e-4)"
       x1="-263.85211"
       y1="-26.003401"
       x2="-248.0177"
       y2="-26.003401" /><linearGradient
       inkscape:collect="always"
       xlink:href="#SVGID_5_"
       id="linearGradient4464"
       gradientUnits="userSpaceOnUse"
       x1="101.1934"
       y1="233.0537"
       x2="117.8736"
       y2="240.51711" /><linearGradient
       inkscape:collect="always"
       xlink:href="#SVGID_6_"
       id="linearGradient4466"
       gradientUnits="userSpaceOnUse"
       x1="96.112297"
       y1="237.3613"
       x2="111.3014"
       y2="247.17821" /><linearGradient
       inkscape:collect="always"
       xlink:href="#SVGID_7_"
       id="linearGradient4468"
       gradientUnits="userSpaceOnUse"
       gradientTransform="matrix(1,0,0.1416,1,4.882813e-4,0)"
       x1="-1527.6406"
       y1="249.77541"
       x2="110.7593"
       y2="249.77541" /><linearGradient
       inkscape:collect="always"
       xlink:href="#SVGID_8_"
       id="linearGradient4470"
       gradientUnits="userSpaceOnUse"
       x1="95.1064"
       y1="238.918"
       x2="110.2955"
       y2="248.7348" /><linearGradient
       inkscape:collect="always"
       xlink:href="#SVGID_9_"
       id="linearGradient4472"
       gradientUnits="userSpaceOnUse"
       gradientTransform="matrix(-0.6825,-0.7309,0.6693,-0.7484,2.326369e-4,4.478693e-4)"
       x1="-241.3486"
       y1="-82.269501"
       x2="-226.3669"
       y2="-82.269501" /><linearGradient
       inkscape:collect="always"
       xlink:href="#SVGID_10_"
       id="linearGradient4474"
       gradientUnits="userSpaceOnUse"
       x1="102.2393"
       y1="232.8721"
       x2="115.7734"
       y2="243.5172" /><linearGradient
       inkscape:collect="always"
       xlink:href="#SVGID_11_"
       id="linearGradient4476"
       gradientUnits="userSpaceOnUse"
       x1="106.4404"
       y1="227.5303"
       x2="119.9746"
       y2="238.1754" /><linearGradient
       inkscape:collect="always"
       xlink:href="#SVGID_12_"
       id="linearGradient4478"
       gradientUnits="userSpaceOnUse"
       x1="106.7119"
       y1="227.1855"
       x2="120.2461"
       y2="237.8307" /><linearGradient
       inkscape:collect="always"
       xlink:href="#SVGID_13_"
       id="linearGradient4480"
       gradientUnits="userSpaceOnUse"
       x1="99.850601"
       y1="236.05569"
       x2="116.5308"
       y2="243.519" /><linearGradient
       inkscape:collect="always"
       xlink:href="#SVGID_14_"
       id="linearGradient4482"
       gradientUnits="userSpaceOnUse"
       gradientTransform="matrix(-0.8703,-0.4926,0.4205,-0.9111,-1.406074e-4,7.299185e-4)"
       x1="-190.8428"
       y1="-151.8145"
       x2="-187.7977"
       y2="-151.8145" /><linearGradient
       inkscape:collect="always"
       xlink:href="#SVGID_15_"
       id="linearGradient4484"
       gradientUnits="userSpaceOnUse"
       gradientTransform="matrix(-0.9992,0.04,-0.1303,-0.9956,-7.339716e-4,-1.215264e-4)"
       x1="-65.710899"
       y1="-201.7603"
       x2="-50.7239"
       y2="-201.7603" /><linearGradient
       inkscape:collect="always"
       xlink:href="#SVGID_16_"
       id="linearGradient4486"
       gradientUnits="userSpaceOnUse"
       gradientTransform="matrix(-0.9992,0.04,-0.1303,-0.9956,-7.339716e-4,-1.215264e-4)"
       x1="-65.710899"
       y1="-203.2227"
       x2="-50.7239"
       y2="-203.2227" /><linearGradient
       inkscape:collect="always"
       xlink:href="#SVGID_17_"
       id="linearGradient4488"
       gradientUnits="userSpaceOnUse"
       gradientTransform="matrix(-0.9992,0.0395,-0.1783,-0.9937,-7.082224e-4,-1.34103e-4)"
       x1="-60.369598"
       y1="-199.8623"
       x2="-44.532299"
       y2="-199.8623" /><linearGradient
       inkscape:collect="always"
       xlink:href="#SVGID_18_"
       id="linearGradient4490"
       gradientUnits="userSpaceOnUse"
       gradientTransform="matrix(-0.9992,0.04,-0.1303,-0.9956,-7.339716e-4,-1.215264e-4)"
       x1="-65.710899"
       y1="-206.3013"
       x2="-50.7239"
       y2="-206.3013" /><linearGradient
       inkscape:collect="always"
       xlink:href="#SVGID_19_"
       id="linearGradient4492"
       gradientUnits="userSpaceOnUse"
       x1="82.411598"
       y1="197.9492"
       x2="99.313904"
       y2="194.6109" /><linearGradient
       inkscape:collect="always"
       xlink:href="#SVGID_20_"
       id="linearGradient4494"
       gradientUnits="userSpaceOnUse"
       x1="83.8228"
       y1="205.0947"
       x2="100.7251"
       y2="201.75639" /><linearGradient
       inkscape:collect="always"
       xlink:href="#SVGID_21_"
       id="linearGradient4496"
       gradientUnits="userSpaceOnUse"
       x1="82.496597"
       y1="198.38091"
       x2="99.398903"
       y2="195.0426" /><linearGradient
       inkscape:collect="always"
       xlink:href="#SVGID_22_"
       id="linearGradient4498"
       gradientUnits="userSpaceOnUse"
       gradientTransform="matrix(0.6525,-0.7578,0.8502,0.5451,-2.736449e-4,-1.718998e-4)"
       x1="-1725.5571"
       y1="214.2139"
       x2="-87.1968"
       y2="214.2139" /><linearGradient
       inkscape:collect="always"
       xlink:href="#SVGID_23_"
       id="linearGradient4500"
       gradientUnits="userSpaceOnUse"
       x1="83.269501"
       y1="206.0029"
       x2="99.812202"
       y2="198.2373" /><linearGradient
       inkscape:collect="always"
       xlink:href="#SVGID_24_"
       id="linearGradient4502"
       gradientUnits="userSpaceOnUse"
       x1="84.656303"
       y1="208.957"
       x2="101.1989"
       y2="201.19141" /><linearGradient
       inkscape:collect="always"
       xlink:href="#SVGID_25_"
       id="linearGradient4504"
       gradientUnits="userSpaceOnUse"
       x1="83.755898"
       y1="214.416"
       x2="101.108"
       y2="209.29829" /><linearGradient
       inkscape:collect="always"
       xlink:href="#SVGID_26_"
       id="linearGradient4506"
       gradientUnits="userSpaceOnUse"
       gradientTransform="matrix(-0.9793,-0.2022,0.0676,-1.0071,-4.628301e-4,2.32622e-4)"
       x1="-112.085"
       y1="-186.4453"
       x2="-96.258102"
       y2="-186.4453" /><linearGradient
       inkscape:collect="always"
       xlink:href="#SVGID_27_"
       id="linearGradient4508"
       gradientUnits="userSpaceOnUse"
       x1="83.226097"
       y1="212.61909"
       x2="100.5782"
       y2="207.5014" /><linearGradient
       inkscape:collect="always"
       xlink:href="#SVGID_28_"
       id="linearGradient4510"
       gradientUnits="userSpaceOnUse"
       gradientTransform="matrix(-0.941,0.3384,-0.4157,-0.9132,2.424121e-4,3.963709e-4)"
       x1="8.9761"
       y1="-220.8774"
       x2="12.0048"
       y2="-220.8774" /><linearGradient
       inkscape:collect="always"
       xlink:href="#SVGID_29_"
       id="linearGradient4512"
       gradientUnits="userSpaceOnUse"
       x1="103.457"
       y1="159.03419"
       x2="89.929703"
       y2="153.2645" /><linearGradient
       inkscape:collect="always"
       xlink:href="#SVGID_30_"
       id="linearGradient4514"
       gradientUnits="userSpaceOnUse"
       x1="103.5205"
       y1="158.8857"
       x2="89.993202"
       y2="153.1161" /><linearGradient
       inkscape:collect="always"
       xlink:href="#SVGID_31_"
       id="linearGradient4516"
       gradientUnits="userSpaceOnUse"
       x1="103.498"
       y1="158.93851"
       x2="89.970802"
       y2="153.16879" /><linearGradient
       inkscape:collect="always"
       xlink:href="#SVGID_32_"
       id="linearGradient4518"
       gradientUnits="userSpaceOnUse"
       x1="103.1982"
       y1="159.6416"
       x2="89.670998"
       y2="153.87199" /><linearGradient
       inkscape:collect="always"
       xlink:href="#SVGID_33_"
       id="linearGradient4520"
       gradientUnits="userSpaceOnUse"
       x1="103.3076"
       y1="159.3867"
       x2="89.780296"
       y2="153.6171" /><linearGradient
       inkscape:collect="always"
       xlink:href="#SVGID_34_"
       id="linearGradient4522"
       gradientUnits="userSpaceOnUse"
       x1="84.149902"
       y1="156.5313"
       x2="104.5498"
       y2="156.5313" /><linearGradient
       inkscape:collect="always"
       xlink:href="#SVGID_35_"
       id="linearGradient4524"
       gradientUnits="userSpaceOnUse"
       x1="86.700203"
       y1="156.52541"
       x2="102.0498"
       y2="156.52541" /><linearGradient
       inkscape:collect="always"
       xlink:href="#SVGID_36_"
       id="linearGradient4526"
       gradientUnits="userSpaceOnUse"
       x1="103.3496"
       y1="159.28709"
       x2="89.822304"
       y2="153.5175" /><linearGradient
       inkscape:collect="always"
       xlink:href="#SVGID_37_"
       id="linearGradient4528"
       gradientUnits="userSpaceOnUse"
       x1="103.3311"
       y1="159.33009"
       x2="89.803802"
       y2="153.56039" /><linearGradient
       inkscape:collect="always"
       xlink:href="#SVGID_38_"
       id="linearGradient4530"
       gradientUnits="userSpaceOnUse"
       x1="103.1895"
       y1="159.66209"
       x2="89.662201"
       y2="153.8925" /><linearGradient
       inkscape:collect="always"
       xlink:href="#SVGID_39_"
       id="linearGradient4532"
       gradientUnits="userSpaceOnUse"
       x1="-683.6001"
       y1="154.9248"
       x2="-683.59912"
       y2="154.9248" /><radialGradient
       inkscape:collect="always"
       xlink:href="#SVGID_40_"
       id="radialGradient4534"
       gradientUnits="userSpaceOnUse"
       cx="93.450203"
       cy="154.5498"
       r="2.4000001" /><linearGradient
       inkscape:collect="always"
       xlink:href="#SVGID_41_"
       id="linearGradient4536"
       gradientUnits="userSpaceOnUse"
       x1="112.5518"
       y1="186.8398"
       x2="99.024498"
       y2="181.07021" /><linearGradient
       inkscape:collect="always"
       xlink:href="#SVGID_42_"
       id="linearGradient4538"
       gradientUnits="userSpaceOnUse"
       x1="111.3428"
       y1="189.6758"
       x2="97.815498"
       y2="183.9061" /><linearGradient
       inkscape:collect="always"
       xlink:href="#SVGID_43_"
       id="linearGradient4540"
       gradientUnits="userSpaceOnUse"
       x1="111.8486"
       y1="188.4893"
       x2="98.321297"
       y2="182.7196" /><linearGradient
       inkscape:collect="always"
       xlink:href="#SVGID_44_"
       id="linearGradient4542"
       gradientUnits="userSpaceOnUse"
       x1="94.399902"
       y1="185.1152"
       x2="110.8496"
       y2="185.1152" /><linearGradient
       inkscape:collect="always"
       xlink:href="#SVGID_45_"
       id="linearGradient4544"
       gradientUnits="userSpaceOnUse"
       x1="111.8086"
       y1="188.584"
       x2="98.281303"
       y2="182.8143" /><linearGradient
       inkscape:collect="always"
       xlink:href="#SVGID_46_"
       id="linearGradient4546"
       gradientUnits="userSpaceOnUse"
       x1="111.5488"
       y1="189.1924"
       x2="98.0215"
       y2="183.4227" /><linearGradient
       inkscape:collect="always"
       xlink:href="#SVGID_47_"
       id="linearGradient4548"
       gradientUnits="userSpaceOnUse"
       x1="92.5"
       y1="187.3242"
       x2="112.9004"
       y2="187.3242" /><linearGradient
       inkscape:collect="always"
       xlink:href="#SVGID_48_"
       id="linearGradient4550"
       gradientUnits="userSpaceOnUse"
       x1="111.6582"
       y1="188.9375"
       x2="98.130898"
       y2="183.16789" /><linearGradient
       inkscape:collect="always"
       xlink:href="#SVGID_49_"
       id="linearGradient4552"
       gradientUnits="userSpaceOnUse"
       x1="112.0176"
       y1="188.0938"
       x2="98.490303"
       y2="182.3241" /><linearGradient
       inkscape:collect="always"
       xlink:href="#SVGID_50_"
       id="linearGradient4554"
       gradientUnits="userSpaceOnUse"
       x1="111.7031"
       y1="188.83009"
       x2="98.175797"
       y2="183.06039" /><linearGradient
       inkscape:collect="always"
       xlink:href="#SVGID_51_"
       id="linearGradient4556"
       gradientUnits="userSpaceOnUse"
       x1="111.6816"
       y1="188.88091"
       x2="98.154404"
       y2="183.11121" /><linearGradient
       inkscape:collect="always"
       xlink:href="#SVGID_52_"
       id="linearGradient4558"
       gradientUnits="userSpaceOnUse"
       x1="111.54"
       y1="189.2119"
       x2="98.012703"
       y2="183.44231" /><linearGradient
       inkscape:collect="always"
       xlink:href="#SVGID_53_"
       id="linearGradient4560"
       gradientUnits="userSpaceOnUse"
       x1="111.8721"
       y1="188.4355"
       x2="98.344803"
       y2="182.66589" /><linearGradient
       inkscape:collect="always"
       xlink:href="#SVGID_54_"
       id="linearGradient4562"
       gradientUnits="userSpaceOnUse"
       x1="114.5791"
       y1="182.0869"
       x2="101.0518"
       y2="176.31731" /><radialGradient
       inkscape:collect="always"
       xlink:href="#SVGID_55_"
       id="radialGradient4564"
       gradientUnits="userSpaceOnUse"
       cx="101.7998"
       cy="184.09959"
       r="2.4000001" /><linearGradient
       inkscape:collect="always"
       xlink:href="#SVGID_56_"
       id="linearGradient4566"
       gradientUnits="userSpaceOnUse"
       x1="-675.25"
       y1="184.47459"
       x2="-675.24902"
       y2="184.47459" /><radialGradient
       inkscape:collect="always"
       xlink:href="#SVGID_57_"
       id="radialGradient4568"
       gradientUnits="userSpaceOnUse"
       cx="116.5498"
       cy="127"
       r="10.6381" /><radialGradient
       inkscape:collect="always"
       xlink:href="#SVGID_58_"
       id="radialGradient4570"
       gradientUnits="userSpaceOnUse"
       cx="116.5498"
       cy="127"
       r="10.6381" /><radialGradient
       inkscape:collect="always"
       xlink:href="#SVGID_59_"
       id="radialGradient4572"
       gradientUnits="userSpaceOnUse"
       cx="116.5498"
       cy="127"
       r="10.6381" /><radialGradient
       inkscape:collect="always"
       xlink:href="#SVGID_60_"
       id="radialGradient4574"
       gradientUnits="userSpaceOnUse"
       cx="116.5498"
       cy="127"
       r="10.6381" /><radialGradient
       inkscape:collect="always"
       xlink:href="#SVGID_61_"
       id="radialGradient4576"
       gradientUnits="userSpaceOnUse"
       cx="116.5498"
       cy="127"
       r="10.6381" /><radialGradient
       inkscape:collect="always"
       xlink:href="#SVGID_62_"
       id="radialGradient4578"
       gradientUnits="userSpaceOnUse"
       cx="111.9004"
       cy="133.84959"
       r="3.4770999" /><radialGradient
       inkscape:collect="always"
       xlink:href="#SVGID_63_"
       id="radialGradient4580"
       gradientUnits="userSpaceOnUse"
       cx="116.5"
       cy="126.6504"
       r="10.6381" /><radialGradient
       inkscape:collect="always"
       xlink:href="#SVGID_64_"
       id="radialGradient4582"
       gradientUnits="userSpaceOnUse"
       cx="117.7998"
       cy="133.34959"
       r="9.1901999" /><radialGradient
       inkscape:collect="always"
       xlink:href="#SVGID_65_"
       id="radialGradient4584"
       gradientUnits="userSpaceOnUse"
       gradientTransform="matrix(0.8954,0.4452,-0.4322,0.8692,69.5296,-35.3564)"
       cx="118.25"
       cy="132.25"
       r="8.9890003" /><radialGradient
       inkscape:collect="always"
       xlink:href="#SVGID_66_"
       id="radialGradient4586"
       gradientUnits="userSpaceOnUse"
       cx="109.5"
       cy="125.8496"
       fx="108.84"
       fy="125.8496"
       r="15.3003" /><linearGradient
       inkscape:collect="always"
       xlink:href="#SVGID_67_"
       id="linearGradient4588"
       gradientUnits="userSpaceOnUse"
       x1="108.3633"
       y1="126.9033"
       x2="131.6346"
       y2="139.37891" /><radialGradient
       inkscape:collect="always"
       xlink:href="#SVGID_68_"
       id="radialGradient4590"
       gradientUnits="userSpaceOnUse"
       cx="65.799797"
       cy="167.0498"
       r="10.6351" /><radialGradient
       inkscape:collect="always"
       xlink:href="#SVGID_69_"
       id="radialGradient4592"
       gradientUnits="userSpaceOnUse"
       cx="65.799797"
       cy="167.0498"
       r="10.6351" /><radialGradient
       inkscape:collect="always"
       xlink:href="#SVGID_70_"
       id="radialGradient4594"
       gradientUnits="userSpaceOnUse"
       cx="65.799797"
       cy="167.0498"
       r="10.6351" /><radialGradient
       inkscape:collect="always"
       xlink:href="#SVGID_71_"
       id="radialGradient4596"
       gradientUnits="userSpaceOnUse"
       cx="65.799797"
       cy="167.0498"
       r="10.6351" /><radialGradient
       inkscape:collect="always"
       xlink:href="#SVGID_72_"
       id="radialGradient4598"
       gradientUnits="userSpaceOnUse"
       cx="71.299797"
       cy="173.2002"
       r="3.4737" /><radialGradient
       inkscape:collect="always"
       xlink:href="#SVGID_73_"
       id="radialGradient4600"
       gradientUnits="userSpaceOnUse"
       cx="65.450203"
       cy="166.9502"
       r="10.6351" /><radialGradient
       inkscape:collect="always"
       xlink:href="#SVGID_74_"
       id="radialGradient4602"
       gradientUnits="userSpaceOnUse"
       cx="72.299797"
       cy="167.40041"
       r="9.1898003" /><radialGradient
       inkscape:collect="always"
       xlink:href="#SVGID_75_"
       id="radialGradient4604"
       gradientUnits="userSpaceOnUse"
       gradientTransform="matrix(0.6529,-0.7574,0.7349,0.6335,-97.7453,115.1282)"
       cx="71.350098"
       cy="166.7002"
       r="8.9877005" /><radialGradient
       inkscape:collect="always"
       xlink:href="#SVGID_76_"
       id="radialGradient4606"
       gradientUnits="userSpaceOnUse"
       cx="63"
       cy="173.5"
       r="15.3072" /><radialGradient
       inkscape:collect="always"
       xlink:href="#SVGID_77_"
       id="radialGradient4608"
       gradientUnits="userSpaceOnUse"
       gradientTransform="matrix(-0.8954,0.4453,0.4453,0.8954,207.6471,417.4866)"
       cx="-29.737801"
       cy="-233.1377"
       r="10.6381" /><radialGradient
       inkscape:collect="always"
       xlink:href="#SVGID_78_"
       id="radialGradient4610"
       gradientUnits="userSpaceOnUse"
       gradientTransform="matrix(-0.8954,0.4453,0.4453,0.8954,207.6471,417.4866)"
       cx="-29.737801"
       cy="-233.1377"
       r="10.6381" /><radialGradient
       inkscape:collect="always"
       xlink:href="#SVGID_79_"
       id="radialGradient4612"
       gradientUnits="userSpaceOnUse"
       gradientTransform="matrix(-0.8954,0.4453,0.4453,0.8954,207.6471,417.4866)"
       cx="-29.737801"
       cy="-233.1377"
       r="10.6381" /><radialGradient
       inkscape:collect="always"
       xlink:href="#SVGID_80_"
       id="radialGradient4614"
       gradientUnits="userSpaceOnUse"
       gradientTransform="matrix(-0.8951,0.4458,0.4458,0.8951,215.1823,432.0993)"
       cx="-30.7314"
       cy="-241.3569"
       r="3.4770999" /><radialGradient
       inkscape:collect="always"
       xlink:href="#SVGID_81_"
       id="radialGradient4616"
       gradientUnits="userSpaceOnUse"
       gradientTransform="matrix(-0.8954,0.4453,0.4453,0.8954,207.6471,417.4866)"
       cx="-29.737801"
       cy="-233.1377"
       r="10.6381" /><radialGradient
       inkscape:collect="always"
       xlink:href="#SVGID_82_"
       id="radialGradient4618"
       gradientUnits="userSpaceOnUse"
       gradientTransform="matrix(-0.8954,0.4453,0.4453,0.8954,207.6471,417.4866)"
       cx="-29.737801"
       cy="-233.1377"
       r="10.6381" /><radialGradient
       inkscape:collect="always"
       xlink:href="#SVGID_83_"
       id="radialGradient4620"
       gradientUnits="userSpaceOnUse"
       gradientTransform="matrix(-0.8954,0.4453,0.4453,0.8954,207.3874,416.9646)"
       cx="-29.938499"
       cy="-232.84621"
       r="10.6381" /><radialGradient
       inkscape:collect="always"
       xlink:href="#SVGID_84_"
       id="radialGradient4622"
       gradientUnits="userSpaceOnUse"
       gradientTransform="matrix(-0.8954,0.4452,0.4322,0.8692,208.0283,418.3609)"
       cx="-25.9023"
       cy="-237.0786"
       r="8.9890003" /><radialGradient
       inkscape:collect="always"
       xlink:href="#SVGID_85_"
       id="radialGradient4624"
       gradientUnits="userSpaceOnUse"
       gradientTransform="matrix(-0.8954,0.4453,0.4453,0.8954,209.4857,421.2773)"
       cx="-36.5835"
       cy="-235.24409"
       fx="-37.183498"
       fy="-235.24409"
       r="15.3003" /><radialGradient
       inkscape:collect="always"
       xlink:href="#SVGID_86_"
       id="radialGradient4626"
       gradientUnits="userSpaceOnUse"
       gradientTransform="matrix(-0.895,0.4461,0.4461,0.895,212.6131,426.5235)"
       cx="-25.5874"
       cy="-238.28909"
       r="9.1978998" /><linearGradient
       inkscape:collect="always"
       xlink:href="#SVGID_87_"
       id="linearGradient4628"
       gradientUnits="userSpaceOnUse"
       gradientTransform="matrix(-0.8813,0.4725,-0.4725,-0.8813,-5.776286e-4,-3.819466e-4)"
       x1="-29.862801"
       y1="-237.71919"
       x2="-3.4583001"
       y2="-237.71919" /></defs><sodipodi:namedview
     pagecolor="#ffffff"
     bordercolor="#666666"
     borderopacity="1"
     objecttolerance="10"
     gridtolerance="10"
     guidetolerance="10"
     inkscape:pageopacity="0"
     inkscape:pageshadow="2"
     inkscape:window-width="1366"
     inkscape:window-height="722"
     id="namedview902"
     showgrid="false"
     inkscape:zoom="2.675"
     inkscape:cx="47.5"
     inkscape:cy="100"
     inkscape:window-x="0"
     inkscape:window-y="27"
     inkscape:window-maximized="1"
     inkscape:current-layer="svg2" /><symbol
     id="price_x5F_tag_x5F_pt_x5F_mc_1_"
     transform="translate(0,-44.150005)"><g
       id="Layer_1_4_" /></symbol><symbol
     id="under_x5F_candy"
     viewBox="0 -3.35 75.2 4.25"
     transform="translate(0,-44.150005)"><g
       id="Layer_1_3_"><path
         style="fill:#8c423f;fill-rule:evenodd"
         d="m 20.5,0.65 c -1.233,-1 -2.683,-1.933 -4.35,-2.8 -0.7,-0.3 -1.283,-0.55 -1.75,-0.75 -1.2,0.066 -2.35,0.117 -3.45,0.15 C 3.65,-2.35 0,-1.833 0,-1.2 c 0,0.6 3.65,1.1 10.95,1.5 2.933,0.133 6.117,0.25 9.55,0.35 z m 7.55,-3.9 c 0.467,0.3 0.934,0.65 1.4,1.05 0.466,0.4 1.117,1.15 1.95,2.25 0.233,0.3 0.434,0.55 0.6,0.75 1.833,0.067 3.7,0.1 5.6,0.1 4,0 7.767,-0.033 11.3,-0.1 -1.533,-1.1 -3.217,-2.2 -5.05,-3.3 -0.533,-0.3 -1,-0.583 -1.4,-0.85 -1.6,0 -3.217,0 -4.85,0 -3.367,0 -6.55,0.033 -9.55,0.1 z m 31.65,0.3 c 0.9,0.5 2,1.483 3.3,2.95 0.1,0.1 0.2,0.2 0.3,0.3 0.3,0 0.583,0 0.85,0 7.367,-0.4 11.05,-0.9 11.05,-1.5 0,-0.633 -3.684,-1.15 -11.05,-1.55 -1.433,-0.1 -2.917,-0.167 -4.45,-0.2 z"
         id="path8"
         inkscape:connector-curvature="0" /><path
         style="fill:#ba9b91;fill-rule:evenodd"
         d="M 32,0.8 C 31.833,0.6 31.633,0.35 31.4,0.05 30.567,-1.05 29.917,-1.8 29.45,-2.2 c -0.467,-0.4 -0.934,-0.75 -1.4,-1.05 -4.967,0.033 -9.517,0.15 -13.65,0.35 0.467,0.2 1.05,0.45 1.75,0.75 1.667,0.867 3.117,1.8 4.35,2.8 3.567,0.1 7.4,0.15 11.5,0.15 z m 16.9,0 C 54.2,0.7 59,0.533 63.3,0.3 63.2,0.2 63.1,0.1 63,0 c -1.3,-1.467 -2.4,-2.45 -3.3,-2.95 -5.133,-0.2 -10.883,-0.333 -17.25,-0.4 0.4,0.267 0.867,0.55 1.4,0.85 1.833,1.1 3.517,2.2 5.05,3.3 z"
         id="path10"
         inkscape:connector-curvature="0" /><g
         id="g12"><path
           style="fill-opacity:0.49409999;fill-rule:evenodd"
           d="m 72,-2.15 c -1.5,0.267 -3.783,0.467 -6.85,0.6 -3.066,0.267 -6.617,0.533 -10.65,0.8 C 50.433,-0.517 44.583,-0.5 36.95,-0.7 29.317,-0.833 23.55,-0.983 19.65,-1.15 15.75,-1.317 12.733,-1.467 10.6,-1.6 8.467,-1.7 6.95,-1.983 6.05,-2.45 5.917,-2.383 5.783,-2.35 5.65,-2.35 1.883,-2.05 0,-1.667 0,-1.2 c 0,0.6 3.65,1.1 10.95,1.5 2.933,0.133 6.117,0.25 9.55,0.35 3.567,0.1 7.4,0.15 11.5,0.15 1.833,0.067 3.7,0.1 5.6,0.1 4,0 7.767,-0.033 11.3,-0.1 5.3,-0.1 10.1,-0.267 14.4,-0.5 0.3,0 0.583,0 0.85,0 7.367,-0.4 11.05,-0.9 11.05,-1.5 0,-0.267 -0.534,-0.5 -1.6,-0.7 -0.433,-0.067 -0.967,-0.15 -1.6,-0.25 z"
           id="path14"
           inkscape:connector-curvature="0" /><path
           style="fill-opacity:0.25100002;fill-rule:evenodd"
           d="m 72,-2.15 c -0.833,-0.1 -1.817,-0.2 -2.95,-0.3 -2.867,0.067 -6.767,0.217 -11.7,0.45 -4.967,0.267 -11.067,0.4 -18.3,0.4 C 31.817,-1.567 27.183,-1.617 25.15,-1.75 23.084,-1.917 21.1,-2.017 19.2,-2.05 17.266,-2.117 15.117,-2.167 12.75,-2.2 10.383,-2.267 8.8,-2.4 8,-2.6 c -0.7,0.067 -1.35,0.117 -1.95,0.15 0.9,0.467 2.417,0.75 4.55,0.85 2.133,0.133 5.15,0.283 9.05,0.45 3.9,0.167 9.667,0.316 17.3,0.45 7.633,0.2 13.483,0.184 17.55,-0.05 4.033,-0.267 7.583,-0.533 10.65,-0.8 3.067,-0.133 5.35,-0.333 6.85,-0.6 z"
           id="path16"
           inkscape:connector-curvature="0" /></g></g></symbol><g
     id="g55"
     transform="translate(-84.017051,-209.32135)"><path
       inkscape:connector-curvature="0"
       id="path57"
       d="m 119.2,215.15 c 0.533,0.566 1.366,1.183 2.5,1.85 0.066,0.066 0.166,0.134 0.3,0.2 0.767,0.6 1.217,1.149 1.35,1.649 0.101,0.2 0.117,0.351 0.051,0.45 -0.034,0.167 -0.067,0.334 -0.101,0.5 l -5.25,2.55 c 0.167,-0.3 0.767,-0.966 1.8,-2 0.9,-0.899 1.351,-1.483 1.351,-1.75 0,-0.233 -0.267,-0.533 -0.8,-0.899 -0.567,-0.4 -1.067,-0.601 -1.5,-0.601 -0.167,0 -0.534,0.267 -1.101,0.801 -0.8,0.733 -1.233,1.116 -1.3,1.149 l -1.1,0.7 -0.801,0.35 2.4,-5.35 v -0.8 c -1.033,1 -1.684,1.633 -1.95,1.899 -0.7,0.801 -1.149,1.5 -1.35,2.101 -0.101,0.3 -0.483,0.899 -1.15,1.8 -0.7,0.967 -1.116,1.45 -1.25,1.45 -0.166,0 -0.25,-0.117 -0.25,-0.351 0.101,-0.333 0.15,-1 0.15,-2 -0.101,-1.699 -0.117,-2.866 -0.05,-3.5 0.066,-0.666 -0.051,-1.55 -0.351,-2.649 -0.333,-1.167 -0.75,-1.851 -1.25,-2.05 0.767,-0.067 1.533,-0.034 2.3,0.1 0.534,0.134 0.95,0.366 1.25,0.7 l 0.051,0.05 c 0.166,0.2 0.25,0.616 0.25,1.25 0,0.533 -0.317,1.9 -0.95,4.1 -0.667,2.2 -1,3.434 -1,3.7 l 0.1,0.05 c 0.233,0 0.75,-0.983 1.55,-2.949 0.834,-2.034 1.567,-3.617 2.2,-4.75 0.033,-0.034 0.084,-0.051 0.15,-0.051 0.267,-0.1 0.717,-0.1 1.35,0 0.601,0.134 1.05,0.334 1.351,0.601 l 0.05,0.05 c 0.166,0.167 0.283,0.316 0.35,0.45 0,0.533 -0.333,1.333 -1,2.399 -0.967,1.467 -1.5,2.301 -1.6,2.5 l -0.05,0.101 c 0.767,-0.566 1.533,-1.351 2.3,-2.351 0.434,-0.566 0.767,-1.049 1,-1.449 z m -7.2,6.7 c 0.167,-0.1 0.333,-0.233 0.5,-0.399 0.134,-0.101 0.25,-0.2 0.35,-0.3 0.834,-0.767 1.4,-1.25 1.7,-1.45 v 0.25 c -0.033,0.066 -0.083,0.133 -0.149,0.2 -0.334,0.466 -0.617,0.866 -0.851,1.199 -0.3,0.434 -0.5,0.801 -0.6,1.101 -0.033,0.033 -0.066,0.083 -0.101,0.149 -0.033,0.101 -0.05,0.184 -0.05,0.25 0,0.334 0.316,0.5 0.95,0.5 0.467,0 1.267,-0.216 2.4,-0.649 1.166,-0.467 1.8,-0.7 1.899,-0.7 l 0.15,0.05 c -0.134,0.134 -0.75,0.55 -1.851,1.25 -0.6,0.334 -0.983,0.634 -1.149,0.9 -0.101,0.1 -0.15,0.2 -0.15,0.3 h 0.25 c 0.367,-0.134 0.917,-0.333 1.65,-0.6 1,-0.367 1.649,-0.567 1.95,-0.601 h 0.05 c -0.867,0.566 -1.584,1.017 -2.15,1.351 -0.3,0.166 -0.55,0.316 -0.75,0.449 -0.233,0 -0.467,-0.017 -0.7,-0.05 0.034,0 0.067,-0.017 0.101,-0.05 0.7,-0.333 1.066,-0.55 1.1,-0.65 h -0.25 c -0.866,0.233 -1.517,0.434 -1.95,0.601 -0.267,-0.066 -0.55,-0.15 -0.85,-0.25 0.5,-0.367 1,-0.834 1.5,-1.4 h -0.05 c -0.134,0.134 -0.634,0.367 -1.5,0.7 -0.334,0.134 -0.634,0.25 -0.9,0.35 -0.267,-0.1 -0.533,-0.216 -0.8,-0.35 -0.2,-0.066 -0.384,-0.15 -0.55,-0.25 0.2,-0.2 0.434,-0.483 0.7,-0.85 0.466,-0.634 0.75,-1.067 0.85,-1.301 -0.434,0.4 -0.833,0.75 -1.2,1.051 -0.133,0.133 -0.267,0.25 -0.399,0.35 -0.101,0.066 -0.2,0.15 -0.301,0.25 -0.133,0.066 -0.233,0.116 -0.3,0.15 -0.1,-0.067 -0.2,-0.134 -0.3,-0.2 -0.3,-0.2 -0.55,-0.4 -0.75,-0.601 -0.033,-0.166 -0.05,-0.35 -0.05,-0.55 0,-1 0.149,-1.6 0.45,-1.8 H 109.8 c -0.533,0.5 -0.899,1 -1.1,1.5 -0.667,-0.8 -1.033,-1.417 -1.101,-1.85 -0.033,-0.167 -0.033,-0.301 0,-0.4 h 0.051 c 0.133,0.733 0.449,1.1 0.949,1.1 0.367,0 0.75,-0.25 1.15,-0.75 0.267,-0.3 0.7,-0.916 1.3,-1.85 v 0.3 c -0.233,0.7 -0.467,1.283 -0.7,1.75 -0.066,0.233 -0.1,0.601 -0.1,1.101 0,0.366 0.05,0.633 0.15,0.8 0.1,0.166 0.3,0.25 0.6,0.25 0.233,0 0.5,-0.084 0.8,-0.25 0.067,-0.034 0.135,-0.067 0.201,-0.101 z M 97.2,254.3 c -0.534,-0.333 -1.217,-0.649 -2.05,-0.95 h -0.1 c -0.1,-0.033 -0.167,-0.066 -0.2,-0.1 -0.267,-0.1 -0.517,-0.184 -0.75,-0.25 -0.133,-0.033 -0.267,-0.066 -0.4,-0.1 -1.034,-0.467 -1.7,-0.934 -2,-1.4 -0.1,-0.167 -0.167,-0.333 -0.2,-0.5 -0.033,-0.267 0.017,-0.55 0.15,-0.85 -0.167,-0.101 -0.367,-0.467 -0.6,-1.101 l -0.05,-0.2 c -0.033,-0.066 -0.05,-0.116 -0.05,-0.149 2.767,-1.367 5.083,-2.783 6.95,-4.25 l 0.5,-1 c 0.033,0.033 0.083,0.05 0.15,0.05 0,0.233 0.067,0.483 0.2,0.75 l 0.05,0.05 c 0,0.101 0.017,0.2 0.05,0.3 0.066,0.267 0.167,0.483 0.3,0.65 l -0.4,0.75 c 0.033,0 0.25,-0.083 0.65,-0.25 0.033,0 0.067,-0.017 0.1,-0.05 0.033,0 0.083,-0.017 0.15,-0.05 0.267,0.233 0.684,0.583 1.25,1.05 0.2,0.166 0.367,0.35 0.5,0.55 -0.1,0.233 -0.233,0.533 -0.4,0.9 -0.333,0.767 -0.517,1.35 -0.55,1.75 v 0.05 c 0.2,-0.267 0.483,-0.75 0.85,-1.45 0.1,-0.167 0.2,-0.3 0.3,-0.4 0.033,-0.1 0.083,-0.183 0.15,-0.25 0.033,-0.066 0.217,-0.166 0.55,-0.3 0.934,0 2.25,0.233 3.95,0.7 0.066,0.233 0.116,0.533 0.15,0.9 h 0.1 l 0.2,-1.2 c 0.133,0 0.267,-0.017 0.399,-0.05 l 0.851,-0.301 0.1,-0.149 c 0.134,0.133 0.283,0.267 0.45,0.399 -1,0.034 -1.5,0.384 -1.5,1.051 0,0.366 0.066,0.899 0.2,1.6 l -0.05,0.45 c -0.134,-0.834 -0.551,-1.517 -1.25,-2.05 -0.667,-0.5 -1.4,-0.75 -2.2,-0.75 -0.9,0 -1.717,0.616 -2.45,1.85 -0.5,1.066 -0.933,1.95 -1.3,2.65 -0.163,0.292 -0.313,0.551 -0.45,0.774 v 0.025 c -0.033,0.033 -0.067,0.083 -0.1,0.149 v -0.05 c 0.367,-1.6 0.65,-2.883 0.85,-3.85 0.2,-1.033 0.3,-1.733 0.3,-2.101 0,-0.866 -0.367,-1.3 -1.1,-1.3 -0.567,0 -1.217,0.434 -1.95,1.3 v -0.05 c 0.867,-1.267 1.3,-1.934 1.3,-2 0,-0.333 -0.183,-0.5 -0.55,-0.5 -0.233,0.101 -0.467,0.15 -0.7,0.15 -0.133,0.1 -0.267,0.217 -0.4,0.35 l -3.35,2.65 c -0.133,0.1 -0.25,0.2 -0.35,0.3 -0.6,0.5 -1.05,0.9 -1.35,1.2 v 0.149 l -0.05,0.4 c 0,0.7 0.35,1.233 1.05,1.6 0.233,0.134 0.483,0.233 0.75,0.301 0.3,0.066 0.617,0.116 0.95,0.149 0.133,0 0.267,0 0.4,0 0.7,0 1.617,-0.517 2.75,-1.55 0.566,-0.533 1.117,-1.116 1.65,-1.75 l 0.1,1.15 c 0,0.3 -0.067,1 -0.2,2.1 -0.167,1.1 -0.25,1.866 -0.25,2.3 0,0.533 0.367,0.8 1.1,0.8 0.8,0 1.417,-0.25 1.85,-0.75 0.433,-0.533 0.983,-1.633 1.649,-3.3 l 0.051,-0.3 c 0.033,-0.1 0.1,-0.167 0.199,-0.2 h 0.301 c 0.3,1.733 0.449,3.134 0.449,4.2 0,0.267 0.217,0.533 0.65,0.8 0.434,0.233 0.884,0.351 1.35,0.351 2.167,0 3.25,-0.717 3.25,-2.15 0,-0.533 -0.166,-1.033 -0.5,-1.5 -0.333,-0.5 -0.5,-0.85 -0.5,-1.05 l 0.051,-0.2 h 0.25 c 0.199,0.134 0.483,0.45 0.85,0.95 0.366,0.467 0.6,0.717 0.7,0.75 l 0.05,-0.25 c 0,-0.533 -0.333,-1.334 -1,-2.4 -0.134,-0.233 -0.316,-0.7 -0.55,-1.399 0.066,0.066 0.133,0.149 0.2,0.25 l 0.699,0.899 c 0.034,0.033 0.067,0.084 0.101,0.15 0.066,0.066 0.133,0.149 0.2,0.25 0.033,0.066 0.083,0.133 0.149,0.2 0.2,0.3 0.417,0.583 0.65,0.85 0.7,0.934 1.066,1.566 1.1,1.9 l -0.5,1.05 c -0.267,-0.233 -0.566,-0.5 -0.899,-0.8 -0.767,-0.667 -1.184,-1.017 -1.25,-1.051 v 0.4 c 0.033,0.1 0.416,1.05 1.149,2.85 -1.366,0.9 -2.899,1.351 -4.6,1.351 -0.9,0 -1.617,-0.3 -2.15,-0.9 l -0.05,-0.05 c -0.134,-0.167 -0.25,-0.316 -0.35,-0.45 l 0.3,-3.1 c 0,-0.467 -0.05,-0.783 -0.15,-0.95 0,0.7 -0.399,1.95 -1.2,3.75 -0.3,0.134 -0.583,0.25 -0.85,0.35 -0.3,0.134 -0.783,0.217 -1.45,0.25 -0.733,0.034 -1.3,-0.066 -1.7,-0.3 -0.033,0 -0.05,-0.017 -0.05,-0.05 -0.167,-0.1 -0.3,-0.184 -0.4,-0.25 -0.066,-0.066 -0.117,-0.116 -0.15,-0.15 0.767,-2.866 1.183,-4.533 1.25,-5 l -0.05,0.051 c -0.333,0.966 -0.633,1.716 -0.9,2.25 C 98.15,253.45 97.7,254 97.2,254.3 z"
       style="fill:#efceb9;fill-rule:evenodd" /><linearGradient
       gradientTransform="matrix(-0.6825,-0.7309,0.6693,-0.7484,2.326369e-4,4.478693e-4)"
       y2="-77.707001"
       x2="-226.3669"
       y1="-77.707001"
       x1="-241.3486"
       gradientUnits="userSpaceOnUse"
       id="SVGID_1_"><stop
         id="stop60"
         style="stop-color:#E5CBB4"
         offset="0.0039" /><stop
         id="stop62"
         style="stop-color:#FFE2D3"
         offset="1" /></linearGradient><path
       inkscape:connector-curvature="0"
       id="path64"
       d="m 97.05,238.25 c 0.434,1.5 1.05,2.833 1.85,4 -0.1,-0.033 -0.2,-0.083 -0.3,-0.15 -0.434,-0.233 -0.733,-0.449 -0.9,-0.649 -0.367,-0.7 -0.583,-1.283 -0.65,-1.75 -0.067,-0.468 -0.067,-0.951 0,-1.451 z m 3.75,-12.95 c 0.133,-0.2 0.233,-0.383 0.3,-0.55 0.533,-1.2 1,-2 1.4,-2.4 0.067,0.601 0.15,1.184 0.25,1.75 0.7,3.4 2.55,6.15 5.55,8.25 0.434,0.301 0.851,0.584 1.25,0.851 -0.066,0.2 -0.149,0.416 -0.25,0.649 -0.333,0.801 -0.767,1.867 -1.3,3.2 -0.3,-0.267 -0.583,-0.517 -0.85,-0.75 -1.733,-1.434 -3.167,-3.083 -4.3,-4.95 -0.767,-1.199 -1.317,-2.416 -1.65,-3.649 -0.233,-0.801 -0.367,-1.601 -0.4,-2.401 z m -1.3,3.3 0.15,1 c 0.067,0.667 0.167,1.301 0.3,1.9 0.4,1.833 1.133,3.467 2.2,4.9 1.433,1.866 2.667,3.199 3.7,4 0.101,0.066 0.217,0.149 0.351,0.25 -0.5,0.433 -1.117,0.816 -1.851,1.149 -0.433,0.2 -0.85,0.367 -1.25,0.5 -1.933,-1.866 -3.466,-4.033 -4.6,-6.5 -0.267,-0.633 -0.517,-1.267 -0.75,-1.899 0.033,-0.067 0.05,-0.134 0.05,-0.2 0.2,-0.733 0.45,-1.517 0.75,-2.351 0.333,-0.999 0.65,-1.915 0.95,-2.749 z m 11.15,0.45 c -0.7,-0.533 -1.367,-1.1 -2,-1.7 -1.9,-1.833 -3.051,-3.6 -3.45,-5.3 -0.033,-0.166 -0.066,-0.333 -0.101,-0.5 -0.033,-0.166 -0.017,-0.399 0.051,-0.7 0.433,-0.166 0.866,-0.333 1.3,-0.5 0.033,-0.033 0.066,-0.05 0.1,-0.05 l 0.05,-0.05 -0.1,0.65 v 0.05 l -0.05,0.2 c -0.033,0.267 0.033,0.55 0.2,0.85 l -0.051,0.05 c 0,0.033 0,0.084 0,0.15 0.034,0.3 0.167,0.6 0.4,0.899 0.267,0.367 0.7,0.767 1.3,1.2 0.4,0.367 0.733,0.767 1,1.2 0.733,1.1 1.117,1.7 1.15,1.8 0.133,0.267 0.2,0.8 0.2,1.601 0.001,0.067 0.001,0.117 0.001,0.15 z m -5.3,-15.65 c 1.4,-1.034 2.617,-1.551 3.65,-1.551 0.5,0 0.816,0.634 0.95,1.9 0.033,0.434 0.05,1.25 0.05,2.45 0,1.133 -0.033,1.899 -0.1,2.3 -0.134,0.733 -0.45,1.1 -0.95,1.1 -0.3,0 -0.667,-0.116 -1.101,-0.35 -0.199,-0.134 -0.383,-0.267 -0.55,-0.4 -0.133,-0.3 -0.25,-0.566 -0.35,-0.8 -0.4,-0.833 -0.684,-1.517 -0.851,-2.05 -0.1,-0.3 -0.183,-0.583 -0.25,-0.85 -0.267,-0.733 -0.416,-1.267 -0.449,-1.601 -0.033,-0.065 -0.049,-0.114 -0.049,-0.148 z m 12,11.4 -0.199,0.05 H 117 c -0.033,0 -0.066,0.017 -0.1,0.051 h -0.051 c -0.066,0.033 -0.116,0.05 -0.149,0.05 -0.167,0.066 -0.384,0.116 -0.65,0.149 0.2,-0.133 0.45,-0.283 0.75,-0.449 0.566,-0.334 1.283,-0.784 2.15,-1.351 h -0.05 c -0.301,0.033 -0.95,0.233 -1.95,0.601 -0.733,0.267 -1.283,0.466 -1.65,0.6 h -0.25 c 0,-0.1 0.05,-0.2 0.15,-0.3 0.6,-0.3 1.184,-0.584 1.75,-0.851 0.533,-0.166 1.684,-0.533 3.45,-1.1 0.533,-0.2 1.083,-0.45 1.649,-0.75 0.101,0.066 0.184,0.15 0.25,0.25 0,0.3 -0.434,0.733 -1.3,1.3 -0.6,0.4 -1.167,0.717 -1.7,0.95 -0.799,0.3 -1.449,0.566 -1.949,0.8 z M 112,221.85 c 1.2,-1.933 2.3,-3.449 3.3,-4.55 h 0.15 v 0.3 c -0.4,0.567 -1.267,1.75 -2.601,3.551 -0.1,0.1 -0.216,0.199 -0.35,0.3 -0.166,0.165 -0.332,0.299 -0.499,0.399 z m 2.6,-1.75 0.801,-0.35 c 0.1,-0.066 0.566,-0.25 1.399,-0.55 0.934,-0.367 1.634,-0.601 2.101,-0.7 h 0.75 v 0.35 c -1.634,1.7 -2.767,2.801 -3.4,3.301 -0.866,0.633 -1.717,0.949 -2.55,0.949 -0.4,0 -0.684,-0.166 -0.851,-0.5 0.034,-0.066 0.067,-0.116 0.101,-0.149 0.1,-0.3 0.3,-0.667 0.6,-1.101 0.233,-0.333 0.517,-0.733 0.851,-1.199 L 114.6,220.1 z m -13.85,24.25 c 0.5,0.5 0.933,0.867 1.3,1.101 -1.033,-0.566 -1.9,-1.101 -2.6,-1.601 0.433,0.167 0.867,0.334 1.3,0.5 z"
       style="fill:url(#linearGradient4456);fill-rule:evenodd" /><path
       inkscape:connector-curvature="0"
       id="path66"
       d="m 117.95,224.6 c -0.233,0.067 -0.434,0.134 -0.601,0.2 0.5,-0.233 1.15,-0.5 1.95,-0.8 0.533,-0.233 1.101,-0.55 1.7,-0.95 0.866,-0.566 1.3,-1 1.3,-1.3 -0.066,-0.1 -0.149,-0.184 -0.25,-0.25 0.4,-0.2 0.8,-0.4 1.2,-0.6 0.033,0.1 0.05,0.233 0.05,0.399 0,0.634 -0.017,1.033 -0.05,1.2 -0.7,0.533 -1.583,0.983 -2.65,1.35 -0.766,0.301 -1.649,0.551 -2.649,0.751 z"
       style="fill:#e5c1ab;fill-rule:evenodd" /><path
       inkscape:connector-curvature="0"
       id="path68"
       d="m 116.95,223.35 c 1.7,-0.833 3.05,-1.517 4.05,-2.05 1.167,-0.6 1.866,-1 2.1,-1.2 0.067,0.101 0.117,0.367 0.15,0.801 -0.4,0.199 -0.8,0.399 -1.2,0.6 -0.566,0.3 -1.116,0.55 -1.649,0.75 -1.767,0.565 -2.918,0.933 -3.451,1.099 z m -5.9,32.5 c -0.733,-1.8 -1.116,-2.75 -1.149,-2.85 v -0.4 c 0.066,0.034 0.483,0.384 1.25,1.051 0.333,0.3 0.633,0.566 0.899,0.8 -0.366,0.7 -0.633,1.116 -0.8,1.25 -0.066,0.066 -0.134,0.115 -0.2,0.149 z m -7.15,-0.05 c -0.334,-0.3 -0.634,-0.416 -0.9,-0.35 -0.067,0.033 -0.117,0.05 -0.15,0.05 0.8,-1.8 1.2,-3.05 1.2,-3.75 0.101,0.167 0.15,0.483 0.15,0.95 l -0.3,3.1 z m -6.7,-1.5 c 0.5,-0.3 0.95,-0.85 1.35,-1.649 0.267,-0.534 0.567,-1.284 0.9,-2.25 l 0.05,-0.051 c -0.067,0.467 -0.483,2.134 -1.25,5 -0.1,-0.1 -0.167,-0.183 -0.2,-0.25 v -0.05 c -0.066,-0.233 -0.183,-0.383 -0.35,-0.45 -0.167,-0.1 -0.333,-0.2 -0.5,-0.3 z m 15.95,-42.8 c 0.133,0.134 0.25,0.316 0.35,0.55 0.267,0.667 0.583,0.983 0.95,0.95 0.267,-0.033 0.55,-0.066 0.85,-0.1 -0.633,1.133 -1.366,2.716 -2.2,4.75 -0.8,1.966 -1.316,2.949 -1.55,2.949 l -0.1,-0.05 c 0,-0.267 0.333,-1.5 1,-3.7 0.633,-2.199 0.95,-3.566 0.95,-4.1 0,-0.633 -0.084,-1.049 -0.25,-1.249 z m 6.05,3.65 c -0.233,0.399 -0.566,0.883 -1,1.449 -0.767,1 -1.533,1.784 -2.3,2.351 l 0.05,-0.101 c 0.1,-0.199 0.633,-1.033 1.6,-2.5 0.667,-1.066 1,-1.866 1,-2.399 0.101,0.166 0.15,0.3 0.15,0.399 0.033,0.233 0.1,0.384 0.2,0.45 0.1,0.101 0.2,0.218 0.3,0.351 z m -10.5,6.6 c 0.2,-0.5 0.566,-1 1.1,-1.5 h 0.101 c -0.301,0.2 -0.45,0.8 -0.45,1.8 0,0.2 0.017,0.384 0.05,0.55 -0.3,-0.233 -0.55,-0.483 -0.75,-0.75 -0.034,-0.034 -0.051,-0.067 -0.051,-0.1 z m 2.5,2 c -0.233,-0.1 -0.45,-0.217 -0.65,-0.35 0.066,-0.034 0.167,-0.084 0.3,-0.15 0.101,-0.1 0.2,-0.184 0.301,-0.25 0.133,-0.1 0.267,-0.217 0.399,-0.35 0.367,-0.301 0.767,-0.65 1.2,-1.051 -0.1,0.233 -0.384,0.667 -0.85,1.301 -0.266,0.367 -0.5,0.65 -0.7,0.85 z m 1.8,0.8 c -0.167,-0.066 -0.316,-0.133 -0.45,-0.2 0.267,-0.1 0.566,-0.216 0.9,-0.35 0.866,-0.333 1.366,-0.566 1.5,-0.7 H 115 c -0.5,0.566 -1,1.033 -1.5,1.4 -0.167,-0.066 -0.333,-0.117 -0.5,-0.15 z m 2.35,0.5 c -0.133,0 -0.25,0 -0.35,0 -0.2,-0.033 -0.417,-0.066 -0.65,-0.1 0.434,-0.167 1.084,-0.367 1.95,-0.601 h 0.25 c -0.033,0.101 -0.399,0.317 -1.1,0.65 -0.033,0.034 -0.066,0.051 -0.1,0.051 z"
       style="fill:#e2c1ad;fill-rule:evenodd" /><path
       inkscape:connector-curvature="0"
       id="path70"
       d="m 123.1,220.1 c -0.233,0.2 -0.933,0.601 -2.1,1.2 -1,0.533 -2.35,1.217 -4.05,2.05 -0.566,0.267 -1.15,0.551 -1.75,0.851 0.166,-0.267 0.55,-0.566 1.149,-0.9 1.101,-0.7 1.717,-1.116 1.851,-1.25 l -0.15,-0.05 c -0.1,0 -0.733,0.233 -1.899,0.7 -1.134,0.434 -1.934,0.649 -2.4,0.649 -0.634,0 -0.95,-0.166 -0.95,-0.5 0,-0.066 0.017,-0.149 0.05,-0.25 0.167,0.334 0.45,0.5 0.851,0.5 0.833,0 1.684,-0.316 2.55,-0.949 0.634,-0.5 1.767,-1.601 3.4,-3.301 v -0.35 h -0.75 c -0.467,0.1 -1.167,0.333 -2.101,0.7 -0.833,0.3 -1.3,0.483 -1.399,0.55 l 1.1,-0.7 c 0.066,-0.033 0.5,-0.416 1.3,-1.149 0.566,-0.534 0.934,-0.801 1.101,-0.801 0.433,0 0.933,0.2 1.5,0.601 0.533,0.366 0.8,0.666 0.8,0.899 0,0.267 -0.45,0.851 -1.351,1.75 -1.033,1.034 -1.633,1.7 -1.8,2 l 5.25,-2.55 c -0.069,0.1 -0.135,0.2 -0.202,0.3 z m -23.3,33.05 c -0.153,0.122 -0.253,0.214 -0.3,0.274 0.137,-0.224 0.288,-0.482 0.45,-0.774 0.367,-0.7 0.8,-1.584 1.3,-2.65 0.733,-1.233 1.55,-1.85 2.45,-1.85 0.8,0 1.533,0.25 2.2,0.75 0.699,0.533 1.116,1.216 1.25,2.05 l 0.05,-0.45 c -0.134,-0.7 -0.2,-1.233 -0.2,-1.6 0,-0.667 0.5,-1.017 1.5,-1.051 0.033,0.034 0.066,0.067 0.1,0.101 0.167,0.2 0.351,0.416 0.551,0.649 -0.434,0.101 -0.801,0.284 -1.101,0.551 -0.399,0.366 -0.6,0.767 -0.6,1.199 0,0.5 0.083,1.167 0.25,2 0.166,0.834 0.25,1.483 0.25,1.95 0,0.167 -0.084,0.517 -0.25,1.05 l -0.05,-0.05 c -0.801,-2 -1.301,-3.184 -1.5,-3.55 -0.667,-1.167 -1.483,-1.75 -2.45,-1.75 -0.233,0 -0.733,0.316 -1.5,0.95 -0.267,0.2 -0.55,0.45 -0.85,0.75 -0.733,0.667 -1.25,1.151 -1.55,1.451 z m -9.1,-5.25 c 1.133,-0.334 2.216,-0.733 3.25,-1.2 1.5,-0.667 2.25,-1.2 2.25,-1.601 0,-0.267 -0.25,-0.449 -0.75,-0.55 0.867,-0.399 1.85,-0.767 2.95,-1.1 l -0.5,1 c -1.867,1.467 -4.183,2.883 -6.95,4.25 l -0.15,-0.5 c -0.033,-0.133 -0.067,-0.232 -0.1,-0.299 z m 16.95,-28.4 v -0.05 h -0.05 c -0.1,-0.2 -0.199,-0.4 -0.3,-0.601 0.167,0.134 0.351,0.267 0.55,0.4 0.434,0.233 0.801,0.35 1.101,0.35 0.5,0 0.816,-0.366 0.95,-1.1 0.066,-0.4 0.1,-1.167 0.1,-2.3 0,-1.2 -0.017,-2.017 -0.05,-2.45 -0.134,-1.267 -0.45,-1.9 -0.95,-1.9 -1.033,0 -2.25,0.517 -3.65,1.551 0,-0.101 0,-0.184 0,-0.25 l 0.7,-0.9 c 0.533,-0.6 0.917,-0.934 1.15,-1 0.767,-0.333 1.55,-0.533 2.35,-0.6 0.5,0.199 0.917,0.883 1.25,2.05 0.3,1.1 0.417,1.983 0.351,2.649 -0.067,0.634 -0.051,1.801 0.05,3.5 0,1 -0.05,1.667 -0.15,2 0,0.233 0.084,0.351 0.25,0.351 0.134,0 0.55,-0.483 1.25,-1.45 0.667,-0.9 1.05,-1.5 1.15,-1.8 0.2,-0.601 0.649,-1.3 1.35,-2.101 0.267,-0.267 0.917,-0.899 1.95,-1.899 v 0.8 l -2.4,5.35 -0.199,0.051 c 0.066,-0.067 0.116,-0.134 0.149,-0.2 v -0.25 c -0.3,0.2 -0.866,0.684 -1.7,1.45 1.334,-1.801 2.2,-2.983 2.601,-3.551 v -0.3 h -0.15 c -1,1.101 -2.1,2.617 -3.3,4.55 -0.066,0.034 -0.134,0.067 -0.2,0.101 -0.3,0.166 -0.566,0.25 -0.8,0.25 -0.3,0 -0.5,-0.084 -0.6,-0.25 -0.101,-0.167 -0.15,-0.434 -0.15,-0.8 0,-0.5 0.033,-0.867 0.1,-1.101 0.233,-0.467 0.467,-1.05 0.7,-1.75 V 218 c -0.6,0.934 -1.033,1.55 -1.3,1.85 -0.4,0.5 -0.783,0.75 -1.15,0.75 -0.503,0 -0.82,-0.367 -0.953,-1.1 z m -11.55,29.35 0.55,-1.1 v -0.8 c -0.667,0.1 -1.5,0.517 -2.5,1.25 -0.233,0.166 -0.917,0.717 -2.05,1.649 V 249.7 c 0.3,-0.3 0.75,-0.7 1.35,-1.2 0.1,-0.1 0.216,-0.2 0.35,-0.3 l 3.35,-2.65 c 0.133,-0.133 0.267,-0.25 0.4,-0.35 0.233,0 0.467,-0.05 0.7,-0.15 0.367,0 0.55,0.167 0.55,0.5 0,0.066 -0.433,0.733 -1.3,2 v 0.05 c 0.733,-0.866 1.383,-1.3 1.95,-1.3 0.733,0 1.1,0.434 1.1,1.3 0,0.367 -0.1,1.067 -0.3,2.101 -0.067,-0.367 -0.2,-0.717 -0.4,-1.05 -0.333,-0.634 -0.65,-0.95 -0.95,-0.95 -0.367,0 -0.783,0.149 -1.25,0.45 -0.167,0.1 -0.333,0.199 -0.5,0.3 -0.7,0.6 -1.183,1 -1.45,1.2 V 249.6 l 0.4,-0.75 z"
       style="fill:#f6d8c7;fill-rule:evenodd" /><linearGradient
       gradientTransform="matrix(-0.6822,-0.7312,0.6367,-0.7835,-1.273155e-4,-7.882714e-4)"
       y2="-75.769501"
       x2="-226.2076"
       y1="-75.769501"
       x1="-242.0386"
       gradientUnits="userSpaceOnUse"
       id="SVGID_2_"><stop
         id="stop73"
         style="stop-color:#D87562"
         offset="0.0078" /><stop
         id="stop75"
         style="stop-color:#F4C3AB"
         offset="1" /></linearGradient><path
       inkscape:connector-curvature="0"
       id="path77"
       d="m 102.75,224.1 c -0.1,-0.566 -0.183,-1.149 -0.25,-1.75 0.1,-0.1 0.183,-0.166 0.25,-0.199 0.767,-0.5 1.566,-0.934 2.4,-1.301 -0.067,0.301 -0.084,0.534 -0.051,0.7 0.034,0.167 0.067,0.334 0.101,0.5 -0.834,0.066 -1.65,0.75 -2.45,2.05 z"
       style="fill:url(#linearGradient4458);fill-rule:evenodd" /><path
       inkscape:connector-curvature="0"
       id="path79"
       d="m 107.6,219.5 c -0.033,0.1 -0.033,0.233 0,0.4 0.067,0.433 0.434,1.05 1.101,1.85 0,0.033 0.017,0.066 0.05,0.1 0.2,0.267 0.45,0.517 0.75,0.75 0.2,0.2 0.45,0.4 0.75,0.601 -0.467,-0.134 -1.033,-0.434 -1.7,-0.9 -1.033,-0.7 -1.55,-1.383 -1.55,-2.05 0,-0.2 0.033,-0.366 0.1,-0.5 0.067,-0.066 0.134,-0.116 0.2,-0.15 0.101,-0.066 0.2,-0.116 0.3,-0.149 v 0.048 z"
       style="fill:#e1b9ae;fill-rule:evenodd" /><path
       inkscape:connector-curvature="0"
       id="path81"
       d="m 102.45,247.1 c -0.034,-0.033 -0.067,-0.05 -0.1,-0.05 -0.267,-0.1 -0.517,-0.217 -0.75,-0.35 -0.133,-0.066 -0.25,-0.134 -0.35,-0.2 -0.067,-0.033 -0.117,-0.066 -0.15,-0.1 h -0.05 c -0.466,-0.267 -0.85,-0.534 -1.15,-0.801 l -0.25,-0.25 c -0.167,-0.1 -0.3,-0.216 -0.4,-0.35 -0.067,-0.066 -0.1,-0.116 -0.1,-0.15 -0.033,-0.066 -0.066,-0.1 -0.1,-0.1 -0.1,-0.167 -0.183,-0.316 -0.25,-0.45 l -0.05,-0.05 c -0.133,-0.267 -0.2,-0.517 -0.2,-0.75 -0.033,-0.033 -0.05,-0.066 -0.05,-0.1 v -0.5 c 0.1,0.267 0.333,0.533 0.7,0.8 0.033,0.033 0.083,0.066 0.15,0.1 0.033,0 0.066,0.017 0.1,0.05 l -0.4,-0.149 c -0.133,-0.033 -0.267,-0.084 -0.4,-0.15 0.4,0.5 1.217,1.117 2.45,1.851 0.5,0.3 1.267,0.616 2.3,0.949 0.833,0.267 1.25,0.45 1.25,0.551 0,0.199 -0.334,0.3 -1,0.3 -0.5,-0.001 -0.9,-0.034 -1.2,-0.101 z m 8.1,-23.7 c 0.2,0.133 0.417,0.25 0.65,0.35 0.166,0.1 0.35,0.184 0.55,0.25 0.267,0.134 0.533,0.25 0.8,0.35 0.134,0.067 0.283,0.134 0.45,0.2 -0.134,0.2 -0.3,0.3 -0.5,0.3 -0.3,0 -0.583,-0.017 -0.85,-0.05 -1.167,-0.166 -2.25,-0.616 -3.25,-1.35 -0.534,-0.4 -0.95,-0.8 -1.25,-1.2 -0.334,-0.434 -0.551,-0.866 -0.65,-1.3 v -0.05 l 0.1,-0.65 c 0.134,-0.2 0.301,-0.366 0.5,-0.5 -0.066,0.134 -0.1,0.3 -0.1,0.5 0,0.667 0.517,1.35 1.55,2.05 0.667,0.467 1.233,0.767 1.7,0.9 0.1,0.067 0.2,0.133 0.3,0.2 z"
       style="fill:#c59487;fill-rule:evenodd" /><path
       inkscape:connector-curvature="0"
       id="path83"
       d="m 117.35,224.8 c 0.167,-0.066 0.367,-0.133 0.601,-0.2 0.066,0.2 0.1,0.4 0.1,0.601 0,0.033 0,0.066 0,0.1 0.101,0.601 -0.133,1.101 -0.7,1.5 -0.033,0.033 -0.083,0.066 -0.149,0.101 -0.066,0.033 -0.117,0.066 -0.15,0.1 -0.666,0.1 -1.883,-0.05 -3.649,-0.45 -1.733,-0.434 -3.351,-1.25 -4.851,-2.45 -0.899,-0.699 -1.5,-1.333 -1.8,-1.899 -0.066,-0.066 -0.1,-0.134 -0.1,-0.2 -0.167,-0.3 -0.233,-0.583 -0.2,-0.85 l 0.05,-0.2 V 221 c 0,0.4 0.134,0.816 0.4,1.25 0.5,0.833 1.6,1.667 3.3,2.5 0.666,0.333 1.3,0.616 1.899,0.85 1.067,0.4 1.934,0.601 2.601,0.601 0.2,0 0.383,0 0.55,0 0.934,-0.101 1.483,-0.434 1.65,-1 0,-0.101 0,-0.2 0,-0.3 0.033,-0.034 0.066,-0.051 0.1,-0.051 h 0.15 l 0.198,-0.05 z m -9.3,22.65 -0.1,0.149 -0.85,0.301 c -0.133,0.033 -0.267,0.05 -0.399,0.05 -0.066,0 -0.134,0 -0.2,0 h -0.2 c -0.033,0 -0.083,0 -0.149,0 -0.534,0 -1.067,-0.05 -1.601,-0.15 0.667,0 1.117,-0.083 1.351,-0.25 0.133,-0.133 0.199,-0.3 0.199,-0.5 0,-0.2 -0.083,-0.333 -0.25,-0.399 l -0.199,-0.051 c 1.199,0.2 2.017,0.284 2.449,0.25 0.066,0.233 0.049,0.433 -0.051,0.6 z"
       style="fill:#966b60;fill-rule:evenodd" /><path
       inkscape:connector-curvature="0"
       id="path85"
       d="m 115.35,225.05 c 0.233,0.033 0.467,0.05 0.7,0.05 0.267,-0.033 0.483,-0.083 0.65,-0.149 0.033,0 0.083,-0.017 0.149,-0.05 h 0.051 c 0,0.1 0,0.199 0,0.3 -0.167,0.566 -0.717,0.899 -1.65,1 -0.167,0 -0.35,0 -0.55,0 -0.667,0 -1.533,-0.2 -2.601,-0.601 -0.6,-0.233 -1.233,-0.517 -1.899,-0.85 -1.7,-0.833 -2.8,-1.667 -3.3,-2.5 -0.267,-0.434 -0.4,-0.85 -0.4,-1.25 v -0.05 c 0.1,0.434 0.316,0.866 0.65,1.3 0.3,0.4 0.716,0.8 1.25,1.2 1,0.733 2.083,1.184 3.25,1.35 0.267,0.033 0.55,0.05 0.85,0.05 0.2,0 0.366,-0.1 0.5,-0.3 0.167,0.033 0.333,0.084 0.5,0.15 0.3,0.1 0.583,0.184 0.85,0.25 0.233,0.033 0.45,0.066 0.65,0.1 0.1,0 0.217,0 0.35,0 z m -9.7,21.55 0.199,0.051 c 0.167,0.066 0.25,0.199 0.25,0.399 0,0.2 -0.066,0.367 -0.199,0.5 -0.233,0.167 -0.684,0.25 -1.351,0.25 l -1.6,-0.5 c -0.167,-0.066 -0.333,-0.133 -0.5,-0.2 0.3,0.067 0.7,0.101 1.2,0.101 0.666,0 1,-0.101 1,-0.3 0,-0.101 -0.417,-0.284 -1.25,-0.551 -1.034,-0.333 -1.8,-0.649 -2.3,-0.949 -1.233,-0.733 -2.05,-1.351 -2.45,-1.851 0.133,0.066 0.267,0.117 0.4,0.15 l 0.4,0.149 c 0.7,0.5 1.566,1.034 2.6,1.601 0.1,0.033 0.167,0.066 0.2,0.1 0.033,0 0.083,0.017 0.15,0.05 h 0.05 c 0.133,0.067 0.267,0.134 0.4,0.2 0.1,0.033 0.183,0.066 0.25,0.101 l 1.851,0.6 c 0.2,0.033 0.399,0.066 0.6,0.1 0.033,-0.001 0.066,-0.001 0.1,-0.001 z"
       style="fill:#af7f72;fill-rule:evenodd" /><linearGradient
       gradientTransform="matrix(-0.6825,-0.7309,0.6693,-0.7484,2.326369e-4,4.478693e-4)"
       y2="-79.179703"
       x2="-226.3669"
       y1="-79.179703"
       x1="-241.3486"
       gradientUnits="userSpaceOnUse"
       id="SVGID_3_"><stop
         id="stop88"
         style="stop-color:#C5AA92"
         offset="0.0039" /><stop
         id="stop90"
         style="stop-color:#FFE2D3"
         offset="1" /></linearGradient><path
       inkscape:connector-curvature="0"
       id="path92"
       d="m 118.3,232.75 c -0.666,-0.2 -1.316,-0.417 -1.95,-0.65 0.367,-1.033 0.551,-1.633 0.551,-1.8 0,-1.399 -0.45,-2.35 -1.351,-2.85 -1.467,-0.467 -2.767,-0.934 -3.899,-1.4 -1.434,-0.6 -2.551,-1.184 -3.351,-1.75 -0.6,-0.434 -1.033,-0.833 -1.3,-1.2 -0.233,-0.3 -0.366,-0.6 -0.4,-0.899 0,-0.066 0,-0.117 0,-0.15 l 0.051,-0.05 c 0,0.066 0.033,0.134 0.1,0.2 0.3,0.566 0.9,1.2 1.8,1.899 1.5,1.2 3.117,2.017 4.851,2.45 1.767,0.4 2.983,0.55 3.649,0.45 0.5,0.134 0.934,0.65 1.3,1.55 0.301,0.867 0.45,1.55 0.45,2.05 0.065,0.3 -0.101,1.016 -0.501,2.15 z m -5,7.6 c 0.167,-0.399 0.334,-0.833 0.5,-1.3 0.167,-0.5 0.55,-1.55 1.15,-3.149 0.767,0.267 1.5,0.449 2.2,0.55 -0.9,2.733 -1.367,4.133 -1.4,4.2 -0.033,0.166 -0.116,0.35 -0.25,0.55 -0.733,-0.234 -1.467,-0.517 -2.2,-0.851 z m -3.7,6.3 c -0.8,-0.334 -1.583,-0.717 -2.35,-1.15 1.2,-0.2 2.333,-0.75 3.4,-1.65 0.1,-0.066 0.183,-0.133 0.25,-0.199 1.033,0.533 1.866,0.866 2.5,1 -0.233,0.199 -0.467,0.399 -0.7,0.6 -0.867,0.699 -1.9,1.166 -3.1,1.399 z"
       style="fill:url(#linearGradient4460);fill-rule:evenodd" /><linearGradient
       gradientTransform="matrix(-0.4847,-0.8747,0.8076,-0.6057,1.02222e-4,-3.428459e-4)"
       y2="-26.003401"
       x2="-248.0177"
       y1="-26.003401"
       x1="-263.85211"
       gradientUnits="userSpaceOnUse"
       id="SVGID_4_"><stop
         id="stop95"
         style="stop-color:#D87562"
         offset="0.0078" /><stop
         id="stop97"
         style="stop-color:#F4C3AB"
         offset="1" /></linearGradient><path
       inkscape:connector-curvature="0"
       id="path99"
       d="m 97.75,233.9 c 0.233,0.633 0.483,1.267 0.75,1.899 -0.4,1.4 -0.6,2.483 -0.6,3.25 0,1.066 0.217,1.884 0.65,2.45 0.1,0.134 0.233,0.4 0.4,0.8 v 0.05 c -0.001,-0.034 -0.018,-0.067 -0.05,-0.1 -0.8,-1.167 -1.417,-2.5 -1.85,-4 0.033,-1.266 0.267,-2.716 0.7,-4.349 z m 1.75,-5.3 c 0.033,-0.166 0.083,-0.3 0.15,-0.399 0.434,-1.134 0.817,-2.101 1.15,-2.9 0.034,0.8 0.167,1.601 0.4,2.4 -0.133,0.333 -0.25,0.7 -0.35,1.1 -0.1,0.334 -0.4,1.233 -0.9,2.7 -0.133,-0.6 -0.233,-1.233 -0.3,-1.9 L 99.5,228.6 z"
       style="fill:url(#linearGradient4462);fill-rule:evenodd" /><linearGradient
       y2="240.51711"
       x2="117.8736"
       y1="233.0537"
       x1="101.1934"
       gradientUnits="userSpaceOnUse"
       id="SVGID_5_"><stop
         id="stop102"
         style="stop-color:#D87562"
         offset="0.0078" /><stop
         id="stop104"
         style="stop-color:#F4C3AB"
         offset="1" /></linearGradient><path
       inkscape:connector-curvature="0"
       id="path106"
       d="m 106.2,240.65 c -0.134,-0.101 -0.25,-0.184 -0.351,-0.25 -1.033,-0.801 -2.267,-2.134 -3.7,-4 -1.066,-1.434 -1.8,-3.067 -2.2,-4.9 0.5,-1.467 0.8,-2.366 0.9,-2.7 0.1,-0.399 0.217,-0.767 0.35,-1.1 0.333,1.233 0.883,2.45 1.65,3.649 1.133,1.867 2.567,3.517 4.3,4.95 0.267,0.233 0.55,0.483 0.85,0.75 -0.267,0.667 -0.566,1.4 -0.9,2.2 -0.199,0.501 -0.499,0.968 -0.899,1.401 z"
       style="fill:url(#linearGradient4464);fill-rule:evenodd" /><linearGradient
       y2="247.17821"
       x2="111.3014"
       y1="237.3613"
       x1="96.112297"
       gradientUnits="userSpaceOnUse"
       id="SVGID_6_"><stop
         id="stop109"
         style="stop-color:#D87562"
         offset="0.0078" /><stop
         id="stop111"
         style="stop-color:#F4C3AB"
         offset="1" /></linearGradient><path
       inkscape:connector-curvature="0"
       id="path113"
       d="m 98.5,235.8 c 1.133,2.467 2.667,4.634 4.6,6.5 -0.8,0.233 -1.6,0.351 -2.399,0.351 -0.6,0 -1.184,-0.117 -1.75,-0.351 -0.167,-0.399 -0.3,-0.666 -0.4,-0.8 -0.433,-0.566 -0.65,-1.384 -0.65,-2.45 C 97.9,238.283 98.1,237.2 98.5,235.8 z"
       style="fill:url(#linearGradient4466);fill-rule:evenodd" /><linearGradient
       gradientTransform="matrix(1,0,0.1416,1,4.882813e-4,0)"
       y2="249.77541"
       x2="110.7593"
       y1="249.77541"
       x1="-1527.6406"
       gradientUnits="userSpaceOnUse"
       id="SVGID_7_"><stop
         id="stop116"
         style="stop-color:#E5CBB4"
         offset="0.0039" /><stop
         id="stop118"
         style="stop-color:#FFE2D3"
         offset="1" /></linearGradient><path
       inkscape:connector-curvature="0"
       id="path120"
       d="m 99.5,253.425 c 0.047,-0.061 0.147,-0.152 0.3,-0.274 -0.033,0.066 -0.066,0.149 -0.1,0.25 -0.167,0.566 -0.25,0.983 -0.25,1.25 0,0.433 0.216,0.649 0.65,0.649 0.467,0 0.95,-0.75 1.45,-2.25 0.233,-0.8 0.45,-1.5 0.65,-2.1 0.767,-0.634 1.267,-0.95 1.5,-0.95 0.967,0 1.783,0.583 2.45,1.75 0.199,0.366 0.699,1.55 1.5,3.55 l 0.05,0.05 c 0.166,-0.533 0.25,-0.883 0.25,-1.05 0,-0.467 -0.084,-1.116 -0.25,-1.95 -0.167,-0.833 -0.25,-1.5 -0.25,-2 0,-0.433 0.2,-0.833 0.6,-1.199 0.3,-0.267 0.667,-0.45 1.101,-0.551 h 0.05 c 0.066,0.101 0.149,0.2 0.25,0.301 0.233,0.699 0.416,1.166 0.55,1.399 0.667,1.066 1,1.867 1,2.4 l -0.05,0.25 c -0.101,-0.033 -0.334,-0.283 -0.7,-0.75 -0.366,-0.5 -0.65,-0.816 -0.85,-0.95 h -0.25 l -0.051,0.2 c 0,0.2 0.167,0.55 0.5,1.05 0.334,0.467 0.5,0.967 0.5,1.5 0,1.434 -1.083,2.15 -3.25,2.15 -0.466,0 -0.916,-0.117 -1.35,-0.351 -0.434,-0.267 -0.65,-0.533 -0.65,-0.8 0,-1.066 -0.149,-2.467 -0.449,-4.2 H 104.1 c -0.1,0.033 -0.166,0.101 -0.199,0.2 l -0.051,0.3 c -0.666,1.667 -1.216,2.767 -1.649,3.3 -0.434,0.5 -1.05,0.75 -1.85,0.75 -0.733,0 -1.1,-0.267 -1.1,-0.8 0,-0.434 0.083,-1.2 0.25,-2.3 0.133,-1.1 0.2,-1.8 0.2,-2.1 L 99.6,249 c -0.533,0.634 -1.083,1.217 -1.65,1.75 -1.133,1.033 -2.05,1.55 -2.75,1.55 -0.133,0 -0.267,0 -0.4,0 0.534,-0.566 1.05,-1.267 1.55,-2.1 l 1.3,-2.05 c 0.467,-0.301 0.883,-0.45 1.25,-0.45 0.3,0 0.617,0.316 0.95,0.95 0.2,0.333 0.333,0.683 0.4,1.05 -0.2,0.967 -0.483,2.25 -0.85,3.85 v 0.05 c 0.033,-0.066 0.067,-0.116 0.1,-0.149 v -0.026 z m -4.05,-8.875 c 0.5,0.101 0.75,0.283 0.75,0.55 0,0.4 -0.75,0.934 -2.25,1.601 -1.034,0.467 -2.117,0.866 -3.25,1.2 -0.034,-0.034 -0.05,-0.067 -0.05,-0.101 0.633,-0.733 1.434,-1.399 2.4,-2 0.7,-0.434 1.5,-0.85 2.4,-1.25 z m 3.05,-1.15 c 0,0.033 0.017,0.066 0.05,0.1 -0.066,0 -0.117,-0.017 -0.15,-0.05 0.033,-0.033 0.067,-0.05 0.1,-0.05 z m -6.4,6.45 c 1.133,-0.933 1.816,-1.483 2.05,-1.649 1,-0.733 1.833,-1.15 2.5,-1.25 v 0.8 l -0.55,1.1 c -0.467,0.367 -0.917,0.851 -1.35,1.45 -0.533,0.733 -0.833,1.351 -0.9,1.851 -0.267,-0.067 -0.517,-0.167 -0.75,-0.301 -0.7,-0.366 -1.05,-0.899 -1.05,-1.6 l 0.05,-0.401 z"
       style="fill:url(#linearGradient4468);fill-rule:evenodd" /><linearGradient
       y2="248.7348"
       x2="110.2955"
       y1="238.918"
       x1="95.1064"
       gradientUnits="userSpaceOnUse"
       id="SVGID_8_"><stop
         id="stop123"
         style="stop-color:#D87562"
         offset="0.0078" /><stop
         id="stop125"
         style="stop-color:#DEAC94"
         offset="1" /></linearGradient><path
       inkscape:connector-curvature="0"
       id="path127"
       d="m 98.95,242.35 v -0.05 c 0.566,0.233 1.15,0.351 1.75,0.351 0.8,0 1.6,-0.117 2.399,-0.351 0.267,0.233 0.534,0.467 0.801,0.7 1.066,0.967 2.183,1.8 3.35,2.5 -0.3,0.033 -0.616,0.05 -0.95,0.05 -1.366,0 -3.217,-0.399 -5.55,-1.2 -0.367,-0.333 -0.75,-0.733 -1.15,-1.199 -0.2,-0.233 -0.4,-0.483 -0.6,-0.75 l -0.05,-0.051 z"
       style="fill:url(#linearGradient4470);fill-rule:evenodd" /><linearGradient
       gradientTransform="matrix(-0.6825,-0.7309,0.6693,-0.7484,2.326369e-4,4.478693e-4)"
       y2="-82.269501"
       x2="-226.3669"
       y1="-82.269501"
       x1="-241.3486"
       gradientUnits="userSpaceOnUse"
       id="SVGID_9_"><stop
         id="stop130"
         style="stop-color:#DCC2AB"
         offset="0" /><stop
         id="stop132"
         style="stop-color:#ECCEBF"
         offset="1" /></linearGradient><path
       inkscape:connector-curvature="0"
       id="path134"
       d="m 100.75,244.35 c -0.433,-0.166 -0.867,-0.333 -1.3,-0.5 -0.034,-0.033 -0.067,-0.05 -0.1,-0.05 -0.067,-0.033 -0.117,-0.066 -0.15,-0.1 -0.367,-0.267 -0.6,-0.533 -0.7,-0.8 -0.333,-0.534 -0.6,-1.017 -0.8,-1.45 0.167,0.2 0.466,0.416 0.9,0.649 0.1,0.067 0.2,0.117 0.3,0.15 0.032,0.032 0.049,0.065 0.05,0.1 L 99,242.4 c 0.2,0.267 0.4,0.517 0.6,0.75 0.4,0.466 0.783,0.867 1.15,1.2 z m 15.6,-12.25 c -2.133,-0.767 -4.033,-1.783 -5.699,-3.05 0,-0.033 0,-0.083 0,-0.149 0,-0.801 -0.067,-1.334 -0.2,-1.601 -0.033,-0.1 -0.417,-0.7 -1.15,-1.8 -0.267,-0.434 -0.6,-0.833 -1,-1.2 0.8,0.566 1.917,1.15 3.351,1.75 1.133,0.467 2.433,0.934 3.899,1.4 0.9,0.5 1.351,1.45 1.351,2.85 -0.002,0.167 -0.185,0.766 -0.552,1.8 z m -5.45,11.55 c -0.067,0.066 -0.15,0.133 -0.25,0.199 -1.067,0.9 -2.2,1.45 -3.4,1.65 -1.167,-0.7 -2.283,-1.533 -3.35,-2.5 -0.267,-0.233 -0.534,-0.467 -0.801,-0.7 0.4,-0.133 0.817,-0.3 1.25,-0.5 0.733,-0.333 1.351,-0.717 1.851,-1.149 0.967,0.666 2.149,1.433 3.55,2.3 0.4,0.267 0.783,0.5 1.15,0.7 z m -1.35,-10.45 c 2,1.233 3.8,2.133 5.4,2.7 -0.601,1.6 -0.983,2.649 -1.15,3.149 -0.166,0.467 -0.333,0.9 -0.5,1.3 -0.267,-0.1 -0.517,-0.216 -0.75,-0.35 -1.633,-0.866 -3.149,-1.85 -4.55,-2.95 0.533,-1.333 0.967,-2.399 1.3,-3.2 0.1,-0.233 0.183,-0.449 0.25,-0.649 z"
       style="fill:url(#linearGradient4472);fill-rule:evenodd" /><path
       inkscape:connector-curvature="0"
       id="path136"
       d="m 98.8,244.3 c 0.067,0.134 0.15,0.283 0.25,0.45 0.034,0 0.067,0.033 0.1,0.1 0,0.034 0.033,0.084 0.1,0.15 0.1,0.134 0.233,0.25 0.4,0.35 l 0.25,0.25 c 0.3,0.267 0.684,0.534 1.15,0.801 h 0.05 c 0.033,0.033 0.083,0.066 0.15,0.1 0.1,0.066 0.217,0.134 0.35,0.2 0.233,0.133 0.483,0.25 0.75,0.35 0.033,0 0.066,0.017 0.1,0.05 0.167,0.067 0.333,0.134 0.5,0.2 l 1.6,0.5 c 0.533,0.101 1.066,0.15 1.601,0.15 0.066,0 0.116,0 0.149,0 h 0.2 c 0.066,0 0.134,0 0.2,0 l -0.2,1.2 h -0.1 c -0.034,-0.367 -0.084,-0.667 -0.15,-0.9 -1.7,-0.467 -3.017,-0.7 -3.95,-0.7 -0.333,0.134 -0.517,0.233 -0.55,0.3 -0.067,0.067 -0.117,0.15 -0.15,0.25 -0.1,0.101 -0.2,0.233 -0.3,0.4 -0.367,0.7 -0.65,1.184 -0.85,1.45 v -0.05 c 0.033,-0.4 0.216,-0.983 0.55,-1.75 0.167,-0.367 0.3,-0.667 0.4,-0.9 -0.133,-0.2 -0.3,-0.384 -0.5,-0.55 -0.566,-0.467 -0.983,-0.816 -1.25,-1.05 -0.066,0.033 -0.117,0.05 -0.15,0.05 -0.033,0.033 -0.067,0.05 -0.1,0.05 -0.4,0.167 -0.617,0.25 -0.65,0.25 l 0.4,-0.75 c -0.133,-0.167 -0.233,-0.384 -0.3,-0.65 C 98.817,244.5 98.8,244.4 98.8,244.3 z"
       style="fill:#d8baa7;fill-rule:evenodd" /><linearGradient
       y2="243.5172"
       x2="115.7734"
       y1="232.8721"
       x1="102.2393"
       gradientUnits="userSpaceOnUse"
       id="SVGID_10_"><stop
         id="stop139"
         style="stop-color:#D87562"
         offset="0.0078" /><stop
         id="stop141"
         style="stop-color:#D09679"
         offset="1" /></linearGradient><path
       inkscape:connector-curvature="0"
       id="path143"
       d="m 117.15,236.45 c -0.7,-0.101 -1.434,-0.283 -2.2,-0.55 0.2,-0.534 0.416,-1.134 0.649,-1.801 0.301,-0.767 0.551,-1.433 0.75,-2 0.634,0.233 1.284,0.45 1.95,0.65 -0.233,0.833 -0.55,1.917 -0.95,3.25 -0.066,0.135 -0.132,0.284 -0.199,0.451 z m -7.55,10.2 c -0.466,0.1 -0.966,0.166 -1.5,0.199 -0.433,0.034 -1.25,-0.05 -2.449,-0.25 -0.034,0 -0.067,0 -0.101,0 -0.2,-0.033 -0.399,-0.066 -0.6,-0.1 l -1.851,-0.6 c -0.066,-0.034 -0.149,-0.067 -0.25,-0.101 -0.133,-0.066 -0.267,-0.133 -0.4,-0.2 h -0.05 c -0.066,-0.033 -0.117,-0.05 -0.15,-0.05 -0.033,-0.033 -0.1,-0.066 -0.2,-0.1 -0.367,-0.233 -0.8,-0.601 -1.3,-1.101 2.333,0.801 4.184,1.2 5.55,1.2 0.334,0 0.65,-0.017 0.95,-0.05 0.768,0.437 1.551,0.819 2.351,1.153 z m 3.7,-6.3 c 0.733,0.334 1.467,0.617 2.2,0.851 -0.366,1.233 -1.066,2.383 -2.1,3.45 -0.634,-0.134 -1.467,-0.467 -2.5,-1 1,-0.901 1.8,-2.001 2.4,-3.301 z"
       style="fill:url(#linearGradient4474);fill-rule:evenodd" /><linearGradient
       y2="238.1754"
       x2="119.9746"
       y1="227.5303"
       x1="106.4404"
       gradientUnits="userSpaceOnUse"
       id="SVGID_11_"><stop
         id="stop146"
         style="stop-color:#D87562"
         offset="0.0078" /><stop
         id="stop148"
         style="stop-color:#DEAC94"
         offset="1" /></linearGradient><path
       inkscape:connector-curvature="0"
       id="path150"
       d="m 114.95,235.9 c -1.601,-0.567 -3.4,-1.467 -5.4,-2.7 0.7,-1.867 1.066,-3.25 1.101,-4.15 1.666,1.267 3.566,2.283 5.699,3.05 -0.199,0.567 -0.449,1.233 -0.75,2 -0.234,0.667 -0.45,1.266 -0.65,1.8 z"
       style="fill:url(#linearGradient4476);fill-rule:evenodd" /><linearGradient
       y2="237.8307"
       x2="120.2461"
       y1="227.1855"
       x1="106.7119"
       gradientUnits="userSpaceOnUse"
       id="SVGID_12_"><stop
         id="stop153"
         style="stop-color:#D87562"
         offset="0.0078" /><stop
         id="stop155"
         style="stop-color:#F4C3AB"
         offset="1" /></linearGradient><path
       inkscape:connector-curvature="0"
       id="path157"
       d="m 109.55,233.2 c -0.399,-0.267 -0.816,-0.55 -1.25,-0.851 -3,-2.1 -4.85,-4.85 -5.55,-8.25 0.8,-1.3 1.616,-1.983 2.45,-2.05 0.399,1.7 1.55,3.467 3.45,5.3 0.633,0.601 1.3,1.167 2,1.7 -0.034,0.901 -0.4,2.284 -1.1,4.151 z"
       style="fill:url(#linearGradient4478);fill-rule:evenodd" /><linearGradient
       y2="243.519"
       x2="116.5308"
       y1="236.05569"
       x1="99.850601"
       gradientUnits="userSpaceOnUse"
       id="SVGID_13_"><stop
         id="stop160"
         style="stop-color:#D87562"
         offset="0.0078" /><stop
         id="stop162"
         style="stop-color:#DEAC94"
         offset="1" /></linearGradient><path
       inkscape:connector-curvature="0"
       id="path164"
       d="m 113.3,240.35 c -0.6,1.301 -1.399,2.4 -2.399,3.301 -0.367,-0.2 -0.75,-0.434 -1.15,-0.7 -1.4,-0.867 -2.583,-1.634 -3.55,-2.3 0.399,-0.434 0.7,-0.9 0.899,-1.4 0.334,-0.8 0.634,-1.533 0.9,-2.2 1.4,1.101 2.917,2.084 4.55,2.95 0.233,0.133 0.483,0.249 0.75,0.349 z"
       style="fill:url(#linearGradient4480);fill-rule:evenodd" /><path
       inkscape:connector-curvature="0"
       id="path166"
       d="m 102.2,250.95 c -0.2,0.6 -0.417,1.3 -0.65,2.1 -0.5,1.5 -0.983,2.25 -1.45,2.25 -0.434,0 -0.65,-0.217 -0.65,-0.649 0,-0.267 0.083,-0.684 0.25,-1.25 0.033,-0.101 0.066,-0.184 0.1,-0.25 0.3,-0.301 0.817,-0.784 1.55,-1.45 0.3,-0.301 0.583,-0.551 0.85,-0.751 z m -7.4,1.35 c -0.333,-0.033 -0.65,-0.083 -0.95,-0.149 0.066,-0.5 0.367,-1.117 0.9,-1.851 0.433,-0.6 0.883,-1.083 1.35,-1.45 l -0.4,0.75 v 0.051 c 0.267,-0.2 0.75,-0.601 1.45,-1.2 0.167,-0.101 0.333,-0.2 0.5,-0.3 l -1.3,2.05 c -0.5,0.832 -1.017,1.532 -1.55,2.099 z"
       style="fill:#fff0e7;fill-rule:evenodd" /><g
       id="g168"><linearGradient
         gradientTransform="matrix(-0.8703,-0.4926,0.4205,-0.9111,-1.406074e-4,7.299185e-4)"
         y2="-151.8145"
         x2="-187.7977"
         y1="-151.8145"
         x1="-190.8428"
         gradientUnits="userSpaceOnUse"
         id="SVGID_14_"><stop
           id="stop171"
           style="stop-color:#FFFFFF;stop-opacity:0"
           offset="0" /><stop
           id="stop173"
           style="stop-color:#FFFFFF;stop-opacity:0.7216"
           offset="1" /></linearGradient><path
         inkscape:connector-curvature="0"
         id="path175"
         d="m 105.1,221.9 c 0.301,0.3 0.717,0.683 1.25,1.149 0.134,0.101 0.267,0.217 0.4,0.351 l -8.35,18.75 c -0.033,-0.034 -0.083,-0.051 -0.15,-0.051 -0.167,-0.399 -0.3,-0.666 -0.4,-0.8 -0.434,-0.566 -0.65,-1.383 -0.65,-2.45 0,-0.767 0.2,-1.85 0.6,-3.25 0.2,-0.733 0.45,-1.533 0.75,-2.399 0.267,-0.733 0.5,-1.367 0.7,-1.9 0.5,-1.467 0.8,-2.366 0.9,-2.7 0.1,-0.399 0.217,-0.767 0.35,-1.1 0.367,-1.2 0.8,-2.267 1.3,-3.2 0.067,-0.133 0.15,-0.267 0.25,-0.399 0.8,-1.301 1.617,-1.983 2.45,-2.051 0.033,0 0.083,0 0.15,0 l 0.45,0.05 z"
         style="fill:url(#linearGradient4482);fill-rule:evenodd" /></g><g
       id="g177"><path
         inkscape:connector-curvature="0"
         id="path179"
         d="m 123.35,218.85 c 0.101,0.2 0.117,0.351 0.051,0.45 -0.034,0.167 -0.067,0.334 -0.101,0.5 -0.066,0.101 -0.133,0.2 -0.2,0.3 0.067,0.101 0.117,0.367 0.15,0.801 0.033,0.1 0.05,0.233 0.05,0.399 0,0.634 -0.017,1.033 -0.05,1.2 -0.7,0.533 -1.583,0.983 -2.65,1.35 -0.767,0.301 -1.649,0.551 -2.649,0.75 0.066,0.233 0.1,0.467 0.1,0.7 0.101,0.667 -0.184,1.2 -0.85,1.601 -0.066,0.033 -0.117,0.066 -0.15,0.1 0.5,0.134 0.934,0.65 1.3,1.55 0.301,0.867 0.45,1.55 0.45,2.05 0.066,0.301 -0.1,1.017 -0.5,2.15 -0.233,0.833 -0.55,1.917 -0.95,3.25 -0.066,0.134 -0.133,0.283 -0.199,0.45 -0.9,2.733 -1.367,4.133 -1.4,4.2 -0.033,0.166 -0.116,0.35 -0.25,0.55 -0.366,1.233 -1.066,2.383 -2.1,3.45 -0.233,0.199 -0.467,0.399 -0.7,0.6 -0.867,0.7 -1.9,1.167 -3.101,1.4 -0.466,0.1 -0.966,0.166 -1.5,0.199 0.067,0.233 0.051,0.434 -0.05,0.601 0.134,0.133 0.283,0.267 0.45,0.399 0.033,0.034 0.066,0.067 0.1,0.101 0.167,0.2 0.351,0.416 0.551,0.649 h 0.05 c 0.066,0.101 0.149,0.2 0.25,0.301 0.066,0.066 0.133,0.149 0.2,0.25 l 0.699,0.899 c 0.034,0.033 0.067,0.084 0.101,0.15 0.066,0.066 0.133,0.149 0.2,0.25 0.033,0.066 0.083,0.133 0.149,0.2 0.2,0.3 0.417,0.583 0.65,0.85 0.7,0.934 1.066,1.566 1.1,1.9 l -0.5,1.05 c -0.366,0.7 -0.633,1.116 -0.8,1.25 -0.066,0.066 -0.134,0.116 -0.2,0.149 -1.366,0.9 -2.899,1.351 -4.6,1.351 -0.9,0 -1.617,-0.3 -2.15,-0.9 l -0.05,-0.05 c -0.134,-0.167 -0.25,-0.316 -0.35,-0.45 -0.334,-0.3 -0.634,-0.416 -0.9,-0.35 -0.067,0.033 -0.117,0.05 -0.15,0.05 -0.3,0.134 -0.583,0.25 -0.85,0.35 -0.3,0.134 -0.783,0.217 -1.45,0.25 -0.733,0.034 -1.3,-0.066 -1.7,-0.3 -0.033,0 -0.05,-0.017 -0.05,-0.05 -0.167,-0.1 -0.3,-0.184 -0.4,-0.25 -0.066,-0.066 -0.117,-0.116 -0.15,-0.15 -0.1,-0.1 -0.167,-0.183 -0.2,-0.25 v -0.05 c -0.066,-0.233 -0.183,-0.383 -0.35,-0.45 -0.167,-0.1 -0.333,-0.199 -0.5,-0.3 -0.534,-0.333 -1.217,-0.649 -2.05,-0.95 h -0.1 c -0.1,-0.033 -0.167,-0.066 -0.2,-0.1 -0.267,-0.1 -0.517,-0.184 -0.75,-0.25 l 1.75,0.35 c 1.167,0.233 2.767,-1.517 4.8,-5.25 l -1.7,4.7 c -0.133,0.267 -0.2,0.584 -0.2,0.95 0,0.7 0.033,1.116 0.1,1.25 0.033,0.066 0.35,0.167 0.95,0.3 0.567,0.134 1.25,0.033 2.05,-0.3 0.733,-0.333 1.466,-1.8 2.2,-4.4 -0.233,1.634 0.351,3.434 1.75,5.4 0.934,0.667 1.816,0.733 2.65,0.2 1,-0.634 1.5,-1.233 1.5,-1.8 0,-0.767 -0.417,-1.917 -1.25,-3.45 -0.834,-1.533 -1.5,-2.467 -2,-2.8 -1.2,-0.067 -2.483,-0.284 -3.85,-0.65 -0.5,-0.167 -1.25,-0.55 -2.25,-1.15 1.066,0.567 1.917,0.717 2.55,0.45 0.533,-0.267 -0.45,-0.934 -2.95,-2 5.866,1.267 9.533,1.283 11,0.05 0.1,-0.1 0.217,-0.199 0.35,-0.3 1.167,-0.899 2.117,-2.217 2.851,-3.95 0.699,-1.733 1.583,-4.233 2.649,-7.5 1.066,-3.3 0.634,-5.25 -1.3,-5.85 -4.767,-0.866 -7.767,-2.05 -9,-3.55 l 5.3,2 c 0.033,0 0.25,0.083 0.65,0.25 0.366,0.166 0.916,0.25 1.649,0.25 1.4,0 2.101,-0.217 2.101,-0.65 0,-0.399 -0.384,-0.816 -1.15,-1.25 -0.866,-0.434 -1.383,-0.7 -1.55,-0.8 0.3,0.167 0.6,0.267 0.9,0.3 0.1,0 0.433,0 1,0 0.666,0 1.683,-0.233 3.05,-0.7 1.8,-0.6 2.85,-1.333 3.149,-2.199 V 220.3 h -0.8 c -0.533,0.134 -1.967,0.4 -4.3,0.8 h -1.3 V 221 c 0.1,-0.1 0.934,-0.616 2.5,-1.55 1.5,-1.066 2.233,-1.983 2.2,-2.75 l -0.5,-0.101 c -2.4,1.834 -3.567,2.617 -3.5,2.351 0.033,-0.3 0.233,-0.934 0.6,-1.9 0.333,-0.967 0.217,-1.649 -0.35,-2.05 -0.567,-0.4 -1.084,-0.417 -1.551,-0.05 -0.466,0.366 -1.083,1.483 -1.85,3.35 -0.8,1.9 -1.083,2.4 -0.85,1.5 0.199,-0.934 0.583,-2.566 1.149,-4.899 0.533,-2.367 -0.149,-3.617 -2.05,-3.75 -1.934,-0.167 -2.95,-0.25 -3.05,-0.25 0.434,-0.134 0.883,-0.217 1.35,-0.25 0.767,-0.067 1.533,-0.034 2.3,0.1 0.534,0.134 0.95,0.366 1.25,0.7 l 0.051,0.05 c 0.133,0.134 0.25,0.316 0.35,0.55 0.267,0.667 0.583,0.983 0.95,0.95 0.267,-0.033 0.55,-0.066 0.85,-0.1 0.033,-0.034 0.084,-0.051 0.15,-0.051 0.267,-0.1 0.717,-0.1 1.35,0 0.601,0.134 1.05,0.334 1.351,0.601 l 0.05,0.05 c 0.166,0.167 0.283,0.316 0.35,0.45 0.101,0.166 0.15,0.3 0.15,0.399 0.033,0.233 0.1,0.384 0.2,0.45 0.1,0.101 0.199,0.217 0.3,0.351 0.533,0.566 1.366,1.183 2.5,1.85 0.066,0.066 0.166,0.134 0.3,0.2 0.767,0.599 1.217,1.149 1.35,1.649 z"
         style="fill-opacity:0.24709999;fill-rule:evenodd" /></g><g
       id="g181"><path
         inkscape:connector-curvature="0"
         id="path183"
         d="m 116.05,225.3 c 0.167,-0.233 0.367,-0.366 0.601,-0.399 0.033,0 0.267,0 0.699,0 0.634,0 1.167,0.267 1.601,0.8 0.066,0.066 0.116,0.133 0.149,0.2 0.034,0.133 0.051,0.283 0.051,0.449 0,0.134 -0.084,0.4 -0.25,0.801 -0.034,0.066 -0.051,0.133 -0.051,0.199 -0.133,0.2 -0.233,0.351 -0.3,0.45 0,0.233 -0.1,0.5 -0.3,0.8 -0.3,0.4 -0.684,0.601 -1.15,0.601 h -0.05 c -0.399,-0.033 -0.75,-0.417 -1.05,-1.15 -0.167,-0.434 -0.267,-0.8 -0.3,-1.1 -0.033,-0.134 0.017,-0.217 0.149,-0.25 -0.033,0.033 -0.05,0.066 -0.05,0.1 l 0.05,0.05 c 0.101,0.2 0.25,0.517 0.45,0.95 0.233,0.4 0.634,0.601 1.2,0.601 0.533,0 0.85,-0.167 0.95,-0.5 0,-0.067 0,-0.15 0,-0.25 0,-0.034 0,-0.084 0,-0.15 0,-0.333 -0.05,-0.6 -0.15,-0.8 -0.3,-0.601 -0.899,-0.9 -1.8,-0.9 -0.2,0 -0.35,0.033 -0.45,0.101 0,-0.134 0,-0.25 0,-0.351 10e-4,-0.102 10e-4,-0.186 10e-4,-0.252 z m -0.6,-0.8 c 0,0.1 0,0.267 0,0.5 0,1.066 -0.4,1.6 -1.2,1.6 -0.267,0 -0.467,-0.033 -0.6,-0.1 0,-0.134 0.017,-0.25 0.05,-0.35 0,-0.101 0.017,-0.184 0.05,-0.25 0.033,0 0.066,0 0.1,0 0.034,-0.034 0.067,-0.067 0.101,-0.101 l 0.05,-0.05 c 0.233,-0.267 0.35,-0.467 0.35,-0.6 0,-0.034 0,-0.067 0,-0.101 l 0.101,0.05 c 0.2,0 0.399,-0.1 0.6,-0.3 0.101,-0.133 0.167,-0.25 0.2,-0.35 0.064,0.002 0.132,0.019 0.198,0.052 z m -4.4,-0.7 c -0.066,0.101 -0.083,0.2 -0.05,0.3 0.134,0.067 0.467,0.084 1,0.051 0.566,0 0.95,0.017 1.15,0.05 0.267,0.066 0.55,0.233 0.85,0.5 0.1,0.1 0.184,0.184 0.25,0.25 -0.566,-0.167 -1.483,-0.217 -2.75,-0.15 -1.1,0.066 -1.65,-0.083 -1.65,-0.45 0,-0.199 0.034,-0.366 0.101,-0.5 0.133,-0.033 0.283,-0.05 0.45,-0.05 0.199,-10e-4 0.415,-10e-4 0.649,-10e-4 z m 4.45,12.6 h -0.75 -0.1 c -0.2,-0.101 -0.301,-0.534 -0.301,-1.301 0,-1.633 0.217,-3.8 0.65,-6.5 0.033,0.134 0.2,0.367 0.5,0.7 0.366,0.4 0.55,0.7 0.55,0.9 0,0.066 -0.116,0.6 -0.35,1.6 -0.234,1 -0.351,1.851 -0.351,2.55 0.002,0.568 0.052,1.251 0.152,2.051 z m -3,-8.8 c 0.333,0.167 0.55,0.233 0.65,0.2 0,0.167 -0.067,0.4 -0.2,0.7 -0.134,0.3 -0.2,0.6 -0.2,0.9 l 0.2,2.449 c 0,0.167 0,0.317 0,0.45 0,0.066 0,0.134 0,0.2 -0.267,-0.1 -0.483,-0.184 -0.65,-0.25 -0.366,-0.134 -0.583,-0.233 -0.649,-0.3 -0.067,-0.066 -0.101,-0.316 -0.101,-0.75 0,-0.066 0,-0.15 0,-0.25 0,-0.2 0.017,-0.4 0.05,-0.601 0.067,-0.931 0.367,-1.848 0.9,-2.748 z m -2.25,-2.1 c -0.2,0.167 -0.3,0.35 -0.3,0.55 0,0.5 0.25,0.75 0.75,0.75 0.133,0 0.3,-0.033 0.5,-0.1 0.2,-0.101 0.45,-0.217 0.75,-0.351 0.434,-0.233 0.899,-0.366 1.399,-0.399 -0.199,0.133 -0.583,0.399 -1.149,0.8 -0.7,0.5 -1.233,0.75 -1.601,0.75 -0.333,0 -0.566,-0.1 -0.699,-0.3 -0.101,-0.167 -0.15,-0.367 -0.15,-0.601 0,-0.599 0.167,-0.965 0.5,-1.099 z"
         style="fill:#c59487;fill-rule:evenodd" /><path
         inkscape:connector-curvature="0"
         id="path185"
         d="m 114.75,236.4 h 0.75 0.05 c -0.033,-0.733 0.101,-1.884 0.4,-3.45 0.267,-1.5 0.383,-2.617 0.35,-3.351 0.3,0.334 0.733,0.5 1.3,0.5 0.534,0 0.967,-0.1 1.301,-0.3 -0.067,0.167 -0.15,0.334 -0.25,0.5 -0.301,0.533 -0.684,0.8 -1.15,0.8 -0.533,-0.1 -0.833,-0.133 -0.9,-0.1 -0.066,0.066 -0.149,0.566 -0.25,1.5 -0.166,0.767 -0.3,1.267 -0.399,1.5 0,0.066 0,0.467 0,1.2 0,0.666 0.033,1.166 0.1,1.5 h -0.899 c -0.203,-0.133 -0.337,-0.232 -0.403,-0.299 z m 0.25,-7.85 c -0.333,-0.033 -0.566,-0.033 -0.7,0 -0.3,0.066 -0.45,0.483 -0.45,1.25 l 0.2,1.8 v 1.101 c -0.233,0.033 -0.483,-0.033 -0.75,-0.2 h 0.15 l -0.101,-2.5 c 0,-0.8 0.017,-1.267 0.051,-1.4 0.066,-0.3 0.216,-0.616 0.449,-0.949 0.134,0.033 0.284,0.05 0.45,0.05 0.3,0 0.584,-0.084 0.851,-0.25 -0.067,0.333 -0.117,0.649 -0.15,0.95 0,0.032 0,0.081 0,0.148 z m -2.1,-1.6 c -0.167,0.233 -0.301,0.45 -0.4,0.649 -0.533,0.9 -0.833,1.817 -0.9,2.75 -0.066,-0.133 -0.116,-0.267 -0.149,-0.399 -0.2,-0.467 -0.267,-0.851 -0.2,-1.15 -0.366,0.167 -0.767,0.167 -1.2,0 -0.399,-0.133 -0.666,-0.366 -0.8,-0.7 0.333,0.267 0.767,0.4 1.3,0.4 0.134,0 0.533,-0.25 1.2,-0.75 0.433,-0.333 0.815,-0.6 1.149,-0.8 z m -2.65,-1.45 c 0.066,-0.066 0.167,-0.134 0.3,-0.2 0.4,-0.2 0.851,-0.3 1.351,-0.3 0.433,0 0.699,0.017 0.8,0.05 0.066,0 0.166,0.033 0.3,0.101 -0.233,0.033 -0.45,0.066 -0.65,0.1 -1.066,0.233 -1.6,0.566 -1.6,1 0,0.134 0.017,0.217 0.05,0.25 0.033,0.066 0.167,0.134 0.4,0.2 -0.2,0.066 -0.367,0.1 -0.5,0.1 -0.5,0 -0.75,-0.25 -0.75,-0.75 -10e-4,-0.201 0.099,-0.384 0.299,-0.551 z m 5.6,1.2 c 0.101,-0.233 0.167,-0.467 0.2,-0.7 l -0.1,-0.1 c 0.033,0 0.066,0 0.1,0 0.101,-0.067 0.25,-0.101 0.45,-0.101 0.9,0 1.5,0.3 1.8,0.9 -0.233,-0.066 -0.583,-0.101 -1.05,-0.101 -0.667,0 -1.134,0.084 -1.4,0.25 l -0.05,-0.05 c 0,-0.031 0.016,-0.065 0.05,-0.098 z"
         style="fill-opacity:0.25100002;fill-rule:evenodd" /><path
         inkscape:connector-curvature="0"
         id="path187"
         d="m 119.65,228.15 c -0.034,0.1 -0.084,0.199 -0.15,0.3 -0.1,0.233 -0.233,0.434 -0.4,0.6 -0.033,0.033 -0.066,0.066 -0.1,0.101 -0.333,0.233 -0.717,0.35 -1.15,0.35 -0.233,0 -0.366,0 -0.399,0 -0.066,-0.033 -0.2,-0.134 -0.4,-0.3 h 0.05 c 0.467,0 0.851,-0.2 1.15,-0.601 0.2,-0.3 0.3,-0.566 0.3,-0.8 0.066,-0.1 0.167,-0.25 0.3,-0.45 0,-0.066 0.017,-0.133 0.051,-0.199 0.166,-0.4 0.25,-0.667 0.25,-0.801 0,-0.166 -0.017,-0.316 -0.051,-0.449 0.367,0.533 0.551,1.233 0.551,2.1 -0.002,0.032 -0.002,0.082 -0.002,0.149 z m -9.4,-2.65 c -0.333,0.134 -0.5,0.5 -0.5,1.1 0,0.233 0.05,0.434 0.15,0.601 -0.9,-0.7 -1.351,-1.4 -1.351,-2.101 0,-0.166 0.033,-0.316 0.101,-0.449 0.033,-0.101 0.1,-0.184 0.199,-0.25 0,-0.034 0.017,-0.067 0.051,-0.101 0.267,-0.267 0.616,-0.416 1.05,-0.45 -0.066,0.134 -0.101,0.301 -0.101,0.5 0,0.367 0.551,0.517 1.65,0.45 1.267,-0.066 2.184,-0.017 2.75,0.15 0.033,0 0.066,0 0.1,0 v 0.1 c 0,0.033 0,0.066 0,0.101 0,0.133 -0.116,0.333 -0.35,0.6 -0.434,-0.3 -0.767,-0.5 -1,-0.6 -0.134,-0.067 -0.233,-0.101 -0.3,-0.101 -0.101,-0.033 -0.367,-0.05 -0.8,-0.05 -0.5,0 -0.95,0.1 -1.351,0.3 -0.131,0.066 -0.232,0.134 -0.298,0.2 z"
         style="fill:#af7f72;fill-rule:evenodd" /><path
         inkscape:connector-curvature="0"
         id="path189"
         d="m 112.9,226.95 c -0.334,0.2 -0.717,0.467 -1.15,0.8 -0.667,0.5 -1.066,0.75 -1.2,0.75 -0.533,0 -0.967,-0.134 -1.3,-0.4 -0.134,-0.066 -0.25,-0.166 -0.35,-0.3 -0.4,-0.467 -0.601,-1.1 -0.601,-1.899 0,-0.5 0.117,-0.917 0.351,-1.25 -0.067,0.133 -0.101,0.283 -0.101,0.449 0,0.7 0.45,1.4 1.351,2.101 0.133,0.2 0.366,0.3 0.699,0.3 0.367,0 0.9,-0.25 1.601,-0.75 0.566,-0.4 0.95,-0.667 1.149,-0.8 0.134,-0.033 0.267,-0.05 0.4,-0.05 -0.033,0.066 -0.05,0.149 -0.05,0.25 -0.033,0.1 -0.05,0.216 -0.05,0.35 0.133,0.066 0.333,0.1 0.6,0.1 0.8,0 1.2,-0.533 1.2,-1.6 0,-0.233 0,-0.4 0,-0.5 0.333,0.167 0.533,0.434 0.6,0.8 0,0.066 0,0.15 0,0.25 0,0.101 0,0.217 0,0.351 -0.033,0 -0.066,0 -0.1,0 l 0.1,0.1 c -0.033,0.233 -0.1,0.467 -0.2,0.7 -0.133,0.033 -0.183,0.116 -0.149,0.25 0.033,0.3 0.133,0.666 0.3,1.1 0.3,0.733 0.65,1.117 1.05,1.15 0.2,0.166 0.334,0.267 0.4,0.3 0.033,0 0.166,0 0.399,0 0.434,0 0.817,-0.116 1.15,-0.35 0.033,-0.034 0.066,-0.067 0.1,-0.101 0.167,-0.166 0.301,-0.366 0.4,-0.6 0.066,-0.101 0.116,-0.2 0.15,-0.3 -0.034,0.767 -0.284,1.316 -0.75,1.649 -0.334,0.2 -0.767,0.3 -1.301,0.3 -0.566,0 -1,-0.166 -1.3,-0.5 -0.166,-0.166 -0.3,-0.366 -0.399,-0.6 -0.034,-0.134 -0.051,-0.267 -0.051,-0.4 -0.133,-0.633 -0.25,-1.1 -0.35,-1.399 h -0.05 c -0.101,0.1 -0.2,0.184 -0.3,0.25 -0.267,0.166 -0.551,0.25 -0.851,0.25 -0.166,0 -0.316,-0.017 -0.45,-0.05 -0.366,-0.134 -0.583,-0.417 -0.649,-0.851 -0.098,0.033 -0.198,0.084 -0.298,0.15 z"
         style="fill:#976b5f;fill-rule:evenodd" /><path
         inkscape:connector-curvature="0"
         id="path191"
         d="m 111.05,223.8 c 0.434,0.033 0.917,0.084 1.45,0.15 0.5,0.066 0.983,0.267 1.45,0.6 0.1,-0.166 0.25,-0.25 0.45,-0.25 0.333,0 0.616,0.05 0.85,0.15 -0.033,0.1 -0.1,0.217 -0.2,0.35 -0.2,0.2 -0.399,0.3 -0.6,0.3 l -0.101,-0.05 v -0.1 c -0.033,0 -0.066,0 -0.1,0 -0.066,-0.066 -0.15,-0.15 -0.25,-0.25 -0.3,-0.267 -0.583,-0.434 -0.85,-0.5 -0.2,-0.033 -0.584,-0.05 -1.15,-0.05 -0.533,0.033 -0.866,0.017 -1,-0.051 -0.032,-0.099 -0.016,-0.199 0.051,-0.299 z"
         style="fill:#e1b9ae;fill-rule:evenodd" /><path
         inkscape:connector-curvature="0"
         id="path193"
         d="m 112.9,226.95 c 0.1,-0.066 0.199,-0.117 0.3,-0.15 0.066,0.434 0.283,0.717 0.649,0.851 -0.233,0.333 -0.383,0.649 -0.449,0.949 -0.034,0.134 -0.051,0.601 -0.051,1.4 l 0.101,2.5 h -0.15 -0.35 c 0,-0.066 0,-0.134 0,-0.2 0,-0.133 0,-0.283 0,-0.45 l -0.2,-2.449 c 0,-0.301 0.066,-0.601 0.2,-0.9 0.133,-0.3 0.2,-0.533 0.2,-0.7 -0.101,0.033 -0.317,-0.033 -0.65,-0.2 0.1,-0.201 0.233,-0.417 0.4,-0.651 z m 2.1,1.6 c 0,-0.066 0,-0.116 0,-0.149 0.033,-0.301 0.083,-0.617 0.15,-0.95 0.1,-0.066 0.199,-0.15 0.3,-0.25 h 0.05 c 0.1,0.3 0.217,0.767 0.35,1.399 0,0.134 0.017,0.267 0.051,0.4 0.1,0.233 0.233,0.434 0.399,0.6 0.033,0.733 -0.083,1.851 -0.35,3.351 -0.3,1.566 -0.434,2.717 -0.4,3.45 h -0.05 c -0.1,-0.801 -0.15,-1.483 -0.15,-2.051 0,-0.699 0.117,-1.55 0.351,-2.55 0.234,-1 0.35,-1.533 0.35,-1.6 0,-0.2 -0.184,-0.5 -0.55,-0.9 -0.3,-0.333 -0.467,-0.566 -0.5,-0.7 v -0.05 z"
         style="fill:#966b60;fill-rule:evenodd" /></g></g><g
     id="price_x5F_tag_x5F_pt_x5F_mc"
     transform="translate(0,-44.150005)"><use
       xlink:href="#price_x5F_tag_x5F_pt_x5F_mc_1_"
       width="-32766"
       height="-32766"
       id="price_x5F_tag_x5F_pt"
       x="16383"
       y="16383"
       transform="matrix(1,0,0,-1,102,217.9496)"
       style="overflow:visible" /></g></svg>