<?xml version="1.0" encoding="iso-8859-1"?>
<!-- Generator: Adobe Illustrator 15.1.0, SVG Export Plug-In . SVG Version: 6.00 Build 0)  -->
<!DOCTYPE svg PUBLIC "-//W3C//DTD SVG 1.1//EN" "http://www.w3.org/Graphics/SVG/1.1/DTD/svg11.dtd">
<svg version="1.1" id="FlashAICB" xmlns="http://www.w3.org/2000/svg" xmlns:xlink="http://www.w3.org/1999/xlink" x="0px" y="0px"
	 width="51.75px" height="40.15px" viewBox="0 0 51.75 40.15" style="enable-background:new 0 0 51.75 40.15;" xml:space="preserve"
	>
<symbol  id="_x31_" viewBox="0 -27.05 22.3 27.05">
	<g id="Layer_1_2_">
		<g>
			<g>
				<linearGradient id="SVGID_1_" gradientUnits="userSpaceOnUse" x1="17.5376" y1="-2.0752" x2="20.6626" y2="-2.0752">
					<stop  offset="0" style="stop-color:#FBF5E7"/>
					<stop  offset="1" style="stop-color:#A99A75"/>
				</linearGradient>
				<polygon style="fill-rule:evenodd;clip-rule:evenodd;fill:url(#SVGID_1_);" points="17.1,-3.4 20.5,-0.101 20.7,-0.25 
					20.65,-3.55 17.25,-4.05 				"/>
				<linearGradient id="SVGID_2_" gradientUnits="userSpaceOnUse" x1="4.2627" y1="-2.6758" x2="20.3377" y2="-2.6758">
					<stop  offset="0" style="stop-color:#A79B72"/>
					<stop  offset="1" style="stop-color:#8F815F"/>
				</linearGradient>
				<polygon style="fill-rule:evenodd;clip-rule:evenodd;fill:url(#SVGID_2_);" points="20.3,-5.351 1.85,-5 2.05,0 20.5,-0.101 
									"/>
				
					<linearGradient id="SVGID_3_" gradientUnits="userSpaceOnUse" x1="173.9258" y1="-16491.4141" x2="196.2308" y2="-16491.4141" gradientTransform="matrix(-0.0213 -0.9998 0.9998 -0.0213 16510.0664 -179.8584)">
					<stop  offset="0" style="stop-color:#5D553D"/>
					<stop  offset="1" style="stop-color:#A39A78"/>
				</linearGradient>
				<polygon style="fill-rule:evenodd;clip-rule:evenodd;fill:url(#SVGID_3_);" points="14.5,-7.2 20.7,-1.851 22.3,-25 
					18.8,-27.05 				"/>
				
					<linearGradient id="SVGID_4_" gradientUnits="userSpaceOnUse" x1="-1646.0977" y1="-2115.9941" x2="-1639.4941" y2="-2115.9941" gradientTransform="matrix(0.973 -0.2309 0.2309 0.973 2107.7607 1665.1953)">
					<stop  offset="0" style="stop-color:#5D553D"/>
					<stop  offset="1" style="stop-color:#A39A78"/>
				</linearGradient>
				<polygon style="fill-rule:evenodd;clip-rule:evenodd;fill:url(#SVGID_4_);" points="19.95,-26.351 20.65,-1.9 20.7,-1.9 
					22.3,-25 				"/>
				
					<linearGradient id="SVGID_5_" gradientUnits="userSpaceOnUse" x1="-3057.4727" y1="-5562.6094" x2="-3052.79" y2="-5562.6094" gradientTransform="matrix(0.8489 -0.5286 0.5286 0.8489 5552.9106 3082.0723)">
					<stop  offset="0" style="stop-color:#5D553D"/>
					<stop  offset="1" style="stop-color:#A39A78"/>
				</linearGradient>
				<polygon style="fill-rule:evenodd;clip-rule:evenodd;fill:url(#SVGID_5_);" points="18.8,-27.05 19.95,-23.9 22.3,-24.95 
					22.3,-25 				"/>
				
					<linearGradient id="SVGID_6_" gradientUnits="userSpaceOnUse" x1="-3337.0225" y1="-9191.5215" x2="-3310.8452" y2="-9191.5215" gradientTransform="matrix(0.6418 -0.7669 0.7669 0.6418 9191.832 3336.1641)">
					<stop  offset="0" style="stop-color:#A79B72"/>
					<stop  offset="1" style="stop-color:#8F815F"/>
				</linearGradient>
				<polygon style="fill-rule:evenodd;clip-rule:evenodd;fill:url(#SVGID_6_);" points="18.8,-27 0,-26.9 1.85,-1.851 20.65,-1.9 
									"/>
				<path style="fill-rule:evenodd;clip-rule:evenodd;fill:#A79D78;" d="M18.85-2.4l-17,0.3v0.25l18.8-0.05L18.8-27l-6.45,0.05
					c2.067,0.066,3.617,0.5,4.65,1.3l0.95,1.2l1.7,19c0.133,1.2,0.133,2.033,0,2.5C19.583-2.65,19.317-2.467,18.85-2.4z"/>
				<path style="fill-rule:evenodd;clip-rule:evenodd;fill:#8C8164;" d="M1.85-1.851H2.9C2.733-3.684,2.483-7.667,2.15-13.8
					c-0.4-6.534-0.567-9.95-0.5-10.25c0.1-0.6,0.267-1.083,0.5-1.45c0.433-0.667,1.216-1.15,2.35-1.45L0-26.9L1.85-1.851z"/>
				
					<linearGradient id="SVGID_7_" gradientUnits="userSpaceOnUse" x1="-2952.3252" y1="-10655.3477" x2="-2935.6533" y2="-10655.3477" gradientTransform="matrix(0.5383 -0.8427 0.8758 0.4866 10926.6621 2687.2773)">
					<stop  offset="0" style="stop-color:#FBF5E7"/>
					<stop  offset="1" style="stop-color:#D7C8A4"/>
				</linearGradient>
				<path style="fill-rule:evenodd;clip-rule:evenodd;fill:url(#SVGID_7_);" d="M17.75-11.351L17.2-22.3
					c-0.033-1.034-0.433-1.9-1.2-2.6c-0.767-0.733-1.667-1.066-2.7-1L6-25.75c-1,0.034-1.85,0.417-2.55,1.15
					c-0.667,0.733-0.967,1.617-0.9,2.65L3.15-11c0.066,1.034,0.466,1.9,1.2,2.6S5.967-7.367,7-7.4l7.25-0.2
					c1.034-0.033,1.883-0.417,2.55-1.15C17.5-9.484,17.817-10.351,17.75-11.351z"/>
				<linearGradient id="SVGID_8_" gradientUnits="userSpaceOnUse" x1="3.9629" y1="-6.0029" x2="20.2379" y2="-6.0029">
					<stop  offset="0" style="stop-color:#E38E1B"/>
					<stop  offset="1" style="stop-color:#C96A14"/>
				</linearGradient>
				<path style="fill-rule:evenodd;clip-rule:evenodd;fill:url(#SVGID_8_);" d="M1.6-5c4.667,0.1,10.934,0.034,18.8-0.2l-0.15-1.85
					C13.583-6.784,7.333-6.65,1.5-6.65L1.6-5z"/>
				<linearGradient id="SVGID_9_" gradientUnits="userSpaceOnUse" x1="4.0376" y1="-4.6504" x2="20.2626" y2="-4.6504">
					<stop  offset="0" style="stop-color:#B0D946"/>
					<stop  offset="1" style="stop-color:#96C423"/>
				</linearGradient>
				<path style="fill-rule:evenodd;clip-rule:evenodd;fill:url(#SVGID_9_);" d="M1.65-4c3.333,0,9.6-0.066,18.8-0.2l-0.1-1.1
					C13.784-5.034,7.55-4.934,1.65-5V-4z"/>
				
					<linearGradient id="SVGID_10_" gradientUnits="userSpaceOnUse" x1="-102.9531" y1="-18.6719" x2="-90.3803" y2="-18.6719" gradientTransform="matrix(1 0 0.0131 1 106.9102 0)">
					<stop  offset="0" style="stop-color:#E38E1B"/>
					<stop  offset="1" style="stop-color:#C96A14"/>
				</linearGradient>
				<path style="fill-rule:evenodd;clip-rule:evenodd;fill:url(#SVGID_10_);" d="M14.7-14.351c1.033-0.667,1.567-1.95,1.6-3.85
					c0.066-2-0.567-3.434-1.9-4.3c-1.6-1.066-3.083-1.367-4.45-0.9c-1.4-0.434-2.883-0.117-4.45,0.95c-1.3,0.9-1.883,2.35-1.75,4.35
					c0.1,1.867,0.65,3.134,1.65,3.8c1.133,0.667,2.683,0.733,4.65,0.2C12.05-13.534,13.6-13.617,14.7-14.351z"/>
				<path style="fill-rule:evenodd;clip-rule:evenodd;fill:#835417;" d="M10-14.55c0.767,0.033,1.417,0,1.95-0.1
					C12.284-14.684,12.3-14.8,12-15c-0.3-0.233-0.733-0.383-1.3-0.45c-0.533-0.067-1,0.017-1.4,0.25
					c-0.333,0.167-0.533,0.35-0.6,0.55c-0.033,0.133,0.133,0.184,0.5,0.15C9.7-14.534,9.967-14.55,10-14.55z"/>
				
					<linearGradient id="SVGID_11_" gradientUnits="userSpaceOnUse" x1="-1144.1426" y1="-14803.1133" x2="-1139.3461" y2="-14803.1133" gradientTransform="matrix(0.172 -0.9851 0.9885 0.1525 14839.375 1120.0078)">
					<stop  offset="0" style="stop-color:#97DC1E"/>
					<stop  offset="1" style="stop-color:#567D0D"/>
				</linearGradient>
				<path style="fill-rule:evenodd;clip-rule:evenodd;fill:url(#SVGID_11_);" d="M10.85-13.45l-0.25-1.1
					c-0.1-0.7-0.417-0.85-0.95-0.45c-0.034,1.133-0.233,2.05-0.6,2.75L8.5-11.2c0,0.1,0.034,0.233,0.1,0.4
					c0.167,0.3,0.467,0.55,0.9,0.75c0.3,0.133,0.633,0.183,1,0.15c0.2-0.033,0.35-0.083,0.45-0.15L11-11.3
					C11-12.267,10.95-12.984,10.85-13.45z"/>
				
					<linearGradient id="SVGID_12_" gradientUnits="userSpaceOnUse" x1="-1206.3594" y1="-14801.7012" x2="-1203.7454" y2="-14801.7012" gradientTransform="matrix(0.1721 -0.9851 0.9869 0.1615 14825.2881 1193.6758)">
					<stop  offset="0" style="stop-color:#97DC1E"/>
					<stop  offset="1" style="stop-color:#567D0D"/>
				</linearGradient>
				<path style="fill-rule:evenodd;clip-rule:evenodd;fill:url(#SVGID_12_);" d="M9.8-11.351c-0.567-0.233-1-0.183-1.3,0.15
					c0,0.1,0.034,0.233,0.1,0.4c0.167,0.3,0.467,0.55,0.9,0.75c0.3,0.133,0.633,0.183,1,0.15c0.2-0.033,0.35-0.083,0.45-0.15
					L11-10.5C10.9-10.734,10.5-11.017,9.8-11.351z"/>
				<g>
					<linearGradient id="SVGID_13_" gradientUnits="userSpaceOnUse" x1="-1.7622" y1="-11.9204" x2="11.5628" y2="-11.9204">
						<stop  offset="0.1882" style="stop-color:#000000;stop-opacity:0.2"/>
						<stop  offset="0.4471" style="stop-color:#000000;stop-opacity:0.2"/>
					</linearGradient>
					<path style="fill-rule:evenodd;clip-rule:evenodd;fill:url(#SVGID_13_);" d="M10.95-10.05v-0.05H10.8
						c-0.2-0.066-0.417-0.133-0.65-0.2c-0.5-0.167-0.817-0.35-0.95-0.55c-0.133-0.167-0.133-0.4,0-0.7
						c0.233-0.434,0.367-0.767,0.4-1c0.1-0.6,0.067-1.067-0.1-1.4c-0.066,0.667-0.216,1.233-0.45,1.7L8.5-11.2
						c0,0.1,0.034,0.233,0.1,0.4c0.167,0.3,0.467,0.55,0.9,0.75c0.3,0.133,0.633,0.183,1,0.15C10.7-9.934,10.85-9.984,10.95-10.05z"
						/>
					<linearGradient id="SVGID_14_" gradientUnits="userSpaceOnUse" x1="-1.7622" y1="-17.8975" x2="11.5628" y2="-17.8975">
						<stop  offset="0.1882" style="stop-color:#000000;stop-opacity:0.2"/>
						<stop  offset="0.4471" style="stop-color:#000000;stop-opacity:0.2"/>
					</linearGradient>
					<path style="fill-rule:evenodd;clip-rule:evenodd;fill:url(#SVGID_14_);" d="M9.5-13.95c-0.3,0.033-0.683,0.033-1.15,0
						c-0.9-0.1-1.683-0.4-2.35-0.9c-0.8-0.566-1.3-1.583-1.5-3.05c-0.167-1.4-0.017-2.684,0.45-3.85l0.15-0.35
						c-1.066,1-1.517,2.417-1.35,4.25c0.167,1.733,0.717,2.917,1.65,3.55C6.434-13.634,7.8-13.517,9.5-13.95z"/>
					<linearGradient id="SVGID_15_" gradientUnits="userSpaceOnUse" x1="9.2627" y1="-19.1392" x2="19.9377" y2="-19.1392">
						<stop  offset="0.3451" style="stop-color:#FFFDFD;stop-opacity:0.4"/>
						<stop  offset="0.5137" style="stop-color:#FFFDFD;stop-opacity:0.4"/>
					</linearGradient>
					<path style="fill-rule:evenodd;clip-rule:evenodd;fill:url(#SVGID_15_);" d="M15.5-19.25c0.4,1.5,0.267,3.017-0.4,4.55
						c0.867-0.9,1.283-2.2,1.25-3.9c-0.066-1.8-0.717-3.1-1.95-3.9c-1.467-0.966-2.883-1.283-4.25-0.95
						c1.267,0.1,2.383,0.517,3.35,1.25C14.534-21.434,15.2-20.45,15.5-19.25z"/>
				</g>
			</g>
			<path style="fill-rule:evenodd;clip-rule:evenodd;fill:#835417;" d="M10.95-15h0.55c0.767-0.2,1.284-0.633,1.55-1.3
				c0.233-0.633,0.283-1.667,0.15-3.1c-0.1-1.2-0.633-2.233-1.6-3.1c-0.5-0.433-0.983-0.75-1.45-0.95
				c0.433,0.366,0.867,0.866,1.3,1.5c0.867,1.267,1.317,2.5,1.35,3.7c0.066,1.233-0.217,2.15-0.85,2.75L10.95-15z"/>
			<path style="fill-rule:evenodd;clip-rule:evenodd;fill:#835417;" d="M9.65-15L9.3-15.3l-0.8-0.4c-0.6-0.434-1.1-1.083-1.5-1.95
				c-0.4-0.9-0.233-2.15,0.5-3.75c0.367-0.8,0.767-1.5,1.2-2.1c-0.5,0.467-0.967,1.067-1.4,1.8c-0.9,1.466-1.167,2.816-0.8,4.05
				c0.367,1.2,1,2,1.9,2.4L9.65-15z"/>
			<linearGradient id="SVGID_16_" gradientUnits="userSpaceOnUse" x1="3.7378" y1="-17.353" x2="11.2628" y2="-17.353">
				<stop  offset="0.3451" style="stop-color:#FFFDFD;stop-opacity:0.4"/>
				<stop  offset="0.5137" style="stop-color:#FFFDFD;stop-opacity:0.4"/>
			</linearGradient>
			<path style="fill-rule:evenodd;clip-rule:evenodd;fill:url(#SVGID_16_);" d="M7.3-14.15c0.633,0.167,1.083-0.133,1.35-0.9
				c0.267-0.767,0.017-1.317-0.75-1.65c-1.1-0.5-2-1.3-2.7-2.4c-0.333-0.566-0.567-1.066-0.7-1.5c-0.167,0.9-0.167,1.85,0,2.85
				C4.8-15.784,5.733-14.584,7.3-14.15z"/>
		</g>
	</g>
</symbol>
<use xlink:href="#_x31_"  width="22.3" height="27.05" y="-27.05" transform="matrix(1 0 0 -1 -0.0498 0)" style="overflow:visible;"/>
</svg>
