<?xml version="1.0" encoding="UTF-8" standalone="no"?>
<!-- Created with Inkscape (http://www.inkscape.org/) -->

<svg
   xmlns:dc="http://purl.org/dc/elements/1.1/"
   xmlns:cc="http://creativecommons.org/ns#"
   xmlns:rdf="http://www.w3.org/1999/02/22-rdf-syntax-ns#"
   xmlns:svg="http://www.w3.org/2000/svg"
   xmlns="http://www.w3.org/2000/svg"
   xmlns:xlink="http://www.w3.org/1999/xlink"
   xmlns:sodipodi="http://sodipodi.sourceforge.net/DTD/sodipodi-0.dtd"
   xmlns:inkscape="http://www.inkscape.org/namespaces/inkscape"
   width="100"
   height="100"
   id="svg10898"
   version="1.1"
   inkscape:version="0.48.5 r10040"
   sodipodi:docname="New document 16">
  <defs
     id="defs10900">
    <linearGradient
       inkscape:collect="always"
       xlink:href="#SVGID_2_-5"
       id="linearGradient10816"
       gradientUnits="userSpaceOnUse"
       x1="97.354042"
       y1="21.180441"
       x2="117.27059"
       y2="21.180441" />
    <linearGradient
       id="SVGID_2_-5"
       gradientUnits="userSpaceOnUse"
       x1="16311.385"
       y1="-8.5337"
       x2="16342.135"
       y2="-8.5337"
       gradientTransform="matrix(3.252033e-5,1,-1,-0.001,0.7354,-16345.168)">
      <stop
         offset="0"
         style="stop-color:#B68434"
         id="stop3267-3" />
      <stop
         offset="1"
         style="stop-color:#EFDC85"
         id="stop3269-3" />
    </linearGradient>
    <linearGradient
       id="linearGradient10833"
       gradientUnits="userSpaceOnUse"
       x1="16311.385"
       y1="-8.5337"
       x2="16342.135"
       y2="-8.5337"
       gradientTransform="matrix(3.252033e-5,1,-1,-0.001,0.7354,-16345.168)">
      <stop
         offset="0"
         style="stop-color:#B68434"
         id="stop10835" />
      <stop
         offset="1"
         style="stop-color:#EFDC85"
         id="stop10837" />
    </linearGradient>
    <linearGradient
       id="linearGradient10840"
       gradientUnits="userSpaceOnUse"
       x1="16311.385"
       y1="-8.5337"
       x2="16342.135"
       y2="-8.5337"
       gradientTransform="matrix(3.252033e-5,1,-1,-0.001,0.7354,-16345.168)">
      <stop
         offset="0"
         style="stop-color:#B68434"
         id="stop10842" />
      <stop
         offset="1"
         style="stop-color:#EFDC85"
         id="stop10844" />
    </linearGradient>
    <linearGradient
       id="linearGradient10847"
       gradientUnits="userSpaceOnUse"
       x1="16311.385"
       y1="-8.5337"
       x2="16342.135"
       y2="-8.5337"
       gradientTransform="matrix(3.252033e-5,1,-1,-0.001,0.7354,-16345.168)">
      <stop
         offset="0"
         style="stop-color:#B68434"
         id="stop10849" />
      <stop
         offset="1"
         style="stop-color:#EFDC85"
         id="stop10851" />
    </linearGradient>
    <linearGradient
       id="linearGradient10854"
       gradientUnits="userSpaceOnUse"
       x1="16311.385"
       y1="-8.5337"
       x2="16342.135"
       y2="-8.5337"
       gradientTransform="matrix(3.252033e-5,1,-1,-0.001,0.7354,-16345.168)">
      <stop
         offset="0"
         style="stop-color:#B68434"
         id="stop10856" />
      <stop
         offset="1"
         style="stop-color:#EFDC85"
         id="stop10858" />
    </linearGradient>
    <linearGradient
       id="linearGradient10861"
       gradientUnits="userSpaceOnUse"
       x1="16311.385"
       y1="-8.5337"
       x2="16342.135"
       y2="-8.5337"
       gradientTransform="matrix(3.252033e-5,1,-1,-0.001,0.7354,-16345.168)">
      <stop
         offset="0"
         style="stop-color:#B68434"
         id="stop10863" />
      <stop
         offset="1"
         style="stop-color:#EFDC85"
         id="stop10865" />
    </linearGradient>
    <linearGradient
       id="linearGradient10868"
       gradientUnits="userSpaceOnUse"
       x1="16311.385"
       y1="-8.5337"
       x2="16342.135"
       y2="-8.5337"
       gradientTransform="matrix(3.252033e-5,1,-1,-0.001,0.7354,-16345.168)">
      <stop
         offset="0"
         style="stop-color:#B68434"
         id="stop10870" />
      <stop
         offset="1"
         style="stop-color:#EFDC85"
         id="stop10872" />
    </linearGradient>
    <linearGradient
       y2="21.180441"
       x2="117.27059"
       y1="21.180441"
       x1="97.354042"
       gradientUnits="userSpaceOnUse"
       id="linearGradient10896"
       xlink:href="#SVGID_2_-5"
       inkscape:collect="always" />
    <linearGradient
       inkscape:collect="always"
       xlink:href="#SVGID_2_-5"
       id="linearGradient11046"
       gradientUnits="userSpaceOnUse"
       x1="97.354042"
       y1="21.180441"
       x2="117.27059"
       y2="21.180441" />
  </defs>
  <sodipodi:namedview
     id="base"
     pagecolor="#ffffff"
     bordercolor="#666666"
     borderopacity="1.0"
     inkscape:pageopacity="0.0"
     inkscape:pageshadow="2"
     inkscape:zoom="0.7"
     inkscape:cx="403.625"
     inkscape:cy="205"
     inkscape:document-units="px"
     inkscape:current-layer="layer1"
     showgrid="false"
     inkscape:window-width="1366"
     inkscape:window-height="722"
     inkscape:window-x="0"
     inkscape:window-y="27"
     inkscape:window-maximized="1" />
  <metadata
     id="metadata10903">
    <rdf:RDF>
      <cc:Work
         rdf:about="">
        <dc:format>image/svg+xml</dc:format>
        <dc:type
           rdf:resource="http://purl.org/dc/dcmitype/StillImage" />
        <dc:title></dc:title>
      </cc:Work>
    </rdf:RDF>
  </metadata>
  <g
     inkscape:label="Layer 1"
     inkscape:groupmode="layer"
     id="layer1"
     transform="translate(0,-952.36218)">
    <g
       id="g9639-0-8"
       transform="matrix(4.2207222,0,0,4.2207222,-402.78686,916.45847)"
       style="fill:#3c2b11;fill-opacity:1">
      <path
         inkscape:connector-curvature="0"
         id="path9627-2-0"
         d="m 100.65081,28.531327 c -0.12778,-0.150217 -0.29486,-0.393685 -0.37128,-0.541041 -0.0764,-0.147356 -0.15497,-0.283627 -0.17453,-0.302825 -0.036,-0.03533 -0.0675,-0.09132 -0.33324,-0.593401 -0.233736,-0.441533 -0.854232,-1.752122 -0.854232,-1.804277 0,-0.02599 -0.06596,-0.196137 -0.146581,-0.378103 C 98.52483,24.356175 98.510742,24.31943 98.322932,23.743093 98.222833,23.435921 98.114639,23.121768 98.0825,23.044975 97.957005,22.74512 97.874126,22.475568 97.830863,22.226563 l -0.04516,-0.259917 0.424901,0.172653 c 0.233695,0.09496 0.456941,0.172652 0.4961,0.172652 0.106319,0 0.08713,-0.928899 -0.03206,-1.551761 -0.05678,-0.29672 -0.214,-0.867089 -0.34938,-1.267487 -0.135381,-0.400398 -0.233415,-0.770226 -0.217853,-0.82184 0.01556,-0.05161 0.09876,-0.32336 0.184872,-0.603879 l 0.156577,-0.510036 0.132468,0.195883 c 0.07286,0.107735 0.194801,0.329397 0.270984,0.492582 0.07618,0.163185 0.176999,0.296899 0.224035,0.297142 0.04704,2.44e-4 0.137893,0.0925 0.201904,0.205011 l 0.116385,0.204569 0.791174,-0.02345 c 0.43514,-0.0129 0.91683,-0.05728 1.07041,-0.09863 0.15359,-0.04134 0.35224,-0.07592 0.44145,-0.07684 l 0.1622,-0.0017 -0.20845,0.366512 c -0.11465,0.201582 -0.28445,0.507881 -0.37734,0.680665 -0.0929,0.172784 -0.24229,0.439815 -0.33201,0.593401 -0.20418,0.349538 -0.48264,0.853128 -0.59834,1.082083 -0.0902,0.178484 -0.0851,0.266222 0.10791,1.850013 0.0728,0.597096 0.20251,1.788491 0.35354,3.246249 0.0966,0.932804 0.16525,2.233978 0.1178,2.233978 -0.0219,0 -0.14439,-0.122905 -0.27217,-0.273123 z"
         style="fill:#3c2b11;fill-opacity:1;fill-rule:nonzero;stroke:#f7e79b;stroke-width:0.06981181;stroke-opacity:1" />
      <path
         inkscape:connector-curvature="0"
         id="path9629-0-2"
         d="m 104.23238,29.757939 c -0.0428,-0.05153 -0.0571,-0.114359 -0.0318,-0.139624 0.0253,-0.02526 0.009,-0.04594 -0.0355,-0.04594 -0.0448,0 -0.0814,-0.05655 -0.0814,-0.125662 0,-0.06911 -0.0258,-0.155505 -0.0572,-0.191982 -0.0315,-0.03648 -0.12954,-0.301936 -0.21791,-0.58991 -0.0884,-0.287974 -0.19001,-0.617834 -0.22586,-0.733024 -0.0359,-0.115189 -0.0829,-0.586419 -0.10448,-1.047177 l -0.0393,-0.837742 0.35851,-0.488682 c 0.19718,-0.268776 0.41294,-0.564554 0.47946,-0.657284 0.0665,-0.09273 0.15371,-0.202685 0.19375,-0.244342 0.04,-0.04166 0.22616,-0.295647 0.41361,-0.564422 0.47863,-0.68629 0.57671,-0.784056 0.97578,-0.972671 1.21703,-0.575209 1.69982,-0.793111 1.85388,-0.836716 0.096,-0.02717 0.23736,-0.07493 0.31415,-0.106134 0.0768,-0.0312 0.22544,-0.09113 0.33034,-0.133161 0.10489,-0.04204 0.40045,-0.09792 0.65679,-0.124181 l 0.46607,-0.04775 -0.0406,0.484503 c -0.0223,0.266477 -0.0783,0.577623 -0.12444,0.691436 -0.1322,0.326376 -0.1779,0.457978 -0.31426,0.905051 -0.0703,0.230379 -0.19754,0.575947 -0.28281,0.76793 -0.0853,0.191982 -0.31821,0.768058 -0.51763,1.280167 -0.19942,0.51211 -0.3993,1.001876 -0.44417,1.08837 -0.0449,0.08649 -0.44213,0.463813 -0.88279,0.838487 -0.44067,0.374674 -0.92687,0.78824 -1.08046,0.919035 -0.63274,0.538844 -1.29203,1.005109 -1.42121,1.005109 -0.0345,0 -0.0976,-0.04216 -0.1404,-0.09369 z"
         style="fill:#3c2b11;fill-opacity:1;fill-rule:nonzero;stroke:#f7e79b;stroke-width:0.06981181;stroke-opacity:1" />
      <path
         inkscape:connector-curvature="0"
         id="path9631-9-5"
         d="m 107.14753,33.076274 c -0.0619,-0.06491 -0.1481,-0.186319 -0.1916,-0.269794 -0.0911,-0.174812 -0.29282,-0.288221 -1.72043,-0.967238 -0.61241,-0.291279 -1.50367,-0.810156 -1.78468,-1.039003 -0.0984,-0.08018 -0.26878,-0.208607 -0.37851,-0.2854 -0.30845,-0.215863 -0.80554,-0.675618 -0.8791,-0.813069 -0.0664,-0.123995 0.0108,-0.640588 0.13919,-0.932226 0.0338,-0.07679 0.11613,-0.263434 0.18292,-0.414756 0.0668,-0.151323 0.1424,-0.353476 0.168,-0.449228 0.079,-0.295488 0.19353,-0.241345 0.30687,0.145107 0.0597,0.2034 0.1905,0.652556 0.29078,0.998124 0.10027,0.345569 0.24334,0.781719 0.31794,0.969222 0.0746,0.187504 0.13563,0.382371 0.13563,0.433039 0,0.184826 0.16509,0.447752 0.28115,0.447752 0.13514,0 0.8168,-0.264518 0.97547,-0.378531 0.12124,-0.08712 0.33934,-0.214271 0.73302,-0.42735 0.84408,-0.456856 1.51569,-0.897665 1.62177,-1.06444 0.0662,-0.10402 0.13825,-0.204835 0.16018,-0.224033 0.0219,-0.0192 0.11539,-0.14486 0.20769,-0.279247 0.0923,-0.134388 0.18668,-0.260049 0.20976,-0.279248 0.0231,-0.0192 0.13454,-0.159943 0.2477,-0.312766 0.21366,-0.288542 0.33013,-0.43618 0.53735,-0.68116 0.0672,-0.07943 0.12217,-0.187169 0.12217,-0.23941 0,-0.05224 0.031,-0.149533 0.0688,-0.216206 0.0378,-0.06667 0.22472,-0.592453 0.41527,-1.168401 0.19054,-0.575947 0.42363,-1.267084 0.51798,-1.535859 0.0943,-0.268776 0.22676,-0.671948 0.29424,-0.895938 l 0.12271,-0.407256 -0.19121,-0.570109 c -0.20486,-0.610792 -0.72067,-1.703548 -0.87876,-1.861629 -0.0444,-0.04436 -0.17491,-0.255252 -0.32387,-0.523179 -0.11211,-0.201653 -0.64446,-0.94128 -0.72887,-1.012681 -0.0227,-0.0192 -0.07,-0.08666 -0.10512,-0.149913 -0.12662,-0.228097 -0.76563,-0.944951 -1.40657,-1.57793 -0.72643,-0.717406 -0.77342,-0.73444 -1.56848,-0.568585 -0.67609,0.141037 -1.0288,0.282052 -1.8709,0.747998 -0.24145,0.133595 -0.24848,0.133602 -0.5934,5.59e-4 -0.54646,-0.210722 -1.09034,-0.50127 -1.75819,-0.939211 -0.64149,-0.420659 -1.797233,-1.255816 -1.9773,-1.428827 -0.05729,-0.05504 -0.192627,-0.156733 -0.300752,-0.225974 -0.108124,-0.06924 -0.249493,-0.17017 -0.314153,-0.224284 -0.06466,-0.05412 -0.27464,-0.211918 -0.466622,-0.350674 l -0.349059,-0.252284 0.523588,0.0384 c 0.48738,0.03574 1.034474,0.102109 1.828371,0.221803 l 0.327417,0.04936 0.0216,-0.317594 0.0216,-0.317594 0.41888,0.381193 c 0.23037,0.209657 0.50424,0.444226 0.6086,0.521265 l 0.18973,0.14007 0.10585,-0.253357 c 0.23155,-0.554177 0.25424,-0.761024 0.13857,-1.263488 -0.0607,-0.2635 -0.12732,-0.565482 -0.14812,-0.671073 l -0.0378,-0.191982 0.69133,0 0.69134,0 0.50339,-0.459432 c 0.27686,-0.252688 0.50269,-0.511864 0.50183,-0.575947 -8.5e-4,-0.06408 -0.063,-0.195054 -0.13807,-0.291046 -0.0751,-0.09599 -0.13722,-0.192917 -0.13807,-0.215392 -0.002,-0.04629 1.2116,0.250102 1.33429,0.325933 0.1185,0.07324 -0.0121,-0.578276 -0.2304,-1.1492864 -0.0903,-0.2363113 -0.0292,-0.2563936 0.22641,-0.07438 l 0.2229,0.1587184 0.6345,-0.3390386 c 0.59701,-0.3190048 0.67586,-0.3420853 1.33443,-0.390599 0.79064,-0.058242 2.24607,0.036119 2.84308,0.1843275 0.78235,0.1942176 1.70038,0.6900741 3.50057,1.8907771 0.45469,0.30327 0.9023,0.598523 0.99469,0.656117 0.0924,0.0576 0.16805,0.159695 0.16812,0.226889 7e-5,0.06719 0.0237,0.11845 0.0525,0.113903 0.14122,-0.0223 0.22111,0.01971 0.25789,0.135584 0.0222,0.07002 0.0959,0.187832 0.16376,0.261795 0.24878,0.271218 0.50391,0.784832 0.45429,0.914566 -0.0268,0.07011 -0.15154,0.262247 -0.27716,0.42698 -0.12562,0.164734 -0.26392,0.431439 -0.30734,0.592678 -0.14549,0.540296 -0.0499,0.821526 0.59893,1.76303 0.32707,0.474566 0.6148,0.919495 0.63942,0.988731 0.0246,0.06924 0.095,0.184634 0.15631,0.256441 0.10774,0.126095 0.0943,0.129597 -0.39427,0.102453 l -0.50582,-0.0281 -0.0368,0.246606 c -0.15003,1.005671 -0.20836,1.229585 -0.3494,1.341453 -0.26315,0.208712 -0.56046,0.506499 -0.68234,0.683435 -0.18316,0.265901 -0.14615,0.773836 0.0426,0.585056 0.0658,-0.06576 0.77438,-0.298813 0.80759,-0.2656 0.0155,0.01548 -0.003,0.06818 -0.0418,0.117099 -0.0385,0.04892 -0.12483,0.235748 -0.19191,0.415164 -0.12723,0.340332 -0.12301,0.337428 -0.84012,0.579213 -0.19199,0.06473 -0.41189,0.1443 -0.48869,0.176822 -0.0768,0.03252 -0.23387,0.07861 -0.34906,0.10242 -0.11518,0.02381 -0.33509,0.07193 -0.48868,0.106936 -0.15358,0.03501 -0.4913,0.06502 -0.75047,0.06669 -0.25918,0.0017 -0.47123,0.02454 -0.47123,0.05082 0,0.07568 0.21666,0.880059 0.27858,1.034304 0.0308,0.07679 0.13995,0.38013 0.24248,0.674082 0.19462,0.557985 0.38354,0.810266 0.53614,0.715955 0.11647,-0.07198 0.3025,-0.221929 0.62023,-0.499937 0.39491,-0.345528 0.39744,-0.340663 0.209,0.401418 -0.1286,0.506458 -0.19091,0.737756 -0.23978,0.890101 -0.0481,0.149799 -0.0328,0.157076 0.32878,0.157076 0.36798,0 0.38512,-0.0088 0.58046,-0.2967 0.1107,-0.163185 0.21934,-0.312408 0.24142,-0.331606 0.0373,-0.03248 0.44664,-0.6393 0.93762,-1.390116 l 0.20943,-0.320273 0.0209,0.401418 c 0.0115,0.220779 0.0373,0.401418 0.0573,0.401418 0.0626,0 0.19176,-0.160442 0.46276,-0.574874 l 0.2618,-0.400344 4.9e-4,-1.065704 4.9e-4,-1.065704 0.25738,-0.17453 c 0.14157,-0.09599 0.32841,-0.245214 0.41522,-0.331606 0.0868,-0.08639 0.17497,-0.157076 0.19592,-0.157076 0.0209,0 0.0381,0.282738 0.0381,0.628306 l 0,0.628306 -0.27111,0 c -0.29308,0 -0.35425,0.08919 -0.35625,0.519386 -5.6e-4,0.112879 -0.0314,0.379909 -0.0687,0.593401 -0.0372,0.213492 -0.10328,0.623782 -0.14676,0.911756 -0.1356,0.898012 -0.28676,1.486517 -0.48417,1.884919 -0.48827,0.985388 -0.55797,1.133517 -0.55797,1.185714 0,0.0619 -0.62845,1.202308 -0.69309,1.257699 -0.0224,0.0192 -0.1254,0.148598 -0.22889,0.287554 -0.10349,0.138957 -0.41747,0.420899 -0.69773,0.626538 -0.28025,0.205639 -0.52526,0.392054 -0.54446,0.414255 -0.0192,0.0222 -0.16057,0.13295 -0.31415,0.246109 -0.15359,0.11316 -0.3735,0.291992 -0.48869,0.397405 -0.11519,0.105413 -0.22811,0.191805 -0.25093,0.191982 -0.0228,2.1e-4 -0.13278,0.08021 -0.24434,0.177852 -0.11157,0.09764 -0.28138,0.238809 -0.37737,0.313709 -0.096,0.0749 -0.30019,0.23415 -0.45378,0.353889 -0.15359,0.11974 -0.46774,0.345973 -0.69812,0.502741 -0.23038,0.156768 -0.46306,0.328706 -0.51707,0.382084 -0.17368,0.171652 -0.82774,0.434214 -1.08165,0.434214 -0.23157,0 -0.26786,0.03355 -0.60547,0.559856 -0.48369,0.754032 -0.72271,0.910184 -0.98003,0.640249 l -3e-5,0 z m 5.59972,-13.777248 c 0.3427,-0.352629 0.62132,-0.699232 0.62132,-0.772917 0,-0.07348 0.0513,-0.184899 0.11402,-0.247607 0.25138,-0.251381 -0.004,-1.974094 -0.35356,-2.389237 -0.0486,-0.05759 -0.10855,-0.161686 -0.13332,-0.231314 -0.0248,-0.06963 -0.0688,-0.112904 -0.0979,-0.09617 -0.0959,0.05521 -1.98208,0.955707 -3.63071,1.733377 l -0.78538,0.370472 0,0.296141 c 0,0.189957 0.0664,0.415932 0.18522,0.630225 0.18466,0.333068 0.68467,1.095799 0.82365,1.256434 0.0522,0.06035 0.44056,0.08537 1.35426,0.08727 l 1.28105,0.0027 0.62132,-0.639324 0,3e-6 z m -4.68438,-3.202539 c 0.0192,-0.02041 0.30194,-0.238219 0.62831,-0.48401 0.83233,-0.626825 1.12149,-0.85218 1.31765,-1.026871 0.239,-0.212841 0.64029,-0.401889 1.37011,-0.64545 0.82371,-0.274901 1.45177,-0.498914 1.52429,-0.543682 0.0673,-0.04153 -0.44273,-0.294802 -1.00071,-0.496944 l -0.38396,-0.139101 0.19653,-0.07616 c 0.10809,-0.04189 0.24745,-0.07616 0.30969,-0.07616 0.0622,0 0.31937,-0.0487 0.5714,-0.108226 0.25203,-0.05952 0.52892,-0.122954 0.61532,-0.140954 0.0864,-0.018 0.15707,-0.05613 0.15707,-0.08474 0,-0.05243 -0.35739,-0.221599 -0.87265,-0.413049 -0.15358,-0.05707 -0.34207,-0.13237 -0.41887,-0.16734 -0.22882,-0.104203 -0.8632,-0.202679 -1.30563,-0.202679 -0.39344,0 -0.62076,0.06814 -0.79368,0.237914 -0.0427,0.04193 -0.16901,0.144297 -0.28069,0.22748 -0.90145,0.671481 -1.22822,0.914219 -1.38821,1.031206 -0.10175,0.0744 -0.25369,0.194958 -0.33765,0.26791 -0.084,0.07295 -0.18666,0.15345 -0.22822,0.178883 -0.0416,0.02543 -0.22204,0.26615 -0.40106,0.534926 -0.17903,0.268775 -0.35635,0.525846 -0.39405,0.571268 -0.0377,0.04542 -0.21085,0.296744 -0.38477,0.558494 -0.17392,0.26175 -0.36753,0.547438 -0.43025,0.634861 -0.0627,0.08742 -0.10156,0.171423 -0.0863,0.186666 0.042,0.04198 1.09835,-0.18503 1.58002,-0.339544 0.15039,-0.04824 0.15708,-0.03349 0.15708,0.346829 0,0.368261 0.009,0.390233 0.12217,0.301405 0.0672,-0.0527 0.13788,-0.112516 0.15707,-0.132932 l 0,0 z"
         style="fill:#3c2b11;fill-opacity:1;fill-rule:nonzero;stroke:#f7e79b;stroke-width:0.06981181;stroke-opacity:1" />
      <path
         inkscape:connector-curvature="0"
         id="path9633-6-0"
         d="m 104.85153,19.077242 c 0,-0.775461 0.004,-0.7947 0.19198,-0.961369 0.25424,-0.22522 0.685,-0.551125 0.72844,-0.551125 0.019,0 0.0765,0.133515 0.12772,0.2967 0.0512,0.163185 0.11908,0.326545 0.1508,0.363022 0.10521,0.120984 0.0602,0.299673 -0.18821,0.747261 -0.26562,0.478598 -0.67727,0.896807 -0.88274,0.896807 -0.11658,0 -0.12799,-0.07051 -0.12799,-0.791296 z"
         style="fill:#3c2b11;fill-opacity:1;fill-rule:nonzero;stroke:#f7e79b;stroke-width:0.06981181;stroke-opacity:1" />
      <path
         inkscape:connector-curvature="0"
         id="path9635-5-1"
         d="m 99.173504,16.750277 c -0.09377,-0.09378 -0.04094,-0.200482 0.154224,-0.311494 L 99.527611,16.325088 99.6,16.560953 c 0.07191,0.234306 0.07089,0.235865 -0.153783,0.235865 -0.124394,0 -0.247115,-0.02094 -0.272713,-0.04654 z"
         style="fill:#3c2b11;fill-opacity:1;fill-rule:nonzero;stroke:#f7e79b;stroke-width:0.06981181;stroke-opacity:1" />
      <path
         inkscape:connector-curvature="0"
         id="path9637-6-9"
         d="m 112.25158,17.258064 c 0,-0.262011 0.19099,-0.407051 0.29388,-0.223184 0.032,0.05726 0.10267,0.148515 0.15695,0.202794 0.13174,0.131735 0.007,0.257262 -0.25535,0.257262 -0.17569,0 -0.19548,-0.02398 -0.19548,-0.236872 z"
         style="fill:#3c2b11;fill-opacity:1;fill-rule:nonzero;stroke:#f7e79b;stroke-width:0.06981181;stroke-opacity:1" />
    </g>
  </g>
</svg>
